G04 #@! TF.GenerationSoftware,KiCad,Pcbnew,10.0.3*
G04 #@! TF.ProjectId,Speakeasy_panel_3x3,53706561-6b65-4617-9379-5f70616e656c,rev?*
G04 #@! TF.SameCoordinates,Original*
G04 #@! TF.FileFunction,Profile,NP*
%FSLAX46Y46*%
G04 Gerber Fmt 4.6, Leading zero omitted, Abs format (unit mm)*
%MOMM*%
%LPD*%
G01*
G04 APERTURE LIST*
G04 #@! TA.AperFunction,Profile*
%ADD10C,0.100000*%
G04 #@! TD*
G04 APERTURE END LIST*
D10*
X85000000Y-20000000D02*
X85000000Y-26000000D01*
X85000000Y-26000000D02*
X104000000Y-26000000D01*
X85000000Y-35500000D02*
X85000000Y-67500000D01*
X85000000Y-67500000D02*
X85021668Y-67941077D01*
X85000000Y-78500000D02*
X85000000Y-110500000D01*
X85000000Y-110500000D02*
X85021668Y-110941077D01*
X85000000Y-121500000D02*
X85000000Y-153500000D01*
X85000000Y-153500000D02*
X85021668Y-153941077D01*
X85000000Y-163000000D02*
X85000000Y-169000000D01*
X85000000Y-169000000D02*
X212000000Y-169000000D01*
X85021668Y-35058922D02*
X85000000Y-35500000D01*
X85021668Y-67941077D02*
X85086466Y-68377906D01*
X85021668Y-78058922D02*
X85000000Y-78500000D01*
X85021668Y-110941077D02*
X85086466Y-111377906D01*
X85021668Y-121058922D02*
X85000000Y-121500000D01*
X85021668Y-153941077D02*
X85086466Y-154377906D01*
X85086466Y-34622093D02*
X85021668Y-35058922D01*
X85086466Y-68377906D02*
X85193768Y-68806281D01*
X85086466Y-77622093D02*
X85021668Y-78058922D01*
X85086466Y-111377906D02*
X85193768Y-111806281D01*
X85086466Y-120622093D02*
X85021668Y-121058922D01*
X85086466Y-154377906D02*
X85193768Y-154806281D01*
X85193768Y-34193718D02*
X85086466Y-34622093D01*
X85193768Y-68806281D02*
X85342542Y-69222075D01*
X85193768Y-77193718D02*
X85086466Y-77622093D01*
X85193768Y-111806281D02*
X85342542Y-112222075D01*
X85193768Y-120193718D02*
X85086466Y-120622093D01*
X85193768Y-154806281D02*
X85342542Y-155222075D01*
X85342542Y-33777924D02*
X85193768Y-34193718D01*
X85342542Y-69222075D02*
X85531354Y-69621285D01*
X85342542Y-76777924D02*
X85193768Y-77193718D01*
X85342542Y-112222075D02*
X85531354Y-112621285D01*
X85342542Y-119777924D02*
X85193768Y-120193718D01*
X85342542Y-155222075D02*
X85531354Y-155621285D01*
X85531354Y-33378714D02*
X85342542Y-33777924D01*
X85531354Y-69621285D02*
X85758386Y-70000066D01*
X85531354Y-76378714D02*
X85342542Y-76777924D01*
X85531354Y-112621285D02*
X85758386Y-113000066D01*
X85531354Y-119378714D02*
X85342542Y-119777924D01*
X85531354Y-155621285D02*
X85758386Y-156000066D01*
X85758386Y-32999933D02*
X85531354Y-33378714D01*
X85758386Y-70000066D02*
X86021452Y-70354769D01*
X85758386Y-75999933D02*
X85531354Y-76378714D01*
X85758386Y-113000066D02*
X86021452Y-113354769D01*
X85758386Y-118999933D02*
X85531354Y-119378714D01*
X85758386Y-156000066D02*
X86021452Y-156354769D01*
X86021452Y-32645230D02*
X85758386Y-32999933D01*
X86021452Y-70354769D02*
X86318019Y-70681980D01*
X86021452Y-75645230D02*
X85758386Y-75999933D01*
X86021452Y-113354769D02*
X86318019Y-113681980D01*
X86021452Y-118645230D02*
X85758386Y-118999933D01*
X86021452Y-156354769D02*
X86318019Y-156681980D01*
X86318019Y-32318019D02*
X86021452Y-32645230D01*
X86318019Y-70681980D02*
X86645230Y-70978547D01*
X86318019Y-75318019D02*
X86021452Y-75645230D01*
X86318019Y-113681980D02*
X86645230Y-113978547D01*
X86318019Y-118318019D02*
X86021452Y-118645230D01*
X86318019Y-156681980D02*
X86645230Y-156978547D01*
X86645230Y-32021452D02*
X86318019Y-32318019D01*
X86645230Y-70978547D02*
X86999933Y-71241613D01*
X86645230Y-75021452D02*
X86318019Y-75318019D01*
X86645230Y-113978547D02*
X86999933Y-114241613D01*
X86645230Y-118021452D02*
X86318019Y-118318019D01*
X86645230Y-156978547D02*
X86999933Y-157241613D01*
X86999933Y-31758386D02*
X86645230Y-32021452D01*
X86999933Y-71241613D02*
X87378714Y-71468645D01*
X86999933Y-74758386D02*
X86645230Y-75021452D01*
X86999933Y-114241613D02*
X87378714Y-114468645D01*
X86999933Y-117758386D02*
X86645230Y-118021452D01*
X86999933Y-157241613D02*
X87378714Y-157468645D01*
X87378714Y-31531354D02*
X86999933Y-31758386D01*
X87378714Y-71468645D02*
X87777924Y-71657457D01*
X87378714Y-74531354D02*
X86999933Y-74758386D01*
X87378714Y-114468645D02*
X87777924Y-114657457D01*
X87378714Y-117531354D02*
X86999933Y-117758386D01*
X87378714Y-157468645D02*
X87777924Y-157657457D01*
X87777924Y-31342542D02*
X87378714Y-31531354D01*
X87777924Y-71657457D02*
X88193718Y-71806231D01*
X87777924Y-74342542D02*
X87378714Y-74531354D01*
X87777924Y-114657457D02*
X88193718Y-114806231D01*
X87777924Y-117342542D02*
X87378714Y-117531354D01*
X87777924Y-157657457D02*
X88193718Y-157806231D01*
X88193718Y-31193768D02*
X87777924Y-31342542D01*
X88193718Y-71806231D02*
X88622093Y-71913533D01*
X88193718Y-74193768D02*
X87777924Y-74342542D01*
X88193718Y-114806231D02*
X88622093Y-114913533D01*
X88193718Y-117193768D02*
X87777924Y-117342542D01*
X88193718Y-157806231D02*
X88622093Y-157913533D01*
X88622093Y-31086466D02*
X88193718Y-31193768D01*
X88622093Y-71913533D02*
X89058922Y-71978331D01*
X88622093Y-74086466D02*
X88193718Y-74193768D01*
X88622093Y-114913533D02*
X89058922Y-114978331D01*
X88622093Y-117086466D02*
X88193718Y-117193768D01*
X88622093Y-157913533D02*
X89058922Y-157978331D01*
X89058922Y-31021668D02*
X88622093Y-31086466D01*
X89058922Y-71978331D02*
X89500000Y-72000000D01*
X89058922Y-74021668D02*
X88622093Y-74086466D01*
X89058922Y-114978331D02*
X89500000Y-115000000D01*
X89058922Y-117021668D02*
X88622093Y-117086466D01*
X89058922Y-157978331D02*
X89500000Y-158000000D01*
X89500000Y-31000000D02*
X89058922Y-31021668D01*
X89500000Y-72000000D02*
X104000000Y-72000000D01*
X89500000Y-74000000D02*
X89058922Y-74021668D01*
X89500000Y-115000000D02*
X104000000Y-115000000D01*
X89500000Y-117000000D02*
X89058922Y-117021668D01*
X89500000Y-158000000D02*
X104000000Y-158000000D01*
X97201621Y-40368907D02*
X97214587Y-40107043D01*
X97201621Y-40631092D02*
X97201621Y-40368907D01*
X97201621Y-83368907D02*
X97214587Y-83107043D01*
X97201621Y-83631092D02*
X97201621Y-83368907D01*
X97201621Y-126368907D02*
X97214587Y-126107043D01*
X97201621Y-126631092D02*
X97201621Y-126368907D01*
X97214587Y-40107043D02*
X97240487Y-39846140D01*
X97214587Y-40892956D02*
X97201621Y-40631092D01*
X97214587Y-83107043D02*
X97240487Y-82846140D01*
X97214587Y-83892956D02*
X97201621Y-83631092D01*
X97214587Y-126107043D02*
X97240487Y-125846140D01*
X97214587Y-126892956D02*
X97201621Y-126631092D01*
X97240487Y-39846140D02*
X97279259Y-39586838D01*
X97240487Y-41153859D02*
X97214587Y-40892956D01*
X97240487Y-82846140D02*
X97279259Y-82586838D01*
X97240487Y-84153859D02*
X97214587Y-83892956D01*
X97240487Y-125846140D02*
X97279259Y-125586838D01*
X97240487Y-127153859D02*
X97214587Y-126892956D01*
X97279259Y-39586838D02*
X97330806Y-39329770D01*
X97279259Y-41413161D02*
X97240487Y-41153859D01*
X97279259Y-82586838D02*
X97330806Y-82329770D01*
X97279259Y-84413161D02*
X97240487Y-84153859D01*
X97279259Y-125586838D02*
X97330806Y-125329770D01*
X97279259Y-127413161D02*
X97240487Y-127153859D01*
X97330806Y-39329770D02*
X97395003Y-39075566D01*
X97330806Y-41670229D02*
X97279259Y-41413161D01*
X97330806Y-82329770D02*
X97395003Y-82075566D01*
X97330806Y-84670229D02*
X97279259Y-84413161D01*
X97330806Y-125329770D02*
X97395003Y-125075566D01*
X97330806Y-127670229D02*
X97279259Y-127413161D01*
X97395003Y-39075566D02*
X97471693Y-38824848D01*
X97395003Y-41924433D02*
X97330806Y-41670229D01*
X97395003Y-82075566D02*
X97471693Y-81824848D01*
X97395003Y-84924433D02*
X97330806Y-84670229D01*
X97395003Y-125075566D02*
X97471693Y-124824848D01*
X97395003Y-127924433D02*
X97330806Y-127670229D01*
X97471693Y-38824848D02*
X97560688Y-38578229D01*
X97471693Y-42175151D02*
X97395003Y-41924433D01*
X97471693Y-81824848D02*
X97560688Y-81578229D01*
X97471693Y-85175151D02*
X97395003Y-84924433D01*
X97471693Y-124824848D02*
X97560688Y-124578229D01*
X97471693Y-128175151D02*
X97395003Y-127924433D01*
X97560688Y-38578229D02*
X97661770Y-38336313D01*
X97560688Y-42421770D02*
X97471693Y-42175151D01*
X97560688Y-81578229D02*
X97661770Y-81336313D01*
X97560688Y-85421770D02*
X97471693Y-85175151D01*
X97560688Y-124578229D02*
X97661770Y-124336313D01*
X97560688Y-128421770D02*
X97471693Y-128175151D01*
X97661770Y-38336313D02*
X97774692Y-38099692D01*
X97661770Y-42663686D02*
X97560688Y-42421770D01*
X97661770Y-81336313D02*
X97774692Y-81099692D01*
X97661770Y-85663686D02*
X97560688Y-85421770D01*
X97661770Y-124336313D02*
X97774692Y-124099692D01*
X97661770Y-128663686D02*
X97560688Y-128421770D01*
X97774692Y-38099692D02*
X97899178Y-37868945D01*
X97774692Y-42900307D02*
X97661770Y-42663686D01*
X97774692Y-81099692D02*
X97899178Y-80868945D01*
X97774692Y-85900307D02*
X97661770Y-85663686D01*
X97774692Y-124099692D02*
X97899178Y-123868945D01*
X97774692Y-128900307D02*
X97661770Y-128663686D01*
X97899178Y-37868945D02*
X98034923Y-37644637D01*
X97899178Y-43131054D02*
X97774692Y-42900307D01*
X97899178Y-80868945D02*
X98034923Y-80644637D01*
X97899178Y-86131054D02*
X97774692Y-85900307D01*
X97899178Y-123868945D02*
X98034923Y-123644637D01*
X97899178Y-129131054D02*
X97774692Y-128900307D01*
X98034923Y-37644637D02*
X98181595Y-37427316D01*
X98034923Y-43355362D02*
X97899178Y-43131054D01*
X98034923Y-80644637D02*
X98181595Y-80427316D01*
X98034923Y-86355362D02*
X97899178Y-86131054D01*
X98034923Y-123644637D02*
X98181595Y-123427316D01*
X98034923Y-129355362D02*
X97899178Y-129131054D01*
X98181595Y-37427316D02*
X98338835Y-37217515D01*
X98181595Y-43572683D02*
X98034923Y-43355362D01*
X98181595Y-80427316D02*
X98338835Y-80217515D01*
X98181595Y-86572683D02*
X98034923Y-86355362D01*
X98181595Y-123427316D02*
X98338835Y-123217515D01*
X98181595Y-129572683D02*
X98034923Y-129355362D01*
X98338835Y-37217515D02*
X98506257Y-37015746D01*
X98338835Y-43782484D02*
X98181595Y-43572683D01*
X98338835Y-80217515D02*
X98506257Y-80015746D01*
X98338835Y-86782484D02*
X98181595Y-86572683D01*
X98338835Y-123217515D02*
X98506257Y-123015746D01*
X98338835Y-129782484D02*
X98181595Y-129572683D01*
X98506257Y-37015746D02*
X98683453Y-36822504D01*
X98506257Y-43984253D02*
X98338835Y-43782484D01*
X98506257Y-80015746D02*
X98683453Y-79822504D01*
X98506257Y-86984253D02*
X98338835Y-86782484D01*
X98506257Y-123015746D02*
X98683453Y-122822504D01*
X98506257Y-129984253D02*
X98338835Y-129782484D01*
X98683453Y-36822504D02*
X98869989Y-36638261D01*
X98683453Y-44177495D02*
X98506257Y-43984253D01*
X98683453Y-79822504D02*
X98869989Y-79638261D01*
X98683453Y-87177495D02*
X98506257Y-86984253D01*
X98683453Y-122822504D02*
X98869989Y-122638261D01*
X98683453Y-130177495D02*
X98506257Y-129984253D01*
X98869989Y-36638261D02*
X99065408Y-36463469D01*
X98869989Y-44361738D02*
X98683453Y-44177495D01*
X98869989Y-79638261D02*
X99065408Y-79463469D01*
X98869989Y-87361738D02*
X98683453Y-87177495D01*
X98869989Y-122638261D02*
X99065408Y-122463469D01*
X98869989Y-130361738D02*
X98683453Y-130177495D01*
X99065408Y-36463469D02*
X99269232Y-36298555D01*
X99065408Y-44536530D02*
X98869989Y-44361738D01*
X99065408Y-79463469D02*
X99269232Y-79298555D01*
X99065408Y-87536530D02*
X98869989Y-87361738D01*
X99065408Y-122463469D02*
X99269232Y-122298555D01*
X99065408Y-130536530D02*
X98869989Y-130361738D01*
X99269232Y-36298555D02*
X99480962Y-36143922D01*
X99269232Y-44701444D02*
X99065408Y-44536530D01*
X99269232Y-79298555D02*
X99480962Y-79143922D01*
X99269232Y-87701444D02*
X99065408Y-87536530D01*
X99269232Y-122298555D02*
X99480962Y-122143922D01*
X99269232Y-130701444D02*
X99065408Y-130536530D01*
X99480962Y-36143922D02*
X99700080Y-35999949D01*
X99480962Y-44856077D02*
X99269232Y-44701444D01*
X99480962Y-79143922D02*
X99700080Y-78999949D01*
X99480962Y-87856077D02*
X99269232Y-87701444D01*
X99480962Y-122143922D02*
X99700080Y-121999949D01*
X99480962Y-130856077D02*
X99269232Y-130701444D01*
X99700080Y-35999949D02*
X99926050Y-35866989D01*
X99700080Y-45000050D02*
X99480962Y-44856077D01*
X99700080Y-78999949D02*
X99926050Y-78866989D01*
X99700080Y-88000050D02*
X99480962Y-87856077D01*
X99700080Y-121999949D02*
X99926050Y-121866989D01*
X99700080Y-131000050D02*
X99480962Y-130856077D01*
X99926050Y-35866989D02*
X100158319Y-35745367D01*
X99926050Y-45133010D02*
X99700080Y-45000050D01*
X99926050Y-78866989D02*
X100158319Y-78745367D01*
X99926050Y-88133010D02*
X99700080Y-88000050D01*
X99926050Y-121866989D02*
X100158319Y-121745367D01*
X99926050Y-131133010D02*
X99700080Y-131000050D01*
X100158319Y-35745367D02*
X100396319Y-35635379D01*
X100158319Y-45254632D02*
X99926050Y-45133010D01*
X100158319Y-78745367D02*
X100396319Y-78635379D01*
X100158319Y-88254632D02*
X99926050Y-88133010D01*
X100158319Y-121745367D02*
X100396319Y-121635379D01*
X100158319Y-131254632D02*
X99926050Y-131133010D01*
X100396319Y-35635379D02*
X100639467Y-35537297D01*
X100396319Y-45364620D02*
X100158319Y-45254632D01*
X100396319Y-78635379D02*
X100639467Y-78537297D01*
X100396319Y-88364620D02*
X100158319Y-88254632D01*
X100396319Y-121635379D02*
X100639467Y-121537297D01*
X100396319Y-131364620D02*
X100158319Y-131254632D01*
X100639467Y-35537297D02*
X100887167Y-35451359D01*
X100639467Y-45462702D02*
X100396319Y-45364620D01*
X100639467Y-78537297D02*
X100887167Y-78451359D01*
X100639467Y-88462702D02*
X100396319Y-88364620D01*
X100639467Y-121537297D02*
X100887167Y-121451359D01*
X100639467Y-131462702D02*
X100396319Y-131364620D01*
X100887167Y-35451359D02*
X101138815Y-35377776D01*
X100887167Y-45548640D02*
X100639467Y-45462702D01*
X100887167Y-78451359D02*
X101138815Y-78377776D01*
X100887167Y-88548640D02*
X100639467Y-88462702D01*
X100887167Y-121451359D02*
X101138815Y-121377776D01*
X100887167Y-131548640D02*
X100639467Y-131462702D01*
X101138815Y-35377776D02*
X101393793Y-35316728D01*
X101138815Y-45622223D02*
X100887167Y-45548640D01*
X101138815Y-78377776D02*
X101393793Y-78316728D01*
X101138815Y-88622223D02*
X100887167Y-88548640D01*
X101138815Y-121377776D02*
X101393793Y-121316728D01*
X101138815Y-131622223D02*
X100887167Y-131548640D01*
X101393793Y-35316728D02*
X101651479Y-35268364D01*
X101393793Y-45683271D02*
X101138815Y-45622223D01*
X101393793Y-78316728D02*
X101651479Y-78268364D01*
X101393793Y-88683271D02*
X101138815Y-88622223D01*
X101393793Y-121316728D02*
X101651479Y-121268364D01*
X101393793Y-131683271D02*
X101138815Y-131622223D01*
X101651479Y-35268364D02*
X101911241Y-35232803D01*
X101651479Y-45731635D02*
X101393793Y-45683271D01*
X101651479Y-78268364D02*
X101911241Y-78232803D01*
X101651479Y-88731635D02*
X101393793Y-88683271D01*
X101651479Y-121268364D02*
X101911241Y-121232803D01*
X101651479Y-131731635D02*
X101393793Y-131683271D01*
X101911241Y-35232803D02*
X102172444Y-35210131D01*
X101911241Y-45767196D02*
X101651479Y-45731635D01*
X101911241Y-78232803D02*
X102172444Y-78210131D01*
X101911241Y-88767196D02*
X101651479Y-88731635D01*
X101911241Y-121232803D02*
X102172444Y-121210131D01*
X101911241Y-131767196D02*
X101651479Y-131731635D01*
X102172444Y-35210131D02*
X102434448Y-35200405D01*
X102172444Y-45789868D02*
X101911241Y-45767196D01*
X102172444Y-78210131D02*
X102434448Y-78200405D01*
X102172444Y-88789868D02*
X101911241Y-88767196D01*
X102172444Y-121210131D02*
X102434448Y-121200405D01*
X102172444Y-131789868D02*
X101911241Y-131767196D01*
X102434448Y-35200405D02*
X102696613Y-35203648D01*
X102434448Y-45799594D02*
X102172444Y-45789868D01*
X102434448Y-78200405D02*
X102696613Y-78203648D01*
X102434448Y-88799594D02*
X102172444Y-88789868D01*
X102434448Y-121200405D02*
X102696613Y-121203648D01*
X102434448Y-131799594D02*
X102172444Y-131789868D01*
X102696613Y-35203648D02*
X102958297Y-35219851D01*
X102696613Y-45796351D02*
X102434448Y-45799594D01*
X102696613Y-78203648D02*
X102958297Y-78219851D01*
X102696613Y-88796351D02*
X102434448Y-88799594D01*
X102696613Y-121203648D02*
X102958297Y-121219851D01*
X102696613Y-131796351D02*
X102434448Y-131799594D01*
X102958297Y-35219851D02*
X103218859Y-35248977D01*
X102958297Y-45780148D02*
X102696613Y-45796351D01*
X102958297Y-78219851D02*
X103218859Y-78248977D01*
X102958297Y-88780148D02*
X102696613Y-88796351D01*
X102958297Y-121219851D02*
X103218859Y-121248977D01*
X102958297Y-131780148D02*
X102696613Y-131796351D01*
X103218859Y-35248977D02*
X103477662Y-35290952D01*
X103218859Y-45751022D02*
X102958297Y-45780148D01*
X103218859Y-78248977D02*
X103477662Y-78290952D01*
X103218859Y-88751022D02*
X102958297Y-88780148D01*
X103218859Y-121248977D02*
X103477662Y-121290952D01*
X103218859Y-131751022D02*
X102958297Y-131780148D01*
X103477662Y-35290952D02*
X103734073Y-35345675D01*
X103477662Y-45709047D02*
X103218859Y-45751022D01*
X103477662Y-78290952D02*
X103734073Y-78345675D01*
X103477662Y-88709047D02*
X103218859Y-88751022D01*
X103477662Y-121290952D02*
X103734073Y-121345675D01*
X103477662Y-131709047D02*
X103218859Y-131751022D01*
X103734073Y-35345675D02*
X103987463Y-35413011D01*
X103734073Y-45654324D02*
X103477662Y-45709047D01*
X103734073Y-78345675D02*
X103987463Y-78413011D01*
X103734073Y-88654324D02*
X103477662Y-88709047D01*
X103734073Y-121345675D02*
X103987463Y-121413011D01*
X103734073Y-131654324D02*
X103477662Y-131709047D01*
X103987463Y-35413011D02*
X104237214Y-35492796D01*
X103987463Y-45586988D02*
X103734073Y-45654324D01*
X103987463Y-78413011D02*
X104237214Y-78492796D01*
X103987463Y-88586988D02*
X103734073Y-88654324D01*
X103987463Y-121413011D02*
X104237214Y-121492796D01*
X103987463Y-131586988D02*
X103734073Y-131654324D01*
X104000000Y-26000000D02*
X104000000Y-31000000D01*
X104000000Y-31000000D02*
X89500000Y-31000000D01*
X104000000Y-72000000D02*
X104000000Y-74000000D01*
X104000000Y-74000000D02*
X89500000Y-74000000D01*
X104000000Y-115000000D02*
X104000000Y-117000000D01*
X104000000Y-117000000D02*
X89500000Y-117000000D01*
X104000000Y-158000000D02*
X104000000Y-163000000D01*
X104000000Y-163000000D02*
X85000000Y-163000000D01*
X104237214Y-35492796D02*
X104482713Y-35584834D01*
X104237214Y-45507203D02*
X103987463Y-45586988D01*
X104237214Y-78492796D02*
X104482713Y-78584834D01*
X104237214Y-88507203D02*
X103987463Y-88586988D01*
X104237214Y-121492796D02*
X104482713Y-121584834D01*
X104237214Y-131507203D02*
X103987463Y-131586988D01*
X104482713Y-35584834D02*
X104723360Y-35688901D01*
X104482713Y-45415165D02*
X104237214Y-45507203D01*
X104482713Y-78584834D02*
X104723360Y-78688901D01*
X104482713Y-88415165D02*
X104237214Y-88507203D01*
X104482713Y-121584834D02*
X104723360Y-121688901D01*
X104482713Y-131415165D02*
X104237214Y-131507203D01*
X104723360Y-35688901D02*
X104958566Y-35804741D01*
X104723360Y-45311098D02*
X104482713Y-45415165D01*
X104723360Y-78688901D02*
X104958566Y-78804741D01*
X104723360Y-88311098D02*
X104482713Y-88415165D01*
X104723360Y-121688901D02*
X104958566Y-121804741D01*
X104723360Y-131311098D02*
X104482713Y-131415165D01*
X104958566Y-35804741D02*
X105187756Y-35932072D01*
X104958566Y-45195258D02*
X104723360Y-45311098D01*
X104958566Y-78804741D02*
X105187756Y-78932072D01*
X104958566Y-88195258D02*
X104723360Y-88311098D01*
X104958566Y-121804741D02*
X105187756Y-121932072D01*
X104958566Y-131195258D02*
X104723360Y-131311098D01*
X105187756Y-35932072D02*
X105410368Y-36070580D01*
X105187756Y-45067927D02*
X104958566Y-45195258D01*
X105187756Y-78932072D02*
X105410368Y-79070580D01*
X105187756Y-88067927D02*
X104958566Y-88195258D01*
X105187756Y-121932072D02*
X105410368Y-122070580D01*
X105187756Y-131067927D02*
X104958566Y-131195258D01*
X105410368Y-36070580D02*
X105625858Y-36219929D01*
X105410368Y-44929419D02*
X105187756Y-45067927D01*
X105410368Y-79070580D02*
X105625858Y-79219929D01*
X105410368Y-87929419D02*
X105187756Y-88067927D01*
X105410368Y-122070580D02*
X105625858Y-122219929D01*
X105410368Y-130929419D02*
X105187756Y-131067927D01*
X105625858Y-36219929D02*
X105833699Y-36379751D01*
X105625858Y-44780070D02*
X105410368Y-44929419D01*
X105625858Y-79219929D02*
X105833699Y-79379751D01*
X105625858Y-87780070D02*
X105410368Y-87929419D01*
X105625858Y-122219929D02*
X105833699Y-122379751D01*
X105625858Y-130780070D02*
X105410368Y-130929419D01*
X105833699Y-36379751D02*
X106033382Y-36549656D01*
X105833699Y-44620248D02*
X105625858Y-44780070D01*
X105833699Y-79379751D02*
X106033382Y-79549656D01*
X105833699Y-87620248D02*
X105625858Y-87780070D01*
X105833699Y-122379751D02*
X106033382Y-122549656D01*
X105833699Y-130620248D02*
X105625858Y-130780070D01*
X106033382Y-36549656D02*
X106224417Y-36729229D01*
X106033382Y-44450343D02*
X105833699Y-44620248D01*
X106033382Y-79549656D02*
X106224417Y-79729229D01*
X106033382Y-87450343D02*
X105833699Y-87620248D01*
X106033382Y-122549656D02*
X106224417Y-122729229D01*
X106033382Y-130450343D02*
X105833699Y-130620248D01*
X106224417Y-36729229D02*
X106406339Y-36918029D01*
X106224417Y-44270770D02*
X106033382Y-44450343D01*
X106224417Y-79729229D02*
X106406339Y-79918029D01*
X106224417Y-87270770D02*
X106033382Y-87450343D01*
X106224417Y-122729229D02*
X106406339Y-122918029D01*
X106224417Y-130270770D02*
X106033382Y-130450343D01*
X106406339Y-36918029D02*
X106578701Y-37115595D01*
X106406339Y-44081970D02*
X106224417Y-44270770D01*
X106406339Y-79918029D02*
X106578701Y-80115595D01*
X106406339Y-87081970D02*
X106224417Y-87270770D01*
X106406339Y-122918029D02*
X106578701Y-123115595D01*
X106406339Y-130081970D02*
X106224417Y-130270770D01*
X106578701Y-37115595D02*
X106741082Y-37321443D01*
X106578701Y-43884404D02*
X106406339Y-44081970D01*
X106578701Y-80115595D02*
X106741082Y-80321443D01*
X106578701Y-86884404D02*
X106406339Y-87081970D01*
X106578701Y-123115595D02*
X106741082Y-123321443D01*
X106578701Y-129884404D02*
X106406339Y-130081970D01*
X106741082Y-37321443D02*
X106893084Y-37535070D01*
X106741082Y-43678556D02*
X106578701Y-43884404D01*
X106741082Y-80321443D02*
X106893084Y-80535070D01*
X106741082Y-86678556D02*
X106578701Y-86884404D01*
X106741082Y-123321443D02*
X106893084Y-123535070D01*
X106741082Y-129678556D02*
X106578701Y-129884404D01*
X106893084Y-37535070D02*
X107034335Y-37755952D01*
X106893084Y-43464929D02*
X106741082Y-43678556D01*
X106893084Y-80535070D02*
X107034335Y-80755952D01*
X106893084Y-86464929D02*
X106741082Y-86678556D01*
X106893084Y-123535070D02*
X107034335Y-123755952D01*
X106893084Y-129464929D02*
X106741082Y-129678556D01*
X107000000Y-26000000D02*
X147000000Y-26000000D01*
X107000000Y-31000000D02*
X107000000Y-26000000D01*
X107000000Y-72000000D02*
X121500000Y-72000000D01*
X107000000Y-74000000D02*
X107000000Y-72000000D01*
X107000000Y-115000000D02*
X121500000Y-115000000D01*
X107000000Y-117000000D02*
X107000000Y-115000000D01*
X107000000Y-158000000D02*
X121500000Y-158000000D01*
X107000000Y-163000000D02*
X107000000Y-158000000D01*
X107034335Y-37755952D02*
X107164491Y-37983549D01*
X107034335Y-43244047D02*
X106893084Y-43464929D01*
X107034335Y-80755952D02*
X107164491Y-80983549D01*
X107034335Y-86244047D02*
X106893084Y-86464929D01*
X107034335Y-123755952D02*
X107164491Y-123983549D01*
X107034335Y-129244047D02*
X106893084Y-129464929D01*
X107164491Y-37983549D02*
X107283231Y-38217305D01*
X107164491Y-43016450D02*
X107034335Y-43244047D01*
X107164491Y-80983549D02*
X107283231Y-81217305D01*
X107164491Y-86016450D02*
X107034335Y-86244047D01*
X107164491Y-123983549D02*
X107283231Y-124217305D01*
X107164491Y-129016450D02*
X107034335Y-129244047D01*
X107283231Y-38217305D02*
X107390266Y-38456646D01*
X107283231Y-42782694D02*
X107164491Y-43016450D01*
X107283231Y-81217305D02*
X107390266Y-81456646D01*
X107283231Y-85782694D02*
X107164491Y-86016450D01*
X107283231Y-124217305D02*
X107390266Y-124456646D01*
X107283231Y-128782694D02*
X107164491Y-129016450D01*
X107390266Y-38456646D02*
X107485334Y-38700988D01*
X107390266Y-42543353D02*
X107283231Y-42782694D01*
X107390266Y-81456646D02*
X107485334Y-81700988D01*
X107390266Y-85543353D02*
X107283231Y-85782694D01*
X107390266Y-124456646D02*
X107485334Y-124700988D01*
X107390266Y-128543353D02*
X107283231Y-128782694D01*
X107485334Y-38700988D02*
X107568202Y-38949733D01*
X107485334Y-42299011D02*
X107390266Y-42543353D01*
X107485334Y-81700988D02*
X107568202Y-81949733D01*
X107485334Y-85299011D02*
X107390266Y-85543353D01*
X107485334Y-124700988D02*
X107568202Y-124949733D01*
X107485334Y-128299011D02*
X107390266Y-128543353D01*
X107568202Y-38949733D02*
X107638667Y-39202271D01*
X107568202Y-42050266D02*
X107485334Y-42299011D01*
X107568202Y-81949733D02*
X107638667Y-82202271D01*
X107568202Y-85050266D02*
X107485334Y-85299011D01*
X107568202Y-124949733D02*
X107638667Y-125202271D01*
X107568202Y-128050266D02*
X107485334Y-128299011D01*
X107638667Y-39202271D02*
X107696557Y-39457985D01*
X107638667Y-41797728D02*
X107568202Y-42050266D01*
X107638667Y-82202271D02*
X107696557Y-82457985D01*
X107638667Y-84797728D02*
X107568202Y-85050266D01*
X107638667Y-125202271D02*
X107696557Y-125457985D01*
X107638667Y-127797728D02*
X107568202Y-128050266D01*
X107696557Y-39457985D02*
X107741730Y-39716249D01*
X107696557Y-41542014D02*
X107638667Y-41797728D01*
X107696557Y-82457985D02*
X107741730Y-82716249D01*
X107696557Y-84542014D02*
X107638667Y-84797728D01*
X107696557Y-125457985D02*
X107741730Y-125716249D01*
X107696557Y-127542014D02*
X107638667Y-127797728D01*
X107741730Y-39716249D02*
X107774075Y-39976431D01*
X107741730Y-41283750D02*
X107696557Y-41542014D01*
X107741730Y-82716249D02*
X107774075Y-82976431D01*
X107741730Y-84283750D02*
X107696557Y-84542014D01*
X107741730Y-125716249D02*
X107774075Y-125976431D01*
X107741730Y-127283750D02*
X107696557Y-127542014D01*
X107774075Y-39976431D02*
X107793515Y-40237895D01*
X107774075Y-41023568D02*
X107741730Y-41283750D01*
X107774075Y-82976431D02*
X107793515Y-83237895D01*
X107774075Y-84023568D02*
X107741730Y-84283750D01*
X107774075Y-125976431D02*
X107793515Y-126237895D01*
X107774075Y-127023568D02*
X107741730Y-127283750D01*
X107793515Y-40237895D02*
X107800000Y-40500000D01*
X107793515Y-40762104D02*
X107774075Y-41023568D01*
X107793515Y-83237895D02*
X107800000Y-83500000D01*
X107793515Y-83762104D02*
X107774075Y-84023568D01*
X107793515Y-126237895D02*
X107800000Y-126500000D01*
X107793515Y-126762104D02*
X107774075Y-127023568D01*
X107800000Y-40500000D02*
X107793515Y-40762104D01*
X107800000Y-83500000D02*
X107793515Y-83762104D01*
X107800000Y-126500000D02*
X107793515Y-126762104D01*
X114750994Y-50169613D02*
X114758945Y-50009036D01*
X114750994Y-50330386D02*
X114750994Y-50169613D01*
X114750994Y-93169613D02*
X114758945Y-93009036D01*
X114750994Y-93330386D02*
X114750994Y-93169613D01*
X114750994Y-136169613D02*
X114758945Y-136009036D01*
X114750994Y-136330386D02*
X114750994Y-136169613D01*
X114758945Y-50009036D02*
X114774827Y-49849048D01*
X114758945Y-50490963D02*
X114750994Y-50330386D01*
X114758945Y-93009036D02*
X114774827Y-92849048D01*
X114758945Y-93490963D02*
X114750994Y-93330386D01*
X114758945Y-136009036D02*
X114774827Y-135849048D01*
X114758945Y-136490963D02*
X114750994Y-136330386D01*
X114774827Y-49849048D02*
X114798602Y-49690042D01*
X114774827Y-50650951D02*
X114758945Y-50490963D01*
X114774827Y-92849048D02*
X114798602Y-92690042D01*
X114774827Y-93650951D02*
X114758945Y-93490963D01*
X114774827Y-135849048D02*
X114798602Y-135690042D01*
X114774827Y-136650951D02*
X114758945Y-136490963D01*
X114798602Y-49690042D02*
X114830211Y-49532406D01*
X114798602Y-50809957D02*
X114774827Y-50650951D01*
X114798602Y-92690042D02*
X114830211Y-92532406D01*
X114798602Y-93809957D02*
X114774827Y-93650951D01*
X114798602Y-135690042D02*
X114830211Y-135532406D01*
X114798602Y-136809957D02*
X114774827Y-136650951D01*
X114830211Y-49532406D02*
X114869577Y-49376526D01*
X114830211Y-50967593D02*
X114798602Y-50809957D01*
X114830211Y-92532406D02*
X114869577Y-92376526D01*
X114830211Y-93967593D02*
X114798602Y-93809957D01*
X114830211Y-135532406D02*
X114869577Y-135376526D01*
X114830211Y-136967593D02*
X114798602Y-136809957D01*
X114869577Y-49376526D02*
X114916604Y-49222784D01*
X114869577Y-51123473D02*
X114830211Y-50967593D01*
X114869577Y-92376526D02*
X114916604Y-92222784D01*
X114869577Y-94123473D02*
X114830211Y-93967593D01*
X114869577Y-135376526D02*
X114916604Y-135222784D01*
X114869577Y-137123473D02*
X114830211Y-136967593D01*
X114916604Y-49222784D02*
X114971176Y-49071556D01*
X114916604Y-51277215D02*
X114869577Y-51123473D01*
X114916604Y-92222784D02*
X114971176Y-92071556D01*
X114916604Y-94277215D02*
X114869577Y-94123473D01*
X114916604Y-135222784D02*
X114971176Y-135071556D01*
X114916604Y-137277215D02*
X114869577Y-137123473D01*
X114971176Y-49071556D02*
X115033161Y-48923211D01*
X114971176Y-51428443D02*
X114916604Y-51277215D01*
X114971176Y-92071556D02*
X115033161Y-91923211D01*
X114971176Y-94428443D02*
X114916604Y-94277215D01*
X114971176Y-135071556D02*
X115033161Y-134923211D01*
X114971176Y-137428443D02*
X114916604Y-137277215D01*
X115033161Y-48923211D02*
X115102406Y-48778113D01*
X115033161Y-51576788D02*
X114971176Y-51428443D01*
X115033161Y-91923211D02*
X115102406Y-91778113D01*
X115033161Y-94576788D02*
X114971176Y-94428443D01*
X115033161Y-134923211D02*
X115102406Y-134778113D01*
X115033161Y-137576788D02*
X114971176Y-137428443D01*
X115102406Y-48778113D02*
X115178741Y-48636617D01*
X115102406Y-51721886D02*
X115033161Y-51576788D01*
X115102406Y-91778113D02*
X115178741Y-91636617D01*
X115102406Y-94721886D02*
X115033161Y-94576788D01*
X115102406Y-134778113D02*
X115178741Y-134636617D01*
X115102406Y-137721886D02*
X115033161Y-137576788D01*
X115178741Y-48636617D02*
X115261981Y-48499070D01*
X115178741Y-51863382D02*
X115102406Y-51721886D01*
X115178741Y-91636617D02*
X115261981Y-91499070D01*
X115178741Y-94863382D02*
X115102406Y-94721886D01*
X115178741Y-134636617D02*
X115261981Y-134499070D01*
X115178741Y-137863382D02*
X115102406Y-137721886D01*
X115261981Y-48499070D02*
X115351921Y-48365807D01*
X115261981Y-52000929D02*
X115178741Y-51863382D01*
X115261981Y-91499070D02*
X115351921Y-91365807D01*
X115261981Y-95000929D02*
X115178741Y-94863382D01*
X115261981Y-134499070D02*
X115351921Y-134365807D01*
X115261981Y-138000929D02*
X115178741Y-137863382D01*
X115351921Y-48365807D02*
X115448342Y-48237155D01*
X115351921Y-52134192D02*
X115261981Y-52000929D01*
X115351921Y-91365807D02*
X115448342Y-91237155D01*
X115351921Y-95134192D02*
X115261981Y-95000929D01*
X115351921Y-134365807D02*
X115448342Y-134237155D01*
X115351921Y-138134192D02*
X115261981Y-138000929D01*
X115448342Y-48237155D02*
X115551007Y-48113429D01*
X115448342Y-52262844D02*
X115351921Y-52134192D01*
X115448342Y-91237155D02*
X115551007Y-91113429D01*
X115448342Y-95262844D02*
X115351921Y-95134192D01*
X115448342Y-134237155D02*
X115551007Y-134113429D01*
X115448342Y-138262844D02*
X115351921Y-138134192D01*
X115551007Y-48113429D02*
X115659664Y-47994931D01*
X115551007Y-52386570D02*
X115448342Y-52262844D01*
X115551007Y-91113429D02*
X115659664Y-90994931D01*
X115551007Y-95386570D02*
X115448342Y-95262844D01*
X115551007Y-134113429D02*
X115659664Y-133994931D01*
X115551007Y-138386570D02*
X115448342Y-138262844D01*
X115659664Y-47994931D02*
X115774050Y-47881952D01*
X115659664Y-52505068D02*
X115551007Y-52386570D01*
X115659664Y-90994931D02*
X115774050Y-90881952D01*
X115659664Y-95505068D02*
X115551007Y-95386570D01*
X115659664Y-133994931D02*
X115774050Y-133881952D01*
X115659664Y-138505068D02*
X115551007Y-138386570D01*
X115774050Y-47881952D02*
X115893882Y-47774768D01*
X115774050Y-52618047D02*
X115659664Y-52505068D01*
X115774050Y-90881952D02*
X115893882Y-90774768D01*
X115774050Y-95618047D02*
X115659664Y-95505068D01*
X115774050Y-133881952D02*
X115893882Y-133774768D01*
X115774050Y-138618047D02*
X115659664Y-138505068D01*
X115893882Y-47774768D02*
X116018868Y-47673642D01*
X115893882Y-52725231D02*
X115774050Y-52618047D01*
X115893882Y-90774768D02*
X116018868Y-90673642D01*
X115893882Y-95725231D02*
X115774050Y-95618047D01*
X115893882Y-133774768D02*
X116018868Y-133673642D01*
X115893882Y-138725231D02*
X115774050Y-138618047D01*
X116018868Y-47673642D02*
X116148703Y-47578820D01*
X116018868Y-52826357D02*
X115893882Y-52725231D01*
X116018868Y-90673642D02*
X116148703Y-90578820D01*
X116018868Y-95826357D02*
X115893882Y-95725231D01*
X116018868Y-133673642D02*
X116148703Y-133578820D01*
X116018868Y-138826357D02*
X115893882Y-138725231D01*
X116148703Y-47578820D02*
X116283068Y-47490535D01*
X116148703Y-52921179D02*
X116018868Y-52826357D01*
X116148703Y-90578820D02*
X116283068Y-90490535D01*
X116148703Y-95921179D02*
X116018868Y-95826357D01*
X116148703Y-133578820D02*
X116283068Y-133490535D01*
X116148703Y-138921179D02*
X116018868Y-138826357D01*
X116283068Y-47490535D02*
X116421634Y-47409003D01*
X116283068Y-53009464D02*
X116148703Y-52921179D01*
X116283068Y-90490535D02*
X116421634Y-90409003D01*
X116283068Y-96009464D02*
X116148703Y-95921179D01*
X116283068Y-133490535D02*
X116421634Y-133409003D01*
X116283068Y-139009464D02*
X116148703Y-138921179D01*
X116421634Y-47409003D02*
X116564064Y-47334423D01*
X116421634Y-53090996D02*
X116283068Y-53009464D01*
X116421634Y-90409003D02*
X116564064Y-90334423D01*
X116421634Y-96090996D02*
X116283068Y-96009464D01*
X116421634Y-133409003D02*
X116564064Y-133334423D01*
X116421634Y-139090996D02*
X116283068Y-139009464D01*
X116564064Y-47334423D02*
X116710007Y-47266978D01*
X116564064Y-53165576D02*
X116421634Y-53090996D01*
X116564064Y-90334423D02*
X116710007Y-90266978D01*
X116564064Y-96165576D02*
X116421634Y-96090996D01*
X116564064Y-133334423D02*
X116710007Y-133266978D01*
X116564064Y-139165576D02*
X116421634Y-139090996D01*
X116710007Y-47266978D02*
X116859107Y-47206833D01*
X116710007Y-53233021D02*
X116564064Y-53165576D01*
X116710007Y-90266978D02*
X116859107Y-90206833D01*
X116710007Y-96233021D02*
X116564064Y-96165576D01*
X116710007Y-133266978D02*
X116859107Y-133206833D01*
X116710007Y-139233021D02*
X116564064Y-139165576D01*
X116859107Y-47206833D02*
X117010999Y-47154135D01*
X116859107Y-53293166D02*
X116710007Y-53233021D01*
X116859107Y-90206833D02*
X117010999Y-90154135D01*
X116859107Y-96293166D02*
X116710007Y-96233021D01*
X116859107Y-133206833D02*
X117010999Y-133154135D01*
X116859107Y-139293166D02*
X116710007Y-139233021D01*
X117010999Y-47154135D02*
X117165311Y-47109013D01*
X117010999Y-53345864D02*
X116859107Y-53293166D01*
X117010999Y-90154135D02*
X117165311Y-90109013D01*
X117010999Y-96345864D02*
X116859107Y-96293166D01*
X117010999Y-133154135D02*
X117165311Y-133109013D01*
X117010999Y-139345864D02*
X116859107Y-139293166D01*
X117165311Y-47109013D02*
X117321665Y-47071578D01*
X117165311Y-53390986D02*
X117010999Y-53345864D01*
X117165311Y-90109013D02*
X117321665Y-90071578D01*
X117165311Y-96390986D02*
X117010999Y-96345864D01*
X117165311Y-133109013D02*
X117321665Y-133071578D01*
X117165311Y-139390986D02*
X117010999Y-139345864D01*
X117321665Y-47071578D02*
X117479680Y-47041921D01*
X117321665Y-53428421D02*
X117165311Y-53390986D01*
X117321665Y-90071578D02*
X117479680Y-90041921D01*
X117321665Y-96428421D02*
X117165311Y-96390986D01*
X117321665Y-133071578D02*
X117479680Y-133041921D01*
X117321665Y-139428421D02*
X117165311Y-139390986D01*
X117479680Y-47041921D02*
X117638968Y-47020115D01*
X117479680Y-53458078D02*
X117321665Y-53428421D01*
X117479680Y-90041921D02*
X117638968Y-90020115D01*
X117479680Y-96458078D02*
X117321665Y-96428421D01*
X117479680Y-133041921D02*
X117638968Y-133020115D01*
X117479680Y-139458078D02*
X117321665Y-139428421D01*
X117638968Y-47020115D02*
X117799140Y-47006212D01*
X117638968Y-53479884D02*
X117479680Y-53458078D01*
X117638968Y-90020115D02*
X117799140Y-90006212D01*
X117638968Y-96479884D02*
X117479680Y-96458078D01*
X117638968Y-133020115D02*
X117799140Y-133006212D01*
X117638968Y-139479884D02*
X117479680Y-139458078D01*
X117799140Y-47006212D02*
X117959803Y-47000248D01*
X117799140Y-53493787D02*
X117638968Y-53479884D01*
X117799140Y-90006212D02*
X117959803Y-90000248D01*
X117799140Y-96493787D02*
X117638968Y-96479884D01*
X117799140Y-133006212D02*
X117959803Y-133000248D01*
X117799140Y-139493787D02*
X117638968Y-139479884D01*
X117959803Y-47000248D02*
X118120564Y-47002237D01*
X117959803Y-53499751D02*
X117799140Y-53493787D01*
X117959803Y-90000248D02*
X118120564Y-90002237D01*
X117959803Y-96499751D02*
X117799140Y-96493787D01*
X117959803Y-133000248D02*
X118120564Y-133002237D01*
X117959803Y-139499751D02*
X117799140Y-139493787D01*
X118120564Y-47002237D02*
X118281031Y-47012173D01*
X118120564Y-53497762D02*
X117959803Y-53499751D01*
X118120564Y-90002237D02*
X118281031Y-90012173D01*
X118120564Y-96497762D02*
X117959803Y-96499751D01*
X118120564Y-133002237D02*
X118281031Y-133012173D01*
X118120564Y-139497762D02*
X117959803Y-139499751D01*
X118281031Y-47012173D02*
X118440810Y-47030033D01*
X118281031Y-53487826D02*
X118120564Y-53497762D01*
X118281031Y-90012173D02*
X118440810Y-90030033D01*
X118281031Y-96487826D02*
X118120564Y-96497762D01*
X118281031Y-133012173D02*
X118440810Y-133030033D01*
X118281031Y-139487826D02*
X118120564Y-139497762D01*
X118440810Y-47030033D02*
X118599510Y-47055772D01*
X118440810Y-53469966D02*
X118281031Y-53487826D01*
X118440810Y-90030033D02*
X118599510Y-90055772D01*
X118440810Y-96469966D02*
X118281031Y-96487826D01*
X118440810Y-133030033D02*
X118599510Y-133055772D01*
X118440810Y-139469966D02*
X118281031Y-139487826D01*
X118599510Y-47055772D02*
X118756742Y-47089329D01*
X118599510Y-53444227D02*
X118440810Y-53469966D01*
X118599510Y-90055772D02*
X118756742Y-90089329D01*
X118599510Y-96444227D02*
X118440810Y-96469966D01*
X118599510Y-133055772D02*
X118756742Y-133089329D01*
X118599510Y-139444227D02*
X118440810Y-139469966D01*
X118756742Y-47089329D02*
X118912123Y-47130620D01*
X118756742Y-53410670D02*
X118599510Y-53444227D01*
X118756742Y-90089329D02*
X118912123Y-90130620D01*
X118756742Y-96410670D02*
X118599510Y-96444227D01*
X118756742Y-133089329D02*
X118912123Y-133130620D01*
X118756742Y-139410670D02*
X118599510Y-139444227D01*
X118912123Y-47130620D02*
X119065272Y-47179545D01*
X118912123Y-53369379D02*
X118756742Y-53410670D01*
X118912123Y-90130620D02*
X119065272Y-90179545D01*
X118912123Y-96369379D02*
X118756742Y-96410670D01*
X118912123Y-133130620D02*
X119065272Y-133179545D01*
X118912123Y-139369379D02*
X118756742Y-139410670D01*
X119065272Y-47179545D02*
X119215814Y-47235983D01*
X119065272Y-53320454D02*
X118912123Y-53369379D01*
X119065272Y-90179545D02*
X119215814Y-90235983D01*
X119065272Y-96320454D02*
X118912123Y-96369379D01*
X119065272Y-133179545D02*
X119215814Y-133235983D01*
X119065272Y-139320454D02*
X118912123Y-139369379D01*
X119215814Y-47235983D02*
X119363381Y-47299798D01*
X119215814Y-53264016D02*
X119065272Y-53320454D01*
X119215814Y-90235983D02*
X119363381Y-90299798D01*
X119215814Y-96264016D02*
X119065272Y-96320454D01*
X119215814Y-133235983D02*
X119363381Y-133299798D01*
X119215814Y-139264016D02*
X119065272Y-139320454D01*
X119363381Y-47299798D02*
X119507611Y-47370832D01*
X119363381Y-53200201D02*
X119215814Y-53264016D01*
X119363381Y-90299798D02*
X119507611Y-90370832D01*
X119363381Y-96200201D02*
X119215814Y-96264016D01*
X119363381Y-133299798D02*
X119507611Y-133370832D01*
X119363381Y-139200201D02*
X119215814Y-139264016D01*
X119507611Y-47370832D02*
X119648152Y-47448912D01*
X119507611Y-53129167D02*
X119363381Y-53200201D01*
X119507611Y-90370832D02*
X119648152Y-90448912D01*
X119507611Y-96129167D02*
X119363381Y-96200201D01*
X119507611Y-133370832D02*
X119648152Y-133448912D01*
X119507611Y-139129167D02*
X119363381Y-139200201D01*
X119648152Y-47448912D02*
X119784660Y-47533846D01*
X119648152Y-53051087D02*
X119507611Y-53129167D01*
X119648152Y-90448912D02*
X119784660Y-90533846D01*
X119648152Y-96051087D02*
X119507611Y-96129167D01*
X119648152Y-133448912D02*
X119784660Y-133533846D01*
X119648152Y-139051087D02*
X119507611Y-139129167D01*
X119784660Y-47533846D02*
X119916800Y-47625428D01*
X119784660Y-52966153D02*
X119648152Y-53051087D01*
X119784660Y-90533846D02*
X119916800Y-90625428D01*
X119784660Y-95966153D02*
X119648152Y-96051087D01*
X119784660Y-133533846D02*
X119916800Y-133625428D01*
X119784660Y-138966153D02*
X119648152Y-139051087D01*
X119916800Y-47625428D02*
X120044249Y-47723432D01*
X119916800Y-52874571D02*
X119784660Y-52966153D01*
X119916800Y-90625428D02*
X120044249Y-90723432D01*
X119916800Y-95874571D02*
X119784660Y-95966153D01*
X119916800Y-133625428D02*
X120044249Y-133723432D01*
X119916800Y-138874571D02*
X119784660Y-138966153D01*
X120044249Y-47723432D02*
X120166696Y-47827619D01*
X120044249Y-52776567D02*
X119916800Y-52874571D01*
X120044249Y-90723432D02*
X120166696Y-90827619D01*
X120044249Y-95776567D02*
X119916800Y-95874571D01*
X120044249Y-133723432D02*
X120166696Y-133827619D01*
X120044249Y-138776567D02*
X119916800Y-138874571D01*
X120166696Y-47827619D02*
X120283841Y-47937735D01*
X120166696Y-52672380D02*
X120044249Y-52776567D01*
X120166696Y-90827619D02*
X120283841Y-90937735D01*
X120166696Y-95672380D02*
X120044249Y-95776567D01*
X120166696Y-133827619D02*
X120283841Y-133937735D01*
X120166696Y-138672380D02*
X120044249Y-138776567D01*
X120283841Y-47937735D02*
X120395396Y-48053508D01*
X120283841Y-52562264D02*
X120166696Y-52672380D01*
X120283841Y-90937735D02*
X120395396Y-91053508D01*
X120283841Y-95562264D02*
X120166696Y-95672380D01*
X120283841Y-133937735D02*
X120395396Y-134053508D01*
X120283841Y-138562264D02*
X120166696Y-138672380D01*
X120395396Y-48053508D02*
X120501090Y-48174657D01*
X120395396Y-52446491D02*
X120283841Y-52562264D01*
X120395396Y-91053508D02*
X120501090Y-91174657D01*
X120395396Y-95446491D02*
X120283841Y-95562264D01*
X120395396Y-134053508D02*
X120501090Y-134174657D01*
X120395396Y-138446491D02*
X120283841Y-138562264D01*
X120501090Y-48174657D02*
X120600663Y-48300885D01*
X120501090Y-52325342D02*
X120395396Y-52446491D01*
X120501090Y-91174657D02*
X120600663Y-91300885D01*
X120501090Y-95325342D02*
X120395396Y-95446491D01*
X120501090Y-134174657D02*
X120600663Y-134300885D01*
X120501090Y-138325342D02*
X120395396Y-138446491D01*
X120600663Y-48300885D02*
X120693872Y-48431882D01*
X120600663Y-52199114D02*
X120501090Y-52325342D01*
X120600663Y-91300885D02*
X120693872Y-91431882D01*
X120600663Y-95199114D02*
X120501090Y-95325342D01*
X120600663Y-134300885D02*
X120693872Y-134431882D01*
X120600663Y-138199114D02*
X120501090Y-138325342D01*
X120693872Y-48431882D02*
X120780488Y-48567329D01*
X120693872Y-52068117D02*
X120600663Y-52199114D01*
X120693872Y-91431882D02*
X120780488Y-91567329D01*
X120693872Y-95068117D02*
X120600663Y-95199114D01*
X120693872Y-134431882D02*
X120780488Y-134567329D01*
X120693872Y-138068117D02*
X120600663Y-138199114D01*
X120780488Y-48567329D02*
X120860301Y-48706893D01*
X120780488Y-51932670D02*
X120693872Y-52068117D01*
X120780488Y-91567329D02*
X120860301Y-91706893D01*
X120780488Y-94932670D02*
X120693872Y-95068117D01*
X120780488Y-134567329D02*
X120860301Y-134706893D01*
X120780488Y-137932670D02*
X120693872Y-138068117D01*
X120860301Y-48706893D02*
X120933113Y-48850234D01*
X120860301Y-51793106D02*
X120780488Y-51932670D01*
X120860301Y-91706893D02*
X120933113Y-91850234D01*
X120860301Y-94793106D02*
X120780488Y-94932670D01*
X120860301Y-134706893D02*
X120933113Y-134850234D01*
X120860301Y-137793106D02*
X120780488Y-137932670D01*
X120933113Y-48850234D02*
X120998748Y-48997000D01*
X120933113Y-51649765D02*
X120860301Y-51793106D01*
X120933113Y-91850234D02*
X120998748Y-91997000D01*
X120933113Y-94649765D02*
X120860301Y-94793106D01*
X120933113Y-134850234D02*
X120998748Y-134997000D01*
X120933113Y-137649765D02*
X120860301Y-137793106D01*
X120998748Y-48997000D02*
X121057044Y-49146832D01*
X120998748Y-51502999D02*
X120933113Y-51649765D01*
X120998748Y-91997000D02*
X121057044Y-92146832D01*
X120998748Y-94502999D02*
X120933113Y-94649765D01*
X120998748Y-134997000D02*
X121057044Y-135146832D01*
X120998748Y-137502999D02*
X120933113Y-137649765D01*
X121057044Y-49146832D02*
X121107859Y-49299364D01*
X121057044Y-51353167D02*
X120998748Y-51502999D01*
X121057044Y-92146832D02*
X121107859Y-92299364D01*
X121057044Y-94353167D02*
X120998748Y-94502999D01*
X121057044Y-135146832D02*
X121107859Y-135299364D01*
X121057044Y-137353167D02*
X120998748Y-137502999D01*
X121107859Y-49299364D02*
X121151069Y-49454223D01*
X121107859Y-51200635D02*
X121057044Y-51353167D01*
X121107859Y-92299364D02*
X121151069Y-92454223D01*
X121107859Y-94200635D02*
X121057044Y-94353167D01*
X121107859Y-135299364D02*
X121151069Y-135454223D01*
X121107859Y-137200635D02*
X121057044Y-137353167D01*
X121151069Y-49454223D02*
X121186568Y-49611029D01*
X121151069Y-51045776D02*
X121107859Y-51200635D01*
X121151069Y-92454223D02*
X121186568Y-92611029D01*
X121151069Y-94045776D02*
X121107859Y-94200635D01*
X121151069Y-135454223D02*
X121186568Y-135611029D01*
X121151069Y-137045776D02*
X121107859Y-137200635D01*
X121186568Y-49611029D02*
X121214268Y-49769398D01*
X121186568Y-50888970D02*
X121151069Y-51045776D01*
X121186568Y-92611029D02*
X121214268Y-92769398D01*
X121186568Y-93888970D02*
X121151069Y-94045776D01*
X121186568Y-135611029D02*
X121214268Y-135769398D01*
X121186568Y-136888970D02*
X121151069Y-137045776D01*
X121214268Y-49769398D02*
X121234103Y-49928944D01*
X121214268Y-50730601D02*
X121186568Y-50888970D01*
X121214268Y-92769398D02*
X121234103Y-92928944D01*
X121214268Y-93730601D02*
X121186568Y-93888970D01*
X121214268Y-135769398D02*
X121234103Y-135928944D01*
X121214268Y-136730601D02*
X121186568Y-136888970D01*
X121234103Y-49928944D02*
X121246023Y-50089275D01*
X121234103Y-50571055D02*
X121214268Y-50730601D01*
X121234103Y-92928944D02*
X121246023Y-93089275D01*
X121234103Y-93571055D02*
X121214268Y-93730601D01*
X121234103Y-135928944D02*
X121246023Y-136089275D01*
X121234103Y-136571055D02*
X121214268Y-136730601D01*
X121246023Y-50089275D02*
X121250000Y-50250000D01*
X121246023Y-50410724D02*
X121234103Y-50571055D01*
X121246023Y-93089275D02*
X121250000Y-93250000D01*
X121246023Y-93410724D02*
X121234103Y-93571055D01*
X121246023Y-136089275D02*
X121250000Y-136250000D01*
X121246023Y-136410724D02*
X121234103Y-136571055D01*
X121250000Y-50250000D02*
X121246023Y-50410724D01*
X121250000Y-93250000D02*
X121246023Y-93410724D01*
X121250000Y-136250000D02*
X121246023Y-136410724D01*
X121500000Y-31000000D02*
X107000000Y-31000000D01*
X121500000Y-72000000D02*
X121941077Y-71978331D01*
X121500000Y-74000000D02*
X107000000Y-74000000D01*
X121500000Y-115000000D02*
X121941077Y-114978331D01*
X121500000Y-117000000D02*
X107000000Y-117000000D01*
X121500000Y-158000000D02*
X121941077Y-157978331D01*
X121941077Y-31021668D02*
X121500000Y-31000000D01*
X121941077Y-71978331D02*
X122377906Y-71913533D01*
X121941077Y-74021668D02*
X121500000Y-74000000D01*
X121941077Y-114978331D02*
X122377906Y-114913533D01*
X121941077Y-117021668D02*
X121500000Y-117000000D01*
X121941077Y-157978331D02*
X122377906Y-157913533D01*
X122377906Y-31086466D02*
X121941077Y-31021668D01*
X122377906Y-71913533D02*
X122806281Y-71806231D01*
X122377906Y-74086466D02*
X121941077Y-74021668D01*
X122377906Y-114913533D02*
X122806281Y-114806231D01*
X122377906Y-117086466D02*
X121941077Y-117021668D01*
X122377906Y-157913533D02*
X122806281Y-157806231D01*
X122806281Y-31193768D02*
X122377906Y-31086466D01*
X122806281Y-71806231D02*
X123222075Y-71657457D01*
X122806281Y-74193768D02*
X122377906Y-74086466D01*
X122806281Y-114806231D02*
X123222075Y-114657457D01*
X122806281Y-117193768D02*
X122377906Y-117086466D01*
X122806281Y-157806231D02*
X123222075Y-157657457D01*
X123222075Y-31342542D02*
X122806281Y-31193768D01*
X123222075Y-71657457D02*
X123621285Y-71468645D01*
X123222075Y-74342542D02*
X122806281Y-74193768D01*
X123222075Y-114657457D02*
X123621285Y-114468645D01*
X123222075Y-117342542D02*
X122806281Y-117193768D01*
X123222075Y-157657457D02*
X123621285Y-157468645D01*
X123621285Y-31531354D02*
X123222075Y-31342542D01*
X123621285Y-71468645D02*
X124000066Y-71241613D01*
X123621285Y-74531354D02*
X123222075Y-74342542D01*
X123621285Y-114468645D02*
X124000066Y-114241613D01*
X123621285Y-117531354D02*
X123222075Y-117342542D01*
X123621285Y-157468645D02*
X124000066Y-157241613D01*
X124000066Y-31758386D02*
X123621285Y-31531354D01*
X124000066Y-71241613D02*
X124354769Y-70978547D01*
X124000066Y-74758386D02*
X123621285Y-74531354D01*
X124000066Y-114241613D02*
X124354769Y-113978547D01*
X124000066Y-117758386D02*
X123621285Y-117531354D01*
X124000066Y-157241613D02*
X124354769Y-156978547D01*
X124354769Y-32021452D02*
X124000066Y-31758386D01*
X124354769Y-70978547D02*
X124681980Y-70681980D01*
X124354769Y-75021452D02*
X124000066Y-74758386D01*
X124354769Y-113978547D02*
X124681980Y-113681980D01*
X124354769Y-118021452D02*
X124000066Y-117758386D01*
X124354769Y-156978547D02*
X124681980Y-156681980D01*
X124681980Y-32318019D02*
X124354769Y-32021452D01*
X124681980Y-70681980D02*
X124978547Y-70354769D01*
X124681980Y-75318019D02*
X124354769Y-75021452D01*
X124681980Y-113681980D02*
X124978547Y-113354769D01*
X124681980Y-118318019D02*
X124354769Y-118021452D01*
X124681980Y-156681980D02*
X124978547Y-156354769D01*
X124978547Y-32645230D02*
X124681980Y-32318019D01*
X124978547Y-70354769D02*
X125241613Y-70000066D01*
X124978547Y-75645230D02*
X124681980Y-75318019D01*
X124978547Y-113354769D02*
X125241613Y-113000066D01*
X124978547Y-118645230D02*
X124681980Y-118318019D01*
X124978547Y-156354769D02*
X125241613Y-156000066D01*
X125241613Y-32999933D02*
X124978547Y-32645230D01*
X125241613Y-70000066D02*
X125468645Y-69621285D01*
X125241613Y-75999933D02*
X124978547Y-75645230D01*
X125241613Y-113000066D02*
X125468645Y-112621285D01*
X125241613Y-118999933D02*
X124978547Y-118645230D01*
X125241613Y-156000066D02*
X125468645Y-155621285D01*
X125468645Y-33378714D02*
X125241613Y-32999933D01*
X125468645Y-69621285D02*
X125657457Y-69222075D01*
X125468645Y-76378714D02*
X125241613Y-75999933D01*
X125468645Y-112621285D02*
X125657457Y-112222075D01*
X125468645Y-119378714D02*
X125241613Y-118999933D01*
X125468645Y-155621285D02*
X125657457Y-155222075D01*
X125657457Y-33777924D02*
X125468645Y-33378714D01*
X125657457Y-69222075D02*
X125806231Y-68806281D01*
X125657457Y-76777924D02*
X125468645Y-76378714D01*
X125657457Y-112222075D02*
X125806231Y-111806281D01*
X125657457Y-119777924D02*
X125468645Y-119378714D01*
X125657457Y-155222075D02*
X125806231Y-154806281D01*
X125806231Y-34193718D02*
X125657457Y-33777924D01*
X125806231Y-68806281D02*
X125913533Y-68377906D01*
X125806231Y-77193718D02*
X125657457Y-76777924D01*
X125806231Y-111806281D02*
X125913533Y-111377906D01*
X125806231Y-120193718D02*
X125657457Y-119777924D01*
X125806231Y-154806281D02*
X125913533Y-154377906D01*
X125913533Y-34622093D02*
X125806231Y-34193718D01*
X125913533Y-68377906D02*
X125978331Y-67941077D01*
X125913533Y-77622093D02*
X125806231Y-77193718D01*
X125913533Y-111377906D02*
X125978331Y-110941077D01*
X125913533Y-120622093D02*
X125806231Y-120193718D01*
X125913533Y-154377906D02*
X125978331Y-153941077D01*
X125978331Y-35058922D02*
X125913533Y-34622093D01*
X125978331Y-67941077D02*
X126000000Y-67500000D01*
X125978331Y-78058922D02*
X125913533Y-77622093D01*
X125978331Y-110941077D02*
X126000000Y-110500000D01*
X125978331Y-121058922D02*
X125913533Y-120622093D01*
X125978331Y-153941077D02*
X126000000Y-153500000D01*
X126000000Y-35500000D02*
X125978331Y-35058922D01*
X126000000Y-50000000D02*
X126000000Y-35500000D01*
X126000000Y-53000000D02*
X128000000Y-53000000D01*
X126000000Y-67500000D02*
X126000000Y-53000000D01*
X126000000Y-78500000D02*
X125978331Y-78058922D01*
X126000000Y-93000000D02*
X126000000Y-78500000D01*
X126000000Y-96000000D02*
X128000000Y-96000000D01*
X126000000Y-110500000D02*
X126000000Y-96000000D01*
X126000000Y-121500000D02*
X125978331Y-121058922D01*
X126000000Y-136000000D02*
X126000000Y-121500000D01*
X126000000Y-139000000D02*
X128000000Y-139000000D01*
X126000000Y-153500000D02*
X126000000Y-139000000D01*
X128000000Y-35500000D02*
X128000000Y-50000000D01*
X128000000Y-50000000D02*
X126000000Y-50000000D01*
X128000000Y-53000000D02*
X128000000Y-67500000D01*
X128000000Y-67500000D02*
X128021668Y-67941077D01*
X128000000Y-78500000D02*
X128000000Y-93000000D01*
X128000000Y-93000000D02*
X126000000Y-93000000D01*
X128000000Y-96000000D02*
X128000000Y-110500000D01*
X128000000Y-110500000D02*
X128021668Y-110941077D01*
X128000000Y-121500000D02*
X128000000Y-136000000D01*
X128000000Y-136000000D02*
X126000000Y-136000000D01*
X128000000Y-139000000D02*
X128000000Y-153500000D01*
X128000000Y-153500000D02*
X128021668Y-153941077D01*
X128021668Y-35058922D02*
X128000000Y-35500000D01*
X128021668Y-67941077D02*
X128086466Y-68377906D01*
X128021668Y-78058922D02*
X128000000Y-78500000D01*
X128021668Y-110941077D02*
X128086466Y-111377906D01*
X128021668Y-121058922D02*
X128000000Y-121500000D01*
X128021668Y-153941077D02*
X128086466Y-154377906D01*
X128086466Y-34622093D02*
X128021668Y-35058922D01*
X128086466Y-68377906D02*
X128193768Y-68806281D01*
X128086466Y-77622093D02*
X128021668Y-78058922D01*
X128086466Y-111377906D02*
X128193768Y-111806281D01*
X128086466Y-120622093D02*
X128021668Y-121058922D01*
X128086466Y-154377906D02*
X128193768Y-154806281D01*
X128193768Y-34193718D02*
X128086466Y-34622093D01*
X128193768Y-68806281D02*
X128342542Y-69222075D01*
X128193768Y-77193718D02*
X128086466Y-77622093D01*
X128193768Y-111806281D02*
X128342542Y-112222075D01*
X128193768Y-120193718D02*
X128086466Y-120622093D01*
X128193768Y-154806281D02*
X128342542Y-155222075D01*
X128342542Y-33777924D02*
X128193768Y-34193718D01*
X128342542Y-69222075D02*
X128531354Y-69621285D01*
X128342542Y-76777924D02*
X128193768Y-77193718D01*
X128342542Y-112222075D02*
X128531354Y-112621285D01*
X128342542Y-119777924D02*
X128193768Y-120193718D01*
X128342542Y-155222075D02*
X128531354Y-155621285D01*
X128531354Y-33378714D02*
X128342542Y-33777924D01*
X128531354Y-69621285D02*
X128758386Y-70000066D01*
X128531354Y-76378714D02*
X128342542Y-76777924D01*
X128531354Y-112621285D02*
X128758386Y-113000066D01*
X128531354Y-119378714D02*
X128342542Y-119777924D01*
X128531354Y-155621285D02*
X128758386Y-156000066D01*
X128758386Y-32999933D02*
X128531354Y-33378714D01*
X128758386Y-70000066D02*
X129021452Y-70354769D01*
X128758386Y-75999933D02*
X128531354Y-76378714D01*
X128758386Y-113000066D02*
X129021452Y-113354769D01*
X128758386Y-118999933D02*
X128531354Y-119378714D01*
X128758386Y-156000066D02*
X129021452Y-156354769D01*
X129021452Y-32645230D02*
X128758386Y-32999933D01*
X129021452Y-70354769D02*
X129318019Y-70681980D01*
X129021452Y-75645230D02*
X128758386Y-75999933D01*
X129021452Y-113354769D02*
X129318019Y-113681980D01*
X129021452Y-118645230D02*
X128758386Y-118999933D01*
X129021452Y-156354769D02*
X129318019Y-156681980D01*
X129318019Y-32318019D02*
X129021452Y-32645230D01*
X129318019Y-70681980D02*
X129645230Y-70978547D01*
X129318019Y-75318019D02*
X129021452Y-75645230D01*
X129318019Y-113681980D02*
X129645230Y-113978547D01*
X129318019Y-118318019D02*
X129021452Y-118645230D01*
X129318019Y-156681980D02*
X129645230Y-156978547D01*
X129645230Y-32021452D02*
X129318019Y-32318019D01*
X129645230Y-70978547D02*
X129999933Y-71241613D01*
X129645230Y-75021452D02*
X129318019Y-75318019D01*
X129645230Y-113978547D02*
X129999933Y-114241613D01*
X129645230Y-118021452D02*
X129318019Y-118318019D01*
X129645230Y-156978547D02*
X129999933Y-157241613D01*
X129999933Y-31758386D02*
X129645230Y-32021452D01*
X129999933Y-71241613D02*
X130378714Y-71468645D01*
X129999933Y-74758386D02*
X129645230Y-75021452D01*
X129999933Y-114241613D02*
X130378714Y-114468645D01*
X129999933Y-117758386D02*
X129645230Y-118021452D01*
X129999933Y-157241613D02*
X130378714Y-157468645D01*
X130378714Y-31531354D02*
X129999933Y-31758386D01*
X130378714Y-71468645D02*
X130777924Y-71657457D01*
X130378714Y-74531354D02*
X129999933Y-74758386D01*
X130378714Y-114468645D02*
X130777924Y-114657457D01*
X130378714Y-117531354D02*
X129999933Y-117758386D01*
X130378714Y-157468645D02*
X130777924Y-157657457D01*
X130777924Y-31342542D02*
X130378714Y-31531354D01*
X130777924Y-71657457D02*
X131193718Y-71806231D01*
X130777924Y-74342542D02*
X130378714Y-74531354D01*
X130777924Y-114657457D02*
X131193718Y-114806231D01*
X130777924Y-117342542D02*
X130378714Y-117531354D01*
X130777924Y-157657457D02*
X131193718Y-157806231D01*
X131193718Y-31193768D02*
X130777924Y-31342542D01*
X131193718Y-71806231D02*
X131622093Y-71913533D01*
X131193718Y-74193768D02*
X130777924Y-74342542D01*
X131193718Y-114806231D02*
X131622093Y-114913533D01*
X131193718Y-117193768D02*
X130777924Y-117342542D01*
X131193718Y-157806231D02*
X131622093Y-157913533D01*
X131622093Y-31086466D02*
X131193718Y-31193768D01*
X131622093Y-71913533D02*
X132058922Y-71978331D01*
X131622093Y-74086466D02*
X131193718Y-74193768D01*
X131622093Y-114913533D02*
X132058922Y-114978331D01*
X131622093Y-117086466D02*
X131193718Y-117193768D01*
X131622093Y-157913533D02*
X132058922Y-157978331D01*
X132058922Y-31021668D02*
X131622093Y-31086466D01*
X132058922Y-71978331D02*
X132500000Y-72000000D01*
X132058922Y-74021668D02*
X131622093Y-74086466D01*
X132058922Y-114978331D02*
X132500000Y-115000000D01*
X132058922Y-117021668D02*
X131622093Y-117086466D01*
X132058922Y-157978331D02*
X132500000Y-158000000D01*
X132500000Y-31000000D02*
X132058922Y-31021668D01*
X132500000Y-72000000D02*
X147000000Y-72000000D01*
X132500000Y-74000000D02*
X132058922Y-74021668D01*
X132500000Y-115000000D02*
X147000000Y-115000000D01*
X132500000Y-117000000D02*
X132058922Y-117021668D01*
X132500000Y-158000000D02*
X147000000Y-158000000D01*
X140201621Y-40368907D02*
X140214587Y-40107043D01*
X140201621Y-40631092D02*
X140201621Y-40368907D01*
X140201621Y-83368907D02*
X140214587Y-83107043D01*
X140201621Y-83631092D02*
X140201621Y-83368907D01*
X140201621Y-126368907D02*
X140214587Y-126107043D01*
X140201621Y-126631092D02*
X140201621Y-126368907D01*
X140214587Y-40107043D02*
X140240487Y-39846140D01*
X140214587Y-40892956D02*
X140201621Y-40631092D01*
X140214587Y-83107043D02*
X140240487Y-82846140D01*
X140214587Y-83892956D02*
X140201621Y-83631092D01*
X140214587Y-126107043D02*
X140240487Y-125846140D01*
X140214587Y-126892956D02*
X140201621Y-126631092D01*
X140240487Y-39846140D02*
X140279259Y-39586838D01*
X140240487Y-41153859D02*
X140214587Y-40892956D01*
X140240487Y-82846140D02*
X140279259Y-82586838D01*
X140240487Y-84153859D02*
X140214587Y-83892956D01*
X140240487Y-125846140D02*
X140279259Y-125586838D01*
X140240487Y-127153859D02*
X140214587Y-126892956D01*
X140279259Y-39586838D02*
X140330806Y-39329770D01*
X140279259Y-41413161D02*
X140240487Y-41153859D01*
X140279259Y-82586838D02*
X140330806Y-82329770D01*
X140279259Y-84413161D02*
X140240487Y-84153859D01*
X140279259Y-125586838D02*
X140330806Y-125329770D01*
X140279259Y-127413161D02*
X140240487Y-127153859D01*
X140330806Y-39329770D02*
X140395003Y-39075566D01*
X140330806Y-41670229D02*
X140279259Y-41413161D01*
X140330806Y-82329770D02*
X140395003Y-82075566D01*
X140330806Y-84670229D02*
X140279259Y-84413161D01*
X140330806Y-125329770D02*
X140395003Y-125075566D01*
X140330806Y-127670229D02*
X140279259Y-127413161D01*
X140395003Y-39075566D02*
X140471693Y-38824848D01*
X140395003Y-41924433D02*
X140330806Y-41670229D01*
X140395003Y-82075566D02*
X140471693Y-81824848D01*
X140395003Y-84924433D02*
X140330806Y-84670229D01*
X140395003Y-125075566D02*
X140471693Y-124824848D01*
X140395003Y-127924433D02*
X140330806Y-127670229D01*
X140471693Y-38824848D02*
X140560688Y-38578229D01*
X140471693Y-42175151D02*
X140395003Y-41924433D01*
X140471693Y-81824848D02*
X140560688Y-81578229D01*
X140471693Y-85175151D02*
X140395003Y-84924433D01*
X140471693Y-124824848D02*
X140560688Y-124578229D01*
X140471693Y-128175151D02*
X140395003Y-127924433D01*
X140560688Y-38578229D02*
X140661770Y-38336313D01*
X140560688Y-42421770D02*
X140471693Y-42175151D01*
X140560688Y-81578229D02*
X140661770Y-81336313D01*
X140560688Y-85421770D02*
X140471693Y-85175151D01*
X140560688Y-124578229D02*
X140661770Y-124336313D01*
X140560688Y-128421770D02*
X140471693Y-128175151D01*
X140661770Y-38336313D02*
X140774692Y-38099692D01*
X140661770Y-42663686D02*
X140560688Y-42421770D01*
X140661770Y-81336313D02*
X140774692Y-81099692D01*
X140661770Y-85663686D02*
X140560688Y-85421770D01*
X140661770Y-124336313D02*
X140774692Y-124099692D01*
X140661770Y-128663686D02*
X140560688Y-128421770D01*
X140774692Y-38099692D02*
X140899178Y-37868945D01*
X140774692Y-42900307D02*
X140661770Y-42663686D01*
X140774692Y-81099692D02*
X140899178Y-80868945D01*
X140774692Y-85900307D02*
X140661770Y-85663686D01*
X140774692Y-124099692D02*
X140899178Y-123868945D01*
X140774692Y-128900307D02*
X140661770Y-128663686D01*
X140899178Y-37868945D02*
X141034923Y-37644637D01*
X140899178Y-43131054D02*
X140774692Y-42900307D01*
X140899178Y-80868945D02*
X141034923Y-80644637D01*
X140899178Y-86131054D02*
X140774692Y-85900307D01*
X140899178Y-123868945D02*
X141034923Y-123644637D01*
X140899178Y-129131054D02*
X140774692Y-128900307D01*
X141034923Y-37644637D02*
X141181595Y-37427316D01*
X141034923Y-43355362D02*
X140899178Y-43131054D01*
X141034923Y-80644637D02*
X141181595Y-80427316D01*
X141034923Y-86355362D02*
X140899178Y-86131054D01*
X141034923Y-123644637D02*
X141181595Y-123427316D01*
X141034923Y-129355362D02*
X140899178Y-129131054D01*
X141181595Y-37427316D02*
X141338835Y-37217515D01*
X141181595Y-43572683D02*
X141034923Y-43355362D01*
X141181595Y-80427316D02*
X141338835Y-80217515D01*
X141181595Y-86572683D02*
X141034923Y-86355362D01*
X141181595Y-123427316D02*
X141338835Y-123217515D01*
X141181595Y-129572683D02*
X141034923Y-129355362D01*
X141338835Y-37217515D02*
X141506257Y-37015746D01*
X141338835Y-43782484D02*
X141181595Y-43572683D01*
X141338835Y-80217515D02*
X141506257Y-80015746D01*
X141338835Y-86782484D02*
X141181595Y-86572683D01*
X141338835Y-123217515D02*
X141506257Y-123015746D01*
X141338835Y-129782484D02*
X141181595Y-129572683D01*
X141506257Y-37015746D02*
X141683453Y-36822504D01*
X141506257Y-43984253D02*
X141338835Y-43782484D01*
X141506257Y-80015746D02*
X141683453Y-79822504D01*
X141506257Y-86984253D02*
X141338835Y-86782484D01*
X141506257Y-123015746D02*
X141683453Y-122822504D01*
X141506257Y-129984253D02*
X141338835Y-129782484D01*
X141683453Y-36822504D02*
X141869989Y-36638261D01*
X141683453Y-44177495D02*
X141506257Y-43984253D01*
X141683453Y-79822504D02*
X141869989Y-79638261D01*
X141683453Y-87177495D02*
X141506257Y-86984253D01*
X141683453Y-122822504D02*
X141869989Y-122638261D01*
X141683453Y-130177495D02*
X141506257Y-129984253D01*
X141869989Y-36638261D02*
X142065408Y-36463469D01*
X141869989Y-44361738D02*
X141683453Y-44177495D01*
X141869989Y-79638261D02*
X142065408Y-79463469D01*
X141869989Y-87361738D02*
X141683453Y-87177495D01*
X141869989Y-122638261D02*
X142065408Y-122463469D01*
X141869989Y-130361738D02*
X141683453Y-130177495D01*
X142065408Y-36463469D02*
X142269232Y-36298555D01*
X142065408Y-44536530D02*
X141869989Y-44361738D01*
X142065408Y-79463469D02*
X142269232Y-79298555D01*
X142065408Y-87536530D02*
X141869989Y-87361738D01*
X142065408Y-122463469D02*
X142269232Y-122298555D01*
X142065408Y-130536530D02*
X141869989Y-130361738D01*
X142269232Y-36298555D02*
X142480962Y-36143922D01*
X142269232Y-44701444D02*
X142065408Y-44536530D01*
X142269232Y-79298555D02*
X142480962Y-79143922D01*
X142269232Y-87701444D02*
X142065408Y-87536530D01*
X142269232Y-122298555D02*
X142480962Y-122143922D01*
X142269232Y-130701444D02*
X142065408Y-130536530D01*
X142480962Y-36143922D02*
X142700080Y-35999949D01*
X142480962Y-44856077D02*
X142269232Y-44701444D01*
X142480962Y-79143922D02*
X142700080Y-78999949D01*
X142480962Y-87856077D02*
X142269232Y-87701444D01*
X142480962Y-122143922D02*
X142700080Y-121999949D01*
X142480962Y-130856077D02*
X142269232Y-130701444D01*
X142700080Y-35999949D02*
X142926050Y-35866989D01*
X142700080Y-45000050D02*
X142480962Y-44856077D01*
X142700080Y-78999949D02*
X142926050Y-78866989D01*
X142700080Y-88000050D02*
X142480962Y-87856077D01*
X142700080Y-121999949D02*
X142926050Y-121866989D01*
X142700080Y-131000050D02*
X142480962Y-130856077D01*
X142926050Y-35866989D02*
X143158319Y-35745367D01*
X142926050Y-45133010D02*
X142700080Y-45000050D01*
X142926050Y-78866989D02*
X143158319Y-78745367D01*
X142926050Y-88133010D02*
X142700080Y-88000050D01*
X142926050Y-121866989D02*
X143158319Y-121745367D01*
X142926050Y-131133010D02*
X142700080Y-131000050D01*
X143158319Y-35745367D02*
X143396319Y-35635379D01*
X143158319Y-45254632D02*
X142926050Y-45133010D01*
X143158319Y-78745367D02*
X143396319Y-78635379D01*
X143158319Y-88254632D02*
X142926050Y-88133010D01*
X143158319Y-121745367D02*
X143396319Y-121635379D01*
X143158319Y-131254632D02*
X142926050Y-131133010D01*
X143396319Y-35635379D02*
X143639467Y-35537297D01*
X143396319Y-45364620D02*
X143158319Y-45254632D01*
X143396319Y-78635379D02*
X143639467Y-78537297D01*
X143396319Y-88364620D02*
X143158319Y-88254632D01*
X143396319Y-121635379D02*
X143639467Y-121537297D01*
X143396319Y-131364620D02*
X143158319Y-131254632D01*
X143639467Y-35537297D02*
X143887167Y-35451359D01*
X143639467Y-45462702D02*
X143396319Y-45364620D01*
X143639467Y-78537297D02*
X143887167Y-78451359D01*
X143639467Y-88462702D02*
X143396319Y-88364620D01*
X143639467Y-121537297D02*
X143887167Y-121451359D01*
X143639467Y-131462702D02*
X143396319Y-131364620D01*
X143887167Y-35451359D02*
X144138815Y-35377776D01*
X143887167Y-45548640D02*
X143639467Y-45462702D01*
X143887167Y-78451359D02*
X144138815Y-78377776D01*
X143887167Y-88548640D02*
X143639467Y-88462702D01*
X143887167Y-121451359D02*
X144138815Y-121377776D01*
X143887167Y-131548640D02*
X143639467Y-131462702D01*
X144138815Y-35377776D02*
X144393793Y-35316728D01*
X144138815Y-45622223D02*
X143887167Y-45548640D01*
X144138815Y-78377776D02*
X144393793Y-78316728D01*
X144138815Y-88622223D02*
X143887167Y-88548640D01*
X144138815Y-121377776D02*
X144393793Y-121316728D01*
X144138815Y-131622223D02*
X143887167Y-131548640D01*
X144393793Y-35316728D02*
X144651479Y-35268364D01*
X144393793Y-45683271D02*
X144138815Y-45622223D01*
X144393793Y-78316728D02*
X144651479Y-78268364D01*
X144393793Y-88683271D02*
X144138815Y-88622223D01*
X144393793Y-121316728D02*
X144651479Y-121268364D01*
X144393793Y-131683271D02*
X144138815Y-131622223D01*
X144651479Y-35268364D02*
X144911241Y-35232803D01*
X144651479Y-45731635D02*
X144393793Y-45683271D01*
X144651479Y-78268364D02*
X144911241Y-78232803D01*
X144651479Y-88731635D02*
X144393793Y-88683271D01*
X144651479Y-121268364D02*
X144911241Y-121232803D01*
X144651479Y-131731635D02*
X144393793Y-131683271D01*
X144911241Y-35232803D02*
X145172444Y-35210131D01*
X144911241Y-45767196D02*
X144651479Y-45731635D01*
X144911241Y-78232803D02*
X145172444Y-78210131D01*
X144911241Y-88767196D02*
X144651479Y-88731635D01*
X144911241Y-121232803D02*
X145172444Y-121210131D01*
X144911241Y-131767196D02*
X144651479Y-131731635D01*
X145172444Y-35210131D02*
X145434448Y-35200405D01*
X145172444Y-45789868D02*
X144911241Y-45767196D01*
X145172444Y-78210131D02*
X145434448Y-78200405D01*
X145172444Y-88789868D02*
X144911241Y-88767196D01*
X145172444Y-121210131D02*
X145434448Y-121200405D01*
X145172444Y-131789868D02*
X144911241Y-131767196D01*
X145434448Y-35200405D02*
X145696613Y-35203648D01*
X145434448Y-45799594D02*
X145172444Y-45789868D01*
X145434448Y-78200405D02*
X145696613Y-78203648D01*
X145434448Y-88799594D02*
X145172444Y-88789868D01*
X145434448Y-121200405D02*
X145696613Y-121203648D01*
X145434448Y-131799594D02*
X145172444Y-131789868D01*
X145696613Y-35203648D02*
X145958297Y-35219851D01*
X145696613Y-45796351D02*
X145434448Y-45799594D01*
X145696613Y-78203648D02*
X145958297Y-78219851D01*
X145696613Y-88796351D02*
X145434448Y-88799594D01*
X145696613Y-121203648D02*
X145958297Y-121219851D01*
X145696613Y-131796351D02*
X145434448Y-131799594D01*
X145958297Y-35219851D02*
X146218859Y-35248977D01*
X145958297Y-45780148D02*
X145696613Y-45796351D01*
X145958297Y-78219851D02*
X146218859Y-78248977D01*
X145958297Y-88780148D02*
X145696613Y-88796351D01*
X145958297Y-121219851D02*
X146218859Y-121248977D01*
X145958297Y-131780148D02*
X145696613Y-131796351D01*
X146218859Y-35248977D02*
X146477662Y-35290952D01*
X146218859Y-45751022D02*
X145958297Y-45780148D01*
X146218859Y-78248977D02*
X146477662Y-78290952D01*
X146218859Y-88751022D02*
X145958297Y-88780148D01*
X146218859Y-121248977D02*
X146477662Y-121290952D01*
X146218859Y-131751022D02*
X145958297Y-131780148D01*
X146477662Y-35290952D02*
X146734073Y-35345675D01*
X146477662Y-45709047D02*
X146218859Y-45751022D01*
X146477662Y-78290952D02*
X146734073Y-78345675D01*
X146477662Y-88709047D02*
X146218859Y-88751022D01*
X146477662Y-121290952D02*
X146734073Y-121345675D01*
X146477662Y-131709047D02*
X146218859Y-131751022D01*
X146734073Y-35345675D02*
X146987463Y-35413011D01*
X146734073Y-45654324D02*
X146477662Y-45709047D01*
X146734073Y-78345675D02*
X146987463Y-78413011D01*
X146734073Y-88654324D02*
X146477662Y-88709047D01*
X146734073Y-121345675D02*
X146987463Y-121413011D01*
X146734073Y-131654324D02*
X146477662Y-131709047D01*
X146987463Y-35413011D02*
X147237214Y-35492796D01*
X146987463Y-45586988D02*
X146734073Y-45654324D01*
X146987463Y-78413011D02*
X147237214Y-78492796D01*
X146987463Y-88586988D02*
X146734073Y-88654324D01*
X146987463Y-121413011D02*
X147237214Y-121492796D01*
X146987463Y-131586988D02*
X146734073Y-131654324D01*
X147000000Y-26000000D02*
X147000000Y-31000000D01*
X147000000Y-31000000D02*
X132500000Y-31000000D01*
X147000000Y-72000000D02*
X147000000Y-74000000D01*
X147000000Y-74000000D02*
X132500000Y-74000000D01*
X147000000Y-115000000D02*
X147000000Y-117000000D01*
X147000000Y-117000000D02*
X132500000Y-117000000D01*
X147000000Y-158000000D02*
X147000000Y-163000000D01*
X147000000Y-163000000D02*
X107000000Y-163000000D01*
X147237214Y-35492796D02*
X147482713Y-35584834D01*
X147237214Y-45507203D02*
X146987463Y-45586988D01*
X147237214Y-78492796D02*
X147482713Y-78584834D01*
X147237214Y-88507203D02*
X146987463Y-88586988D01*
X147237214Y-121492796D02*
X147482713Y-121584834D01*
X147237214Y-131507203D02*
X146987463Y-131586988D01*
X147482713Y-35584834D02*
X147723360Y-35688901D01*
X147482713Y-45415165D02*
X147237214Y-45507203D01*
X147482713Y-78584834D02*
X147723360Y-78688901D01*
X147482713Y-88415165D02*
X147237214Y-88507203D01*
X147482713Y-121584834D02*
X147723360Y-121688901D01*
X147482713Y-131415165D02*
X147237214Y-131507203D01*
X147723360Y-35688901D02*
X147958566Y-35804741D01*
X147723360Y-45311098D02*
X147482713Y-45415165D01*
X147723360Y-78688901D02*
X147958566Y-78804741D01*
X147723360Y-88311098D02*
X147482713Y-88415165D01*
X147723360Y-121688901D02*
X147958566Y-121804741D01*
X147723360Y-131311098D02*
X147482713Y-131415165D01*
X147958566Y-35804741D02*
X148187756Y-35932072D01*
X147958566Y-45195258D02*
X147723360Y-45311098D01*
X147958566Y-78804741D02*
X148187756Y-78932072D01*
X147958566Y-88195258D02*
X147723360Y-88311098D01*
X147958566Y-121804741D02*
X148187756Y-121932072D01*
X147958566Y-131195258D02*
X147723360Y-131311098D01*
X148187756Y-35932072D02*
X148410368Y-36070580D01*
X148187756Y-45067927D02*
X147958566Y-45195258D01*
X148187756Y-78932072D02*
X148410368Y-79070580D01*
X148187756Y-88067927D02*
X147958566Y-88195258D01*
X148187756Y-121932072D02*
X148410368Y-122070580D01*
X148187756Y-131067927D02*
X147958566Y-131195258D01*
X148410368Y-36070580D02*
X148625858Y-36219929D01*
X148410368Y-44929419D02*
X148187756Y-45067927D01*
X148410368Y-79070580D02*
X148625858Y-79219929D01*
X148410368Y-87929419D02*
X148187756Y-88067927D01*
X148410368Y-122070580D02*
X148625858Y-122219929D01*
X148410368Y-130929419D02*
X148187756Y-131067927D01*
X148625858Y-36219929D02*
X148833699Y-36379751D01*
X148625858Y-44780070D02*
X148410368Y-44929419D01*
X148625858Y-79219929D02*
X148833699Y-79379751D01*
X148625858Y-87780070D02*
X148410368Y-87929419D01*
X148625858Y-122219929D02*
X148833699Y-122379751D01*
X148625858Y-130780070D02*
X148410368Y-130929419D01*
X148833699Y-36379751D02*
X149033382Y-36549656D01*
X148833699Y-44620248D02*
X148625858Y-44780070D01*
X148833699Y-79379751D02*
X149033382Y-79549656D01*
X148833699Y-87620248D02*
X148625858Y-87780070D01*
X148833699Y-122379751D02*
X149033382Y-122549656D01*
X148833699Y-130620248D02*
X148625858Y-130780070D01*
X149033382Y-36549656D02*
X149224417Y-36729229D01*
X149033382Y-44450343D02*
X148833699Y-44620248D01*
X149033382Y-79549656D02*
X149224417Y-79729229D01*
X149033382Y-87450343D02*
X148833699Y-87620248D01*
X149033382Y-122549656D02*
X149224417Y-122729229D01*
X149033382Y-130450343D02*
X148833699Y-130620248D01*
X149224417Y-36729229D02*
X149406339Y-36918029D01*
X149224417Y-44270770D02*
X149033382Y-44450343D01*
X149224417Y-79729229D02*
X149406339Y-79918029D01*
X149224417Y-87270770D02*
X149033382Y-87450343D01*
X149224417Y-122729229D02*
X149406339Y-122918029D01*
X149224417Y-130270770D02*
X149033382Y-130450343D01*
X149406339Y-36918029D02*
X149578701Y-37115595D01*
X149406339Y-44081970D02*
X149224417Y-44270770D01*
X149406339Y-79918029D02*
X149578701Y-80115595D01*
X149406339Y-87081970D02*
X149224417Y-87270770D01*
X149406339Y-122918029D02*
X149578701Y-123115595D01*
X149406339Y-130081970D02*
X149224417Y-130270770D01*
X149578701Y-37115595D02*
X149741082Y-37321443D01*
X149578701Y-43884404D02*
X149406339Y-44081970D01*
X149578701Y-80115595D02*
X149741082Y-80321443D01*
X149578701Y-86884404D02*
X149406339Y-87081970D01*
X149578701Y-123115595D02*
X149741082Y-123321443D01*
X149578701Y-129884404D02*
X149406339Y-130081970D01*
X149741082Y-37321443D02*
X149893084Y-37535070D01*
X149741082Y-43678556D02*
X149578701Y-43884404D01*
X149741082Y-80321443D02*
X149893084Y-80535070D01*
X149741082Y-86678556D02*
X149578701Y-86884404D01*
X149741082Y-123321443D02*
X149893084Y-123535070D01*
X149741082Y-129678556D02*
X149578701Y-129884404D01*
X149893084Y-37535070D02*
X150034335Y-37755952D01*
X149893084Y-43464929D02*
X149741082Y-43678556D01*
X149893084Y-80535070D02*
X150034335Y-80755952D01*
X149893084Y-86464929D02*
X149741082Y-86678556D01*
X149893084Y-123535070D02*
X150034335Y-123755952D01*
X149893084Y-129464929D02*
X149741082Y-129678556D01*
X150000000Y-26000000D02*
X190000000Y-26000000D01*
X150000000Y-31000000D02*
X150000000Y-26000000D01*
X150000000Y-72000000D02*
X164500000Y-72000000D01*
X150000000Y-74000000D02*
X150000000Y-72000000D01*
X150000000Y-115000000D02*
X164500000Y-115000000D01*
X150000000Y-117000000D02*
X150000000Y-115000000D01*
X150000000Y-158000000D02*
X164500000Y-158000000D01*
X150000000Y-163000000D02*
X150000000Y-158000000D01*
X150034335Y-37755952D02*
X150164491Y-37983549D01*
X150034335Y-43244047D02*
X149893084Y-43464929D01*
X150034335Y-80755952D02*
X150164491Y-80983549D01*
X150034335Y-86244047D02*
X149893084Y-86464929D01*
X150034335Y-123755952D02*
X150164491Y-123983549D01*
X150034335Y-129244047D02*
X149893084Y-129464929D01*
X150164491Y-37983549D02*
X150283231Y-38217305D01*
X150164491Y-43016450D02*
X150034335Y-43244047D01*
X150164491Y-80983549D02*
X150283231Y-81217305D01*
X150164491Y-86016450D02*
X150034335Y-86244047D01*
X150164491Y-123983549D02*
X150283231Y-124217305D01*
X150164491Y-129016450D02*
X150034335Y-129244047D01*
X150283231Y-38217305D02*
X150390266Y-38456646D01*
X150283231Y-42782694D02*
X150164491Y-43016450D01*
X150283231Y-81217305D02*
X150390266Y-81456646D01*
X150283231Y-85782694D02*
X150164491Y-86016450D01*
X150283231Y-124217305D02*
X150390266Y-124456646D01*
X150283231Y-128782694D02*
X150164491Y-129016450D01*
X150390266Y-38456646D02*
X150485334Y-38700988D01*
X150390266Y-42543353D02*
X150283231Y-42782694D01*
X150390266Y-81456646D02*
X150485334Y-81700988D01*
X150390266Y-85543353D02*
X150283231Y-85782694D01*
X150390266Y-124456646D02*
X150485334Y-124700988D01*
X150390266Y-128543353D02*
X150283231Y-128782694D01*
X150485334Y-38700988D02*
X150568202Y-38949733D01*
X150485334Y-42299011D02*
X150390266Y-42543353D01*
X150485334Y-81700988D02*
X150568202Y-81949733D01*
X150485334Y-85299011D02*
X150390266Y-85543353D01*
X150485334Y-124700988D02*
X150568202Y-124949733D01*
X150485334Y-128299011D02*
X150390266Y-128543353D01*
X150568202Y-38949733D02*
X150638667Y-39202271D01*
X150568202Y-42050266D02*
X150485334Y-42299011D01*
X150568202Y-81949733D02*
X150638667Y-82202271D01*
X150568202Y-85050266D02*
X150485334Y-85299011D01*
X150568202Y-124949733D02*
X150638667Y-125202271D01*
X150568202Y-128050266D02*
X150485334Y-128299011D01*
X150638667Y-39202271D02*
X150696557Y-39457985D01*
X150638667Y-41797728D02*
X150568202Y-42050266D01*
X150638667Y-82202271D02*
X150696557Y-82457985D01*
X150638667Y-84797728D02*
X150568202Y-85050266D01*
X150638667Y-125202271D02*
X150696557Y-125457985D01*
X150638667Y-127797728D02*
X150568202Y-128050266D01*
X150696557Y-39457985D02*
X150741730Y-39716249D01*
X150696557Y-41542014D02*
X150638667Y-41797728D01*
X150696557Y-82457985D02*
X150741730Y-82716249D01*
X150696557Y-84542014D02*
X150638667Y-84797728D01*
X150696557Y-125457985D02*
X150741730Y-125716249D01*
X150696557Y-127542014D02*
X150638667Y-127797728D01*
X150741730Y-39716249D02*
X150774075Y-39976431D01*
X150741730Y-41283750D02*
X150696557Y-41542014D01*
X150741730Y-82716249D02*
X150774075Y-82976431D01*
X150741730Y-84283750D02*
X150696557Y-84542014D01*
X150741730Y-125716249D02*
X150774075Y-125976431D01*
X150741730Y-127283750D02*
X150696557Y-127542014D01*
X150774075Y-39976431D02*
X150793515Y-40237895D01*
X150774075Y-41023568D02*
X150741730Y-41283750D01*
X150774075Y-82976431D02*
X150793515Y-83237895D01*
X150774075Y-84023568D02*
X150741730Y-84283750D01*
X150774075Y-125976431D02*
X150793515Y-126237895D01*
X150774075Y-127023568D02*
X150741730Y-127283750D01*
X150793515Y-40237895D02*
X150800000Y-40500000D01*
X150793515Y-40762104D02*
X150774075Y-41023568D01*
X150793515Y-83237895D02*
X150800000Y-83500000D01*
X150793515Y-83762104D02*
X150774075Y-84023568D01*
X150793515Y-126237895D02*
X150800000Y-126500000D01*
X150793515Y-126762104D02*
X150774075Y-127023568D01*
X150800000Y-40500000D02*
X150793515Y-40762104D01*
X150800000Y-83500000D02*
X150793515Y-83762104D01*
X150800000Y-126500000D02*
X150793515Y-126762104D01*
X157750994Y-50169613D02*
X157758945Y-50009036D01*
X157750994Y-50330386D02*
X157750994Y-50169613D01*
X157750994Y-93169613D02*
X157758945Y-93009036D01*
X157750994Y-93330386D02*
X157750994Y-93169613D01*
X157750994Y-136169613D02*
X157758945Y-136009036D01*
X157750994Y-136330386D02*
X157750994Y-136169613D01*
X157758945Y-50009036D02*
X157774827Y-49849048D01*
X157758945Y-50490963D02*
X157750994Y-50330386D01*
X157758945Y-93009036D02*
X157774827Y-92849048D01*
X157758945Y-93490963D02*
X157750994Y-93330386D01*
X157758945Y-136009036D02*
X157774827Y-135849048D01*
X157758945Y-136490963D02*
X157750994Y-136330386D01*
X157774827Y-49849048D02*
X157798602Y-49690042D01*
X157774827Y-50650951D02*
X157758945Y-50490963D01*
X157774827Y-92849048D02*
X157798602Y-92690042D01*
X157774827Y-93650951D02*
X157758945Y-93490963D01*
X157774827Y-135849048D02*
X157798602Y-135690042D01*
X157774827Y-136650951D02*
X157758945Y-136490963D01*
X157798602Y-49690042D02*
X157830211Y-49532406D01*
X157798602Y-50809957D02*
X157774827Y-50650951D01*
X157798602Y-92690042D02*
X157830211Y-92532406D01*
X157798602Y-93809957D02*
X157774827Y-93650951D01*
X157798602Y-135690042D02*
X157830211Y-135532406D01*
X157798602Y-136809957D02*
X157774827Y-136650951D01*
X157830211Y-49532406D02*
X157869577Y-49376526D01*
X157830211Y-50967593D02*
X157798602Y-50809957D01*
X157830211Y-92532406D02*
X157869577Y-92376526D01*
X157830211Y-93967593D02*
X157798602Y-93809957D01*
X157830211Y-135532406D02*
X157869577Y-135376526D01*
X157830211Y-136967593D02*
X157798602Y-136809957D01*
X157869577Y-49376526D02*
X157916604Y-49222784D01*
X157869577Y-51123473D02*
X157830211Y-50967593D01*
X157869577Y-92376526D02*
X157916604Y-92222784D01*
X157869577Y-94123473D02*
X157830211Y-93967593D01*
X157869577Y-135376526D02*
X157916604Y-135222784D01*
X157869577Y-137123473D02*
X157830211Y-136967593D01*
X157916604Y-49222784D02*
X157971176Y-49071556D01*
X157916604Y-51277215D02*
X157869577Y-51123473D01*
X157916604Y-92222784D02*
X157971176Y-92071556D01*
X157916604Y-94277215D02*
X157869577Y-94123473D01*
X157916604Y-135222784D02*
X157971176Y-135071556D01*
X157916604Y-137277215D02*
X157869577Y-137123473D01*
X157971176Y-49071556D02*
X158033161Y-48923211D01*
X157971176Y-51428443D02*
X157916604Y-51277215D01*
X157971176Y-92071556D02*
X158033161Y-91923211D01*
X157971176Y-94428443D02*
X157916604Y-94277215D01*
X157971176Y-135071556D02*
X158033161Y-134923211D01*
X157971176Y-137428443D02*
X157916604Y-137277215D01*
X158033161Y-48923211D02*
X158102406Y-48778113D01*
X158033161Y-51576788D02*
X157971176Y-51428443D01*
X158033161Y-91923211D02*
X158102406Y-91778113D01*
X158033161Y-94576788D02*
X157971176Y-94428443D01*
X158033161Y-134923211D02*
X158102406Y-134778113D01*
X158033161Y-137576788D02*
X157971176Y-137428443D01*
X158102406Y-48778113D02*
X158178741Y-48636617D01*
X158102406Y-51721886D02*
X158033161Y-51576788D01*
X158102406Y-91778113D02*
X158178741Y-91636617D01*
X158102406Y-94721886D02*
X158033161Y-94576788D01*
X158102406Y-134778113D02*
X158178741Y-134636617D01*
X158102406Y-137721886D02*
X158033161Y-137576788D01*
X158178741Y-48636617D02*
X158261981Y-48499070D01*
X158178741Y-51863382D02*
X158102406Y-51721886D01*
X158178741Y-91636617D02*
X158261981Y-91499070D01*
X158178741Y-94863382D02*
X158102406Y-94721886D01*
X158178741Y-134636617D02*
X158261981Y-134499070D01*
X158178741Y-137863382D02*
X158102406Y-137721886D01*
X158261981Y-48499070D02*
X158351921Y-48365807D01*
X158261981Y-52000929D02*
X158178741Y-51863382D01*
X158261981Y-91499070D02*
X158351921Y-91365807D01*
X158261981Y-95000929D02*
X158178741Y-94863382D01*
X158261981Y-134499070D02*
X158351921Y-134365807D01*
X158261981Y-138000929D02*
X158178741Y-137863382D01*
X158351921Y-48365807D02*
X158448342Y-48237155D01*
X158351921Y-52134192D02*
X158261981Y-52000929D01*
X158351921Y-91365807D02*
X158448342Y-91237155D01*
X158351921Y-95134192D02*
X158261981Y-95000929D01*
X158351921Y-134365807D02*
X158448342Y-134237155D01*
X158351921Y-138134192D02*
X158261981Y-138000929D01*
X158448342Y-48237155D02*
X158551007Y-48113429D01*
X158448342Y-52262844D02*
X158351921Y-52134192D01*
X158448342Y-91237155D02*
X158551007Y-91113429D01*
X158448342Y-95262844D02*
X158351921Y-95134192D01*
X158448342Y-134237155D02*
X158551007Y-134113429D01*
X158448342Y-138262844D02*
X158351921Y-138134192D01*
X158551007Y-48113429D02*
X158659664Y-47994931D01*
X158551007Y-52386570D02*
X158448342Y-52262844D01*
X158551007Y-91113429D02*
X158659664Y-90994931D01*
X158551007Y-95386570D02*
X158448342Y-95262844D01*
X158551007Y-134113429D02*
X158659664Y-133994931D01*
X158551007Y-138386570D02*
X158448342Y-138262844D01*
X158659664Y-47994931D02*
X158774050Y-47881952D01*
X158659664Y-52505068D02*
X158551007Y-52386570D01*
X158659664Y-90994931D02*
X158774050Y-90881952D01*
X158659664Y-95505068D02*
X158551007Y-95386570D01*
X158659664Y-133994931D02*
X158774050Y-133881952D01*
X158659664Y-138505068D02*
X158551007Y-138386570D01*
X158774050Y-47881952D02*
X158893882Y-47774768D01*
X158774050Y-52618047D02*
X158659664Y-52505068D01*
X158774050Y-90881952D02*
X158893882Y-90774768D01*
X158774050Y-95618047D02*
X158659664Y-95505068D01*
X158774050Y-133881952D02*
X158893882Y-133774768D01*
X158774050Y-138618047D02*
X158659664Y-138505068D01*
X158893882Y-47774768D02*
X159018868Y-47673642D01*
X158893882Y-52725231D02*
X158774050Y-52618047D01*
X158893882Y-90774768D02*
X159018868Y-90673642D01*
X158893882Y-95725231D02*
X158774050Y-95618047D01*
X158893882Y-133774768D02*
X159018868Y-133673642D01*
X158893882Y-138725231D02*
X158774050Y-138618047D01*
X159018868Y-47673642D02*
X159148703Y-47578820D01*
X159018868Y-52826357D02*
X158893882Y-52725231D01*
X159018868Y-90673642D02*
X159148703Y-90578820D01*
X159018868Y-95826357D02*
X158893882Y-95725231D01*
X159018868Y-133673642D02*
X159148703Y-133578820D01*
X159018868Y-138826357D02*
X158893882Y-138725231D01*
X159148703Y-47578820D02*
X159283068Y-47490535D01*
X159148703Y-52921179D02*
X159018868Y-52826357D01*
X159148703Y-90578820D02*
X159283068Y-90490535D01*
X159148703Y-95921179D02*
X159018868Y-95826357D01*
X159148703Y-133578820D02*
X159283068Y-133490535D01*
X159148703Y-138921179D02*
X159018868Y-138826357D01*
X159283068Y-47490535D02*
X159421634Y-47409003D01*
X159283068Y-53009464D02*
X159148703Y-52921179D01*
X159283068Y-90490535D02*
X159421634Y-90409003D01*
X159283068Y-96009464D02*
X159148703Y-95921179D01*
X159283068Y-133490535D02*
X159421634Y-133409003D01*
X159283068Y-139009464D02*
X159148703Y-138921179D01*
X159421634Y-47409003D02*
X159564064Y-47334423D01*
X159421634Y-53090996D02*
X159283068Y-53009464D01*
X159421634Y-90409003D02*
X159564064Y-90334423D01*
X159421634Y-96090996D02*
X159283068Y-96009464D01*
X159421634Y-133409003D02*
X159564064Y-133334423D01*
X159421634Y-139090996D02*
X159283068Y-139009464D01*
X159564064Y-47334423D02*
X159710007Y-47266978D01*
X159564064Y-53165576D02*
X159421634Y-53090996D01*
X159564064Y-90334423D02*
X159710007Y-90266978D01*
X159564064Y-96165576D02*
X159421634Y-96090996D01*
X159564064Y-133334423D02*
X159710007Y-133266978D01*
X159564064Y-139165576D02*
X159421634Y-139090996D01*
X159710007Y-47266978D02*
X159859107Y-47206833D01*
X159710007Y-53233021D02*
X159564064Y-53165576D01*
X159710007Y-90266978D02*
X159859107Y-90206833D01*
X159710007Y-96233021D02*
X159564064Y-96165576D01*
X159710007Y-133266978D02*
X159859107Y-133206833D01*
X159710007Y-139233021D02*
X159564064Y-139165576D01*
X159859107Y-47206833D02*
X160010999Y-47154135D01*
X159859107Y-53293166D02*
X159710007Y-53233021D01*
X159859107Y-90206833D02*
X160010999Y-90154135D01*
X159859107Y-96293166D02*
X159710007Y-96233021D01*
X159859107Y-133206833D02*
X160010999Y-133154135D01*
X159859107Y-139293166D02*
X159710007Y-139233021D01*
X160010999Y-47154135D02*
X160165311Y-47109013D01*
X160010999Y-53345864D02*
X159859107Y-53293166D01*
X160010999Y-90154135D02*
X160165311Y-90109013D01*
X160010999Y-96345864D02*
X159859107Y-96293166D01*
X160010999Y-133154135D02*
X160165311Y-133109013D01*
X160010999Y-139345864D02*
X159859107Y-139293166D01*
X160165311Y-47109013D02*
X160321665Y-47071578D01*
X160165311Y-53390986D02*
X160010999Y-53345864D01*
X160165311Y-90109013D02*
X160321665Y-90071578D01*
X160165311Y-96390986D02*
X160010999Y-96345864D01*
X160165311Y-133109013D02*
X160321665Y-133071578D01*
X160165311Y-139390986D02*
X160010999Y-139345864D01*
X160321665Y-47071578D02*
X160479680Y-47041921D01*
X160321665Y-53428421D02*
X160165311Y-53390986D01*
X160321665Y-90071578D02*
X160479680Y-90041921D01*
X160321665Y-96428421D02*
X160165311Y-96390986D01*
X160321665Y-133071578D02*
X160479680Y-133041921D01*
X160321665Y-139428421D02*
X160165311Y-139390986D01*
X160479680Y-47041921D02*
X160638968Y-47020115D01*
X160479680Y-53458078D02*
X160321665Y-53428421D01*
X160479680Y-90041921D02*
X160638968Y-90020115D01*
X160479680Y-96458078D02*
X160321665Y-96428421D01*
X160479680Y-133041921D02*
X160638968Y-133020115D01*
X160479680Y-139458078D02*
X160321665Y-139428421D01*
X160638968Y-47020115D02*
X160799140Y-47006212D01*
X160638968Y-53479884D02*
X160479680Y-53458078D01*
X160638968Y-90020115D02*
X160799140Y-90006212D01*
X160638968Y-96479884D02*
X160479680Y-96458078D01*
X160638968Y-133020115D02*
X160799140Y-133006212D01*
X160638968Y-139479884D02*
X160479680Y-139458078D01*
X160799140Y-47006212D02*
X160959803Y-47000248D01*
X160799140Y-53493787D02*
X160638968Y-53479884D01*
X160799140Y-90006212D02*
X160959803Y-90000248D01*
X160799140Y-96493787D02*
X160638968Y-96479884D01*
X160799140Y-133006212D02*
X160959803Y-133000248D01*
X160799140Y-139493787D02*
X160638968Y-139479884D01*
X160959803Y-47000248D02*
X161120564Y-47002237D01*
X160959803Y-53499751D02*
X160799140Y-53493787D01*
X160959803Y-90000248D02*
X161120564Y-90002237D01*
X160959803Y-96499751D02*
X160799140Y-96493787D01*
X160959803Y-133000248D02*
X161120564Y-133002237D01*
X160959803Y-139499751D02*
X160799140Y-139493787D01*
X161120564Y-47002237D02*
X161281031Y-47012173D01*
X161120564Y-53497762D02*
X160959803Y-53499751D01*
X161120564Y-90002237D02*
X161281031Y-90012173D01*
X161120564Y-96497762D02*
X160959803Y-96499751D01*
X161120564Y-133002237D02*
X161281031Y-133012173D01*
X161120564Y-139497762D02*
X160959803Y-139499751D01*
X161281031Y-47012173D02*
X161440810Y-47030033D01*
X161281031Y-53487826D02*
X161120564Y-53497762D01*
X161281031Y-90012173D02*
X161440810Y-90030033D01*
X161281031Y-96487826D02*
X161120564Y-96497762D01*
X161281031Y-133012173D02*
X161440810Y-133030033D01*
X161281031Y-139487826D02*
X161120564Y-139497762D01*
X161440810Y-47030033D02*
X161599510Y-47055772D01*
X161440810Y-53469966D02*
X161281031Y-53487826D01*
X161440810Y-90030033D02*
X161599510Y-90055772D01*
X161440810Y-96469966D02*
X161281031Y-96487826D01*
X161440810Y-133030033D02*
X161599510Y-133055772D01*
X161440810Y-139469966D02*
X161281031Y-139487826D01*
X161599510Y-47055772D02*
X161756742Y-47089329D01*
X161599510Y-53444227D02*
X161440810Y-53469966D01*
X161599510Y-90055772D02*
X161756742Y-90089329D01*
X161599510Y-96444227D02*
X161440810Y-96469966D01*
X161599510Y-133055772D02*
X161756742Y-133089329D01*
X161599510Y-139444227D02*
X161440810Y-139469966D01*
X161756742Y-47089329D02*
X161912123Y-47130620D01*
X161756742Y-53410670D02*
X161599510Y-53444227D01*
X161756742Y-90089329D02*
X161912123Y-90130620D01*
X161756742Y-96410670D02*
X161599510Y-96444227D01*
X161756742Y-133089329D02*
X161912123Y-133130620D01*
X161756742Y-139410670D02*
X161599510Y-139444227D01*
X161912123Y-47130620D02*
X162065272Y-47179545D01*
X161912123Y-53369379D02*
X161756742Y-53410670D01*
X161912123Y-90130620D02*
X162065272Y-90179545D01*
X161912123Y-96369379D02*
X161756742Y-96410670D01*
X161912123Y-133130620D02*
X162065272Y-133179545D01*
X161912123Y-139369379D02*
X161756742Y-139410670D01*
X162065272Y-47179545D02*
X162215814Y-47235983D01*
X162065272Y-53320454D02*
X161912123Y-53369379D01*
X162065272Y-90179545D02*
X162215814Y-90235983D01*
X162065272Y-96320454D02*
X161912123Y-96369379D01*
X162065272Y-133179545D02*
X162215814Y-133235983D01*
X162065272Y-139320454D02*
X161912123Y-139369379D01*
X162215814Y-47235983D02*
X162363381Y-47299798D01*
X162215814Y-53264016D02*
X162065272Y-53320454D01*
X162215814Y-90235983D02*
X162363381Y-90299798D01*
X162215814Y-96264016D02*
X162065272Y-96320454D01*
X162215814Y-133235983D02*
X162363381Y-133299798D01*
X162215814Y-139264016D02*
X162065272Y-139320454D01*
X162363381Y-47299798D02*
X162507611Y-47370832D01*
X162363381Y-53200201D02*
X162215814Y-53264016D01*
X162363381Y-90299798D02*
X162507611Y-90370832D01*
X162363381Y-96200201D02*
X162215814Y-96264016D01*
X162363381Y-133299798D02*
X162507611Y-133370832D01*
X162363381Y-139200201D02*
X162215814Y-139264016D01*
X162507611Y-47370832D02*
X162648152Y-47448912D01*
X162507611Y-53129167D02*
X162363381Y-53200201D01*
X162507611Y-90370832D02*
X162648152Y-90448912D01*
X162507611Y-96129167D02*
X162363381Y-96200201D01*
X162507611Y-133370832D02*
X162648152Y-133448912D01*
X162507611Y-139129167D02*
X162363381Y-139200201D01*
X162648152Y-47448912D02*
X162784660Y-47533846D01*
X162648152Y-53051087D02*
X162507611Y-53129167D01*
X162648152Y-90448912D02*
X162784660Y-90533846D01*
X162648152Y-96051087D02*
X162507611Y-96129167D01*
X162648152Y-133448912D02*
X162784660Y-133533846D01*
X162648152Y-139051087D02*
X162507611Y-139129167D01*
X162784660Y-47533846D02*
X162916800Y-47625428D01*
X162784660Y-52966153D02*
X162648152Y-53051087D01*
X162784660Y-90533846D02*
X162916800Y-90625428D01*
X162784660Y-95966153D02*
X162648152Y-96051087D01*
X162784660Y-133533846D02*
X162916800Y-133625428D01*
X162784660Y-138966153D02*
X162648152Y-139051087D01*
X162916800Y-47625428D02*
X163044249Y-47723432D01*
X162916800Y-52874571D02*
X162784660Y-52966153D01*
X162916800Y-90625428D02*
X163044249Y-90723432D01*
X162916800Y-95874571D02*
X162784660Y-95966153D01*
X162916800Y-133625428D02*
X163044249Y-133723432D01*
X162916800Y-138874571D02*
X162784660Y-138966153D01*
X163044249Y-47723432D02*
X163166696Y-47827619D01*
X163044249Y-52776567D02*
X162916800Y-52874571D01*
X163044249Y-90723432D02*
X163166696Y-90827619D01*
X163044249Y-95776567D02*
X162916800Y-95874571D01*
X163044249Y-133723432D02*
X163166696Y-133827619D01*
X163044249Y-138776567D02*
X162916800Y-138874571D01*
X163166696Y-47827619D02*
X163283841Y-47937735D01*
X163166696Y-52672380D02*
X163044249Y-52776567D01*
X163166696Y-90827619D02*
X163283841Y-90937735D01*
X163166696Y-95672380D02*
X163044249Y-95776567D01*
X163166696Y-133827619D02*
X163283841Y-133937735D01*
X163166696Y-138672380D02*
X163044249Y-138776567D01*
X163283841Y-47937735D02*
X163395396Y-48053508D01*
X163283841Y-52562264D02*
X163166696Y-52672380D01*
X163283841Y-90937735D02*
X163395396Y-91053508D01*
X163283841Y-95562264D02*
X163166696Y-95672380D01*
X163283841Y-133937735D02*
X163395396Y-134053508D01*
X163283841Y-138562264D02*
X163166696Y-138672380D01*
X163395396Y-48053508D02*
X163501090Y-48174657D01*
X163395396Y-52446491D02*
X163283841Y-52562264D01*
X163395396Y-91053508D02*
X163501090Y-91174657D01*
X163395396Y-95446491D02*
X163283841Y-95562264D01*
X163395396Y-134053508D02*
X163501090Y-134174657D01*
X163395396Y-138446491D02*
X163283841Y-138562264D01*
X163501090Y-48174657D02*
X163600663Y-48300885D01*
X163501090Y-52325342D02*
X163395396Y-52446491D01*
X163501090Y-91174657D02*
X163600663Y-91300885D01*
X163501090Y-95325342D02*
X163395396Y-95446491D01*
X163501090Y-134174657D02*
X163600663Y-134300885D01*
X163501090Y-138325342D02*
X163395396Y-138446491D01*
X163600663Y-48300885D02*
X163693872Y-48431882D01*
X163600663Y-52199114D02*
X163501090Y-52325342D01*
X163600663Y-91300885D02*
X163693872Y-91431882D01*
X163600663Y-95199114D02*
X163501090Y-95325342D01*
X163600663Y-134300885D02*
X163693872Y-134431882D01*
X163600663Y-138199114D02*
X163501090Y-138325342D01*
X163693872Y-48431882D02*
X163780488Y-48567329D01*
X163693872Y-52068117D02*
X163600663Y-52199114D01*
X163693872Y-91431882D02*
X163780488Y-91567329D01*
X163693872Y-95068117D02*
X163600663Y-95199114D01*
X163693872Y-134431882D02*
X163780488Y-134567329D01*
X163693872Y-138068117D02*
X163600663Y-138199114D01*
X163780488Y-48567329D02*
X163860301Y-48706893D01*
X163780488Y-51932670D02*
X163693872Y-52068117D01*
X163780488Y-91567329D02*
X163860301Y-91706893D01*
X163780488Y-94932670D02*
X163693872Y-95068117D01*
X163780488Y-134567329D02*
X163860301Y-134706893D01*
X163780488Y-137932670D02*
X163693872Y-138068117D01*
X163860301Y-48706893D02*
X163933113Y-48850234D01*
X163860301Y-51793106D02*
X163780488Y-51932670D01*
X163860301Y-91706893D02*
X163933113Y-91850234D01*
X163860301Y-94793106D02*
X163780488Y-94932670D01*
X163860301Y-134706893D02*
X163933113Y-134850234D01*
X163860301Y-137793106D02*
X163780488Y-137932670D01*
X163933113Y-48850234D02*
X163998748Y-48997000D01*
X163933113Y-51649765D02*
X163860301Y-51793106D01*
X163933113Y-91850234D02*
X163998748Y-91997000D01*
X163933113Y-94649765D02*
X163860301Y-94793106D01*
X163933113Y-134850234D02*
X163998748Y-134997000D01*
X163933113Y-137649765D02*
X163860301Y-137793106D01*
X163998748Y-48997000D02*
X164057044Y-49146832D01*
X163998748Y-51502999D02*
X163933113Y-51649765D01*
X163998748Y-91997000D02*
X164057044Y-92146832D01*
X163998748Y-94502999D02*
X163933113Y-94649765D01*
X163998748Y-134997000D02*
X164057044Y-135146832D01*
X163998748Y-137502999D02*
X163933113Y-137649765D01*
X164057044Y-49146832D02*
X164107859Y-49299364D01*
X164057044Y-51353167D02*
X163998748Y-51502999D01*
X164057044Y-92146832D02*
X164107859Y-92299364D01*
X164057044Y-94353167D02*
X163998748Y-94502999D01*
X164057044Y-135146832D02*
X164107859Y-135299364D01*
X164057044Y-137353167D02*
X163998748Y-137502999D01*
X164107859Y-49299364D02*
X164151069Y-49454223D01*
X164107859Y-51200635D02*
X164057044Y-51353167D01*
X164107859Y-92299364D02*
X164151069Y-92454223D01*
X164107859Y-94200635D02*
X164057044Y-94353167D01*
X164107859Y-135299364D02*
X164151069Y-135454223D01*
X164107859Y-137200635D02*
X164057044Y-137353167D01*
X164151069Y-49454223D02*
X164186568Y-49611029D01*
X164151069Y-51045776D02*
X164107859Y-51200635D01*
X164151069Y-92454223D02*
X164186568Y-92611029D01*
X164151069Y-94045776D02*
X164107859Y-94200635D01*
X164151069Y-135454223D02*
X164186568Y-135611029D01*
X164151069Y-137045776D02*
X164107859Y-137200635D01*
X164186568Y-49611029D02*
X164214268Y-49769398D01*
X164186568Y-50888970D02*
X164151069Y-51045776D01*
X164186568Y-92611029D02*
X164214268Y-92769398D01*
X164186568Y-93888970D02*
X164151069Y-94045776D01*
X164186568Y-135611029D02*
X164214268Y-135769398D01*
X164186568Y-136888970D02*
X164151069Y-137045776D01*
X164214268Y-49769398D02*
X164234103Y-49928944D01*
X164214268Y-50730601D02*
X164186568Y-50888970D01*
X164214268Y-92769398D02*
X164234103Y-92928944D01*
X164214268Y-93730601D02*
X164186568Y-93888970D01*
X164214268Y-135769398D02*
X164234103Y-135928944D01*
X164214268Y-136730601D02*
X164186568Y-136888970D01*
X164234103Y-49928944D02*
X164246023Y-50089275D01*
X164234103Y-50571055D02*
X164214268Y-50730601D01*
X164234103Y-92928944D02*
X164246023Y-93089275D01*
X164234103Y-93571055D02*
X164214268Y-93730601D01*
X164234103Y-135928944D02*
X164246023Y-136089275D01*
X164234103Y-136571055D02*
X164214268Y-136730601D01*
X164246023Y-50089275D02*
X164250000Y-50250000D01*
X164246023Y-50410724D02*
X164234103Y-50571055D01*
X164246023Y-93089275D02*
X164250000Y-93250000D01*
X164246023Y-93410724D02*
X164234103Y-93571055D01*
X164246023Y-136089275D02*
X164250000Y-136250000D01*
X164246023Y-136410724D02*
X164234103Y-136571055D01*
X164250000Y-50250000D02*
X164246023Y-50410724D01*
X164250000Y-93250000D02*
X164246023Y-93410724D01*
X164250000Y-136250000D02*
X164246023Y-136410724D01*
X164500000Y-31000000D02*
X150000000Y-31000000D01*
X164500000Y-72000000D02*
X164941077Y-71978331D01*
X164500000Y-74000000D02*
X150000000Y-74000000D01*
X164500000Y-115000000D02*
X164941077Y-114978331D01*
X164500000Y-117000000D02*
X150000000Y-117000000D01*
X164500000Y-158000000D02*
X164941077Y-157978331D01*
X164941077Y-31021668D02*
X164500000Y-31000000D01*
X164941077Y-71978331D02*
X165377906Y-71913533D01*
X164941077Y-74021668D02*
X164500000Y-74000000D01*
X164941077Y-114978331D02*
X165377906Y-114913533D01*
X164941077Y-117021668D02*
X164500000Y-117000000D01*
X164941077Y-157978331D02*
X165377906Y-157913533D01*
X165377906Y-31086466D02*
X164941077Y-31021668D01*
X165377906Y-71913533D02*
X165806281Y-71806231D01*
X165377906Y-74086466D02*
X164941077Y-74021668D01*
X165377906Y-114913533D02*
X165806281Y-114806231D01*
X165377906Y-117086466D02*
X164941077Y-117021668D01*
X165377906Y-157913533D02*
X165806281Y-157806231D01*
X165806281Y-31193768D02*
X165377906Y-31086466D01*
X165806281Y-71806231D02*
X166222075Y-71657457D01*
X165806281Y-74193768D02*
X165377906Y-74086466D01*
X165806281Y-114806231D02*
X166222075Y-114657457D01*
X165806281Y-117193768D02*
X165377906Y-117086466D01*
X165806281Y-157806231D02*
X166222075Y-157657457D01*
X166222075Y-31342542D02*
X165806281Y-31193768D01*
X166222075Y-71657457D02*
X166621285Y-71468645D01*
X166222075Y-74342542D02*
X165806281Y-74193768D01*
X166222075Y-114657457D02*
X166621285Y-114468645D01*
X166222075Y-117342542D02*
X165806281Y-117193768D01*
X166222075Y-157657457D02*
X166621285Y-157468645D01*
X166621285Y-31531354D02*
X166222075Y-31342542D01*
X166621285Y-71468645D02*
X167000066Y-71241613D01*
X166621285Y-74531354D02*
X166222075Y-74342542D01*
X166621285Y-114468645D02*
X167000066Y-114241613D01*
X166621285Y-117531354D02*
X166222075Y-117342542D01*
X166621285Y-157468645D02*
X167000066Y-157241613D01*
X167000066Y-31758386D02*
X166621285Y-31531354D01*
X167000066Y-71241613D02*
X167354769Y-70978547D01*
X167000066Y-74758386D02*
X166621285Y-74531354D01*
X167000066Y-114241613D02*
X167354769Y-113978547D01*
X167000066Y-117758386D02*
X166621285Y-117531354D01*
X167000066Y-157241613D02*
X167354769Y-156978547D01*
X167354769Y-32021452D02*
X167000066Y-31758386D01*
X167354769Y-70978547D02*
X167681980Y-70681980D01*
X167354769Y-75021452D02*
X167000066Y-74758386D01*
X167354769Y-113978547D02*
X167681980Y-113681980D01*
X167354769Y-118021452D02*
X167000066Y-117758386D01*
X167354769Y-156978547D02*
X167681980Y-156681980D01*
X167681980Y-32318019D02*
X167354769Y-32021452D01*
X167681980Y-70681980D02*
X167978547Y-70354769D01*
X167681980Y-75318019D02*
X167354769Y-75021452D01*
X167681980Y-113681980D02*
X167978547Y-113354769D01*
X167681980Y-118318019D02*
X167354769Y-118021452D01*
X167681980Y-156681980D02*
X167978547Y-156354769D01*
X167978547Y-32645230D02*
X167681980Y-32318019D01*
X167978547Y-70354769D02*
X168241613Y-70000066D01*
X167978547Y-75645230D02*
X167681980Y-75318019D01*
X167978547Y-113354769D02*
X168241613Y-113000066D01*
X167978547Y-118645230D02*
X167681980Y-118318019D01*
X167978547Y-156354769D02*
X168241613Y-156000066D01*
X168241613Y-32999933D02*
X167978547Y-32645230D01*
X168241613Y-70000066D02*
X168468645Y-69621285D01*
X168241613Y-75999933D02*
X167978547Y-75645230D01*
X168241613Y-113000066D02*
X168468645Y-112621285D01*
X168241613Y-118999933D02*
X167978547Y-118645230D01*
X168241613Y-156000066D02*
X168468645Y-155621285D01*
X168468645Y-33378714D02*
X168241613Y-32999933D01*
X168468645Y-69621285D02*
X168657457Y-69222075D01*
X168468645Y-76378714D02*
X168241613Y-75999933D01*
X168468645Y-112621285D02*
X168657457Y-112222075D01*
X168468645Y-119378714D02*
X168241613Y-118999933D01*
X168468645Y-155621285D02*
X168657457Y-155222075D01*
X168657457Y-33777924D02*
X168468645Y-33378714D01*
X168657457Y-69222075D02*
X168806231Y-68806281D01*
X168657457Y-76777924D02*
X168468645Y-76378714D01*
X168657457Y-112222075D02*
X168806231Y-111806281D01*
X168657457Y-119777924D02*
X168468645Y-119378714D01*
X168657457Y-155222075D02*
X168806231Y-154806281D01*
X168806231Y-34193718D02*
X168657457Y-33777924D01*
X168806231Y-68806281D02*
X168913533Y-68377906D01*
X168806231Y-77193718D02*
X168657457Y-76777924D01*
X168806231Y-111806281D02*
X168913533Y-111377906D01*
X168806231Y-120193718D02*
X168657457Y-119777924D01*
X168806231Y-154806281D02*
X168913533Y-154377906D01*
X168913533Y-34622093D02*
X168806231Y-34193718D01*
X168913533Y-68377906D02*
X168978331Y-67941077D01*
X168913533Y-77622093D02*
X168806231Y-77193718D01*
X168913533Y-111377906D02*
X168978331Y-110941077D01*
X168913533Y-120622093D02*
X168806231Y-120193718D01*
X168913533Y-154377906D02*
X168978331Y-153941077D01*
X168978331Y-35058922D02*
X168913533Y-34622093D01*
X168978331Y-67941077D02*
X169000000Y-67500000D01*
X168978331Y-78058922D02*
X168913533Y-77622093D01*
X168978331Y-110941077D02*
X169000000Y-110500000D01*
X168978331Y-121058922D02*
X168913533Y-120622093D01*
X168978331Y-153941077D02*
X169000000Y-153500000D01*
X169000000Y-35500000D02*
X168978331Y-35058922D01*
X169000000Y-50000000D02*
X169000000Y-35500000D01*
X169000000Y-53000000D02*
X171000000Y-53000000D01*
X169000000Y-67500000D02*
X169000000Y-53000000D01*
X169000000Y-78500000D02*
X168978331Y-78058922D01*
X169000000Y-93000000D02*
X169000000Y-78500000D01*
X169000000Y-96000000D02*
X171000000Y-96000000D01*
X169000000Y-110500000D02*
X169000000Y-96000000D01*
X169000000Y-121500000D02*
X168978331Y-121058922D01*
X169000000Y-136000000D02*
X169000000Y-121500000D01*
X169000000Y-139000000D02*
X171000000Y-139000000D01*
X169000000Y-153500000D02*
X169000000Y-139000000D01*
X171000000Y-35500000D02*
X171000000Y-50000000D01*
X171000000Y-50000000D02*
X169000000Y-50000000D01*
X171000000Y-53000000D02*
X171000000Y-67500000D01*
X171000000Y-67500000D02*
X171021668Y-67941077D01*
X171000000Y-78500000D02*
X171000000Y-93000000D01*
X171000000Y-93000000D02*
X169000000Y-93000000D01*
X171000000Y-96000000D02*
X171000000Y-110500000D01*
X171000000Y-110500000D02*
X171021668Y-110941077D01*
X171000000Y-121500000D02*
X171000000Y-136000000D01*
X171000000Y-136000000D02*
X169000000Y-136000000D01*
X171000000Y-139000000D02*
X171000000Y-153500000D01*
X171000000Y-153500000D02*
X171021668Y-153941077D01*
X171021668Y-35058922D02*
X171000000Y-35500000D01*
X171021668Y-67941077D02*
X171086466Y-68377906D01*
X171021668Y-78058922D02*
X171000000Y-78500000D01*
X171021668Y-110941077D02*
X171086466Y-111377906D01*
X171021668Y-121058922D02*
X171000000Y-121500000D01*
X171021668Y-153941077D02*
X171086466Y-154377906D01*
X171086466Y-34622093D02*
X171021668Y-35058922D01*
X171086466Y-68377906D02*
X171193768Y-68806281D01*
X171086466Y-77622093D02*
X171021668Y-78058922D01*
X171086466Y-111377906D02*
X171193768Y-111806281D01*
X171086466Y-120622093D02*
X171021668Y-121058922D01*
X171086466Y-154377906D02*
X171193768Y-154806281D01*
X171193768Y-34193718D02*
X171086466Y-34622093D01*
X171193768Y-68806281D02*
X171342542Y-69222075D01*
X171193768Y-77193718D02*
X171086466Y-77622093D01*
X171193768Y-111806281D02*
X171342542Y-112222075D01*
X171193768Y-120193718D02*
X171086466Y-120622093D01*
X171193768Y-154806281D02*
X171342542Y-155222075D01*
X171342542Y-33777924D02*
X171193768Y-34193718D01*
X171342542Y-69222075D02*
X171531354Y-69621285D01*
X171342542Y-76777924D02*
X171193768Y-77193718D01*
X171342542Y-112222075D02*
X171531354Y-112621285D01*
X171342542Y-119777924D02*
X171193768Y-120193718D01*
X171342542Y-155222075D02*
X171531354Y-155621285D01*
X171531354Y-33378714D02*
X171342542Y-33777924D01*
X171531354Y-69621285D02*
X171758386Y-70000066D01*
X171531354Y-76378714D02*
X171342542Y-76777924D01*
X171531354Y-112621285D02*
X171758386Y-113000066D01*
X171531354Y-119378714D02*
X171342542Y-119777924D01*
X171531354Y-155621285D02*
X171758386Y-156000066D01*
X171758386Y-32999933D02*
X171531354Y-33378714D01*
X171758386Y-70000066D02*
X172021452Y-70354769D01*
X171758386Y-75999933D02*
X171531354Y-76378714D01*
X171758386Y-113000066D02*
X172021452Y-113354769D01*
X171758386Y-118999933D02*
X171531354Y-119378714D01*
X171758386Y-156000066D02*
X172021452Y-156354769D01*
X172021452Y-32645230D02*
X171758386Y-32999933D01*
X172021452Y-70354769D02*
X172318019Y-70681980D01*
X172021452Y-75645230D02*
X171758386Y-75999933D01*
X172021452Y-113354769D02*
X172318019Y-113681980D01*
X172021452Y-118645230D02*
X171758386Y-118999933D01*
X172021452Y-156354769D02*
X172318019Y-156681980D01*
X172318019Y-32318019D02*
X172021452Y-32645230D01*
X172318019Y-70681980D02*
X172645230Y-70978547D01*
X172318019Y-75318019D02*
X172021452Y-75645230D01*
X172318019Y-113681980D02*
X172645230Y-113978547D01*
X172318019Y-118318019D02*
X172021452Y-118645230D01*
X172318019Y-156681980D02*
X172645230Y-156978547D01*
X172645230Y-32021452D02*
X172318019Y-32318019D01*
X172645230Y-70978547D02*
X172999933Y-71241613D01*
X172645230Y-75021452D02*
X172318019Y-75318019D01*
X172645230Y-113978547D02*
X172999933Y-114241613D01*
X172645230Y-118021452D02*
X172318019Y-118318019D01*
X172645230Y-156978547D02*
X172999933Y-157241613D01*
X172999933Y-31758386D02*
X172645230Y-32021452D01*
X172999933Y-71241613D02*
X173378714Y-71468645D01*
X172999933Y-74758386D02*
X172645230Y-75021452D01*
X172999933Y-114241613D02*
X173378714Y-114468645D01*
X172999933Y-117758386D02*
X172645230Y-118021452D01*
X172999933Y-157241613D02*
X173378714Y-157468645D01*
X173378714Y-31531354D02*
X172999933Y-31758386D01*
X173378714Y-71468645D02*
X173777924Y-71657457D01*
X173378714Y-74531354D02*
X172999933Y-74758386D01*
X173378714Y-114468645D02*
X173777924Y-114657457D01*
X173378714Y-117531354D02*
X172999933Y-117758386D01*
X173378714Y-157468645D02*
X173777924Y-157657457D01*
X173777924Y-31342542D02*
X173378714Y-31531354D01*
X173777924Y-71657457D02*
X174193718Y-71806231D01*
X173777924Y-74342542D02*
X173378714Y-74531354D01*
X173777924Y-114657457D02*
X174193718Y-114806231D01*
X173777924Y-117342542D02*
X173378714Y-117531354D01*
X173777924Y-157657457D02*
X174193718Y-157806231D01*
X174193718Y-31193768D02*
X173777924Y-31342542D01*
X174193718Y-71806231D02*
X174622093Y-71913533D01*
X174193718Y-74193768D02*
X173777924Y-74342542D01*
X174193718Y-114806231D02*
X174622093Y-114913533D01*
X174193718Y-117193768D02*
X173777924Y-117342542D01*
X174193718Y-157806231D02*
X174622093Y-157913533D01*
X174622093Y-31086466D02*
X174193718Y-31193768D01*
X174622093Y-71913533D02*
X175058922Y-71978331D01*
X174622093Y-74086466D02*
X174193718Y-74193768D01*
X174622093Y-114913533D02*
X175058922Y-114978331D01*
X174622093Y-117086466D02*
X174193718Y-117193768D01*
X174622093Y-157913533D02*
X175058922Y-157978331D01*
X175058922Y-31021668D02*
X174622093Y-31086466D01*
X175058922Y-71978331D02*
X175500000Y-72000000D01*
X175058922Y-74021668D02*
X174622093Y-74086466D01*
X175058922Y-114978331D02*
X175500000Y-115000000D01*
X175058922Y-117021668D02*
X174622093Y-117086466D01*
X175058922Y-157978331D02*
X175500000Y-158000000D01*
X175500000Y-31000000D02*
X175058922Y-31021668D01*
X175500000Y-72000000D02*
X190000000Y-72000000D01*
X175500000Y-74000000D02*
X175058922Y-74021668D01*
X175500000Y-115000000D02*
X190000000Y-115000000D01*
X175500000Y-117000000D02*
X175058922Y-117021668D01*
X175500000Y-158000000D02*
X190000000Y-158000000D01*
X183201621Y-40368907D02*
X183214587Y-40107043D01*
X183201621Y-40631092D02*
X183201621Y-40368907D01*
X183201621Y-83368907D02*
X183214587Y-83107043D01*
X183201621Y-83631092D02*
X183201621Y-83368907D01*
X183201621Y-126368907D02*
X183214587Y-126107043D01*
X183201621Y-126631092D02*
X183201621Y-126368907D01*
X183214587Y-40107043D02*
X183240487Y-39846140D01*
X183214587Y-40892956D02*
X183201621Y-40631092D01*
X183214587Y-83107043D02*
X183240487Y-82846140D01*
X183214587Y-83892956D02*
X183201621Y-83631092D01*
X183214587Y-126107043D02*
X183240487Y-125846140D01*
X183214587Y-126892956D02*
X183201621Y-126631092D01*
X183240487Y-39846140D02*
X183279259Y-39586838D01*
X183240487Y-41153859D02*
X183214587Y-40892956D01*
X183240487Y-82846140D02*
X183279259Y-82586838D01*
X183240487Y-84153859D02*
X183214587Y-83892956D01*
X183240487Y-125846140D02*
X183279259Y-125586838D01*
X183240487Y-127153859D02*
X183214587Y-126892956D01*
X183279259Y-39586838D02*
X183330806Y-39329770D01*
X183279259Y-41413161D02*
X183240487Y-41153859D01*
X183279259Y-82586838D02*
X183330806Y-82329770D01*
X183279259Y-84413161D02*
X183240487Y-84153859D01*
X183279259Y-125586838D02*
X183330806Y-125329770D01*
X183279259Y-127413161D02*
X183240487Y-127153859D01*
X183330806Y-39329770D02*
X183395003Y-39075566D01*
X183330806Y-41670229D02*
X183279259Y-41413161D01*
X183330806Y-82329770D02*
X183395003Y-82075566D01*
X183330806Y-84670229D02*
X183279259Y-84413161D01*
X183330806Y-125329770D02*
X183395003Y-125075566D01*
X183330806Y-127670229D02*
X183279259Y-127413161D01*
X183395003Y-39075566D02*
X183471693Y-38824848D01*
X183395003Y-41924433D02*
X183330806Y-41670229D01*
X183395003Y-82075566D02*
X183471693Y-81824848D01*
X183395003Y-84924433D02*
X183330806Y-84670229D01*
X183395003Y-125075566D02*
X183471693Y-124824848D01*
X183395003Y-127924433D02*
X183330806Y-127670229D01*
X183471693Y-38824848D02*
X183560688Y-38578229D01*
X183471693Y-42175151D02*
X183395003Y-41924433D01*
X183471693Y-81824848D02*
X183560688Y-81578229D01*
X183471693Y-85175151D02*
X183395003Y-84924433D01*
X183471693Y-124824848D02*
X183560688Y-124578229D01*
X183471693Y-128175151D02*
X183395003Y-127924433D01*
X183560688Y-38578229D02*
X183661770Y-38336313D01*
X183560688Y-42421770D02*
X183471693Y-42175151D01*
X183560688Y-81578229D02*
X183661770Y-81336313D01*
X183560688Y-85421770D02*
X183471693Y-85175151D01*
X183560688Y-124578229D02*
X183661770Y-124336313D01*
X183560688Y-128421770D02*
X183471693Y-128175151D01*
X183661770Y-38336313D02*
X183774692Y-38099692D01*
X183661770Y-42663686D02*
X183560688Y-42421770D01*
X183661770Y-81336313D02*
X183774692Y-81099692D01*
X183661770Y-85663686D02*
X183560688Y-85421770D01*
X183661770Y-124336313D02*
X183774692Y-124099692D01*
X183661770Y-128663686D02*
X183560688Y-128421770D01*
X183774692Y-38099692D02*
X183899178Y-37868945D01*
X183774692Y-42900307D02*
X183661770Y-42663686D01*
X183774692Y-81099692D02*
X183899178Y-80868945D01*
X183774692Y-85900307D02*
X183661770Y-85663686D01*
X183774692Y-124099692D02*
X183899178Y-123868945D01*
X183774692Y-128900307D02*
X183661770Y-128663686D01*
X183899178Y-37868945D02*
X184034923Y-37644637D01*
X183899178Y-43131054D02*
X183774692Y-42900307D01*
X183899178Y-80868945D02*
X184034923Y-80644637D01*
X183899178Y-86131054D02*
X183774692Y-85900307D01*
X183899178Y-123868945D02*
X184034923Y-123644637D01*
X183899178Y-129131054D02*
X183774692Y-128900307D01*
X184034923Y-37644637D02*
X184181595Y-37427316D01*
X184034923Y-43355362D02*
X183899178Y-43131054D01*
X184034923Y-80644637D02*
X184181595Y-80427316D01*
X184034923Y-86355362D02*
X183899178Y-86131054D01*
X184034923Y-123644637D02*
X184181595Y-123427316D01*
X184034923Y-129355362D02*
X183899178Y-129131054D01*
X184181595Y-37427316D02*
X184338835Y-37217515D01*
X184181595Y-43572683D02*
X184034923Y-43355362D01*
X184181595Y-80427316D02*
X184338835Y-80217515D01*
X184181595Y-86572683D02*
X184034923Y-86355362D01*
X184181595Y-123427316D02*
X184338835Y-123217515D01*
X184181595Y-129572683D02*
X184034923Y-129355362D01*
X184338835Y-37217515D02*
X184506257Y-37015746D01*
X184338835Y-43782484D02*
X184181595Y-43572683D01*
X184338835Y-80217515D02*
X184506257Y-80015746D01*
X184338835Y-86782484D02*
X184181595Y-86572683D01*
X184338835Y-123217515D02*
X184506257Y-123015746D01*
X184338835Y-129782484D02*
X184181595Y-129572683D01*
X184506257Y-37015746D02*
X184683453Y-36822504D01*
X184506257Y-43984253D02*
X184338835Y-43782484D01*
X184506257Y-80015746D02*
X184683453Y-79822504D01*
X184506257Y-86984253D02*
X184338835Y-86782484D01*
X184506257Y-123015746D02*
X184683453Y-122822504D01*
X184506257Y-129984253D02*
X184338835Y-129782484D01*
X184683453Y-36822504D02*
X184869989Y-36638261D01*
X184683453Y-44177495D02*
X184506257Y-43984253D01*
X184683453Y-79822504D02*
X184869989Y-79638261D01*
X184683453Y-87177495D02*
X184506257Y-86984253D01*
X184683453Y-122822504D02*
X184869989Y-122638261D01*
X184683453Y-130177495D02*
X184506257Y-129984253D01*
X184869989Y-36638261D02*
X185065408Y-36463469D01*
X184869989Y-44361738D02*
X184683453Y-44177495D01*
X184869989Y-79638261D02*
X185065408Y-79463469D01*
X184869989Y-87361738D02*
X184683453Y-87177495D01*
X184869989Y-122638261D02*
X185065408Y-122463469D01*
X184869989Y-130361738D02*
X184683453Y-130177495D01*
X185065408Y-36463469D02*
X185269232Y-36298555D01*
X185065408Y-44536530D02*
X184869989Y-44361738D01*
X185065408Y-79463469D02*
X185269232Y-79298555D01*
X185065408Y-87536530D02*
X184869989Y-87361738D01*
X185065408Y-122463469D02*
X185269232Y-122298555D01*
X185065408Y-130536530D02*
X184869989Y-130361738D01*
X185269232Y-36298555D02*
X185480962Y-36143922D01*
X185269232Y-44701444D02*
X185065408Y-44536530D01*
X185269232Y-79298555D02*
X185480962Y-79143922D01*
X185269232Y-87701444D02*
X185065408Y-87536530D01*
X185269232Y-122298555D02*
X185480962Y-122143922D01*
X185269232Y-130701444D02*
X185065408Y-130536530D01*
X185480962Y-36143922D02*
X185700080Y-35999949D01*
X185480962Y-44856077D02*
X185269232Y-44701444D01*
X185480962Y-79143922D02*
X185700080Y-78999949D01*
X185480962Y-87856077D02*
X185269232Y-87701444D01*
X185480962Y-122143922D02*
X185700080Y-121999949D01*
X185480962Y-130856077D02*
X185269232Y-130701444D01*
X185700080Y-35999949D02*
X185926050Y-35866989D01*
X185700080Y-45000050D02*
X185480962Y-44856077D01*
X185700080Y-78999949D02*
X185926050Y-78866989D01*
X185700080Y-88000050D02*
X185480962Y-87856077D01*
X185700080Y-121999949D02*
X185926050Y-121866989D01*
X185700080Y-131000050D02*
X185480962Y-130856077D01*
X185926050Y-35866989D02*
X186158319Y-35745367D01*
X185926050Y-45133010D02*
X185700080Y-45000050D01*
X185926050Y-78866989D02*
X186158319Y-78745367D01*
X185926050Y-88133010D02*
X185700080Y-88000050D01*
X185926050Y-121866989D02*
X186158319Y-121745367D01*
X185926050Y-131133010D02*
X185700080Y-131000050D01*
X186158319Y-35745367D02*
X186396319Y-35635379D01*
X186158319Y-45254632D02*
X185926050Y-45133010D01*
X186158319Y-78745367D02*
X186396319Y-78635379D01*
X186158319Y-88254632D02*
X185926050Y-88133010D01*
X186158319Y-121745367D02*
X186396319Y-121635379D01*
X186158319Y-131254632D02*
X185926050Y-131133010D01*
X186396319Y-35635379D02*
X186639467Y-35537297D01*
X186396319Y-45364620D02*
X186158319Y-45254632D01*
X186396319Y-78635379D02*
X186639467Y-78537297D01*
X186396319Y-88364620D02*
X186158319Y-88254632D01*
X186396319Y-121635379D02*
X186639467Y-121537297D01*
X186396319Y-131364620D02*
X186158319Y-131254632D01*
X186639467Y-35537297D02*
X186887167Y-35451359D01*
X186639467Y-45462702D02*
X186396319Y-45364620D01*
X186639467Y-78537297D02*
X186887167Y-78451359D01*
X186639467Y-88462702D02*
X186396319Y-88364620D01*
X186639467Y-121537297D02*
X186887167Y-121451359D01*
X186639467Y-131462702D02*
X186396319Y-131364620D01*
X186887167Y-35451359D02*
X187138815Y-35377776D01*
X186887167Y-45548640D02*
X186639467Y-45462702D01*
X186887167Y-78451359D02*
X187138815Y-78377776D01*
X186887167Y-88548640D02*
X186639467Y-88462702D01*
X186887167Y-121451359D02*
X187138815Y-121377776D01*
X186887167Y-131548640D02*
X186639467Y-131462702D01*
X187138815Y-35377776D02*
X187393793Y-35316728D01*
X187138815Y-45622223D02*
X186887167Y-45548640D01*
X187138815Y-78377776D02*
X187393793Y-78316728D01*
X187138815Y-88622223D02*
X186887167Y-88548640D01*
X187138815Y-121377776D02*
X187393793Y-121316728D01*
X187138815Y-131622223D02*
X186887167Y-131548640D01*
X187393793Y-35316728D02*
X187651479Y-35268364D01*
X187393793Y-45683271D02*
X187138815Y-45622223D01*
X187393793Y-78316728D02*
X187651479Y-78268364D01*
X187393793Y-88683271D02*
X187138815Y-88622223D01*
X187393793Y-121316728D02*
X187651479Y-121268364D01*
X187393793Y-131683271D02*
X187138815Y-131622223D01*
X187651479Y-35268364D02*
X187911241Y-35232803D01*
X187651479Y-45731635D02*
X187393793Y-45683271D01*
X187651479Y-78268364D02*
X187911241Y-78232803D01*
X187651479Y-88731635D02*
X187393793Y-88683271D01*
X187651479Y-121268364D02*
X187911241Y-121232803D01*
X187651479Y-131731635D02*
X187393793Y-131683271D01*
X187911241Y-35232803D02*
X188172444Y-35210131D01*
X187911241Y-45767196D02*
X187651479Y-45731635D01*
X187911241Y-78232803D02*
X188172444Y-78210131D01*
X187911241Y-88767196D02*
X187651479Y-88731635D01*
X187911241Y-121232803D02*
X188172444Y-121210131D01*
X187911241Y-131767196D02*
X187651479Y-131731635D01*
X188172444Y-35210131D02*
X188434448Y-35200405D01*
X188172444Y-45789868D02*
X187911241Y-45767196D01*
X188172444Y-78210131D02*
X188434448Y-78200405D01*
X188172444Y-88789868D02*
X187911241Y-88767196D01*
X188172444Y-121210131D02*
X188434448Y-121200405D01*
X188172444Y-131789868D02*
X187911241Y-131767196D01*
X188434448Y-35200405D02*
X188696613Y-35203648D01*
X188434448Y-45799594D02*
X188172444Y-45789868D01*
X188434448Y-78200405D02*
X188696613Y-78203648D01*
X188434448Y-88799594D02*
X188172444Y-88789868D01*
X188434448Y-121200405D02*
X188696613Y-121203648D01*
X188434448Y-131799594D02*
X188172444Y-131789868D01*
X188696613Y-35203648D02*
X188958297Y-35219851D01*
X188696613Y-45796351D02*
X188434448Y-45799594D01*
X188696613Y-78203648D02*
X188958297Y-78219851D01*
X188696613Y-88796351D02*
X188434448Y-88799594D01*
X188696613Y-121203648D02*
X188958297Y-121219851D01*
X188696613Y-131796351D02*
X188434448Y-131799594D01*
X188958297Y-35219851D02*
X189218859Y-35248977D01*
X188958297Y-45780148D02*
X188696613Y-45796351D01*
X188958297Y-78219851D02*
X189218859Y-78248977D01*
X188958297Y-88780148D02*
X188696613Y-88796351D01*
X188958297Y-121219851D02*
X189218859Y-121248977D01*
X188958297Y-131780148D02*
X188696613Y-131796351D01*
X189218859Y-35248977D02*
X189477662Y-35290952D01*
X189218859Y-45751022D02*
X188958297Y-45780148D01*
X189218859Y-78248977D02*
X189477662Y-78290952D01*
X189218859Y-88751022D02*
X188958297Y-88780148D01*
X189218859Y-121248977D02*
X189477662Y-121290952D01*
X189218859Y-131751022D02*
X188958297Y-131780148D01*
X189477662Y-35290952D02*
X189734073Y-35345675D01*
X189477662Y-45709047D02*
X189218859Y-45751022D01*
X189477662Y-78290952D02*
X189734073Y-78345675D01*
X189477662Y-88709047D02*
X189218859Y-88751022D01*
X189477662Y-121290952D02*
X189734073Y-121345675D01*
X189477662Y-131709047D02*
X189218859Y-131751022D01*
X189734073Y-35345675D02*
X189987463Y-35413011D01*
X189734073Y-45654324D02*
X189477662Y-45709047D01*
X189734073Y-78345675D02*
X189987463Y-78413011D01*
X189734073Y-88654324D02*
X189477662Y-88709047D01*
X189734073Y-121345675D02*
X189987463Y-121413011D01*
X189734073Y-131654324D02*
X189477662Y-131709047D01*
X189987463Y-35413011D02*
X190237214Y-35492796D01*
X189987463Y-45586988D02*
X189734073Y-45654324D01*
X189987463Y-78413011D02*
X190237214Y-78492796D01*
X189987463Y-88586988D02*
X189734073Y-88654324D01*
X189987463Y-121413011D02*
X190237214Y-121492796D01*
X189987463Y-131586988D02*
X189734073Y-131654324D01*
X190000000Y-26000000D02*
X190000000Y-31000000D01*
X190000000Y-31000000D02*
X175500000Y-31000000D01*
X190000000Y-72000000D02*
X190000000Y-74000000D01*
X190000000Y-74000000D02*
X175500000Y-74000000D01*
X190000000Y-115000000D02*
X190000000Y-117000000D01*
X190000000Y-117000000D02*
X175500000Y-117000000D01*
X190000000Y-158000000D02*
X190000000Y-163000000D01*
X190000000Y-163000000D02*
X150000000Y-163000000D01*
X190237214Y-35492796D02*
X190482713Y-35584834D01*
X190237214Y-45507203D02*
X189987463Y-45586988D01*
X190237214Y-78492796D02*
X190482713Y-78584834D01*
X190237214Y-88507203D02*
X189987463Y-88586988D01*
X190237214Y-121492796D02*
X190482713Y-121584834D01*
X190237214Y-131507203D02*
X189987463Y-131586988D01*
X190482713Y-35584834D02*
X190723360Y-35688901D01*
X190482713Y-45415165D02*
X190237214Y-45507203D01*
X190482713Y-78584834D02*
X190723360Y-78688901D01*
X190482713Y-88415165D02*
X190237214Y-88507203D01*
X190482713Y-121584834D02*
X190723360Y-121688901D01*
X190482713Y-131415165D02*
X190237214Y-131507203D01*
X190723360Y-35688901D02*
X190958566Y-35804741D01*
X190723360Y-45311098D02*
X190482713Y-45415165D01*
X190723360Y-78688901D02*
X190958566Y-78804741D01*
X190723360Y-88311098D02*
X190482713Y-88415165D01*
X190723360Y-121688901D02*
X190958566Y-121804741D01*
X190723360Y-131311098D02*
X190482713Y-131415165D01*
X190958566Y-35804741D02*
X191187756Y-35932072D01*
X190958566Y-45195258D02*
X190723360Y-45311098D01*
X190958566Y-78804741D02*
X191187756Y-78932072D01*
X190958566Y-88195258D02*
X190723360Y-88311098D01*
X190958566Y-121804741D02*
X191187756Y-121932072D01*
X190958566Y-131195258D02*
X190723360Y-131311098D01*
X191187756Y-35932072D02*
X191410368Y-36070580D01*
X191187756Y-45067927D02*
X190958566Y-45195258D01*
X191187756Y-78932072D02*
X191410368Y-79070580D01*
X191187756Y-88067927D02*
X190958566Y-88195258D01*
X191187756Y-121932072D02*
X191410368Y-122070580D01*
X191187756Y-131067927D02*
X190958566Y-131195258D01*
X191410368Y-36070580D02*
X191625858Y-36219929D01*
X191410368Y-44929419D02*
X191187756Y-45067927D01*
X191410368Y-79070580D02*
X191625858Y-79219929D01*
X191410368Y-87929419D02*
X191187756Y-88067927D01*
X191410368Y-122070580D02*
X191625858Y-122219929D01*
X191410368Y-130929419D02*
X191187756Y-131067927D01*
X191625858Y-36219929D02*
X191833699Y-36379751D01*
X191625858Y-44780070D02*
X191410368Y-44929419D01*
X191625858Y-79219929D02*
X191833699Y-79379751D01*
X191625858Y-87780070D02*
X191410368Y-87929419D01*
X191625858Y-122219929D02*
X191833699Y-122379751D01*
X191625858Y-130780070D02*
X191410368Y-130929419D01*
X191833699Y-36379751D02*
X192033382Y-36549656D01*
X191833699Y-44620248D02*
X191625858Y-44780070D01*
X191833699Y-79379751D02*
X192033382Y-79549656D01*
X191833699Y-87620248D02*
X191625858Y-87780070D01*
X191833699Y-122379751D02*
X192033382Y-122549656D01*
X191833699Y-130620248D02*
X191625858Y-130780070D01*
X192033382Y-36549656D02*
X192224417Y-36729229D01*
X192033382Y-44450343D02*
X191833699Y-44620248D01*
X192033382Y-79549656D02*
X192224417Y-79729229D01*
X192033382Y-87450343D02*
X191833699Y-87620248D01*
X192033382Y-122549656D02*
X192224417Y-122729229D01*
X192033382Y-130450343D02*
X191833699Y-130620248D01*
X192224417Y-36729229D02*
X192406339Y-36918029D01*
X192224417Y-44270770D02*
X192033382Y-44450343D01*
X192224417Y-79729229D02*
X192406339Y-79918029D01*
X192224417Y-87270770D02*
X192033382Y-87450343D01*
X192224417Y-122729229D02*
X192406339Y-122918029D01*
X192224417Y-130270770D02*
X192033382Y-130450343D01*
X192406339Y-36918029D02*
X192578701Y-37115595D01*
X192406339Y-44081970D02*
X192224417Y-44270770D01*
X192406339Y-79918029D02*
X192578701Y-80115595D01*
X192406339Y-87081970D02*
X192224417Y-87270770D01*
X192406339Y-122918029D02*
X192578701Y-123115595D01*
X192406339Y-130081970D02*
X192224417Y-130270770D01*
X192578701Y-37115595D02*
X192741082Y-37321443D01*
X192578701Y-43884404D02*
X192406339Y-44081970D01*
X192578701Y-80115595D02*
X192741082Y-80321443D01*
X192578701Y-86884404D02*
X192406339Y-87081970D01*
X192578701Y-123115595D02*
X192741082Y-123321443D01*
X192578701Y-129884404D02*
X192406339Y-130081970D01*
X192741082Y-37321443D02*
X192893084Y-37535070D01*
X192741082Y-43678556D02*
X192578701Y-43884404D01*
X192741082Y-80321443D02*
X192893084Y-80535070D01*
X192741082Y-86678556D02*
X192578701Y-86884404D01*
X192741082Y-123321443D02*
X192893084Y-123535070D01*
X192741082Y-129678556D02*
X192578701Y-129884404D01*
X192893084Y-37535070D02*
X193034335Y-37755952D01*
X192893084Y-43464929D02*
X192741082Y-43678556D01*
X192893084Y-80535070D02*
X193034335Y-80755952D01*
X192893084Y-86464929D02*
X192741082Y-86678556D01*
X192893084Y-123535070D02*
X193034335Y-123755952D01*
X192893084Y-129464929D02*
X192741082Y-129678556D01*
X193000000Y-26000000D02*
X212000000Y-26000000D01*
X193000000Y-31000000D02*
X193000000Y-26000000D01*
X193000000Y-72000000D02*
X207500000Y-72000000D01*
X193000000Y-74000000D02*
X193000000Y-72000000D01*
X193000000Y-115000000D02*
X207500000Y-115000000D01*
X193000000Y-117000000D02*
X193000000Y-115000000D01*
X193000000Y-158000000D02*
X207500000Y-158000000D01*
X193000000Y-163000000D02*
X193000000Y-158000000D01*
X193034335Y-37755952D02*
X193164491Y-37983549D01*
X193034335Y-43244047D02*
X192893084Y-43464929D01*
X193034335Y-80755952D02*
X193164491Y-80983549D01*
X193034335Y-86244047D02*
X192893084Y-86464929D01*
X193034335Y-123755952D02*
X193164491Y-123983549D01*
X193034335Y-129244047D02*
X192893084Y-129464929D01*
X193164491Y-37983549D02*
X193283231Y-38217305D01*
X193164491Y-43016450D02*
X193034335Y-43244047D01*
X193164491Y-80983549D02*
X193283231Y-81217305D01*
X193164491Y-86016450D02*
X193034335Y-86244047D01*
X193164491Y-123983549D02*
X193283231Y-124217305D01*
X193164491Y-129016450D02*
X193034335Y-129244047D01*
X193283231Y-38217305D02*
X193390266Y-38456646D01*
X193283231Y-42782694D02*
X193164491Y-43016450D01*
X193283231Y-81217305D02*
X193390266Y-81456646D01*
X193283231Y-85782694D02*
X193164491Y-86016450D01*
X193283231Y-124217305D02*
X193390266Y-124456646D01*
X193283231Y-128782694D02*
X193164491Y-129016450D01*
X193390266Y-38456646D02*
X193485334Y-38700988D01*
X193390266Y-42543353D02*
X193283231Y-42782694D01*
X193390266Y-81456646D02*
X193485334Y-81700988D01*
X193390266Y-85543353D02*
X193283231Y-85782694D01*
X193390266Y-124456646D02*
X193485334Y-124700988D01*
X193390266Y-128543353D02*
X193283231Y-128782694D01*
X193485334Y-38700988D02*
X193568202Y-38949733D01*
X193485334Y-42299011D02*
X193390266Y-42543353D01*
X193485334Y-81700988D02*
X193568202Y-81949733D01*
X193485334Y-85299011D02*
X193390266Y-85543353D01*
X193485334Y-124700988D02*
X193568202Y-124949733D01*
X193485334Y-128299011D02*
X193390266Y-128543353D01*
X193568202Y-38949733D02*
X193638667Y-39202271D01*
X193568202Y-42050266D02*
X193485334Y-42299011D01*
X193568202Y-81949733D02*
X193638667Y-82202271D01*
X193568202Y-85050266D02*
X193485334Y-85299011D01*
X193568202Y-124949733D02*
X193638667Y-125202271D01*
X193568202Y-128050266D02*
X193485334Y-128299011D01*
X193638667Y-39202271D02*
X193696557Y-39457985D01*
X193638667Y-41797728D02*
X193568202Y-42050266D01*
X193638667Y-82202271D02*
X193696557Y-82457985D01*
X193638667Y-84797728D02*
X193568202Y-85050266D01*
X193638667Y-125202271D02*
X193696557Y-125457985D01*
X193638667Y-127797728D02*
X193568202Y-128050266D01*
X193696557Y-39457985D02*
X193741730Y-39716249D01*
X193696557Y-41542014D02*
X193638667Y-41797728D01*
X193696557Y-82457985D02*
X193741730Y-82716249D01*
X193696557Y-84542014D02*
X193638667Y-84797728D01*
X193696557Y-125457985D02*
X193741730Y-125716249D01*
X193696557Y-127542014D02*
X193638667Y-127797728D01*
X193741730Y-39716249D02*
X193774075Y-39976431D01*
X193741730Y-41283750D02*
X193696557Y-41542014D01*
X193741730Y-82716249D02*
X193774075Y-82976431D01*
X193741730Y-84283750D02*
X193696557Y-84542014D01*
X193741730Y-125716249D02*
X193774075Y-125976431D01*
X193741730Y-127283750D02*
X193696557Y-127542014D01*
X193774075Y-39976431D02*
X193793515Y-40237895D01*
X193774075Y-41023568D02*
X193741730Y-41283750D01*
X193774075Y-82976431D02*
X193793515Y-83237895D01*
X193774075Y-84023568D02*
X193741730Y-84283750D01*
X193774075Y-125976431D02*
X193793515Y-126237895D01*
X193774075Y-127023568D02*
X193741730Y-127283750D01*
X193793515Y-40237895D02*
X193800000Y-40500000D01*
X193793515Y-40762104D02*
X193774075Y-41023568D01*
X193793515Y-83237895D02*
X193800000Y-83500000D01*
X193793515Y-83762104D02*
X193774075Y-84023568D01*
X193793515Y-126237895D02*
X193800000Y-126500000D01*
X193793515Y-126762104D02*
X193774075Y-127023568D01*
X193800000Y-40500000D02*
X193793515Y-40762104D01*
X193800000Y-83500000D02*
X193793515Y-83762104D01*
X193800000Y-126500000D02*
X193793515Y-126762104D01*
X200750994Y-50169613D02*
X200758945Y-50009036D01*
X200750994Y-50330386D02*
X200750994Y-50169613D01*
X200750994Y-93169613D02*
X200758945Y-93009036D01*
X200750994Y-93330386D02*
X200750994Y-93169613D01*
X200750994Y-136169613D02*
X200758945Y-136009036D01*
X200750994Y-136330386D02*
X200750994Y-136169613D01*
X200758945Y-50009036D02*
X200774827Y-49849048D01*
X200758945Y-50490963D02*
X200750994Y-50330386D01*
X200758945Y-93009036D02*
X200774827Y-92849048D01*
X200758945Y-93490963D02*
X200750994Y-93330386D01*
X200758945Y-136009036D02*
X200774827Y-135849048D01*
X200758945Y-136490963D02*
X200750994Y-136330386D01*
X200774827Y-49849048D02*
X200798602Y-49690042D01*
X200774827Y-50650951D02*
X200758945Y-50490963D01*
X200774827Y-92849048D02*
X200798602Y-92690042D01*
X200774827Y-93650951D02*
X200758945Y-93490963D01*
X200774827Y-135849048D02*
X200798602Y-135690042D01*
X200774827Y-136650951D02*
X200758945Y-136490963D01*
X200798602Y-49690042D02*
X200830211Y-49532406D01*
X200798602Y-50809957D02*
X200774827Y-50650951D01*
X200798602Y-92690042D02*
X200830211Y-92532406D01*
X200798602Y-93809957D02*
X200774827Y-93650951D01*
X200798602Y-135690042D02*
X200830211Y-135532406D01*
X200798602Y-136809957D02*
X200774827Y-136650951D01*
X200830211Y-49532406D02*
X200869577Y-49376526D01*
X200830211Y-50967593D02*
X200798602Y-50809957D01*
X200830211Y-92532406D02*
X200869577Y-92376526D01*
X200830211Y-93967593D02*
X200798602Y-93809957D01*
X200830211Y-135532406D02*
X200869577Y-135376526D01*
X200830211Y-136967593D02*
X200798602Y-136809957D01*
X200869577Y-49376526D02*
X200916604Y-49222784D01*
X200869577Y-51123473D02*
X200830211Y-50967593D01*
X200869577Y-92376526D02*
X200916604Y-92222784D01*
X200869577Y-94123473D02*
X200830211Y-93967593D01*
X200869577Y-135376526D02*
X200916604Y-135222784D01*
X200869577Y-137123473D02*
X200830211Y-136967593D01*
X200916604Y-49222784D02*
X200971176Y-49071556D01*
X200916604Y-51277215D02*
X200869577Y-51123473D01*
X200916604Y-92222784D02*
X200971176Y-92071556D01*
X200916604Y-94277215D02*
X200869577Y-94123473D01*
X200916604Y-135222784D02*
X200971176Y-135071556D01*
X200916604Y-137277215D02*
X200869577Y-137123473D01*
X200971176Y-49071556D02*
X201033161Y-48923211D01*
X200971176Y-51428443D02*
X200916604Y-51277215D01*
X200971176Y-92071556D02*
X201033161Y-91923211D01*
X200971176Y-94428443D02*
X200916604Y-94277215D01*
X200971176Y-135071556D02*
X201033161Y-134923211D01*
X200971176Y-137428443D02*
X200916604Y-137277215D01*
X201033161Y-48923211D02*
X201102406Y-48778113D01*
X201033161Y-51576788D02*
X200971176Y-51428443D01*
X201033161Y-91923211D02*
X201102406Y-91778113D01*
X201033161Y-94576788D02*
X200971176Y-94428443D01*
X201033161Y-134923211D02*
X201102406Y-134778113D01*
X201033161Y-137576788D02*
X200971176Y-137428443D01*
X201102406Y-48778113D02*
X201178741Y-48636617D01*
X201102406Y-51721886D02*
X201033161Y-51576788D01*
X201102406Y-91778113D02*
X201178741Y-91636617D01*
X201102406Y-94721886D02*
X201033161Y-94576788D01*
X201102406Y-134778113D02*
X201178741Y-134636617D01*
X201102406Y-137721886D02*
X201033161Y-137576788D01*
X201178741Y-48636617D02*
X201261981Y-48499070D01*
X201178741Y-51863382D02*
X201102406Y-51721886D01*
X201178741Y-91636617D02*
X201261981Y-91499070D01*
X201178741Y-94863382D02*
X201102406Y-94721886D01*
X201178741Y-134636617D02*
X201261981Y-134499070D01*
X201178741Y-137863382D02*
X201102406Y-137721886D01*
X201261981Y-48499070D02*
X201351921Y-48365807D01*
X201261981Y-52000929D02*
X201178741Y-51863382D01*
X201261981Y-91499070D02*
X201351921Y-91365807D01*
X201261981Y-95000929D02*
X201178741Y-94863382D01*
X201261981Y-134499070D02*
X201351921Y-134365807D01*
X201261981Y-138000929D02*
X201178741Y-137863382D01*
X201351921Y-48365807D02*
X201448342Y-48237155D01*
X201351921Y-52134192D02*
X201261981Y-52000929D01*
X201351921Y-91365807D02*
X201448342Y-91237155D01*
X201351921Y-95134192D02*
X201261981Y-95000929D01*
X201351921Y-134365807D02*
X201448342Y-134237155D01*
X201351921Y-138134192D02*
X201261981Y-138000929D01*
X201448342Y-48237155D02*
X201551007Y-48113429D01*
X201448342Y-52262844D02*
X201351921Y-52134192D01*
X201448342Y-91237155D02*
X201551007Y-91113429D01*
X201448342Y-95262844D02*
X201351921Y-95134192D01*
X201448342Y-134237155D02*
X201551007Y-134113429D01*
X201448342Y-138262844D02*
X201351921Y-138134192D01*
X201551007Y-48113429D02*
X201659664Y-47994931D01*
X201551007Y-52386570D02*
X201448342Y-52262844D01*
X201551007Y-91113429D02*
X201659664Y-90994931D01*
X201551007Y-95386570D02*
X201448342Y-95262844D01*
X201551007Y-134113429D02*
X201659664Y-133994931D01*
X201551007Y-138386570D02*
X201448342Y-138262844D01*
X201659664Y-47994931D02*
X201774050Y-47881952D01*
X201659664Y-52505068D02*
X201551007Y-52386570D01*
X201659664Y-90994931D02*
X201774050Y-90881952D01*
X201659664Y-95505068D02*
X201551007Y-95386570D01*
X201659664Y-133994931D02*
X201774050Y-133881952D01*
X201659664Y-138505068D02*
X201551007Y-138386570D01*
X201774050Y-47881952D02*
X201893882Y-47774768D01*
X201774050Y-52618047D02*
X201659664Y-52505068D01*
X201774050Y-90881952D02*
X201893882Y-90774768D01*
X201774050Y-95618047D02*
X201659664Y-95505068D01*
X201774050Y-133881952D02*
X201893882Y-133774768D01*
X201774050Y-138618047D02*
X201659664Y-138505068D01*
X201893882Y-47774768D02*
X202018868Y-47673642D01*
X201893882Y-52725231D02*
X201774050Y-52618047D01*
X201893882Y-90774768D02*
X202018868Y-90673642D01*
X201893882Y-95725231D02*
X201774050Y-95618047D01*
X201893882Y-133774768D02*
X202018868Y-133673642D01*
X201893882Y-138725231D02*
X201774050Y-138618047D01*
X202018868Y-47673642D02*
X202148703Y-47578820D01*
X202018868Y-52826357D02*
X201893882Y-52725231D01*
X202018868Y-90673642D02*
X202148703Y-90578820D01*
X202018868Y-95826357D02*
X201893882Y-95725231D01*
X202018868Y-133673642D02*
X202148703Y-133578820D01*
X202018868Y-138826357D02*
X201893882Y-138725231D01*
X202148703Y-47578820D02*
X202283068Y-47490535D01*
X202148703Y-52921179D02*
X202018868Y-52826357D01*
X202148703Y-90578820D02*
X202283068Y-90490535D01*
X202148703Y-95921179D02*
X202018868Y-95826357D01*
X202148703Y-133578820D02*
X202283068Y-133490535D01*
X202148703Y-138921179D02*
X202018868Y-138826357D01*
X202283068Y-47490535D02*
X202421634Y-47409003D01*
X202283068Y-53009464D02*
X202148703Y-52921179D01*
X202283068Y-90490535D02*
X202421634Y-90409003D01*
X202283068Y-96009464D02*
X202148703Y-95921179D01*
X202283068Y-133490535D02*
X202421634Y-133409003D01*
X202283068Y-139009464D02*
X202148703Y-138921179D01*
X202421634Y-47409003D02*
X202564064Y-47334423D01*
X202421634Y-53090996D02*
X202283068Y-53009464D01*
X202421634Y-90409003D02*
X202564064Y-90334423D01*
X202421634Y-96090996D02*
X202283068Y-96009464D01*
X202421634Y-133409003D02*
X202564064Y-133334423D01*
X202421634Y-139090996D02*
X202283068Y-139009464D01*
X202564064Y-47334423D02*
X202710007Y-47266978D01*
X202564064Y-53165576D02*
X202421634Y-53090996D01*
X202564064Y-90334423D02*
X202710007Y-90266978D01*
X202564064Y-96165576D02*
X202421634Y-96090996D01*
X202564064Y-133334423D02*
X202710007Y-133266978D01*
X202564064Y-139165576D02*
X202421634Y-139090996D01*
X202710007Y-47266978D02*
X202859107Y-47206833D01*
X202710007Y-53233021D02*
X202564064Y-53165576D01*
X202710007Y-90266978D02*
X202859107Y-90206833D01*
X202710007Y-96233021D02*
X202564064Y-96165576D01*
X202710007Y-133266978D02*
X202859107Y-133206833D01*
X202710007Y-139233021D02*
X202564064Y-139165576D01*
X202859107Y-47206833D02*
X203010999Y-47154135D01*
X202859107Y-53293166D02*
X202710007Y-53233021D01*
X202859107Y-90206833D02*
X203010999Y-90154135D01*
X202859107Y-96293166D02*
X202710007Y-96233021D01*
X202859107Y-133206833D02*
X203010999Y-133154135D01*
X202859107Y-139293166D02*
X202710007Y-139233021D01*
X203010999Y-47154135D02*
X203165311Y-47109013D01*
X203010999Y-53345864D02*
X202859107Y-53293166D01*
X203010999Y-90154135D02*
X203165311Y-90109013D01*
X203010999Y-96345864D02*
X202859107Y-96293166D01*
X203010999Y-133154135D02*
X203165311Y-133109013D01*
X203010999Y-139345864D02*
X202859107Y-139293166D01*
X203165311Y-47109013D02*
X203321665Y-47071578D01*
X203165311Y-53390986D02*
X203010999Y-53345864D01*
X203165311Y-90109013D02*
X203321665Y-90071578D01*
X203165311Y-96390986D02*
X203010999Y-96345864D01*
X203165311Y-133109013D02*
X203321665Y-133071578D01*
X203165311Y-139390986D02*
X203010999Y-139345864D01*
X203321665Y-47071578D02*
X203479680Y-47041921D01*
X203321665Y-53428421D02*
X203165311Y-53390986D01*
X203321665Y-90071578D02*
X203479680Y-90041921D01*
X203321665Y-96428421D02*
X203165311Y-96390986D01*
X203321665Y-133071578D02*
X203479680Y-133041921D01*
X203321665Y-139428421D02*
X203165311Y-139390986D01*
X203479680Y-47041921D02*
X203638968Y-47020115D01*
X203479680Y-53458078D02*
X203321665Y-53428421D01*
X203479680Y-90041921D02*
X203638968Y-90020115D01*
X203479680Y-96458078D02*
X203321665Y-96428421D01*
X203479680Y-133041921D02*
X203638968Y-133020115D01*
X203479680Y-139458078D02*
X203321665Y-139428421D01*
X203638968Y-47020115D02*
X203799140Y-47006212D01*
X203638968Y-53479884D02*
X203479680Y-53458078D01*
X203638968Y-90020115D02*
X203799140Y-90006212D01*
X203638968Y-96479884D02*
X203479680Y-96458078D01*
X203638968Y-133020115D02*
X203799140Y-133006212D01*
X203638968Y-139479884D02*
X203479680Y-139458078D01*
X203799140Y-47006212D02*
X203959803Y-47000248D01*
X203799140Y-53493787D02*
X203638968Y-53479884D01*
X203799140Y-90006212D02*
X203959803Y-90000248D01*
X203799140Y-96493787D02*
X203638968Y-96479884D01*
X203799140Y-133006212D02*
X203959803Y-133000248D01*
X203799140Y-139493787D02*
X203638968Y-139479884D01*
X203959803Y-47000248D02*
X204120564Y-47002237D01*
X203959803Y-53499751D02*
X203799140Y-53493787D01*
X203959803Y-90000248D02*
X204120564Y-90002237D01*
X203959803Y-96499751D02*
X203799140Y-96493787D01*
X203959803Y-133000248D02*
X204120564Y-133002237D01*
X203959803Y-139499751D02*
X203799140Y-139493787D01*
X204120564Y-47002237D02*
X204281031Y-47012173D01*
X204120564Y-53497762D02*
X203959803Y-53499751D01*
X204120564Y-90002237D02*
X204281031Y-90012173D01*
X204120564Y-96497762D02*
X203959803Y-96499751D01*
X204120564Y-133002237D02*
X204281031Y-133012173D01*
X204120564Y-139497762D02*
X203959803Y-139499751D01*
X204281031Y-47012173D02*
X204440810Y-47030033D01*
X204281031Y-53487826D02*
X204120564Y-53497762D01*
X204281031Y-90012173D02*
X204440810Y-90030033D01*
X204281031Y-96487826D02*
X204120564Y-96497762D01*
X204281031Y-133012173D02*
X204440810Y-133030033D01*
X204281031Y-139487826D02*
X204120564Y-139497762D01*
X204440810Y-47030033D02*
X204599510Y-47055772D01*
X204440810Y-53469966D02*
X204281031Y-53487826D01*
X204440810Y-90030033D02*
X204599510Y-90055772D01*
X204440810Y-96469966D02*
X204281031Y-96487826D01*
X204440810Y-133030033D02*
X204599510Y-133055772D01*
X204440810Y-139469966D02*
X204281031Y-139487826D01*
X204599510Y-47055772D02*
X204756742Y-47089329D01*
X204599510Y-53444227D02*
X204440810Y-53469966D01*
X204599510Y-90055772D02*
X204756742Y-90089329D01*
X204599510Y-96444227D02*
X204440810Y-96469966D01*
X204599510Y-133055772D02*
X204756742Y-133089329D01*
X204599510Y-139444227D02*
X204440810Y-139469966D01*
X204756742Y-47089329D02*
X204912123Y-47130620D01*
X204756742Y-53410670D02*
X204599510Y-53444227D01*
X204756742Y-90089329D02*
X204912123Y-90130620D01*
X204756742Y-96410670D02*
X204599510Y-96444227D01*
X204756742Y-133089329D02*
X204912123Y-133130620D01*
X204756742Y-139410670D02*
X204599510Y-139444227D01*
X204912123Y-47130620D02*
X205065272Y-47179545D01*
X204912123Y-53369379D02*
X204756742Y-53410670D01*
X204912123Y-90130620D02*
X205065272Y-90179545D01*
X204912123Y-96369379D02*
X204756742Y-96410670D01*
X204912123Y-133130620D02*
X205065272Y-133179545D01*
X204912123Y-139369379D02*
X204756742Y-139410670D01*
X205065272Y-47179545D02*
X205215814Y-47235983D01*
X205065272Y-53320454D02*
X204912123Y-53369379D01*
X205065272Y-90179545D02*
X205215814Y-90235983D01*
X205065272Y-96320454D02*
X204912123Y-96369379D01*
X205065272Y-133179545D02*
X205215814Y-133235983D01*
X205065272Y-139320454D02*
X204912123Y-139369379D01*
X205215814Y-47235983D02*
X205363381Y-47299798D01*
X205215814Y-53264016D02*
X205065272Y-53320454D01*
X205215814Y-90235983D02*
X205363381Y-90299798D01*
X205215814Y-96264016D02*
X205065272Y-96320454D01*
X205215814Y-133235983D02*
X205363381Y-133299798D01*
X205215814Y-139264016D02*
X205065272Y-139320454D01*
X205363381Y-47299798D02*
X205507611Y-47370832D01*
X205363381Y-53200201D02*
X205215814Y-53264016D01*
X205363381Y-90299798D02*
X205507611Y-90370832D01*
X205363381Y-96200201D02*
X205215814Y-96264016D01*
X205363381Y-133299798D02*
X205507611Y-133370832D01*
X205363381Y-139200201D02*
X205215814Y-139264016D01*
X205507611Y-47370832D02*
X205648152Y-47448912D01*
X205507611Y-53129167D02*
X205363381Y-53200201D01*
X205507611Y-90370832D02*
X205648152Y-90448912D01*
X205507611Y-96129167D02*
X205363381Y-96200201D01*
X205507611Y-133370832D02*
X205648152Y-133448912D01*
X205507611Y-139129167D02*
X205363381Y-139200201D01*
X205648152Y-47448912D02*
X205784660Y-47533846D01*
X205648152Y-53051087D02*
X205507611Y-53129167D01*
X205648152Y-90448912D02*
X205784660Y-90533846D01*
X205648152Y-96051087D02*
X205507611Y-96129167D01*
X205648152Y-133448912D02*
X205784660Y-133533846D01*
X205648152Y-139051087D02*
X205507611Y-139129167D01*
X205784660Y-47533846D02*
X205916800Y-47625428D01*
X205784660Y-52966153D02*
X205648152Y-53051087D01*
X205784660Y-90533846D02*
X205916800Y-90625428D01*
X205784660Y-95966153D02*
X205648152Y-96051087D01*
X205784660Y-133533846D02*
X205916800Y-133625428D01*
X205784660Y-138966153D02*
X205648152Y-139051087D01*
X205916800Y-47625428D02*
X206044249Y-47723432D01*
X205916800Y-52874571D02*
X205784660Y-52966153D01*
X205916800Y-90625428D02*
X206044249Y-90723432D01*
X205916800Y-95874571D02*
X205784660Y-95966153D01*
X205916800Y-133625428D02*
X206044249Y-133723432D01*
X205916800Y-138874571D02*
X205784660Y-138966153D01*
X206044249Y-47723432D02*
X206166696Y-47827619D01*
X206044249Y-52776567D02*
X205916800Y-52874571D01*
X206044249Y-90723432D02*
X206166696Y-90827619D01*
X206044249Y-95776567D02*
X205916800Y-95874571D01*
X206044249Y-133723432D02*
X206166696Y-133827619D01*
X206044249Y-138776567D02*
X205916800Y-138874571D01*
X206166696Y-47827619D02*
X206283841Y-47937735D01*
X206166696Y-52672380D02*
X206044249Y-52776567D01*
X206166696Y-90827619D02*
X206283841Y-90937735D01*
X206166696Y-95672380D02*
X206044249Y-95776567D01*
X206166696Y-133827619D02*
X206283841Y-133937735D01*
X206166696Y-138672380D02*
X206044249Y-138776567D01*
X206283841Y-47937735D02*
X206395396Y-48053508D01*
X206283841Y-52562264D02*
X206166696Y-52672380D01*
X206283841Y-90937735D02*
X206395396Y-91053508D01*
X206283841Y-95562264D02*
X206166696Y-95672380D01*
X206283841Y-133937735D02*
X206395396Y-134053508D01*
X206283841Y-138562264D02*
X206166696Y-138672380D01*
X206395396Y-48053508D02*
X206501090Y-48174657D01*
X206395396Y-52446491D02*
X206283841Y-52562264D01*
X206395396Y-91053508D02*
X206501090Y-91174657D01*
X206395396Y-95446491D02*
X206283841Y-95562264D01*
X206395396Y-134053508D02*
X206501090Y-134174657D01*
X206395396Y-138446491D02*
X206283841Y-138562264D01*
X206501090Y-48174657D02*
X206600663Y-48300885D01*
X206501090Y-52325342D02*
X206395396Y-52446491D01*
X206501090Y-91174657D02*
X206600663Y-91300885D01*
X206501090Y-95325342D02*
X206395396Y-95446491D01*
X206501090Y-134174657D02*
X206600663Y-134300885D01*
X206501090Y-138325342D02*
X206395396Y-138446491D01*
X206600663Y-48300885D02*
X206693872Y-48431882D01*
X206600663Y-52199114D02*
X206501090Y-52325342D01*
X206600663Y-91300885D02*
X206693872Y-91431882D01*
X206600663Y-95199114D02*
X206501090Y-95325342D01*
X206600663Y-134300885D02*
X206693872Y-134431882D01*
X206600663Y-138199114D02*
X206501090Y-138325342D01*
X206693872Y-48431882D02*
X206780488Y-48567329D01*
X206693872Y-52068117D02*
X206600663Y-52199114D01*
X206693872Y-91431882D02*
X206780488Y-91567329D01*
X206693872Y-95068117D02*
X206600663Y-95199114D01*
X206693872Y-134431882D02*
X206780488Y-134567329D01*
X206693872Y-138068117D02*
X206600663Y-138199114D01*
X206780488Y-48567329D02*
X206860301Y-48706893D01*
X206780488Y-51932670D02*
X206693872Y-52068117D01*
X206780488Y-91567329D02*
X206860301Y-91706893D01*
X206780488Y-94932670D02*
X206693872Y-95068117D01*
X206780488Y-134567329D02*
X206860301Y-134706893D01*
X206780488Y-137932670D02*
X206693872Y-138068117D01*
X206860301Y-48706893D02*
X206933113Y-48850234D01*
X206860301Y-51793106D02*
X206780488Y-51932670D01*
X206860301Y-91706893D02*
X206933113Y-91850234D01*
X206860301Y-94793106D02*
X206780488Y-94932670D01*
X206860301Y-134706893D02*
X206933113Y-134850234D01*
X206860301Y-137793106D02*
X206780488Y-137932670D01*
X206933113Y-48850234D02*
X206998748Y-48997000D01*
X206933113Y-51649765D02*
X206860301Y-51793106D01*
X206933113Y-91850234D02*
X206998748Y-91997000D01*
X206933113Y-94649765D02*
X206860301Y-94793106D01*
X206933113Y-134850234D02*
X206998748Y-134997000D01*
X206933113Y-137649765D02*
X206860301Y-137793106D01*
X206998748Y-48997000D02*
X207057044Y-49146832D01*
X206998748Y-51502999D02*
X206933113Y-51649765D01*
X206998748Y-91997000D02*
X207057044Y-92146832D01*
X206998748Y-94502999D02*
X206933113Y-94649765D01*
X206998748Y-134997000D02*
X207057044Y-135146832D01*
X206998748Y-137502999D02*
X206933113Y-137649765D01*
X207057044Y-49146832D02*
X207107859Y-49299364D01*
X207057044Y-51353167D02*
X206998748Y-51502999D01*
X207057044Y-92146832D02*
X207107859Y-92299364D01*
X207057044Y-94353167D02*
X206998748Y-94502999D01*
X207057044Y-135146832D02*
X207107859Y-135299364D01*
X207057044Y-137353167D02*
X206998748Y-137502999D01*
X207107859Y-49299364D02*
X207151069Y-49454223D01*
X207107859Y-51200635D02*
X207057044Y-51353167D01*
X207107859Y-92299364D02*
X207151069Y-92454223D01*
X207107859Y-94200635D02*
X207057044Y-94353167D01*
X207107859Y-135299364D02*
X207151069Y-135454223D01*
X207107859Y-137200635D02*
X207057044Y-137353167D01*
X207151069Y-49454223D02*
X207186568Y-49611029D01*
X207151069Y-51045776D02*
X207107859Y-51200635D01*
X207151069Y-92454223D02*
X207186568Y-92611029D01*
X207151069Y-94045776D02*
X207107859Y-94200635D01*
X207151069Y-135454223D02*
X207186568Y-135611029D01*
X207151069Y-137045776D02*
X207107859Y-137200635D01*
X207186568Y-49611029D02*
X207214268Y-49769398D01*
X207186568Y-50888970D02*
X207151069Y-51045776D01*
X207186568Y-92611029D02*
X207214268Y-92769398D01*
X207186568Y-93888970D02*
X207151069Y-94045776D01*
X207186568Y-135611029D02*
X207214268Y-135769398D01*
X207186568Y-136888970D02*
X207151069Y-137045776D01*
X207214268Y-49769398D02*
X207234103Y-49928944D01*
X207214268Y-50730601D02*
X207186568Y-50888970D01*
X207214268Y-92769398D02*
X207234103Y-92928944D01*
X207214268Y-93730601D02*
X207186568Y-93888970D01*
X207214268Y-135769398D02*
X207234103Y-135928944D01*
X207214268Y-136730601D02*
X207186568Y-136888970D01*
X207234103Y-49928944D02*
X207246023Y-50089275D01*
X207234103Y-50571055D02*
X207214268Y-50730601D01*
X207234103Y-92928944D02*
X207246023Y-93089275D01*
X207234103Y-93571055D02*
X207214268Y-93730601D01*
X207234103Y-135928944D02*
X207246023Y-136089275D01*
X207234103Y-136571055D02*
X207214268Y-136730601D01*
X207246023Y-50089275D02*
X207250000Y-50250000D01*
X207246023Y-50410724D02*
X207234103Y-50571055D01*
X207246023Y-93089275D02*
X207250000Y-93250000D01*
X207246023Y-93410724D02*
X207234103Y-93571055D01*
X207246023Y-136089275D02*
X207250000Y-136250000D01*
X207246023Y-136410724D02*
X207234103Y-136571055D01*
X207250000Y-50250000D02*
X207246023Y-50410724D01*
X207250000Y-93250000D02*
X207246023Y-93410724D01*
X207250000Y-136250000D02*
X207246023Y-136410724D01*
X207500000Y-31000000D02*
X193000000Y-31000000D01*
X207500000Y-72000000D02*
X207941077Y-71978331D01*
X207500000Y-74000000D02*
X193000000Y-74000000D01*
X207500000Y-115000000D02*
X207941077Y-114978331D01*
X207500000Y-117000000D02*
X193000000Y-117000000D01*
X207500000Y-158000000D02*
X207941077Y-157978331D01*
X207941077Y-31021668D02*
X207500000Y-31000000D01*
X207941077Y-71978331D02*
X208377906Y-71913533D01*
X207941077Y-74021668D02*
X207500000Y-74000000D01*
X207941077Y-114978331D02*
X208377906Y-114913533D01*
X207941077Y-117021668D02*
X207500000Y-117000000D01*
X207941077Y-157978331D02*
X208377906Y-157913533D01*
X208377906Y-31086466D02*
X207941077Y-31021668D01*
X208377906Y-71913533D02*
X208806281Y-71806231D01*
X208377906Y-74086466D02*
X207941077Y-74021668D01*
X208377906Y-114913533D02*
X208806281Y-114806231D01*
X208377906Y-117086466D02*
X207941077Y-117021668D01*
X208377906Y-157913533D02*
X208806281Y-157806231D01*
X208806281Y-31193768D02*
X208377906Y-31086466D01*
X208806281Y-71806231D02*
X209222075Y-71657457D01*
X208806281Y-74193768D02*
X208377906Y-74086466D01*
X208806281Y-114806231D02*
X209222075Y-114657457D01*
X208806281Y-117193768D02*
X208377906Y-117086466D01*
X208806281Y-157806231D02*
X209222075Y-157657457D01*
X209222075Y-31342542D02*
X208806281Y-31193768D01*
X209222075Y-71657457D02*
X209621285Y-71468645D01*
X209222075Y-74342542D02*
X208806281Y-74193768D01*
X209222075Y-114657457D02*
X209621285Y-114468645D01*
X209222075Y-117342542D02*
X208806281Y-117193768D01*
X209222075Y-157657457D02*
X209621285Y-157468645D01*
X209621285Y-31531354D02*
X209222075Y-31342542D01*
X209621285Y-71468645D02*
X210000066Y-71241613D01*
X209621285Y-74531354D02*
X209222075Y-74342542D01*
X209621285Y-114468645D02*
X210000066Y-114241613D01*
X209621285Y-117531354D02*
X209222075Y-117342542D01*
X209621285Y-157468645D02*
X210000066Y-157241613D01*
X210000066Y-31758386D02*
X209621285Y-31531354D01*
X210000066Y-71241613D02*
X210354769Y-70978547D01*
X210000066Y-74758386D02*
X209621285Y-74531354D01*
X210000066Y-114241613D02*
X210354769Y-113978547D01*
X210000066Y-117758386D02*
X209621285Y-117531354D01*
X210000066Y-157241613D02*
X210354769Y-156978547D01*
X210354769Y-32021452D02*
X210000066Y-31758386D01*
X210354769Y-70978547D02*
X210681980Y-70681980D01*
X210354769Y-75021452D02*
X210000066Y-74758386D01*
X210354769Y-113978547D02*
X210681980Y-113681980D01*
X210354769Y-118021452D02*
X210000066Y-117758386D01*
X210354769Y-156978547D02*
X210681980Y-156681980D01*
X210681980Y-32318019D02*
X210354769Y-32021452D01*
X210681980Y-70681980D02*
X210978547Y-70354769D01*
X210681980Y-75318019D02*
X210354769Y-75021452D01*
X210681980Y-113681980D02*
X210978547Y-113354769D01*
X210681980Y-118318019D02*
X210354769Y-118021452D01*
X210681980Y-156681980D02*
X210978547Y-156354769D01*
X210978547Y-32645230D02*
X210681980Y-32318019D01*
X210978547Y-70354769D02*
X211241613Y-70000066D01*
X210978547Y-75645230D02*
X210681980Y-75318019D01*
X210978547Y-113354769D02*
X211241613Y-113000066D01*
X210978547Y-118645230D02*
X210681980Y-118318019D01*
X210978547Y-156354769D02*
X211241613Y-156000066D01*
X211241613Y-32999933D02*
X210978547Y-32645230D01*
X211241613Y-70000066D02*
X211468645Y-69621285D01*
X211241613Y-75999933D02*
X210978547Y-75645230D01*
X211241613Y-113000066D02*
X211468645Y-112621285D01*
X211241613Y-118999933D02*
X210978547Y-118645230D01*
X211241613Y-156000066D02*
X211468645Y-155621285D01*
X211468645Y-33378714D02*
X211241613Y-32999933D01*
X211468645Y-69621285D02*
X211657457Y-69222075D01*
X211468645Y-76378714D02*
X211241613Y-75999933D01*
X211468645Y-112621285D02*
X211657457Y-112222075D01*
X211468645Y-119378714D02*
X211241613Y-118999933D01*
X211468645Y-155621285D02*
X211657457Y-155222075D01*
X211657457Y-33777924D02*
X211468645Y-33378714D01*
X211657457Y-69222075D02*
X211806231Y-68806281D01*
X211657457Y-76777924D02*
X211468645Y-76378714D01*
X211657457Y-112222075D02*
X211806231Y-111806281D01*
X211657457Y-119777924D02*
X211468645Y-119378714D01*
X211657457Y-155222075D02*
X211806231Y-154806281D01*
X211806231Y-34193718D02*
X211657457Y-33777924D01*
X211806231Y-68806281D02*
X211913533Y-68377906D01*
X211806231Y-77193718D02*
X211657457Y-76777924D01*
X211806231Y-111806281D02*
X211913533Y-111377906D01*
X211806231Y-120193718D02*
X211657457Y-119777924D01*
X211806231Y-154806281D02*
X211913533Y-154377906D01*
X211913533Y-34622093D02*
X211806231Y-34193718D01*
X211913533Y-68377906D02*
X211978331Y-67941077D01*
X211913533Y-77622093D02*
X211806231Y-77193718D01*
X211913533Y-111377906D02*
X211978331Y-110941077D01*
X211913533Y-120622093D02*
X211806231Y-120193718D01*
X211913533Y-154377906D02*
X211978331Y-153941077D01*
X211978331Y-35058922D02*
X211913533Y-34622093D01*
X211978331Y-67941077D02*
X212000000Y-67500000D01*
X211978331Y-78058922D02*
X211913533Y-77622093D01*
X211978331Y-110941077D02*
X212000000Y-110500000D01*
X211978331Y-121058922D02*
X211913533Y-120622093D01*
X211978331Y-153941077D02*
X212000000Y-153500000D01*
X212000000Y-20000000D02*
X85000000Y-20000000D01*
X212000000Y-26000000D02*
X212000000Y-20000000D01*
X212000000Y-35500000D02*
X211978331Y-35058922D01*
X212000000Y-67500000D02*
X212000000Y-35500000D01*
X212000000Y-78500000D02*
X211978331Y-78058922D01*
X212000000Y-110500000D02*
X212000000Y-78500000D01*
X212000000Y-121500000D02*
X211978331Y-121058922D01*
X212000000Y-153500000D02*
X212000000Y-121500000D01*
X212000000Y-163000000D02*
X193000000Y-163000000D01*
X212000000Y-169000000D02*
X212000000Y-163000000D01*
M02*
