G04 #@! TF.GenerationSoftware,KiCad,Pcbnew,10.0.3*
G04 #@! TF.ProjectId,Speakeasy_panel_3x3,53706561-6b65-4617-9379-5f70616e656c,rev?*
G04 #@! TF.SameCoordinates,Original*
G04 #@! TF.FileFunction,Soldermask,Top*
G04 #@! TF.FilePolarity,Negative*
%FSLAX46Y46*%
G04 Gerber Fmt 4.6, Leading zero omitted, Abs format (unit mm)*
%MOMM*%
%LPD*%
G01*
G04 APERTURE LIST*
G04 Aperture macros list*
%AMRotRect*
0 Rectangle, with rotation*
0 The origin of the aperture is its center*
0 $1 length*
0 $2 width*
0 $3 Rotation angle, in degrees counterclockwise*
0 Add horizontal line*
21,1,$1,$2,0,0,$3*%
%AMFreePoly0*
4,1,14,0.635227,0.635252,0.649872,0.599897,0.649872,-0.600100,0.635227,-0.635455,0.599872,-0.650100,-0.600126,-0.650100,-0.635481,-0.635455,-0.650126,-0.600100,-0.650126,-0.000102,-0.635481,0.035253,-0.035482,0.635252,-0.000127,0.649897,0.599872,0.649897,0.635227,0.635252,0.635227,0.635252,$1*%
%AMFreePoly1*
4,1,14,0.435426,0.135436,0.535430,0.035431,0.550075,0.000076,0.550075,-0.100051,0.535430,-0.135406,0.500075,-0.150051,-0.549910,-0.150051,-0.585265,-0.135406,-0.599910,-0.100051,-0.599910,0.099949,-0.585265,0.135304,-0.549917,0.149949,0.400068,0.150076,0.435426,0.135436,0.435426,0.135436,$1*%
%AMFreePoly2*
4,1,29,0.585214,0.635303,0.599859,0.599948,0.599859,-0.600050,0.585214,-0.635405,0.549859,-0.650050,-0.000076,-0.650050,-0.035431,-0.635405,-0.050076,-0.600050,-0.050076,-0.500037,-0.500177,-0.500037,-0.535532,-0.485392,-0.550177,-0.450037,-0.550177,-0.200152,-0.535532,-0.164797,-0.500177,-0.150152,-0.050076,-0.150152,-0.050076,0.149974,-0.500177,0.149974,-0.535532,0.164619,-0.550177,0.199974,
-0.550177,0.449936,-0.535532,0.485291,-0.500177,0.499936,-0.050076,0.499936,-0.050076,0.599948,-0.035431,0.635303,-0.000076,0.649948,0.549859,0.649948,0.585214,0.635303,0.585214,0.635303,$1*%
%AMFreePoly3*
4,1,29,0.035380,0.635328,0.050025,0.599973,0.050025,0.499986,0.500024,0.499986,0.535379,0.485341,0.550024,0.449986,0.550024,0.199974,0.535379,0.164619,0.500024,0.149974,0.050025,0.149974,0.050025,-0.150025,0.500024,-0.150025,0.535379,-0.164670,0.550024,-0.200025,0.550024,-0.450012,0.535379,-0.485367,0.500024,-0.500012,0.050025,-0.500012,0.050025,-0.600024,0.035380,-0.635379,
0.000025,-0.650024,-0.549961,-0.650024,-0.585316,-0.635379,-0.599961,-0.600024,-0.599961,0.599973,-0.585316,0.635328,-0.549961,0.649973,0.000025,0.649973,0.035380,0.635328,0.035380,0.635328,$1*%
G04 Aperture macros list end*
%ADD10R,0.540000X0.566000*%
%ADD11R,0.900000X0.800000*%
%ADD12R,0.540000X0.500000*%
%ADD13C,0.500000*%
%ADD14C,2.000000*%
%ADD15C,0.800000*%
%ADD16C,6.400000*%
%ADD17C,1.600000*%
%ADD18RotRect,1.400000X5.000000X142.000000*%
%ADD19R,0.600000X0.250000*%
%ADD20R,0.250000X0.600000*%
%ADD21R,1.500000X1.500000*%
%ADD22R,3.000000X1.000000*%
%ADD23R,2.500000X1.500000*%
%ADD24R,0.800000X0.400000*%
%ADD25R,0.400000X0.800000*%
%ADD26FreePoly0,180.000000*%
%ADD27R,1.200000X1.200000*%
%ADD28R,0.800000X0.800000*%
%ADD29R,1.230000X1.860000*%
%ADD30R,0.566000X0.540000*%
%ADD31FreePoly1,0.000000*%
%ADD32R,1.050000X0.200000*%
%ADD33FreePoly2,0.000000*%
%ADD34FreePoly3,0.000000*%
%ADD35R,0.200000X0.700000*%
G04 APERTURE END LIST*
D10*
X182750000Y-108750000D03*
X182750000Y-107890000D03*
D11*
X161500000Y-146050000D03*
X161500000Y-147450000D03*
D12*
X115250000Y-106250000D03*
X115250000Y-107090000D03*
D13*
X171000000Y-93300000D03*
X169000000Y-138700000D03*
D14*
X87500000Y-22500000D03*
D13*
X149700000Y-158000000D03*
X150500000Y-74000000D03*
D15*
X119100000Y-110500000D03*
X119802944Y-108802944D03*
X119802944Y-112197056D03*
X121500000Y-108100000D03*
D16*
X121500000Y-110500000D03*
D15*
X121500000Y-112900000D03*
X123197056Y-108802944D03*
X123197056Y-112197056D03*
X123900000Y-110500000D03*
D14*
X87500000Y-166500000D03*
D17*
X203342098Y-44040952D03*
X196250001Y-38500000D03*
D18*
X197788928Y-46681944D03*
X195030892Y-44527126D03*
D12*
X150000000Y-136750000D03*
X150000000Y-135910000D03*
D11*
X118500000Y-103050000D03*
X118500000Y-104450000D03*
D13*
X171000000Y-95700000D03*
D10*
X142750000Y-50000000D03*
X142750000Y-49140000D03*
D13*
X148100000Y-158000000D03*
X193500000Y-117000000D03*
X128000000Y-92500000D03*
X169000000Y-96500000D03*
D10*
X98500000Y-50110000D03*
X98500000Y-49250000D03*
D13*
X126000000Y-49500000D03*
X105900000Y-115000000D03*
D15*
X162100000Y-78500000D03*
X162802944Y-76802944D03*
X162802944Y-80197056D03*
X164500000Y-76100000D03*
D16*
X164500000Y-78500000D03*
D15*
X164500000Y-80900000D03*
X166197056Y-76802944D03*
X166197056Y-80197056D03*
X166900000Y-78500000D03*
X173100000Y-121500000D03*
X173802944Y-119802944D03*
X173802944Y-123197056D03*
X175500000Y-119100000D03*
D16*
X175500000Y-121500000D03*
D15*
X175500000Y-123900000D03*
X177197056Y-119802944D03*
X177197056Y-123197056D03*
X177900000Y-121500000D03*
D12*
X157000000Y-63250000D03*
X157000000Y-64090000D03*
D10*
X176750000Y-44610000D03*
X176750000Y-43750000D03*
D13*
X148900000Y-115000000D03*
X107500000Y-158000000D03*
X171000000Y-92500000D03*
D19*
X144000000Y-91500000D03*
X144000000Y-92000000D03*
X144000000Y-92500000D03*
X144000000Y-93000000D03*
D20*
X144750000Y-93750000D03*
X145250000Y-93750000D03*
X145750000Y-93750000D03*
X146250000Y-93750000D03*
D19*
X147000000Y-93000000D03*
X147000000Y-92500000D03*
X147000000Y-92000000D03*
X147000000Y-91500000D03*
D20*
X146250000Y-90750000D03*
X145750000Y-90750000D03*
X145250000Y-90750000D03*
X144750000Y-90750000D03*
D21*
X145500000Y-92250000D03*
D13*
X128000000Y-95700000D03*
X106700000Y-74000000D03*
D12*
X200000000Y-106250000D03*
X200000000Y-107090000D03*
D13*
X169000000Y-93300000D03*
X126000000Y-139500000D03*
D22*
X133347500Y-142239999D03*
X133347500Y-140240000D03*
X133347499Y-138240000D03*
X133347499Y-136240001D03*
X133347500Y-134239999D03*
X133347499Y-132240001D03*
D23*
X137047500Y-145000000D03*
X137047500Y-129500000D03*
D24*
X155499999Y-107950000D03*
X155500000Y-107099998D03*
X155500000Y-106250000D03*
X155499999Y-105400001D03*
X155500000Y-104550000D03*
X155500002Y-103700000D03*
X155500000Y-102850002D03*
X155500000Y-102000001D03*
X155499999Y-101150001D03*
X155500000Y-100300000D03*
X155499999Y-99450000D03*
X155500001Y-98600000D03*
X155499999Y-97750000D03*
X155499999Y-96900000D03*
X155500000Y-96050000D03*
D25*
X154450000Y-95000001D03*
X153599998Y-95000000D03*
X152750000Y-95000000D03*
X151900001Y-95000001D03*
X151050000Y-95000000D03*
X150200000Y-94999998D03*
X149350002Y-95000000D03*
X148500001Y-95000000D03*
X147650001Y-95000001D03*
X146800000Y-95000000D03*
X145950000Y-95000001D03*
X145100000Y-94999999D03*
X144250000Y-95000001D03*
X143400000Y-95000001D03*
X142550000Y-95000000D03*
D24*
X141500001Y-96050000D03*
X141500000Y-96900002D03*
X141500000Y-97750000D03*
X141500001Y-98599999D03*
X141500000Y-99450000D03*
X141499998Y-100300000D03*
X141500000Y-101149998D03*
X141500000Y-101999999D03*
X141500001Y-102849999D03*
X141500000Y-103700000D03*
X141500001Y-104550000D03*
X141499999Y-105400000D03*
X141500001Y-106250000D03*
X141500001Y-107100000D03*
X141500000Y-107950000D03*
D25*
X142550000Y-108999999D03*
X143400002Y-109000000D03*
X144250000Y-109000000D03*
X145099999Y-108999999D03*
X145950000Y-109000000D03*
X146800000Y-109000002D03*
X147649998Y-109000000D03*
X148499999Y-109000000D03*
X149349999Y-108999999D03*
X150200000Y-109000000D03*
X151050000Y-108999999D03*
X151900000Y-109000001D03*
X152750000Y-108999999D03*
X153600000Y-108999999D03*
X154450000Y-109000000D03*
D26*
X150150000Y-103650000D03*
D27*
X150150000Y-102000000D03*
X150150000Y-100350000D03*
X148500000Y-103650000D03*
X148500000Y-102000000D03*
X148500000Y-100350000D03*
X146850000Y-103650000D03*
X146850000Y-102000000D03*
X146850000Y-100350000D03*
D28*
X155500000Y-109000000D03*
X155500000Y-95000000D03*
X141500000Y-95000000D03*
X141500000Y-109000000D03*
D13*
X147300000Y-158000000D03*
X107500000Y-31000000D03*
X107500000Y-115000000D03*
X105100000Y-117000000D03*
D14*
X90000000Y-23500000D03*
D13*
X192700000Y-158000000D03*
X189500000Y-117000000D03*
X104300000Y-31000000D03*
D29*
X202320000Y-143000000D03*
X206680000Y-143000000D03*
D13*
X105900000Y-31000000D03*
D30*
X135390000Y-84500000D03*
X136250000Y-84500000D03*
D10*
X176750000Y-130610000D03*
X176750000Y-129750000D03*
D13*
X148900000Y-72000000D03*
X147300000Y-72000000D03*
D12*
X149000000Y-50750000D03*
X149000000Y-49910000D03*
D11*
X161500000Y-103050000D03*
X161500000Y-104450000D03*
D24*
X112499999Y-150950000D03*
X112500000Y-150099998D03*
X112500000Y-149250000D03*
X112499999Y-148400001D03*
X112500000Y-147550000D03*
X112500002Y-146700000D03*
X112500000Y-145850002D03*
X112500000Y-145000001D03*
X112499999Y-144150001D03*
X112500000Y-143300000D03*
X112499999Y-142450000D03*
X112500001Y-141600000D03*
X112499999Y-140750000D03*
X112499999Y-139900000D03*
X112500000Y-139050000D03*
D25*
X111450000Y-138000001D03*
X110599998Y-138000000D03*
X109750000Y-138000000D03*
X108900001Y-138000001D03*
X108050000Y-138000000D03*
X107200000Y-137999998D03*
X106350002Y-138000000D03*
X105500001Y-138000000D03*
X104650001Y-138000001D03*
X103800000Y-138000000D03*
X102950000Y-138000001D03*
X102100000Y-137999999D03*
X101250000Y-138000001D03*
X100400000Y-138000001D03*
X99550000Y-138000000D03*
D24*
X98500001Y-139050000D03*
X98500000Y-139900002D03*
X98500000Y-140750000D03*
X98500001Y-141599999D03*
X98500000Y-142450000D03*
X98499998Y-143300000D03*
X98500000Y-144149998D03*
X98500000Y-144999999D03*
X98500001Y-145849999D03*
X98500000Y-146700000D03*
X98500001Y-147550000D03*
X98499999Y-148400000D03*
X98500001Y-149250000D03*
X98500001Y-150100000D03*
X98500000Y-150950000D03*
D25*
X99550000Y-151999999D03*
X100400002Y-152000000D03*
X101250000Y-152000000D03*
X102099999Y-151999999D03*
X102950000Y-152000000D03*
X103800000Y-152000002D03*
X104649998Y-152000000D03*
X105499999Y-152000000D03*
X106349999Y-151999999D03*
X107200000Y-152000000D03*
X108050000Y-151999999D03*
X108900000Y-152000001D03*
X109750000Y-151999999D03*
X110600000Y-151999999D03*
X111450000Y-152000000D03*
D26*
X107150000Y-146650000D03*
D27*
X107150000Y-145000000D03*
X107150000Y-143350000D03*
X105500000Y-146650000D03*
X105500000Y-145000000D03*
X105500000Y-143350000D03*
X103850000Y-146650000D03*
X103850000Y-145000000D03*
X103850000Y-143350000D03*
D28*
X112500000Y-152000000D03*
X112500000Y-138000000D03*
X98500000Y-138000000D03*
X98500000Y-152000000D03*
D19*
X187000000Y-134500000D03*
X187000000Y-135000000D03*
X187000000Y-135500000D03*
X187000000Y-136000000D03*
D20*
X187750000Y-136750000D03*
X188250000Y-136750000D03*
X188750000Y-136750000D03*
X189250000Y-136750000D03*
D19*
X190000000Y-136000000D03*
X190000000Y-135500000D03*
X190000000Y-135000000D03*
X190000000Y-134500000D03*
D20*
X189250000Y-133750000D03*
X188750000Y-133750000D03*
X188250000Y-133750000D03*
X187750000Y-133750000D03*
D21*
X188500000Y-135250000D03*
D12*
X107000000Y-136750000D03*
X107000000Y-135910000D03*
D10*
X184500000Y-93110000D03*
X184500000Y-92250000D03*
D13*
X171000000Y-137900000D03*
D10*
X96750000Y-151750000D03*
X96750000Y-150890000D03*
D13*
X128000000Y-94900000D03*
D15*
X87100000Y-35500000D03*
X87802944Y-33802944D03*
X87802944Y-37197056D03*
X89500000Y-33100000D03*
D16*
X89500000Y-35500000D03*
D15*
X89500000Y-37900000D03*
X91197056Y-33802944D03*
X91197056Y-37197056D03*
X91900000Y-35500000D03*
D30*
X178390000Y-127500000D03*
X179250000Y-127500000D03*
D13*
X128000000Y-51100000D03*
X169000000Y-94100000D03*
D12*
X106000000Y-136750000D03*
X106000000Y-135910000D03*
D11*
X204500000Y-103050000D03*
X204500000Y-104450000D03*
D19*
X187000000Y-48500000D03*
X187000000Y-49000000D03*
X187000000Y-49500000D03*
X187000000Y-50000000D03*
D20*
X187750000Y-50750000D03*
X188250000Y-50750000D03*
X188750000Y-50750000D03*
X189250000Y-50750000D03*
D19*
X190000000Y-50000000D03*
X190000000Y-49500000D03*
X190000000Y-49000000D03*
X190000000Y-48500000D03*
D20*
X189250000Y-47750000D03*
X188750000Y-47750000D03*
X188250000Y-47750000D03*
X187750000Y-47750000D03*
D21*
X188500000Y-49250000D03*
D13*
X189500000Y-31000000D03*
X171000000Y-50300000D03*
X146500000Y-158000000D03*
X106700000Y-72000000D03*
X191100000Y-72000000D03*
X171000000Y-94100000D03*
D17*
X160342098Y-130040952D03*
X153250001Y-124500000D03*
D18*
X154788928Y-132681944D03*
X152030892Y-130527126D03*
D31*
X201050000Y-146250000D03*
D32*
X201020000Y-146650000D03*
D33*
X201000000Y-147620000D03*
D34*
X203100000Y-147620000D03*
D32*
X203080000Y-146650000D03*
X203080000Y-146250000D03*
D35*
X202650000Y-145500000D03*
X202250000Y-145500000D03*
X201850000Y-145500000D03*
X201450000Y-145500000D03*
D13*
X128000000Y-135500000D03*
X106700000Y-31000000D03*
X169000000Y-135500000D03*
D10*
X139750000Y-108750000D03*
X139750000Y-107890000D03*
D13*
X148900000Y-117000000D03*
X146500000Y-72000000D03*
X171000000Y-135500000D03*
X146500000Y-74000000D03*
D12*
X201250000Y-106250000D03*
X201250000Y-107090000D03*
D13*
X148100000Y-115000000D03*
D24*
X198499999Y-107950000D03*
X198500000Y-107099998D03*
X198500000Y-106250000D03*
X198499999Y-105400001D03*
X198500000Y-104550000D03*
X198500002Y-103700000D03*
X198500000Y-102850002D03*
X198500000Y-102000001D03*
X198499999Y-101150001D03*
X198500000Y-100300000D03*
X198499999Y-99450000D03*
X198500001Y-98600000D03*
X198499999Y-97750000D03*
X198499999Y-96900000D03*
X198500000Y-96050000D03*
D25*
X197450000Y-95000001D03*
X196599998Y-95000000D03*
X195750000Y-95000000D03*
X194900001Y-95000001D03*
X194050000Y-95000000D03*
X193200000Y-94999998D03*
X192350002Y-95000000D03*
X191500001Y-95000000D03*
X190650001Y-95000001D03*
X189800000Y-95000000D03*
X188950000Y-95000001D03*
X188100000Y-94999999D03*
X187250000Y-95000001D03*
X186400000Y-95000001D03*
X185550000Y-95000000D03*
D24*
X184500001Y-96050000D03*
X184500000Y-96900002D03*
X184500000Y-97750000D03*
X184500001Y-98599999D03*
X184500000Y-99450000D03*
X184499998Y-100300000D03*
X184500000Y-101149998D03*
X184500000Y-101999999D03*
X184500001Y-102849999D03*
X184500000Y-103700000D03*
X184500001Y-104550000D03*
X184499999Y-105400000D03*
X184500001Y-106250000D03*
X184500001Y-107100000D03*
X184500000Y-107950000D03*
D25*
X185550000Y-108999999D03*
X186400002Y-109000000D03*
X187250000Y-109000000D03*
X188099999Y-108999999D03*
X188950000Y-109000000D03*
X189800000Y-109000002D03*
X190649998Y-109000000D03*
X191499999Y-109000000D03*
X192349999Y-108999999D03*
X193200000Y-109000000D03*
X194050000Y-108999999D03*
X194900000Y-109000001D03*
X195750000Y-108999999D03*
X196600000Y-108999999D03*
X197450000Y-109000000D03*
D26*
X193150000Y-103650000D03*
D27*
X193150000Y-102000000D03*
X193150000Y-100350000D03*
X191500000Y-103650000D03*
X191500000Y-102000000D03*
X191500000Y-100350000D03*
X189850000Y-103650000D03*
X189850000Y-102000000D03*
X189850000Y-100350000D03*
D28*
X198500000Y-109000000D03*
X198500000Y-95000000D03*
X184500000Y-95000000D03*
X184500000Y-109000000D03*
D15*
X173100000Y-78500000D03*
X173802944Y-76802944D03*
X173802944Y-80197056D03*
X175500000Y-76100000D03*
D16*
X175500000Y-78500000D03*
D15*
X175500000Y-80900000D03*
X177197056Y-76802944D03*
X177197056Y-80197056D03*
X177900000Y-78500000D03*
X87100000Y-78500000D03*
X87802944Y-76802944D03*
X87802944Y-80197056D03*
X89500000Y-76100000D03*
D16*
X89500000Y-78500000D03*
D15*
X89500000Y-80900000D03*
X91197056Y-76802944D03*
X91197056Y-80197056D03*
X91900000Y-78500000D03*
D17*
X160342098Y-44040952D03*
X153250001Y-38500000D03*
D18*
X154788928Y-46681944D03*
X152030892Y-44527126D03*
D12*
X193000000Y-93750000D03*
X193000000Y-92910000D03*
D13*
X126000000Y-136300000D03*
X171000000Y-139500000D03*
D24*
X112499999Y-107950000D03*
X112500000Y-107099998D03*
X112500000Y-106250000D03*
X112499999Y-105400001D03*
X112500000Y-104550000D03*
X112500002Y-103700000D03*
X112500000Y-102850002D03*
X112500000Y-102000001D03*
X112499999Y-101150001D03*
X112500000Y-100300000D03*
X112499999Y-99450000D03*
X112500001Y-98600000D03*
X112499999Y-97750000D03*
X112499999Y-96900000D03*
X112500000Y-96050000D03*
D25*
X111450000Y-95000001D03*
X110599998Y-95000000D03*
X109750000Y-95000000D03*
X108900001Y-95000001D03*
X108050000Y-95000000D03*
X107200000Y-94999998D03*
X106350002Y-95000000D03*
X105500001Y-95000000D03*
X104650001Y-95000001D03*
X103800000Y-95000000D03*
X102950000Y-95000001D03*
X102100000Y-94999999D03*
X101250000Y-95000001D03*
X100400000Y-95000001D03*
X99550000Y-95000000D03*
D24*
X98500001Y-96050000D03*
X98500000Y-96900002D03*
X98500000Y-97750000D03*
X98500001Y-98599999D03*
X98500000Y-99450000D03*
X98499998Y-100300000D03*
X98500000Y-101149998D03*
X98500000Y-101999999D03*
X98500001Y-102849999D03*
X98500000Y-103700000D03*
X98500001Y-104550000D03*
X98499999Y-105400000D03*
X98500001Y-106250000D03*
X98500001Y-107100000D03*
X98500000Y-107950000D03*
D25*
X99550000Y-108999999D03*
X100400002Y-109000000D03*
X101250000Y-109000000D03*
X102099999Y-108999999D03*
X102950000Y-109000000D03*
X103800000Y-109000002D03*
X104649998Y-109000000D03*
X105499999Y-109000000D03*
X106349999Y-108999999D03*
X107200000Y-109000000D03*
X108050000Y-108999999D03*
X108900000Y-109000001D03*
X109750000Y-108999999D03*
X110600000Y-108999999D03*
X111450000Y-109000000D03*
D26*
X107150000Y-103650000D03*
D27*
X107150000Y-102000000D03*
X107150000Y-100350000D03*
X105500000Y-103650000D03*
X105500000Y-102000000D03*
X105500000Y-100350000D03*
X103850000Y-103650000D03*
X103850000Y-102000000D03*
X103850000Y-100350000D03*
D28*
X112500000Y-109000000D03*
X112500000Y-95000000D03*
X98500000Y-95000000D03*
X98500000Y-109000000D03*
D29*
X139860000Y-147500000D03*
X135500000Y-147500000D03*
D24*
X112499999Y-64950000D03*
X112500000Y-64099998D03*
X112500000Y-63250000D03*
X112499999Y-62400001D03*
X112500000Y-61550000D03*
X112500002Y-60700000D03*
X112500000Y-59850002D03*
X112500000Y-59000001D03*
X112499999Y-58150001D03*
X112500000Y-57300000D03*
X112499999Y-56450000D03*
X112500001Y-55600000D03*
X112499999Y-54750000D03*
X112499999Y-53900000D03*
X112500000Y-53050000D03*
D25*
X111450000Y-52000001D03*
X110599998Y-52000000D03*
X109750000Y-52000000D03*
X108900001Y-52000001D03*
X108050000Y-52000000D03*
X107200000Y-51999998D03*
X106350002Y-52000000D03*
X105500001Y-52000000D03*
X104650001Y-52000001D03*
X103800000Y-52000000D03*
X102950000Y-52000001D03*
X102100000Y-51999999D03*
X101250000Y-52000001D03*
X100400000Y-52000001D03*
X99550000Y-52000000D03*
D24*
X98500001Y-53050000D03*
X98500000Y-53900002D03*
X98500000Y-54750000D03*
X98500001Y-55599999D03*
X98500000Y-56450000D03*
X98499998Y-57300000D03*
X98500000Y-58149998D03*
X98500000Y-58999999D03*
X98500001Y-59849999D03*
X98500000Y-60700000D03*
X98500001Y-61550000D03*
X98499999Y-62400000D03*
X98500001Y-63250000D03*
X98500001Y-64100000D03*
X98500000Y-64950000D03*
D25*
X99550000Y-65999999D03*
X100400002Y-66000000D03*
X101250000Y-66000000D03*
X102099999Y-65999999D03*
X102950000Y-66000000D03*
X103800000Y-66000002D03*
X104649998Y-66000000D03*
X105499999Y-66000000D03*
X106349999Y-65999999D03*
X107200000Y-66000000D03*
X108050000Y-65999999D03*
X108900000Y-66000001D03*
X109750000Y-65999999D03*
X110600000Y-65999999D03*
X111450000Y-66000000D03*
D26*
X107150000Y-60650000D03*
D27*
X107150000Y-59000000D03*
X107150000Y-57350000D03*
X105500000Y-60650000D03*
X105500000Y-59000000D03*
X105500000Y-57350000D03*
X103850000Y-60650000D03*
X103850000Y-59000000D03*
X103850000Y-57350000D03*
D28*
X112500000Y-66000000D03*
X112500000Y-52000000D03*
X98500000Y-52000000D03*
X98500000Y-66000000D03*
D13*
X126000000Y-95700000D03*
D12*
X201250000Y-149250000D03*
X201250000Y-150090000D03*
X158250000Y-149250000D03*
X158250000Y-150090000D03*
D17*
X203342098Y-87040952D03*
X196250001Y-81500000D03*
D18*
X197788928Y-89681944D03*
X195030892Y-87527126D03*
D13*
X169000000Y-136300000D03*
D15*
X205100000Y-78500000D03*
X205802944Y-76802944D03*
X205802944Y-80197056D03*
X207500000Y-76100000D03*
D16*
X207500000Y-78500000D03*
D15*
X207500000Y-80900000D03*
X209197056Y-76802944D03*
X209197056Y-80197056D03*
X209900000Y-78500000D03*
D13*
X105100000Y-158000000D03*
X105100000Y-72000000D03*
D31*
X201050000Y-103250000D03*
D32*
X201020000Y-103650000D03*
D33*
X201000000Y-104620000D03*
D34*
X203100000Y-104620000D03*
D32*
X203080000Y-103650000D03*
X203080000Y-103250000D03*
D35*
X202650000Y-102500000D03*
X202250000Y-102500000D03*
X201850000Y-102500000D03*
X201450000Y-102500000D03*
D13*
X105900000Y-72000000D03*
D12*
X115250000Y-63250000D03*
X115250000Y-64090000D03*
D13*
X126000000Y-93300000D03*
D12*
X157000000Y-106250000D03*
X157000000Y-107090000D03*
D13*
X150500000Y-115000000D03*
X171000000Y-52700000D03*
X126000000Y-53500000D03*
X103500000Y-72000000D03*
D30*
X178390000Y-84500000D03*
X179250000Y-84500000D03*
D13*
X147300000Y-117000000D03*
X171000000Y-51100000D03*
D12*
X106000000Y-93750000D03*
X106000000Y-92910000D03*
D15*
X130100000Y-35500000D03*
X130802944Y-33802944D03*
X130802944Y-37197056D03*
X132500000Y-33100000D03*
D16*
X132500000Y-35500000D03*
D15*
X132500000Y-37900000D03*
X134197056Y-33802944D03*
X134197056Y-37197056D03*
X134900000Y-35500000D03*
D13*
X190300000Y-115000000D03*
X126000000Y-52700000D03*
X193500000Y-72000000D03*
D10*
X185750000Y-50000000D03*
X185750000Y-49140000D03*
D15*
X119100000Y-121500000D03*
X119802944Y-119802944D03*
X119802944Y-123197056D03*
X121500000Y-119100000D03*
D16*
X121500000Y-121500000D03*
D15*
X121500000Y-123900000D03*
X123197056Y-119802944D03*
X123197056Y-123197056D03*
X123900000Y-121500000D03*
D30*
X92390000Y-41500000D03*
X93250000Y-41500000D03*
D12*
X192000000Y-50750000D03*
X192000000Y-49910000D03*
D13*
X148900000Y-31000000D03*
X105900000Y-74000000D03*
X105900000Y-117000000D03*
D22*
X176347500Y-99239999D03*
X176347500Y-97240000D03*
X176347499Y-95240000D03*
X176347499Y-93240001D03*
X176347500Y-91239999D03*
X176347499Y-89240001D03*
D23*
X180047500Y-102000000D03*
X180047500Y-86500000D03*
D13*
X148900000Y-74000000D03*
X150500000Y-117000000D03*
X149700000Y-72000000D03*
D29*
X96860000Y-61500000D03*
X92500000Y-61500000D03*
D10*
X90750000Y-44610000D03*
X90750000Y-43750000D03*
D13*
X107500000Y-117000000D03*
D12*
X200000000Y-149250000D03*
X200000000Y-150090000D03*
D15*
X130100000Y-78500000D03*
X130802944Y-76802944D03*
X130802944Y-80197056D03*
X132500000Y-76100000D03*
D16*
X132500000Y-78500000D03*
D15*
X132500000Y-80900000D03*
X134197056Y-76802944D03*
X134197056Y-80197056D03*
X134900000Y-78500000D03*
D13*
X146500000Y-31000000D03*
X128000000Y-139500000D03*
D12*
X114000000Y-106250000D03*
X114000000Y-107090000D03*
D15*
X130100000Y-110500000D03*
X130802944Y-108802944D03*
X130802944Y-112197056D03*
X132500000Y-108100000D03*
D16*
X132500000Y-110500000D03*
D15*
X132500000Y-112900000D03*
X134197056Y-108802944D03*
X134197056Y-112197056D03*
X134900000Y-110500000D03*
X130100000Y-67500000D03*
X130802944Y-65802944D03*
X130802944Y-69197056D03*
X132500000Y-65100000D03*
D16*
X132500000Y-67500000D03*
D15*
X132500000Y-69900000D03*
X134197056Y-65802944D03*
X134197056Y-69197056D03*
X134900000Y-67500000D03*
D22*
X90347500Y-99239999D03*
X90347500Y-97240000D03*
X90347499Y-95240000D03*
X90347499Y-93240001D03*
X90347500Y-91239999D03*
X90347499Y-89240001D03*
D23*
X94047500Y-102000000D03*
X94047500Y-86500000D03*
D12*
X114000000Y-149250000D03*
X114000000Y-150090000D03*
D13*
X105100000Y-115000000D03*
D29*
X139860000Y-61500000D03*
X135500000Y-61500000D03*
D13*
X148100000Y-117000000D03*
X189500000Y-74000000D03*
D22*
X176347500Y-56239999D03*
X176347500Y-54240000D03*
X176347499Y-52240000D03*
X176347499Y-50240001D03*
X176347500Y-48239999D03*
X176347499Y-46240001D03*
D23*
X180047500Y-59000000D03*
X180047500Y-43500000D03*
D31*
X158050000Y-103250000D03*
D32*
X158020000Y-103650000D03*
D33*
X158000000Y-104620000D03*
D34*
X160100000Y-104620000D03*
D32*
X160080000Y-103650000D03*
X160080000Y-103250000D03*
D35*
X159650000Y-102500000D03*
X159250000Y-102500000D03*
X158850000Y-102500000D03*
X158450000Y-102500000D03*
D12*
X107000000Y-93750000D03*
X107000000Y-92910000D03*
D11*
X204500000Y-146050000D03*
X204500000Y-147450000D03*
D13*
X190300000Y-158000000D03*
D31*
X115050000Y-103250000D03*
D32*
X115020000Y-103650000D03*
D33*
X115000000Y-104620000D03*
D34*
X117100000Y-104620000D03*
D32*
X117080000Y-103650000D03*
X117080000Y-103250000D03*
D35*
X116650000Y-102500000D03*
X116250000Y-102500000D03*
X115850000Y-102500000D03*
X115450000Y-102500000D03*
D22*
X90347500Y-56239999D03*
X90347500Y-54240000D03*
X90347499Y-52240000D03*
X90347499Y-50240001D03*
X90347500Y-48239999D03*
X90347499Y-46240001D03*
D23*
X94047500Y-59000000D03*
X94047500Y-43500000D03*
D13*
X126000000Y-51100000D03*
X169000000Y-139500000D03*
D10*
X99750000Y-93000000D03*
X99750000Y-92140000D03*
X141500000Y-93110000D03*
X141500000Y-92250000D03*
D22*
X176347500Y-142239999D03*
X176347500Y-140240000D03*
X176347499Y-138240000D03*
X176347499Y-136240001D03*
X176347500Y-134239999D03*
X176347499Y-132240001D03*
D23*
X180047500Y-145000000D03*
X180047500Y-129500000D03*
D12*
X158250000Y-63250000D03*
X158250000Y-64090000D03*
D13*
X146500000Y-115000000D03*
X104300000Y-74000000D03*
X169000000Y-51100000D03*
X171000000Y-49500000D03*
X147300000Y-115000000D03*
X150500000Y-158000000D03*
D10*
X141500000Y-50110000D03*
X141500000Y-49250000D03*
X99750000Y-50000000D03*
X99750000Y-49140000D03*
D13*
X126000000Y-138700000D03*
D29*
X182860000Y-147500000D03*
X178500000Y-147500000D03*
X139860000Y-104500000D03*
X135500000Y-104500000D03*
D13*
X126000000Y-96500000D03*
X171000000Y-138700000D03*
X126000000Y-92500000D03*
X190300000Y-117000000D03*
X191100000Y-115000000D03*
X148900000Y-158000000D03*
X128000000Y-53500000D03*
D11*
X161500000Y-60050000D03*
X161500000Y-61450000D03*
D13*
X189500000Y-115000000D03*
D10*
X182750000Y-65750000D03*
X182750000Y-64890000D03*
D13*
X191900000Y-74000000D03*
X169000000Y-94900000D03*
X104300000Y-72000000D03*
D22*
X90347500Y-142239999D03*
X90347500Y-140240000D03*
X90347499Y-138240000D03*
X90347499Y-136240001D03*
X90347500Y-134239999D03*
X90347499Y-132240001D03*
D23*
X94047500Y-145000000D03*
X94047500Y-129500000D03*
D13*
X128000000Y-51900000D03*
D12*
X114000000Y-63250000D03*
X114000000Y-64090000D03*
D13*
X150500000Y-31000000D03*
D15*
X173100000Y-153500000D03*
X173802944Y-151802944D03*
X173802944Y-155197056D03*
X175500000Y-151100000D03*
D16*
X175500000Y-153500000D03*
D15*
X175500000Y-155900000D03*
X177197056Y-151802944D03*
X177197056Y-155197056D03*
X177900000Y-153500000D03*
D13*
X191100000Y-31000000D03*
X171000000Y-94900000D03*
X103500000Y-31000000D03*
X171000000Y-136300000D03*
X104300000Y-158000000D03*
D15*
X119100000Y-78500000D03*
X119802944Y-76802944D03*
X119802944Y-80197056D03*
X121500000Y-76100000D03*
D16*
X121500000Y-78500000D03*
D15*
X121500000Y-80900000D03*
X123197056Y-76802944D03*
X123197056Y-80197056D03*
X123900000Y-78500000D03*
D13*
X150500000Y-72000000D03*
X191100000Y-117000000D03*
D19*
X101000000Y-48500000D03*
X101000000Y-49000000D03*
X101000000Y-49500000D03*
X101000000Y-50000000D03*
D20*
X101750000Y-50750000D03*
X102250000Y-50750000D03*
X102750000Y-50750000D03*
X103250000Y-50750000D03*
D19*
X104000000Y-50000000D03*
X104000000Y-49500000D03*
X104000000Y-49000000D03*
X104000000Y-48500000D03*
D20*
X103250000Y-47750000D03*
X102750000Y-47750000D03*
X102250000Y-47750000D03*
X101750000Y-47750000D03*
D21*
X102500000Y-49250000D03*
D13*
X171000000Y-137100000D03*
D30*
X135390000Y-41500000D03*
X136250000Y-41500000D03*
D31*
X158050000Y-60250000D03*
D32*
X158020000Y-60650000D03*
D33*
X158000000Y-61620000D03*
D34*
X160100000Y-61620000D03*
D32*
X160080000Y-60650000D03*
X160080000Y-60250000D03*
D35*
X159650000Y-59500000D03*
X159250000Y-59500000D03*
X158850000Y-59500000D03*
X158450000Y-59500000D03*
D12*
X106000000Y-50750000D03*
X106000000Y-49910000D03*
D13*
X193500000Y-115000000D03*
D12*
X150000000Y-50750000D03*
X150000000Y-49910000D03*
D13*
X169000000Y-49500000D03*
D15*
X119100000Y-67500000D03*
X119802944Y-65802944D03*
X119802944Y-69197056D03*
X121500000Y-65100000D03*
D16*
X121500000Y-67500000D03*
D15*
X121500000Y-69900000D03*
X123197056Y-65802944D03*
X123197056Y-69197056D03*
X123900000Y-67500000D03*
D10*
X98500000Y-136110000D03*
X98500000Y-135250000D03*
D19*
X101000000Y-91500000D03*
X101000000Y-92000000D03*
X101000000Y-92500000D03*
X101000000Y-93000000D03*
D20*
X101750000Y-93750000D03*
X102250000Y-93750000D03*
X102750000Y-93750000D03*
X103250000Y-93750000D03*
D19*
X104000000Y-93000000D03*
X104000000Y-92500000D03*
X104000000Y-92000000D03*
X104000000Y-91500000D03*
D20*
X103250000Y-90750000D03*
X102750000Y-90750000D03*
X102250000Y-90750000D03*
X101750000Y-90750000D03*
D21*
X102500000Y-92250000D03*
D15*
X205100000Y-153500000D03*
X205802944Y-151802944D03*
X205802944Y-155197056D03*
X207500000Y-151100000D03*
D16*
X207500000Y-153500000D03*
D15*
X207500000Y-155900000D03*
X209197056Y-151802944D03*
X209197056Y-155197056D03*
X209900000Y-153500000D03*
D10*
X185750000Y-93000000D03*
X185750000Y-92140000D03*
D13*
X107500000Y-72000000D03*
D19*
X101000000Y-134500000D03*
X101000000Y-135000000D03*
X101000000Y-135500000D03*
X101000000Y-136000000D03*
D20*
X101750000Y-136750000D03*
X102250000Y-136750000D03*
X102750000Y-136750000D03*
X103250000Y-136750000D03*
D19*
X104000000Y-136000000D03*
X104000000Y-135500000D03*
X104000000Y-135000000D03*
X104000000Y-134500000D03*
D20*
X103250000Y-133750000D03*
X102750000Y-133750000D03*
X102250000Y-133750000D03*
X101750000Y-133750000D03*
D21*
X102500000Y-135250000D03*
D15*
X162100000Y-153500000D03*
X162802944Y-151802944D03*
X162802944Y-155197056D03*
X164500000Y-151100000D03*
D16*
X164500000Y-153500000D03*
D15*
X164500000Y-155900000D03*
X166197056Y-151802944D03*
X166197056Y-155197056D03*
X166900000Y-153500000D03*
D29*
X116320000Y-143000000D03*
X120680000Y-143000000D03*
D13*
X191900000Y-115000000D03*
D10*
X141500000Y-136110000D03*
X141500000Y-135250000D03*
D13*
X148100000Y-72000000D03*
D10*
X184500000Y-136110000D03*
X184500000Y-135250000D03*
D17*
X203342098Y-130040952D03*
X196250001Y-124500000D03*
D18*
X197788928Y-132681944D03*
X195030892Y-130527126D03*
D15*
X205100000Y-35500000D03*
X205802944Y-33802944D03*
X205802944Y-37197056D03*
X207500000Y-33100000D03*
D16*
X207500000Y-35500000D03*
D15*
X207500000Y-37900000D03*
X209197056Y-33802944D03*
X209197056Y-37197056D03*
X209900000Y-35500000D03*
D13*
X103500000Y-117000000D03*
D12*
X150000000Y-93750000D03*
X150000000Y-92910000D03*
D13*
X193500000Y-74000000D03*
X128000000Y-49500000D03*
D14*
X90000000Y-165500000D03*
D13*
X193500000Y-158000000D03*
D19*
X187000000Y-91500000D03*
X187000000Y-92000000D03*
X187000000Y-92500000D03*
X187000000Y-93000000D03*
D20*
X187750000Y-93750000D03*
X188250000Y-93750000D03*
X188750000Y-93750000D03*
X189250000Y-93750000D03*
D19*
X190000000Y-93000000D03*
X190000000Y-92500000D03*
X190000000Y-92000000D03*
X190000000Y-91500000D03*
D20*
X189250000Y-90750000D03*
X188750000Y-90750000D03*
X188250000Y-90750000D03*
X187750000Y-90750000D03*
D21*
X188500000Y-92250000D03*
D17*
X117342098Y-130040952D03*
X110250001Y-124500000D03*
D18*
X111788928Y-132681944D03*
X109030892Y-130527126D03*
D13*
X128000000Y-136300000D03*
D29*
X116320000Y-100000000D03*
X120680000Y-100000000D03*
D13*
X126000000Y-94100000D03*
D12*
X149000000Y-136750000D03*
X149000000Y-135910000D03*
D10*
X98500000Y-93110000D03*
X98500000Y-92250000D03*
D13*
X191900000Y-31000000D03*
X191900000Y-72000000D03*
D12*
X158250000Y-106250000D03*
X158250000Y-107090000D03*
D15*
X205100000Y-110500000D03*
X205802944Y-108802944D03*
X205802944Y-112197056D03*
X207500000Y-108100000D03*
D16*
X207500000Y-110500000D03*
D15*
X207500000Y-112900000D03*
X209197056Y-108802944D03*
X209197056Y-112197056D03*
X209900000Y-110500000D03*
X162100000Y-110500000D03*
X162802944Y-108802944D03*
X162802944Y-112197056D03*
X164500000Y-108100000D03*
D16*
X164500000Y-110500000D03*
D15*
X164500000Y-112900000D03*
X166197056Y-108802944D03*
X166197056Y-112197056D03*
X166900000Y-110500000D03*
D10*
X133750000Y-44610000D03*
X133750000Y-43750000D03*
D13*
X128000000Y-96500000D03*
D15*
X87100000Y-67500000D03*
X87802944Y-65802944D03*
X87802944Y-69197056D03*
X89500000Y-65100000D03*
D16*
X89500000Y-67500000D03*
D15*
X89500000Y-69900000D03*
X91197056Y-65802944D03*
X91197056Y-69197056D03*
X91900000Y-67500000D03*
D10*
X90750000Y-87610000D03*
X90750000Y-86750000D03*
D15*
X205100000Y-67500000D03*
X205802944Y-65802944D03*
X205802944Y-69197056D03*
X207500000Y-65100000D03*
D16*
X207500000Y-67500000D03*
D15*
X207500000Y-69900000D03*
X209197056Y-65802944D03*
X209197056Y-69197056D03*
X209900000Y-67500000D03*
X119100000Y-153500000D03*
X119802944Y-151802944D03*
X119802944Y-155197056D03*
X121500000Y-151100000D03*
D16*
X121500000Y-153500000D03*
D15*
X121500000Y-155900000D03*
X123197056Y-151802944D03*
X123197056Y-155197056D03*
X123900000Y-153500000D03*
D19*
X144000000Y-48500000D03*
X144000000Y-49000000D03*
X144000000Y-49500000D03*
X144000000Y-50000000D03*
D20*
X144750000Y-50750000D03*
X145250000Y-50750000D03*
X145750000Y-50750000D03*
X146250000Y-50750000D03*
D19*
X147000000Y-50000000D03*
X147000000Y-49500000D03*
X147000000Y-49000000D03*
X147000000Y-48500000D03*
D20*
X146250000Y-47750000D03*
X145750000Y-47750000D03*
X145250000Y-47750000D03*
X144750000Y-47750000D03*
D21*
X145500000Y-49250000D03*
D31*
X115050000Y-146250000D03*
D32*
X115020000Y-146650000D03*
D33*
X115000000Y-147620000D03*
D34*
X117100000Y-147620000D03*
D32*
X117080000Y-146650000D03*
X117080000Y-146250000D03*
D35*
X116650000Y-145500000D03*
X116250000Y-145500000D03*
X115850000Y-145500000D03*
X115450000Y-145500000D03*
D30*
X178390000Y-41500000D03*
X179250000Y-41500000D03*
D12*
X107000000Y-50750000D03*
X107000000Y-49910000D03*
D13*
X128000000Y-52700000D03*
X105100000Y-31000000D03*
D15*
X162100000Y-35500000D03*
X162802944Y-33802944D03*
X162802944Y-37197056D03*
X164500000Y-33100000D03*
D16*
X164500000Y-35500000D03*
D15*
X164500000Y-37900000D03*
X166197056Y-33802944D03*
X166197056Y-37197056D03*
X166900000Y-35500000D03*
D13*
X192700000Y-117000000D03*
X190300000Y-74000000D03*
X103500000Y-158000000D03*
X106700000Y-158000000D03*
D10*
X139750000Y-151750000D03*
X139750000Y-150890000D03*
D13*
X149700000Y-117000000D03*
D30*
X135390000Y-127500000D03*
X136250000Y-127500000D03*
D13*
X103500000Y-74000000D03*
D15*
X173100000Y-35500000D03*
X173802944Y-33802944D03*
X173802944Y-37197056D03*
X175500000Y-33100000D03*
D16*
X175500000Y-35500000D03*
D15*
X175500000Y-37900000D03*
X177197056Y-33802944D03*
X177197056Y-37197056D03*
X177900000Y-35500000D03*
D10*
X96750000Y-108750000D03*
X96750000Y-107890000D03*
D15*
X162100000Y-67500000D03*
X162802944Y-65802944D03*
X162802944Y-69197056D03*
X164500000Y-65100000D03*
D16*
X164500000Y-67500000D03*
D15*
X164500000Y-69900000D03*
X166197056Y-65802944D03*
X166197056Y-69197056D03*
X166900000Y-67500000D03*
D10*
X139750000Y-65750000D03*
X139750000Y-64890000D03*
D13*
X128000000Y-94100000D03*
X190300000Y-72000000D03*
D15*
X205100000Y-121500000D03*
X205802944Y-119802944D03*
X205802944Y-123197056D03*
X207500000Y-119100000D03*
D16*
X207500000Y-121500000D03*
D15*
X207500000Y-123900000D03*
X209197056Y-119802944D03*
X209197056Y-123197056D03*
X209900000Y-121500000D03*
X162100000Y-121500000D03*
X162802944Y-119802944D03*
X162802944Y-123197056D03*
X164500000Y-119100000D03*
D16*
X164500000Y-121500000D03*
D15*
X164500000Y-123900000D03*
X166197056Y-119802944D03*
X166197056Y-123197056D03*
X166900000Y-121500000D03*
D13*
X171000000Y-96500000D03*
D14*
X209500000Y-22500000D03*
D13*
X192700000Y-31000000D03*
X104300000Y-115000000D03*
X149700000Y-115000000D03*
X148100000Y-31000000D03*
D22*
X133347500Y-99239999D03*
X133347500Y-97240000D03*
X133347499Y-95240000D03*
X133347499Y-93240001D03*
X133347500Y-91239999D03*
X133347499Y-89240001D03*
D23*
X137047500Y-102000000D03*
X137047500Y-86500000D03*
D15*
X87100000Y-121500000D03*
X87802944Y-119802944D03*
X87802944Y-123197056D03*
X89500000Y-119100000D03*
D16*
X89500000Y-121500000D03*
D15*
X89500000Y-123900000D03*
X91197056Y-119802944D03*
X91197056Y-123197056D03*
X91900000Y-121500000D03*
D13*
X106700000Y-117000000D03*
X146500000Y-117000000D03*
X106700000Y-115000000D03*
D29*
X202320000Y-100000000D03*
X206680000Y-100000000D03*
D13*
X169000000Y-50300000D03*
D10*
X99750000Y-136000000D03*
X99750000Y-135140000D03*
D13*
X189500000Y-158000000D03*
D22*
X133347500Y-56239999D03*
X133347500Y-54240000D03*
X133347499Y-52240000D03*
X133347499Y-50240001D03*
X133347500Y-48239999D03*
X133347499Y-46240001D03*
D23*
X137047500Y-59000000D03*
X137047500Y-43500000D03*
D13*
X149700000Y-74000000D03*
X193500000Y-31000000D03*
D15*
X119100000Y-35500000D03*
X119802944Y-33802944D03*
X119802944Y-37197056D03*
X121500000Y-33100000D03*
D16*
X121500000Y-35500000D03*
D15*
X121500000Y-37900000D03*
X123197056Y-33802944D03*
X123197056Y-37197056D03*
X123900000Y-35500000D03*
D19*
X144000000Y-134500000D03*
X144000000Y-135000000D03*
X144000000Y-135500000D03*
X144000000Y-136000000D03*
D20*
X144750000Y-136750000D03*
X145250000Y-136750000D03*
X145750000Y-136750000D03*
X146250000Y-136750000D03*
D19*
X147000000Y-136000000D03*
X147000000Y-135500000D03*
X147000000Y-135000000D03*
X147000000Y-134500000D03*
D20*
X146250000Y-133750000D03*
X145750000Y-133750000D03*
X145250000Y-133750000D03*
X144750000Y-133750000D03*
D21*
X145500000Y-135250000D03*
D13*
X126000000Y-135500000D03*
D10*
X176750000Y-87610000D03*
X176750000Y-86750000D03*
D12*
X157000000Y-149250000D03*
X157000000Y-150090000D03*
D10*
X90750000Y-130610000D03*
X90750000Y-129750000D03*
D11*
X118500000Y-60050000D03*
X118500000Y-61450000D03*
D13*
X149700000Y-31000000D03*
D17*
X117342098Y-44040952D03*
X110250001Y-38500000D03*
D18*
X111788928Y-46681944D03*
X109030892Y-44527126D03*
D13*
X147300000Y-74000000D03*
D12*
X193000000Y-136750000D03*
X193000000Y-135910000D03*
X201250000Y-63250000D03*
X201250000Y-64090000D03*
D30*
X92390000Y-127500000D03*
X93250000Y-127500000D03*
D13*
X105900000Y-158000000D03*
D10*
X133750000Y-87610000D03*
X133750000Y-86750000D03*
D13*
X147300000Y-31000000D03*
D11*
X204500000Y-60050000D03*
X204500000Y-61450000D03*
D15*
X173100000Y-110500000D03*
X173802944Y-108802944D03*
X173802944Y-112197056D03*
X175500000Y-108100000D03*
D16*
X175500000Y-110500000D03*
D15*
X175500000Y-112900000D03*
X177197056Y-108802944D03*
X177197056Y-112197056D03*
X177900000Y-110500000D03*
D24*
X155499999Y-64950000D03*
X155500000Y-64099998D03*
X155500000Y-63250000D03*
X155499999Y-62400001D03*
X155500000Y-61550000D03*
X155500002Y-60700000D03*
X155500000Y-59850002D03*
X155500000Y-59000001D03*
X155499999Y-58150001D03*
X155500000Y-57300000D03*
X155499999Y-56450000D03*
X155500001Y-55600000D03*
X155499999Y-54750000D03*
X155499999Y-53900000D03*
X155500000Y-53050000D03*
D25*
X154450000Y-52000001D03*
X153599998Y-52000000D03*
X152750000Y-52000000D03*
X151900001Y-52000001D03*
X151050000Y-52000000D03*
X150200000Y-51999998D03*
X149350002Y-52000000D03*
X148500001Y-52000000D03*
X147650001Y-52000001D03*
X146800000Y-52000000D03*
X145950000Y-52000001D03*
X145100000Y-51999999D03*
X144250000Y-52000001D03*
X143400000Y-52000001D03*
X142550000Y-52000000D03*
D24*
X141500001Y-53050000D03*
X141500000Y-53900002D03*
X141500000Y-54750000D03*
X141500001Y-55599999D03*
X141500000Y-56450000D03*
X141499998Y-57300000D03*
X141500000Y-58149998D03*
X141500000Y-58999999D03*
X141500001Y-59849999D03*
X141500000Y-60700000D03*
X141500001Y-61550000D03*
X141499999Y-62400000D03*
X141500001Y-63250000D03*
X141500001Y-64100000D03*
X141500000Y-64950000D03*
D25*
X142550000Y-65999999D03*
X143400002Y-66000000D03*
X144250000Y-66000000D03*
X145099999Y-65999999D03*
X145950000Y-66000000D03*
X146800000Y-66000002D03*
X147649998Y-66000000D03*
X148499999Y-66000000D03*
X149349999Y-65999999D03*
X150200000Y-66000000D03*
X151050000Y-65999999D03*
X151900000Y-66000001D03*
X152750000Y-65999999D03*
X153600000Y-65999999D03*
X154450000Y-66000000D03*
D26*
X150150000Y-60650000D03*
D27*
X150150000Y-59000000D03*
X150150000Y-57350000D03*
X148500000Y-60650000D03*
X148500000Y-59000000D03*
X148500000Y-57350000D03*
X146850000Y-60650000D03*
X146850000Y-59000000D03*
X146850000Y-57350000D03*
D28*
X155500000Y-66000000D03*
X155500000Y-52000000D03*
X141500000Y-52000000D03*
X141500000Y-66000000D03*
D12*
X193000000Y-50750000D03*
X193000000Y-49910000D03*
D13*
X169000000Y-95700000D03*
X192700000Y-74000000D03*
X171000000Y-53500000D03*
X104300000Y-117000000D03*
X128000000Y-50300000D03*
X126000000Y-94900000D03*
X128000000Y-138700000D03*
D29*
X159320000Y-100000000D03*
X163680000Y-100000000D03*
D15*
X87100000Y-153500000D03*
X87802944Y-151802944D03*
X87802944Y-155197056D03*
X89500000Y-151100000D03*
D16*
X89500000Y-153500000D03*
D15*
X89500000Y-155900000D03*
X91197056Y-151802944D03*
X91197056Y-155197056D03*
X91900000Y-153500000D03*
D13*
X128000000Y-137900000D03*
D10*
X182750000Y-151750000D03*
X182750000Y-150890000D03*
D15*
X130100000Y-121500000D03*
X130802944Y-119802944D03*
X130802944Y-123197056D03*
X132500000Y-119100000D03*
D16*
X132500000Y-121500000D03*
D15*
X132500000Y-123900000D03*
X134197056Y-119802944D03*
X134197056Y-123197056D03*
X134900000Y-121500000D03*
X173100000Y-67500000D03*
X173802944Y-65802944D03*
X173802944Y-69197056D03*
X175500000Y-65100000D03*
D16*
X175500000Y-67500000D03*
D15*
X175500000Y-69900000D03*
X177197056Y-65802944D03*
X177197056Y-69197056D03*
X177900000Y-67500000D03*
D13*
X148100000Y-74000000D03*
X126000000Y-51900000D03*
D10*
X96750000Y-65750000D03*
X96750000Y-64890000D03*
D29*
X159320000Y-143000000D03*
X163680000Y-143000000D03*
D30*
X92390000Y-84500000D03*
X93250000Y-84500000D03*
D13*
X126000000Y-137900000D03*
D29*
X159320000Y-57000000D03*
X163680000Y-57000000D03*
D14*
X207000000Y-23500000D03*
D31*
X201050000Y-60250000D03*
D32*
X201020000Y-60650000D03*
D33*
X201000000Y-61620000D03*
D34*
X203100000Y-61620000D03*
D32*
X203080000Y-60650000D03*
X203080000Y-60250000D03*
D35*
X202650000Y-59500000D03*
X202250000Y-59500000D03*
X201850000Y-59500000D03*
X201450000Y-59500000D03*
D12*
X192000000Y-136750000D03*
X192000000Y-135910000D03*
D29*
X182860000Y-61500000D03*
X178500000Y-61500000D03*
D13*
X169000000Y-51900000D03*
X169000000Y-92500000D03*
X103500000Y-115000000D03*
X105100000Y-74000000D03*
D10*
X184500000Y-50110000D03*
X184500000Y-49250000D03*
D13*
X169000000Y-137900000D03*
X128000000Y-93300000D03*
X191900000Y-117000000D03*
D29*
X96860000Y-104500000D03*
X92500000Y-104500000D03*
D17*
X160342098Y-87040952D03*
X153250001Y-81500000D03*
D18*
X154788928Y-89681944D03*
X152030892Y-87527126D03*
D12*
X192000000Y-93750000D03*
X192000000Y-92910000D03*
D13*
X169000000Y-137100000D03*
D31*
X115050000Y-60250000D03*
D32*
X115020000Y-60650000D03*
D33*
X115000000Y-61620000D03*
D34*
X117100000Y-61620000D03*
D32*
X117080000Y-60650000D03*
X117080000Y-60250000D03*
D35*
X116650000Y-59500000D03*
X116250000Y-59500000D03*
X115850000Y-59500000D03*
X115450000Y-59500000D03*
D13*
X191900000Y-158000000D03*
D10*
X142750000Y-136000000D03*
X142750000Y-135140000D03*
D12*
X115250000Y-149250000D03*
X115250000Y-150090000D03*
D17*
X117342098Y-87040952D03*
X110250001Y-81500000D03*
D18*
X111788928Y-89681944D03*
X109030892Y-87527126D03*
D13*
X191100000Y-158000000D03*
X189500000Y-72000000D03*
X192700000Y-72000000D03*
D12*
X149000000Y-93750000D03*
X149000000Y-92910000D03*
D24*
X198499999Y-64950000D03*
X198500000Y-64099998D03*
X198500000Y-63250000D03*
X198499999Y-62400001D03*
X198500000Y-61550000D03*
X198500002Y-60700000D03*
X198500000Y-59850002D03*
X198500000Y-59000001D03*
X198499999Y-58150001D03*
X198500000Y-57300000D03*
X198499999Y-56450000D03*
X198500001Y-55600000D03*
X198499999Y-54750000D03*
X198499999Y-53900000D03*
X198500000Y-53050000D03*
D25*
X197450000Y-52000001D03*
X196599998Y-52000000D03*
X195750000Y-52000000D03*
X194900001Y-52000001D03*
X194050000Y-52000000D03*
X193200000Y-51999998D03*
X192350002Y-52000000D03*
X191500001Y-52000000D03*
X190650001Y-52000001D03*
X189800000Y-52000000D03*
X188950000Y-52000001D03*
X188100000Y-51999999D03*
X187250000Y-52000001D03*
X186400000Y-52000001D03*
X185550000Y-52000000D03*
D24*
X184500001Y-53050000D03*
X184500000Y-53900002D03*
X184500000Y-54750000D03*
X184500001Y-55599999D03*
X184500000Y-56450000D03*
X184499998Y-57300000D03*
X184500000Y-58149998D03*
X184500000Y-58999999D03*
X184500001Y-59849999D03*
X184500000Y-60700000D03*
X184500001Y-61550000D03*
X184499999Y-62400000D03*
X184500001Y-63250000D03*
X184500001Y-64100000D03*
X184500000Y-64950000D03*
D25*
X185550000Y-65999999D03*
X186400002Y-66000000D03*
X187250000Y-66000000D03*
X188099999Y-65999999D03*
X188950000Y-66000000D03*
X189800000Y-66000002D03*
X190649998Y-66000000D03*
X191499999Y-66000000D03*
X192349999Y-65999999D03*
X193200000Y-66000000D03*
X194050000Y-65999999D03*
X194900000Y-66000001D03*
X195750000Y-65999999D03*
X196600000Y-65999999D03*
X197450000Y-66000000D03*
D26*
X193150000Y-60650000D03*
D27*
X193150000Y-59000000D03*
X193150000Y-57350000D03*
X191500000Y-60650000D03*
X191500000Y-59000000D03*
X191500000Y-57350000D03*
X189850000Y-60650000D03*
X189850000Y-59000000D03*
X189850000Y-57350000D03*
D28*
X198500000Y-66000000D03*
X198500000Y-52000000D03*
X184500000Y-52000000D03*
X184500000Y-66000000D03*
D31*
X158050000Y-146250000D03*
D32*
X158020000Y-146650000D03*
D33*
X158000000Y-147620000D03*
D34*
X160100000Y-147620000D03*
D32*
X160080000Y-146650000D03*
X160080000Y-146250000D03*
D35*
X159650000Y-145500000D03*
X159250000Y-145500000D03*
X158850000Y-145500000D03*
X158450000Y-145500000D03*
D24*
X155499999Y-150950000D03*
X155500000Y-150099998D03*
X155500000Y-149250000D03*
X155499999Y-148400001D03*
X155500000Y-147550000D03*
X155500002Y-146700000D03*
X155500000Y-145850002D03*
X155500000Y-145000001D03*
X155499999Y-144150001D03*
X155500000Y-143300000D03*
X155499999Y-142450000D03*
X155500001Y-141600000D03*
X155499999Y-140750000D03*
X155499999Y-139900000D03*
X155500000Y-139050000D03*
D25*
X154450000Y-138000001D03*
X153599998Y-138000000D03*
X152750000Y-138000000D03*
X151900001Y-138000001D03*
X151050000Y-138000000D03*
X150200000Y-137999998D03*
X149350002Y-138000000D03*
X148500001Y-138000000D03*
X147650001Y-138000001D03*
X146800000Y-138000000D03*
X145950000Y-138000001D03*
X145100000Y-137999999D03*
X144250000Y-138000001D03*
X143400000Y-138000001D03*
X142550000Y-138000000D03*
D24*
X141500001Y-139050000D03*
X141500000Y-139900002D03*
X141500000Y-140750000D03*
X141500001Y-141599999D03*
X141500000Y-142450000D03*
X141499998Y-143300000D03*
X141500000Y-144149998D03*
X141500000Y-144999999D03*
X141500001Y-145849999D03*
X141500000Y-146700000D03*
X141500001Y-147550000D03*
X141499999Y-148400000D03*
X141500001Y-149250000D03*
X141500001Y-150100000D03*
X141500000Y-150950000D03*
D25*
X142550000Y-151999999D03*
X143400002Y-152000000D03*
X144250000Y-152000000D03*
X145099999Y-151999999D03*
X145950000Y-152000000D03*
X146800000Y-152000002D03*
X147649998Y-152000000D03*
X148499999Y-152000000D03*
X149349999Y-151999999D03*
X150200000Y-152000000D03*
X151050000Y-151999999D03*
X151900000Y-152000001D03*
X152750000Y-151999999D03*
X153600000Y-151999999D03*
X154450000Y-152000000D03*
D26*
X150150000Y-146650000D03*
D27*
X150150000Y-145000000D03*
X150150000Y-143350000D03*
X148500000Y-146650000D03*
X148500000Y-145000000D03*
X148500000Y-143350000D03*
X146850000Y-146650000D03*
X146850000Y-145000000D03*
X146850000Y-143350000D03*
D28*
X155500000Y-152000000D03*
X155500000Y-138000000D03*
X141500000Y-138000000D03*
X141500000Y-152000000D03*
D13*
X126000000Y-137100000D03*
D15*
X87100000Y-110500000D03*
X87802944Y-108802944D03*
X87802944Y-112197056D03*
X89500000Y-108100000D03*
D16*
X89500000Y-110500000D03*
D15*
X89500000Y-112900000D03*
X91197056Y-108802944D03*
X91197056Y-112197056D03*
X91900000Y-110500000D03*
X130100000Y-153500000D03*
X130802944Y-151802944D03*
X130802944Y-155197056D03*
X132500000Y-151100000D03*
D16*
X132500000Y-153500000D03*
D15*
X132500000Y-155900000D03*
X134197056Y-151802944D03*
X134197056Y-155197056D03*
X134900000Y-153500000D03*
D13*
X192700000Y-115000000D03*
X128000000Y-137100000D03*
X190300000Y-31000000D03*
X171000000Y-51900000D03*
X169000000Y-53500000D03*
D11*
X118500000Y-146050000D03*
X118500000Y-147450000D03*
D13*
X126000000Y-50300000D03*
D10*
X142750000Y-93000000D03*
X142750000Y-92140000D03*
D13*
X191100000Y-74000000D03*
D29*
X116320000Y-57000000D03*
X120680000Y-57000000D03*
D13*
X107500000Y-74000000D03*
D24*
X198499999Y-150950000D03*
X198500000Y-150099998D03*
X198500000Y-149250000D03*
X198499999Y-148400001D03*
X198500000Y-147550000D03*
X198500002Y-146700000D03*
X198500000Y-145850002D03*
X198500000Y-145000001D03*
X198499999Y-144150001D03*
X198500000Y-143300000D03*
X198499999Y-142450000D03*
X198500001Y-141600000D03*
X198499999Y-140750000D03*
X198499999Y-139900000D03*
X198500000Y-139050000D03*
D25*
X197450000Y-138000001D03*
X196599998Y-138000000D03*
X195750000Y-138000000D03*
X194900001Y-138000001D03*
X194050000Y-138000000D03*
X193200000Y-137999998D03*
X192350002Y-138000000D03*
X191500001Y-138000000D03*
X190650001Y-138000001D03*
X189800000Y-138000000D03*
X188950000Y-138000001D03*
X188100000Y-137999999D03*
X187250000Y-138000001D03*
X186400000Y-138000001D03*
X185550000Y-138000000D03*
D24*
X184500001Y-139050000D03*
X184500000Y-139900002D03*
X184500000Y-140750000D03*
X184500001Y-141599999D03*
X184500000Y-142450000D03*
X184499998Y-143300000D03*
X184500000Y-144149998D03*
X184500000Y-144999999D03*
X184500001Y-145849999D03*
X184500000Y-146700000D03*
X184500001Y-147550000D03*
X184499999Y-148400000D03*
X184500001Y-149250000D03*
X184500001Y-150100000D03*
X184500000Y-150950000D03*
D25*
X185550000Y-151999999D03*
X186400002Y-152000000D03*
X187250000Y-152000000D03*
X188099999Y-151999999D03*
X188950000Y-152000000D03*
X189800000Y-152000002D03*
X190649998Y-152000000D03*
X191499999Y-152000000D03*
X192349999Y-151999999D03*
X193200000Y-152000000D03*
X194050000Y-151999999D03*
X194900000Y-152000001D03*
X195750000Y-151999999D03*
X196600000Y-151999999D03*
X197450000Y-152000000D03*
D26*
X193150000Y-146650000D03*
D27*
X193150000Y-145000000D03*
X193150000Y-143350000D03*
X191500000Y-146650000D03*
X191500000Y-145000000D03*
X191500000Y-143350000D03*
X189850000Y-146650000D03*
X189850000Y-145000000D03*
X189850000Y-143350000D03*
D28*
X198500000Y-152000000D03*
X198500000Y-138000000D03*
X184500000Y-138000000D03*
X184500000Y-152000000D03*
D29*
X202320000Y-57000000D03*
X206680000Y-57000000D03*
X182860000Y-104500000D03*
X178500000Y-104500000D03*
D10*
X185750000Y-136000000D03*
X185750000Y-135140000D03*
D29*
X96860000Y-147500000D03*
X92500000Y-147500000D03*
D10*
X133750000Y-130610000D03*
X133750000Y-129750000D03*
D12*
X200000000Y-63250000D03*
X200000000Y-64090000D03*
D13*
X169000000Y-52700000D03*
M02*
