M48
; FORMAT={-:-/ absolute / metric / decimal}
; #@! TF.GenerationSoftware,Kicad,Pcbnew,10.0.3
; #@! TF.FileFunction,MixedPlating,1,2
FMAT,2
METRIC
; #@! TA.AperFunction,Plated,PTH,ViaDrill
T1C0.300
; #@! TA.AperFunction,Plated,PTH,ComponentDrill
T2C0.500
; #@! TA.AperFunction,Plated,PTH,ComponentDrill
T3C1.600
; #@! TA.AperFunction,Plated,PTH,ComponentDrill
T4C3.200
; #@! TA.AperFunction,NonPlated,NPTH,ComponentDrill
T5C0.500
; #@! TA.AperFunction,NonPlated,NPTH,ComponentDrill
T6C2.000
%
G90
G05
T1
X89.25Y-56.24
X89.25Y-99.24
X89.25Y-142.24
X89.5Y-43.5
X89.5Y-86.5
X89.5Y-129.5
X90.0Y-56.25
X90.0Y-99.25
X90.0Y-142.25
X90.5Y-42.5
X90.5Y-85.5
X90.5Y-128.5
X90.75Y-56.24
X90.75Y-99.24
X90.75Y-142.24
X91.25Y-54.25
X91.25Y-97.25
X91.25Y-140.25
X91.5Y-42.5
X91.5Y-56.25
X91.5Y-85.5
X91.5Y-99.25
X91.5Y-128.5
X91.5Y-142.25
X91.75Y-52.25
X91.75Y-95.25
X91.75Y-138.25
X92.0Y-43.5
X92.0Y-86.5
X92.0Y-129.5
X92.5Y-46.0
X92.5Y-49.0
X92.5Y-50.5
X92.5Y-89.0
X92.5Y-92.0
X92.5Y-93.5
X92.5Y-132.0
X92.5Y-135.0
X92.5Y-136.5
X93.25Y-41.5
X93.25Y-84.5
X93.25Y-127.5
X94.047Y-43.5
X94.047Y-86.5
X94.047Y-129.5
X94.25Y-50.5
X94.25Y-93.5
X94.25Y-136.5
X95.5Y-41.5
X95.5Y-49.0
X95.5Y-84.5
X95.5Y-92.0
X95.5Y-127.5
X95.5Y-135.0
X96.25Y-43.5
X96.25Y-86.5
X96.25Y-129.5
X96.75Y-65.75
X96.75Y-108.75
X96.75Y-151.75
X97.189Y-54.5
X97.189Y-97.5
X97.189Y-140.5
X97.25Y-50.75
X97.25Y-53.5
X97.25Y-93.75
X97.25Y-96.5
X97.25Y-136.75
X97.25Y-139.5
X98.5Y-62.4
X98.5Y-105.4
X98.5Y-148.4
X98.5Y-50.11
X98.5Y-60.7
X98.5Y-64.95
X98.5Y-66.0
X98.5Y-93.11
X98.5Y-103.7
X98.5Y-107.95
X98.5Y-109.0
X98.5Y-136.11
X98.5Y-146.7
X98.5Y-150.95
X98.5Y-152.0
X98.5Y-59.85
X98.5Y-63.25
X98.5Y-102.85
X98.5Y-106.25
X98.5Y-145.85
X98.5Y-149.25
X99.5Y-56.0
X99.5Y-99.0
X99.5Y-142.0
X99.55Y-66.0
X99.55Y-109.0
X99.55Y-152.0
X99.75Y-50.0
X99.75Y-61.75
X99.75Y-63.0
X99.75Y-93.0
X99.75Y-104.75
X99.75Y-106.0
X99.75Y-136.0
X99.75Y-147.75
X99.75Y-149.0
X100.0Y-59.0
X100.0Y-64.5
X100.0Y-102.0
X100.0Y-107.5
X100.0Y-145.0
X100.0Y-150.5
X100.25Y-48.25
X100.25Y-91.25
X100.25Y-134.25
X100.4Y-66.0
X100.4Y-109.0
X100.4Y-152.0
X100.75Y-46.5
X100.75Y-89.5
X100.75Y-132.5
X101.0Y-47.75
X101.0Y-90.75
X101.0Y-133.75
X101.5Y-63.0
X101.5Y-106.0
X101.5Y-149.0
X102.0Y-48.75
X102.0Y-91.75
X102.0Y-134.75
X102.1Y-66.0
X102.1Y-109.0
X102.1Y-152.0
X102.25Y-55.0
X102.25Y-98.0
X102.25Y-141.0
X102.5Y-49.25
X102.5Y-64.5
X102.5Y-92.25
X102.5Y-107.5
X102.5Y-135.25
X102.5Y-150.5
X102.95Y-66.0
X102.95Y-109.0
X102.95Y-152.0
X103.0Y-48.75
X103.0Y-91.75
X103.0Y-134.75
X103.75Y-47.0
X103.75Y-90.0
X103.75Y-133.0
X103.8Y-66.0
X103.8Y-109.0
X103.8Y-152.0
X103.85Y-57.35
X103.85Y-59.0
X103.85Y-60.65
X103.85Y-100.35
X103.85Y-102.0
X103.85Y-103.65
X103.85Y-143.35
X103.85Y-145.0
X103.85Y-146.65
X104.25Y-47.75
X104.25Y-90.75
X104.25Y-133.75
X104.65Y-52.0
X104.65Y-95.0
X104.65Y-138.0
X104.944Y-46.4
X104.944Y-89.4
X104.944Y-132.4
X105.0Y-48.5
X105.0Y-91.5
X105.0Y-134.5
X105.25Y-47.75
X105.25Y-90.75
X105.25Y-133.75
X105.5Y-57.35
X105.5Y-59.0
X105.5Y-61.25
X105.5Y-64.5
X105.5Y-100.35
X105.5Y-102.0
X105.5Y-104.25
X105.5Y-107.5
X105.5Y-143.35
X105.5Y-145.0
X105.5Y-147.25
X105.5Y-150.5
X105.5Y-52.0
X105.5Y-95.0
X105.5Y-138.0
X106.0Y-45.75
X106.0Y-88.75
X106.0Y-131.75
X107.0Y-44.75
X107.0Y-50.75
X107.0Y-87.75
X107.0Y-93.75
X107.0Y-130.75
X107.0Y-136.75
X107.15Y-57.35
X107.15Y-59.0
X107.15Y-100.35
X107.15Y-102.0
X107.15Y-143.35
X107.15Y-145.0
X107.2Y-66.0
X107.2Y-109.0
X107.2Y-152.0
X107.5Y-60.25
X107.5Y-103.25
X107.5Y-146.25
X107.75Y-53.0
X107.75Y-96.0
X107.75Y-139.0
X108.0Y-50.0
X108.0Y-61.5
X108.0Y-64.5
X108.0Y-93.0
X108.0Y-104.5
X108.0Y-107.5
X108.0Y-136.0
X108.0Y-147.5
X108.0Y-150.5
X108.05Y-66.0
X108.05Y-109.0
X108.05Y-152.0
X108.5Y-42.5
X108.5Y-85.5
X108.5Y-128.5
X108.9Y-66.0
X108.9Y-109.0
X108.9Y-152.0
X109.0Y-41.5
X109.0Y-48.0
X109.0Y-84.5
X109.0Y-91.0
X109.0Y-127.5
X109.0Y-134.0
X109.5Y-46.5
X109.5Y-89.5
X109.5Y-132.5
X110.25Y-53.25
X110.25Y-96.25
X110.25Y-139.25
X111.0Y-53.5
X111.0Y-57.0
X111.0Y-59.0
X111.0Y-96.5
X111.0Y-100.0
X111.0Y-102.0
X111.0Y-139.5
X111.0Y-143.0
X111.0Y-145.0
X111.25Y-54.25
X111.25Y-97.25
X111.25Y-140.25
X111.45Y-66.0
X111.45Y-109.0
X111.45Y-152.0
X111.5Y-61.0
X111.5Y-104.0
X111.5Y-147.0
X112.0Y-50.75
X112.0Y-93.75
X112.0Y-136.75
X112.5Y-56.45
X112.5Y-58.15
X112.5Y-62.4
X112.5Y-64.95
X112.5Y-99.45
X112.5Y-101.15
X112.5Y-105.4
X112.5Y-107.95
X112.5Y-142.45
X112.5Y-144.15
X112.5Y-148.4
X112.5Y-150.95
X112.5Y-57.3
X112.5Y-59.0
X112.5Y-63.25
X112.5Y-64.1
X112.5Y-66.0
X112.5Y-100.3
X112.5Y-102.0
X112.5Y-106.25
X112.5Y-107.1
X112.5Y-109.0
X112.5Y-143.3
X112.5Y-145.0
X112.5Y-149.25
X112.5Y-150.1
X112.5Y-152.0
X112.5Y-55.6
X112.5Y-98.6
X112.5Y-141.6
X113.68Y-60.65
X113.68Y-103.65
X113.68Y-146.65
X114.08Y-59.25
X114.08Y-102.25
X114.08Y-145.25
X114.75Y-58.5
X114.75Y-101.5
X114.75Y-144.5
X115.85Y-58.52
X115.85Y-101.52
X115.85Y-144.52
X116.32Y-57.0
X116.32Y-100.0
X116.32Y-143.0
X116.86Y-61.86
X116.86Y-104.86
X116.86Y-147.86
X118.5Y-60.05
X118.5Y-103.05
X118.5Y-146.05
X132.25Y-56.24
X132.25Y-99.24
X132.25Y-142.24
X132.5Y-43.5
X132.5Y-86.5
X132.5Y-129.5
X133.0Y-56.25
X133.0Y-99.25
X133.0Y-142.25
X133.5Y-42.5
X133.5Y-85.5
X133.5Y-128.5
X133.75Y-56.24
X133.75Y-99.24
X133.75Y-142.24
X134.25Y-54.25
X134.25Y-97.25
X134.25Y-140.25
X134.5Y-42.5
X134.5Y-56.25
X134.5Y-85.5
X134.5Y-99.25
X134.5Y-128.5
X134.5Y-142.25
X134.75Y-52.25
X134.75Y-95.25
X134.75Y-138.25
X135.0Y-43.5
X135.0Y-86.5
X135.0Y-129.5
X135.5Y-46.0
X135.5Y-49.0
X135.5Y-50.5
X135.5Y-89.0
X135.5Y-92.0
X135.5Y-93.5
X135.5Y-132.0
X135.5Y-135.0
X135.5Y-136.5
X136.25Y-41.5
X136.25Y-84.5
X136.25Y-127.5
X137.047Y-43.5
X137.047Y-86.5
X137.047Y-129.5
X137.25Y-50.5
X137.25Y-93.5
X137.25Y-136.5
X138.5Y-41.5
X138.5Y-49.0
X138.5Y-84.5
X138.5Y-92.0
X138.5Y-127.5
X138.5Y-135.0
X139.25Y-43.5
X139.25Y-86.5
X139.25Y-129.5
X139.75Y-65.75
X139.75Y-108.75
X139.75Y-151.75
X140.189Y-54.5
X140.189Y-97.5
X140.189Y-140.5
X140.25Y-50.75
X140.25Y-53.5
X140.25Y-93.75
X140.25Y-96.5
X140.25Y-136.75
X140.25Y-139.5
X141.5Y-62.4
X141.5Y-105.4
X141.5Y-148.4
X141.5Y-50.11
X141.5Y-60.7
X141.5Y-64.95
X141.5Y-66.0
X141.5Y-93.11
X141.5Y-103.7
X141.5Y-107.95
X141.5Y-109.0
X141.5Y-136.11
X141.5Y-146.7
X141.5Y-150.95
X141.5Y-152.0
X141.5Y-59.85
X141.5Y-63.25
X141.5Y-102.85
X141.5Y-106.25
X141.5Y-145.85
X141.5Y-149.25
X142.5Y-56.0
X142.5Y-99.0
X142.5Y-142.0
X142.55Y-66.0
X142.55Y-109.0
X142.55Y-152.0
X142.75Y-50.0
X142.75Y-61.75
X142.75Y-63.0
X142.75Y-93.0
X142.75Y-104.75
X142.75Y-106.0
X142.75Y-136.0
X142.75Y-147.75
X142.75Y-149.0
X143.0Y-59.0
X143.0Y-64.5
X143.0Y-102.0
X143.0Y-107.5
X143.0Y-145.0
X143.0Y-150.5
X143.25Y-48.25
X143.25Y-91.25
X143.25Y-134.25
X143.4Y-66.0
X143.4Y-109.0
X143.4Y-152.0
X143.75Y-46.5
X143.75Y-89.5
X143.75Y-132.5
X144.0Y-47.75
X144.0Y-90.75
X144.0Y-133.75
X144.5Y-63.0
X144.5Y-106.0
X144.5Y-149.0
X145.0Y-48.75
X145.0Y-91.75
X145.0Y-134.75
X145.1Y-66.0
X145.1Y-109.0
X145.1Y-152.0
X145.25Y-55.0
X145.25Y-98.0
X145.25Y-141.0
X145.5Y-49.25
X145.5Y-64.5
X145.5Y-92.25
X145.5Y-107.5
X145.5Y-135.25
X145.5Y-150.5
X145.95Y-66.0
X145.95Y-109.0
X145.95Y-152.0
X146.0Y-48.75
X146.0Y-91.75
X146.0Y-134.75
X146.75Y-47.0
X146.75Y-90.0
X146.75Y-133.0
X146.8Y-66.0
X146.8Y-109.0
X146.8Y-152.0
X146.85Y-57.35
X146.85Y-59.0
X146.85Y-60.65
X146.85Y-100.35
X146.85Y-102.0
X146.85Y-103.65
X146.85Y-143.35
X146.85Y-145.0
X146.85Y-146.65
X147.25Y-47.75
X147.25Y-90.75
X147.25Y-133.75
X147.65Y-52.0
X147.65Y-95.0
X147.65Y-138.0
X147.944Y-46.4
X147.944Y-89.4
X147.944Y-132.4
X148.0Y-48.5
X148.0Y-91.5
X148.0Y-134.5
X148.25Y-47.75
X148.25Y-90.75
X148.25Y-133.75
X148.5Y-57.35
X148.5Y-59.0
X148.5Y-61.25
X148.5Y-64.5
X148.5Y-100.35
X148.5Y-102.0
X148.5Y-104.25
X148.5Y-107.5
X148.5Y-143.35
X148.5Y-145.0
X148.5Y-147.25
X148.5Y-150.5
X148.5Y-52.0
X148.5Y-95.0
X148.5Y-138.0
X149.0Y-45.75
X149.0Y-88.75
X149.0Y-131.75
X150.0Y-44.75
X150.0Y-50.75
X150.0Y-87.75
X150.0Y-93.75
X150.0Y-130.75
X150.0Y-136.75
X150.15Y-57.35
X150.15Y-59.0
X150.15Y-100.35
X150.15Y-102.0
X150.15Y-143.35
X150.15Y-145.0
X150.2Y-66.0
X150.2Y-109.0
X150.2Y-152.0
X150.5Y-60.25
X150.5Y-103.25
X150.5Y-146.25
X150.75Y-53.0
X150.75Y-96.0
X150.75Y-139.0
X151.0Y-50.0
X151.0Y-61.5
X151.0Y-64.5
X151.0Y-93.0
X151.0Y-104.5
X151.0Y-107.5
X151.0Y-136.0
X151.0Y-147.5
X151.0Y-150.5
X151.05Y-66.0
X151.05Y-109.0
X151.05Y-152.0
X151.5Y-42.5
X151.5Y-85.5
X151.5Y-128.5
X151.9Y-66.0
X151.9Y-109.0
X151.9Y-152.0
X152.0Y-41.5
X152.0Y-48.0
X152.0Y-84.5
X152.0Y-91.0
X152.0Y-127.5
X152.0Y-134.0
X152.5Y-46.5
X152.5Y-89.5
X152.5Y-132.5
X153.25Y-53.25
X153.25Y-96.25
X153.25Y-139.25
X154.0Y-53.5
X154.0Y-57.0
X154.0Y-59.0
X154.0Y-96.5
X154.0Y-100.0
X154.0Y-102.0
X154.0Y-139.5
X154.0Y-143.0
X154.0Y-145.0
X154.25Y-54.25
X154.25Y-97.25
X154.25Y-140.25
X154.45Y-66.0
X154.45Y-109.0
X154.45Y-152.0
X154.5Y-61.0
X154.5Y-104.0
X154.5Y-147.0
X155.0Y-50.75
X155.0Y-93.75
X155.0Y-136.75
X155.5Y-56.45
X155.5Y-58.15
X155.5Y-62.4
X155.5Y-64.95
X155.5Y-99.45
X155.5Y-101.15
X155.5Y-105.4
X155.5Y-107.95
X155.5Y-142.45
X155.5Y-144.15
X155.5Y-148.4
X155.5Y-150.95
X155.5Y-57.3
X155.5Y-59.0
X155.5Y-63.25
X155.5Y-64.1
X155.5Y-66.0
X155.5Y-100.3
X155.5Y-102.0
X155.5Y-106.25
X155.5Y-107.1
X155.5Y-109.0
X155.5Y-143.3
X155.5Y-145.0
X155.5Y-149.25
X155.5Y-150.1
X155.5Y-152.0
X155.5Y-55.6
X155.5Y-98.6
X155.5Y-141.6
X156.68Y-60.65
X156.68Y-103.65
X156.68Y-146.65
X157.08Y-59.25
X157.08Y-102.25
X157.08Y-145.25
X157.75Y-58.5
X157.75Y-101.5
X157.75Y-144.5
X158.85Y-58.52
X158.85Y-101.52
X158.85Y-144.52
X159.32Y-57.0
X159.32Y-100.0
X159.32Y-143.0
X159.86Y-61.86
X159.86Y-104.86
X159.86Y-147.86
X161.5Y-60.05
X161.5Y-103.05
X161.5Y-146.05
X175.25Y-56.24
X175.25Y-99.24
X175.25Y-142.24
X175.5Y-43.5
X175.5Y-86.5
X175.5Y-129.5
X176.0Y-56.25
X176.0Y-99.25
X176.0Y-142.25
X176.5Y-42.5
X176.5Y-85.5
X176.5Y-128.5
X176.75Y-56.24
X176.75Y-99.24
X176.75Y-142.24
X177.25Y-54.25
X177.25Y-97.25
X177.25Y-140.25
X177.5Y-42.5
X177.5Y-56.25
X177.5Y-85.5
X177.5Y-99.25
X177.5Y-128.5
X177.5Y-142.25
X177.75Y-52.25
X177.75Y-95.25
X177.75Y-138.25
X178.0Y-43.5
X178.0Y-86.5
X178.0Y-129.5
X178.5Y-46.0
X178.5Y-49.0
X178.5Y-50.5
X178.5Y-89.0
X178.5Y-92.0
X178.5Y-93.5
X178.5Y-132.0
X178.5Y-135.0
X178.5Y-136.5
X179.25Y-41.5
X179.25Y-84.5
X179.25Y-127.5
X180.047Y-43.5
X180.047Y-86.5
X180.047Y-129.5
X180.25Y-50.5
X180.25Y-93.5
X180.25Y-136.5
X181.5Y-41.5
X181.5Y-49.0
X181.5Y-84.5
X181.5Y-92.0
X181.5Y-127.5
X181.5Y-135.0
X182.25Y-43.5
X182.25Y-86.5
X182.25Y-129.5
X182.75Y-65.75
X182.75Y-108.75
X182.75Y-151.75
X183.189Y-54.5
X183.189Y-97.5
X183.189Y-140.5
X183.25Y-50.75
X183.25Y-53.5
X183.25Y-93.75
X183.25Y-96.5
X183.25Y-136.75
X183.25Y-139.5
X184.5Y-62.4
X184.5Y-105.4
X184.5Y-148.4
X184.5Y-50.11
X184.5Y-60.7
X184.5Y-64.95
X184.5Y-66.0
X184.5Y-93.11
X184.5Y-103.7
X184.5Y-107.95
X184.5Y-109.0
X184.5Y-136.11
X184.5Y-146.7
X184.5Y-150.95
X184.5Y-152.0
X184.5Y-59.85
X184.5Y-63.25
X184.5Y-102.85
X184.5Y-106.25
X184.5Y-145.85
X184.5Y-149.25
X185.5Y-56.0
X185.5Y-99.0
X185.5Y-142.0
X185.55Y-66.0
X185.55Y-109.0
X185.55Y-152.0
X185.75Y-50.0
X185.75Y-61.75
X185.75Y-63.0
X185.75Y-93.0
X185.75Y-104.75
X185.75Y-106.0
X185.75Y-136.0
X185.75Y-147.75
X185.75Y-149.0
X186.0Y-59.0
X186.0Y-64.5
X186.0Y-102.0
X186.0Y-107.5
X186.0Y-145.0
X186.0Y-150.5
X186.25Y-48.25
X186.25Y-91.25
X186.25Y-134.25
X186.4Y-66.0
X186.4Y-109.0
X186.4Y-152.0
X186.75Y-46.5
X186.75Y-89.5
X186.75Y-132.5
X187.0Y-47.75
X187.0Y-90.75
X187.0Y-133.75
X187.5Y-63.0
X187.5Y-106.0
X187.5Y-149.0
X188.0Y-48.75
X188.0Y-91.75
X188.0Y-134.75
X188.1Y-66.0
X188.1Y-109.0
X188.1Y-152.0
X188.25Y-55.0
X188.25Y-98.0
X188.25Y-141.0
X188.5Y-49.25
X188.5Y-64.5
X188.5Y-92.25
X188.5Y-107.5
X188.5Y-135.25
X188.5Y-150.5
X188.95Y-66.0
X188.95Y-109.0
X188.95Y-152.0
X189.0Y-48.75
X189.0Y-91.75
X189.0Y-134.75
X189.75Y-47.0
X189.75Y-90.0
X189.75Y-133.0
X189.8Y-66.0
X189.8Y-109.0
X189.8Y-152.0
X189.85Y-57.35
X189.85Y-59.0
X189.85Y-60.65
X189.85Y-100.35
X189.85Y-102.0
X189.85Y-103.65
X189.85Y-143.35
X189.85Y-145.0
X189.85Y-146.65
X190.25Y-47.75
X190.25Y-90.75
X190.25Y-133.75
X190.65Y-52.0
X190.65Y-95.0
X190.65Y-138.0
X190.944Y-46.4
X190.944Y-89.4
X190.944Y-132.4
X191.0Y-48.5
X191.0Y-91.5
X191.0Y-134.5
X191.25Y-47.75
X191.25Y-90.75
X191.25Y-133.75
X191.5Y-57.35
X191.5Y-59.0
X191.5Y-61.25
X191.5Y-64.5
X191.5Y-100.35
X191.5Y-102.0
X191.5Y-104.25
X191.5Y-107.5
X191.5Y-143.35
X191.5Y-145.0
X191.5Y-147.25
X191.5Y-150.5
X191.5Y-52.0
X191.5Y-95.0
X191.5Y-138.0
X192.0Y-45.75
X192.0Y-88.75
X192.0Y-131.75
X193.0Y-44.75
X193.0Y-50.75
X193.0Y-87.75
X193.0Y-93.75
X193.0Y-130.75
X193.0Y-136.75
X193.15Y-57.35
X193.15Y-59.0
X193.15Y-100.35
X193.15Y-102.0
X193.15Y-143.35
X193.15Y-145.0
X193.2Y-66.0
X193.2Y-109.0
X193.2Y-152.0
X193.5Y-60.25
X193.5Y-103.25
X193.5Y-146.25
X193.75Y-53.0
X193.75Y-96.0
X193.75Y-139.0
X194.0Y-50.0
X194.0Y-61.5
X194.0Y-64.5
X194.0Y-93.0
X194.0Y-104.5
X194.0Y-107.5
X194.0Y-136.0
X194.0Y-147.5
X194.0Y-150.5
X194.05Y-66.0
X194.05Y-109.0
X194.05Y-152.0
X194.5Y-42.5
X194.5Y-85.5
X194.5Y-128.5
X194.9Y-66.0
X194.9Y-109.0
X194.9Y-152.0
X195.0Y-41.5
X195.0Y-48.0
X195.0Y-84.5
X195.0Y-91.0
X195.0Y-127.5
X195.0Y-134.0
X195.5Y-46.5
X195.5Y-89.5
X195.5Y-132.5
X196.25Y-53.25
X196.25Y-96.25
X196.25Y-139.25
X197.0Y-53.5
X197.0Y-57.0
X197.0Y-59.0
X197.0Y-96.5
X197.0Y-100.0
X197.0Y-102.0
X197.0Y-139.5
X197.0Y-143.0
X197.0Y-145.0
X197.25Y-54.25
X197.25Y-97.25
X197.25Y-140.25
X197.45Y-66.0
X197.45Y-109.0
X197.45Y-152.0
X197.5Y-61.0
X197.5Y-104.0
X197.5Y-147.0
X198.0Y-50.75
X198.0Y-93.75
X198.0Y-136.75
X198.5Y-56.45
X198.5Y-58.15
X198.5Y-62.4
X198.5Y-64.95
X198.5Y-99.45
X198.5Y-101.15
X198.5Y-105.4
X198.5Y-107.95
X198.5Y-142.45
X198.5Y-144.15
X198.5Y-148.4
X198.5Y-150.95
X198.5Y-57.3
X198.5Y-59.0
X198.5Y-63.25
X198.5Y-64.1
X198.5Y-66.0
X198.5Y-100.3
X198.5Y-102.0
X198.5Y-106.25
X198.5Y-107.1
X198.5Y-109.0
X198.5Y-143.3
X198.5Y-145.0
X198.5Y-149.25
X198.5Y-150.1
X198.5Y-152.0
X198.5Y-55.6
X198.5Y-98.6
X198.5Y-141.6
X199.68Y-60.65
X199.68Y-103.65
X199.68Y-146.65
X200.08Y-59.25
X200.08Y-102.25
X200.08Y-145.25
X200.75Y-58.5
X200.75Y-101.5
X200.75Y-144.5
X201.85Y-58.52
X201.85Y-101.52
X201.85Y-144.52
X202.32Y-57.0
X202.32Y-100.0
X202.32Y-143.0
X202.86Y-61.86
X202.86Y-104.86
X202.86Y-147.86
X204.5Y-60.05
X204.5Y-103.05
X204.5Y-146.05
T2
X87.1Y-35.5
X87.1Y-67.5
X87.1Y-78.5
X87.1Y-110.5
X87.1Y-121.5
X87.1Y-153.5
X87.803Y-33.803
X87.803Y-37.197
X87.803Y-65.803
X87.803Y-69.197
X87.803Y-76.803
X87.803Y-80.197
X87.803Y-108.803
X87.803Y-112.197
X87.803Y-119.803
X87.803Y-123.197
X87.803Y-151.803
X87.803Y-155.197
X89.5Y-33.1
X89.5Y-37.9
X89.5Y-65.1
X89.5Y-69.9
X89.5Y-76.1
X89.5Y-80.9
X89.5Y-108.1
X89.5Y-112.9
X89.5Y-119.1
X89.5Y-123.9
X89.5Y-151.1
X89.5Y-155.9
X91.197Y-33.803
X91.197Y-37.197
X91.197Y-65.803
X91.197Y-69.197
X91.197Y-76.803
X91.197Y-80.197
X91.197Y-108.803
X91.197Y-112.197
X91.197Y-119.803
X91.197Y-123.197
X91.197Y-151.803
X91.197Y-155.197
X91.9Y-35.5
X91.9Y-67.5
X91.9Y-78.5
X91.9Y-110.5
X91.9Y-121.5
X91.9Y-153.5
X119.1Y-35.5
X119.1Y-67.5
X119.1Y-78.5
X119.1Y-110.5
X119.1Y-121.5
X119.1Y-153.5
X119.803Y-33.803
X119.803Y-37.197
X119.803Y-65.803
X119.803Y-69.197
X119.803Y-76.803
X119.803Y-80.197
X119.803Y-108.803
X119.803Y-112.197
X119.803Y-119.803
X119.803Y-123.197
X119.803Y-151.803
X119.803Y-155.197
X121.5Y-33.1
X121.5Y-37.9
X121.5Y-65.1
X121.5Y-69.9
X121.5Y-76.1
X121.5Y-80.9
X121.5Y-108.1
X121.5Y-112.9
X121.5Y-119.1
X121.5Y-123.9
X121.5Y-151.1
X121.5Y-155.9
X123.197Y-33.803
X123.197Y-37.197
X123.197Y-65.803
X123.197Y-69.197
X123.197Y-76.803
X123.197Y-80.197
X123.197Y-108.803
X123.197Y-112.197
X123.197Y-119.803
X123.197Y-123.197
X123.197Y-151.803
X123.197Y-155.197
X123.9Y-35.5
X123.9Y-67.5
X123.9Y-78.5
X123.9Y-110.5
X123.9Y-121.5
X123.9Y-153.5
X130.1Y-35.5
X130.1Y-67.5
X130.1Y-78.5
X130.1Y-110.5
X130.1Y-121.5
X130.1Y-153.5
X130.803Y-33.803
X130.803Y-37.197
X130.803Y-65.803
X130.803Y-69.197
X130.803Y-76.803
X130.803Y-80.197
X130.803Y-108.803
X130.803Y-112.197
X130.803Y-119.803
X130.803Y-123.197
X130.803Y-151.803
X130.803Y-155.197
X132.5Y-33.1
X132.5Y-37.9
X132.5Y-65.1
X132.5Y-69.9
X132.5Y-76.1
X132.5Y-80.9
X132.5Y-108.1
X132.5Y-112.9
X132.5Y-119.1
X132.5Y-123.9
X132.5Y-151.1
X132.5Y-155.9
X134.197Y-33.803
X134.197Y-37.197
X134.197Y-65.803
X134.197Y-69.197
X134.197Y-76.803
X134.197Y-80.197
X134.197Y-108.803
X134.197Y-112.197
X134.197Y-119.803
X134.197Y-123.197
X134.197Y-151.803
X134.197Y-155.197
X134.9Y-35.5
X134.9Y-67.5
X134.9Y-78.5
X134.9Y-110.5
X134.9Y-121.5
X134.9Y-153.5
X162.1Y-35.5
X162.1Y-67.5
X162.1Y-78.5
X162.1Y-110.5
X162.1Y-121.5
X162.1Y-153.5
X162.803Y-33.803
X162.803Y-37.197
X162.803Y-65.803
X162.803Y-69.197
X162.803Y-76.803
X162.803Y-80.197
X162.803Y-108.803
X162.803Y-112.197
X162.803Y-119.803
X162.803Y-123.197
X162.803Y-151.803
X162.803Y-155.197
X164.5Y-33.1
X164.5Y-37.9
X164.5Y-65.1
X164.5Y-69.9
X164.5Y-76.1
X164.5Y-80.9
X164.5Y-108.1
X164.5Y-112.9
X164.5Y-119.1
X164.5Y-123.9
X164.5Y-151.1
X164.5Y-155.9
X166.197Y-33.803
X166.197Y-37.197
X166.197Y-65.803
X166.197Y-69.197
X166.197Y-76.803
X166.197Y-80.197
X166.197Y-108.803
X166.197Y-112.197
X166.197Y-119.803
X166.197Y-123.197
X166.197Y-151.803
X166.197Y-155.197
X166.9Y-35.5
X166.9Y-67.5
X166.9Y-78.5
X166.9Y-110.5
X166.9Y-121.5
X166.9Y-153.5
X173.1Y-35.5
X173.1Y-67.5
X173.1Y-78.5
X173.1Y-110.5
X173.1Y-121.5
X173.1Y-153.5
X173.803Y-33.803
X173.803Y-37.197
X173.803Y-65.803
X173.803Y-69.197
X173.803Y-76.803
X173.803Y-80.197
X173.803Y-108.803
X173.803Y-112.197
X173.803Y-119.803
X173.803Y-123.197
X173.803Y-151.803
X173.803Y-155.197
X175.5Y-33.1
X175.5Y-37.9
X175.5Y-65.1
X175.5Y-69.9
X175.5Y-76.1
X175.5Y-80.9
X175.5Y-108.1
X175.5Y-112.9
X175.5Y-119.1
X175.5Y-123.9
X175.5Y-151.1
X175.5Y-155.9
X177.197Y-33.803
X177.197Y-37.197
X177.197Y-65.803
X177.197Y-69.197
X177.197Y-76.803
X177.197Y-80.197
X177.197Y-108.803
X177.197Y-112.197
X177.197Y-119.803
X177.197Y-123.197
X177.197Y-151.803
X177.197Y-155.197
X177.9Y-35.5
X177.9Y-67.5
X177.9Y-78.5
X177.9Y-110.5
X177.9Y-121.5
X177.9Y-153.5
X205.1Y-35.5
X205.1Y-67.5
X205.1Y-78.5
X205.1Y-110.5
X205.1Y-121.5
X205.1Y-153.5
X205.803Y-33.803
X205.803Y-37.197
X205.803Y-65.803
X205.803Y-69.197
X205.803Y-76.803
X205.803Y-80.197
X205.803Y-108.803
X205.803Y-112.197
X205.803Y-119.803
X205.803Y-123.197
X205.803Y-151.803
X205.803Y-155.197
X207.5Y-33.1
X207.5Y-37.9
X207.5Y-65.1
X207.5Y-69.9
X207.5Y-76.1
X207.5Y-80.9
X207.5Y-108.1
X207.5Y-112.9
X207.5Y-119.1
X207.5Y-123.9
X207.5Y-151.1
X207.5Y-155.9
X209.197Y-33.803
X209.197Y-37.197
X209.197Y-65.803
X209.197Y-69.197
X209.197Y-76.803
X209.197Y-80.197
X209.197Y-108.803
X209.197Y-112.197
X209.197Y-119.803
X209.197Y-123.197
X209.197Y-151.803
X209.197Y-155.197
X209.9Y-35.5
X209.9Y-67.5
X209.9Y-78.5
X209.9Y-110.5
X209.9Y-121.5
X209.9Y-153.5
T3
X110.25Y-38.5
X110.25Y-81.5
X110.25Y-124.5
X117.342Y-44.041
X117.342Y-87.041
X117.342Y-130.041
X153.25Y-38.5
X153.25Y-81.5
X153.25Y-124.5
X160.342Y-44.041
X160.342Y-87.041
X160.342Y-130.041
X196.25Y-38.5
X196.25Y-81.5
X196.25Y-124.5
X203.342Y-44.041
X203.342Y-87.041
X203.342Y-130.041
T4
X89.5Y-35.5
X89.5Y-67.5
X89.5Y-78.5
X89.5Y-110.5
X89.5Y-121.5
X89.5Y-153.5
X121.5Y-35.5
X121.5Y-67.5
X121.5Y-78.5
X121.5Y-110.5
X121.5Y-121.5
X121.5Y-153.5
X132.5Y-35.5
X132.5Y-67.5
X132.5Y-78.5
X132.5Y-110.5
X132.5Y-121.5
X132.5Y-153.5
X164.5Y-35.5
X164.5Y-67.5
X164.5Y-78.5
X164.5Y-110.5
X164.5Y-121.5
X164.5Y-153.5
X175.5Y-35.5
X175.5Y-67.5
X175.5Y-78.5
X175.5Y-110.5
X175.5Y-121.5
X175.5Y-153.5
X207.5Y-35.5
X207.5Y-67.5
X207.5Y-78.5
X207.5Y-110.5
X207.5Y-121.5
X207.5Y-153.5
T5
X103.5Y-31.0
X103.5Y-72.0
X103.5Y-74.0
X103.5Y-115.0
X103.5Y-117.0
X103.5Y-158.0
X104.3Y-31.0
X104.3Y-72.0
X104.3Y-74.0
X104.3Y-115.0
X104.3Y-117.0
X104.3Y-158.0
X105.1Y-31.0
X105.1Y-72.0
X105.1Y-74.0
X105.1Y-115.0
X105.1Y-117.0
X105.1Y-158.0
X105.9Y-31.0
X105.9Y-72.0
X105.9Y-74.0
X105.9Y-115.0
X105.9Y-117.0
X105.9Y-158.0
X106.7Y-31.0
X106.7Y-72.0
X106.7Y-74.0
X106.7Y-115.0
X106.7Y-117.0
X106.7Y-158.0
X107.5Y-31.0
X107.5Y-72.0
X107.5Y-74.0
X107.5Y-115.0
X107.5Y-117.0
X107.5Y-158.0
X126.0Y-49.5
X126.0Y-50.3
X126.0Y-51.1
X126.0Y-51.9
X126.0Y-52.7
X126.0Y-53.5
X126.0Y-92.5
X126.0Y-93.3
X126.0Y-94.1
X126.0Y-94.9
X126.0Y-95.7
X126.0Y-96.5
X126.0Y-135.5
X126.0Y-136.3
X126.0Y-137.1
X126.0Y-137.9
X126.0Y-138.7
X126.0Y-139.5
X128.0Y-49.5
X128.0Y-50.3
X128.0Y-51.1
X128.0Y-51.9
X128.0Y-52.7
X128.0Y-53.5
X128.0Y-92.5
X128.0Y-93.3
X128.0Y-94.1
X128.0Y-94.9
X128.0Y-95.7
X128.0Y-96.5
X128.0Y-135.5
X128.0Y-136.3
X128.0Y-137.1
X128.0Y-137.9
X128.0Y-138.7
X128.0Y-139.5
X146.5Y-31.0
X146.5Y-72.0
X146.5Y-74.0
X146.5Y-115.0
X146.5Y-117.0
X146.5Y-158.0
X147.3Y-31.0
X147.3Y-72.0
X147.3Y-74.0
X147.3Y-115.0
X147.3Y-117.0
X147.3Y-158.0
X148.1Y-31.0
X148.1Y-72.0
X148.1Y-74.0
X148.1Y-115.0
X148.1Y-117.0
X148.1Y-158.0
X148.9Y-31.0
X148.9Y-72.0
X148.9Y-74.0
X148.9Y-115.0
X148.9Y-117.0
X148.9Y-158.0
X149.7Y-31.0
X149.7Y-72.0
X149.7Y-74.0
X149.7Y-115.0
X149.7Y-117.0
X149.7Y-158.0
X150.5Y-31.0
X150.5Y-72.0
X150.5Y-74.0
X150.5Y-115.0
X150.5Y-117.0
X150.5Y-158.0
X169.0Y-49.5
X169.0Y-50.3
X169.0Y-51.1
X169.0Y-51.9
X169.0Y-52.7
X169.0Y-53.5
X169.0Y-92.5
X169.0Y-93.3
X169.0Y-94.1
X169.0Y-94.9
X169.0Y-95.7
X169.0Y-96.5
X169.0Y-135.5
X169.0Y-136.3
X169.0Y-137.1
X169.0Y-137.9
X169.0Y-138.7
X169.0Y-139.5
X171.0Y-49.5
X171.0Y-50.3
X171.0Y-51.1
X171.0Y-51.9
X171.0Y-52.7
X171.0Y-53.5
X171.0Y-92.5
X171.0Y-93.3
X171.0Y-94.1
X171.0Y-94.9
X171.0Y-95.7
X171.0Y-96.5
X171.0Y-135.5
X171.0Y-136.3
X171.0Y-137.1
X171.0Y-137.9
X171.0Y-138.7
X171.0Y-139.5
X189.5Y-31.0
X189.5Y-72.0
X189.5Y-74.0
X189.5Y-115.0
X189.5Y-117.0
X189.5Y-158.0
X190.3Y-31.0
X190.3Y-72.0
X190.3Y-74.0
X190.3Y-115.0
X190.3Y-117.0
X190.3Y-158.0
X191.1Y-31.0
X191.1Y-72.0
X191.1Y-74.0
X191.1Y-115.0
X191.1Y-117.0
X191.1Y-158.0
X191.9Y-31.0
X191.9Y-72.0
X191.9Y-74.0
X191.9Y-115.0
X191.9Y-117.0
X191.9Y-158.0
X192.7Y-31.0
X192.7Y-72.0
X192.7Y-74.0
X192.7Y-115.0
X192.7Y-117.0
X192.7Y-158.0
X193.5Y-31.0
X193.5Y-72.0
X193.5Y-74.0
X193.5Y-115.0
X193.5Y-117.0
X193.5Y-158.0
T6
X87.5Y-22.5
X87.5Y-166.5
X209.5Y-22.5
M30
