G04 #@! TF.GenerationSoftware,KiCad,Pcbnew,10.0.3*
G04 #@! TF.ProjectId,Speakeasy_panel_3x3,53706561-6b65-4617-9379-5f70616e656c,rev?*
G04 #@! TF.SameCoordinates,Original*
G04 #@! TF.FileFunction,Other,User*
%FSLAX46Y46*%
G04 Gerber Fmt 4.6, Leading zero omitted, Abs format (unit mm)*
%MOMM*%
%LPD*%
G01*
G04 APERTURE LIST*
%ADD10C,0.050000*%
G04 APERTURE END LIST*
D10*
X155350000Y-69000000D02*
G75*
G02*
X152850000Y-69000000I-1250000J0D01*
G01*
X152850000Y-69000000D02*
G75*
G02*
X155350000Y-69000000I1250000J0D01*
G01*
X108800000Y-155000000D02*
G75*
G02*
X106300000Y-155000000I-1250000J0D01*
G01*
X106300000Y-155000000D02*
G75*
G02*
X108800000Y-155000000I1250000J0D01*
G01*
X194800000Y-155000000D02*
G75*
G02*
X192300000Y-155000000I-1250000J0D01*
G01*
X192300000Y-155000000D02*
G75*
G02*
X194800000Y-155000000I1250000J0D01*
G01*
X208100000Y-23500000D02*
G75*
G02*
X205900000Y-23500000I-1100000J0D01*
G01*
X205900000Y-23500000D02*
G75*
G02*
X208100000Y-23500000I1100000J0D01*
G01*
X108800000Y-69000000D02*
G75*
G02*
X106300000Y-69000000I-1250000J0D01*
G01*
X106300000Y-69000000D02*
G75*
G02*
X108800000Y-69000000I1250000J0D01*
G01*
X108800000Y-112000000D02*
G75*
G02*
X106300000Y-112000000I-1250000J0D01*
G01*
X106300000Y-112000000D02*
G75*
G02*
X108800000Y-112000000I1250000J0D01*
G01*
X155350000Y-155000000D02*
G75*
G02*
X152850000Y-155000000I-1250000J0D01*
G01*
X152850000Y-155000000D02*
G75*
G02*
X155350000Y-155000000I1250000J0D01*
G01*
X151800000Y-69000000D02*
G75*
G02*
X149300000Y-69000000I-1250000J0D01*
G01*
X149300000Y-69000000D02*
G75*
G02*
X151800000Y-69000000I1250000J0D01*
G01*
X191250000Y-155000000D02*
G75*
G02*
X188750000Y-155000000I-1250000J0D01*
G01*
X188750000Y-155000000D02*
G75*
G02*
X191250000Y-155000000I1250000J0D01*
G01*
X148250000Y-112000000D02*
G75*
G02*
X145750000Y-112000000I-1250000J0D01*
G01*
X145750000Y-112000000D02*
G75*
G02*
X148250000Y-112000000I1250000J0D01*
G01*
X187700000Y-69000000D02*
G75*
G02*
X185200000Y-69000000I-1250000J0D01*
G01*
X185200000Y-69000000D02*
G75*
G02*
X187700000Y-69000000I1250000J0D01*
G01*
X148250000Y-155000000D02*
G75*
G02*
X145750000Y-155000000I-1250000J0D01*
G01*
X145750000Y-155000000D02*
G75*
G02*
X148250000Y-155000000I1250000J0D01*
G01*
X155350000Y-112000000D02*
G75*
G02*
X152850000Y-112000000I-1250000J0D01*
G01*
X152850000Y-112000000D02*
G75*
G02*
X155350000Y-112000000I1250000J0D01*
G01*
X194800000Y-69000000D02*
G75*
G02*
X192300000Y-69000000I-1250000J0D01*
G01*
X192300000Y-69000000D02*
G75*
G02*
X194800000Y-69000000I1250000J0D01*
G01*
X151800000Y-112000000D02*
G75*
G02*
X149300000Y-112000000I-1250000J0D01*
G01*
X149300000Y-112000000D02*
G75*
G02*
X151800000Y-112000000I1250000J0D01*
G01*
X112350000Y-155000000D02*
G75*
G02*
X109850000Y-155000000I-1250000J0D01*
G01*
X109850000Y-155000000D02*
G75*
G02*
X112350000Y-155000000I1250000J0D01*
G01*
X148250000Y-69000000D02*
G75*
G02*
X145750000Y-69000000I-1250000J0D01*
G01*
X145750000Y-69000000D02*
G75*
G02*
X148250000Y-69000000I1250000J0D01*
G01*
X105250000Y-69000000D02*
G75*
G02*
X102750000Y-69000000I-1250000J0D01*
G01*
X102750000Y-69000000D02*
G75*
G02*
X105250000Y-69000000I1250000J0D01*
G01*
X105250000Y-155000000D02*
G75*
G02*
X102750000Y-155000000I-1250000J0D01*
G01*
X102750000Y-155000000D02*
G75*
G02*
X105250000Y-155000000I1250000J0D01*
G01*
X101700000Y-155000000D02*
G75*
G02*
X99200000Y-155000000I-1250000J0D01*
G01*
X99200000Y-155000000D02*
G75*
G02*
X101700000Y-155000000I1250000J0D01*
G01*
X198350000Y-69000000D02*
G75*
G02*
X195850000Y-69000000I-1250000J0D01*
G01*
X195850000Y-69000000D02*
G75*
G02*
X198350000Y-69000000I1250000J0D01*
G01*
X112350000Y-112000000D02*
G75*
G02*
X109850000Y-112000000I-1250000J0D01*
G01*
X109850000Y-112000000D02*
G75*
G02*
X112350000Y-112000000I1250000J0D01*
G01*
X91100000Y-165500000D02*
G75*
G02*
X88900000Y-165500000I-1100000J0D01*
G01*
X88900000Y-165500000D02*
G75*
G02*
X91100000Y-165500000I1100000J0D01*
G01*
X144700000Y-112000000D02*
G75*
G02*
X142200000Y-112000000I-1250000J0D01*
G01*
X142200000Y-112000000D02*
G75*
G02*
X144700000Y-112000000I1250000J0D01*
G01*
X101700000Y-112000000D02*
G75*
G02*
X99200000Y-112000000I-1250000J0D01*
G01*
X99200000Y-112000000D02*
G75*
G02*
X101700000Y-112000000I1250000J0D01*
G01*
X151800000Y-155000000D02*
G75*
G02*
X149300000Y-155000000I-1250000J0D01*
G01*
X149300000Y-155000000D02*
G75*
G02*
X151800000Y-155000000I1250000J0D01*
G01*
X144700000Y-155000000D02*
G75*
G02*
X142200000Y-155000000I-1250000J0D01*
G01*
X142200000Y-155000000D02*
G75*
G02*
X144700000Y-155000000I1250000J0D01*
G01*
X194800000Y-112000000D02*
G75*
G02*
X192300000Y-112000000I-1250000J0D01*
G01*
X192300000Y-112000000D02*
G75*
G02*
X194800000Y-112000000I1250000J0D01*
G01*
X91100000Y-23500000D02*
G75*
G02*
X88900000Y-23500000I-1100000J0D01*
G01*
X88900000Y-23500000D02*
G75*
G02*
X91100000Y-23500000I1100000J0D01*
G01*
X112350000Y-69000000D02*
G75*
G02*
X109850000Y-69000000I-1250000J0D01*
G01*
X109850000Y-69000000D02*
G75*
G02*
X112350000Y-69000000I1250000J0D01*
G01*
X144700000Y-69000000D02*
G75*
G02*
X142200000Y-69000000I-1250000J0D01*
G01*
X142200000Y-69000000D02*
G75*
G02*
X144700000Y-69000000I1250000J0D01*
G01*
X187700000Y-155000000D02*
G75*
G02*
X185200000Y-155000000I-1250000J0D01*
G01*
X185200000Y-155000000D02*
G75*
G02*
X187700000Y-155000000I1250000J0D01*
G01*
X198350000Y-112000000D02*
G75*
G02*
X195850000Y-112000000I-1250000J0D01*
G01*
X195850000Y-112000000D02*
G75*
G02*
X198350000Y-112000000I1250000J0D01*
G01*
X105250000Y-112000000D02*
G75*
G02*
X102750000Y-112000000I-1250000J0D01*
G01*
X102750000Y-112000000D02*
G75*
G02*
X105250000Y-112000000I1250000J0D01*
G01*
X101700000Y-69000000D02*
G75*
G02*
X99200000Y-69000000I-1250000J0D01*
G01*
X99200000Y-69000000D02*
G75*
G02*
X101700000Y-69000000I1250000J0D01*
G01*
X187700000Y-112000000D02*
G75*
G02*
X185200000Y-112000000I-1250000J0D01*
G01*
X185200000Y-112000000D02*
G75*
G02*
X187700000Y-112000000I1250000J0D01*
G01*
X191250000Y-69000000D02*
G75*
G02*
X188750000Y-69000000I-1250000J0D01*
G01*
X188750000Y-69000000D02*
G75*
G02*
X191250000Y-69000000I1250000J0D01*
G01*
X191250000Y-112000000D02*
G75*
G02*
X188750000Y-112000000I-1250000J0D01*
G01*
X188750000Y-112000000D02*
G75*
G02*
X191250000Y-112000000I1250000J0D01*
G01*
X198350000Y-155000000D02*
G75*
G02*
X195850000Y-155000000I-1250000J0D01*
G01*
X195850000Y-155000000D02*
G75*
G02*
X198350000Y-155000000I1250000J0D01*
G01*
M02*
