G04 #@! TF.GenerationSoftware,KiCad,Pcbnew,10.0.3*
G04 #@! TF.ProjectId,Speakeasy_panel_3x3,53706561-6b65-4617-9379-5f70616e656c,rev?*
G04 #@! TF.SameCoordinates,Original*
G04 #@! TF.FileFunction,Legend,Bot*
G04 #@! TF.FilePolarity,Positive*
%FSLAX46Y46*%
G04 Gerber Fmt 4.6, Leading zero omitted, Abs format (unit mm)*
%MOMM*%
%LPD*%
G01*
G04 APERTURE LIST*
%ADD10C,0.100000*%
%ADD11C,0.150000*%
%ADD12C,0.120000*%
G04 APERTURE END LIST*
D10*
X110500000Y-31750000D02*
X118500000Y-31750000D01*
X118500000Y-33750000D01*
X110500000Y-33750000D01*
X110500000Y-31750000D01*
G36*
X110500000Y-31750000D02*
G01*
X118500000Y-31750000D01*
X118500000Y-33750000D01*
X110500000Y-33750000D01*
X110500000Y-31750000D01*
G37*
X110500000Y-74750000D02*
X118500000Y-74750000D01*
X118500000Y-76750000D01*
X110500000Y-76750000D01*
X110500000Y-74750000D01*
G36*
X110500000Y-74750000D02*
G01*
X118500000Y-74750000D01*
X118500000Y-76750000D01*
X110500000Y-76750000D01*
X110500000Y-74750000D01*
G37*
X110500000Y-117750000D02*
X118500000Y-117750000D01*
X118500000Y-119750000D01*
X110500000Y-119750000D01*
X110500000Y-117750000D01*
G36*
X110500000Y-117750000D02*
G01*
X118500000Y-117750000D01*
X118500000Y-119750000D01*
X110500000Y-119750000D01*
X110500000Y-117750000D01*
G37*
X112250000Y-34000000D02*
X117250000Y-34000000D01*
X117250000Y-39000000D01*
X112250000Y-39000000D01*
X112250000Y-34000000D01*
G36*
X112250000Y-34000000D02*
G01*
X117250000Y-34000000D01*
X117250000Y-39000000D01*
X112250000Y-39000000D01*
X112250000Y-34000000D01*
G37*
X112250000Y-77000000D02*
X117250000Y-77000000D01*
X117250000Y-82000000D01*
X112250000Y-82000000D01*
X112250000Y-77000000D01*
G36*
X112250000Y-77000000D02*
G01*
X117250000Y-77000000D01*
X117250000Y-82000000D01*
X112250000Y-82000000D01*
X112250000Y-77000000D01*
G37*
X112250000Y-120000000D02*
X117250000Y-120000000D01*
X117250000Y-125000000D01*
X112250000Y-125000000D01*
X112250000Y-120000000D01*
G36*
X112250000Y-120000000D02*
G01*
X117250000Y-120000000D01*
X117250000Y-125000000D01*
X112250000Y-125000000D01*
X112250000Y-120000000D01*
G37*
X153500000Y-31750000D02*
X161500000Y-31750000D01*
X161500000Y-33750000D01*
X153500000Y-33750000D01*
X153500000Y-31750000D01*
G36*
X153500000Y-31750000D02*
G01*
X161500000Y-31750000D01*
X161500000Y-33750000D01*
X153500000Y-33750000D01*
X153500000Y-31750000D01*
G37*
X153500000Y-74750000D02*
X161500000Y-74750000D01*
X161500000Y-76750000D01*
X153500000Y-76750000D01*
X153500000Y-74750000D01*
G36*
X153500000Y-74750000D02*
G01*
X161500000Y-74750000D01*
X161500000Y-76750000D01*
X153500000Y-76750000D01*
X153500000Y-74750000D01*
G37*
X153500000Y-117750000D02*
X161500000Y-117750000D01*
X161500000Y-119750000D01*
X153500000Y-119750000D01*
X153500000Y-117750000D01*
G36*
X153500000Y-117750000D02*
G01*
X161500000Y-117750000D01*
X161500000Y-119750000D01*
X153500000Y-119750000D01*
X153500000Y-117750000D01*
G37*
X155250000Y-34000000D02*
X160250000Y-34000000D01*
X160250000Y-39000000D01*
X155250000Y-39000000D01*
X155250000Y-34000000D01*
G36*
X155250000Y-34000000D02*
G01*
X160250000Y-34000000D01*
X160250000Y-39000000D01*
X155250000Y-39000000D01*
X155250000Y-34000000D01*
G37*
X155250000Y-77000000D02*
X160250000Y-77000000D01*
X160250000Y-82000000D01*
X155250000Y-82000000D01*
X155250000Y-77000000D01*
G36*
X155250000Y-77000000D02*
G01*
X160250000Y-77000000D01*
X160250000Y-82000000D01*
X155250000Y-82000000D01*
X155250000Y-77000000D01*
G37*
X155250000Y-120000000D02*
X160250000Y-120000000D01*
X160250000Y-125000000D01*
X155250000Y-125000000D01*
X155250000Y-120000000D01*
G36*
X155250000Y-120000000D02*
G01*
X160250000Y-120000000D01*
X160250000Y-125000000D01*
X155250000Y-125000000D01*
X155250000Y-120000000D01*
G37*
X196500000Y-31750000D02*
X204500000Y-31750000D01*
X204500000Y-33750000D01*
X196500000Y-33750000D01*
X196500000Y-31750000D01*
G36*
X196500000Y-31750000D02*
G01*
X204500000Y-31750000D01*
X204500000Y-33750000D01*
X196500000Y-33750000D01*
X196500000Y-31750000D01*
G37*
X196500000Y-74750000D02*
X204500000Y-74750000D01*
X204500000Y-76750000D01*
X196500000Y-76750000D01*
X196500000Y-74750000D01*
G36*
X196500000Y-74750000D02*
G01*
X204500000Y-74750000D01*
X204500000Y-76750000D01*
X196500000Y-76750000D01*
X196500000Y-74750000D01*
G37*
X196500000Y-117750000D02*
X204500000Y-117750000D01*
X204500000Y-119750000D01*
X196500000Y-119750000D01*
X196500000Y-117750000D01*
G36*
X196500000Y-117750000D02*
G01*
X204500000Y-117750000D01*
X204500000Y-119750000D01*
X196500000Y-119750000D01*
X196500000Y-117750000D01*
G37*
X198250000Y-34000000D02*
X203250000Y-34000000D01*
X203250000Y-39000000D01*
X198250000Y-39000000D01*
X198250000Y-34000000D01*
G36*
X198250000Y-34000000D02*
G01*
X203250000Y-34000000D01*
X203250000Y-39000000D01*
X198250000Y-39000000D01*
X198250000Y-34000000D01*
G37*
X198250000Y-77000000D02*
X203250000Y-77000000D01*
X203250000Y-82000000D01*
X198250000Y-82000000D01*
X198250000Y-77000000D01*
G36*
X198250000Y-77000000D02*
G01*
X203250000Y-77000000D01*
X203250000Y-82000000D01*
X198250000Y-82000000D01*
X198250000Y-77000000D01*
G37*
X198250000Y-120000000D02*
X203250000Y-120000000D01*
X203250000Y-125000000D01*
X198250000Y-125000000D01*
X198250000Y-120000000D01*
G36*
X198250000Y-120000000D02*
G01*
X203250000Y-120000000D01*
X203250000Y-125000000D01*
X198250000Y-125000000D01*
X198250000Y-120000000D01*
G37*
D11*
X155202819Y-67738095D02*
X155202819Y-68309523D01*
X156202819Y-68023809D02*
X155202819Y-68023809D01*
X156202819Y-68642857D02*
X155202819Y-68642857D01*
X155202819Y-68642857D02*
X155202819Y-69023809D01*
X155202819Y-69023809D02*
X155250438Y-69119047D01*
X155250438Y-69119047D02*
X155298057Y-69166666D01*
X155298057Y-69166666D02*
X155393295Y-69214285D01*
X155393295Y-69214285D02*
X155536152Y-69214285D01*
X155536152Y-69214285D02*
X155631390Y-69166666D01*
X155631390Y-69166666D02*
X155679009Y-69119047D01*
X155679009Y-69119047D02*
X155726628Y-69023809D01*
X155726628Y-69023809D02*
X155726628Y-68642857D01*
X156202819Y-70166666D02*
X156202819Y-69595238D01*
X156202819Y-69880952D02*
X155202819Y-69880952D01*
X155202819Y-69880952D02*
X155345676Y-69785714D01*
X155345676Y-69785714D02*
X155440914Y-69690476D01*
X155440914Y-69690476D02*
X155488533Y-69595238D01*
X108652819Y-153738095D02*
X108652819Y-154309523D01*
X109652819Y-154023809D02*
X108652819Y-154023809D01*
X109652819Y-154642857D02*
X108652819Y-154642857D01*
X108652819Y-154642857D02*
X108652819Y-155023809D01*
X108652819Y-155023809D02*
X108700438Y-155119047D01*
X108700438Y-155119047D02*
X108748057Y-155166666D01*
X108748057Y-155166666D02*
X108843295Y-155214285D01*
X108843295Y-155214285D02*
X108986152Y-155214285D01*
X108986152Y-155214285D02*
X109081390Y-155166666D01*
X109081390Y-155166666D02*
X109129009Y-155119047D01*
X109129009Y-155119047D02*
X109176628Y-155023809D01*
X109176628Y-155023809D02*
X109176628Y-154642857D01*
X108748057Y-155595238D02*
X108700438Y-155642857D01*
X108700438Y-155642857D02*
X108652819Y-155738095D01*
X108652819Y-155738095D02*
X108652819Y-155976190D01*
X108652819Y-155976190D02*
X108700438Y-156071428D01*
X108700438Y-156071428D02*
X108748057Y-156119047D01*
X108748057Y-156119047D02*
X108843295Y-156166666D01*
X108843295Y-156166666D02*
X108938533Y-156166666D01*
X108938533Y-156166666D02*
X109081390Y-156119047D01*
X109081390Y-156119047D02*
X109652819Y-155547619D01*
X109652819Y-155547619D02*
X109652819Y-156166666D01*
X194652819Y-153738095D02*
X194652819Y-154309523D01*
X195652819Y-154023809D02*
X194652819Y-154023809D01*
X195652819Y-154642857D02*
X194652819Y-154642857D01*
X194652819Y-154642857D02*
X194652819Y-155023809D01*
X194652819Y-155023809D02*
X194700438Y-155119047D01*
X194700438Y-155119047D02*
X194748057Y-155166666D01*
X194748057Y-155166666D02*
X194843295Y-155214285D01*
X194843295Y-155214285D02*
X194986152Y-155214285D01*
X194986152Y-155214285D02*
X195081390Y-155166666D01*
X195081390Y-155166666D02*
X195129009Y-155119047D01*
X195129009Y-155119047D02*
X195176628Y-155023809D01*
X195176628Y-155023809D02*
X195176628Y-154642857D01*
X194748057Y-155595238D02*
X194700438Y-155642857D01*
X194700438Y-155642857D02*
X194652819Y-155738095D01*
X194652819Y-155738095D02*
X194652819Y-155976190D01*
X194652819Y-155976190D02*
X194700438Y-156071428D01*
X194700438Y-156071428D02*
X194748057Y-156119047D01*
X194748057Y-156119047D02*
X194843295Y-156166666D01*
X194843295Y-156166666D02*
X194938533Y-156166666D01*
X194938533Y-156166666D02*
X195081390Y-156119047D01*
X195081390Y-156119047D02*
X195652819Y-155547619D01*
X195652819Y-155547619D02*
X195652819Y-156166666D01*
X108652819Y-67738095D02*
X108652819Y-68309523D01*
X109652819Y-68023809D02*
X108652819Y-68023809D01*
X109652819Y-68642857D02*
X108652819Y-68642857D01*
X108652819Y-68642857D02*
X108652819Y-69023809D01*
X108652819Y-69023809D02*
X108700438Y-69119047D01*
X108700438Y-69119047D02*
X108748057Y-69166666D01*
X108748057Y-69166666D02*
X108843295Y-69214285D01*
X108843295Y-69214285D02*
X108986152Y-69214285D01*
X108986152Y-69214285D02*
X109081390Y-69166666D01*
X109081390Y-69166666D02*
X109129009Y-69119047D01*
X109129009Y-69119047D02*
X109176628Y-69023809D01*
X109176628Y-69023809D02*
X109176628Y-68642857D01*
X108748057Y-69595238D02*
X108700438Y-69642857D01*
X108700438Y-69642857D02*
X108652819Y-69738095D01*
X108652819Y-69738095D02*
X108652819Y-69976190D01*
X108652819Y-69976190D02*
X108700438Y-70071428D01*
X108700438Y-70071428D02*
X108748057Y-70119047D01*
X108748057Y-70119047D02*
X108843295Y-70166666D01*
X108843295Y-70166666D02*
X108938533Y-70166666D01*
X108938533Y-70166666D02*
X109081390Y-70119047D01*
X109081390Y-70119047D02*
X109652819Y-69547619D01*
X109652819Y-69547619D02*
X109652819Y-70166666D01*
X108652819Y-110738095D02*
X108652819Y-111309523D01*
X109652819Y-111023809D02*
X108652819Y-111023809D01*
X109652819Y-111642857D02*
X108652819Y-111642857D01*
X108652819Y-111642857D02*
X108652819Y-112023809D01*
X108652819Y-112023809D02*
X108700438Y-112119047D01*
X108700438Y-112119047D02*
X108748057Y-112166666D01*
X108748057Y-112166666D02*
X108843295Y-112214285D01*
X108843295Y-112214285D02*
X108986152Y-112214285D01*
X108986152Y-112214285D02*
X109081390Y-112166666D01*
X109081390Y-112166666D02*
X109129009Y-112119047D01*
X109129009Y-112119047D02*
X109176628Y-112023809D01*
X109176628Y-112023809D02*
X109176628Y-111642857D01*
X108748057Y-112595238D02*
X108700438Y-112642857D01*
X108700438Y-112642857D02*
X108652819Y-112738095D01*
X108652819Y-112738095D02*
X108652819Y-112976190D01*
X108652819Y-112976190D02*
X108700438Y-113071428D01*
X108700438Y-113071428D02*
X108748057Y-113119047D01*
X108748057Y-113119047D02*
X108843295Y-113166666D01*
X108843295Y-113166666D02*
X108938533Y-113166666D01*
X108938533Y-113166666D02*
X109081390Y-113119047D01*
X109081390Y-113119047D02*
X109652819Y-112547619D01*
X109652819Y-112547619D02*
X109652819Y-113166666D01*
X155202819Y-153738095D02*
X155202819Y-154309523D01*
X156202819Y-154023809D02*
X155202819Y-154023809D01*
X156202819Y-154642857D02*
X155202819Y-154642857D01*
X155202819Y-154642857D02*
X155202819Y-155023809D01*
X155202819Y-155023809D02*
X155250438Y-155119047D01*
X155250438Y-155119047D02*
X155298057Y-155166666D01*
X155298057Y-155166666D02*
X155393295Y-155214285D01*
X155393295Y-155214285D02*
X155536152Y-155214285D01*
X155536152Y-155214285D02*
X155631390Y-155166666D01*
X155631390Y-155166666D02*
X155679009Y-155119047D01*
X155679009Y-155119047D02*
X155726628Y-155023809D01*
X155726628Y-155023809D02*
X155726628Y-154642857D01*
X156202819Y-156166666D02*
X156202819Y-155595238D01*
X156202819Y-155880952D02*
X155202819Y-155880952D01*
X155202819Y-155880952D02*
X155345676Y-155785714D01*
X155345676Y-155785714D02*
X155440914Y-155690476D01*
X155440914Y-155690476D02*
X155488533Y-155595238D01*
X151652819Y-67738095D02*
X151652819Y-68309523D01*
X152652819Y-68023809D02*
X151652819Y-68023809D01*
X152652819Y-68642857D02*
X151652819Y-68642857D01*
X151652819Y-68642857D02*
X151652819Y-69023809D01*
X151652819Y-69023809D02*
X151700438Y-69119047D01*
X151700438Y-69119047D02*
X151748057Y-69166666D01*
X151748057Y-69166666D02*
X151843295Y-69214285D01*
X151843295Y-69214285D02*
X151986152Y-69214285D01*
X151986152Y-69214285D02*
X152081390Y-69166666D01*
X152081390Y-69166666D02*
X152129009Y-69119047D01*
X152129009Y-69119047D02*
X152176628Y-69023809D01*
X152176628Y-69023809D02*
X152176628Y-68642857D01*
X151748057Y-69595238D02*
X151700438Y-69642857D01*
X151700438Y-69642857D02*
X151652819Y-69738095D01*
X151652819Y-69738095D02*
X151652819Y-69976190D01*
X151652819Y-69976190D02*
X151700438Y-70071428D01*
X151700438Y-70071428D02*
X151748057Y-70119047D01*
X151748057Y-70119047D02*
X151843295Y-70166666D01*
X151843295Y-70166666D02*
X151938533Y-70166666D01*
X151938533Y-70166666D02*
X152081390Y-70119047D01*
X152081390Y-70119047D02*
X152652819Y-69547619D01*
X152652819Y-69547619D02*
X152652819Y-70166666D01*
X191102819Y-153738095D02*
X191102819Y-154309523D01*
X192102819Y-154023809D02*
X191102819Y-154023809D01*
X192102819Y-154642857D02*
X191102819Y-154642857D01*
X191102819Y-154642857D02*
X191102819Y-155023809D01*
X191102819Y-155023809D02*
X191150438Y-155119047D01*
X191150438Y-155119047D02*
X191198057Y-155166666D01*
X191198057Y-155166666D02*
X191293295Y-155214285D01*
X191293295Y-155214285D02*
X191436152Y-155214285D01*
X191436152Y-155214285D02*
X191531390Y-155166666D01*
X191531390Y-155166666D02*
X191579009Y-155119047D01*
X191579009Y-155119047D02*
X191626628Y-155023809D01*
X191626628Y-155023809D02*
X191626628Y-154642857D01*
X191102819Y-155547619D02*
X191102819Y-156166666D01*
X191102819Y-156166666D02*
X191483771Y-155833333D01*
X191483771Y-155833333D02*
X191483771Y-155976190D01*
X191483771Y-155976190D02*
X191531390Y-156071428D01*
X191531390Y-156071428D02*
X191579009Y-156119047D01*
X191579009Y-156119047D02*
X191674247Y-156166666D01*
X191674247Y-156166666D02*
X191912342Y-156166666D01*
X191912342Y-156166666D02*
X192007580Y-156119047D01*
X192007580Y-156119047D02*
X192055200Y-156071428D01*
X192055200Y-156071428D02*
X192102819Y-155976190D01*
X192102819Y-155976190D02*
X192102819Y-155690476D01*
X192102819Y-155690476D02*
X192055200Y-155595238D01*
X192055200Y-155595238D02*
X192007580Y-155547619D01*
X148102819Y-110738095D02*
X148102819Y-111309523D01*
X149102819Y-111023809D02*
X148102819Y-111023809D01*
X149102819Y-111642857D02*
X148102819Y-111642857D01*
X148102819Y-111642857D02*
X148102819Y-112023809D01*
X148102819Y-112023809D02*
X148150438Y-112119047D01*
X148150438Y-112119047D02*
X148198057Y-112166666D01*
X148198057Y-112166666D02*
X148293295Y-112214285D01*
X148293295Y-112214285D02*
X148436152Y-112214285D01*
X148436152Y-112214285D02*
X148531390Y-112166666D01*
X148531390Y-112166666D02*
X148579009Y-112119047D01*
X148579009Y-112119047D02*
X148626628Y-112023809D01*
X148626628Y-112023809D02*
X148626628Y-111642857D01*
X148102819Y-112547619D02*
X148102819Y-113166666D01*
X148102819Y-113166666D02*
X148483771Y-112833333D01*
X148483771Y-112833333D02*
X148483771Y-112976190D01*
X148483771Y-112976190D02*
X148531390Y-113071428D01*
X148531390Y-113071428D02*
X148579009Y-113119047D01*
X148579009Y-113119047D02*
X148674247Y-113166666D01*
X148674247Y-113166666D02*
X148912342Y-113166666D01*
X148912342Y-113166666D02*
X149007580Y-113119047D01*
X149007580Y-113119047D02*
X149055200Y-113071428D01*
X149055200Y-113071428D02*
X149102819Y-112976190D01*
X149102819Y-112976190D02*
X149102819Y-112690476D01*
X149102819Y-112690476D02*
X149055200Y-112595238D01*
X149055200Y-112595238D02*
X149007580Y-112547619D01*
X187552819Y-67738095D02*
X187552819Y-68309523D01*
X188552819Y-68023809D02*
X187552819Y-68023809D01*
X188552819Y-68642857D02*
X187552819Y-68642857D01*
X187552819Y-68642857D02*
X187552819Y-69023809D01*
X187552819Y-69023809D02*
X187600438Y-69119047D01*
X187600438Y-69119047D02*
X187648057Y-69166666D01*
X187648057Y-69166666D02*
X187743295Y-69214285D01*
X187743295Y-69214285D02*
X187886152Y-69214285D01*
X187886152Y-69214285D02*
X187981390Y-69166666D01*
X187981390Y-69166666D02*
X188029009Y-69119047D01*
X188029009Y-69119047D02*
X188076628Y-69023809D01*
X188076628Y-69023809D02*
X188076628Y-68642857D01*
X187886152Y-70071428D02*
X188552819Y-70071428D01*
X187505200Y-69833333D02*
X188219485Y-69595238D01*
X188219485Y-69595238D02*
X188219485Y-70214285D01*
X148102819Y-153738095D02*
X148102819Y-154309523D01*
X149102819Y-154023809D02*
X148102819Y-154023809D01*
X149102819Y-154642857D02*
X148102819Y-154642857D01*
X148102819Y-154642857D02*
X148102819Y-155023809D01*
X148102819Y-155023809D02*
X148150438Y-155119047D01*
X148150438Y-155119047D02*
X148198057Y-155166666D01*
X148198057Y-155166666D02*
X148293295Y-155214285D01*
X148293295Y-155214285D02*
X148436152Y-155214285D01*
X148436152Y-155214285D02*
X148531390Y-155166666D01*
X148531390Y-155166666D02*
X148579009Y-155119047D01*
X148579009Y-155119047D02*
X148626628Y-155023809D01*
X148626628Y-155023809D02*
X148626628Y-154642857D01*
X148102819Y-155547619D02*
X148102819Y-156166666D01*
X148102819Y-156166666D02*
X148483771Y-155833333D01*
X148483771Y-155833333D02*
X148483771Y-155976190D01*
X148483771Y-155976190D02*
X148531390Y-156071428D01*
X148531390Y-156071428D02*
X148579009Y-156119047D01*
X148579009Y-156119047D02*
X148674247Y-156166666D01*
X148674247Y-156166666D02*
X148912342Y-156166666D01*
X148912342Y-156166666D02*
X149007580Y-156119047D01*
X149007580Y-156119047D02*
X149055200Y-156071428D01*
X149055200Y-156071428D02*
X149102819Y-155976190D01*
X149102819Y-155976190D02*
X149102819Y-155690476D01*
X149102819Y-155690476D02*
X149055200Y-155595238D01*
X149055200Y-155595238D02*
X149007580Y-155547619D01*
X155202819Y-110738095D02*
X155202819Y-111309523D01*
X156202819Y-111023809D02*
X155202819Y-111023809D01*
X156202819Y-111642857D02*
X155202819Y-111642857D01*
X155202819Y-111642857D02*
X155202819Y-112023809D01*
X155202819Y-112023809D02*
X155250438Y-112119047D01*
X155250438Y-112119047D02*
X155298057Y-112166666D01*
X155298057Y-112166666D02*
X155393295Y-112214285D01*
X155393295Y-112214285D02*
X155536152Y-112214285D01*
X155536152Y-112214285D02*
X155631390Y-112166666D01*
X155631390Y-112166666D02*
X155679009Y-112119047D01*
X155679009Y-112119047D02*
X155726628Y-112023809D01*
X155726628Y-112023809D02*
X155726628Y-111642857D01*
X156202819Y-113166666D02*
X156202819Y-112595238D01*
X156202819Y-112880952D02*
X155202819Y-112880952D01*
X155202819Y-112880952D02*
X155345676Y-112785714D01*
X155345676Y-112785714D02*
X155440914Y-112690476D01*
X155440914Y-112690476D02*
X155488533Y-112595238D01*
X194652819Y-67738095D02*
X194652819Y-68309523D01*
X195652819Y-68023809D02*
X194652819Y-68023809D01*
X195652819Y-68642857D02*
X194652819Y-68642857D01*
X194652819Y-68642857D02*
X194652819Y-69023809D01*
X194652819Y-69023809D02*
X194700438Y-69119047D01*
X194700438Y-69119047D02*
X194748057Y-69166666D01*
X194748057Y-69166666D02*
X194843295Y-69214285D01*
X194843295Y-69214285D02*
X194986152Y-69214285D01*
X194986152Y-69214285D02*
X195081390Y-69166666D01*
X195081390Y-69166666D02*
X195129009Y-69119047D01*
X195129009Y-69119047D02*
X195176628Y-69023809D01*
X195176628Y-69023809D02*
X195176628Y-68642857D01*
X194748057Y-69595238D02*
X194700438Y-69642857D01*
X194700438Y-69642857D02*
X194652819Y-69738095D01*
X194652819Y-69738095D02*
X194652819Y-69976190D01*
X194652819Y-69976190D02*
X194700438Y-70071428D01*
X194700438Y-70071428D02*
X194748057Y-70119047D01*
X194748057Y-70119047D02*
X194843295Y-70166666D01*
X194843295Y-70166666D02*
X194938533Y-70166666D01*
X194938533Y-70166666D02*
X195081390Y-70119047D01*
X195081390Y-70119047D02*
X195652819Y-69547619D01*
X195652819Y-69547619D02*
X195652819Y-70166666D01*
X151652819Y-110738095D02*
X151652819Y-111309523D01*
X152652819Y-111023809D02*
X151652819Y-111023809D01*
X152652819Y-111642857D02*
X151652819Y-111642857D01*
X151652819Y-111642857D02*
X151652819Y-112023809D01*
X151652819Y-112023809D02*
X151700438Y-112119047D01*
X151700438Y-112119047D02*
X151748057Y-112166666D01*
X151748057Y-112166666D02*
X151843295Y-112214285D01*
X151843295Y-112214285D02*
X151986152Y-112214285D01*
X151986152Y-112214285D02*
X152081390Y-112166666D01*
X152081390Y-112166666D02*
X152129009Y-112119047D01*
X152129009Y-112119047D02*
X152176628Y-112023809D01*
X152176628Y-112023809D02*
X152176628Y-111642857D01*
X151748057Y-112595238D02*
X151700438Y-112642857D01*
X151700438Y-112642857D02*
X151652819Y-112738095D01*
X151652819Y-112738095D02*
X151652819Y-112976190D01*
X151652819Y-112976190D02*
X151700438Y-113071428D01*
X151700438Y-113071428D02*
X151748057Y-113119047D01*
X151748057Y-113119047D02*
X151843295Y-113166666D01*
X151843295Y-113166666D02*
X151938533Y-113166666D01*
X151938533Y-113166666D02*
X152081390Y-113119047D01*
X152081390Y-113119047D02*
X152652819Y-112547619D01*
X152652819Y-112547619D02*
X152652819Y-113166666D01*
X112202819Y-153738095D02*
X112202819Y-154309523D01*
X113202819Y-154023809D02*
X112202819Y-154023809D01*
X113202819Y-154642857D02*
X112202819Y-154642857D01*
X112202819Y-154642857D02*
X112202819Y-155023809D01*
X112202819Y-155023809D02*
X112250438Y-155119047D01*
X112250438Y-155119047D02*
X112298057Y-155166666D01*
X112298057Y-155166666D02*
X112393295Y-155214285D01*
X112393295Y-155214285D02*
X112536152Y-155214285D01*
X112536152Y-155214285D02*
X112631390Y-155166666D01*
X112631390Y-155166666D02*
X112679009Y-155119047D01*
X112679009Y-155119047D02*
X112726628Y-155023809D01*
X112726628Y-155023809D02*
X112726628Y-154642857D01*
X113202819Y-156166666D02*
X113202819Y-155595238D01*
X113202819Y-155880952D02*
X112202819Y-155880952D01*
X112202819Y-155880952D02*
X112345676Y-155785714D01*
X112345676Y-155785714D02*
X112440914Y-155690476D01*
X112440914Y-155690476D02*
X112488533Y-155595238D01*
X148102819Y-67738095D02*
X148102819Y-68309523D01*
X149102819Y-68023809D02*
X148102819Y-68023809D01*
X149102819Y-68642857D02*
X148102819Y-68642857D01*
X148102819Y-68642857D02*
X148102819Y-69023809D01*
X148102819Y-69023809D02*
X148150438Y-69119047D01*
X148150438Y-69119047D02*
X148198057Y-69166666D01*
X148198057Y-69166666D02*
X148293295Y-69214285D01*
X148293295Y-69214285D02*
X148436152Y-69214285D01*
X148436152Y-69214285D02*
X148531390Y-69166666D01*
X148531390Y-69166666D02*
X148579009Y-69119047D01*
X148579009Y-69119047D02*
X148626628Y-69023809D01*
X148626628Y-69023809D02*
X148626628Y-68642857D01*
X148102819Y-69547619D02*
X148102819Y-70166666D01*
X148102819Y-70166666D02*
X148483771Y-69833333D01*
X148483771Y-69833333D02*
X148483771Y-69976190D01*
X148483771Y-69976190D02*
X148531390Y-70071428D01*
X148531390Y-70071428D02*
X148579009Y-70119047D01*
X148579009Y-70119047D02*
X148674247Y-70166666D01*
X148674247Y-70166666D02*
X148912342Y-70166666D01*
X148912342Y-70166666D02*
X149007580Y-70119047D01*
X149007580Y-70119047D02*
X149055200Y-70071428D01*
X149055200Y-70071428D02*
X149102819Y-69976190D01*
X149102819Y-69976190D02*
X149102819Y-69690476D01*
X149102819Y-69690476D02*
X149055200Y-69595238D01*
X149055200Y-69595238D02*
X149007580Y-69547619D01*
X105102819Y-67738095D02*
X105102819Y-68309523D01*
X106102819Y-68023809D02*
X105102819Y-68023809D01*
X106102819Y-68642857D02*
X105102819Y-68642857D01*
X105102819Y-68642857D02*
X105102819Y-69023809D01*
X105102819Y-69023809D02*
X105150438Y-69119047D01*
X105150438Y-69119047D02*
X105198057Y-69166666D01*
X105198057Y-69166666D02*
X105293295Y-69214285D01*
X105293295Y-69214285D02*
X105436152Y-69214285D01*
X105436152Y-69214285D02*
X105531390Y-69166666D01*
X105531390Y-69166666D02*
X105579009Y-69119047D01*
X105579009Y-69119047D02*
X105626628Y-69023809D01*
X105626628Y-69023809D02*
X105626628Y-68642857D01*
X105102819Y-69547619D02*
X105102819Y-70166666D01*
X105102819Y-70166666D02*
X105483771Y-69833333D01*
X105483771Y-69833333D02*
X105483771Y-69976190D01*
X105483771Y-69976190D02*
X105531390Y-70071428D01*
X105531390Y-70071428D02*
X105579009Y-70119047D01*
X105579009Y-70119047D02*
X105674247Y-70166666D01*
X105674247Y-70166666D02*
X105912342Y-70166666D01*
X105912342Y-70166666D02*
X106007580Y-70119047D01*
X106007580Y-70119047D02*
X106055200Y-70071428D01*
X106055200Y-70071428D02*
X106102819Y-69976190D01*
X106102819Y-69976190D02*
X106102819Y-69690476D01*
X106102819Y-69690476D02*
X106055200Y-69595238D01*
X106055200Y-69595238D02*
X106007580Y-69547619D01*
X105102819Y-153738095D02*
X105102819Y-154309523D01*
X106102819Y-154023809D02*
X105102819Y-154023809D01*
X106102819Y-154642857D02*
X105102819Y-154642857D01*
X105102819Y-154642857D02*
X105102819Y-155023809D01*
X105102819Y-155023809D02*
X105150438Y-155119047D01*
X105150438Y-155119047D02*
X105198057Y-155166666D01*
X105198057Y-155166666D02*
X105293295Y-155214285D01*
X105293295Y-155214285D02*
X105436152Y-155214285D01*
X105436152Y-155214285D02*
X105531390Y-155166666D01*
X105531390Y-155166666D02*
X105579009Y-155119047D01*
X105579009Y-155119047D02*
X105626628Y-155023809D01*
X105626628Y-155023809D02*
X105626628Y-154642857D01*
X105102819Y-155547619D02*
X105102819Y-156166666D01*
X105102819Y-156166666D02*
X105483771Y-155833333D01*
X105483771Y-155833333D02*
X105483771Y-155976190D01*
X105483771Y-155976190D02*
X105531390Y-156071428D01*
X105531390Y-156071428D02*
X105579009Y-156119047D01*
X105579009Y-156119047D02*
X105674247Y-156166666D01*
X105674247Y-156166666D02*
X105912342Y-156166666D01*
X105912342Y-156166666D02*
X106007580Y-156119047D01*
X106007580Y-156119047D02*
X106055200Y-156071428D01*
X106055200Y-156071428D02*
X106102819Y-155976190D01*
X106102819Y-155976190D02*
X106102819Y-155690476D01*
X106102819Y-155690476D02*
X106055200Y-155595238D01*
X106055200Y-155595238D02*
X106007580Y-155547619D01*
X101552819Y-153738095D02*
X101552819Y-154309523D01*
X102552819Y-154023809D02*
X101552819Y-154023809D01*
X102552819Y-154642857D02*
X101552819Y-154642857D01*
X101552819Y-154642857D02*
X101552819Y-155023809D01*
X101552819Y-155023809D02*
X101600438Y-155119047D01*
X101600438Y-155119047D02*
X101648057Y-155166666D01*
X101648057Y-155166666D02*
X101743295Y-155214285D01*
X101743295Y-155214285D02*
X101886152Y-155214285D01*
X101886152Y-155214285D02*
X101981390Y-155166666D01*
X101981390Y-155166666D02*
X102029009Y-155119047D01*
X102029009Y-155119047D02*
X102076628Y-155023809D01*
X102076628Y-155023809D02*
X102076628Y-154642857D01*
X101886152Y-156071428D02*
X102552819Y-156071428D01*
X101505200Y-155833333D02*
X102219485Y-155595238D01*
X102219485Y-155595238D02*
X102219485Y-156214285D01*
X198202819Y-67738095D02*
X198202819Y-68309523D01*
X199202819Y-68023809D02*
X198202819Y-68023809D01*
X199202819Y-68642857D02*
X198202819Y-68642857D01*
X198202819Y-68642857D02*
X198202819Y-69023809D01*
X198202819Y-69023809D02*
X198250438Y-69119047D01*
X198250438Y-69119047D02*
X198298057Y-69166666D01*
X198298057Y-69166666D02*
X198393295Y-69214285D01*
X198393295Y-69214285D02*
X198536152Y-69214285D01*
X198536152Y-69214285D02*
X198631390Y-69166666D01*
X198631390Y-69166666D02*
X198679009Y-69119047D01*
X198679009Y-69119047D02*
X198726628Y-69023809D01*
X198726628Y-69023809D02*
X198726628Y-68642857D01*
X199202819Y-70166666D02*
X199202819Y-69595238D01*
X199202819Y-69880952D02*
X198202819Y-69880952D01*
X198202819Y-69880952D02*
X198345676Y-69785714D01*
X198345676Y-69785714D02*
X198440914Y-69690476D01*
X198440914Y-69690476D02*
X198488533Y-69595238D01*
X112202819Y-110738095D02*
X112202819Y-111309523D01*
X113202819Y-111023809D02*
X112202819Y-111023809D01*
X113202819Y-111642857D02*
X112202819Y-111642857D01*
X112202819Y-111642857D02*
X112202819Y-112023809D01*
X112202819Y-112023809D02*
X112250438Y-112119047D01*
X112250438Y-112119047D02*
X112298057Y-112166666D01*
X112298057Y-112166666D02*
X112393295Y-112214285D01*
X112393295Y-112214285D02*
X112536152Y-112214285D01*
X112536152Y-112214285D02*
X112631390Y-112166666D01*
X112631390Y-112166666D02*
X112679009Y-112119047D01*
X112679009Y-112119047D02*
X112726628Y-112023809D01*
X112726628Y-112023809D02*
X112726628Y-111642857D01*
X113202819Y-113166666D02*
X113202819Y-112595238D01*
X113202819Y-112880952D02*
X112202819Y-112880952D01*
X112202819Y-112880952D02*
X112345676Y-112785714D01*
X112345676Y-112785714D02*
X112440914Y-112690476D01*
X112440914Y-112690476D02*
X112488533Y-112595238D01*
X144552819Y-110738095D02*
X144552819Y-111309523D01*
X145552819Y-111023809D02*
X144552819Y-111023809D01*
X145552819Y-111642857D02*
X144552819Y-111642857D01*
X144552819Y-111642857D02*
X144552819Y-112023809D01*
X144552819Y-112023809D02*
X144600438Y-112119047D01*
X144600438Y-112119047D02*
X144648057Y-112166666D01*
X144648057Y-112166666D02*
X144743295Y-112214285D01*
X144743295Y-112214285D02*
X144886152Y-112214285D01*
X144886152Y-112214285D02*
X144981390Y-112166666D01*
X144981390Y-112166666D02*
X145029009Y-112119047D01*
X145029009Y-112119047D02*
X145076628Y-112023809D01*
X145076628Y-112023809D02*
X145076628Y-111642857D01*
X144886152Y-113071428D02*
X145552819Y-113071428D01*
X144505200Y-112833333D02*
X145219485Y-112595238D01*
X145219485Y-112595238D02*
X145219485Y-113214285D01*
X101552819Y-110738095D02*
X101552819Y-111309523D01*
X102552819Y-111023809D02*
X101552819Y-111023809D01*
X102552819Y-111642857D02*
X101552819Y-111642857D01*
X101552819Y-111642857D02*
X101552819Y-112023809D01*
X101552819Y-112023809D02*
X101600438Y-112119047D01*
X101600438Y-112119047D02*
X101648057Y-112166666D01*
X101648057Y-112166666D02*
X101743295Y-112214285D01*
X101743295Y-112214285D02*
X101886152Y-112214285D01*
X101886152Y-112214285D02*
X101981390Y-112166666D01*
X101981390Y-112166666D02*
X102029009Y-112119047D01*
X102029009Y-112119047D02*
X102076628Y-112023809D01*
X102076628Y-112023809D02*
X102076628Y-111642857D01*
X101886152Y-113071428D02*
X102552819Y-113071428D01*
X101505200Y-112833333D02*
X102219485Y-112595238D01*
X102219485Y-112595238D02*
X102219485Y-113214285D01*
X151652819Y-153738095D02*
X151652819Y-154309523D01*
X152652819Y-154023809D02*
X151652819Y-154023809D01*
X152652819Y-154642857D02*
X151652819Y-154642857D01*
X151652819Y-154642857D02*
X151652819Y-155023809D01*
X151652819Y-155023809D02*
X151700438Y-155119047D01*
X151700438Y-155119047D02*
X151748057Y-155166666D01*
X151748057Y-155166666D02*
X151843295Y-155214285D01*
X151843295Y-155214285D02*
X151986152Y-155214285D01*
X151986152Y-155214285D02*
X152081390Y-155166666D01*
X152081390Y-155166666D02*
X152129009Y-155119047D01*
X152129009Y-155119047D02*
X152176628Y-155023809D01*
X152176628Y-155023809D02*
X152176628Y-154642857D01*
X151748057Y-155595238D02*
X151700438Y-155642857D01*
X151700438Y-155642857D02*
X151652819Y-155738095D01*
X151652819Y-155738095D02*
X151652819Y-155976190D01*
X151652819Y-155976190D02*
X151700438Y-156071428D01*
X151700438Y-156071428D02*
X151748057Y-156119047D01*
X151748057Y-156119047D02*
X151843295Y-156166666D01*
X151843295Y-156166666D02*
X151938533Y-156166666D01*
X151938533Y-156166666D02*
X152081390Y-156119047D01*
X152081390Y-156119047D02*
X152652819Y-155547619D01*
X152652819Y-155547619D02*
X152652819Y-156166666D01*
X144552819Y-153738095D02*
X144552819Y-154309523D01*
X145552819Y-154023809D02*
X144552819Y-154023809D01*
X145552819Y-154642857D02*
X144552819Y-154642857D01*
X144552819Y-154642857D02*
X144552819Y-155023809D01*
X144552819Y-155023809D02*
X144600438Y-155119047D01*
X144600438Y-155119047D02*
X144648057Y-155166666D01*
X144648057Y-155166666D02*
X144743295Y-155214285D01*
X144743295Y-155214285D02*
X144886152Y-155214285D01*
X144886152Y-155214285D02*
X144981390Y-155166666D01*
X144981390Y-155166666D02*
X145029009Y-155119047D01*
X145029009Y-155119047D02*
X145076628Y-155023809D01*
X145076628Y-155023809D02*
X145076628Y-154642857D01*
X144886152Y-156071428D02*
X145552819Y-156071428D01*
X144505200Y-155833333D02*
X145219485Y-155595238D01*
X145219485Y-155595238D02*
X145219485Y-156214285D01*
X194652819Y-110738095D02*
X194652819Y-111309523D01*
X195652819Y-111023809D02*
X194652819Y-111023809D01*
X195652819Y-111642857D02*
X194652819Y-111642857D01*
X194652819Y-111642857D02*
X194652819Y-112023809D01*
X194652819Y-112023809D02*
X194700438Y-112119047D01*
X194700438Y-112119047D02*
X194748057Y-112166666D01*
X194748057Y-112166666D02*
X194843295Y-112214285D01*
X194843295Y-112214285D02*
X194986152Y-112214285D01*
X194986152Y-112214285D02*
X195081390Y-112166666D01*
X195081390Y-112166666D02*
X195129009Y-112119047D01*
X195129009Y-112119047D02*
X195176628Y-112023809D01*
X195176628Y-112023809D02*
X195176628Y-111642857D01*
X194748057Y-112595238D02*
X194700438Y-112642857D01*
X194700438Y-112642857D02*
X194652819Y-112738095D01*
X194652819Y-112738095D02*
X194652819Y-112976190D01*
X194652819Y-112976190D02*
X194700438Y-113071428D01*
X194700438Y-113071428D02*
X194748057Y-113119047D01*
X194748057Y-113119047D02*
X194843295Y-113166666D01*
X194843295Y-113166666D02*
X194938533Y-113166666D01*
X194938533Y-113166666D02*
X195081390Y-113119047D01*
X195081390Y-113119047D02*
X195652819Y-112547619D01*
X195652819Y-112547619D02*
X195652819Y-113166666D01*
X112202819Y-67738095D02*
X112202819Y-68309523D01*
X113202819Y-68023809D02*
X112202819Y-68023809D01*
X113202819Y-68642857D02*
X112202819Y-68642857D01*
X112202819Y-68642857D02*
X112202819Y-69023809D01*
X112202819Y-69023809D02*
X112250438Y-69119047D01*
X112250438Y-69119047D02*
X112298057Y-69166666D01*
X112298057Y-69166666D02*
X112393295Y-69214285D01*
X112393295Y-69214285D02*
X112536152Y-69214285D01*
X112536152Y-69214285D02*
X112631390Y-69166666D01*
X112631390Y-69166666D02*
X112679009Y-69119047D01*
X112679009Y-69119047D02*
X112726628Y-69023809D01*
X112726628Y-69023809D02*
X112726628Y-68642857D01*
X113202819Y-70166666D02*
X113202819Y-69595238D01*
X113202819Y-69880952D02*
X112202819Y-69880952D01*
X112202819Y-69880952D02*
X112345676Y-69785714D01*
X112345676Y-69785714D02*
X112440914Y-69690476D01*
X112440914Y-69690476D02*
X112488533Y-69595238D01*
X144552819Y-67738095D02*
X144552819Y-68309523D01*
X145552819Y-68023809D02*
X144552819Y-68023809D01*
X145552819Y-68642857D02*
X144552819Y-68642857D01*
X144552819Y-68642857D02*
X144552819Y-69023809D01*
X144552819Y-69023809D02*
X144600438Y-69119047D01*
X144600438Y-69119047D02*
X144648057Y-69166666D01*
X144648057Y-69166666D02*
X144743295Y-69214285D01*
X144743295Y-69214285D02*
X144886152Y-69214285D01*
X144886152Y-69214285D02*
X144981390Y-69166666D01*
X144981390Y-69166666D02*
X145029009Y-69119047D01*
X145029009Y-69119047D02*
X145076628Y-69023809D01*
X145076628Y-69023809D02*
X145076628Y-68642857D01*
X144886152Y-70071428D02*
X145552819Y-70071428D01*
X144505200Y-69833333D02*
X145219485Y-69595238D01*
X145219485Y-69595238D02*
X145219485Y-70214285D01*
X187552819Y-153738095D02*
X187552819Y-154309523D01*
X188552819Y-154023809D02*
X187552819Y-154023809D01*
X188552819Y-154642857D02*
X187552819Y-154642857D01*
X187552819Y-154642857D02*
X187552819Y-155023809D01*
X187552819Y-155023809D02*
X187600438Y-155119047D01*
X187600438Y-155119047D02*
X187648057Y-155166666D01*
X187648057Y-155166666D02*
X187743295Y-155214285D01*
X187743295Y-155214285D02*
X187886152Y-155214285D01*
X187886152Y-155214285D02*
X187981390Y-155166666D01*
X187981390Y-155166666D02*
X188029009Y-155119047D01*
X188029009Y-155119047D02*
X188076628Y-155023809D01*
X188076628Y-155023809D02*
X188076628Y-154642857D01*
X187886152Y-156071428D02*
X188552819Y-156071428D01*
X187505200Y-155833333D02*
X188219485Y-155595238D01*
X188219485Y-155595238D02*
X188219485Y-156214285D01*
X198202819Y-110738095D02*
X198202819Y-111309523D01*
X199202819Y-111023809D02*
X198202819Y-111023809D01*
X199202819Y-111642857D02*
X198202819Y-111642857D01*
X198202819Y-111642857D02*
X198202819Y-112023809D01*
X198202819Y-112023809D02*
X198250438Y-112119047D01*
X198250438Y-112119047D02*
X198298057Y-112166666D01*
X198298057Y-112166666D02*
X198393295Y-112214285D01*
X198393295Y-112214285D02*
X198536152Y-112214285D01*
X198536152Y-112214285D02*
X198631390Y-112166666D01*
X198631390Y-112166666D02*
X198679009Y-112119047D01*
X198679009Y-112119047D02*
X198726628Y-112023809D01*
X198726628Y-112023809D02*
X198726628Y-111642857D01*
X199202819Y-113166666D02*
X199202819Y-112595238D01*
X199202819Y-112880952D02*
X198202819Y-112880952D01*
X198202819Y-112880952D02*
X198345676Y-112785714D01*
X198345676Y-112785714D02*
X198440914Y-112690476D01*
X198440914Y-112690476D02*
X198488533Y-112595238D01*
X105102819Y-110738095D02*
X105102819Y-111309523D01*
X106102819Y-111023809D02*
X105102819Y-111023809D01*
X106102819Y-111642857D02*
X105102819Y-111642857D01*
X105102819Y-111642857D02*
X105102819Y-112023809D01*
X105102819Y-112023809D02*
X105150438Y-112119047D01*
X105150438Y-112119047D02*
X105198057Y-112166666D01*
X105198057Y-112166666D02*
X105293295Y-112214285D01*
X105293295Y-112214285D02*
X105436152Y-112214285D01*
X105436152Y-112214285D02*
X105531390Y-112166666D01*
X105531390Y-112166666D02*
X105579009Y-112119047D01*
X105579009Y-112119047D02*
X105626628Y-112023809D01*
X105626628Y-112023809D02*
X105626628Y-111642857D01*
X105102819Y-112547619D02*
X105102819Y-113166666D01*
X105102819Y-113166666D02*
X105483771Y-112833333D01*
X105483771Y-112833333D02*
X105483771Y-112976190D01*
X105483771Y-112976190D02*
X105531390Y-113071428D01*
X105531390Y-113071428D02*
X105579009Y-113119047D01*
X105579009Y-113119047D02*
X105674247Y-113166666D01*
X105674247Y-113166666D02*
X105912342Y-113166666D01*
X105912342Y-113166666D02*
X106007580Y-113119047D01*
X106007580Y-113119047D02*
X106055200Y-113071428D01*
X106055200Y-113071428D02*
X106102819Y-112976190D01*
X106102819Y-112976190D02*
X106102819Y-112690476D01*
X106102819Y-112690476D02*
X106055200Y-112595238D01*
X106055200Y-112595238D02*
X106007580Y-112547619D01*
X101552819Y-67738095D02*
X101552819Y-68309523D01*
X102552819Y-68023809D02*
X101552819Y-68023809D01*
X102552819Y-68642857D02*
X101552819Y-68642857D01*
X101552819Y-68642857D02*
X101552819Y-69023809D01*
X101552819Y-69023809D02*
X101600438Y-69119047D01*
X101600438Y-69119047D02*
X101648057Y-69166666D01*
X101648057Y-69166666D02*
X101743295Y-69214285D01*
X101743295Y-69214285D02*
X101886152Y-69214285D01*
X101886152Y-69214285D02*
X101981390Y-69166666D01*
X101981390Y-69166666D02*
X102029009Y-69119047D01*
X102029009Y-69119047D02*
X102076628Y-69023809D01*
X102076628Y-69023809D02*
X102076628Y-68642857D01*
X101886152Y-70071428D02*
X102552819Y-70071428D01*
X101505200Y-69833333D02*
X102219485Y-69595238D01*
X102219485Y-69595238D02*
X102219485Y-70214285D01*
X187552819Y-110738095D02*
X187552819Y-111309523D01*
X188552819Y-111023809D02*
X187552819Y-111023809D01*
X188552819Y-111642857D02*
X187552819Y-111642857D01*
X187552819Y-111642857D02*
X187552819Y-112023809D01*
X187552819Y-112023809D02*
X187600438Y-112119047D01*
X187600438Y-112119047D02*
X187648057Y-112166666D01*
X187648057Y-112166666D02*
X187743295Y-112214285D01*
X187743295Y-112214285D02*
X187886152Y-112214285D01*
X187886152Y-112214285D02*
X187981390Y-112166666D01*
X187981390Y-112166666D02*
X188029009Y-112119047D01*
X188029009Y-112119047D02*
X188076628Y-112023809D01*
X188076628Y-112023809D02*
X188076628Y-111642857D01*
X187886152Y-113071428D02*
X188552819Y-113071428D01*
X187505200Y-112833333D02*
X188219485Y-112595238D01*
X188219485Y-112595238D02*
X188219485Y-113214285D01*
X191102819Y-67738095D02*
X191102819Y-68309523D01*
X192102819Y-68023809D02*
X191102819Y-68023809D01*
X192102819Y-68642857D02*
X191102819Y-68642857D01*
X191102819Y-68642857D02*
X191102819Y-69023809D01*
X191102819Y-69023809D02*
X191150438Y-69119047D01*
X191150438Y-69119047D02*
X191198057Y-69166666D01*
X191198057Y-69166666D02*
X191293295Y-69214285D01*
X191293295Y-69214285D02*
X191436152Y-69214285D01*
X191436152Y-69214285D02*
X191531390Y-69166666D01*
X191531390Y-69166666D02*
X191579009Y-69119047D01*
X191579009Y-69119047D02*
X191626628Y-69023809D01*
X191626628Y-69023809D02*
X191626628Y-68642857D01*
X191102819Y-69547619D02*
X191102819Y-70166666D01*
X191102819Y-70166666D02*
X191483771Y-69833333D01*
X191483771Y-69833333D02*
X191483771Y-69976190D01*
X191483771Y-69976190D02*
X191531390Y-70071428D01*
X191531390Y-70071428D02*
X191579009Y-70119047D01*
X191579009Y-70119047D02*
X191674247Y-70166666D01*
X191674247Y-70166666D02*
X191912342Y-70166666D01*
X191912342Y-70166666D02*
X192007580Y-70119047D01*
X192007580Y-70119047D02*
X192055200Y-70071428D01*
X192055200Y-70071428D02*
X192102819Y-69976190D01*
X192102819Y-69976190D02*
X192102819Y-69690476D01*
X192102819Y-69690476D02*
X192055200Y-69595238D01*
X192055200Y-69595238D02*
X192007580Y-69547619D01*
X191102819Y-110738095D02*
X191102819Y-111309523D01*
X192102819Y-111023809D02*
X191102819Y-111023809D01*
X192102819Y-111642857D02*
X191102819Y-111642857D01*
X191102819Y-111642857D02*
X191102819Y-112023809D01*
X191102819Y-112023809D02*
X191150438Y-112119047D01*
X191150438Y-112119047D02*
X191198057Y-112166666D01*
X191198057Y-112166666D02*
X191293295Y-112214285D01*
X191293295Y-112214285D02*
X191436152Y-112214285D01*
X191436152Y-112214285D02*
X191531390Y-112166666D01*
X191531390Y-112166666D02*
X191579009Y-112119047D01*
X191579009Y-112119047D02*
X191626628Y-112023809D01*
X191626628Y-112023809D02*
X191626628Y-111642857D01*
X191102819Y-112547619D02*
X191102819Y-113166666D01*
X191102819Y-113166666D02*
X191483771Y-112833333D01*
X191483771Y-112833333D02*
X191483771Y-112976190D01*
X191483771Y-112976190D02*
X191531390Y-113071428D01*
X191531390Y-113071428D02*
X191579009Y-113119047D01*
X191579009Y-113119047D02*
X191674247Y-113166666D01*
X191674247Y-113166666D02*
X191912342Y-113166666D01*
X191912342Y-113166666D02*
X192007580Y-113119047D01*
X192007580Y-113119047D02*
X192055200Y-113071428D01*
X192055200Y-113071428D02*
X192102819Y-112976190D01*
X192102819Y-112976190D02*
X192102819Y-112690476D01*
X192102819Y-112690476D02*
X192055200Y-112595238D01*
X192055200Y-112595238D02*
X192007580Y-112547619D01*
X198202819Y-153738095D02*
X198202819Y-154309523D01*
X199202819Y-154023809D02*
X198202819Y-154023809D01*
X199202819Y-154642857D02*
X198202819Y-154642857D01*
X198202819Y-154642857D02*
X198202819Y-155023809D01*
X198202819Y-155023809D02*
X198250438Y-155119047D01*
X198250438Y-155119047D02*
X198298057Y-155166666D01*
X198298057Y-155166666D02*
X198393295Y-155214285D01*
X198393295Y-155214285D02*
X198536152Y-155214285D01*
X198536152Y-155214285D02*
X198631390Y-155166666D01*
X198631390Y-155166666D02*
X198679009Y-155119047D01*
X198679009Y-155119047D02*
X198726628Y-155023809D01*
X198726628Y-155023809D02*
X198726628Y-154642857D01*
X199202819Y-156166666D02*
X199202819Y-155595238D01*
X199202819Y-155880952D02*
X198202819Y-155880952D01*
X198202819Y-155880952D02*
X198345676Y-155785714D01*
X198345676Y-155785714D02*
X198440914Y-155690476D01*
X198440914Y-155690476D02*
X198488533Y-155595238D01*
D12*
X155050000Y-69000000D02*
G75*
G02*
X153150000Y-69000000I-950000J0D01*
G01*
X153150000Y-69000000D02*
G75*
G02*
X155050000Y-69000000I950000J0D01*
G01*
X108500000Y-155000000D02*
G75*
G02*
X106600000Y-155000000I-950000J0D01*
G01*
X106600000Y-155000000D02*
G75*
G02*
X108500000Y-155000000I950000J0D01*
G01*
X194500000Y-155000000D02*
G75*
G02*
X192600000Y-155000000I-950000J0D01*
G01*
X192600000Y-155000000D02*
G75*
G02*
X194500000Y-155000000I950000J0D01*
G01*
X108500000Y-69000000D02*
G75*
G02*
X106600000Y-69000000I-950000J0D01*
G01*
X106600000Y-69000000D02*
G75*
G02*
X108500000Y-69000000I950000J0D01*
G01*
X108500000Y-112000000D02*
G75*
G02*
X106600000Y-112000000I-950000J0D01*
G01*
X106600000Y-112000000D02*
G75*
G02*
X108500000Y-112000000I950000J0D01*
G01*
X155050000Y-155000000D02*
G75*
G02*
X153150000Y-155000000I-950000J0D01*
G01*
X153150000Y-155000000D02*
G75*
G02*
X155050000Y-155000000I950000J0D01*
G01*
X151500000Y-69000000D02*
G75*
G02*
X149600000Y-69000000I-950000J0D01*
G01*
X149600000Y-69000000D02*
G75*
G02*
X151500000Y-69000000I950000J0D01*
G01*
X190950000Y-155000000D02*
G75*
G02*
X189050000Y-155000000I-950000J0D01*
G01*
X189050000Y-155000000D02*
G75*
G02*
X190950000Y-155000000I950000J0D01*
G01*
X147950000Y-112000000D02*
G75*
G02*
X146050000Y-112000000I-950000J0D01*
G01*
X146050000Y-112000000D02*
G75*
G02*
X147950000Y-112000000I950000J0D01*
G01*
X187400000Y-69000000D02*
G75*
G02*
X185500000Y-69000000I-950000J0D01*
G01*
X185500000Y-69000000D02*
G75*
G02*
X187400000Y-69000000I950000J0D01*
G01*
X147950000Y-155000000D02*
G75*
G02*
X146050000Y-155000000I-950000J0D01*
G01*
X146050000Y-155000000D02*
G75*
G02*
X147950000Y-155000000I950000J0D01*
G01*
X155050000Y-112000000D02*
G75*
G02*
X153150000Y-112000000I-950000J0D01*
G01*
X153150000Y-112000000D02*
G75*
G02*
X155050000Y-112000000I950000J0D01*
G01*
X194500000Y-69000000D02*
G75*
G02*
X192600000Y-69000000I-950000J0D01*
G01*
X192600000Y-69000000D02*
G75*
G02*
X194500000Y-69000000I950000J0D01*
G01*
X151500000Y-112000000D02*
G75*
G02*
X149600000Y-112000000I-950000J0D01*
G01*
X149600000Y-112000000D02*
G75*
G02*
X151500000Y-112000000I950000J0D01*
G01*
X112050000Y-155000000D02*
G75*
G02*
X110150000Y-155000000I-950000J0D01*
G01*
X110150000Y-155000000D02*
G75*
G02*
X112050000Y-155000000I950000J0D01*
G01*
X147950000Y-69000000D02*
G75*
G02*
X146050000Y-69000000I-950000J0D01*
G01*
X146050000Y-69000000D02*
G75*
G02*
X147950000Y-69000000I950000J0D01*
G01*
X104950000Y-69000000D02*
G75*
G02*
X103050000Y-69000000I-950000J0D01*
G01*
X103050000Y-69000000D02*
G75*
G02*
X104950000Y-69000000I950000J0D01*
G01*
X104950000Y-155000000D02*
G75*
G02*
X103050000Y-155000000I-950000J0D01*
G01*
X103050000Y-155000000D02*
G75*
G02*
X104950000Y-155000000I950000J0D01*
G01*
X101400000Y-155000000D02*
G75*
G02*
X99500000Y-155000000I-950000J0D01*
G01*
X99500000Y-155000000D02*
G75*
G02*
X101400000Y-155000000I950000J0D01*
G01*
X198050000Y-69000000D02*
G75*
G02*
X196150000Y-69000000I-950000J0D01*
G01*
X196150000Y-69000000D02*
G75*
G02*
X198050000Y-69000000I950000J0D01*
G01*
X112050000Y-112000000D02*
G75*
G02*
X110150000Y-112000000I-950000J0D01*
G01*
X110150000Y-112000000D02*
G75*
G02*
X112050000Y-112000000I950000J0D01*
G01*
X144400000Y-112000000D02*
G75*
G02*
X142500000Y-112000000I-950000J0D01*
G01*
X142500000Y-112000000D02*
G75*
G02*
X144400000Y-112000000I950000J0D01*
G01*
X101400000Y-112000000D02*
G75*
G02*
X99500000Y-112000000I-950000J0D01*
G01*
X99500000Y-112000000D02*
G75*
G02*
X101400000Y-112000000I950000J0D01*
G01*
X151500000Y-155000000D02*
G75*
G02*
X149600000Y-155000000I-950000J0D01*
G01*
X149600000Y-155000000D02*
G75*
G02*
X151500000Y-155000000I950000J0D01*
G01*
X144400000Y-155000000D02*
G75*
G02*
X142500000Y-155000000I-950000J0D01*
G01*
X142500000Y-155000000D02*
G75*
G02*
X144400000Y-155000000I950000J0D01*
G01*
X194500000Y-112000000D02*
G75*
G02*
X192600000Y-112000000I-950000J0D01*
G01*
X192600000Y-112000000D02*
G75*
G02*
X194500000Y-112000000I950000J0D01*
G01*
X112050000Y-69000000D02*
G75*
G02*
X110150000Y-69000000I-950000J0D01*
G01*
X110150000Y-69000000D02*
G75*
G02*
X112050000Y-69000000I950000J0D01*
G01*
X144400000Y-69000000D02*
G75*
G02*
X142500000Y-69000000I-950000J0D01*
G01*
X142500000Y-69000000D02*
G75*
G02*
X144400000Y-69000000I950000J0D01*
G01*
X187400000Y-155000000D02*
G75*
G02*
X185500000Y-155000000I-950000J0D01*
G01*
X185500000Y-155000000D02*
G75*
G02*
X187400000Y-155000000I950000J0D01*
G01*
X198050000Y-112000000D02*
G75*
G02*
X196150000Y-112000000I-950000J0D01*
G01*
X196150000Y-112000000D02*
G75*
G02*
X198050000Y-112000000I950000J0D01*
G01*
X104950000Y-112000000D02*
G75*
G02*
X103050000Y-112000000I-950000J0D01*
G01*
X103050000Y-112000000D02*
G75*
G02*
X104950000Y-112000000I950000J0D01*
G01*
X101400000Y-69000000D02*
G75*
G02*
X99500000Y-69000000I-950000J0D01*
G01*
X99500000Y-69000000D02*
G75*
G02*
X101400000Y-69000000I950000J0D01*
G01*
X187400000Y-112000000D02*
G75*
G02*
X185500000Y-112000000I-950000J0D01*
G01*
X185500000Y-112000000D02*
G75*
G02*
X187400000Y-112000000I950000J0D01*
G01*
X190950000Y-69000000D02*
G75*
G02*
X189050000Y-69000000I-950000J0D01*
G01*
X189050000Y-69000000D02*
G75*
G02*
X190950000Y-69000000I950000J0D01*
G01*
X190950000Y-112000000D02*
G75*
G02*
X189050000Y-112000000I-950000J0D01*
G01*
X189050000Y-112000000D02*
G75*
G02*
X190950000Y-112000000I950000J0D01*
G01*
X198050000Y-155000000D02*
G75*
G02*
X196150000Y-155000000I-950000J0D01*
G01*
X196150000Y-155000000D02*
G75*
G02*
X198050000Y-155000000I950000J0D01*
G01*
M02*
