G04 #@! TF.GenerationSoftware,KiCad,Pcbnew,10.0.4*
G04 #@! TF.ProjectId,Speakeasy Lowcost,53706561-6b65-4617-9379-204c6f77636f,rev?*
G04 #@! TF.SameCoordinates,Original*
G04 #@! TF.FileFunction,Copper,L2,Bot*
G04 #@! TF.FilePolarity,Positive*
%FSLAX46Y46*%
G04 Gerber Fmt 4.6, Leading zero omitted, Abs format (unit mm)*
%MOMM*%
%LPD*%
G01*
G04 APERTURE LIST*
G04 #@! TA.AperFunction,ComponentPad*
%ADD10C,0.800000*%
G04 #@! TD*
G04 #@! TA.AperFunction,ComponentPad*
%ADD11C,6.400000*%
G04 #@! TD*
G04 #@! TA.AperFunction,ComponentPad*
%ADD12R,2.000000X2.000000*%
G04 #@! TD*
G04 #@! TA.AperFunction,ComponentPad*
%ADD13C,2.000000*%
G04 #@! TD*
G04 #@! TA.AperFunction,ComponentPad*
%ADD14O,1.750000X3.000000*%
G04 #@! TD*
G04 APERTURE END LIST*
D10*
X216800000Y-85500000D03*
X217502944Y-83802944D03*
X217502944Y-87197056D03*
X219200000Y-83100000D03*
D11*
X219200000Y-85500000D03*
D10*
X219200000Y-87900000D03*
X220897056Y-83802944D03*
X220897056Y-87197056D03*
X221600000Y-85500000D03*
X184800000Y-117500000D03*
X185502944Y-115802944D03*
X185502944Y-119197056D03*
X187200000Y-115100000D03*
D11*
X187200000Y-117500000D03*
D10*
X187200000Y-119900000D03*
X188897056Y-115802944D03*
X188897056Y-119197056D03*
X189600000Y-117500000D03*
D12*
X210820000Y-109220000D03*
D13*
X210820000Y-106680000D03*
X210820000Y-104140000D03*
X210820000Y-101600000D03*
X210820000Y-99060000D03*
X210820000Y-96520000D03*
X210820000Y-93980000D03*
X210820000Y-91440000D03*
X210820000Y-88900000D03*
X195590000Y-88900000D03*
X195590000Y-91440000D03*
X195590000Y-93980000D03*
X195590000Y-96520000D03*
X195590000Y-99060000D03*
X195590000Y-101600000D03*
X195590000Y-104140000D03*
X195590000Y-106680000D03*
X195590000Y-109220000D03*
D10*
X184800000Y-85500000D03*
X185502944Y-83802944D03*
X185502944Y-87197056D03*
X187200000Y-83100000D03*
D11*
X187200000Y-85500000D03*
D10*
X187200000Y-87900000D03*
X188897056Y-83802944D03*
X188897056Y-87197056D03*
X189600000Y-85500000D03*
X216800000Y-117500000D03*
X217502944Y-115802944D03*
X217502944Y-119197056D03*
X219200000Y-115100000D03*
D11*
X219200000Y-117500000D03*
D10*
X219200000Y-119900000D03*
X220897056Y-115802944D03*
X220897056Y-119197056D03*
X221600000Y-117500000D03*
D14*
X195700000Y-113087000D03*
X198240000Y-113087000D03*
X200780000Y-113087000D03*
X203320000Y-113087000D03*
X205860000Y-113087000D03*
X208400000Y-113087000D03*
X210940000Y-113087000D03*
M02*
