M48
; FORMAT={-:-/ absolute / metric / decimal}
; #@! TF.GenerationSoftware,Kicad,Pcbnew,10.0.3
; #@! TF.FileFunction,MixedPlating,1,2
FMAT,2
METRIC
; #@! TA.AperFunction,Plated,PTH,ComponentDrill
T1C0.500
; #@! TA.AperFunction,Plated,PTH,ComponentDrill
T2C0.900
; #@! TA.AperFunction,Plated,PTH,ComponentDrill
T3C1.000
; #@! TA.AperFunction,Plated,PTH,ComponentDrill
T4C3.200
%
G90
G05
T1
X184.8Y-85.5
X184.8Y-117.5
X185.503Y-83.803
X185.503Y-87.197
X185.503Y-115.803
X185.503Y-119.197
X187.2Y-83.1
X187.2Y-87.9
X187.2Y-115.1
X187.2Y-119.9
X188.897Y-83.803
X188.897Y-87.197
X188.897Y-115.803
X188.897Y-119.197
X189.6Y-85.5
X189.6Y-117.5
X216.8Y-85.5
X216.8Y-117.5
X217.503Y-83.803
X217.503Y-87.197
X217.503Y-115.803
X217.503Y-119.197
X219.2Y-83.1
X219.2Y-87.9
X219.2Y-115.1
X219.2Y-119.9
X220.897Y-83.803
X220.897Y-87.197
X220.897Y-115.803
X220.897Y-119.197
X221.6Y-85.5
X221.6Y-117.5
T2
X195.59Y-94.919
X195.59Y-97.459
X195.59Y-99.999
X195.59Y-102.539
X195.59Y-105.079
X195.59Y-107.619
X195.59Y-110.159
X195.59Y-112.699
X195.59Y-115.239
X210.82Y-94.919
X210.82Y-97.459
X210.82Y-99.999
X210.82Y-102.539
X210.82Y-105.079
X210.82Y-107.619
X210.82Y-110.159
X210.82Y-112.699
X210.82Y-115.239
T3
X195.46Y-90.629
X198.0Y-90.629
X200.54Y-90.629
X203.08Y-90.629
X205.62Y-90.629
X208.16Y-90.629
X210.7Y-90.629
T4
X187.2Y-85.5
X187.2Y-117.5
X219.2Y-85.5
X219.2Y-117.5
M30
