G04 #@! TF.GenerationSoftware,KiCad,Pcbnew,10.0.3*
G04 #@! TF.ProjectId,Speakeasy Lowcost,53706561-6b65-4617-9379-204c6f77636f,rev?*
G04 #@! TF.SameCoordinates,Original*
G04 #@! TF.FileFunction,Legend,Top*
G04 #@! TF.FilePolarity,Positive*
%FSLAX46Y46*%
G04 Gerber Fmt 4.6, Leading zero omitted, Abs format (unit mm)*
%MOMM*%
%LPD*%
G01*
G04 APERTURE LIST*
%ADD10C,0.100000*%
%ADD11C,0.125000*%
%ADD12C,0.200000*%
%ADD13C,0.160000*%
G04 APERTURE END LIST*
D10*
X199200000Y-105172000D02*
X207200000Y-105172000D01*
X207200000Y-107172000D01*
X199200000Y-107172000D01*
X199200000Y-105172000D01*
G36*
X199200000Y-105172000D02*
G01*
X207200000Y-105172000D01*
X207200000Y-107172000D01*
X199200000Y-107172000D01*
X199200000Y-105172000D01*
G37*
X200700000Y-99608000D02*
X205700000Y-99608000D01*
X205700000Y-104608000D01*
X200700000Y-104608000D01*
X200700000Y-99608000D01*
G36*
X200700000Y-99608000D02*
G01*
X205700000Y-99608000D01*
X205700000Y-104608000D01*
X200700000Y-104608000D01*
X200700000Y-99608000D01*
G37*
D11*
G36*
X192695390Y-83880806D02*
G01*
X192905897Y-83906207D01*
X193121960Y-83941134D01*
X193121960Y-85009208D01*
X193027072Y-84999438D01*
X192939449Y-84990646D01*
X192837509Y-84986005D01*
X192765060Y-84986005D01*
X192683849Y-84996996D01*
X192618667Y-85034121D01*
X192598407Y-85064769D01*
X192591312Y-85107150D01*
X192603855Y-85148262D01*
X192656067Y-85214372D01*
X192816351Y-85369711D01*
X193026858Y-85577073D01*
X193136588Y-85702256D01*
X193238006Y-85846717D01*
X193325486Y-86006475D01*
X193400214Y-86189878D01*
X193449485Y-86388739D01*
X193466678Y-86617547D01*
X193449176Y-86859518D01*
X193397863Y-87082097D01*
X193309987Y-87284918D01*
X193183937Y-87459697D01*
X193022611Y-87600640D01*
X192812932Y-87712976D01*
X192574974Y-87781053D01*
X192278223Y-87805789D01*
X191933077Y-87786005D01*
X191652045Y-87737889D01*
X191387683Y-87668036D01*
X191387683Y-87080387D01*
X191811689Y-87080387D01*
X191811689Y-87205928D01*
X191951670Y-87231574D01*
X192094858Y-87250625D01*
X192247448Y-87258685D01*
X192381293Y-87249649D01*
X192510529Y-87222781D01*
X192632416Y-87174790D01*
X192739201Y-87104323D01*
X192829744Y-87010298D01*
X192900340Y-86892321D01*
X192944585Y-86753332D01*
X192960607Y-86575538D01*
X192943201Y-86420164D01*
X192890509Y-86271944D01*
X192811743Y-86132749D01*
X192710991Y-85995217D01*
X192477189Y-85739250D01*
X192242533Y-85490855D01*
X192140168Y-85362149D01*
X192060877Y-85238308D01*
X192006888Y-85107543D01*
X191989497Y-84975503D01*
X192003257Y-84845287D01*
X192041798Y-84742409D01*
X192104475Y-84660429D01*
X192187170Y-84603214D01*
X192305647Y-84564368D01*
X192471847Y-84549543D01*
X192552844Y-84549543D01*
X192634482Y-84555161D01*
X192705221Y-84560778D01*
X192705221Y-84430597D01*
X192637687Y-84430597D01*
X192562247Y-84417896D01*
X192477617Y-84413744D01*
X192307216Y-84430129D01*
X192165946Y-84476115D01*
X192048268Y-84549055D01*
X191956854Y-84652791D01*
X191900470Y-84789878D01*
X191880077Y-84971351D01*
X191897504Y-85120729D01*
X191950174Y-85261755D01*
X192028486Y-85394062D01*
X192129479Y-85528713D01*
X192363494Y-85782725D01*
X192598151Y-86032097D01*
X192699871Y-86162675D01*
X192779593Y-86294170D01*
X192833593Y-86433990D01*
X192851186Y-86577491D01*
X192831983Y-86750215D01*
X192778202Y-86885358D01*
X192690261Y-86991972D01*
X192576710Y-87067360D01*
X192432320Y-87115936D01*
X192248944Y-87133632D01*
X192086241Y-87126407D01*
X191945259Y-87106033D01*
X191811689Y-87080387D01*
X191387683Y-87080387D01*
X191387683Y-86538413D01*
X191618920Y-86603137D01*
X191838830Y-86647833D01*
X192087805Y-86664686D01*
X192216547Y-86640408D01*
X192281794Y-86580125D01*
X192304082Y-86481260D01*
X192289194Y-86414776D01*
X192236977Y-86337401D01*
X192065365Y-86170094D01*
X191841181Y-85964686D01*
X191726208Y-85844655D01*
X191616355Y-85705300D01*
X191520884Y-85550314D01*
X191442607Y-85374840D01*
X191391906Y-85182046D01*
X191374005Y-84953277D01*
X191395769Y-84698140D01*
X191457567Y-84483598D01*
X191557873Y-84295876D01*
X191689018Y-84143856D01*
X191847674Y-84025341D01*
X192035659Y-83937226D01*
X192239264Y-83884636D01*
X192460520Y-83866640D01*
X192695390Y-83880806D01*
G37*
G36*
X194908847Y-84565129D02*
G01*
X195071659Y-84596438D01*
X195224272Y-84652735D01*
X195355469Y-84734435D01*
X195465899Y-84845897D01*
X195553367Y-84993577D01*
X195607819Y-85169314D01*
X195627739Y-85398531D01*
X195607825Y-85627782D01*
X195553367Y-85803730D01*
X195465923Y-85951256D01*
X195355469Y-86062872D01*
X195224287Y-86144383D01*
X195071659Y-86200625D01*
X194908847Y-86231934D01*
X194734207Y-86242635D01*
X194301012Y-86242635D01*
X194301012Y-85804951D01*
X194738695Y-85804951D01*
X194776522Y-85804951D01*
X194910951Y-85790888D01*
X195006400Y-85753827D01*
X195072941Y-85698217D01*
X195121565Y-85620919D01*
X195152253Y-85522998D01*
X195163342Y-85398531D01*
X195152248Y-85274068D01*
X195121557Y-85176238D01*
X195072941Y-85099090D01*
X195006381Y-85043341D01*
X194910930Y-85006201D01*
X194776522Y-84992111D01*
X194738695Y-84992111D01*
X194738695Y-85804951D01*
X194301012Y-85804951D01*
X194301012Y-84554428D01*
X194734207Y-84554428D01*
X194908847Y-84565129D01*
G37*
G36*
X195044786Y-83980757D02*
G01*
X195324267Y-84039564D01*
X195583396Y-84143127D01*
X195801915Y-84288936D01*
X195927945Y-84412925D01*
X196035305Y-84560333D01*
X196124834Y-84733702D01*
X196188532Y-84921572D01*
X196228915Y-85141310D01*
X196243231Y-85398775D01*
X196228874Y-85656045D01*
X196188355Y-85875794D01*
X196124407Y-86063849D01*
X196034601Y-86237200D01*
X195926958Y-86384611D01*
X195800632Y-86508615D01*
X195581486Y-86654031D01*
X195321489Y-86757498D01*
X195041969Y-86816417D01*
X194738695Y-86836633D01*
X194738695Y-87727631D01*
X193685520Y-87727631D01*
X193685520Y-87258685D01*
X194191591Y-87258685D01*
X194301012Y-87258685D01*
X194301012Y-86367687D01*
X194733993Y-86367687D01*
X194948726Y-86352582D01*
X195141116Y-86309069D01*
X195318299Y-86234453D01*
X195464249Y-86133702D01*
X195584467Y-86000854D01*
X195675397Y-85833284D01*
X195730952Y-85638637D01*
X195750837Y-85398775D01*
X195731000Y-85158684D01*
X195675611Y-84964023D01*
X195584906Y-84796269D01*
X195465104Y-84663605D01*
X195319377Y-84562651D01*
X195142612Y-84487994D01*
X194950859Y-84444482D01*
X194736772Y-84429376D01*
X194191591Y-84429376D01*
X194191591Y-87258685D01*
X193685520Y-87258685D01*
X193685520Y-83960429D01*
X194736558Y-83960429D01*
X195044786Y-83980757D01*
G37*
G36*
X198414550Y-84960848D02*
G01*
X197525506Y-84960848D01*
X197525506Y-85367268D01*
X198400872Y-85367268D01*
X198400872Y-86305161D01*
X197525506Y-86305161D01*
X197525506Y-86727212D01*
X198455583Y-86727212D01*
X198455583Y-87727631D01*
X196472331Y-87727631D01*
X196472331Y-87258685D01*
X196978402Y-87258685D01*
X198072610Y-87258685D01*
X198072610Y-87133632D01*
X197087823Y-87133632D01*
X197087823Y-85898741D01*
X198017899Y-85898741D01*
X198017899Y-85773688D01*
X197087823Y-85773688D01*
X197087823Y-84554428D01*
X198072610Y-84554428D01*
X198072610Y-84429376D01*
X196978402Y-84429376D01*
X196978402Y-87258685D01*
X196472331Y-87258685D01*
X196472331Y-83960429D01*
X198414550Y-83960429D01*
X198414550Y-84960848D01*
G37*
G36*
X200886562Y-86852265D02*
G01*
X199338215Y-86852265D01*
X199442379Y-86539634D01*
X199901989Y-86539634D01*
X200322789Y-86539634D01*
X200112282Y-85914616D01*
X199901989Y-86539634D01*
X199442379Y-86539634D01*
X200112282Y-84529027D01*
X200886562Y-86852265D01*
G37*
G36*
X201753807Y-87727631D02*
G01*
X200710249Y-87727631D01*
X200602325Y-87383737D01*
X199622453Y-87383737D01*
X199514528Y-87727631D01*
X198470756Y-87727631D01*
X198625720Y-87258685D01*
X199083470Y-87258685D01*
X199206141Y-87258685D01*
X199299106Y-86977317D01*
X200925672Y-86977317D01*
X201018637Y-87258685D01*
X201141307Y-87258685D01*
X200200759Y-84429376D01*
X200024019Y-84429376D01*
X199083470Y-87258685D01*
X198625720Y-87258685D01*
X199715631Y-83960429D01*
X200509146Y-83960429D01*
X201753807Y-87727631D01*
G37*
G36*
X202907641Y-84814791D02*
G01*
X203515012Y-83960429D01*
X204810965Y-83960429D01*
X203653925Y-85684295D01*
X204868667Y-87727631D01*
X203593017Y-87727631D01*
X202907641Y-86584575D01*
X202907641Y-87727631D01*
X201840788Y-87727631D01*
X201840788Y-87258685D01*
X202346860Y-87258685D01*
X202456280Y-87258685D01*
X202456280Y-86506173D01*
X202969832Y-85771979D01*
X203864859Y-87258685D01*
X204000139Y-87258685D01*
X203049119Y-85666710D01*
X203920425Y-84429376D01*
X203781084Y-84429376D01*
X202456280Y-86306626D01*
X202456280Y-84429376D01*
X202346860Y-84429376D01*
X202346860Y-87258685D01*
X201840788Y-87258685D01*
X201840788Y-83960429D01*
X202907641Y-83960429D01*
X202907641Y-84814791D01*
G37*
G36*
X206891242Y-84960848D02*
G01*
X206002198Y-84960848D01*
X206002198Y-85367268D01*
X206877564Y-85367268D01*
X206877564Y-86305161D01*
X206002198Y-86305161D01*
X206002198Y-86727212D01*
X206932275Y-86727212D01*
X206932275Y-87727631D01*
X204949023Y-87727631D01*
X204949023Y-87258685D01*
X205455094Y-87258685D01*
X206549302Y-87258685D01*
X206549302Y-87133632D01*
X205564515Y-87133632D01*
X205564515Y-85898741D01*
X206494592Y-85898741D01*
X206494592Y-85773688D01*
X205564515Y-85773688D01*
X205564515Y-84554428D01*
X206549302Y-84554428D01*
X206549302Y-84429376D01*
X205455094Y-84429376D01*
X205455094Y-87258685D01*
X204949023Y-87258685D01*
X204949023Y-83960429D01*
X206891242Y-83960429D01*
X206891242Y-84960848D01*
G37*
G36*
X209363254Y-86852265D02*
G01*
X207814907Y-86852265D01*
X207919071Y-86539634D01*
X208378681Y-86539634D01*
X208799481Y-86539634D01*
X208588974Y-85914616D01*
X208378681Y-86539634D01*
X207919071Y-86539634D01*
X208588974Y-84529027D01*
X209363254Y-86852265D01*
G37*
G36*
X210230500Y-87727631D02*
G01*
X209186942Y-87727631D01*
X209079017Y-87383737D01*
X208099145Y-87383737D01*
X207991220Y-87727631D01*
X206947448Y-87727631D01*
X207102412Y-87258685D01*
X207560162Y-87258685D01*
X207682833Y-87258685D01*
X207775798Y-86977317D01*
X209402364Y-86977317D01*
X209495329Y-87258685D01*
X209618000Y-87258685D01*
X208677451Y-84429376D01*
X208500711Y-84429376D01*
X207560162Y-87258685D01*
X207102412Y-87258685D01*
X208192324Y-83960429D01*
X208985838Y-83960429D01*
X210230500Y-87727631D01*
G37*
G36*
X211567058Y-83880806D02*
G01*
X211777564Y-83906207D01*
X211993628Y-83941134D01*
X211993628Y-85009208D01*
X211898739Y-84999438D01*
X211811117Y-84990646D01*
X211709176Y-84986005D01*
X211636728Y-84986005D01*
X211555517Y-84996996D01*
X211490335Y-85034121D01*
X211470075Y-85064769D01*
X211462980Y-85107150D01*
X211475523Y-85148262D01*
X211527735Y-85214372D01*
X211688019Y-85369711D01*
X211898526Y-85577073D01*
X212008256Y-85702256D01*
X212109674Y-85846717D01*
X212197154Y-86006475D01*
X212271881Y-86189878D01*
X212321153Y-86388739D01*
X212338346Y-86617547D01*
X212320844Y-86859518D01*
X212269531Y-87082097D01*
X212181654Y-87284918D01*
X212055604Y-87459697D01*
X211894279Y-87600640D01*
X211684600Y-87712976D01*
X211446642Y-87781053D01*
X211149891Y-87805789D01*
X210804745Y-87786005D01*
X210523713Y-87737889D01*
X210259351Y-87668036D01*
X210259351Y-87080387D01*
X210683357Y-87080387D01*
X210683357Y-87205928D01*
X210823338Y-87231574D01*
X210966526Y-87250625D01*
X211119116Y-87258685D01*
X211252961Y-87249649D01*
X211382196Y-87222781D01*
X211504084Y-87174790D01*
X211610869Y-87104323D01*
X211701412Y-87010298D01*
X211772008Y-86892321D01*
X211816253Y-86753332D01*
X211832275Y-86575538D01*
X211814869Y-86420164D01*
X211762177Y-86271944D01*
X211683411Y-86132749D01*
X211582659Y-85995217D01*
X211348857Y-85739250D01*
X211114201Y-85490855D01*
X211011835Y-85362149D01*
X210932545Y-85238308D01*
X210878556Y-85107543D01*
X210861165Y-84975503D01*
X210874925Y-84845287D01*
X210913466Y-84742409D01*
X210976143Y-84660429D01*
X211058837Y-84603214D01*
X211177315Y-84564368D01*
X211343514Y-84549543D01*
X211424511Y-84549543D01*
X211506150Y-84555161D01*
X211576888Y-84560778D01*
X211576888Y-84430597D01*
X211509355Y-84430597D01*
X211433915Y-84417896D01*
X211349285Y-84413744D01*
X211178884Y-84430129D01*
X211037614Y-84476115D01*
X210919936Y-84549055D01*
X210828522Y-84652791D01*
X210772138Y-84789878D01*
X210751745Y-84971351D01*
X210769172Y-85120729D01*
X210821842Y-85261755D01*
X210900154Y-85394062D01*
X211001147Y-85528713D01*
X211235162Y-85782725D01*
X211469818Y-86032097D01*
X211571539Y-86162675D01*
X211651260Y-86294170D01*
X211705261Y-86433990D01*
X211722854Y-86577491D01*
X211703651Y-86750215D01*
X211649870Y-86885358D01*
X211561929Y-86991972D01*
X211448378Y-87067360D01*
X211303988Y-87115936D01*
X211120612Y-87133632D01*
X210957909Y-87126407D01*
X210816927Y-87106033D01*
X210683357Y-87080387D01*
X210259351Y-87080387D01*
X210259351Y-86538413D01*
X210490588Y-86603137D01*
X210710498Y-86647833D01*
X210959473Y-86664686D01*
X211088214Y-86640408D01*
X211153462Y-86580125D01*
X211175750Y-86481260D01*
X211160861Y-86414776D01*
X211108644Y-86337401D01*
X210937033Y-86170094D01*
X210712849Y-85964686D01*
X210597876Y-85844655D01*
X210488023Y-85705300D01*
X210392552Y-85550314D01*
X210314275Y-85374840D01*
X210263574Y-85182046D01*
X210245673Y-84953277D01*
X210267437Y-84698140D01*
X210329235Y-84483598D01*
X210429541Y-84295876D01*
X210560686Y-84143856D01*
X210719342Y-84025341D01*
X210907327Y-83937226D01*
X211110932Y-83884636D01*
X211332188Y-83866640D01*
X211567058Y-83880806D01*
G37*
G36*
X213763381Y-84747136D02*
G01*
X214131180Y-83960429D01*
X215306385Y-83960429D01*
X214287404Y-86106836D01*
X214287404Y-87727631D01*
X213234229Y-87727631D01*
X213234229Y-86106836D01*
X212437708Y-84429376D01*
X212997435Y-84429376D01*
X213698626Y-85923409D01*
X213698626Y-87258685D01*
X213823007Y-87258685D01*
X213823007Y-85923409D01*
X214528685Y-84429376D01*
X214392551Y-84429376D01*
X213763381Y-85767826D01*
X213129082Y-84429376D01*
X212997435Y-84429376D01*
X212437708Y-84429376D01*
X212215034Y-83960429D01*
X213390453Y-83960429D01*
X213763381Y-84747136D01*
G37*
D12*
G36*
X196749872Y-97179349D02*
G01*
X196884304Y-97179349D01*
X196884304Y-97465162D01*
X196566886Y-97465162D01*
X196536115Y-97434001D01*
X196507077Y-97393718D01*
X196479886Y-97342748D01*
X196459409Y-97289007D01*
X196447435Y-97236167D01*
X196443494Y-97183697D01*
X196448989Y-97120269D01*
X196464940Y-97063488D01*
X196491122Y-97012092D01*
X196527073Y-96967064D01*
X196574033Y-96927853D01*
X196633759Y-96894318D01*
X196698483Y-96870835D01*
X196772456Y-96856076D01*
X196857242Y-96850891D01*
X196944238Y-96856205D01*
X197018738Y-96871204D01*
X197082629Y-96894855D01*
X197141750Y-96928441D01*
X197187752Y-96966496D01*
X197222531Y-97009063D01*
X197247800Y-97057789D01*
X197263398Y-97113311D01*
X197268840Y-97177151D01*
X197264703Y-97235813D01*
X197253008Y-97285849D01*
X197234459Y-97328673D01*
X197209244Y-97365413D01*
X197177362Y-97396546D01*
X197138400Y-97422159D01*
X197091232Y-97442264D01*
X197034367Y-97456418D01*
X197003103Y-97325260D01*
X197042746Y-97312056D01*
X197073979Y-97293952D01*
X197098260Y-97271136D01*
X197116517Y-97243395D01*
X197127502Y-97212385D01*
X197131282Y-97177151D01*
X197127060Y-97136264D01*
X197114835Y-97100436D01*
X197094630Y-97068572D01*
X197065630Y-97039984D01*
X197032017Y-97018741D01*
X196988952Y-97002329D01*
X196934284Y-96991495D01*
X196865448Y-96987521D01*
X196791824Y-96991751D01*
X196732226Y-97003383D01*
X196684252Y-97021168D01*
X196645874Y-97044380D01*
X196617301Y-97071090D01*
X196597367Y-97101385D01*
X196585257Y-97135987D01*
X196581052Y-97176076D01*
X196585413Y-97214806D01*
X196599224Y-97256676D01*
X196620765Y-97296249D01*
X196648903Y-97331268D01*
X196749872Y-97331268D01*
X196749872Y-97179349D01*
G37*
G36*
X197051898Y-97554258D02*
G01*
X197105032Y-97566298D01*
X197149647Y-97585201D01*
X197187116Y-97610633D01*
X197219404Y-97643542D01*
X197241652Y-97678975D01*
X197254933Y-97717575D01*
X197259461Y-97760354D01*
X197253751Y-97807405D01*
X197236923Y-97849640D01*
X197208343Y-97888384D01*
X197166013Y-97924339D01*
X197119142Y-97949518D01*
X197055051Y-97969792D01*
X196969206Y-97983626D01*
X196856362Y-97988819D01*
X196762323Y-97985315D01*
X196686277Y-97975740D01*
X196625461Y-97961329D01*
X196577386Y-97943059D01*
X196539872Y-97921603D01*
X196503989Y-97891954D01*
X196477284Y-97860131D01*
X196458605Y-97825840D01*
X196447345Y-97788495D01*
X196443494Y-97747263D01*
X196449153Y-97699754D01*
X196465450Y-97659406D01*
X196492538Y-97624555D01*
X196528228Y-97597805D01*
X196577345Y-97576760D01*
X196643578Y-97562517D01*
X196659210Y-97684394D01*
X196615332Y-97693566D01*
X196588571Y-97708705D01*
X196573675Y-97728822D01*
X196568547Y-97755420D01*
X196573253Y-97781067D01*
X196587532Y-97803678D01*
X196613487Y-97824297D01*
X196645662Y-97837726D01*
X196702615Y-97849864D01*
X196795204Y-97858735D01*
X196765372Y-97833132D01*
X196744890Y-97805734D01*
X196732276Y-97774823D01*
X196730620Y-97761429D01*
X196840535Y-97761429D01*
X196844172Y-97783483D01*
X196855196Y-97803535D01*
X196874925Y-97822392D01*
X196899284Y-97835583D01*
X196932792Y-97844452D01*
X196978191Y-97847793D01*
X197027837Y-97844123D01*
X197065567Y-97834252D01*
X197093962Y-97819363D01*
X197117599Y-97798197D01*
X197130336Y-97776993D01*
X197134408Y-97754883D01*
X197130838Y-97733240D01*
X197120126Y-97714108D01*
X197101094Y-97696655D01*
X197077488Y-97684950D01*
X197041925Y-97676682D01*
X196990207Y-97673452D01*
X196938729Y-97676894D01*
X196902061Y-97685859D01*
X196876586Y-97698854D01*
X196855932Y-97717868D01*
X196844369Y-97738437D01*
X196840535Y-97761429D01*
X196730620Y-97761429D01*
X196727988Y-97740131D01*
X196732202Y-97704752D01*
X196744855Y-97671376D01*
X196766675Y-97639166D01*
X196799258Y-97607604D01*
X196836109Y-97583284D01*
X196879139Y-97565329D01*
X196929485Y-97553981D01*
X196988547Y-97549963D01*
X197051898Y-97554258D01*
G37*
G36*
X196759872Y-94669349D02*
G01*
X196894304Y-94669349D01*
X196894304Y-94955162D01*
X196576886Y-94955162D01*
X196546115Y-94924001D01*
X196517077Y-94883718D01*
X196489886Y-94832748D01*
X196469409Y-94779007D01*
X196457435Y-94726167D01*
X196453494Y-94673697D01*
X196458989Y-94610269D01*
X196474940Y-94553488D01*
X196501122Y-94502092D01*
X196537073Y-94457064D01*
X196584033Y-94417853D01*
X196643759Y-94384318D01*
X196708483Y-94360835D01*
X196782456Y-94346076D01*
X196867242Y-94340891D01*
X196954238Y-94346205D01*
X197028738Y-94361204D01*
X197092629Y-94384855D01*
X197151750Y-94418441D01*
X197197752Y-94456496D01*
X197232531Y-94499063D01*
X197257800Y-94547789D01*
X197273398Y-94603311D01*
X197278840Y-94667151D01*
X197274703Y-94725813D01*
X197263008Y-94775849D01*
X197244459Y-94818673D01*
X197219244Y-94855413D01*
X197187362Y-94886546D01*
X197148400Y-94912159D01*
X197101232Y-94932264D01*
X197044367Y-94946418D01*
X197013103Y-94815260D01*
X197052746Y-94802056D01*
X197083979Y-94783952D01*
X197108260Y-94761136D01*
X197126517Y-94733395D01*
X197137502Y-94702385D01*
X197141282Y-94667151D01*
X197137060Y-94626264D01*
X197124835Y-94590436D01*
X197104630Y-94558572D01*
X197075630Y-94529984D01*
X197042017Y-94508741D01*
X196998952Y-94492329D01*
X196944284Y-94481495D01*
X196875448Y-94477521D01*
X196801824Y-94481751D01*
X196742226Y-94493383D01*
X196694252Y-94511168D01*
X196655874Y-94534380D01*
X196627301Y-94561090D01*
X196607367Y-94591385D01*
X196595257Y-94625987D01*
X196591052Y-94666076D01*
X196595413Y-94704806D01*
X196609224Y-94746676D01*
X196630765Y-94786249D01*
X196658903Y-94821268D01*
X196759872Y-94821268D01*
X196759872Y-94669349D01*
G37*
G36*
X196743068Y-95052094D02*
G01*
X196783935Y-95061734D01*
X196819468Y-95077137D01*
X196851309Y-95098864D01*
X196877478Y-95125826D01*
X196898456Y-95158568D01*
X196916750Y-95129666D01*
X196938463Y-95106570D01*
X196963815Y-95088616D01*
X196992320Y-95075894D01*
X197025259Y-95067925D01*
X197063515Y-95065120D01*
X197110260Y-95068792D01*
X197150104Y-95079201D01*
X197184253Y-95095820D01*
X197213627Y-95118658D01*
X197237623Y-95147128D01*
X197254918Y-95180036D01*
X197265678Y-95218249D01*
X197269461Y-95262957D01*
X197265323Y-95310437D01*
X197253710Y-95349686D01*
X197235257Y-95382299D01*
X197209817Y-95409405D01*
X197167680Y-95437082D01*
X197119816Y-95453858D01*
X197064639Y-95459670D01*
X197026390Y-95456798D01*
X196992951Y-95448577D01*
X196963522Y-95435344D01*
X196937099Y-95416989D01*
X196915560Y-95394968D01*
X196898456Y-95368958D01*
X196877404Y-95403935D01*
X196851996Y-95431681D01*
X196821959Y-95453076D01*
X196788020Y-95468097D01*
X196748030Y-95477597D01*
X196700766Y-95480968D01*
X196651990Y-95477722D01*
X196608672Y-95468393D01*
X196569998Y-95453369D01*
X196534611Y-95432188D01*
X196506022Y-95406844D01*
X196483438Y-95377116D01*
X196466900Y-95343628D01*
X196456907Y-95307431D01*
X196453494Y-95267842D01*
X196453696Y-95265644D01*
X196578547Y-95265644D01*
X196582131Y-95289595D01*
X196592776Y-95310702D01*
X196611324Y-95329831D01*
X196634690Y-95343388D01*
X196666636Y-95352427D01*
X196709754Y-95355818D01*
X196746504Y-95352539D01*
X196775710Y-95343483D01*
X196798951Y-95329293D01*
X196817511Y-95309820D01*
X196828182Y-95288355D01*
X196831778Y-95264032D01*
X196831529Y-95262371D01*
X196956830Y-95262371D01*
X196959616Y-95284256D01*
X196967688Y-95302931D01*
X196981254Y-95319182D01*
X196998872Y-95331129D01*
X197021746Y-95338798D01*
X197051401Y-95341603D01*
X197080012Y-95338862D01*
X197102399Y-95331316D01*
X197119935Y-95319475D01*
X197133582Y-95303394D01*
X197141643Y-95285144D01*
X197144408Y-95263983D01*
X197141581Y-95241760D01*
X197133405Y-95222900D01*
X197119691Y-95206586D01*
X197101966Y-95194570D01*
X197079630Y-95186962D01*
X197051401Y-95184213D01*
X197021721Y-95186986D01*
X196998848Y-95194561D01*
X196981254Y-95206341D01*
X196967667Y-95222430D01*
X196959606Y-95240850D01*
X196956830Y-95262371D01*
X196831529Y-95262371D01*
X196828180Y-95240076D01*
X196817455Y-95218767D01*
X196798707Y-95199258D01*
X196775313Y-95185024D01*
X196746487Y-95176017D01*
X196710829Y-95172782D01*
X196669309Y-95176246D01*
X196637375Y-95185654D01*
X196612936Y-95200089D01*
X196593339Y-95220201D01*
X196582239Y-95241774D01*
X196578547Y-95265644D01*
X196453696Y-95265644D01*
X196457764Y-95221467D01*
X196470117Y-95180471D01*
X196490387Y-95143795D01*
X196519098Y-95110696D01*
X196553575Y-95084299D01*
X196593739Y-95065049D01*
X196640684Y-95052972D01*
X196695832Y-95048707D01*
X196743068Y-95052094D01*
G37*
G36*
X196759872Y-102069174D02*
G01*
X196894304Y-102069174D01*
X196894304Y-102354987D01*
X196576886Y-102354987D01*
X196546115Y-102323826D01*
X196517077Y-102283543D01*
X196489886Y-102232573D01*
X196469409Y-102178832D01*
X196457435Y-102125992D01*
X196453494Y-102073522D01*
X196458989Y-102010094D01*
X196474940Y-101953313D01*
X196501122Y-101901917D01*
X196537073Y-101856889D01*
X196584033Y-101817678D01*
X196643759Y-101784143D01*
X196708483Y-101760660D01*
X196782456Y-101745901D01*
X196867242Y-101740716D01*
X196954238Y-101746030D01*
X197028738Y-101761029D01*
X197092629Y-101784680D01*
X197151750Y-101818266D01*
X197197752Y-101856321D01*
X197232531Y-101898888D01*
X197257800Y-101947614D01*
X197273398Y-102003136D01*
X197278840Y-102066976D01*
X197274703Y-102125638D01*
X197263008Y-102175674D01*
X197244459Y-102218498D01*
X197219244Y-102255238D01*
X197187362Y-102286371D01*
X197148400Y-102311984D01*
X197101232Y-102332089D01*
X197044367Y-102346243D01*
X197013103Y-102215085D01*
X197052746Y-102201881D01*
X197083979Y-102183777D01*
X197108260Y-102160961D01*
X197126517Y-102133220D01*
X197137502Y-102102210D01*
X197141282Y-102066976D01*
X197137060Y-102026089D01*
X197124835Y-101990261D01*
X197104630Y-101958397D01*
X197075630Y-101929809D01*
X197042017Y-101908566D01*
X196998952Y-101892154D01*
X196944284Y-101881320D01*
X196875448Y-101877346D01*
X196801824Y-101881576D01*
X196742226Y-101893208D01*
X196694252Y-101910993D01*
X196655874Y-101934205D01*
X196627301Y-101960915D01*
X196607367Y-101991210D01*
X196595257Y-102025812D01*
X196591052Y-102065901D01*
X196595413Y-102104631D01*
X196609224Y-102146501D01*
X196630765Y-102186074D01*
X196658903Y-102221093D01*
X196759872Y-102221093D01*
X196759872Y-102069174D01*
G37*
G36*
X196466000Y-102772056D02*
G01*
X196466000Y-102646369D01*
X197047493Y-102646369D01*
X196999135Y-102596334D01*
X196960816Y-102542206D01*
X196931819Y-102483508D01*
X197069377Y-102483508D01*
X197085932Y-102516946D01*
X197110519Y-102553035D01*
X197144604Y-102592245D01*
X197183032Y-102626303D01*
X197224492Y-102652166D01*
X197269461Y-102670402D01*
X197269461Y-102772056D01*
X196466000Y-102772056D01*
G37*
G36*
X196466000Y-103257416D02*
G01*
X196466000Y-103131728D01*
X197047493Y-103131728D01*
X196999135Y-103081693D01*
X196960816Y-103027566D01*
X196931819Y-102968867D01*
X197069377Y-102968867D01*
X197085932Y-103002305D01*
X197110519Y-103038394D01*
X197144604Y-103077604D01*
X197183032Y-103111662D01*
X197224492Y-103137525D01*
X197269461Y-103155762D01*
X197269461Y-103257416D01*
X196466000Y-103257416D01*
G37*
G36*
X196759872Y-104584164D02*
G01*
X196894304Y-104584164D01*
X196894304Y-104869977D01*
X196576886Y-104869977D01*
X196546115Y-104838816D01*
X196517077Y-104798533D01*
X196489886Y-104747563D01*
X196469409Y-104693822D01*
X196457435Y-104640982D01*
X196453494Y-104588512D01*
X196458989Y-104525084D01*
X196474940Y-104468303D01*
X196501122Y-104416907D01*
X196537073Y-104371879D01*
X196584033Y-104332668D01*
X196643759Y-104299133D01*
X196708483Y-104275650D01*
X196782456Y-104260891D01*
X196867242Y-104255706D01*
X196954238Y-104261020D01*
X197028738Y-104276019D01*
X197092629Y-104299670D01*
X197151750Y-104333256D01*
X197197752Y-104371311D01*
X197232531Y-104413878D01*
X197257800Y-104462604D01*
X197273398Y-104518126D01*
X197278840Y-104581966D01*
X197274703Y-104640628D01*
X197263008Y-104690664D01*
X197244459Y-104733488D01*
X197219244Y-104770228D01*
X197187362Y-104801361D01*
X197148400Y-104826974D01*
X197101232Y-104847079D01*
X197044367Y-104861233D01*
X197013103Y-104730075D01*
X197052746Y-104716871D01*
X197083979Y-104698767D01*
X197108260Y-104675951D01*
X197126517Y-104648210D01*
X197137502Y-104617200D01*
X197141282Y-104581966D01*
X197137060Y-104541079D01*
X197124835Y-104505251D01*
X197104630Y-104473387D01*
X197075630Y-104444799D01*
X197042017Y-104423556D01*
X196998952Y-104407144D01*
X196944284Y-104396310D01*
X196875448Y-104392336D01*
X196801824Y-104396566D01*
X196742226Y-104408198D01*
X196694252Y-104425983D01*
X196655874Y-104449195D01*
X196627301Y-104475905D01*
X196607367Y-104506200D01*
X196595257Y-104540802D01*
X196591052Y-104580891D01*
X196595413Y-104619621D01*
X196609224Y-104661491D01*
X196630765Y-104701064D01*
X196658903Y-104736083D01*
X196759872Y-104736083D01*
X196759872Y-104584164D01*
G37*
G36*
X196466000Y-105287046D02*
G01*
X196466000Y-105161359D01*
X197047493Y-105161359D01*
X196999135Y-105111324D01*
X196960816Y-105057196D01*
X196931819Y-104998498D01*
X197069377Y-104998498D01*
X197085932Y-105031936D01*
X197110519Y-105068025D01*
X197144604Y-105107235D01*
X197183032Y-105141293D01*
X197224492Y-105167156D01*
X197269461Y-105185392D01*
X197269461Y-105287046D01*
X196466000Y-105287046D01*
G37*
G36*
X196609810Y-105900682D02*
G01*
X196466000Y-105900682D01*
X196466000Y-105459140D01*
X196519179Y-105467121D01*
X196570424Y-105481557D01*
X196620117Y-105502566D01*
X196667359Y-105530058D01*
X196730110Y-105575366D01*
X196812043Y-105643836D01*
X196900248Y-105717883D01*
X196940173Y-105746027D01*
X196973550Y-105762138D01*
X197006048Y-105771424D01*
X197038163Y-105774457D01*
X197072509Y-105771449D01*
X197098329Y-105763343D01*
X197117591Y-105750961D01*
X197132425Y-105733760D01*
X197141314Y-105713499D01*
X197144408Y-105689216D01*
X197139858Y-105660116D01*
X197126874Y-105637394D01*
X197104678Y-105619430D01*
X197070353Y-105606153D01*
X197019356Y-105599042D01*
X197034988Y-105473892D01*
X197096166Y-105483498D01*
X197144766Y-105498554D01*
X197183007Y-105518172D01*
X197212699Y-105541938D01*
X197237083Y-105571868D01*
X197254676Y-105606304D01*
X197265619Y-105646118D01*
X197269461Y-105692489D01*
X197264828Y-105743276D01*
X197251830Y-105785056D01*
X197231129Y-105819627D01*
X197202441Y-105848219D01*
X197155560Y-105877389D01*
X197104793Y-105894770D01*
X197048861Y-105900682D01*
X197000442Y-105897317D01*
X196953801Y-105887297D01*
X196908362Y-105870607D01*
X196861184Y-105846020D01*
X196812531Y-105812272D01*
X196742189Y-105753159D01*
X196652308Y-105676369D01*
X196609810Y-105650431D01*
X196609810Y-105900682D01*
G37*
G36*
X196678588Y-109377081D02*
G01*
X196694220Y-109498958D01*
X196657629Y-109505147D01*
X196629555Y-109515741D01*
X196608247Y-109530123D01*
X196591407Y-109549149D01*
X196581766Y-109569490D01*
X196578547Y-109591868D01*
X196582371Y-109616013D01*
X196593840Y-109637571D01*
X196614108Y-109657423D01*
X196639227Y-109671618D01*
X196671456Y-109680823D01*
X196712685Y-109684192D01*
X196750973Y-109680975D01*
X196781043Y-109672158D01*
X196804618Y-109658497D01*
X196823667Y-109639510D01*
X196834443Y-109619022D01*
X196838030Y-109596215D01*
X196835442Y-109571265D01*
X196826551Y-109538818D01*
X196950577Y-109552496D01*
X196953289Y-109583843D01*
X196962250Y-109609054D01*
X196977102Y-109629530D01*
X196997152Y-109644561D01*
X197022583Y-109654012D01*
X197054967Y-109657423D01*
X197082255Y-109654916D01*
X197103739Y-109648010D01*
X197120668Y-109637199D01*
X197133901Y-109622374D01*
X197141718Y-109605317D01*
X197144408Y-109585273D01*
X197141500Y-109565327D01*
X197132786Y-109547226D01*
X197117542Y-109530319D01*
X197098335Y-109517695D01*
X197072463Y-109508294D01*
X197038114Y-109502768D01*
X197063124Y-109386362D01*
X197117785Y-109398755D01*
X197160964Y-109415002D01*
X197194635Y-109434463D01*
X197220417Y-109456850D01*
X197247384Y-109494341D01*
X197263754Y-109537862D01*
X197269461Y-109589132D01*
X197265237Y-109632755D01*
X197253131Y-109670270D01*
X197233395Y-109702906D01*
X197205469Y-109731477D01*
X197160582Y-109761147D01*
X197113742Y-109778450D01*
X197063808Y-109784234D01*
X197029467Y-109781507D01*
X196998109Y-109773546D01*
X196969189Y-109760444D01*
X196930452Y-109731460D01*
X196895378Y-109689125D01*
X196881788Y-109723446D01*
X196860511Y-109753180D01*
X196830703Y-109779007D01*
X196795815Y-109797808D01*
X196754630Y-109809575D01*
X196705699Y-109813738D01*
X196651841Y-109809393D01*
X196604475Y-109796899D01*
X196562467Y-109776643D01*
X196524960Y-109748428D01*
X196493035Y-109713334D01*
X196471031Y-109676180D01*
X196457935Y-109636355D01*
X196453494Y-109592943D01*
X196457363Y-109550904D01*
X196468640Y-109513056D01*
X196487278Y-109478537D01*
X196513822Y-109446739D01*
X196545597Y-109420723D01*
X196582990Y-109400352D01*
X196626922Y-109385656D01*
X196678588Y-109377081D01*
G37*
G36*
X196466000Y-110087437D02*
G01*
X197266334Y-109853012D01*
X197266334Y-109996725D01*
X196673997Y-110162859D01*
X197266334Y-110323522D01*
X197266334Y-110464548D01*
X196466000Y-110229537D01*
X196466000Y-110087437D01*
G37*
G36*
X196678588Y-110499425D02*
G01*
X196694220Y-110621303D01*
X196657629Y-110627492D01*
X196629555Y-110638086D01*
X196608247Y-110652468D01*
X196591407Y-110671493D01*
X196581766Y-110691835D01*
X196578547Y-110714213D01*
X196582371Y-110738358D01*
X196593840Y-110759915D01*
X196614108Y-110779767D01*
X196639227Y-110793963D01*
X196671456Y-110803168D01*
X196712685Y-110806536D01*
X196750973Y-110803320D01*
X196781043Y-110794503D01*
X196804618Y-110780842D01*
X196823667Y-110761854D01*
X196834443Y-110741367D01*
X196838030Y-110718560D01*
X196835442Y-110693610D01*
X196826551Y-110661163D01*
X196950577Y-110674841D01*
X196953289Y-110706188D01*
X196962250Y-110731399D01*
X196977102Y-110751875D01*
X196997152Y-110766906D01*
X197022583Y-110776356D01*
X197054967Y-110779767D01*
X197082255Y-110777261D01*
X197103739Y-110770355D01*
X197120668Y-110759544D01*
X197133901Y-110744719D01*
X197141718Y-110727662D01*
X197144408Y-110707618D01*
X197141500Y-110687671D01*
X197132786Y-110669571D01*
X197117542Y-110652663D01*
X197098335Y-110640039D01*
X197072463Y-110630639D01*
X197038114Y-110625113D01*
X197063124Y-110508707D01*
X197117785Y-110521100D01*
X197160964Y-110537347D01*
X197194635Y-110556808D01*
X197220417Y-110579195D01*
X197247384Y-110616686D01*
X197263754Y-110660207D01*
X197269461Y-110711477D01*
X197265237Y-110755100D01*
X197253131Y-110792614D01*
X197233395Y-110825251D01*
X197205469Y-110853822D01*
X197160582Y-110883492D01*
X197113742Y-110900795D01*
X197063808Y-110906578D01*
X197029467Y-110903852D01*
X196998109Y-110895890D01*
X196969189Y-110882789D01*
X196930452Y-110853805D01*
X196895378Y-110811470D01*
X196881788Y-110845790D01*
X196860511Y-110875525D01*
X196830703Y-110901352D01*
X196795815Y-110920152D01*
X196754630Y-110931919D01*
X196705699Y-110936083D01*
X196651841Y-110931737D01*
X196604475Y-110919244D01*
X196562467Y-110898988D01*
X196524960Y-110870772D01*
X196493035Y-110835679D01*
X196471031Y-110798525D01*
X196457935Y-110758699D01*
X196453494Y-110715287D01*
X196457363Y-110673249D01*
X196468640Y-110635401D01*
X196487278Y-110600882D01*
X196513822Y-110569084D01*
X196545597Y-110543067D01*
X196582990Y-110522697D01*
X196626922Y-110508001D01*
X196678588Y-110499425D01*
G37*
D13*
G36*
X196769872Y-99484164D02*
G01*
X196904304Y-99484164D01*
X196904304Y-99769977D01*
X196586886Y-99769977D01*
X196556115Y-99738816D01*
X196527077Y-99698533D01*
X196499886Y-99647563D01*
X196479409Y-99593822D01*
X196467435Y-99540982D01*
X196463494Y-99488512D01*
X196468989Y-99425084D01*
X196484940Y-99368303D01*
X196511122Y-99316907D01*
X196547073Y-99271879D01*
X196594033Y-99232668D01*
X196653759Y-99199133D01*
X196718483Y-99175650D01*
X196792456Y-99160891D01*
X196877242Y-99155706D01*
X196964238Y-99161020D01*
X197038738Y-99176019D01*
X197102629Y-99199670D01*
X197161750Y-99233256D01*
X197207752Y-99271311D01*
X197242531Y-99313878D01*
X197267800Y-99362604D01*
X197283398Y-99418126D01*
X197288840Y-99481966D01*
X197284703Y-99540628D01*
X197273008Y-99590664D01*
X197254459Y-99633488D01*
X197229244Y-99670228D01*
X197197362Y-99701361D01*
X197158400Y-99726974D01*
X197111232Y-99747079D01*
X197054367Y-99761233D01*
X197023103Y-99630075D01*
X197062746Y-99616871D01*
X197093979Y-99598767D01*
X197118260Y-99575951D01*
X197136517Y-99548210D01*
X197147502Y-99517200D01*
X197151282Y-99481966D01*
X197147060Y-99441079D01*
X197134835Y-99405251D01*
X197114630Y-99373387D01*
X197085630Y-99344799D01*
X197052017Y-99323556D01*
X197008952Y-99307144D01*
X196954284Y-99296310D01*
X196885448Y-99292336D01*
X196811824Y-99296566D01*
X196752226Y-99308198D01*
X196704252Y-99325983D01*
X196665874Y-99349195D01*
X196637301Y-99375905D01*
X196617367Y-99406200D01*
X196605257Y-99440802D01*
X196601052Y-99480891D01*
X196605413Y-99519621D01*
X196619224Y-99561491D01*
X196640765Y-99601064D01*
X196668903Y-99636083D01*
X196769872Y-99636083D01*
X196769872Y-99484164D01*
G37*
G36*
X196476000Y-100187046D02*
G01*
X196476000Y-100061359D01*
X197057493Y-100061359D01*
X197009135Y-100011324D01*
X196970816Y-99957196D01*
X196941819Y-99898498D01*
X197079377Y-99898498D01*
X197095932Y-99931936D01*
X197120519Y-99968025D01*
X197154604Y-100007235D01*
X197193032Y-100041293D01*
X197234492Y-100067156D01*
X197279461Y-100085392D01*
X197279461Y-100187046D01*
X196476000Y-100187046D01*
G37*
G36*
X196991326Y-100379858D02*
G01*
X197079493Y-100392748D01*
X197143504Y-100411345D01*
X197188700Y-100433976D01*
X197229838Y-100467199D01*
X197257567Y-100503401D01*
X197273903Y-100543251D01*
X197279461Y-100588093D01*
X197273888Y-100633242D01*
X197257528Y-100673275D01*
X197229795Y-100709551D01*
X197188700Y-100742747D01*
X197143511Y-100765364D01*
X197079297Y-100783979D01*
X196990614Y-100796898D01*
X196871184Y-100801805D01*
X196752091Y-100796902D01*
X196663590Y-100783990D01*
X196599447Y-100765376D01*
X196554255Y-100742747D01*
X196513118Y-100709548D01*
X196485390Y-100673362D01*
X196469053Y-100633520D01*
X196463494Y-100588679D01*
X196463560Y-100588142D01*
X196588547Y-100588142D01*
X196593448Y-100610302D01*
X196608741Y-100629837D01*
X196637933Y-100647639D01*
X196673680Y-100657726D01*
X196745163Y-100665992D01*
X196871184Y-100669523D01*
X196997622Y-100665989D01*
X197069260Y-100657721D01*
X197105023Y-100647639D01*
X197134214Y-100629837D01*
X197149507Y-100610302D01*
X197154408Y-100588142D01*
X197149537Y-100566276D01*
X197134271Y-100546801D01*
X197105023Y-100528840D01*
X197069252Y-100518644D01*
X196997615Y-100510284D01*
X196871184Y-100506711D01*
X196744768Y-100510288D01*
X196673258Y-100518651D01*
X196637639Y-100528840D01*
X196608587Y-100546782D01*
X196593398Y-100566256D01*
X196588547Y-100588142D01*
X196463560Y-100588142D01*
X196469028Y-100543479D01*
X196485265Y-100503418D01*
X196512753Y-100467145D01*
X196553424Y-100433976D01*
X196598204Y-100411462D01*
X196662426Y-100392859D01*
X196751783Y-100379902D01*
X196872845Y-100374967D01*
X196991326Y-100379858D01*
G37*
G36*
X196688588Y-114718811D02*
G01*
X196704220Y-114844499D01*
X196669273Y-114850699D01*
X196641462Y-114861594D01*
X196619419Y-114876739D01*
X196601633Y-114896467D01*
X196591754Y-114916285D01*
X196588547Y-114936871D01*
X196592547Y-114960901D01*
X196604698Y-114982817D01*
X196626502Y-115003501D01*
X196653408Y-115017897D01*
X196691181Y-115027678D01*
X196743201Y-115031393D01*
X196792239Y-115027728D01*
X196827797Y-115018067D01*
X196853110Y-115003794D01*
X196873141Y-114983343D01*
X196884734Y-114960267D01*
X196888672Y-114933550D01*
X196885301Y-114908402D01*
X196875029Y-114884220D01*
X196856934Y-114860316D01*
X196829272Y-114836292D01*
X196844904Y-114734101D01*
X197266956Y-114798581D01*
X197266956Y-115131435D01*
X197123145Y-115131435D01*
X197123145Y-114894227D01*
X196986125Y-114874003D01*
X197001801Y-114903360D01*
X197010792Y-114931978D01*
X197013725Y-114960368D01*
X197009885Y-114997756D01*
X196998616Y-115031659D01*
X196979757Y-115062913D01*
X196952468Y-115092063D01*
X196911700Y-115121138D01*
X196864587Y-115142384D01*
X196809948Y-115155708D01*
X196746279Y-115160403D01*
X196694337Y-115156732D01*
X196645008Y-115145862D01*
X196597749Y-115127780D01*
X196552106Y-115102175D01*
X196512948Y-115069543D01*
X196485770Y-115031722D01*
X196469256Y-114987726D01*
X196463494Y-114935797D01*
X196467298Y-114893076D01*
X196478325Y-114855028D01*
X196496424Y-114820750D01*
X196522015Y-114789593D01*
X196552786Y-114764195D01*
X196590015Y-114743770D01*
X196634815Y-114728459D01*
X196688588Y-114718811D01*
G37*
G36*
X196476000Y-115422622D02*
G01*
X197276334Y-115188197D01*
X197276334Y-115331910D01*
X196683997Y-115498044D01*
X197276334Y-115658707D01*
X197276334Y-115799733D01*
X196476000Y-115564722D01*
X196476000Y-115422622D01*
G37*
D12*
G36*
X196789872Y-107104164D02*
G01*
X196924304Y-107104164D01*
X196924304Y-107389977D01*
X196606886Y-107389977D01*
X196576115Y-107358816D01*
X196547077Y-107318533D01*
X196519886Y-107267563D01*
X196499409Y-107213822D01*
X196487435Y-107160982D01*
X196483494Y-107108512D01*
X196488989Y-107045084D01*
X196504940Y-106988303D01*
X196531122Y-106936907D01*
X196567073Y-106891879D01*
X196614033Y-106852668D01*
X196673759Y-106819133D01*
X196738483Y-106795650D01*
X196812456Y-106780891D01*
X196897242Y-106775706D01*
X196984238Y-106781020D01*
X197058738Y-106796019D01*
X197122629Y-106819670D01*
X197181750Y-106853256D01*
X197227752Y-106891311D01*
X197262531Y-106933878D01*
X197287800Y-106982604D01*
X197303398Y-107038126D01*
X197308840Y-107101966D01*
X197304703Y-107160628D01*
X197293008Y-107210664D01*
X197274459Y-107253488D01*
X197249244Y-107290228D01*
X197217362Y-107321361D01*
X197178400Y-107346974D01*
X197131232Y-107367079D01*
X197074367Y-107381233D01*
X197043103Y-107250075D01*
X197082746Y-107236871D01*
X197113979Y-107218767D01*
X197138260Y-107195951D01*
X197156517Y-107168210D01*
X197167502Y-107137200D01*
X197171282Y-107101966D01*
X197167060Y-107061079D01*
X197154835Y-107025251D01*
X197134630Y-106993387D01*
X197105630Y-106964799D01*
X197072017Y-106943556D01*
X197028952Y-106927144D01*
X196974284Y-106916310D01*
X196905448Y-106912336D01*
X196831824Y-106916566D01*
X196772226Y-106928198D01*
X196724252Y-106945983D01*
X196685874Y-106969195D01*
X196657301Y-106995905D01*
X196637367Y-107026200D01*
X196625257Y-107060802D01*
X196621052Y-107100891D01*
X196625413Y-107139621D01*
X196639224Y-107181491D01*
X196660765Y-107221064D01*
X196688903Y-107256083D01*
X196789872Y-107256083D01*
X196789872Y-107104164D01*
G37*
G36*
X196496000Y-107807046D02*
G01*
X196496000Y-107681359D01*
X197077493Y-107681359D01*
X197029135Y-107631324D01*
X196990816Y-107577196D01*
X196961819Y-107518498D01*
X197099377Y-107518498D01*
X197115932Y-107551936D01*
X197140519Y-107588025D01*
X197174604Y-107627235D01*
X197213032Y-107661293D01*
X197254492Y-107687156D01*
X197299461Y-107705392D01*
X197299461Y-107807046D01*
X196496000Y-107807046D01*
G37*
G36*
X196708588Y-107990619D02*
G01*
X196724220Y-108112496D01*
X196687629Y-108118685D01*
X196659555Y-108129280D01*
X196638247Y-108143662D01*
X196621407Y-108162687D01*
X196611766Y-108183028D01*
X196608547Y-108205406D01*
X196612371Y-108229552D01*
X196623840Y-108251109D01*
X196644108Y-108270961D01*
X196669227Y-108285157D01*
X196701456Y-108294362D01*
X196742685Y-108297730D01*
X196780973Y-108294514D01*
X196811043Y-108285697D01*
X196834618Y-108272036D01*
X196853667Y-108253048D01*
X196864443Y-108232560D01*
X196868030Y-108209754D01*
X196865442Y-108184803D01*
X196856551Y-108152357D01*
X196980577Y-108166034D01*
X196983289Y-108197381D01*
X196992250Y-108222593D01*
X197007102Y-108243068D01*
X197027152Y-108258099D01*
X197052583Y-108267550D01*
X197084967Y-108270961D01*
X197112255Y-108268454D01*
X197133739Y-108261549D01*
X197150668Y-108250738D01*
X197163901Y-108235913D01*
X197171718Y-108218856D01*
X197174408Y-108198812D01*
X197171500Y-108178865D01*
X197162786Y-108160765D01*
X197147542Y-108143857D01*
X197128335Y-108131233D01*
X197102463Y-108121832D01*
X197068114Y-108116306D01*
X197093124Y-107999900D01*
X197147785Y-108012294D01*
X197190964Y-108028541D01*
X197224635Y-108048001D01*
X197250417Y-108070389D01*
X197277384Y-108107879D01*
X197293754Y-108151400D01*
X197299461Y-108202671D01*
X197295237Y-108246294D01*
X197283131Y-108283808D01*
X197263395Y-108316444D01*
X197235469Y-108345015D01*
X197190582Y-108374685D01*
X197143742Y-108391988D01*
X197093808Y-108397772D01*
X197059467Y-108395045D01*
X197028109Y-108387084D01*
X196999189Y-108373983D01*
X196960452Y-108344999D01*
X196925378Y-108302664D01*
X196911788Y-108336984D01*
X196890511Y-108366718D01*
X196860703Y-108392545D01*
X196825815Y-108411346D01*
X196784630Y-108423113D01*
X196735699Y-108427276D01*
X196681841Y-108422931D01*
X196634475Y-108410437D01*
X196592467Y-108390182D01*
X196554960Y-108361966D01*
X196523035Y-108326873D01*
X196501031Y-108289719D01*
X196487935Y-108249893D01*
X196483494Y-108206481D01*
X196487363Y-108164443D01*
X196498640Y-108126594D01*
X196517278Y-108092076D01*
X196543822Y-108060277D01*
X196575597Y-108034261D01*
X196612990Y-108013891D01*
X196656922Y-107999194D01*
X196708588Y-107990619D01*
G37*
G36*
X196789872Y-112031756D02*
G01*
X196924304Y-112031756D01*
X196924304Y-112317569D01*
X196606886Y-112317569D01*
X196576115Y-112286408D01*
X196547077Y-112246125D01*
X196519886Y-112195155D01*
X196499409Y-112141414D01*
X196487435Y-112088574D01*
X196483494Y-112036104D01*
X196488989Y-111972676D01*
X196504940Y-111915895D01*
X196531122Y-111864499D01*
X196567073Y-111819471D01*
X196614033Y-111780260D01*
X196673759Y-111746725D01*
X196738483Y-111723242D01*
X196812456Y-111708483D01*
X196897242Y-111703298D01*
X196984238Y-111708612D01*
X197058738Y-111723611D01*
X197122629Y-111747262D01*
X197181750Y-111780848D01*
X197227752Y-111818903D01*
X197262531Y-111861470D01*
X197287800Y-111910196D01*
X197303398Y-111965718D01*
X197308840Y-112029558D01*
X197304703Y-112088220D01*
X197293008Y-112138256D01*
X197274459Y-112181080D01*
X197249244Y-112217820D01*
X197217362Y-112248953D01*
X197178400Y-112274566D01*
X197131232Y-112294671D01*
X197074367Y-112308825D01*
X197043103Y-112177667D01*
X197082746Y-112164463D01*
X197113979Y-112146359D01*
X197138260Y-112123543D01*
X197156517Y-112095802D01*
X197167502Y-112064792D01*
X197171282Y-112029558D01*
X197167060Y-111988671D01*
X197154835Y-111952843D01*
X197134630Y-111920979D01*
X197105630Y-111892391D01*
X197072017Y-111871148D01*
X197028952Y-111854736D01*
X196974284Y-111843902D01*
X196905448Y-111839928D01*
X196831824Y-111844158D01*
X196772226Y-111855790D01*
X196724252Y-111873575D01*
X196685874Y-111896787D01*
X196657301Y-111923497D01*
X196637367Y-111953792D01*
X196625257Y-111988394D01*
X196621052Y-112028483D01*
X196625413Y-112067213D01*
X196639224Y-112109083D01*
X196660765Y-112148656D01*
X196688903Y-112183675D01*
X196789872Y-112183675D01*
X196789872Y-112031756D01*
G37*
G36*
X196496000Y-112441693D02*
G01*
X197296334Y-112441693D01*
X197296334Y-112570702D01*
X196761882Y-112839565D01*
X197296334Y-112839565D01*
X197296334Y-112963054D01*
X196496000Y-112963054D01*
X196496000Y-112829746D01*
X197017898Y-112565231D01*
X196496000Y-112565231D01*
X196496000Y-112441693D01*
G37*
G36*
X197296334Y-113344415D02*
G01*
X197293554Y-113405982D01*
X197286283Y-113450963D01*
X197275867Y-113482949D01*
X197259728Y-113512346D01*
X197237016Y-113540968D01*
X197206795Y-113569021D01*
X197172801Y-113592434D01*
X197131171Y-113613114D01*
X197080668Y-113630765D01*
X197028508Y-113642594D01*
X196964902Y-113650368D01*
X196887960Y-113653187D01*
X196818960Y-113650334D01*
X196759186Y-113642284D01*
X196707514Y-113629690D01*
X196657325Y-113611521D01*
X196617377Y-113591553D01*
X196586076Y-113570095D01*
X196558537Y-113544211D01*
X196536180Y-113515266D01*
X196518665Y-113482949D01*
X196506703Y-113448124D01*
X196498856Y-113404888D01*
X196496000Y-113351547D01*
X196496000Y-113334010D01*
X196630431Y-113334010D01*
X196634031Y-113393442D01*
X196642448Y-113426627D01*
X196657629Y-113452815D01*
X196678840Y-113473668D01*
X196707387Y-113489253D01*
X196755776Y-113504003D01*
X196812496Y-113512639D01*
X196894262Y-113516020D01*
X196978748Y-113512510D01*
X197034897Y-113503710D01*
X197082440Y-113487282D01*
X197115937Y-113465462D01*
X197140485Y-113436612D01*
X197154771Y-113402349D01*
X197159646Y-113368025D01*
X197161903Y-113294687D01*
X197161903Y-113234554D01*
X196630431Y-113234554D01*
X196630431Y-113334010D01*
X196496000Y-113334010D01*
X196496000Y-113102321D01*
X197296334Y-113102321D01*
X197296334Y-113344415D01*
G37*
G36*
X209610127Y-100208650D02*
G01*
X209475695Y-100208650D01*
X209475695Y-99922837D01*
X209793113Y-99922837D01*
X209823884Y-99953998D01*
X209852922Y-99994281D01*
X209880113Y-100045251D01*
X209900590Y-100098992D01*
X209912564Y-100151832D01*
X209916505Y-100204302D01*
X209911010Y-100267730D01*
X209895059Y-100324511D01*
X209868877Y-100375907D01*
X209832926Y-100420935D01*
X209785966Y-100460146D01*
X209726240Y-100493681D01*
X209661516Y-100517164D01*
X209587543Y-100531923D01*
X209502757Y-100537108D01*
X209415761Y-100531794D01*
X209341261Y-100516795D01*
X209277370Y-100493144D01*
X209218249Y-100459558D01*
X209172247Y-100421503D01*
X209137468Y-100378936D01*
X209112199Y-100330210D01*
X209096601Y-100274688D01*
X209091159Y-100210848D01*
X209095296Y-100152186D01*
X209106991Y-100102150D01*
X209125540Y-100059326D01*
X209150755Y-100022586D01*
X209182637Y-99991453D01*
X209221599Y-99965840D01*
X209268767Y-99945735D01*
X209325632Y-99931581D01*
X209356896Y-100062739D01*
X209317253Y-100075943D01*
X209286020Y-100094047D01*
X209261739Y-100116863D01*
X209243482Y-100144604D01*
X209232497Y-100175614D01*
X209228717Y-100210848D01*
X209232939Y-100251735D01*
X209245164Y-100287563D01*
X209265369Y-100319427D01*
X209294369Y-100348015D01*
X209327982Y-100369258D01*
X209371047Y-100385670D01*
X209425715Y-100396504D01*
X209494551Y-100400478D01*
X209568175Y-100396248D01*
X209627773Y-100384616D01*
X209675747Y-100366831D01*
X209714125Y-100343619D01*
X209742698Y-100316909D01*
X209762632Y-100286614D01*
X209774742Y-100252012D01*
X209778947Y-100211923D01*
X209774586Y-100173193D01*
X209760775Y-100131323D01*
X209739234Y-100091750D01*
X209711096Y-100056731D01*
X209610127Y-100056731D01*
X209610127Y-100208650D01*
G37*
G36*
X209691411Y-99826019D02*
G01*
X209675779Y-99700332D01*
X209710726Y-99694132D01*
X209738537Y-99683237D01*
X209760580Y-99668092D01*
X209778366Y-99648363D01*
X209788245Y-99628545D01*
X209791452Y-99607959D01*
X209787452Y-99583929D01*
X209775301Y-99562013D01*
X209753497Y-99541330D01*
X209726591Y-99526933D01*
X209688818Y-99517152D01*
X209636798Y-99513437D01*
X209587760Y-99517103D01*
X209552202Y-99526763D01*
X209526889Y-99541037D01*
X209506858Y-99561487D01*
X209495265Y-99584564D01*
X209491327Y-99611281D01*
X209494698Y-99636428D01*
X209504970Y-99660610D01*
X209523065Y-99684515D01*
X209550727Y-99708538D01*
X209535095Y-99810729D01*
X209113043Y-99746249D01*
X209113043Y-99413395D01*
X209256854Y-99413395D01*
X209256854Y-99650604D01*
X209393874Y-99670827D01*
X209378198Y-99641471D01*
X209369207Y-99612853D01*
X209366274Y-99584463D01*
X209370114Y-99547075D01*
X209381383Y-99513171D01*
X209400242Y-99481918D01*
X209427531Y-99452767D01*
X209468299Y-99423693D01*
X209515412Y-99402446D01*
X209570051Y-99389123D01*
X209633720Y-99384428D01*
X209685662Y-99388099D01*
X209734991Y-99398969D01*
X209782250Y-99417050D01*
X209827893Y-99442655D01*
X209867051Y-99475287D01*
X209894229Y-99513108D01*
X209910743Y-99557105D01*
X209916505Y-99609034D01*
X209912701Y-99651755D01*
X209901674Y-99689803D01*
X209883575Y-99724081D01*
X209857984Y-99755237D01*
X209827213Y-99780636D01*
X209789984Y-99801061D01*
X209745184Y-99816371D01*
X209691411Y-99826019D01*
G37*
G36*
X209610127Y-110388650D02*
G01*
X209475695Y-110388650D01*
X209475695Y-110102837D01*
X209793113Y-110102837D01*
X209823884Y-110133998D01*
X209852922Y-110174281D01*
X209880113Y-110225251D01*
X209900590Y-110278992D01*
X209912564Y-110331832D01*
X209916505Y-110384302D01*
X209911010Y-110447730D01*
X209895059Y-110504511D01*
X209868877Y-110555907D01*
X209832926Y-110600935D01*
X209785966Y-110640146D01*
X209726240Y-110673681D01*
X209661516Y-110697164D01*
X209587543Y-110711923D01*
X209502757Y-110717108D01*
X209415761Y-110711794D01*
X209341261Y-110696795D01*
X209277370Y-110673144D01*
X209218249Y-110639558D01*
X209172247Y-110601503D01*
X209137468Y-110558936D01*
X209112199Y-110510210D01*
X209096601Y-110454688D01*
X209091159Y-110390848D01*
X209095296Y-110332186D01*
X209106991Y-110282150D01*
X209125540Y-110239326D01*
X209150755Y-110202586D01*
X209182637Y-110171453D01*
X209221599Y-110145840D01*
X209268767Y-110125735D01*
X209325632Y-110111581D01*
X209356896Y-110242739D01*
X209317253Y-110255943D01*
X209286020Y-110274047D01*
X209261739Y-110296863D01*
X209243482Y-110324604D01*
X209232497Y-110355614D01*
X209228717Y-110390848D01*
X209232939Y-110431735D01*
X209245164Y-110467563D01*
X209265369Y-110499427D01*
X209294369Y-110528015D01*
X209327982Y-110549258D01*
X209371047Y-110565670D01*
X209425715Y-110576504D01*
X209494551Y-110580478D01*
X209568175Y-110576248D01*
X209627773Y-110564616D01*
X209675747Y-110546831D01*
X209714125Y-110523619D01*
X209742698Y-110496909D01*
X209762632Y-110466614D01*
X209774742Y-110432012D01*
X209778947Y-110391923D01*
X209774586Y-110353193D01*
X209760775Y-110311323D01*
X209739234Y-110271750D01*
X209711096Y-110236731D01*
X209610127Y-110236731D01*
X209610127Y-110388650D01*
G37*
G36*
X209904000Y-109685768D02*
G01*
X209904000Y-109811455D01*
X209322506Y-109811455D01*
X209370864Y-109861490D01*
X209409183Y-109915618D01*
X209438180Y-109974316D01*
X209300622Y-109974316D01*
X209284067Y-109940878D01*
X209259480Y-109904789D01*
X209225395Y-109865579D01*
X209186967Y-109831521D01*
X209145507Y-109805658D01*
X209100538Y-109787422D01*
X209100538Y-109685768D01*
X209904000Y-109685768D01*
G37*
D13*
G36*
X209630127Y-97648650D02*
G01*
X209495695Y-97648650D01*
X209495695Y-97362837D01*
X209813113Y-97362837D01*
X209843884Y-97393998D01*
X209872922Y-97434281D01*
X209900113Y-97485251D01*
X209920590Y-97538992D01*
X209932564Y-97591832D01*
X209936505Y-97644302D01*
X209931010Y-97707730D01*
X209915059Y-97764511D01*
X209888877Y-97815907D01*
X209852926Y-97860935D01*
X209805966Y-97900146D01*
X209746240Y-97933681D01*
X209681516Y-97957164D01*
X209607543Y-97971923D01*
X209522757Y-97977108D01*
X209435761Y-97971794D01*
X209361261Y-97956795D01*
X209297370Y-97933144D01*
X209238249Y-97899558D01*
X209192247Y-97861503D01*
X209157468Y-97818936D01*
X209132199Y-97770210D01*
X209116601Y-97714688D01*
X209111159Y-97650848D01*
X209115296Y-97592186D01*
X209126991Y-97542150D01*
X209145540Y-97499326D01*
X209170755Y-97462586D01*
X209202637Y-97431453D01*
X209241599Y-97405840D01*
X209288767Y-97385735D01*
X209345632Y-97371581D01*
X209376896Y-97502739D01*
X209337253Y-97515943D01*
X209306020Y-97534047D01*
X209281739Y-97556863D01*
X209263482Y-97584604D01*
X209252497Y-97615614D01*
X209248717Y-97650848D01*
X209252939Y-97691735D01*
X209265164Y-97727563D01*
X209285369Y-97759427D01*
X209314369Y-97788015D01*
X209347982Y-97809258D01*
X209391047Y-97825670D01*
X209445715Y-97836504D01*
X209514551Y-97840478D01*
X209588175Y-97836248D01*
X209647773Y-97824616D01*
X209695747Y-97806831D01*
X209734125Y-97783619D01*
X209762698Y-97756909D01*
X209782632Y-97726614D01*
X209794742Y-97692012D01*
X209798947Y-97651923D01*
X209794586Y-97613193D01*
X209780775Y-97571323D01*
X209759234Y-97531750D01*
X209731096Y-97496731D01*
X209630127Y-97496731D01*
X209630127Y-97648650D01*
G37*
G36*
X209730034Y-96833127D02*
G01*
X209783066Y-96845178D01*
X209827488Y-96864081D01*
X209864697Y-96889494D01*
X209896683Y-96922341D01*
X209918775Y-96957836D01*
X209931992Y-96996633D01*
X209936505Y-97039752D01*
X209930826Y-97086217D01*
X209914047Y-97128135D01*
X209885474Y-97166803D01*
X209843057Y-97202907D01*
X209796125Y-97228188D01*
X209731971Y-97248538D01*
X209646065Y-97262421D01*
X209533162Y-97267631D01*
X209439314Y-97264130D01*
X209363382Y-97254561D01*
X209302620Y-97240153D01*
X209254552Y-97221882D01*
X209217014Y-97200415D01*
X209180987Y-97170733D01*
X209154241Y-97139044D01*
X209135584Y-97105068D01*
X209124367Y-97068236D01*
X209120538Y-97027736D01*
X209126176Y-96981320D01*
X209142590Y-96940927D01*
X209170168Y-96905077D01*
X209206274Y-96877299D01*
X209255277Y-96855731D01*
X209320622Y-96841378D01*
X209336254Y-96963256D01*
X209292446Y-96972449D01*
X209265678Y-96987675D01*
X209250743Y-97007969D01*
X209245591Y-97034868D01*
X209250265Y-97059779D01*
X209264575Y-97082127D01*
X209290824Y-97102914D01*
X209323164Y-97116451D01*
X209380232Y-97128519D01*
X209472834Y-97137059D01*
X209442512Y-97111511D01*
X209421983Y-97084595D01*
X209409313Y-97054289D01*
X209407463Y-97039752D01*
X209517579Y-97039752D01*
X209521249Y-97062140D01*
X209532324Y-97082282D01*
X209552066Y-97101009D01*
X209576426Y-97114054D01*
X209609823Y-97122819D01*
X209654942Y-97126117D01*
X209705087Y-97122466D01*
X209742962Y-97112680D01*
X209771250Y-97097980D01*
X209794717Y-97077011D01*
X209807391Y-97055888D01*
X209811452Y-97033744D01*
X209807877Y-97012107D01*
X209797150Y-96992992D01*
X209778089Y-96975565D01*
X209754442Y-96963791D01*
X209719269Y-96955526D01*
X209668619Y-96952314D01*
X209616266Y-96955742D01*
X209579229Y-96964640D01*
X209553727Y-96977471D01*
X209533021Y-96996314D01*
X209521427Y-97016782D01*
X209517579Y-97039752D01*
X209407463Y-97039752D01*
X209405032Y-97020653D01*
X209409315Y-96984119D01*
X209422106Y-96950059D01*
X209444029Y-96917602D01*
X209476595Y-96886221D01*
X209513543Y-96862024D01*
X209556730Y-96844142D01*
X209607301Y-96832831D01*
X209666665Y-96828824D01*
X209730034Y-96833127D01*
G37*
G36*
X209630127Y-107828650D02*
G01*
X209495695Y-107828650D01*
X209495695Y-107542837D01*
X209813113Y-107542837D01*
X209843884Y-107573998D01*
X209872922Y-107614281D01*
X209900113Y-107665251D01*
X209920590Y-107718992D01*
X209932564Y-107771832D01*
X209936505Y-107824302D01*
X209931010Y-107887730D01*
X209915059Y-107944511D01*
X209888877Y-107995907D01*
X209852926Y-108040935D01*
X209805966Y-108080146D01*
X209746240Y-108113681D01*
X209681516Y-108137164D01*
X209607543Y-108151923D01*
X209522757Y-108157108D01*
X209435761Y-108151794D01*
X209361261Y-108136795D01*
X209297370Y-108113144D01*
X209238249Y-108079558D01*
X209192247Y-108041503D01*
X209157468Y-107998936D01*
X209132199Y-107950210D01*
X209116601Y-107894688D01*
X209111159Y-107830848D01*
X209115296Y-107772186D01*
X209126991Y-107722150D01*
X209145540Y-107679326D01*
X209170755Y-107642586D01*
X209202637Y-107611453D01*
X209241599Y-107585840D01*
X209288767Y-107565735D01*
X209345632Y-107551581D01*
X209376896Y-107682739D01*
X209337253Y-107695943D01*
X209306020Y-107714047D01*
X209281739Y-107736863D01*
X209263482Y-107764604D01*
X209252497Y-107795614D01*
X209248717Y-107830848D01*
X209252939Y-107871735D01*
X209265164Y-107907563D01*
X209285369Y-107939427D01*
X209314369Y-107968015D01*
X209347982Y-107989258D01*
X209391047Y-108005670D01*
X209445715Y-108016504D01*
X209514551Y-108020478D01*
X209588175Y-108016248D01*
X209647773Y-108004616D01*
X209695747Y-107986831D01*
X209734125Y-107963619D01*
X209762698Y-107936909D01*
X209782632Y-107906614D01*
X209794742Y-107872012D01*
X209798947Y-107831923D01*
X209794586Y-107793193D01*
X209780775Y-107751323D01*
X209759234Y-107711750D01*
X209731096Y-107676731D01*
X209630127Y-107676731D01*
X209630127Y-107828650D01*
G37*
G36*
X209780189Y-107022502D02*
G01*
X209924000Y-107022502D01*
X209924000Y-107464044D01*
X209870820Y-107456063D01*
X209819575Y-107441627D01*
X209769882Y-107420618D01*
X209722640Y-107393126D01*
X209659889Y-107347818D01*
X209577956Y-107279348D01*
X209489751Y-107205301D01*
X209449826Y-107177157D01*
X209416449Y-107161045D01*
X209383951Y-107151760D01*
X209351836Y-107148727D01*
X209317490Y-107151735D01*
X209291670Y-107159841D01*
X209272408Y-107172223D01*
X209257574Y-107189424D01*
X209248685Y-107209685D01*
X209245591Y-107233967D01*
X209250141Y-107263068D01*
X209263125Y-107285790D01*
X209285321Y-107303753D01*
X209319646Y-107317031D01*
X209370643Y-107324142D01*
X209355011Y-107449292D01*
X209293833Y-107439686D01*
X209245233Y-107424630D01*
X209206992Y-107405012D01*
X209177300Y-107381246D01*
X209152916Y-107351316D01*
X209135323Y-107316880D01*
X209124380Y-107277066D01*
X209120538Y-107230695D01*
X209125171Y-107179908D01*
X209138169Y-107138128D01*
X209158870Y-107103557D01*
X209187558Y-107074965D01*
X209234439Y-107045795D01*
X209285206Y-107028414D01*
X209341138Y-107022502D01*
X209389557Y-107025867D01*
X209436198Y-107035886D01*
X209481637Y-107052577D01*
X209528815Y-107077164D01*
X209577468Y-107110912D01*
X209647810Y-107170025D01*
X209737691Y-107246815D01*
X209780189Y-107272753D01*
X209780189Y-107022502D01*
G37*
G36*
X209640127Y-95148650D02*
G01*
X209505695Y-95148650D01*
X209505695Y-94862837D01*
X209823113Y-94862837D01*
X209853884Y-94893998D01*
X209882922Y-94934281D01*
X209910113Y-94985251D01*
X209930590Y-95038992D01*
X209942564Y-95091832D01*
X209946505Y-95144302D01*
X209941010Y-95207730D01*
X209925059Y-95264511D01*
X209898877Y-95315907D01*
X209862926Y-95360935D01*
X209815966Y-95400146D01*
X209756240Y-95433681D01*
X209691516Y-95457164D01*
X209617543Y-95471923D01*
X209532757Y-95477108D01*
X209445761Y-95471794D01*
X209371261Y-95456795D01*
X209307370Y-95433144D01*
X209248249Y-95399558D01*
X209202247Y-95361503D01*
X209167468Y-95318936D01*
X209142199Y-95270210D01*
X209126601Y-95214688D01*
X209121159Y-95150848D01*
X209125296Y-95092186D01*
X209136991Y-95042150D01*
X209155540Y-94999326D01*
X209180755Y-94962586D01*
X209212637Y-94931453D01*
X209251599Y-94905840D01*
X209298767Y-94885735D01*
X209355632Y-94871581D01*
X209386896Y-95002739D01*
X209347253Y-95015943D01*
X209316020Y-95034047D01*
X209291739Y-95056863D01*
X209273482Y-95084604D01*
X209262497Y-95115614D01*
X209258717Y-95150848D01*
X209262939Y-95191735D01*
X209275164Y-95227563D01*
X209295369Y-95259427D01*
X209324369Y-95288015D01*
X209357982Y-95309258D01*
X209401047Y-95325670D01*
X209455715Y-95336504D01*
X209524551Y-95340478D01*
X209598175Y-95336248D01*
X209657773Y-95324616D01*
X209705747Y-95306831D01*
X209744125Y-95283619D01*
X209772698Y-95256909D01*
X209792632Y-95226614D01*
X209804742Y-95192012D01*
X209808947Y-95151923D01*
X209804586Y-95113193D01*
X209790775Y-95071323D01*
X209769234Y-95031750D01*
X209741096Y-94996731D01*
X209640127Y-94996731D01*
X209640127Y-95148650D01*
G37*
G36*
X209286854Y-94768217D02*
G01*
X209143043Y-94768217D01*
X209143043Y-94337568D01*
X209254614Y-94337568D01*
X209299049Y-94370285D01*
X209358667Y-94406019D01*
X209436526Y-94444986D01*
X209516202Y-94478207D01*
X209600325Y-94506293D01*
X209689219Y-94529152D01*
X209779737Y-94546208D01*
X209861030Y-94555851D01*
X209934000Y-94558901D01*
X209934000Y-94680192D01*
X209821160Y-94672030D01*
X209707901Y-94653191D01*
X209593769Y-94623381D01*
X209482663Y-94583717D01*
X209380601Y-94536484D01*
X209286854Y-94481818D01*
X209286854Y-94768217D01*
G37*
D12*
G36*
X209640127Y-102728650D02*
G01*
X209505695Y-102728650D01*
X209505695Y-102442837D01*
X209823113Y-102442837D01*
X209853884Y-102473998D01*
X209882922Y-102514281D01*
X209910113Y-102565251D01*
X209930590Y-102618992D01*
X209942564Y-102671832D01*
X209946505Y-102724302D01*
X209941010Y-102787730D01*
X209925059Y-102844511D01*
X209898877Y-102895907D01*
X209862926Y-102940935D01*
X209815966Y-102980146D01*
X209756240Y-103013681D01*
X209691516Y-103037164D01*
X209617543Y-103051923D01*
X209532757Y-103057108D01*
X209445761Y-103051794D01*
X209371261Y-103036795D01*
X209307370Y-103013144D01*
X209248249Y-102979558D01*
X209202247Y-102941503D01*
X209167468Y-102898936D01*
X209142199Y-102850210D01*
X209126601Y-102794688D01*
X209121159Y-102730848D01*
X209125296Y-102672186D01*
X209136991Y-102622150D01*
X209155540Y-102579326D01*
X209180755Y-102542586D01*
X209212637Y-102511453D01*
X209251599Y-102485840D01*
X209298767Y-102465735D01*
X209355632Y-102451581D01*
X209386896Y-102582739D01*
X209347253Y-102595943D01*
X209316020Y-102614047D01*
X209291739Y-102636863D01*
X209273482Y-102664604D01*
X209262497Y-102695614D01*
X209258717Y-102730848D01*
X209262939Y-102771735D01*
X209275164Y-102807563D01*
X209295369Y-102839427D01*
X209324369Y-102868015D01*
X209357982Y-102889258D01*
X209401047Y-102905670D01*
X209455715Y-102916504D01*
X209524551Y-102920478D01*
X209598175Y-102916248D01*
X209657773Y-102904616D01*
X209705747Y-102886831D01*
X209744125Y-102863619D01*
X209772698Y-102836909D01*
X209792632Y-102806614D01*
X209804742Y-102772012D01*
X209808947Y-102731923D01*
X209804586Y-102693193D01*
X209790775Y-102651323D01*
X209769234Y-102611750D01*
X209741096Y-102576731D01*
X209640127Y-102576731D01*
X209640127Y-102728650D01*
G37*
G36*
X209771431Y-101979313D02*
G01*
X209934000Y-101979313D01*
X209934000Y-102101190D01*
X209771431Y-102101190D01*
X209771431Y-102370053D01*
X209637538Y-102370053D01*
X209158806Y-102101190D01*
X209364181Y-102101190D01*
X209637000Y-102252034D01*
X209637000Y-102101190D01*
X209364181Y-102101190D01*
X209158806Y-102101190D01*
X209130538Y-102085314D01*
X209130538Y-101979313D01*
X209637000Y-101979313D01*
X209637000Y-101897882D01*
X209771431Y-101897882D01*
X209771431Y-101979313D01*
G37*
G36*
X209640127Y-105268650D02*
G01*
X209505695Y-105268650D01*
X209505695Y-104982837D01*
X209823113Y-104982837D01*
X209853884Y-105013998D01*
X209882922Y-105054281D01*
X209910113Y-105105251D01*
X209930590Y-105158992D01*
X209942564Y-105211832D01*
X209946505Y-105264302D01*
X209941010Y-105327730D01*
X209925059Y-105384511D01*
X209898877Y-105435907D01*
X209862926Y-105480935D01*
X209815966Y-105520146D01*
X209756240Y-105553681D01*
X209691516Y-105577164D01*
X209617543Y-105591923D01*
X209532757Y-105597108D01*
X209445761Y-105591794D01*
X209371261Y-105576795D01*
X209307370Y-105553144D01*
X209248249Y-105519558D01*
X209202247Y-105481503D01*
X209167468Y-105438936D01*
X209142199Y-105390210D01*
X209126601Y-105334688D01*
X209121159Y-105270848D01*
X209125296Y-105212186D01*
X209136991Y-105162150D01*
X209155540Y-105119326D01*
X209180755Y-105082586D01*
X209212637Y-105051453D01*
X209251599Y-105025840D01*
X209298767Y-105005735D01*
X209355632Y-104991581D01*
X209386896Y-105122739D01*
X209347253Y-105135943D01*
X209316020Y-105154047D01*
X209291739Y-105176863D01*
X209273482Y-105204604D01*
X209262497Y-105235614D01*
X209258717Y-105270848D01*
X209262939Y-105311735D01*
X209275164Y-105347563D01*
X209295369Y-105379427D01*
X209324369Y-105408015D01*
X209357982Y-105429258D01*
X209401047Y-105445670D01*
X209455715Y-105456504D01*
X209524551Y-105460478D01*
X209598175Y-105456248D01*
X209657773Y-105444616D01*
X209705747Y-105426831D01*
X209744125Y-105403619D01*
X209772698Y-105376909D01*
X209792632Y-105346614D01*
X209804742Y-105312012D01*
X209808947Y-105271923D01*
X209804586Y-105233193D01*
X209790775Y-105191323D01*
X209769234Y-105151750D01*
X209741096Y-105116731D01*
X209640127Y-105116731D01*
X209640127Y-105268650D01*
G37*
G36*
X209721411Y-104892565D02*
G01*
X209705779Y-104770688D01*
X209742370Y-104764498D01*
X209770444Y-104753904D01*
X209791752Y-104739522D01*
X209808592Y-104720497D01*
X209818233Y-104700155D01*
X209821452Y-104677778D01*
X209817628Y-104653632D01*
X209806159Y-104632075D01*
X209785891Y-104612223D01*
X209760772Y-104598027D01*
X209728543Y-104588822D01*
X209687314Y-104585454D01*
X209649026Y-104588670D01*
X209618956Y-104597487D01*
X209595381Y-104611148D01*
X209576332Y-104630136D01*
X209565556Y-104650624D01*
X209561969Y-104673430D01*
X209564557Y-104698381D01*
X209573448Y-104730827D01*
X209449422Y-104717150D01*
X209446710Y-104685803D01*
X209437749Y-104660591D01*
X209422897Y-104640115D01*
X209402847Y-104625085D01*
X209377416Y-104615634D01*
X209345032Y-104612223D01*
X209317744Y-104614730D01*
X209296260Y-104621635D01*
X209279331Y-104632446D01*
X209266098Y-104647271D01*
X209258281Y-104664328D01*
X209255591Y-104684372D01*
X209258499Y-104704319D01*
X209267213Y-104722419D01*
X209282457Y-104739327D01*
X209301664Y-104751951D01*
X209327536Y-104761351D01*
X209361885Y-104766877D01*
X209336875Y-104883284D01*
X209282214Y-104870890D01*
X209239035Y-104854643D01*
X209205364Y-104835182D01*
X209179582Y-104812795D01*
X209152615Y-104775304D01*
X209136245Y-104731783D01*
X209130538Y-104680513D01*
X209134762Y-104636890D01*
X209146868Y-104599376D01*
X209166604Y-104566740D01*
X209194530Y-104538168D01*
X209239417Y-104508499D01*
X209286257Y-104491196D01*
X209336191Y-104485412D01*
X209370532Y-104488139D01*
X209401890Y-104496100D01*
X209430810Y-104509201D01*
X209469547Y-104538185D01*
X209504621Y-104580520D01*
X209518211Y-104546200D01*
X209539488Y-104516466D01*
X209569296Y-104490639D01*
X209604184Y-104471838D01*
X209645369Y-104460071D01*
X209694300Y-104455907D01*
X209748158Y-104460253D01*
X209795524Y-104472747D01*
X209837532Y-104493002D01*
X209875039Y-104521218D01*
X209906964Y-104556311D01*
X209928968Y-104593465D01*
X209942064Y-104633291D01*
X209946505Y-104676703D01*
X209942636Y-104718741D01*
X209931359Y-104756589D01*
X209912721Y-104791108D01*
X209886177Y-104822907D01*
X209854402Y-104848923D01*
X209817009Y-104869293D01*
X209773077Y-104883989D01*
X209721411Y-104892565D01*
G37*
G36*
X209934000Y-112796899D02*
G01*
X209760441Y-112893033D01*
X209675322Y-112941720D01*
X209642080Y-112963570D01*
X209620981Y-112983433D01*
X209608668Y-113002893D01*
X209602227Y-113026900D01*
X209599484Y-113069572D01*
X209599484Y-113096927D01*
X209934000Y-113096927D01*
X209934000Y-113229160D01*
X209133665Y-113229160D01*
X209133665Y-112993075D01*
X209268096Y-112993075D01*
X209268096Y-113096927D01*
X209471306Y-113096927D01*
X209471306Y-112998546D01*
X209468678Y-112916398D01*
X209463392Y-112883800D01*
X209451644Y-112861759D01*
X209431445Y-112843891D01*
X209404833Y-112832730D01*
X209367503Y-112828553D01*
X209331754Y-112832711D01*
X209306051Y-112843891D01*
X209286453Y-112861929D01*
X209274104Y-112885412D01*
X209270192Y-112912430D01*
X209268096Y-112993075D01*
X209133665Y-112993075D01*
X209133665Y-112949893D01*
X209136737Y-112877740D01*
X209144518Y-112828701D01*
X209155207Y-112796899D01*
X209172509Y-112768841D01*
X209197025Y-112743774D01*
X209229945Y-112721477D01*
X209266472Y-112705496D01*
X209308559Y-112695490D01*
X209357293Y-112691972D01*
X209418336Y-112697468D01*
X209467925Y-112712799D01*
X209508382Y-112737059D01*
X209541246Y-112770568D01*
X209565226Y-112812646D01*
X209580336Y-112865189D01*
X209612973Y-112825648D01*
X209647356Y-112794701D01*
X209691587Y-112765592D01*
X209777684Y-112718692D01*
X209934000Y-112638923D01*
X209934000Y-112796899D01*
G37*
G36*
X209934000Y-112633061D02*
G01*
X209517468Y-112406061D01*
X209133665Y-112612300D01*
X209133665Y-112457059D01*
X209372827Y-112327073D01*
X209133665Y-112196403D01*
X209133665Y-112042824D01*
X209516393Y-112249013D01*
X209934000Y-112022063D01*
X209934000Y-112182188D01*
X209662841Y-112327904D01*
X209934000Y-112474010D01*
X209934000Y-112633061D01*
G37*
D13*
G36*
X209944000Y-115600394D02*
G01*
X209278096Y-115600394D01*
X209278096Y-115795496D01*
X209143665Y-115795496D01*
X209143665Y-115273597D01*
X209278096Y-115273597D01*
X209278096Y-115468161D01*
X209944000Y-115468161D01*
X209944000Y-115600394D01*
G37*
G36*
X209944000Y-115254253D02*
G01*
X209527468Y-115027254D01*
X209143665Y-115233493D01*
X209143665Y-115078252D01*
X209382827Y-114948266D01*
X209143665Y-114817596D01*
X209143665Y-114664016D01*
X209526393Y-114870206D01*
X209944000Y-114643255D01*
X209944000Y-114803381D01*
X209672841Y-114949096D01*
X209944000Y-115095202D01*
X209944000Y-115254253D01*
G37*
D10*
X194200000Y-93739000D02*
X194200000Y-116479000D01*
X194200000Y-93739000D02*
X194700000Y-93239000D01*
X194200000Y-116479000D02*
X194700000Y-116979000D01*
X194700000Y-93239000D02*
X211700000Y-93239000D01*
X194700000Y-116979000D02*
X200380000Y-116979000D01*
X205980000Y-116979000D02*
X211700000Y-116979000D01*
X211700000Y-93239000D02*
X212200000Y-93739000D01*
X212200000Y-93739000D02*
X212200000Y-116479000D01*
X212200000Y-116479000D02*
X211700000Y-116979000D01*
X200380000Y-113639000D02*
X205990000Y-113639000D01*
X205990000Y-118089000D01*
X200380000Y-118089000D01*
X200380000Y-113639000D01*
M02*
