G04 #@! TF.GenerationSoftware,KiCad,Pcbnew,10.0.3*
G04 #@! TF.ProjectId,Speakeasy Lowcost,53706561-6b65-4617-9379-204c6f77636f,rev?*
G04 #@! TF.SameCoordinates,Original*
G04 #@! TF.FileFunction,Copper,L2,Bot*
G04 #@! TF.FilePolarity,Positive*
%FSLAX46Y46*%
G04 Gerber Fmt 4.6, Leading zero omitted, Abs format (unit mm)*
%MOMM*%
%LPD*%
G01*
G04 APERTURE LIST*
G04 #@! TA.AperFunction,ComponentPad*
%ADD10C,0.800000*%
G04 #@! TD*
G04 #@! TA.AperFunction,ComponentPad*
%ADD11C,6.400000*%
G04 #@! TD*
G04 #@! TA.AperFunction,ComponentPad*
%ADD12R,1.500000X1.500000*%
G04 #@! TD*
G04 #@! TA.AperFunction,ComponentPad*
%ADD13C,1.500000*%
G04 #@! TD*
G04 #@! TA.AperFunction,ComponentPad*
%ADD14O,1.750000X3.000000*%
G04 #@! TD*
G04 #@! TA.AperFunction,Conductor*
%ADD15C,1.000000*%
G04 #@! TD*
G04 APERTURE END LIST*
D10*
X216800000Y-85500000D03*
X217502944Y-83802944D03*
X217502944Y-87197056D03*
X219200000Y-83100000D03*
D11*
X219200000Y-85500000D03*
D10*
X219200000Y-87900000D03*
X220897056Y-83802944D03*
X220897056Y-87197056D03*
X221600000Y-85500000D03*
X184800000Y-117500000D03*
X185502944Y-115802944D03*
X185502944Y-119197056D03*
X187200000Y-115100000D03*
D11*
X187200000Y-117500000D03*
D10*
X187200000Y-119900000D03*
X188897056Y-115802944D03*
X188897056Y-119197056D03*
X189600000Y-117500000D03*
D12*
X210820000Y-115239000D03*
D13*
X210820000Y-112699000D03*
X210820000Y-110159000D03*
X210820000Y-107619000D03*
X210820000Y-105079000D03*
X210820000Y-102539000D03*
X210820000Y-99999000D03*
X210820000Y-97459000D03*
X210820000Y-94919000D03*
X195590000Y-94919000D03*
X195590000Y-97459000D03*
X195590000Y-99999000D03*
X195590000Y-102539000D03*
X195590000Y-105079000D03*
X195590000Y-107619000D03*
X195590000Y-110159000D03*
X195590000Y-112699000D03*
X195590000Y-115239000D03*
D10*
X184800000Y-85500000D03*
X185502944Y-83802944D03*
X185502944Y-87197056D03*
X187200000Y-83100000D03*
D11*
X187200000Y-85500000D03*
D10*
X187200000Y-87900000D03*
X188897056Y-83802944D03*
X188897056Y-87197056D03*
X189600000Y-85500000D03*
X216800000Y-117500000D03*
X217502944Y-115802944D03*
X217502944Y-119197056D03*
X219200000Y-115100000D03*
D11*
X219200000Y-117500000D03*
D10*
X219200000Y-119900000D03*
X220897056Y-115802944D03*
X220897056Y-119197056D03*
X221600000Y-117500000D03*
D14*
X210700000Y-91129000D03*
X208160000Y-91129000D03*
X205620000Y-91129000D03*
X203080000Y-91129000D03*
X200540000Y-91129000D03*
X198000000Y-91129000D03*
X195460000Y-91129000D03*
D15*
X197040000Y-106648390D02*
X197040000Y-113789000D01*
X210700000Y-92988390D02*
X197040000Y-106648390D01*
X210700000Y-90629000D02*
X210700000Y-92988390D01*
X197040000Y-113789000D02*
X195590000Y-115239000D01*
G04 #@! TA.AperFunction,Conductor*
G36*
X219202855Y-81600632D02*
G01*
X219563311Y-81617296D01*
X219574700Y-81618352D01*
X219929238Y-81667808D01*
X219940482Y-81669910D01*
X220288944Y-81751867D01*
X220299934Y-81754994D01*
X220639368Y-81868761D01*
X220650022Y-81872889D01*
X220977496Y-82017482D01*
X220987723Y-82022574D01*
X221230656Y-82157887D01*
X221300453Y-82196764D01*
X221310191Y-82202793D01*
X221605513Y-82405093D01*
X221614653Y-82411996D01*
X221890035Y-82640670D01*
X221898499Y-82648386D01*
X222151613Y-82901500D01*
X222159329Y-82909964D01*
X222388003Y-83185346D01*
X222394906Y-83194486D01*
X222597206Y-83489808D01*
X222603235Y-83499546D01*
X222777418Y-83812263D01*
X222782523Y-83822516D01*
X222927105Y-84149964D01*
X222931243Y-84160644D01*
X223045001Y-84500052D01*
X223048135Y-84511068D01*
X223130087Y-84859509D01*
X223132192Y-84870768D01*
X223181646Y-85225291D01*
X223182703Y-85236695D01*
X223199368Y-85597144D01*
X223199500Y-85602871D01*
X223199500Y-117597128D01*
X223199368Y-117602855D01*
X223182703Y-117963304D01*
X223181646Y-117974708D01*
X223132192Y-118329231D01*
X223130087Y-118340490D01*
X223048135Y-118688931D01*
X223045001Y-118699947D01*
X222931243Y-119039355D01*
X222927105Y-119050035D01*
X222782523Y-119377483D01*
X222777418Y-119387736D01*
X222603235Y-119700453D01*
X222597206Y-119710191D01*
X222394906Y-120005513D01*
X222388003Y-120014653D01*
X222159329Y-120290035D01*
X222151613Y-120298499D01*
X221898499Y-120551613D01*
X221890035Y-120559329D01*
X221614653Y-120788003D01*
X221605513Y-120794906D01*
X221310191Y-120997206D01*
X221300453Y-121003235D01*
X220987736Y-121177418D01*
X220977483Y-121182523D01*
X220650035Y-121327105D01*
X220639355Y-121331243D01*
X220299947Y-121445001D01*
X220288931Y-121448135D01*
X219940490Y-121530087D01*
X219929231Y-121532192D01*
X219574708Y-121581646D01*
X219563304Y-121582703D01*
X219202855Y-121599368D01*
X219197128Y-121599500D01*
X187202872Y-121599500D01*
X187197145Y-121599368D01*
X186836695Y-121582703D01*
X186825291Y-121581646D01*
X186470768Y-121532192D01*
X186459509Y-121530087D01*
X186111068Y-121448135D01*
X186100052Y-121445001D01*
X185760644Y-121331243D01*
X185749964Y-121327105D01*
X185422511Y-121182520D01*
X185412268Y-121177420D01*
X185310316Y-121120633D01*
X185099546Y-121003235D01*
X185089808Y-120997206D01*
X184794486Y-120794906D01*
X184785346Y-120788003D01*
X184509964Y-120559329D01*
X184501500Y-120551613D01*
X184248386Y-120298499D01*
X184240670Y-120290035D01*
X184011996Y-120014653D01*
X184005093Y-120005513D01*
X183802793Y-119710191D01*
X183796764Y-119700453D01*
X183640149Y-119419276D01*
X183622574Y-119387723D01*
X183617482Y-119377496D01*
X183472889Y-119050022D01*
X183468761Y-119039368D01*
X183354994Y-118699934D01*
X183351867Y-118688944D01*
X183269910Y-118340482D01*
X183267807Y-118329231D01*
X183218353Y-117974708D01*
X183217296Y-117963304D01*
X183200632Y-117602855D01*
X183200500Y-117597128D01*
X183200500Y-90395746D01*
X194084500Y-90395746D01*
X194084500Y-91862253D01*
X194118370Y-92076098D01*
X194185272Y-92282006D01*
X194185273Y-92282009D01*
X194266345Y-92441120D01*
X194283567Y-92474919D01*
X194410828Y-92650078D01*
X194563922Y-92803172D01*
X194739081Y-92930433D01*
X194833697Y-92978642D01*
X194931990Y-93028726D01*
X194931993Y-93028727D01*
X195034947Y-93062178D01*
X195137903Y-93095630D01*
X195351746Y-93129500D01*
X195351747Y-93129500D01*
X195568253Y-93129500D01*
X195568254Y-93129500D01*
X195782097Y-93095630D01*
X195988009Y-93028726D01*
X196180919Y-92930433D01*
X196356078Y-92803172D01*
X196509172Y-92650078D01*
X196629683Y-92484208D01*
X196685012Y-92441545D01*
X196754625Y-92435566D01*
X196816420Y-92468172D01*
X196830313Y-92484205D01*
X196950828Y-92650078D01*
X197103922Y-92803172D01*
X197279081Y-92930433D01*
X197373697Y-92978642D01*
X197471990Y-93028726D01*
X197471993Y-93028727D01*
X197574947Y-93062178D01*
X197677903Y-93095630D01*
X197891746Y-93129500D01*
X197891747Y-93129500D01*
X198108253Y-93129500D01*
X198108254Y-93129500D01*
X198322097Y-93095630D01*
X198528009Y-93028726D01*
X198720919Y-92930433D01*
X198896078Y-92803172D01*
X199049172Y-92650078D01*
X199169683Y-92484208D01*
X199225012Y-92441545D01*
X199294625Y-92435566D01*
X199356420Y-92468172D01*
X199370313Y-92484205D01*
X199490828Y-92650078D01*
X199643922Y-92803172D01*
X199819081Y-92930433D01*
X199913697Y-92978642D01*
X200011990Y-93028726D01*
X200011993Y-93028727D01*
X200114947Y-93062178D01*
X200217903Y-93095630D01*
X200431746Y-93129500D01*
X200431747Y-93129500D01*
X200648253Y-93129500D01*
X200648254Y-93129500D01*
X200862097Y-93095630D01*
X201068009Y-93028726D01*
X201260919Y-92930433D01*
X201436078Y-92803172D01*
X201589172Y-92650078D01*
X201709683Y-92484208D01*
X201765012Y-92441545D01*
X201834625Y-92435566D01*
X201896420Y-92468172D01*
X201910313Y-92484205D01*
X202030828Y-92650078D01*
X202183922Y-92803172D01*
X202359081Y-92930433D01*
X202453697Y-92978642D01*
X202551990Y-93028726D01*
X202551993Y-93028727D01*
X202654947Y-93062178D01*
X202757903Y-93095630D01*
X202971746Y-93129500D01*
X202971747Y-93129500D01*
X203188253Y-93129500D01*
X203188254Y-93129500D01*
X203402097Y-93095630D01*
X203608009Y-93028726D01*
X203800919Y-92930433D01*
X203976078Y-92803172D01*
X204129172Y-92650078D01*
X204249683Y-92484208D01*
X204305012Y-92441545D01*
X204374625Y-92435566D01*
X204436420Y-92468172D01*
X204450313Y-92484205D01*
X204570828Y-92650078D01*
X204723922Y-92803172D01*
X204899081Y-92930433D01*
X204993697Y-92978642D01*
X205091990Y-93028726D01*
X205091993Y-93028727D01*
X205194947Y-93062178D01*
X205297903Y-93095630D01*
X205511746Y-93129500D01*
X205511747Y-93129500D01*
X205728253Y-93129500D01*
X205728254Y-93129500D01*
X205942097Y-93095630D01*
X206148009Y-93028726D01*
X206340919Y-92930433D01*
X206516078Y-92803172D01*
X206669172Y-92650078D01*
X206789991Y-92483784D01*
X206845320Y-92441120D01*
X206914933Y-92435141D01*
X206976728Y-92467747D01*
X206990626Y-92483785D01*
X207111211Y-92649754D01*
X207111211Y-92649755D01*
X207264244Y-92802788D01*
X207439342Y-92930005D01*
X207632182Y-93028263D01*
X207632185Y-93028264D01*
X207838017Y-93095142D01*
X207910000Y-93106543D01*
X207910000Y-91062012D01*
X207967007Y-91094925D01*
X208094174Y-91129000D01*
X208225826Y-91129000D01*
X208352993Y-91094925D01*
X208410000Y-91062012D01*
X208410000Y-93106542D01*
X208481980Y-93095142D01*
X208481983Y-93095142D01*
X208687814Y-93028264D01*
X208687817Y-93028263D01*
X208880657Y-92930005D01*
X209055754Y-92802788D01*
X209055755Y-92802788D01*
X209208788Y-92649755D01*
X209208793Y-92649749D01*
X209329373Y-92483786D01*
X209384703Y-92441120D01*
X209454316Y-92435141D01*
X209516111Y-92467747D01*
X209530005Y-92483780D01*
X209568400Y-92536626D01*
X209577032Y-92548507D01*
X209600511Y-92614314D01*
X209584685Y-92682367D01*
X209564394Y-92709073D01*
X197052181Y-105221287D01*
X196990858Y-105254772D01*
X196921166Y-105249788D01*
X196865233Y-105207916D01*
X196840816Y-105142452D01*
X196840500Y-105133606D01*
X196840500Y-104980577D01*
X196809709Y-104786173D01*
X196748882Y-104598970D01*
X196659523Y-104423594D01*
X196543828Y-104264354D01*
X196404646Y-104125172D01*
X196325025Y-104067324D01*
X196245403Y-104009474D01*
X196068787Y-103919485D01*
X196017990Y-103871511D01*
X196001195Y-103803690D01*
X196023732Y-103737555D01*
X196068787Y-103698515D01*
X196245403Y-103608525D01*
X196245402Y-103608525D01*
X196245405Y-103608524D01*
X196404646Y-103492828D01*
X196543828Y-103353646D01*
X196659524Y-103194405D01*
X196748884Y-103019025D01*
X196809709Y-102831826D01*
X196840500Y-102637422D01*
X196840500Y-102440577D01*
X196809709Y-102246173D01*
X196748882Y-102058970D01*
X196659523Y-101883594D01*
X196543828Y-101724354D01*
X196404646Y-101585172D01*
X196325025Y-101527324D01*
X196245403Y-101469474D01*
X196068787Y-101379485D01*
X196017990Y-101331511D01*
X196001195Y-101263690D01*
X196023732Y-101197555D01*
X196068787Y-101158515D01*
X196245403Y-101068525D01*
X196245402Y-101068525D01*
X196245405Y-101068524D01*
X196404646Y-100952828D01*
X196543828Y-100813646D01*
X196659524Y-100654405D01*
X196748884Y-100479025D01*
X196809709Y-100291826D01*
X196840500Y-100097422D01*
X196840500Y-99900577D01*
X196809709Y-99706173D01*
X196748882Y-99518970D01*
X196659523Y-99343594D01*
X196543828Y-99184354D01*
X196404646Y-99045172D01*
X196325025Y-98987324D01*
X196245403Y-98929474D01*
X196068787Y-98839485D01*
X196017990Y-98791511D01*
X196001195Y-98723690D01*
X196023732Y-98657555D01*
X196068787Y-98618515D01*
X196245403Y-98528525D01*
X196245402Y-98528525D01*
X196245405Y-98528524D01*
X196404646Y-98412828D01*
X196543828Y-98273646D01*
X196659524Y-98114405D01*
X196748884Y-97939025D01*
X196809709Y-97751826D01*
X196840500Y-97557422D01*
X196840500Y-97360577D01*
X196809709Y-97166173D01*
X196748882Y-96978970D01*
X196659523Y-96803594D01*
X196543828Y-96644354D01*
X196404646Y-96505172D01*
X196325025Y-96447324D01*
X196245403Y-96389474D01*
X196068787Y-96299485D01*
X196017990Y-96251511D01*
X196001195Y-96183690D01*
X196023732Y-96117555D01*
X196068787Y-96078515D01*
X196245403Y-95988525D01*
X196245402Y-95988525D01*
X196245405Y-95988524D01*
X196404646Y-95872828D01*
X196543828Y-95733646D01*
X196659524Y-95574405D01*
X196748884Y-95399025D01*
X196809709Y-95211826D01*
X196840500Y-95017422D01*
X196840500Y-94820577D01*
X196809709Y-94626173D01*
X196748882Y-94438970D01*
X196659523Y-94263594D01*
X196543828Y-94104354D01*
X196404646Y-93965172D01*
X196245405Y-93849476D01*
X196241478Y-93847475D01*
X196070029Y-93760117D01*
X195882826Y-93699290D01*
X195688422Y-93668500D01*
X195688417Y-93668500D01*
X195491583Y-93668500D01*
X195491578Y-93668500D01*
X195297173Y-93699290D01*
X195109970Y-93760117D01*
X194934594Y-93849476D01*
X194843741Y-93915485D01*
X194775354Y-93965172D01*
X194775352Y-93965174D01*
X194775351Y-93965174D01*
X194636174Y-94104351D01*
X194636174Y-94104352D01*
X194636172Y-94104354D01*
X194586485Y-94172741D01*
X194520476Y-94263594D01*
X194431117Y-94438970D01*
X194370290Y-94626173D01*
X194339500Y-94820577D01*
X194339500Y-95017422D01*
X194370290Y-95211826D01*
X194431117Y-95399029D01*
X194492625Y-95519744D01*
X194520476Y-95574405D01*
X194636172Y-95733646D01*
X194775354Y-95872828D01*
X194934595Y-95988524D01*
X195057992Y-96051397D01*
X195111213Y-96078515D01*
X195162009Y-96126489D01*
X195178804Y-96194310D01*
X195156267Y-96260445D01*
X195111213Y-96299485D01*
X194934594Y-96389476D01*
X194843741Y-96455485D01*
X194775354Y-96505172D01*
X194775352Y-96505174D01*
X194775351Y-96505174D01*
X194636174Y-96644351D01*
X194636174Y-96644352D01*
X194636172Y-96644354D01*
X194586485Y-96712741D01*
X194520476Y-96803594D01*
X194431117Y-96978970D01*
X194370290Y-97166173D01*
X194339500Y-97360577D01*
X194339500Y-97557422D01*
X194370290Y-97751826D01*
X194431117Y-97939029D01*
X194520476Y-98114405D01*
X194636172Y-98273646D01*
X194775354Y-98412828D01*
X194934595Y-98528524D01*
X195057992Y-98591397D01*
X195111213Y-98618515D01*
X195162009Y-98666489D01*
X195178804Y-98734310D01*
X195156267Y-98800445D01*
X195111213Y-98839485D01*
X194934594Y-98929476D01*
X194843741Y-98995485D01*
X194775354Y-99045172D01*
X194775352Y-99045174D01*
X194775351Y-99045174D01*
X194636174Y-99184351D01*
X194636174Y-99184352D01*
X194636172Y-99184354D01*
X194586485Y-99252741D01*
X194520476Y-99343594D01*
X194431117Y-99518970D01*
X194370290Y-99706173D01*
X194339500Y-99900577D01*
X194339500Y-100097422D01*
X194370290Y-100291826D01*
X194431117Y-100479029D01*
X194520476Y-100654405D01*
X194636172Y-100813646D01*
X194775354Y-100952828D01*
X194934595Y-101068524D01*
X195057992Y-101131397D01*
X195111213Y-101158515D01*
X195162009Y-101206489D01*
X195178804Y-101274310D01*
X195156267Y-101340445D01*
X195111213Y-101379485D01*
X194934594Y-101469476D01*
X194843741Y-101535485D01*
X194775354Y-101585172D01*
X194775352Y-101585174D01*
X194775351Y-101585174D01*
X194636174Y-101724351D01*
X194636174Y-101724352D01*
X194636172Y-101724354D01*
X194586485Y-101792741D01*
X194520476Y-101883594D01*
X194431117Y-102058970D01*
X194370290Y-102246173D01*
X194339500Y-102440577D01*
X194339500Y-102637422D01*
X194370290Y-102831826D01*
X194431117Y-103019029D01*
X194520476Y-103194405D01*
X194636172Y-103353646D01*
X194775354Y-103492828D01*
X194934595Y-103608524D01*
X195057992Y-103671397D01*
X195111213Y-103698515D01*
X195162009Y-103746489D01*
X195178804Y-103814310D01*
X195156267Y-103880445D01*
X195111213Y-103919485D01*
X194934594Y-104009476D01*
X194843741Y-104075485D01*
X194775354Y-104125172D01*
X194775352Y-104125174D01*
X194775351Y-104125174D01*
X194636174Y-104264351D01*
X194636174Y-104264352D01*
X194636172Y-104264354D01*
X194586485Y-104332741D01*
X194520476Y-104423594D01*
X194431117Y-104598970D01*
X194370290Y-104786173D01*
X194339500Y-104980577D01*
X194339500Y-105177422D01*
X194370290Y-105371826D01*
X194431117Y-105559029D01*
X194520476Y-105734405D01*
X194636172Y-105893646D01*
X194775354Y-106032828D01*
X194934595Y-106148524D01*
X195037627Y-106201021D01*
X195111213Y-106238515D01*
X195162009Y-106286489D01*
X195178804Y-106354310D01*
X195156267Y-106420445D01*
X195111213Y-106459485D01*
X194934594Y-106549476D01*
X194843741Y-106615485D01*
X194775354Y-106665172D01*
X194775352Y-106665174D01*
X194775351Y-106665174D01*
X194636174Y-106804351D01*
X194636174Y-106804352D01*
X194636172Y-106804354D01*
X194586485Y-106872741D01*
X194520476Y-106963594D01*
X194431117Y-107138970D01*
X194370290Y-107326173D01*
X194339500Y-107520577D01*
X194339500Y-107717422D01*
X194370290Y-107911826D01*
X194431117Y-108099029D01*
X194520476Y-108274405D01*
X194636172Y-108433646D01*
X194775354Y-108572828D01*
X194934595Y-108688524D01*
X195057992Y-108751397D01*
X195111213Y-108778515D01*
X195162009Y-108826489D01*
X195178804Y-108894310D01*
X195156267Y-108960445D01*
X195111213Y-108999485D01*
X194934594Y-109089476D01*
X194843741Y-109155485D01*
X194775354Y-109205172D01*
X194775352Y-109205174D01*
X194775351Y-109205174D01*
X194636174Y-109344351D01*
X194636174Y-109344352D01*
X194636172Y-109344354D01*
X194586485Y-109412741D01*
X194520476Y-109503594D01*
X194431117Y-109678970D01*
X194370290Y-109866173D01*
X194339500Y-110060577D01*
X194339500Y-110257422D01*
X194370290Y-110451826D01*
X194431117Y-110639029D01*
X194520476Y-110814405D01*
X194636172Y-110973646D01*
X194775354Y-111112828D01*
X194894784Y-111199600D01*
X194934596Y-111228525D01*
X195111763Y-111318795D01*
X195162560Y-111366769D01*
X195179355Y-111434590D01*
X195156818Y-111500725D01*
X195111764Y-111539765D01*
X194934859Y-111629902D01*
X194899873Y-111655320D01*
X194899872Y-111655320D01*
X195501414Y-112256862D01*
X195416306Y-112279667D01*
X195313694Y-112338910D01*
X195229910Y-112422694D01*
X195170667Y-112525306D01*
X195147861Y-112610414D01*
X194546320Y-112008872D01*
X194546320Y-112008873D01*
X194520902Y-112043859D01*
X194520899Y-112043863D01*
X194431582Y-112219161D01*
X194370778Y-112406294D01*
X194340000Y-112600617D01*
X194340000Y-112797382D01*
X194370778Y-112991705D01*
X194431581Y-113178835D01*
X194520905Y-113354145D01*
X194546319Y-113389125D01*
X194546320Y-113389125D01*
X195147861Y-112787584D01*
X195170667Y-112872694D01*
X195229910Y-112975306D01*
X195313694Y-113059090D01*
X195416306Y-113118333D01*
X195501413Y-113141137D01*
X194899873Y-113742677D01*
X194899873Y-113742678D01*
X194934858Y-113768096D01*
X195111764Y-113858234D01*
X195162560Y-113906209D01*
X195179355Y-113974030D01*
X195156818Y-114040164D01*
X195111764Y-114079204D01*
X194934594Y-114169476D01*
X194843741Y-114235485D01*
X194775354Y-114285172D01*
X194775352Y-114285174D01*
X194775351Y-114285174D01*
X194636174Y-114424351D01*
X194636174Y-114424352D01*
X194636172Y-114424354D01*
X194623980Y-114441135D01*
X194520476Y-114583594D01*
X194431117Y-114758970D01*
X194370290Y-114946173D01*
X194339500Y-115140577D01*
X194339500Y-115337422D01*
X194370290Y-115531826D01*
X194431117Y-115719029D01*
X194520476Y-115894405D01*
X194636172Y-116053646D01*
X194775354Y-116192828D01*
X194934595Y-116308524D01*
X195009214Y-116346544D01*
X195109970Y-116397882D01*
X195109972Y-116397882D01*
X195109975Y-116397884D01*
X195210317Y-116430487D01*
X195297173Y-116458709D01*
X195491578Y-116489500D01*
X195491583Y-116489500D01*
X195688422Y-116489500D01*
X195882826Y-116458709D01*
X195962574Y-116432797D01*
X196070025Y-116397884D01*
X196245405Y-116308524D01*
X196404646Y-116192828D01*
X196543828Y-116053646D01*
X196659524Y-115894405D01*
X196748884Y-115719025D01*
X196809709Y-115531826D01*
X196821776Y-115455631D01*
X196851704Y-115392499D01*
X196856549Y-115387369D01*
X197817140Y-114426781D01*
X197926632Y-114262914D01*
X198002052Y-114080835D01*
X198040500Y-113887540D01*
X198040500Y-113690459D01*
X198040500Y-107114172D01*
X198060185Y-107047133D01*
X198076819Y-107026491D01*
X203814810Y-101288500D01*
X209555066Y-95548243D01*
X209616387Y-95514760D01*
X209686079Y-95519744D01*
X209742012Y-95561616D01*
X209748471Y-95571134D01*
X209750472Y-95574400D01*
X209750476Y-95574405D01*
X209866172Y-95733646D01*
X210005354Y-95872828D01*
X210164595Y-95988524D01*
X210287992Y-96051397D01*
X210341213Y-96078515D01*
X210392009Y-96126489D01*
X210408804Y-96194310D01*
X210386267Y-96260445D01*
X210341213Y-96299485D01*
X210164594Y-96389476D01*
X210073741Y-96455485D01*
X210005354Y-96505172D01*
X210005352Y-96505174D01*
X210005351Y-96505174D01*
X209866174Y-96644351D01*
X209866174Y-96644352D01*
X209866172Y-96644354D01*
X209816485Y-96712741D01*
X209750476Y-96803594D01*
X209661117Y-96978970D01*
X209600290Y-97166173D01*
X209569500Y-97360577D01*
X209569500Y-97557422D01*
X209600290Y-97751826D01*
X209661117Y-97939029D01*
X209750476Y-98114405D01*
X209866172Y-98273646D01*
X210005354Y-98412828D01*
X210164595Y-98528524D01*
X210287992Y-98591397D01*
X210341213Y-98618515D01*
X210392009Y-98666489D01*
X210408804Y-98734310D01*
X210386267Y-98800445D01*
X210341213Y-98839485D01*
X210164594Y-98929476D01*
X210073741Y-98995485D01*
X210005354Y-99045172D01*
X210005352Y-99045174D01*
X210005351Y-99045174D01*
X209866174Y-99184351D01*
X209866174Y-99184352D01*
X209866172Y-99184354D01*
X209816485Y-99252741D01*
X209750476Y-99343594D01*
X209661117Y-99518970D01*
X209600290Y-99706173D01*
X209569500Y-99900577D01*
X209569500Y-100097422D01*
X209600290Y-100291826D01*
X209661117Y-100479029D01*
X209750476Y-100654405D01*
X209866172Y-100813646D01*
X210005354Y-100952828D01*
X210164595Y-101068524D01*
X210287992Y-101131397D01*
X210341213Y-101158515D01*
X210392009Y-101206489D01*
X210408804Y-101274310D01*
X210386267Y-101340445D01*
X210341213Y-101379485D01*
X210164594Y-101469476D01*
X210073741Y-101535485D01*
X210005354Y-101585172D01*
X210005352Y-101585174D01*
X210005351Y-101585174D01*
X209866174Y-101724351D01*
X209866174Y-101724352D01*
X209866172Y-101724354D01*
X209816485Y-101792741D01*
X209750476Y-101883594D01*
X209661117Y-102058970D01*
X209600290Y-102246173D01*
X209569500Y-102440577D01*
X209569500Y-102637422D01*
X209600290Y-102831826D01*
X209661117Y-103019029D01*
X209750476Y-103194405D01*
X209866172Y-103353646D01*
X210005354Y-103492828D01*
X210164595Y-103608524D01*
X210287992Y-103671397D01*
X210341213Y-103698515D01*
X210392009Y-103746489D01*
X210408804Y-103814310D01*
X210386267Y-103880445D01*
X210341213Y-103919485D01*
X210164594Y-104009476D01*
X210073741Y-104075485D01*
X210005354Y-104125172D01*
X210005352Y-104125174D01*
X210005351Y-104125174D01*
X209866174Y-104264351D01*
X209866174Y-104264352D01*
X209866172Y-104264354D01*
X209816485Y-104332741D01*
X209750476Y-104423594D01*
X209661117Y-104598970D01*
X209600290Y-104786173D01*
X209569500Y-104980577D01*
X209569500Y-105177422D01*
X209600290Y-105371826D01*
X209661117Y-105559029D01*
X209750476Y-105734405D01*
X209866172Y-105893646D01*
X210005354Y-106032828D01*
X210164595Y-106148524D01*
X210267627Y-106201021D01*
X210341213Y-106238515D01*
X210392009Y-106286489D01*
X210408804Y-106354310D01*
X210386267Y-106420445D01*
X210341213Y-106459485D01*
X210164594Y-106549476D01*
X210073741Y-106615485D01*
X210005354Y-106665172D01*
X210005352Y-106665174D01*
X210005351Y-106665174D01*
X209866174Y-106804351D01*
X209866174Y-106804352D01*
X209866172Y-106804354D01*
X209816485Y-106872741D01*
X209750476Y-106963594D01*
X209661117Y-107138970D01*
X209600290Y-107326173D01*
X209569500Y-107520577D01*
X209569500Y-107717422D01*
X209600290Y-107911826D01*
X209661117Y-108099029D01*
X209750476Y-108274405D01*
X209866172Y-108433646D01*
X210005354Y-108572828D01*
X210164595Y-108688524D01*
X210287992Y-108751397D01*
X210341213Y-108778515D01*
X210392009Y-108826489D01*
X210408804Y-108894310D01*
X210386267Y-108960445D01*
X210341213Y-108999485D01*
X210164594Y-109089476D01*
X210073741Y-109155485D01*
X210005354Y-109205172D01*
X210005352Y-109205174D01*
X210005351Y-109205174D01*
X209866174Y-109344351D01*
X209866174Y-109344352D01*
X209866172Y-109344354D01*
X209816485Y-109412741D01*
X209750476Y-109503594D01*
X209661117Y-109678970D01*
X209600290Y-109866173D01*
X209569500Y-110060577D01*
X209569500Y-110257422D01*
X209600290Y-110451826D01*
X209661117Y-110639029D01*
X209750476Y-110814405D01*
X209866172Y-110973646D01*
X210005354Y-111112828D01*
X210164595Y-111228524D01*
X210287992Y-111291397D01*
X210341213Y-111318515D01*
X210392009Y-111366489D01*
X210408804Y-111434310D01*
X210386267Y-111500445D01*
X210341213Y-111539485D01*
X210164594Y-111629476D01*
X210073741Y-111695485D01*
X210005354Y-111745172D01*
X210005352Y-111745174D01*
X210005351Y-111745174D01*
X209866174Y-111884351D01*
X209866174Y-111884352D01*
X209866172Y-111884354D01*
X209816485Y-111952741D01*
X209750476Y-112043594D01*
X209661117Y-112218970D01*
X209600290Y-112406173D01*
X209569500Y-112600577D01*
X209569500Y-112797422D01*
X209600290Y-112991826D01*
X209661117Y-113179029D01*
X209750344Y-113354145D01*
X209750476Y-113354405D01*
X209866172Y-113513646D01*
X210005354Y-113652828D01*
X210158621Y-113764184D01*
X210201285Y-113819512D01*
X210207264Y-113889125D01*
X210174658Y-113950920D01*
X210113819Y-113985278D01*
X210085736Y-113988500D01*
X210022130Y-113988500D01*
X210022123Y-113988501D01*
X209962516Y-113994908D01*
X209827671Y-114045202D01*
X209827664Y-114045206D01*
X209712455Y-114131452D01*
X209712452Y-114131455D01*
X209626206Y-114246664D01*
X209626202Y-114246671D01*
X209575908Y-114381517D01*
X209571042Y-114426781D01*
X209569501Y-114441123D01*
X209569500Y-114441135D01*
X209569500Y-116036870D01*
X209569501Y-116036876D01*
X209575908Y-116096483D01*
X209626202Y-116231328D01*
X209626206Y-116231335D01*
X209712452Y-116346544D01*
X209712455Y-116346547D01*
X209827664Y-116432793D01*
X209827671Y-116432797D01*
X209962517Y-116483091D01*
X209962516Y-116483091D01*
X209969444Y-116483835D01*
X210022127Y-116489500D01*
X211617872Y-116489499D01*
X211677483Y-116483091D01*
X211812331Y-116432796D01*
X211927546Y-116346546D01*
X212013796Y-116231331D01*
X212064091Y-116096483D01*
X212070500Y-116036873D01*
X212070499Y-114441128D01*
X212064091Y-114381517D01*
X212028157Y-114285174D01*
X212013797Y-114246671D01*
X212013793Y-114246664D01*
X211927547Y-114131455D01*
X211927544Y-114131452D01*
X211812335Y-114045206D01*
X211812328Y-114045202D01*
X211677482Y-113994908D01*
X211677483Y-113994908D01*
X211617883Y-113988501D01*
X211617881Y-113988500D01*
X211617873Y-113988500D01*
X211617865Y-113988500D01*
X211554267Y-113988500D01*
X211487228Y-113968815D01*
X211441473Y-113916011D01*
X211431529Y-113846853D01*
X211460554Y-113783297D01*
X211481381Y-113764182D01*
X211634646Y-113652828D01*
X211773828Y-113513646D01*
X211889524Y-113354405D01*
X211978884Y-113179025D01*
X212039709Y-112991826D01*
X212039728Y-112991705D01*
X212070500Y-112797422D01*
X212070500Y-112600577D01*
X212039709Y-112406173D01*
X211978882Y-112218970D01*
X211931743Y-112126455D01*
X211889524Y-112043595D01*
X211773828Y-111884354D01*
X211634646Y-111745172D01*
X211510976Y-111655320D01*
X211475403Y-111629474D01*
X211298787Y-111539485D01*
X211247990Y-111491511D01*
X211231195Y-111423690D01*
X211253732Y-111357555D01*
X211298787Y-111318515D01*
X211475403Y-111228525D01*
X211475402Y-111228525D01*
X211475405Y-111228524D01*
X211634646Y-111112828D01*
X211773828Y-110973646D01*
X211889524Y-110814405D01*
X211978884Y-110639025D01*
X212039709Y-110451826D01*
X212070500Y-110257422D01*
X212070500Y-110060577D01*
X212039709Y-109866173D01*
X211978882Y-109678970D01*
X211889523Y-109503594D01*
X211773828Y-109344354D01*
X211634646Y-109205172D01*
X211555025Y-109147324D01*
X211475403Y-109089474D01*
X211298787Y-108999485D01*
X211247990Y-108951511D01*
X211231195Y-108883690D01*
X211253732Y-108817555D01*
X211298787Y-108778515D01*
X211475403Y-108688525D01*
X211475402Y-108688525D01*
X211475405Y-108688524D01*
X211634646Y-108572828D01*
X211773828Y-108433646D01*
X211889524Y-108274405D01*
X211978884Y-108099025D01*
X212039709Y-107911826D01*
X212070500Y-107717422D01*
X212070500Y-107520577D01*
X212039709Y-107326173D01*
X211978882Y-107138970D01*
X211889523Y-106963594D01*
X211773828Y-106804354D01*
X211634646Y-106665172D01*
X211555025Y-106607324D01*
X211475403Y-106549474D01*
X211298787Y-106459485D01*
X211247990Y-106411511D01*
X211231195Y-106343690D01*
X211253732Y-106277555D01*
X211298787Y-106238515D01*
X211475403Y-106148525D01*
X211475402Y-106148525D01*
X211475405Y-106148524D01*
X211634646Y-106032828D01*
X211773828Y-105893646D01*
X211889524Y-105734405D01*
X211978884Y-105559025D01*
X212039709Y-105371826D01*
X212070500Y-105177422D01*
X212070500Y-104980577D01*
X212039709Y-104786173D01*
X211978882Y-104598970D01*
X211889523Y-104423594D01*
X211773828Y-104264354D01*
X211634646Y-104125172D01*
X211555025Y-104067324D01*
X211475403Y-104009474D01*
X211298787Y-103919485D01*
X211247990Y-103871511D01*
X211231195Y-103803690D01*
X211253732Y-103737555D01*
X211298787Y-103698515D01*
X211475403Y-103608525D01*
X211475402Y-103608525D01*
X211475405Y-103608524D01*
X211634646Y-103492828D01*
X211773828Y-103353646D01*
X211889524Y-103194405D01*
X211978884Y-103019025D01*
X212039709Y-102831826D01*
X212070500Y-102637422D01*
X212070500Y-102440577D01*
X212039709Y-102246173D01*
X211978882Y-102058970D01*
X211889523Y-101883594D01*
X211773828Y-101724354D01*
X211634646Y-101585172D01*
X211555025Y-101527324D01*
X211475403Y-101469474D01*
X211298787Y-101379485D01*
X211247990Y-101331511D01*
X211231195Y-101263690D01*
X211253732Y-101197555D01*
X211298787Y-101158515D01*
X211475403Y-101068525D01*
X211475402Y-101068525D01*
X211475405Y-101068524D01*
X211634646Y-100952828D01*
X211773828Y-100813646D01*
X211889524Y-100654405D01*
X211978884Y-100479025D01*
X212039709Y-100291826D01*
X212070500Y-100097422D01*
X212070500Y-99900577D01*
X212039709Y-99706173D01*
X211978882Y-99518970D01*
X211889523Y-99343594D01*
X211773828Y-99184354D01*
X211634646Y-99045172D01*
X211555025Y-98987324D01*
X211475403Y-98929474D01*
X211298787Y-98839485D01*
X211247990Y-98791511D01*
X211231195Y-98723690D01*
X211253732Y-98657555D01*
X211298787Y-98618515D01*
X211475403Y-98528525D01*
X211475402Y-98528525D01*
X211475405Y-98528524D01*
X211634646Y-98412828D01*
X211773828Y-98273646D01*
X211889524Y-98114405D01*
X211978884Y-97939025D01*
X212039709Y-97751826D01*
X212070500Y-97557422D01*
X212070500Y-97360577D01*
X212039709Y-97166173D01*
X211978882Y-96978970D01*
X211889523Y-96803594D01*
X211773828Y-96644354D01*
X211634646Y-96505172D01*
X211555025Y-96447324D01*
X211475403Y-96389474D01*
X211298787Y-96299485D01*
X211247990Y-96251511D01*
X211231195Y-96183690D01*
X211253732Y-96117555D01*
X211298787Y-96078515D01*
X211475403Y-95988525D01*
X211475402Y-95988525D01*
X211475405Y-95988524D01*
X211634646Y-95872828D01*
X211773828Y-95733646D01*
X211889524Y-95574405D01*
X211978884Y-95399025D01*
X212039709Y-95211826D01*
X212070500Y-95017422D01*
X212070500Y-94820577D01*
X212039709Y-94626173D01*
X211978882Y-94438970D01*
X211889523Y-94263594D01*
X211773828Y-94104354D01*
X211634646Y-93965172D01*
X211547558Y-93901898D01*
X211475407Y-93849477D01*
X211472139Y-93847475D01*
X211425263Y-93795664D01*
X211413839Y-93726734D01*
X211441495Y-93662571D01*
X211449238Y-93654072D01*
X211477139Y-93626172D01*
X211586632Y-93462304D01*
X211662051Y-93280225D01*
X211674632Y-93216972D01*
X211700500Y-93086933D01*
X211700500Y-92750112D01*
X211720185Y-92683073D01*
X211736819Y-92662431D01*
X211749172Y-92650078D01*
X211876433Y-92474919D01*
X211974726Y-92282009D01*
X212041630Y-92076097D01*
X212075500Y-91862254D01*
X212075500Y-90395746D01*
X212041630Y-90181903D01*
X211974726Y-89975991D01*
X211974726Y-89975990D01*
X211893437Y-89816454D01*
X211876433Y-89783081D01*
X211749172Y-89607922D01*
X211596078Y-89454828D01*
X211420919Y-89327567D01*
X211228009Y-89229273D01*
X211228006Y-89229272D01*
X211022098Y-89162370D01*
X210915175Y-89145435D01*
X210808254Y-89128500D01*
X210591746Y-89128500D01*
X210520465Y-89139790D01*
X210377901Y-89162370D01*
X210171993Y-89229272D01*
X210171990Y-89229273D01*
X209979080Y-89327567D01*
X209879145Y-89400174D01*
X209803922Y-89454828D01*
X209803920Y-89454830D01*
X209803919Y-89454830D01*
X209650829Y-89607920D01*
X209530009Y-89774214D01*
X209474678Y-89816879D01*
X209405065Y-89822858D01*
X209343270Y-89790252D01*
X209329373Y-89774214D01*
X209208788Y-89608245D01*
X209208788Y-89608244D01*
X209055755Y-89455211D01*
X208880657Y-89327994D01*
X208687817Y-89229736D01*
X208687814Y-89229735D01*
X208481983Y-89162857D01*
X208410000Y-89151456D01*
X208410000Y-90195988D01*
X208352993Y-90163075D01*
X208225826Y-90129000D01*
X208094174Y-90129000D01*
X207967007Y-90163075D01*
X207910000Y-90195988D01*
X207910000Y-89151456D01*
X207909999Y-89151456D01*
X207838016Y-89162857D01*
X207838015Y-89162857D01*
X207632185Y-89229735D01*
X207632182Y-89229736D01*
X207439342Y-89327994D01*
X207264245Y-89455211D01*
X207264244Y-89455211D01*
X207111210Y-89608245D01*
X206990626Y-89774214D01*
X206935295Y-89816879D01*
X206865682Y-89822858D01*
X206803887Y-89790252D01*
X206789994Y-89774219D01*
X206669172Y-89607922D01*
X206516078Y-89454828D01*
X206340919Y-89327567D01*
X206148009Y-89229273D01*
X206148006Y-89229272D01*
X205942098Y-89162370D01*
X205835175Y-89145435D01*
X205728254Y-89128500D01*
X205511746Y-89128500D01*
X205440465Y-89139790D01*
X205297901Y-89162370D01*
X205091993Y-89229272D01*
X205091990Y-89229273D01*
X204899080Y-89327567D01*
X204799145Y-89400174D01*
X204723922Y-89454828D01*
X204723920Y-89454830D01*
X204723919Y-89454830D01*
X204570830Y-89607919D01*
X204570830Y-89607920D01*
X204570828Y-89607922D01*
X204462530Y-89756979D01*
X204450318Y-89773789D01*
X204394988Y-89816454D01*
X204325374Y-89822433D01*
X204263579Y-89789827D01*
X204249682Y-89773789D01*
X204245061Y-89767429D01*
X204129172Y-89607922D01*
X203976078Y-89454828D01*
X203800919Y-89327567D01*
X203608009Y-89229273D01*
X203608006Y-89229272D01*
X203402098Y-89162370D01*
X203295175Y-89145435D01*
X203188254Y-89128500D01*
X202971746Y-89128500D01*
X202900465Y-89139790D01*
X202757901Y-89162370D01*
X202551993Y-89229272D01*
X202551990Y-89229273D01*
X202359080Y-89327567D01*
X202259145Y-89400174D01*
X202183922Y-89454828D01*
X202183920Y-89454830D01*
X202183919Y-89454830D01*
X202030830Y-89607919D01*
X202030830Y-89607920D01*
X202030828Y-89607922D01*
X201922530Y-89756979D01*
X201910318Y-89773789D01*
X201854988Y-89816454D01*
X201785374Y-89822433D01*
X201723579Y-89789827D01*
X201709682Y-89773789D01*
X201705061Y-89767429D01*
X201589172Y-89607922D01*
X201436078Y-89454828D01*
X201260919Y-89327567D01*
X201068009Y-89229273D01*
X201068006Y-89229272D01*
X200862098Y-89162370D01*
X200755175Y-89145435D01*
X200648254Y-89128500D01*
X200431746Y-89128500D01*
X200360465Y-89139790D01*
X200217901Y-89162370D01*
X200011993Y-89229272D01*
X200011990Y-89229273D01*
X199819080Y-89327567D01*
X199719145Y-89400174D01*
X199643922Y-89454828D01*
X199643920Y-89454830D01*
X199643919Y-89454830D01*
X199490830Y-89607919D01*
X199490830Y-89607920D01*
X199490828Y-89607922D01*
X199382530Y-89756979D01*
X199370318Y-89773789D01*
X199314988Y-89816454D01*
X199245374Y-89822433D01*
X199183579Y-89789827D01*
X199169682Y-89773789D01*
X199165061Y-89767429D01*
X199049172Y-89607922D01*
X198896078Y-89454828D01*
X198720919Y-89327567D01*
X198528009Y-89229273D01*
X198528006Y-89229272D01*
X198322098Y-89162370D01*
X198215175Y-89145435D01*
X198108254Y-89128500D01*
X197891746Y-89128500D01*
X197820465Y-89139790D01*
X197677901Y-89162370D01*
X197471993Y-89229272D01*
X197471990Y-89229273D01*
X197279080Y-89327567D01*
X197179145Y-89400174D01*
X197103922Y-89454828D01*
X197103920Y-89454830D01*
X197103919Y-89454830D01*
X196950830Y-89607919D01*
X196950830Y-89607920D01*
X196950828Y-89607922D01*
X196842530Y-89756979D01*
X196830318Y-89773789D01*
X196774988Y-89816454D01*
X196705374Y-89822433D01*
X196643579Y-89789827D01*
X196629682Y-89773789D01*
X196625061Y-89767429D01*
X196509172Y-89607922D01*
X196356078Y-89454828D01*
X196180919Y-89327567D01*
X195988009Y-89229273D01*
X195988006Y-89229272D01*
X195782098Y-89162370D01*
X195675175Y-89145435D01*
X195568254Y-89128500D01*
X195351746Y-89128500D01*
X195280465Y-89139790D01*
X195137901Y-89162370D01*
X194931993Y-89229272D01*
X194931990Y-89229273D01*
X194739080Y-89327567D01*
X194639145Y-89400174D01*
X194563922Y-89454828D01*
X194563920Y-89454830D01*
X194563919Y-89454830D01*
X194410830Y-89607919D01*
X194410830Y-89607920D01*
X194410828Y-89607922D01*
X194356174Y-89683145D01*
X194283567Y-89783080D01*
X194185273Y-89975990D01*
X194185272Y-89975993D01*
X194118370Y-90181901D01*
X194084500Y-90395746D01*
X183200500Y-90395746D01*
X183200500Y-85602871D01*
X183200632Y-85597144D01*
X183217296Y-85236695D01*
X183218353Y-85225291D01*
X183252438Y-84980946D01*
X183267808Y-84870757D01*
X183269909Y-84859520D01*
X183351869Y-84511049D01*
X183354992Y-84500070D01*
X183468763Y-84160623D01*
X183472886Y-84149984D01*
X183617486Y-83822494D01*
X183622569Y-83812285D01*
X183796767Y-83499540D01*
X183802793Y-83489808D01*
X183862998Y-83401920D01*
X184005103Y-83194472D01*
X184011986Y-83185359D01*
X184240681Y-82909951D01*
X184248375Y-82901511D01*
X184501511Y-82648375D01*
X184509951Y-82640681D01*
X184785359Y-82411986D01*
X184794472Y-82405103D01*
X185089813Y-82202789D01*
X185099540Y-82196767D01*
X185412285Y-82022569D01*
X185422494Y-82017486D01*
X185749984Y-81872886D01*
X185760623Y-81868763D01*
X186100070Y-81754992D01*
X186111049Y-81751869D01*
X186459520Y-81669909D01*
X186470757Y-81667808D01*
X186825301Y-81618352D01*
X186836686Y-81617296D01*
X187197145Y-81600632D01*
X187202872Y-81600500D01*
X187265892Y-81600500D01*
X219134108Y-81600500D01*
X219197128Y-81600500D01*
X219202855Y-81600632D01*
G37*
G04 #@! TD.AperFunction*
M02*
