M48
; FORMAT={-:-/ absolute / metric / decimal}
; #@! TF.GenerationSoftware,Kicad,Pcbnew,10.0.4
; #@! TF.FileFunction,MixedPlating,1,2
FMAT,2
METRIC
; #@! TA.AperFunction,Plated,PTH,ComponentDrill
T1C0.500
; #@! TA.AperFunction,Plated,PTH,ComponentDrill
T2C0.900
; #@! TA.AperFunction,Plated,PTH,ComponentDrill
T3C1.000
; #@! TA.AperFunction,Plated,PTH,ComponentDrill
T4C3.200
%
G90
G05
T1
X184.8Y-85.5
X184.8Y-117.5
X185.503Y-83.803
X185.503Y-87.197
X185.503Y-115.803
X185.503Y-119.197
X187.2Y-83.1
X187.2Y-87.9
X187.2Y-115.1
X187.2Y-119.9
X188.897Y-83.803
X188.897Y-87.197
X188.897Y-115.803
X188.897Y-119.197
X189.6Y-85.5
X189.6Y-117.5
X216.8Y-85.5
X216.8Y-117.5
X217.503Y-83.803
X217.503Y-87.197
X217.503Y-115.803
X217.503Y-119.197
X219.2Y-83.1
X219.2Y-87.9
X219.2Y-115.1
X219.2Y-119.9
X220.897Y-83.803
X220.897Y-87.197
X220.897Y-115.803
X220.897Y-119.197
X221.6Y-85.5
X221.6Y-117.5
T2
X195.59Y-88.9
X195.59Y-91.44
X195.59Y-93.98
X195.59Y-96.52
X195.59Y-99.06
X195.59Y-101.6
X195.59Y-104.14
X195.59Y-106.68
X195.59Y-109.22
X210.82Y-88.9
X210.82Y-91.44
X210.82Y-93.98
X210.82Y-96.52
X210.82Y-99.06
X210.82Y-101.6
X210.82Y-104.14
X210.82Y-106.68
X210.82Y-109.22
T3
X195.7Y-113.587
X198.24Y-113.587
X200.78Y-113.587
X203.32Y-113.587
X205.86Y-113.587
X208.4Y-113.587
X210.94Y-113.587
T4
X187.2Y-85.5
X187.2Y-117.5
X219.2Y-85.5
X219.2Y-117.5
M30
