G04 #@! TF.GenerationSoftware,KiCad,Pcbnew,10.0.3*
G04 #@! TF.ProjectId,Speakeasy Lowcost,53706561-6b65-4617-9379-204c6f77636f,rev?*
G04 #@! TF.SameCoordinates,Original*
G04 #@! TF.FileFunction,Soldermask,Top*
G04 #@! TF.FilePolarity,Negative*
%FSLAX46Y46*%
G04 Gerber Fmt 4.6, Leading zero omitted, Abs format (unit mm)*
%MOMM*%
%LPD*%
G01*
G04 APERTURE LIST*
%ADD10C,0.800000*%
%ADD11C,6.400000*%
%ADD12R,1.500000X1.500000*%
%ADD13C,1.500000*%
%ADD14O,1.851600X3.101600*%
G04 APERTURE END LIST*
D10*
X216800000Y-85500000D03*
X217502944Y-83802944D03*
X217502944Y-87197056D03*
X219200000Y-83100000D03*
D11*
X219200000Y-85500000D03*
D10*
X219200000Y-87900000D03*
X220897056Y-83802944D03*
X220897056Y-87197056D03*
X221600000Y-85500000D03*
X184800000Y-117500000D03*
X185502944Y-115802944D03*
X185502944Y-119197056D03*
X187200000Y-115100000D03*
D11*
X187200000Y-117500000D03*
D10*
X187200000Y-119900000D03*
X188897056Y-115802944D03*
X188897056Y-119197056D03*
X189600000Y-117500000D03*
D12*
X210820000Y-115239000D03*
D13*
X210820000Y-112699000D03*
X210820000Y-110159000D03*
X210820000Y-107619000D03*
X210820000Y-105079000D03*
X210820000Y-102539000D03*
X210820000Y-99999000D03*
X210820000Y-97459000D03*
X210820000Y-94919000D03*
X195590000Y-94919000D03*
X195590000Y-97459000D03*
X195590000Y-99999000D03*
X195590000Y-102539000D03*
X195590000Y-105079000D03*
X195590000Y-107619000D03*
X195590000Y-110159000D03*
X195590000Y-112699000D03*
X195590000Y-115239000D03*
D10*
X184800000Y-85500000D03*
X185502944Y-83802944D03*
X185502944Y-87197056D03*
X187200000Y-83100000D03*
D11*
X187200000Y-85500000D03*
D10*
X187200000Y-87900000D03*
X188897056Y-83802944D03*
X188897056Y-87197056D03*
X189600000Y-85500000D03*
X216800000Y-117500000D03*
X217502944Y-115802944D03*
X217502944Y-119197056D03*
X219200000Y-115100000D03*
D11*
X219200000Y-117500000D03*
D10*
X219200000Y-119900000D03*
X220897056Y-115802944D03*
X220897056Y-119197056D03*
X221600000Y-117500000D03*
D14*
X210700000Y-91129000D03*
X208160000Y-91129000D03*
X205620000Y-91129000D03*
X203080000Y-91129000D03*
X200540000Y-91129000D03*
X198000000Y-91129000D03*
X195460000Y-91129000D03*
M02*
