G04 #@! TF.GenerationSoftware,KiCad,Pcbnew,10.0.4*
G04 #@! TF.ProjectId,Speakeasy Lowcost,53706561-6b65-4617-9379-204c6f77636f,rev?*
G04 #@! TF.SameCoordinates,Original*
G04 #@! TF.FileFunction,Legend,Top*
G04 #@! TF.FilePolarity,Positive*
%FSLAX46Y46*%
G04 Gerber Fmt 4.6, Leading zero omitted, Abs format (unit mm)*
%MOMM*%
%LPD*%
G01*
G04 APERTURE LIST*
%ADD10C,0.100000*%
%ADD11C,0.125000*%
%ADD12C,0.200000*%
%ADD13C,0.160000*%
G04 APERTURE END LIST*
D10*
X200700000Y-116372000D02*
X205700000Y-116372000D01*
X205700000Y-121372000D01*
X200700000Y-121372000D01*
X200700000Y-116372000D01*
G36*
X200700000Y-116372000D02*
G01*
X205700000Y-116372000D01*
X205700000Y-121372000D01*
X200700000Y-121372000D01*
X200700000Y-116372000D01*
G37*
D11*
G36*
X192695390Y-82708806D02*
G01*
X192905897Y-82734207D01*
X193121960Y-82769134D01*
X193121960Y-83837208D01*
X193027072Y-83827438D01*
X192939449Y-83818646D01*
X192837509Y-83814005D01*
X192765060Y-83814005D01*
X192683849Y-83824996D01*
X192618667Y-83862121D01*
X192598407Y-83892769D01*
X192591312Y-83935150D01*
X192603855Y-83976262D01*
X192656067Y-84042372D01*
X192816351Y-84197711D01*
X193026858Y-84405073D01*
X193136588Y-84530256D01*
X193238006Y-84674717D01*
X193325486Y-84834475D01*
X193400214Y-85017878D01*
X193449485Y-85216739D01*
X193466678Y-85445547D01*
X193449176Y-85687518D01*
X193397863Y-85910097D01*
X193309987Y-86112918D01*
X193183937Y-86287697D01*
X193022611Y-86428640D01*
X192812932Y-86540976D01*
X192574974Y-86609053D01*
X192278223Y-86633789D01*
X191933077Y-86614005D01*
X191652045Y-86565889D01*
X191387683Y-86496036D01*
X191387683Y-85908387D01*
X191811689Y-85908387D01*
X191811689Y-86033928D01*
X191951670Y-86059574D01*
X192094858Y-86078625D01*
X192247448Y-86086685D01*
X192381293Y-86077649D01*
X192510529Y-86050781D01*
X192632416Y-86002790D01*
X192739201Y-85932323D01*
X192829744Y-85838298D01*
X192900340Y-85720321D01*
X192944585Y-85581332D01*
X192960607Y-85403538D01*
X192943201Y-85248164D01*
X192890509Y-85099944D01*
X192811743Y-84960749D01*
X192710991Y-84823217D01*
X192477189Y-84567250D01*
X192242533Y-84318855D01*
X192140168Y-84190149D01*
X192060877Y-84066308D01*
X192006888Y-83935543D01*
X191989497Y-83803503D01*
X192003257Y-83673287D01*
X192041798Y-83570409D01*
X192104475Y-83488429D01*
X192187170Y-83431214D01*
X192305647Y-83392368D01*
X192471847Y-83377543D01*
X192552844Y-83377543D01*
X192634482Y-83383161D01*
X192705221Y-83388778D01*
X192705221Y-83258597D01*
X192637687Y-83258597D01*
X192562247Y-83245896D01*
X192477617Y-83241744D01*
X192307216Y-83258129D01*
X192165946Y-83304115D01*
X192048268Y-83377055D01*
X191956854Y-83480791D01*
X191900470Y-83617878D01*
X191880077Y-83799351D01*
X191897504Y-83948729D01*
X191950174Y-84089755D01*
X192028486Y-84222062D01*
X192129479Y-84356713D01*
X192363494Y-84610725D01*
X192598151Y-84860097D01*
X192699871Y-84990675D01*
X192779593Y-85122170D01*
X192833593Y-85261990D01*
X192851186Y-85405491D01*
X192831983Y-85578215D01*
X192778202Y-85713358D01*
X192690261Y-85819972D01*
X192576710Y-85895360D01*
X192432320Y-85943936D01*
X192248944Y-85961632D01*
X192086241Y-85954407D01*
X191945259Y-85934033D01*
X191811689Y-85908387D01*
X191387683Y-85908387D01*
X191387683Y-85366413D01*
X191618920Y-85431137D01*
X191838830Y-85475833D01*
X192087805Y-85492686D01*
X192216547Y-85468408D01*
X192281794Y-85408125D01*
X192304082Y-85309260D01*
X192289194Y-85242776D01*
X192236977Y-85165401D01*
X192065365Y-84998094D01*
X191841181Y-84792686D01*
X191726208Y-84672655D01*
X191616355Y-84533300D01*
X191520884Y-84378314D01*
X191442607Y-84202840D01*
X191391906Y-84010046D01*
X191374005Y-83781277D01*
X191395769Y-83526140D01*
X191457567Y-83311598D01*
X191557873Y-83123876D01*
X191689018Y-82971856D01*
X191847674Y-82853341D01*
X192035659Y-82765226D01*
X192239264Y-82712636D01*
X192460520Y-82694640D01*
X192695390Y-82708806D01*
G37*
G36*
X194908847Y-83393129D02*
G01*
X195071659Y-83424438D01*
X195224272Y-83480735D01*
X195355469Y-83562435D01*
X195465899Y-83673897D01*
X195553367Y-83821577D01*
X195607819Y-83997314D01*
X195627739Y-84226531D01*
X195607825Y-84455782D01*
X195553367Y-84631730D01*
X195465923Y-84779256D01*
X195355469Y-84890872D01*
X195224287Y-84972383D01*
X195071659Y-85028625D01*
X194908847Y-85059934D01*
X194734207Y-85070635D01*
X194301012Y-85070635D01*
X194301012Y-84632951D01*
X194738695Y-84632951D01*
X194776522Y-84632951D01*
X194910951Y-84618888D01*
X195006400Y-84581827D01*
X195072941Y-84526217D01*
X195121565Y-84448919D01*
X195152253Y-84350998D01*
X195163342Y-84226531D01*
X195152248Y-84102068D01*
X195121557Y-84004238D01*
X195072941Y-83927090D01*
X195006381Y-83871341D01*
X194910930Y-83834201D01*
X194776522Y-83820111D01*
X194738695Y-83820111D01*
X194738695Y-84632951D01*
X194301012Y-84632951D01*
X194301012Y-83382428D01*
X194734207Y-83382428D01*
X194908847Y-83393129D01*
G37*
G36*
X195044786Y-82808757D02*
G01*
X195324267Y-82867564D01*
X195583396Y-82971127D01*
X195801915Y-83116936D01*
X195927945Y-83240925D01*
X196035305Y-83388333D01*
X196124834Y-83561702D01*
X196188532Y-83749572D01*
X196228915Y-83969310D01*
X196243231Y-84226775D01*
X196228874Y-84484045D01*
X196188355Y-84703794D01*
X196124407Y-84891849D01*
X196034601Y-85065200D01*
X195926958Y-85212611D01*
X195800632Y-85336615D01*
X195581486Y-85482031D01*
X195321489Y-85585498D01*
X195041969Y-85644417D01*
X194738695Y-85664633D01*
X194738695Y-86555631D01*
X193685520Y-86555631D01*
X193685520Y-86086685D01*
X194191591Y-86086685D01*
X194301012Y-86086685D01*
X194301012Y-85195687D01*
X194733993Y-85195687D01*
X194948726Y-85180582D01*
X195141116Y-85137069D01*
X195318299Y-85062453D01*
X195464249Y-84961702D01*
X195584467Y-84828854D01*
X195675397Y-84661284D01*
X195730952Y-84466637D01*
X195750837Y-84226775D01*
X195731000Y-83986684D01*
X195675611Y-83792023D01*
X195584906Y-83624269D01*
X195465104Y-83491605D01*
X195319377Y-83390651D01*
X195142612Y-83315994D01*
X194950859Y-83272482D01*
X194736772Y-83257376D01*
X194191591Y-83257376D01*
X194191591Y-86086685D01*
X193685520Y-86086685D01*
X193685520Y-82788429D01*
X194736558Y-82788429D01*
X195044786Y-82808757D01*
G37*
G36*
X198414550Y-83788848D02*
G01*
X197525506Y-83788848D01*
X197525506Y-84195268D01*
X198400872Y-84195268D01*
X198400872Y-85133161D01*
X197525506Y-85133161D01*
X197525506Y-85555212D01*
X198455583Y-85555212D01*
X198455583Y-86555631D01*
X196472331Y-86555631D01*
X196472331Y-86086685D01*
X196978402Y-86086685D01*
X198072610Y-86086685D01*
X198072610Y-85961632D01*
X197087823Y-85961632D01*
X197087823Y-84726741D01*
X198017899Y-84726741D01*
X198017899Y-84601688D01*
X197087823Y-84601688D01*
X197087823Y-83382428D01*
X198072610Y-83382428D01*
X198072610Y-83257376D01*
X196978402Y-83257376D01*
X196978402Y-86086685D01*
X196472331Y-86086685D01*
X196472331Y-82788429D01*
X198414550Y-82788429D01*
X198414550Y-83788848D01*
G37*
G36*
X200886562Y-85680265D02*
G01*
X199338215Y-85680265D01*
X199442379Y-85367634D01*
X199901989Y-85367634D01*
X200322789Y-85367634D01*
X200112282Y-84742616D01*
X199901989Y-85367634D01*
X199442379Y-85367634D01*
X200112282Y-83357027D01*
X200886562Y-85680265D01*
G37*
G36*
X201753807Y-86555631D02*
G01*
X200710249Y-86555631D01*
X200602325Y-86211737D01*
X199622453Y-86211737D01*
X199514528Y-86555631D01*
X198470756Y-86555631D01*
X198625720Y-86086685D01*
X199083470Y-86086685D01*
X199206141Y-86086685D01*
X199299106Y-85805317D01*
X200925672Y-85805317D01*
X201018637Y-86086685D01*
X201141307Y-86086685D01*
X200200759Y-83257376D01*
X200024019Y-83257376D01*
X199083470Y-86086685D01*
X198625720Y-86086685D01*
X199715631Y-82788429D01*
X200509146Y-82788429D01*
X201753807Y-86555631D01*
G37*
G36*
X202907641Y-83642791D02*
G01*
X203515012Y-82788429D01*
X204810965Y-82788429D01*
X203653925Y-84512295D01*
X204868667Y-86555631D01*
X203593017Y-86555631D01*
X202907641Y-85412575D01*
X202907641Y-86555631D01*
X201840788Y-86555631D01*
X201840788Y-86086685D01*
X202346860Y-86086685D01*
X202456280Y-86086685D01*
X202456280Y-85334173D01*
X202969832Y-84599979D01*
X203864859Y-86086685D01*
X204000139Y-86086685D01*
X203049119Y-84494710D01*
X203920425Y-83257376D01*
X203781084Y-83257376D01*
X202456280Y-85134626D01*
X202456280Y-83257376D01*
X202346860Y-83257376D01*
X202346860Y-86086685D01*
X201840788Y-86086685D01*
X201840788Y-82788429D01*
X202907641Y-82788429D01*
X202907641Y-83642791D01*
G37*
G36*
X206891242Y-83788848D02*
G01*
X206002198Y-83788848D01*
X206002198Y-84195268D01*
X206877564Y-84195268D01*
X206877564Y-85133161D01*
X206002198Y-85133161D01*
X206002198Y-85555212D01*
X206932275Y-85555212D01*
X206932275Y-86555631D01*
X204949023Y-86555631D01*
X204949023Y-86086685D01*
X205455094Y-86086685D01*
X206549302Y-86086685D01*
X206549302Y-85961632D01*
X205564515Y-85961632D01*
X205564515Y-84726741D01*
X206494592Y-84726741D01*
X206494592Y-84601688D01*
X205564515Y-84601688D01*
X205564515Y-83382428D01*
X206549302Y-83382428D01*
X206549302Y-83257376D01*
X205455094Y-83257376D01*
X205455094Y-86086685D01*
X204949023Y-86086685D01*
X204949023Y-82788429D01*
X206891242Y-82788429D01*
X206891242Y-83788848D01*
G37*
G36*
X209363254Y-85680265D02*
G01*
X207814907Y-85680265D01*
X207919071Y-85367634D01*
X208378681Y-85367634D01*
X208799481Y-85367634D01*
X208588974Y-84742616D01*
X208378681Y-85367634D01*
X207919071Y-85367634D01*
X208588974Y-83357027D01*
X209363254Y-85680265D01*
G37*
G36*
X210230500Y-86555631D02*
G01*
X209186942Y-86555631D01*
X209079017Y-86211737D01*
X208099145Y-86211737D01*
X207991220Y-86555631D01*
X206947448Y-86555631D01*
X207102412Y-86086685D01*
X207560162Y-86086685D01*
X207682833Y-86086685D01*
X207775798Y-85805317D01*
X209402364Y-85805317D01*
X209495329Y-86086685D01*
X209618000Y-86086685D01*
X208677451Y-83257376D01*
X208500711Y-83257376D01*
X207560162Y-86086685D01*
X207102412Y-86086685D01*
X208192324Y-82788429D01*
X208985838Y-82788429D01*
X210230500Y-86555631D01*
G37*
G36*
X211567058Y-82708806D02*
G01*
X211777564Y-82734207D01*
X211993628Y-82769134D01*
X211993628Y-83837208D01*
X211898739Y-83827438D01*
X211811117Y-83818646D01*
X211709176Y-83814005D01*
X211636728Y-83814005D01*
X211555517Y-83824996D01*
X211490335Y-83862121D01*
X211470075Y-83892769D01*
X211462980Y-83935150D01*
X211475523Y-83976262D01*
X211527735Y-84042372D01*
X211688019Y-84197711D01*
X211898526Y-84405073D01*
X212008256Y-84530256D01*
X212109674Y-84674717D01*
X212197154Y-84834475D01*
X212271881Y-85017878D01*
X212321153Y-85216739D01*
X212338346Y-85445547D01*
X212320844Y-85687518D01*
X212269531Y-85910097D01*
X212181654Y-86112918D01*
X212055604Y-86287697D01*
X211894279Y-86428640D01*
X211684600Y-86540976D01*
X211446642Y-86609053D01*
X211149891Y-86633789D01*
X210804745Y-86614005D01*
X210523713Y-86565889D01*
X210259351Y-86496036D01*
X210259351Y-85908387D01*
X210683357Y-85908387D01*
X210683357Y-86033928D01*
X210823338Y-86059574D01*
X210966526Y-86078625D01*
X211119116Y-86086685D01*
X211252961Y-86077649D01*
X211382196Y-86050781D01*
X211504084Y-86002790D01*
X211610869Y-85932323D01*
X211701412Y-85838298D01*
X211772008Y-85720321D01*
X211816253Y-85581332D01*
X211832275Y-85403538D01*
X211814869Y-85248164D01*
X211762177Y-85099944D01*
X211683411Y-84960749D01*
X211582659Y-84823217D01*
X211348857Y-84567250D01*
X211114201Y-84318855D01*
X211011835Y-84190149D01*
X210932545Y-84066308D01*
X210878556Y-83935543D01*
X210861165Y-83803503D01*
X210874925Y-83673287D01*
X210913466Y-83570409D01*
X210976143Y-83488429D01*
X211058837Y-83431214D01*
X211177315Y-83392368D01*
X211343514Y-83377543D01*
X211424511Y-83377543D01*
X211506150Y-83383161D01*
X211576888Y-83388778D01*
X211576888Y-83258597D01*
X211509355Y-83258597D01*
X211433915Y-83245896D01*
X211349285Y-83241744D01*
X211178884Y-83258129D01*
X211037614Y-83304115D01*
X210919936Y-83377055D01*
X210828522Y-83480791D01*
X210772138Y-83617878D01*
X210751745Y-83799351D01*
X210769172Y-83948729D01*
X210821842Y-84089755D01*
X210900154Y-84222062D01*
X211001147Y-84356713D01*
X211235162Y-84610725D01*
X211469818Y-84860097D01*
X211571539Y-84990675D01*
X211651260Y-85122170D01*
X211705261Y-85261990D01*
X211722854Y-85405491D01*
X211703651Y-85578215D01*
X211649870Y-85713358D01*
X211561929Y-85819972D01*
X211448378Y-85895360D01*
X211303988Y-85943936D01*
X211120612Y-85961632D01*
X210957909Y-85954407D01*
X210816927Y-85934033D01*
X210683357Y-85908387D01*
X210259351Y-85908387D01*
X210259351Y-85366413D01*
X210490588Y-85431137D01*
X210710498Y-85475833D01*
X210959473Y-85492686D01*
X211088214Y-85468408D01*
X211153462Y-85408125D01*
X211175750Y-85309260D01*
X211160861Y-85242776D01*
X211108644Y-85165401D01*
X210937033Y-84998094D01*
X210712849Y-84792686D01*
X210597876Y-84672655D01*
X210488023Y-84533300D01*
X210392552Y-84378314D01*
X210314275Y-84202840D01*
X210263574Y-84010046D01*
X210245673Y-83781277D01*
X210267437Y-83526140D01*
X210329235Y-83311598D01*
X210429541Y-83123876D01*
X210560686Y-82971856D01*
X210719342Y-82853341D01*
X210907327Y-82765226D01*
X211110932Y-82712636D01*
X211332188Y-82694640D01*
X211567058Y-82708806D01*
G37*
G36*
X213763381Y-83575136D02*
G01*
X214131180Y-82788429D01*
X215306385Y-82788429D01*
X214287404Y-84934836D01*
X214287404Y-86555631D01*
X213234229Y-86555631D01*
X213234229Y-84934836D01*
X212437708Y-83257376D01*
X212997435Y-83257376D01*
X213698626Y-84751409D01*
X213698626Y-86086685D01*
X213823007Y-86086685D01*
X213823007Y-84751409D01*
X214528685Y-83257376D01*
X214392551Y-83257376D01*
X213763381Y-84595826D01*
X213129082Y-83257376D01*
X212997435Y-83257376D01*
X212437708Y-83257376D01*
X212215034Y-82788429D01*
X213390453Y-82788429D01*
X213763381Y-83575136D01*
G37*
D12*
G36*
X197249872Y-91160349D02*
G01*
X197384304Y-91160349D01*
X197384304Y-91446162D01*
X197066886Y-91446162D01*
X197036115Y-91415001D01*
X197007077Y-91374718D01*
X196979886Y-91323748D01*
X196959409Y-91270007D01*
X196947435Y-91217167D01*
X196943494Y-91164697D01*
X196948989Y-91101269D01*
X196964940Y-91044488D01*
X196991122Y-90993092D01*
X197027073Y-90948064D01*
X197074033Y-90908853D01*
X197133759Y-90875318D01*
X197198483Y-90851835D01*
X197272456Y-90837076D01*
X197357242Y-90831891D01*
X197444238Y-90837205D01*
X197518738Y-90852204D01*
X197582629Y-90875855D01*
X197641750Y-90909441D01*
X197687752Y-90947496D01*
X197722531Y-90990063D01*
X197747800Y-91038789D01*
X197763398Y-91094311D01*
X197768840Y-91158151D01*
X197764703Y-91216813D01*
X197753008Y-91266849D01*
X197734459Y-91309673D01*
X197709244Y-91346413D01*
X197677362Y-91377546D01*
X197638400Y-91403159D01*
X197591232Y-91423264D01*
X197534367Y-91437418D01*
X197503103Y-91306260D01*
X197542746Y-91293056D01*
X197573979Y-91274952D01*
X197598260Y-91252136D01*
X197616517Y-91224395D01*
X197627502Y-91193385D01*
X197631282Y-91158151D01*
X197627060Y-91117264D01*
X197614835Y-91081436D01*
X197594630Y-91049572D01*
X197565630Y-91020984D01*
X197532017Y-90999741D01*
X197488952Y-90983329D01*
X197434284Y-90972495D01*
X197365448Y-90968521D01*
X197291824Y-90972751D01*
X197232226Y-90984383D01*
X197184252Y-91002168D01*
X197145874Y-91025380D01*
X197117301Y-91052090D01*
X197097367Y-91082385D01*
X197085257Y-91116987D01*
X197081052Y-91157076D01*
X197085413Y-91195806D01*
X197099224Y-91237676D01*
X197120765Y-91277249D01*
X197148903Y-91312268D01*
X197249872Y-91312268D01*
X197249872Y-91160349D01*
G37*
G36*
X197551898Y-91535258D02*
G01*
X197605032Y-91547298D01*
X197649647Y-91566201D01*
X197687116Y-91591633D01*
X197719404Y-91624542D01*
X197741652Y-91659975D01*
X197754933Y-91698575D01*
X197759461Y-91741354D01*
X197753751Y-91788405D01*
X197736923Y-91830640D01*
X197708343Y-91869384D01*
X197666013Y-91905339D01*
X197619142Y-91930518D01*
X197555051Y-91950792D01*
X197469206Y-91964626D01*
X197356362Y-91969819D01*
X197262323Y-91966315D01*
X197186277Y-91956740D01*
X197125461Y-91942329D01*
X197077386Y-91924059D01*
X197039872Y-91902603D01*
X197003989Y-91872954D01*
X196977284Y-91841131D01*
X196958605Y-91806840D01*
X196947345Y-91769495D01*
X196943494Y-91728263D01*
X196949153Y-91680754D01*
X196965450Y-91640406D01*
X196992538Y-91605555D01*
X197028228Y-91578805D01*
X197077345Y-91557760D01*
X197143578Y-91543517D01*
X197159210Y-91665394D01*
X197115332Y-91674566D01*
X197088571Y-91689705D01*
X197073675Y-91709822D01*
X197068547Y-91736420D01*
X197073253Y-91762067D01*
X197087532Y-91784678D01*
X197113487Y-91805297D01*
X197145662Y-91818726D01*
X197202615Y-91830864D01*
X197295204Y-91839735D01*
X197265372Y-91814132D01*
X197244890Y-91786734D01*
X197232276Y-91755823D01*
X197230620Y-91742429D01*
X197340535Y-91742429D01*
X197344172Y-91764483D01*
X197355196Y-91784535D01*
X197374925Y-91803392D01*
X197399284Y-91816583D01*
X197432792Y-91825452D01*
X197478191Y-91828793D01*
X197527837Y-91825123D01*
X197565567Y-91815252D01*
X197593962Y-91800363D01*
X197617599Y-91779197D01*
X197630336Y-91757993D01*
X197634408Y-91735883D01*
X197630838Y-91714240D01*
X197620126Y-91695108D01*
X197601094Y-91677655D01*
X197577488Y-91665950D01*
X197541925Y-91657682D01*
X197490207Y-91654452D01*
X197438729Y-91657894D01*
X197402061Y-91666859D01*
X197376586Y-91679854D01*
X197355932Y-91698868D01*
X197344369Y-91719437D01*
X197340535Y-91742429D01*
X197230620Y-91742429D01*
X197227988Y-91721131D01*
X197232202Y-91685752D01*
X197244855Y-91652376D01*
X197266675Y-91620166D01*
X197299258Y-91588604D01*
X197336109Y-91564284D01*
X197379139Y-91546329D01*
X197429485Y-91534981D01*
X197488547Y-91530963D01*
X197551898Y-91535258D01*
G37*
G36*
X197259872Y-88650349D02*
G01*
X197394304Y-88650349D01*
X197394304Y-88936162D01*
X197076886Y-88936162D01*
X197046115Y-88905001D01*
X197017077Y-88864718D01*
X196989886Y-88813748D01*
X196969409Y-88760007D01*
X196957435Y-88707167D01*
X196953494Y-88654697D01*
X196958989Y-88591269D01*
X196974940Y-88534488D01*
X197001122Y-88483092D01*
X197037073Y-88438064D01*
X197084033Y-88398853D01*
X197143759Y-88365318D01*
X197208483Y-88341835D01*
X197282456Y-88327076D01*
X197367242Y-88321891D01*
X197454238Y-88327205D01*
X197528738Y-88342204D01*
X197592629Y-88365855D01*
X197651750Y-88399441D01*
X197697752Y-88437496D01*
X197732531Y-88480063D01*
X197757800Y-88528789D01*
X197773398Y-88584311D01*
X197778840Y-88648151D01*
X197774703Y-88706813D01*
X197763008Y-88756849D01*
X197744459Y-88799673D01*
X197719244Y-88836413D01*
X197687362Y-88867546D01*
X197648400Y-88893159D01*
X197601232Y-88913264D01*
X197544367Y-88927418D01*
X197513103Y-88796260D01*
X197552746Y-88783056D01*
X197583979Y-88764952D01*
X197608260Y-88742136D01*
X197626517Y-88714395D01*
X197637502Y-88683385D01*
X197641282Y-88648151D01*
X197637060Y-88607264D01*
X197624835Y-88571436D01*
X197604630Y-88539572D01*
X197575630Y-88510984D01*
X197542017Y-88489741D01*
X197498952Y-88473329D01*
X197444284Y-88462495D01*
X197375448Y-88458521D01*
X197301824Y-88462751D01*
X197242226Y-88474383D01*
X197194252Y-88492168D01*
X197155874Y-88515380D01*
X197127301Y-88542090D01*
X197107367Y-88572385D01*
X197095257Y-88606987D01*
X197091052Y-88647076D01*
X197095413Y-88685806D01*
X197109224Y-88727676D01*
X197130765Y-88767249D01*
X197158903Y-88802268D01*
X197259872Y-88802268D01*
X197259872Y-88650349D01*
G37*
G36*
X197243068Y-89033094D02*
G01*
X197283935Y-89042734D01*
X197319468Y-89058137D01*
X197351309Y-89079864D01*
X197377478Y-89106826D01*
X197398456Y-89139568D01*
X197416750Y-89110666D01*
X197438463Y-89087570D01*
X197463815Y-89069616D01*
X197492320Y-89056894D01*
X197525259Y-89048925D01*
X197563515Y-89046120D01*
X197610260Y-89049792D01*
X197650104Y-89060201D01*
X197684253Y-89076820D01*
X197713627Y-89099658D01*
X197737623Y-89128128D01*
X197754918Y-89161036D01*
X197765678Y-89199249D01*
X197769461Y-89243957D01*
X197765323Y-89291437D01*
X197753710Y-89330686D01*
X197735257Y-89363299D01*
X197709817Y-89390405D01*
X197667680Y-89418082D01*
X197619816Y-89434858D01*
X197564639Y-89440670D01*
X197526390Y-89437798D01*
X197492951Y-89429577D01*
X197463522Y-89416344D01*
X197437099Y-89397989D01*
X197415560Y-89375968D01*
X197398456Y-89349958D01*
X197377404Y-89384935D01*
X197351996Y-89412681D01*
X197321959Y-89434076D01*
X197288020Y-89449097D01*
X197248030Y-89458597D01*
X197200766Y-89461968D01*
X197151990Y-89458722D01*
X197108672Y-89449393D01*
X197069998Y-89434369D01*
X197034611Y-89413188D01*
X197006022Y-89387844D01*
X196983438Y-89358116D01*
X196966900Y-89324628D01*
X196956907Y-89288431D01*
X196953494Y-89248842D01*
X196953696Y-89246644D01*
X197078547Y-89246644D01*
X197082131Y-89270595D01*
X197092776Y-89291702D01*
X197111324Y-89310831D01*
X197134690Y-89324388D01*
X197166636Y-89333427D01*
X197209754Y-89336818D01*
X197246504Y-89333539D01*
X197275710Y-89324483D01*
X197298951Y-89310293D01*
X197317511Y-89290820D01*
X197328182Y-89269355D01*
X197331778Y-89245032D01*
X197331529Y-89243371D01*
X197456830Y-89243371D01*
X197459616Y-89265256D01*
X197467688Y-89283931D01*
X197481254Y-89300182D01*
X197498872Y-89312129D01*
X197521746Y-89319798D01*
X197551401Y-89322603D01*
X197580012Y-89319862D01*
X197602399Y-89312316D01*
X197619935Y-89300475D01*
X197633582Y-89284394D01*
X197641643Y-89266144D01*
X197644408Y-89244983D01*
X197641581Y-89222760D01*
X197633405Y-89203900D01*
X197619691Y-89187586D01*
X197601966Y-89175570D01*
X197579630Y-89167962D01*
X197551401Y-89165213D01*
X197521721Y-89167986D01*
X197498848Y-89175561D01*
X197481254Y-89187341D01*
X197467667Y-89203430D01*
X197459606Y-89221850D01*
X197456830Y-89243371D01*
X197331529Y-89243371D01*
X197328180Y-89221076D01*
X197317455Y-89199767D01*
X197298707Y-89180258D01*
X197275313Y-89166024D01*
X197246487Y-89157017D01*
X197210829Y-89153782D01*
X197169309Y-89157246D01*
X197137375Y-89166654D01*
X197112936Y-89181089D01*
X197093339Y-89201201D01*
X197082239Y-89222774D01*
X197078547Y-89246644D01*
X196953696Y-89246644D01*
X196957764Y-89202467D01*
X196970117Y-89161471D01*
X196990387Y-89124795D01*
X197019098Y-89091696D01*
X197053575Y-89065299D01*
X197093739Y-89046049D01*
X197140684Y-89033972D01*
X197195832Y-89029707D01*
X197243068Y-89033094D01*
G37*
G36*
X197259872Y-96050174D02*
G01*
X197394304Y-96050174D01*
X197394304Y-96335987D01*
X197076886Y-96335987D01*
X197046115Y-96304826D01*
X197017077Y-96264543D01*
X196989886Y-96213573D01*
X196969409Y-96159832D01*
X196957435Y-96106992D01*
X196953494Y-96054522D01*
X196958989Y-95991094D01*
X196974940Y-95934313D01*
X197001122Y-95882917D01*
X197037073Y-95837889D01*
X197084033Y-95798678D01*
X197143759Y-95765143D01*
X197208483Y-95741660D01*
X197282456Y-95726901D01*
X197367242Y-95721716D01*
X197454238Y-95727030D01*
X197528738Y-95742029D01*
X197592629Y-95765680D01*
X197651750Y-95799266D01*
X197697752Y-95837321D01*
X197732531Y-95879888D01*
X197757800Y-95928614D01*
X197773398Y-95984136D01*
X197778840Y-96047976D01*
X197774703Y-96106638D01*
X197763008Y-96156674D01*
X197744459Y-96199498D01*
X197719244Y-96236238D01*
X197687362Y-96267371D01*
X197648400Y-96292984D01*
X197601232Y-96313089D01*
X197544367Y-96327243D01*
X197513103Y-96196085D01*
X197552746Y-96182881D01*
X197583979Y-96164777D01*
X197608260Y-96141961D01*
X197626517Y-96114220D01*
X197637502Y-96083210D01*
X197641282Y-96047976D01*
X197637060Y-96007089D01*
X197624835Y-95971261D01*
X197604630Y-95939397D01*
X197575630Y-95910809D01*
X197542017Y-95889566D01*
X197498952Y-95873154D01*
X197444284Y-95862320D01*
X197375448Y-95858346D01*
X197301824Y-95862576D01*
X197242226Y-95874208D01*
X197194252Y-95891993D01*
X197155874Y-95915205D01*
X197127301Y-95941915D01*
X197107367Y-95972210D01*
X197095257Y-96006812D01*
X197091052Y-96046901D01*
X197095413Y-96085631D01*
X197109224Y-96127501D01*
X197130765Y-96167074D01*
X197158903Y-96202093D01*
X197259872Y-96202093D01*
X197259872Y-96050174D01*
G37*
G36*
X196966000Y-96753056D02*
G01*
X196966000Y-96627369D01*
X197547493Y-96627369D01*
X197499135Y-96577334D01*
X197460816Y-96523206D01*
X197431819Y-96464508D01*
X197569377Y-96464508D01*
X197585932Y-96497946D01*
X197610519Y-96534035D01*
X197644604Y-96573245D01*
X197683032Y-96607303D01*
X197724492Y-96633166D01*
X197769461Y-96651402D01*
X197769461Y-96753056D01*
X196966000Y-96753056D01*
G37*
G36*
X196966000Y-97238416D02*
G01*
X196966000Y-97112728D01*
X197547493Y-97112728D01*
X197499135Y-97062693D01*
X197460816Y-97008566D01*
X197431819Y-96949867D01*
X197569377Y-96949867D01*
X197585932Y-96983305D01*
X197610519Y-97019394D01*
X197644604Y-97058604D01*
X197683032Y-97092662D01*
X197724492Y-97118525D01*
X197769461Y-97136762D01*
X197769461Y-97238416D01*
X196966000Y-97238416D01*
G37*
G36*
X197259872Y-98565164D02*
G01*
X197394304Y-98565164D01*
X197394304Y-98850977D01*
X197076886Y-98850977D01*
X197046115Y-98819816D01*
X197017077Y-98779533D01*
X196989886Y-98728563D01*
X196969409Y-98674822D01*
X196957435Y-98621982D01*
X196953494Y-98569512D01*
X196958989Y-98506084D01*
X196974940Y-98449303D01*
X197001122Y-98397907D01*
X197037073Y-98352879D01*
X197084033Y-98313668D01*
X197143759Y-98280133D01*
X197208483Y-98256650D01*
X197282456Y-98241891D01*
X197367242Y-98236706D01*
X197454238Y-98242020D01*
X197528738Y-98257019D01*
X197592629Y-98280670D01*
X197651750Y-98314256D01*
X197697752Y-98352311D01*
X197732531Y-98394878D01*
X197757800Y-98443604D01*
X197773398Y-98499126D01*
X197778840Y-98562966D01*
X197774703Y-98621628D01*
X197763008Y-98671664D01*
X197744459Y-98714488D01*
X197719244Y-98751228D01*
X197687362Y-98782361D01*
X197648400Y-98807974D01*
X197601232Y-98828079D01*
X197544367Y-98842233D01*
X197513103Y-98711075D01*
X197552746Y-98697871D01*
X197583979Y-98679767D01*
X197608260Y-98656951D01*
X197626517Y-98629210D01*
X197637502Y-98598200D01*
X197641282Y-98562966D01*
X197637060Y-98522079D01*
X197624835Y-98486251D01*
X197604630Y-98454387D01*
X197575630Y-98425799D01*
X197542017Y-98404556D01*
X197498952Y-98388144D01*
X197444284Y-98377310D01*
X197375448Y-98373336D01*
X197301824Y-98377566D01*
X197242226Y-98389198D01*
X197194252Y-98406983D01*
X197155874Y-98430195D01*
X197127301Y-98456905D01*
X197107367Y-98487200D01*
X197095257Y-98521802D01*
X197091052Y-98561891D01*
X197095413Y-98600621D01*
X197109224Y-98642491D01*
X197130765Y-98682064D01*
X197158903Y-98717083D01*
X197259872Y-98717083D01*
X197259872Y-98565164D01*
G37*
G36*
X196966000Y-99268046D02*
G01*
X196966000Y-99142359D01*
X197547493Y-99142359D01*
X197499135Y-99092324D01*
X197460816Y-99038196D01*
X197431819Y-98979498D01*
X197569377Y-98979498D01*
X197585932Y-99012936D01*
X197610519Y-99049025D01*
X197644604Y-99088235D01*
X197683032Y-99122293D01*
X197724492Y-99148156D01*
X197769461Y-99166392D01*
X197769461Y-99268046D01*
X196966000Y-99268046D01*
G37*
G36*
X197109810Y-99881682D02*
G01*
X196966000Y-99881682D01*
X196966000Y-99440140D01*
X197019179Y-99448121D01*
X197070424Y-99462557D01*
X197120117Y-99483566D01*
X197167359Y-99511058D01*
X197230110Y-99556366D01*
X197312043Y-99624836D01*
X197400248Y-99698883D01*
X197440173Y-99727027D01*
X197473550Y-99743138D01*
X197506048Y-99752424D01*
X197538163Y-99755457D01*
X197572509Y-99752449D01*
X197598329Y-99744343D01*
X197617591Y-99731961D01*
X197632425Y-99714760D01*
X197641314Y-99694499D01*
X197644408Y-99670216D01*
X197639858Y-99641116D01*
X197626874Y-99618394D01*
X197604678Y-99600430D01*
X197570353Y-99587153D01*
X197519356Y-99580042D01*
X197534988Y-99454892D01*
X197596166Y-99464498D01*
X197644766Y-99479554D01*
X197683007Y-99499172D01*
X197712699Y-99522938D01*
X197737083Y-99552868D01*
X197754676Y-99587304D01*
X197765619Y-99627118D01*
X197769461Y-99673489D01*
X197764828Y-99724276D01*
X197751830Y-99766056D01*
X197731129Y-99800627D01*
X197702441Y-99829219D01*
X197655560Y-99858389D01*
X197604793Y-99875770D01*
X197548861Y-99881682D01*
X197500442Y-99878317D01*
X197453801Y-99868297D01*
X197408362Y-99851607D01*
X197361184Y-99827020D01*
X197312531Y-99793272D01*
X197242189Y-99734159D01*
X197152308Y-99657369D01*
X197109810Y-99631431D01*
X197109810Y-99881682D01*
G37*
G36*
X197178588Y-103358081D02*
G01*
X197194220Y-103479958D01*
X197157629Y-103486147D01*
X197129555Y-103496741D01*
X197108247Y-103511123D01*
X197091407Y-103530149D01*
X197081766Y-103550490D01*
X197078547Y-103572868D01*
X197082371Y-103597013D01*
X197093840Y-103618571D01*
X197114108Y-103638423D01*
X197139227Y-103652618D01*
X197171456Y-103661823D01*
X197212685Y-103665192D01*
X197250973Y-103661975D01*
X197281043Y-103653158D01*
X197304618Y-103639497D01*
X197323667Y-103620510D01*
X197334443Y-103600022D01*
X197338030Y-103577215D01*
X197335442Y-103552265D01*
X197326551Y-103519818D01*
X197450577Y-103533496D01*
X197453289Y-103564843D01*
X197462250Y-103590054D01*
X197477102Y-103610530D01*
X197497152Y-103625561D01*
X197522583Y-103635012D01*
X197554967Y-103638423D01*
X197582255Y-103635916D01*
X197603739Y-103629010D01*
X197620668Y-103618199D01*
X197633901Y-103603374D01*
X197641718Y-103586317D01*
X197644408Y-103566273D01*
X197641500Y-103546327D01*
X197632786Y-103528226D01*
X197617542Y-103511319D01*
X197598335Y-103498695D01*
X197572463Y-103489294D01*
X197538114Y-103483768D01*
X197563124Y-103367362D01*
X197617785Y-103379755D01*
X197660964Y-103396002D01*
X197694635Y-103415463D01*
X197720417Y-103437850D01*
X197747384Y-103475341D01*
X197763754Y-103518862D01*
X197769461Y-103570132D01*
X197765237Y-103613755D01*
X197753131Y-103651270D01*
X197733395Y-103683906D01*
X197705469Y-103712477D01*
X197660582Y-103742147D01*
X197613742Y-103759450D01*
X197563808Y-103765234D01*
X197529467Y-103762507D01*
X197498109Y-103754546D01*
X197469189Y-103741444D01*
X197430452Y-103712460D01*
X197395378Y-103670125D01*
X197381788Y-103704446D01*
X197360511Y-103734180D01*
X197330703Y-103760007D01*
X197295815Y-103778808D01*
X197254630Y-103790575D01*
X197205699Y-103794738D01*
X197151841Y-103790393D01*
X197104475Y-103777899D01*
X197062467Y-103757643D01*
X197024960Y-103729428D01*
X196993035Y-103694334D01*
X196971031Y-103657180D01*
X196957935Y-103617355D01*
X196953494Y-103573943D01*
X196957363Y-103531904D01*
X196968640Y-103494056D01*
X196987278Y-103459537D01*
X197013822Y-103427739D01*
X197045597Y-103401723D01*
X197082990Y-103381352D01*
X197126922Y-103366656D01*
X197178588Y-103358081D01*
G37*
G36*
X196966000Y-104068437D02*
G01*
X197766334Y-103834012D01*
X197766334Y-103977725D01*
X197173997Y-104143859D01*
X197766334Y-104304522D01*
X197766334Y-104445548D01*
X196966000Y-104210537D01*
X196966000Y-104068437D01*
G37*
G36*
X197178588Y-104480425D02*
G01*
X197194220Y-104602303D01*
X197157629Y-104608492D01*
X197129555Y-104619086D01*
X197108247Y-104633468D01*
X197091407Y-104652493D01*
X197081766Y-104672835D01*
X197078547Y-104695213D01*
X197082371Y-104719358D01*
X197093840Y-104740915D01*
X197114108Y-104760767D01*
X197139227Y-104774963D01*
X197171456Y-104784168D01*
X197212685Y-104787536D01*
X197250973Y-104784320D01*
X197281043Y-104775503D01*
X197304618Y-104761842D01*
X197323667Y-104742854D01*
X197334443Y-104722367D01*
X197338030Y-104699560D01*
X197335442Y-104674610D01*
X197326551Y-104642163D01*
X197450577Y-104655841D01*
X197453289Y-104687188D01*
X197462250Y-104712399D01*
X197477102Y-104732875D01*
X197497152Y-104747906D01*
X197522583Y-104757356D01*
X197554967Y-104760767D01*
X197582255Y-104758261D01*
X197603739Y-104751355D01*
X197620668Y-104740544D01*
X197633901Y-104725719D01*
X197641718Y-104708662D01*
X197644408Y-104688618D01*
X197641500Y-104668671D01*
X197632786Y-104650571D01*
X197617542Y-104633663D01*
X197598335Y-104621039D01*
X197572463Y-104611639D01*
X197538114Y-104606113D01*
X197563124Y-104489707D01*
X197617785Y-104502100D01*
X197660964Y-104518347D01*
X197694635Y-104537808D01*
X197720417Y-104560195D01*
X197747384Y-104597686D01*
X197763754Y-104641207D01*
X197769461Y-104692477D01*
X197765237Y-104736100D01*
X197753131Y-104773614D01*
X197733395Y-104806251D01*
X197705469Y-104834822D01*
X197660582Y-104864492D01*
X197613742Y-104881795D01*
X197563808Y-104887578D01*
X197529467Y-104884852D01*
X197498109Y-104876890D01*
X197469189Y-104863789D01*
X197430452Y-104834805D01*
X197395378Y-104792470D01*
X197381788Y-104826790D01*
X197360511Y-104856525D01*
X197330703Y-104882352D01*
X197295815Y-104901152D01*
X197254630Y-104912919D01*
X197205699Y-104917083D01*
X197151841Y-104912737D01*
X197104475Y-104900244D01*
X197062467Y-104879988D01*
X197024960Y-104851772D01*
X196993035Y-104816679D01*
X196971031Y-104779525D01*
X196957935Y-104739699D01*
X196953494Y-104696287D01*
X196957363Y-104654249D01*
X196968640Y-104616401D01*
X196987278Y-104581882D01*
X197013822Y-104550084D01*
X197045597Y-104524067D01*
X197082990Y-104503697D01*
X197126922Y-104489001D01*
X197178588Y-104480425D01*
G37*
D13*
G36*
X197269872Y-93465164D02*
G01*
X197404304Y-93465164D01*
X197404304Y-93750977D01*
X197086886Y-93750977D01*
X197056115Y-93719816D01*
X197027077Y-93679533D01*
X196999886Y-93628563D01*
X196979409Y-93574822D01*
X196967435Y-93521982D01*
X196963494Y-93469512D01*
X196968989Y-93406084D01*
X196984940Y-93349303D01*
X197011122Y-93297907D01*
X197047073Y-93252879D01*
X197094033Y-93213668D01*
X197153759Y-93180133D01*
X197218483Y-93156650D01*
X197292456Y-93141891D01*
X197377242Y-93136706D01*
X197464238Y-93142020D01*
X197538738Y-93157019D01*
X197602629Y-93180670D01*
X197661750Y-93214256D01*
X197707752Y-93252311D01*
X197742531Y-93294878D01*
X197767800Y-93343604D01*
X197783398Y-93399126D01*
X197788840Y-93462966D01*
X197784703Y-93521628D01*
X197773008Y-93571664D01*
X197754459Y-93614488D01*
X197729244Y-93651228D01*
X197697362Y-93682361D01*
X197658400Y-93707974D01*
X197611232Y-93728079D01*
X197554367Y-93742233D01*
X197523103Y-93611075D01*
X197562746Y-93597871D01*
X197593979Y-93579767D01*
X197618260Y-93556951D01*
X197636517Y-93529210D01*
X197647502Y-93498200D01*
X197651282Y-93462966D01*
X197647060Y-93422079D01*
X197634835Y-93386251D01*
X197614630Y-93354387D01*
X197585630Y-93325799D01*
X197552017Y-93304556D01*
X197508952Y-93288144D01*
X197454284Y-93277310D01*
X197385448Y-93273336D01*
X197311824Y-93277566D01*
X197252226Y-93289198D01*
X197204252Y-93306983D01*
X197165874Y-93330195D01*
X197137301Y-93356905D01*
X197117367Y-93387200D01*
X197105257Y-93421802D01*
X197101052Y-93461891D01*
X197105413Y-93500621D01*
X197119224Y-93542491D01*
X197140765Y-93582064D01*
X197168903Y-93617083D01*
X197269872Y-93617083D01*
X197269872Y-93465164D01*
G37*
G36*
X196976000Y-94168046D02*
G01*
X196976000Y-94042359D01*
X197557493Y-94042359D01*
X197509135Y-93992324D01*
X197470816Y-93938196D01*
X197441819Y-93879498D01*
X197579377Y-93879498D01*
X197595932Y-93912936D01*
X197620519Y-93949025D01*
X197654604Y-93988235D01*
X197693032Y-94022293D01*
X197734492Y-94048156D01*
X197779461Y-94066392D01*
X197779461Y-94168046D01*
X196976000Y-94168046D01*
G37*
G36*
X197491326Y-94360858D02*
G01*
X197579493Y-94373748D01*
X197643504Y-94392345D01*
X197688700Y-94414976D01*
X197729838Y-94448199D01*
X197757567Y-94484401D01*
X197773903Y-94524251D01*
X197779461Y-94569093D01*
X197773888Y-94614242D01*
X197757528Y-94654275D01*
X197729795Y-94690551D01*
X197688700Y-94723747D01*
X197643511Y-94746364D01*
X197579297Y-94764979D01*
X197490614Y-94777898D01*
X197371184Y-94782805D01*
X197252091Y-94777902D01*
X197163590Y-94764990D01*
X197099447Y-94746376D01*
X197054255Y-94723747D01*
X197013118Y-94690548D01*
X196985390Y-94654362D01*
X196969053Y-94614520D01*
X196963494Y-94569679D01*
X196963560Y-94569142D01*
X197088547Y-94569142D01*
X197093448Y-94591302D01*
X197108741Y-94610837D01*
X197137933Y-94628639D01*
X197173680Y-94638726D01*
X197245163Y-94646992D01*
X197371184Y-94650523D01*
X197497622Y-94646989D01*
X197569260Y-94638721D01*
X197605023Y-94628639D01*
X197634214Y-94610837D01*
X197649507Y-94591302D01*
X197654408Y-94569142D01*
X197649537Y-94547276D01*
X197634271Y-94527801D01*
X197605023Y-94509840D01*
X197569252Y-94499644D01*
X197497615Y-94491284D01*
X197371184Y-94487711D01*
X197244768Y-94491288D01*
X197173258Y-94499651D01*
X197137639Y-94509840D01*
X197108587Y-94527782D01*
X197093398Y-94547256D01*
X197088547Y-94569142D01*
X196963560Y-94569142D01*
X196969028Y-94524479D01*
X196985265Y-94484418D01*
X197012753Y-94448145D01*
X197053424Y-94414976D01*
X197098204Y-94392462D01*
X197162426Y-94373859D01*
X197251783Y-94360902D01*
X197372845Y-94355967D01*
X197491326Y-94360858D01*
G37*
G36*
X197188588Y-108699811D02*
G01*
X197204220Y-108825499D01*
X197169273Y-108831699D01*
X197141462Y-108842594D01*
X197119419Y-108857739D01*
X197101633Y-108877467D01*
X197091754Y-108897285D01*
X197088547Y-108917871D01*
X197092547Y-108941901D01*
X197104698Y-108963817D01*
X197126502Y-108984501D01*
X197153408Y-108998897D01*
X197191181Y-109008678D01*
X197243201Y-109012393D01*
X197292239Y-109008728D01*
X197327797Y-108999067D01*
X197353110Y-108984794D01*
X197373141Y-108964343D01*
X197384734Y-108941267D01*
X197388672Y-108914550D01*
X197385301Y-108889402D01*
X197375029Y-108865220D01*
X197356934Y-108841316D01*
X197329272Y-108817292D01*
X197344904Y-108715101D01*
X197766956Y-108779581D01*
X197766956Y-109112435D01*
X197623145Y-109112435D01*
X197623145Y-108875227D01*
X197486125Y-108855003D01*
X197501801Y-108884360D01*
X197510792Y-108912978D01*
X197513725Y-108941368D01*
X197509885Y-108978756D01*
X197498616Y-109012659D01*
X197479757Y-109043913D01*
X197452468Y-109073063D01*
X197411700Y-109102138D01*
X197364587Y-109123384D01*
X197309948Y-109136708D01*
X197246279Y-109141403D01*
X197194337Y-109137732D01*
X197145008Y-109126862D01*
X197097749Y-109108780D01*
X197052106Y-109083175D01*
X197012948Y-109050543D01*
X196985770Y-109012722D01*
X196969256Y-108968726D01*
X196963494Y-108916797D01*
X196967298Y-108874076D01*
X196978325Y-108836028D01*
X196996424Y-108801750D01*
X197022015Y-108770593D01*
X197052786Y-108745195D01*
X197090015Y-108724770D01*
X197134815Y-108709459D01*
X197188588Y-108699811D01*
G37*
G36*
X196976000Y-109403622D02*
G01*
X197776334Y-109169197D01*
X197776334Y-109312910D01*
X197183997Y-109479044D01*
X197776334Y-109639707D01*
X197776334Y-109780733D01*
X196976000Y-109545722D01*
X196976000Y-109403622D01*
G37*
D12*
G36*
X197289872Y-101085164D02*
G01*
X197424304Y-101085164D01*
X197424304Y-101370977D01*
X197106886Y-101370977D01*
X197076115Y-101339816D01*
X197047077Y-101299533D01*
X197019886Y-101248563D01*
X196999409Y-101194822D01*
X196987435Y-101141982D01*
X196983494Y-101089512D01*
X196988989Y-101026084D01*
X197004940Y-100969303D01*
X197031122Y-100917907D01*
X197067073Y-100872879D01*
X197114033Y-100833668D01*
X197173759Y-100800133D01*
X197238483Y-100776650D01*
X197312456Y-100761891D01*
X197397242Y-100756706D01*
X197484238Y-100762020D01*
X197558738Y-100777019D01*
X197622629Y-100800670D01*
X197681750Y-100834256D01*
X197727752Y-100872311D01*
X197762531Y-100914878D01*
X197787800Y-100963604D01*
X197803398Y-101019126D01*
X197808840Y-101082966D01*
X197804703Y-101141628D01*
X197793008Y-101191664D01*
X197774459Y-101234488D01*
X197749244Y-101271228D01*
X197717362Y-101302361D01*
X197678400Y-101327974D01*
X197631232Y-101348079D01*
X197574367Y-101362233D01*
X197543103Y-101231075D01*
X197582746Y-101217871D01*
X197613979Y-101199767D01*
X197638260Y-101176951D01*
X197656517Y-101149210D01*
X197667502Y-101118200D01*
X197671282Y-101082966D01*
X197667060Y-101042079D01*
X197654835Y-101006251D01*
X197634630Y-100974387D01*
X197605630Y-100945799D01*
X197572017Y-100924556D01*
X197528952Y-100908144D01*
X197474284Y-100897310D01*
X197405448Y-100893336D01*
X197331824Y-100897566D01*
X197272226Y-100909198D01*
X197224252Y-100926983D01*
X197185874Y-100950195D01*
X197157301Y-100976905D01*
X197137367Y-101007200D01*
X197125257Y-101041802D01*
X197121052Y-101081891D01*
X197125413Y-101120621D01*
X197139224Y-101162491D01*
X197160765Y-101202064D01*
X197188903Y-101237083D01*
X197289872Y-101237083D01*
X197289872Y-101085164D01*
G37*
G36*
X196996000Y-101788046D02*
G01*
X196996000Y-101662359D01*
X197577493Y-101662359D01*
X197529135Y-101612324D01*
X197490816Y-101558196D01*
X197461819Y-101499498D01*
X197599377Y-101499498D01*
X197615932Y-101532936D01*
X197640519Y-101569025D01*
X197674604Y-101608235D01*
X197713032Y-101642293D01*
X197754492Y-101668156D01*
X197799461Y-101686392D01*
X197799461Y-101788046D01*
X196996000Y-101788046D01*
G37*
G36*
X197208588Y-101971619D02*
G01*
X197224220Y-102093496D01*
X197187629Y-102099685D01*
X197159555Y-102110280D01*
X197138247Y-102124662D01*
X197121407Y-102143687D01*
X197111766Y-102164028D01*
X197108547Y-102186406D01*
X197112371Y-102210552D01*
X197123840Y-102232109D01*
X197144108Y-102251961D01*
X197169227Y-102266157D01*
X197201456Y-102275362D01*
X197242685Y-102278730D01*
X197280973Y-102275514D01*
X197311043Y-102266697D01*
X197334618Y-102253036D01*
X197353667Y-102234048D01*
X197364443Y-102213560D01*
X197368030Y-102190754D01*
X197365442Y-102165803D01*
X197356551Y-102133357D01*
X197480577Y-102147034D01*
X197483289Y-102178381D01*
X197492250Y-102203593D01*
X197507102Y-102224068D01*
X197527152Y-102239099D01*
X197552583Y-102248550D01*
X197584967Y-102251961D01*
X197612255Y-102249454D01*
X197633739Y-102242549D01*
X197650668Y-102231738D01*
X197663901Y-102216913D01*
X197671718Y-102199856D01*
X197674408Y-102179812D01*
X197671500Y-102159865D01*
X197662786Y-102141765D01*
X197647542Y-102124857D01*
X197628335Y-102112233D01*
X197602463Y-102102832D01*
X197568114Y-102097306D01*
X197593124Y-101980900D01*
X197647785Y-101993294D01*
X197690964Y-102009541D01*
X197724635Y-102029001D01*
X197750417Y-102051389D01*
X197777384Y-102088879D01*
X197793754Y-102132400D01*
X197799461Y-102183671D01*
X197795237Y-102227294D01*
X197783131Y-102264808D01*
X197763395Y-102297444D01*
X197735469Y-102326015D01*
X197690582Y-102355685D01*
X197643742Y-102372988D01*
X197593808Y-102378772D01*
X197559467Y-102376045D01*
X197528109Y-102368084D01*
X197499189Y-102354983D01*
X197460452Y-102325999D01*
X197425378Y-102283664D01*
X197411788Y-102317984D01*
X197390511Y-102347718D01*
X197360703Y-102373545D01*
X197325815Y-102392346D01*
X197284630Y-102404113D01*
X197235699Y-102408276D01*
X197181841Y-102403931D01*
X197134475Y-102391437D01*
X197092467Y-102371182D01*
X197054960Y-102342966D01*
X197023035Y-102307873D01*
X197001031Y-102270719D01*
X196987935Y-102230893D01*
X196983494Y-102187481D01*
X196987363Y-102145443D01*
X196998640Y-102107594D01*
X197017278Y-102073076D01*
X197043822Y-102041277D01*
X197075597Y-102015261D01*
X197112990Y-101994891D01*
X197156922Y-101980194D01*
X197208588Y-101971619D01*
G37*
G36*
X197289872Y-106012756D02*
G01*
X197424304Y-106012756D01*
X197424304Y-106298569D01*
X197106886Y-106298569D01*
X197076115Y-106267408D01*
X197047077Y-106227125D01*
X197019886Y-106176155D01*
X196999409Y-106122414D01*
X196987435Y-106069574D01*
X196983494Y-106017104D01*
X196988989Y-105953676D01*
X197004940Y-105896895D01*
X197031122Y-105845499D01*
X197067073Y-105800471D01*
X197114033Y-105761260D01*
X197173759Y-105727725D01*
X197238483Y-105704242D01*
X197312456Y-105689483D01*
X197397242Y-105684298D01*
X197484238Y-105689612D01*
X197558738Y-105704611D01*
X197622629Y-105728262D01*
X197681750Y-105761848D01*
X197727752Y-105799903D01*
X197762531Y-105842470D01*
X197787800Y-105891196D01*
X197803398Y-105946718D01*
X197808840Y-106010558D01*
X197804703Y-106069220D01*
X197793008Y-106119256D01*
X197774459Y-106162080D01*
X197749244Y-106198820D01*
X197717362Y-106229953D01*
X197678400Y-106255566D01*
X197631232Y-106275671D01*
X197574367Y-106289825D01*
X197543103Y-106158667D01*
X197582746Y-106145463D01*
X197613979Y-106127359D01*
X197638260Y-106104543D01*
X197656517Y-106076802D01*
X197667502Y-106045792D01*
X197671282Y-106010558D01*
X197667060Y-105969671D01*
X197654835Y-105933843D01*
X197634630Y-105901979D01*
X197605630Y-105873391D01*
X197572017Y-105852148D01*
X197528952Y-105835736D01*
X197474284Y-105824902D01*
X197405448Y-105820928D01*
X197331824Y-105825158D01*
X197272226Y-105836790D01*
X197224252Y-105854575D01*
X197185874Y-105877787D01*
X197157301Y-105904497D01*
X197137367Y-105934792D01*
X197125257Y-105969394D01*
X197121052Y-106009483D01*
X197125413Y-106048213D01*
X197139224Y-106090083D01*
X197160765Y-106129656D01*
X197188903Y-106164675D01*
X197289872Y-106164675D01*
X197289872Y-106012756D01*
G37*
G36*
X196996000Y-106422693D02*
G01*
X197796334Y-106422693D01*
X197796334Y-106551702D01*
X197261882Y-106820565D01*
X197796334Y-106820565D01*
X197796334Y-106944054D01*
X196996000Y-106944054D01*
X196996000Y-106810746D01*
X197517898Y-106546231D01*
X196996000Y-106546231D01*
X196996000Y-106422693D01*
G37*
G36*
X197796334Y-107325415D02*
G01*
X197793554Y-107386982D01*
X197786283Y-107431963D01*
X197775867Y-107463949D01*
X197759728Y-107493346D01*
X197737016Y-107521968D01*
X197706795Y-107550021D01*
X197672801Y-107573434D01*
X197631171Y-107594114D01*
X197580668Y-107611765D01*
X197528508Y-107623594D01*
X197464902Y-107631368D01*
X197387960Y-107634187D01*
X197318960Y-107631334D01*
X197259186Y-107623284D01*
X197207514Y-107610690D01*
X197157325Y-107592521D01*
X197117377Y-107572553D01*
X197086076Y-107551095D01*
X197058537Y-107525211D01*
X197036180Y-107496266D01*
X197018665Y-107463949D01*
X197006703Y-107429124D01*
X196998856Y-107385888D01*
X196996000Y-107332547D01*
X196996000Y-107315010D01*
X197130431Y-107315010D01*
X197134031Y-107374442D01*
X197142448Y-107407627D01*
X197157629Y-107433815D01*
X197178840Y-107454668D01*
X197207387Y-107470253D01*
X197255776Y-107485003D01*
X197312496Y-107493639D01*
X197394262Y-107497020D01*
X197478748Y-107493510D01*
X197534897Y-107484710D01*
X197582440Y-107468282D01*
X197615937Y-107446462D01*
X197640485Y-107417612D01*
X197654771Y-107383349D01*
X197659646Y-107349025D01*
X197661903Y-107275687D01*
X197661903Y-107215554D01*
X197130431Y-107215554D01*
X197130431Y-107315010D01*
X196996000Y-107315010D01*
X196996000Y-107083321D01*
X197796334Y-107083321D01*
X197796334Y-107325415D01*
G37*
G36*
X209110127Y-94189650D02*
G01*
X208975695Y-94189650D01*
X208975695Y-93903837D01*
X209293113Y-93903837D01*
X209323884Y-93934998D01*
X209352922Y-93975281D01*
X209380113Y-94026251D01*
X209400590Y-94079992D01*
X209412564Y-94132832D01*
X209416505Y-94185302D01*
X209411010Y-94248730D01*
X209395059Y-94305511D01*
X209368877Y-94356907D01*
X209332926Y-94401935D01*
X209285966Y-94441146D01*
X209226240Y-94474681D01*
X209161516Y-94498164D01*
X209087543Y-94512923D01*
X209002757Y-94518108D01*
X208915761Y-94512794D01*
X208841261Y-94497795D01*
X208777370Y-94474144D01*
X208718249Y-94440558D01*
X208672247Y-94402503D01*
X208637468Y-94359936D01*
X208612199Y-94311210D01*
X208596601Y-94255688D01*
X208591159Y-94191848D01*
X208595296Y-94133186D01*
X208606991Y-94083150D01*
X208625540Y-94040326D01*
X208650755Y-94003586D01*
X208682637Y-93972453D01*
X208721599Y-93946840D01*
X208768767Y-93926735D01*
X208825632Y-93912581D01*
X208856896Y-94043739D01*
X208817253Y-94056943D01*
X208786020Y-94075047D01*
X208761739Y-94097863D01*
X208743482Y-94125604D01*
X208732497Y-94156614D01*
X208728717Y-94191848D01*
X208732939Y-94232735D01*
X208745164Y-94268563D01*
X208765369Y-94300427D01*
X208794369Y-94329015D01*
X208827982Y-94350258D01*
X208871047Y-94366670D01*
X208925715Y-94377504D01*
X208994551Y-94381478D01*
X209068175Y-94377248D01*
X209127773Y-94365616D01*
X209175747Y-94347831D01*
X209214125Y-94324619D01*
X209242698Y-94297909D01*
X209262632Y-94267614D01*
X209274742Y-94233012D01*
X209278947Y-94192923D01*
X209274586Y-94154193D01*
X209260775Y-94112323D01*
X209239234Y-94072750D01*
X209211096Y-94037731D01*
X209110127Y-94037731D01*
X209110127Y-94189650D01*
G37*
G36*
X209191411Y-93807019D02*
G01*
X209175779Y-93681332D01*
X209210726Y-93675132D01*
X209238537Y-93664237D01*
X209260580Y-93649092D01*
X209278366Y-93629363D01*
X209288245Y-93609545D01*
X209291452Y-93588959D01*
X209287452Y-93564929D01*
X209275301Y-93543013D01*
X209253497Y-93522330D01*
X209226591Y-93507933D01*
X209188818Y-93498152D01*
X209136798Y-93494437D01*
X209087760Y-93498103D01*
X209052202Y-93507763D01*
X209026889Y-93522037D01*
X209006858Y-93542487D01*
X208995265Y-93565564D01*
X208991327Y-93592281D01*
X208994698Y-93617428D01*
X209004970Y-93641610D01*
X209023065Y-93665515D01*
X209050727Y-93689538D01*
X209035095Y-93791729D01*
X208613043Y-93727249D01*
X208613043Y-93394395D01*
X208756854Y-93394395D01*
X208756854Y-93631604D01*
X208893874Y-93651827D01*
X208878198Y-93622471D01*
X208869207Y-93593853D01*
X208866274Y-93565463D01*
X208870114Y-93528075D01*
X208881383Y-93494171D01*
X208900242Y-93462918D01*
X208927531Y-93433767D01*
X208968299Y-93404693D01*
X209015412Y-93383446D01*
X209070051Y-93370123D01*
X209133720Y-93365428D01*
X209185662Y-93369099D01*
X209234991Y-93379969D01*
X209282250Y-93398050D01*
X209327893Y-93423655D01*
X209367051Y-93456287D01*
X209394229Y-93494108D01*
X209410743Y-93538105D01*
X209416505Y-93590034D01*
X209412701Y-93632755D01*
X209401674Y-93670803D01*
X209383575Y-93705081D01*
X209357984Y-93736237D01*
X209327213Y-93761636D01*
X209289984Y-93782061D01*
X209245184Y-93797371D01*
X209191411Y-93807019D01*
G37*
G36*
X209110127Y-104369650D02*
G01*
X208975695Y-104369650D01*
X208975695Y-104083837D01*
X209293113Y-104083837D01*
X209323884Y-104114998D01*
X209352922Y-104155281D01*
X209380113Y-104206251D01*
X209400590Y-104259992D01*
X209412564Y-104312832D01*
X209416505Y-104365302D01*
X209411010Y-104428730D01*
X209395059Y-104485511D01*
X209368877Y-104536907D01*
X209332926Y-104581935D01*
X209285966Y-104621146D01*
X209226240Y-104654681D01*
X209161516Y-104678164D01*
X209087543Y-104692923D01*
X209002757Y-104698108D01*
X208915761Y-104692794D01*
X208841261Y-104677795D01*
X208777370Y-104654144D01*
X208718249Y-104620558D01*
X208672247Y-104582503D01*
X208637468Y-104539936D01*
X208612199Y-104491210D01*
X208596601Y-104435688D01*
X208591159Y-104371848D01*
X208595296Y-104313186D01*
X208606991Y-104263150D01*
X208625540Y-104220326D01*
X208650755Y-104183586D01*
X208682637Y-104152453D01*
X208721599Y-104126840D01*
X208768767Y-104106735D01*
X208825632Y-104092581D01*
X208856896Y-104223739D01*
X208817253Y-104236943D01*
X208786020Y-104255047D01*
X208761739Y-104277863D01*
X208743482Y-104305604D01*
X208732497Y-104336614D01*
X208728717Y-104371848D01*
X208732939Y-104412735D01*
X208745164Y-104448563D01*
X208765369Y-104480427D01*
X208794369Y-104509015D01*
X208827982Y-104530258D01*
X208871047Y-104546670D01*
X208925715Y-104557504D01*
X208994551Y-104561478D01*
X209068175Y-104557248D01*
X209127773Y-104545616D01*
X209175747Y-104527831D01*
X209214125Y-104504619D01*
X209242698Y-104477909D01*
X209262632Y-104447614D01*
X209274742Y-104413012D01*
X209278947Y-104372923D01*
X209274586Y-104334193D01*
X209260775Y-104292323D01*
X209239234Y-104252750D01*
X209211096Y-104217731D01*
X209110127Y-104217731D01*
X209110127Y-104369650D01*
G37*
G36*
X209404000Y-103666768D02*
G01*
X209404000Y-103792455D01*
X208822506Y-103792455D01*
X208870864Y-103842490D01*
X208909183Y-103896618D01*
X208938180Y-103955316D01*
X208800622Y-103955316D01*
X208784067Y-103921878D01*
X208759480Y-103885789D01*
X208725395Y-103846579D01*
X208686967Y-103812521D01*
X208645507Y-103786658D01*
X208600538Y-103768422D01*
X208600538Y-103666768D01*
X209404000Y-103666768D01*
G37*
D13*
G36*
X209130127Y-91629650D02*
G01*
X208995695Y-91629650D01*
X208995695Y-91343837D01*
X209313113Y-91343837D01*
X209343884Y-91374998D01*
X209372922Y-91415281D01*
X209400113Y-91466251D01*
X209420590Y-91519992D01*
X209432564Y-91572832D01*
X209436505Y-91625302D01*
X209431010Y-91688730D01*
X209415059Y-91745511D01*
X209388877Y-91796907D01*
X209352926Y-91841935D01*
X209305966Y-91881146D01*
X209246240Y-91914681D01*
X209181516Y-91938164D01*
X209107543Y-91952923D01*
X209022757Y-91958108D01*
X208935761Y-91952794D01*
X208861261Y-91937795D01*
X208797370Y-91914144D01*
X208738249Y-91880558D01*
X208692247Y-91842503D01*
X208657468Y-91799936D01*
X208632199Y-91751210D01*
X208616601Y-91695688D01*
X208611159Y-91631848D01*
X208615296Y-91573186D01*
X208626991Y-91523150D01*
X208645540Y-91480326D01*
X208670755Y-91443586D01*
X208702637Y-91412453D01*
X208741599Y-91386840D01*
X208788767Y-91366735D01*
X208845632Y-91352581D01*
X208876896Y-91483739D01*
X208837253Y-91496943D01*
X208806020Y-91515047D01*
X208781739Y-91537863D01*
X208763482Y-91565604D01*
X208752497Y-91596614D01*
X208748717Y-91631848D01*
X208752939Y-91672735D01*
X208765164Y-91708563D01*
X208785369Y-91740427D01*
X208814369Y-91769015D01*
X208847982Y-91790258D01*
X208891047Y-91806670D01*
X208945715Y-91817504D01*
X209014551Y-91821478D01*
X209088175Y-91817248D01*
X209147773Y-91805616D01*
X209195747Y-91787831D01*
X209234125Y-91764619D01*
X209262698Y-91737909D01*
X209282632Y-91707614D01*
X209294742Y-91673012D01*
X209298947Y-91632923D01*
X209294586Y-91594193D01*
X209280775Y-91552323D01*
X209259234Y-91512750D01*
X209231096Y-91477731D01*
X209130127Y-91477731D01*
X209130127Y-91629650D01*
G37*
G36*
X209230034Y-90814127D02*
G01*
X209283066Y-90826178D01*
X209327488Y-90845081D01*
X209364697Y-90870494D01*
X209396683Y-90903341D01*
X209418775Y-90938836D01*
X209431992Y-90977633D01*
X209436505Y-91020752D01*
X209430826Y-91067217D01*
X209414047Y-91109135D01*
X209385474Y-91147803D01*
X209343057Y-91183907D01*
X209296125Y-91209188D01*
X209231971Y-91229538D01*
X209146065Y-91243421D01*
X209033162Y-91248631D01*
X208939314Y-91245130D01*
X208863382Y-91235561D01*
X208802620Y-91221153D01*
X208754552Y-91202882D01*
X208717014Y-91181415D01*
X208680987Y-91151733D01*
X208654241Y-91120044D01*
X208635584Y-91086068D01*
X208624367Y-91049236D01*
X208620538Y-91008736D01*
X208626176Y-90962320D01*
X208642590Y-90921927D01*
X208670168Y-90886077D01*
X208706274Y-90858299D01*
X208755277Y-90836731D01*
X208820622Y-90822378D01*
X208836254Y-90944256D01*
X208792446Y-90953449D01*
X208765678Y-90968675D01*
X208750743Y-90988969D01*
X208745591Y-91015868D01*
X208750265Y-91040779D01*
X208764575Y-91063127D01*
X208790824Y-91083914D01*
X208823164Y-91097451D01*
X208880232Y-91109519D01*
X208972834Y-91118059D01*
X208942512Y-91092511D01*
X208921983Y-91065595D01*
X208909313Y-91035289D01*
X208907463Y-91020752D01*
X209017579Y-91020752D01*
X209021249Y-91043140D01*
X209032324Y-91063282D01*
X209052066Y-91082009D01*
X209076426Y-91095054D01*
X209109823Y-91103819D01*
X209154942Y-91107117D01*
X209205087Y-91103466D01*
X209242962Y-91093680D01*
X209271250Y-91078980D01*
X209294717Y-91058011D01*
X209307391Y-91036888D01*
X209311452Y-91014744D01*
X209307877Y-90993107D01*
X209297150Y-90973992D01*
X209278089Y-90956565D01*
X209254442Y-90944791D01*
X209219269Y-90936526D01*
X209168619Y-90933314D01*
X209116266Y-90936742D01*
X209079229Y-90945640D01*
X209053727Y-90958471D01*
X209033021Y-90977314D01*
X209021427Y-90997782D01*
X209017579Y-91020752D01*
X208907463Y-91020752D01*
X208905032Y-91001653D01*
X208909315Y-90965119D01*
X208922106Y-90931059D01*
X208944029Y-90898602D01*
X208976595Y-90867221D01*
X209013543Y-90843024D01*
X209056730Y-90825142D01*
X209107301Y-90813831D01*
X209166665Y-90809824D01*
X209230034Y-90814127D01*
G37*
G36*
X209130127Y-101809650D02*
G01*
X208995695Y-101809650D01*
X208995695Y-101523837D01*
X209313113Y-101523837D01*
X209343884Y-101554998D01*
X209372922Y-101595281D01*
X209400113Y-101646251D01*
X209420590Y-101699992D01*
X209432564Y-101752832D01*
X209436505Y-101805302D01*
X209431010Y-101868730D01*
X209415059Y-101925511D01*
X209388877Y-101976907D01*
X209352926Y-102021935D01*
X209305966Y-102061146D01*
X209246240Y-102094681D01*
X209181516Y-102118164D01*
X209107543Y-102132923D01*
X209022757Y-102138108D01*
X208935761Y-102132794D01*
X208861261Y-102117795D01*
X208797370Y-102094144D01*
X208738249Y-102060558D01*
X208692247Y-102022503D01*
X208657468Y-101979936D01*
X208632199Y-101931210D01*
X208616601Y-101875688D01*
X208611159Y-101811848D01*
X208615296Y-101753186D01*
X208626991Y-101703150D01*
X208645540Y-101660326D01*
X208670755Y-101623586D01*
X208702637Y-101592453D01*
X208741599Y-101566840D01*
X208788767Y-101546735D01*
X208845632Y-101532581D01*
X208876896Y-101663739D01*
X208837253Y-101676943D01*
X208806020Y-101695047D01*
X208781739Y-101717863D01*
X208763482Y-101745604D01*
X208752497Y-101776614D01*
X208748717Y-101811848D01*
X208752939Y-101852735D01*
X208765164Y-101888563D01*
X208785369Y-101920427D01*
X208814369Y-101949015D01*
X208847982Y-101970258D01*
X208891047Y-101986670D01*
X208945715Y-101997504D01*
X209014551Y-102001478D01*
X209088175Y-101997248D01*
X209147773Y-101985616D01*
X209195747Y-101967831D01*
X209234125Y-101944619D01*
X209262698Y-101917909D01*
X209282632Y-101887614D01*
X209294742Y-101853012D01*
X209298947Y-101812923D01*
X209294586Y-101774193D01*
X209280775Y-101732323D01*
X209259234Y-101692750D01*
X209231096Y-101657731D01*
X209130127Y-101657731D01*
X209130127Y-101809650D01*
G37*
G36*
X209280189Y-101003502D02*
G01*
X209424000Y-101003502D01*
X209424000Y-101445044D01*
X209370820Y-101437063D01*
X209319575Y-101422627D01*
X209269882Y-101401618D01*
X209222640Y-101374126D01*
X209159889Y-101328818D01*
X209077956Y-101260348D01*
X208989751Y-101186301D01*
X208949826Y-101158157D01*
X208916449Y-101142045D01*
X208883951Y-101132760D01*
X208851836Y-101129727D01*
X208817490Y-101132735D01*
X208791670Y-101140841D01*
X208772408Y-101153223D01*
X208757574Y-101170424D01*
X208748685Y-101190685D01*
X208745591Y-101214967D01*
X208750141Y-101244068D01*
X208763125Y-101266790D01*
X208785321Y-101284753D01*
X208819646Y-101298031D01*
X208870643Y-101305142D01*
X208855011Y-101430292D01*
X208793833Y-101420686D01*
X208745233Y-101405630D01*
X208706992Y-101386012D01*
X208677300Y-101362246D01*
X208652916Y-101332316D01*
X208635323Y-101297880D01*
X208624380Y-101258066D01*
X208620538Y-101211695D01*
X208625171Y-101160908D01*
X208638169Y-101119128D01*
X208658870Y-101084557D01*
X208687558Y-101055965D01*
X208734439Y-101026795D01*
X208785206Y-101009414D01*
X208841138Y-101003502D01*
X208889557Y-101006867D01*
X208936198Y-101016886D01*
X208981637Y-101033577D01*
X209028815Y-101058164D01*
X209077468Y-101091912D01*
X209147810Y-101151025D01*
X209237691Y-101227815D01*
X209280189Y-101253753D01*
X209280189Y-101003502D01*
G37*
G36*
X209140127Y-89129650D02*
G01*
X209005695Y-89129650D01*
X209005695Y-88843837D01*
X209323113Y-88843837D01*
X209353884Y-88874998D01*
X209382922Y-88915281D01*
X209410113Y-88966251D01*
X209430590Y-89019992D01*
X209442564Y-89072832D01*
X209446505Y-89125302D01*
X209441010Y-89188730D01*
X209425059Y-89245511D01*
X209398877Y-89296907D01*
X209362926Y-89341935D01*
X209315966Y-89381146D01*
X209256240Y-89414681D01*
X209191516Y-89438164D01*
X209117543Y-89452923D01*
X209032757Y-89458108D01*
X208945761Y-89452794D01*
X208871261Y-89437795D01*
X208807370Y-89414144D01*
X208748249Y-89380558D01*
X208702247Y-89342503D01*
X208667468Y-89299936D01*
X208642199Y-89251210D01*
X208626601Y-89195688D01*
X208621159Y-89131848D01*
X208625296Y-89073186D01*
X208636991Y-89023150D01*
X208655540Y-88980326D01*
X208680755Y-88943586D01*
X208712637Y-88912453D01*
X208751599Y-88886840D01*
X208798767Y-88866735D01*
X208855632Y-88852581D01*
X208886896Y-88983739D01*
X208847253Y-88996943D01*
X208816020Y-89015047D01*
X208791739Y-89037863D01*
X208773482Y-89065604D01*
X208762497Y-89096614D01*
X208758717Y-89131848D01*
X208762939Y-89172735D01*
X208775164Y-89208563D01*
X208795369Y-89240427D01*
X208824369Y-89269015D01*
X208857982Y-89290258D01*
X208901047Y-89306670D01*
X208955715Y-89317504D01*
X209024551Y-89321478D01*
X209098175Y-89317248D01*
X209157773Y-89305616D01*
X209205747Y-89287831D01*
X209244125Y-89264619D01*
X209272698Y-89237909D01*
X209292632Y-89207614D01*
X209304742Y-89173012D01*
X209308947Y-89132923D01*
X209304586Y-89094193D01*
X209290775Y-89052323D01*
X209269234Y-89012750D01*
X209241096Y-88977731D01*
X209140127Y-88977731D01*
X209140127Y-89129650D01*
G37*
G36*
X208786854Y-88749217D02*
G01*
X208643043Y-88749217D01*
X208643043Y-88318568D01*
X208754614Y-88318568D01*
X208799049Y-88351285D01*
X208858667Y-88387019D01*
X208936526Y-88425986D01*
X209016202Y-88459207D01*
X209100325Y-88487293D01*
X209189219Y-88510152D01*
X209279737Y-88527208D01*
X209361030Y-88536851D01*
X209434000Y-88539901D01*
X209434000Y-88661192D01*
X209321160Y-88653030D01*
X209207901Y-88634191D01*
X209093769Y-88604381D01*
X208982663Y-88564717D01*
X208880601Y-88517484D01*
X208786854Y-88462818D01*
X208786854Y-88749217D01*
G37*
D12*
G36*
X209140127Y-96709650D02*
G01*
X209005695Y-96709650D01*
X209005695Y-96423837D01*
X209323113Y-96423837D01*
X209353884Y-96454998D01*
X209382922Y-96495281D01*
X209410113Y-96546251D01*
X209430590Y-96599992D01*
X209442564Y-96652832D01*
X209446505Y-96705302D01*
X209441010Y-96768730D01*
X209425059Y-96825511D01*
X209398877Y-96876907D01*
X209362926Y-96921935D01*
X209315966Y-96961146D01*
X209256240Y-96994681D01*
X209191516Y-97018164D01*
X209117543Y-97032923D01*
X209032757Y-97038108D01*
X208945761Y-97032794D01*
X208871261Y-97017795D01*
X208807370Y-96994144D01*
X208748249Y-96960558D01*
X208702247Y-96922503D01*
X208667468Y-96879936D01*
X208642199Y-96831210D01*
X208626601Y-96775688D01*
X208621159Y-96711848D01*
X208625296Y-96653186D01*
X208636991Y-96603150D01*
X208655540Y-96560326D01*
X208680755Y-96523586D01*
X208712637Y-96492453D01*
X208751599Y-96466840D01*
X208798767Y-96446735D01*
X208855632Y-96432581D01*
X208886896Y-96563739D01*
X208847253Y-96576943D01*
X208816020Y-96595047D01*
X208791739Y-96617863D01*
X208773482Y-96645604D01*
X208762497Y-96676614D01*
X208758717Y-96711848D01*
X208762939Y-96752735D01*
X208775164Y-96788563D01*
X208795369Y-96820427D01*
X208824369Y-96849015D01*
X208857982Y-96870258D01*
X208901047Y-96886670D01*
X208955715Y-96897504D01*
X209024551Y-96901478D01*
X209098175Y-96897248D01*
X209157773Y-96885616D01*
X209205747Y-96867831D01*
X209244125Y-96844619D01*
X209272698Y-96817909D01*
X209292632Y-96787614D01*
X209304742Y-96753012D01*
X209308947Y-96712923D01*
X209304586Y-96674193D01*
X209290775Y-96632323D01*
X209269234Y-96592750D01*
X209241096Y-96557731D01*
X209140127Y-96557731D01*
X209140127Y-96709650D01*
G37*
G36*
X209271431Y-95960313D02*
G01*
X209434000Y-95960313D01*
X209434000Y-96082190D01*
X209271431Y-96082190D01*
X209271431Y-96351053D01*
X209137538Y-96351053D01*
X208658806Y-96082190D01*
X208864181Y-96082190D01*
X209137000Y-96233034D01*
X209137000Y-96082190D01*
X208864181Y-96082190D01*
X208658806Y-96082190D01*
X208630538Y-96066314D01*
X208630538Y-95960313D01*
X209137000Y-95960313D01*
X209137000Y-95878882D01*
X209271431Y-95878882D01*
X209271431Y-95960313D01*
G37*
G36*
X209140127Y-99249650D02*
G01*
X209005695Y-99249650D01*
X209005695Y-98963837D01*
X209323113Y-98963837D01*
X209353884Y-98994998D01*
X209382922Y-99035281D01*
X209410113Y-99086251D01*
X209430590Y-99139992D01*
X209442564Y-99192832D01*
X209446505Y-99245302D01*
X209441010Y-99308730D01*
X209425059Y-99365511D01*
X209398877Y-99416907D01*
X209362926Y-99461935D01*
X209315966Y-99501146D01*
X209256240Y-99534681D01*
X209191516Y-99558164D01*
X209117543Y-99572923D01*
X209032757Y-99578108D01*
X208945761Y-99572794D01*
X208871261Y-99557795D01*
X208807370Y-99534144D01*
X208748249Y-99500558D01*
X208702247Y-99462503D01*
X208667468Y-99419936D01*
X208642199Y-99371210D01*
X208626601Y-99315688D01*
X208621159Y-99251848D01*
X208625296Y-99193186D01*
X208636991Y-99143150D01*
X208655540Y-99100326D01*
X208680755Y-99063586D01*
X208712637Y-99032453D01*
X208751599Y-99006840D01*
X208798767Y-98986735D01*
X208855632Y-98972581D01*
X208886896Y-99103739D01*
X208847253Y-99116943D01*
X208816020Y-99135047D01*
X208791739Y-99157863D01*
X208773482Y-99185604D01*
X208762497Y-99216614D01*
X208758717Y-99251848D01*
X208762939Y-99292735D01*
X208775164Y-99328563D01*
X208795369Y-99360427D01*
X208824369Y-99389015D01*
X208857982Y-99410258D01*
X208901047Y-99426670D01*
X208955715Y-99437504D01*
X209024551Y-99441478D01*
X209098175Y-99437248D01*
X209157773Y-99425616D01*
X209205747Y-99407831D01*
X209244125Y-99384619D01*
X209272698Y-99357909D01*
X209292632Y-99327614D01*
X209304742Y-99293012D01*
X209308947Y-99252923D01*
X209304586Y-99214193D01*
X209290775Y-99172323D01*
X209269234Y-99132750D01*
X209241096Y-99097731D01*
X209140127Y-99097731D01*
X209140127Y-99249650D01*
G37*
G36*
X209221411Y-98873565D02*
G01*
X209205779Y-98751688D01*
X209242370Y-98745498D01*
X209270444Y-98734904D01*
X209291752Y-98720522D01*
X209308592Y-98701497D01*
X209318233Y-98681155D01*
X209321452Y-98658778D01*
X209317628Y-98634632D01*
X209306159Y-98613075D01*
X209285891Y-98593223D01*
X209260772Y-98579027D01*
X209228543Y-98569822D01*
X209187314Y-98566454D01*
X209149026Y-98569670D01*
X209118956Y-98578487D01*
X209095381Y-98592148D01*
X209076332Y-98611136D01*
X209065556Y-98631624D01*
X209061969Y-98654430D01*
X209064557Y-98679381D01*
X209073448Y-98711827D01*
X208949422Y-98698150D01*
X208946710Y-98666803D01*
X208937749Y-98641591D01*
X208922897Y-98621115D01*
X208902847Y-98606085D01*
X208877416Y-98596634D01*
X208845032Y-98593223D01*
X208817744Y-98595730D01*
X208796260Y-98602635D01*
X208779331Y-98613446D01*
X208766098Y-98628271D01*
X208758281Y-98645328D01*
X208755591Y-98665372D01*
X208758499Y-98685319D01*
X208767213Y-98703419D01*
X208782457Y-98720327D01*
X208801664Y-98732951D01*
X208827536Y-98742351D01*
X208861885Y-98747877D01*
X208836875Y-98864284D01*
X208782214Y-98851890D01*
X208739035Y-98835643D01*
X208705364Y-98816182D01*
X208679582Y-98793795D01*
X208652615Y-98756304D01*
X208636245Y-98712783D01*
X208630538Y-98661513D01*
X208634762Y-98617890D01*
X208646868Y-98580376D01*
X208666604Y-98547740D01*
X208694530Y-98519168D01*
X208739417Y-98489499D01*
X208786257Y-98472196D01*
X208836191Y-98466412D01*
X208870532Y-98469139D01*
X208901890Y-98477100D01*
X208930810Y-98490201D01*
X208969547Y-98519185D01*
X209004621Y-98561520D01*
X209018211Y-98527200D01*
X209039488Y-98497466D01*
X209069296Y-98471639D01*
X209104184Y-98452838D01*
X209145369Y-98441071D01*
X209194300Y-98436907D01*
X209248158Y-98441253D01*
X209295524Y-98453747D01*
X209337532Y-98474002D01*
X209375039Y-98502218D01*
X209406964Y-98537311D01*
X209428968Y-98574465D01*
X209442064Y-98614291D01*
X209446505Y-98657703D01*
X209442636Y-98699741D01*
X209431359Y-98737589D01*
X209412721Y-98772108D01*
X209386177Y-98803907D01*
X209354402Y-98829923D01*
X209317009Y-98850293D01*
X209273077Y-98864989D01*
X209221411Y-98873565D01*
G37*
G36*
X209434000Y-106777899D02*
G01*
X209260441Y-106874033D01*
X209175322Y-106922720D01*
X209142080Y-106944570D01*
X209120981Y-106964433D01*
X209108668Y-106983893D01*
X209102227Y-107007900D01*
X209099484Y-107050572D01*
X209099484Y-107077927D01*
X209434000Y-107077927D01*
X209434000Y-107210160D01*
X208633665Y-107210160D01*
X208633665Y-106974075D01*
X208768096Y-106974075D01*
X208768096Y-107077927D01*
X208971306Y-107077927D01*
X208971306Y-106979546D01*
X208968678Y-106897398D01*
X208963392Y-106864800D01*
X208951644Y-106842759D01*
X208931445Y-106824891D01*
X208904833Y-106813730D01*
X208867503Y-106809553D01*
X208831754Y-106813711D01*
X208806051Y-106824891D01*
X208786453Y-106842929D01*
X208774104Y-106866412D01*
X208770192Y-106893430D01*
X208768096Y-106974075D01*
X208633665Y-106974075D01*
X208633665Y-106930893D01*
X208636737Y-106858740D01*
X208644518Y-106809701D01*
X208655207Y-106777899D01*
X208672509Y-106749841D01*
X208697025Y-106724774D01*
X208729945Y-106702477D01*
X208766472Y-106686496D01*
X208808559Y-106676490D01*
X208857293Y-106672972D01*
X208918336Y-106678468D01*
X208967925Y-106693799D01*
X209008382Y-106718059D01*
X209041246Y-106751568D01*
X209065226Y-106793646D01*
X209080336Y-106846189D01*
X209112973Y-106806648D01*
X209147356Y-106775701D01*
X209191587Y-106746592D01*
X209277684Y-106699692D01*
X209434000Y-106619923D01*
X209434000Y-106777899D01*
G37*
G36*
X209434000Y-106614061D02*
G01*
X209017468Y-106387061D01*
X208633665Y-106593300D01*
X208633665Y-106438059D01*
X208872827Y-106308073D01*
X208633665Y-106177403D01*
X208633665Y-106023824D01*
X209016393Y-106230013D01*
X209434000Y-106003063D01*
X209434000Y-106163188D01*
X209162841Y-106308904D01*
X209434000Y-106455010D01*
X209434000Y-106614061D01*
G37*
D13*
G36*
X209444000Y-109581394D02*
G01*
X208778096Y-109581394D01*
X208778096Y-109776496D01*
X208643665Y-109776496D01*
X208643665Y-109254597D01*
X208778096Y-109254597D01*
X208778096Y-109449161D01*
X209444000Y-109449161D01*
X209444000Y-109581394D01*
G37*
G36*
X209444000Y-109235253D02*
G01*
X209027468Y-109008254D01*
X208643665Y-109214493D01*
X208643665Y-109059252D01*
X208882827Y-108929266D01*
X208643665Y-108798596D01*
X208643665Y-108645016D01*
X209026393Y-108851206D01*
X209444000Y-108624255D01*
X209444000Y-108784381D01*
X209172841Y-108930096D01*
X209444000Y-109076202D01*
X209444000Y-109235253D01*
G37*
D10*
X194200000Y-87720000D02*
X194200000Y-110460000D01*
X194200000Y-87720000D02*
X194700000Y-87220000D01*
X194200000Y-110460000D02*
X194700000Y-110960000D01*
X194700000Y-87220000D02*
X211700000Y-87220000D01*
X194700000Y-110960000D02*
X200380000Y-110960000D01*
X205980000Y-110960000D02*
X211700000Y-110960000D01*
X211700000Y-87220000D02*
X212200000Y-87720000D01*
X212200000Y-87720000D02*
X212200000Y-110460000D01*
X212200000Y-110460000D02*
X211700000Y-110960000D01*
X200380000Y-107620000D02*
X205990000Y-107620000D01*
X205990000Y-112070000D01*
X200380000Y-112070000D01*
X200380000Y-107620000D01*
M02*
