G04 #@! TF.GenerationSoftware,KiCad,Pcbnew,10.0.4*
G04 #@! TF.ProjectId,Speakeasy_panel_2x3,53706561-6b65-4617-9379-5f70616e656c,rev?*
G04 #@! TF.SameCoordinates,Original*
G04 #@! TF.FileFunction,Soldermask,Bot*
G04 #@! TF.FilePolarity,Negative*
%FSLAX46Y46*%
G04 Gerber Fmt 4.6, Leading zero omitted, Abs format (unit mm)*
%MOMM*%
%LPD*%
G01*
G04 APERTURE LIST*
%ADD10C,0.500000*%
%ADD11C,0.800000*%
%ADD12C,6.400000*%
%ADD13R,1.500000X1.500000*%
%ADD14C,1.500000*%
%ADD15C,2.000000*%
%ADD16O,1.851600X3.101600*%
G04 APERTURE END LIST*
D10*
X170400000Y-74000000D03*
D11*
X108600000Y-78400000D03*
X109302944Y-76702944D03*
X109302944Y-80097056D03*
X111000000Y-76000000D03*
D12*
X111000000Y-78400000D03*
D11*
X111000000Y-80800000D03*
X112697056Y-76702944D03*
X112697056Y-80097056D03*
X113400000Y-78400000D03*
D13*
X134620000Y-108139000D03*
D14*
X134620000Y-105599000D03*
X134620000Y-103059000D03*
X134620000Y-100519000D03*
X134620000Y-97979000D03*
X134620000Y-95439000D03*
X134620000Y-92899000D03*
X134620000Y-90359000D03*
X134620000Y-87819000D03*
X119390000Y-87819000D03*
X119390000Y-90359000D03*
X119390000Y-92899000D03*
X119390000Y-95439000D03*
X119390000Y-97979000D03*
X119390000Y-100519000D03*
X119390000Y-103059000D03*
X119390000Y-105599000D03*
X119390000Y-108139000D03*
D10*
X147500000Y-51900000D03*
X172000000Y-117000000D03*
X126600000Y-74000000D03*
X147500000Y-94100000D03*
X126600000Y-117000000D03*
X172000000Y-158000000D03*
X149500000Y-92500000D03*
X125800000Y-31000000D03*
D11*
X183600000Y-67400000D03*
X184302944Y-65702944D03*
X184302944Y-69097056D03*
X186000000Y-65000000D03*
D12*
X186000000Y-67400000D03*
D11*
X186000000Y-69800000D03*
X187697056Y-65702944D03*
X187697056Y-69097056D03*
X188400000Y-67400000D03*
X140600000Y-121400000D03*
X141302944Y-119702944D03*
X141302944Y-123097056D03*
X143000000Y-119000000D03*
D12*
X143000000Y-121400000D03*
D11*
X143000000Y-123800000D03*
X144697056Y-119702944D03*
X144697056Y-123097056D03*
X145400000Y-121400000D03*
D10*
X126600000Y-115000000D03*
X170400000Y-158000000D03*
X129000000Y-74000000D03*
X125000000Y-158000000D03*
X149500000Y-52700000D03*
X147500000Y-95700000D03*
X125800000Y-72000000D03*
D11*
X140600000Y-110400000D03*
X141302944Y-108702944D03*
X141302944Y-112097056D03*
X143000000Y-108000000D03*
D12*
X143000000Y-110400000D03*
D11*
X143000000Y-112800000D03*
X144697056Y-108702944D03*
X144697056Y-112097056D03*
X145400000Y-110400000D03*
D10*
X127400000Y-117000000D03*
X128200000Y-117000000D03*
X129000000Y-158000000D03*
D11*
X108600000Y-121400000D03*
X109302944Y-119702944D03*
X109302944Y-123097056D03*
X111000000Y-119000000D03*
D12*
X111000000Y-121400000D03*
D11*
X111000000Y-123800000D03*
X112697056Y-119702944D03*
X112697056Y-123097056D03*
X113400000Y-121400000D03*
D10*
X149500000Y-96500000D03*
X147500000Y-135500000D03*
X149500000Y-49500000D03*
X170400000Y-115000000D03*
D15*
X188000000Y-22500000D03*
D10*
X125800000Y-74000000D03*
X147500000Y-52700000D03*
X168800000Y-74000000D03*
X129000000Y-115000000D03*
D11*
X151600000Y-153400000D03*
X152302944Y-151702944D03*
X152302944Y-155097056D03*
X154000000Y-151000000D03*
D12*
X154000000Y-153400000D03*
D11*
X154000000Y-155800000D03*
X155697056Y-151702944D03*
X155697056Y-155097056D03*
X156400000Y-153400000D03*
D10*
X147500000Y-138700000D03*
X168800000Y-31000000D03*
X168800000Y-115000000D03*
X149500000Y-50300000D03*
X171200000Y-115000000D03*
X147500000Y-51100000D03*
X149500000Y-51900000D03*
X125000000Y-31000000D03*
X168000000Y-115000000D03*
D11*
X151600000Y-67400000D03*
X152302944Y-65702944D03*
X152302944Y-69097056D03*
X154000000Y-65000000D03*
D12*
X154000000Y-67400000D03*
D11*
X154000000Y-69800000D03*
X155697056Y-65702944D03*
X155697056Y-69097056D03*
X156400000Y-67400000D03*
D10*
X126600000Y-158000000D03*
X168000000Y-72000000D03*
X171200000Y-72000000D03*
X168000000Y-74000000D03*
D13*
X134620000Y-151139000D03*
D14*
X134620000Y-148599000D03*
X134620000Y-146059000D03*
X134620000Y-143519000D03*
X134620000Y-140979000D03*
X134620000Y-138439000D03*
X134620000Y-135899000D03*
X134620000Y-133359000D03*
X134620000Y-130819000D03*
X119390000Y-130819000D03*
X119390000Y-133359000D03*
X119390000Y-135899000D03*
X119390000Y-138439000D03*
X119390000Y-140979000D03*
X119390000Y-143519000D03*
X119390000Y-146059000D03*
X119390000Y-148599000D03*
X119390000Y-151139000D03*
D10*
X168000000Y-117000000D03*
X149500000Y-139500000D03*
X147500000Y-53500000D03*
X149500000Y-93300000D03*
X147500000Y-137100000D03*
D11*
X140600000Y-35400000D03*
X141302944Y-33702944D03*
X141302944Y-37097056D03*
X143000000Y-33000000D03*
D12*
X143000000Y-35400000D03*
D11*
X143000000Y-37800000D03*
X144697056Y-33702944D03*
X144697056Y-37097056D03*
X145400000Y-35400000D03*
D10*
X125000000Y-115000000D03*
X126600000Y-72000000D03*
X125800000Y-117000000D03*
X149500000Y-94900000D03*
X147500000Y-137900000D03*
D11*
X183600000Y-121400000D03*
X184302944Y-119702944D03*
X184302944Y-123097056D03*
X186000000Y-119000000D03*
D12*
X186000000Y-121400000D03*
D11*
X186000000Y-123800000D03*
X187697056Y-119702944D03*
X187697056Y-123097056D03*
X188400000Y-121400000D03*
D10*
X171200000Y-158000000D03*
X169600000Y-72000000D03*
X129000000Y-72000000D03*
D11*
X183600000Y-78400000D03*
X184302944Y-76702944D03*
X184302944Y-80097056D03*
X186000000Y-76000000D03*
D12*
X186000000Y-78400000D03*
D11*
X186000000Y-80800000D03*
X187697056Y-76702944D03*
X187697056Y-80097056D03*
X188400000Y-78400000D03*
X183600000Y-110400000D03*
X184302944Y-108702944D03*
X184302944Y-112097056D03*
X186000000Y-108000000D03*
D12*
X186000000Y-110400000D03*
D11*
X186000000Y-112800000D03*
X187697056Y-108702944D03*
X187697056Y-112097056D03*
X188400000Y-110400000D03*
D10*
X168800000Y-72000000D03*
X149500000Y-138700000D03*
D11*
X151600000Y-35400000D03*
X152302944Y-33702944D03*
X152302944Y-37097056D03*
X154000000Y-33000000D03*
D12*
X154000000Y-35400000D03*
D11*
X154000000Y-37800000D03*
X155697056Y-33702944D03*
X155697056Y-37097056D03*
X156400000Y-35400000D03*
D10*
X128200000Y-115000000D03*
X127400000Y-158000000D03*
X127400000Y-115000000D03*
X168800000Y-117000000D03*
X147500000Y-92500000D03*
X147500000Y-96500000D03*
X125000000Y-74000000D03*
D11*
X183600000Y-153400000D03*
X184302944Y-151702944D03*
X184302944Y-155097056D03*
X186000000Y-151000000D03*
D12*
X186000000Y-153400000D03*
D11*
X186000000Y-155800000D03*
X187697056Y-151702944D03*
X187697056Y-155097056D03*
X188400000Y-153400000D03*
D10*
X147500000Y-49500000D03*
X170400000Y-117000000D03*
X149500000Y-94100000D03*
X147500000Y-93300000D03*
X149500000Y-95700000D03*
X128200000Y-31000000D03*
D11*
X183600000Y-35400000D03*
X184302944Y-33702944D03*
X184302944Y-37097056D03*
X186000000Y-33000000D03*
D12*
X186000000Y-35400000D03*
D11*
X186000000Y-37800000D03*
X187697056Y-33702944D03*
X187697056Y-37097056D03*
X188400000Y-35400000D03*
D10*
X127400000Y-74000000D03*
D11*
X108600000Y-67400000D03*
X109302944Y-65702944D03*
X109302944Y-69097056D03*
X111000000Y-65000000D03*
D12*
X111000000Y-67400000D03*
D11*
X111000000Y-69800000D03*
X112697056Y-65702944D03*
X112697056Y-69097056D03*
X113400000Y-67400000D03*
D10*
X169600000Y-74000000D03*
X129000000Y-117000000D03*
X168000000Y-31000000D03*
X147500000Y-139500000D03*
X147500000Y-50300000D03*
D11*
X108600000Y-35400000D03*
X109302944Y-33702944D03*
X109302944Y-37097056D03*
X111000000Y-33000000D03*
D12*
X111000000Y-35400000D03*
D11*
X111000000Y-37800000D03*
X112697056Y-33702944D03*
X112697056Y-37097056D03*
X113400000Y-35400000D03*
D15*
X109000000Y-166500000D03*
D13*
X177620000Y-108139000D03*
D14*
X177620000Y-105599000D03*
X177620000Y-103059000D03*
X177620000Y-100519000D03*
X177620000Y-97979000D03*
X177620000Y-95439000D03*
X177620000Y-92899000D03*
X177620000Y-90359000D03*
X177620000Y-87819000D03*
X162390000Y-87819000D03*
X162390000Y-90359000D03*
X162390000Y-92899000D03*
X162390000Y-95439000D03*
X162390000Y-97979000D03*
X162390000Y-100519000D03*
X162390000Y-103059000D03*
X162390000Y-105599000D03*
X162390000Y-108139000D03*
D10*
X172000000Y-74000000D03*
X149500000Y-137900000D03*
D13*
X177620000Y-65139000D03*
D14*
X177620000Y-62599000D03*
X177620000Y-60059000D03*
X177620000Y-57519000D03*
X177620000Y-54979000D03*
X177620000Y-52439000D03*
X177620000Y-49899000D03*
X177620000Y-47359000D03*
X177620000Y-44819000D03*
X162390000Y-44819000D03*
X162390000Y-47359000D03*
X162390000Y-49899000D03*
X162390000Y-52439000D03*
X162390000Y-54979000D03*
X162390000Y-57519000D03*
X162390000Y-60059000D03*
X162390000Y-62599000D03*
X162390000Y-65139000D03*
D10*
X127400000Y-31000000D03*
X149500000Y-53500000D03*
X170400000Y-31000000D03*
X172000000Y-72000000D03*
X149500000Y-137100000D03*
X149500000Y-135500000D03*
X125800000Y-115000000D03*
D11*
X140600000Y-78400000D03*
X141302944Y-76702944D03*
X141302944Y-80097056D03*
X143000000Y-76000000D03*
D12*
X143000000Y-78400000D03*
D11*
X143000000Y-80800000D03*
X144697056Y-76702944D03*
X144697056Y-80097056D03*
X145400000Y-78400000D03*
X108600000Y-110400000D03*
X109302944Y-108702944D03*
X109302944Y-112097056D03*
X111000000Y-108000000D03*
D12*
X111000000Y-110400000D03*
D11*
X111000000Y-112800000D03*
X112697056Y-108702944D03*
X112697056Y-112097056D03*
X113400000Y-110400000D03*
D10*
X170400000Y-72000000D03*
D11*
X151600000Y-121400000D03*
X152302944Y-119702944D03*
X152302944Y-123097056D03*
X154000000Y-119000000D03*
D12*
X154000000Y-121400000D03*
D11*
X154000000Y-123800000D03*
X155697056Y-119702944D03*
X155697056Y-123097056D03*
X156400000Y-121400000D03*
D10*
X126600000Y-31000000D03*
X127400000Y-72000000D03*
X169600000Y-158000000D03*
D11*
X108600000Y-153400000D03*
X109302944Y-151702944D03*
X109302944Y-155097056D03*
X111000000Y-151000000D03*
D12*
X111000000Y-153400000D03*
D11*
X111000000Y-155800000D03*
X112697056Y-151702944D03*
X112697056Y-155097056D03*
X113400000Y-153400000D03*
D10*
X169600000Y-117000000D03*
D11*
X151600000Y-78400000D03*
X152302944Y-76702944D03*
X152302944Y-80097056D03*
X154000000Y-76000000D03*
D12*
X154000000Y-78400000D03*
D11*
X154000000Y-80800000D03*
X155697056Y-76702944D03*
X155697056Y-80097056D03*
X156400000Y-78400000D03*
D10*
X169600000Y-115000000D03*
X171200000Y-74000000D03*
X149500000Y-51100000D03*
D15*
X109000000Y-22500000D03*
D10*
X168000000Y-158000000D03*
X147500000Y-136300000D03*
X128200000Y-158000000D03*
X125000000Y-72000000D03*
D11*
X151600000Y-110400000D03*
X152302944Y-108702944D03*
X152302944Y-112097056D03*
X154000000Y-108000000D03*
D12*
X154000000Y-110400000D03*
D11*
X154000000Y-112800000D03*
X155697056Y-108702944D03*
X155697056Y-112097056D03*
X156400000Y-110400000D03*
X140600000Y-153400000D03*
X141302944Y-151702944D03*
X141302944Y-155097056D03*
X143000000Y-151000000D03*
D12*
X143000000Y-153400000D03*
D11*
X143000000Y-155800000D03*
X144697056Y-151702944D03*
X144697056Y-155097056D03*
X145400000Y-153400000D03*
D10*
X149500000Y-136300000D03*
X125800000Y-158000000D03*
X168800000Y-158000000D03*
X125000000Y-117000000D03*
X147500000Y-94900000D03*
X172000000Y-31000000D03*
X128200000Y-74000000D03*
D13*
X134620000Y-65139000D03*
D14*
X134620000Y-62599000D03*
X134620000Y-60059000D03*
X134620000Y-57519000D03*
X134620000Y-54979000D03*
X134620000Y-52439000D03*
X134620000Y-49899000D03*
X134620000Y-47359000D03*
X134620000Y-44819000D03*
X119390000Y-44819000D03*
X119390000Y-47359000D03*
X119390000Y-49899000D03*
X119390000Y-52439000D03*
X119390000Y-54979000D03*
X119390000Y-57519000D03*
X119390000Y-60059000D03*
X119390000Y-62599000D03*
X119390000Y-65139000D03*
D10*
X171200000Y-31000000D03*
D11*
X140600000Y-67400000D03*
X141302944Y-65702944D03*
X141302944Y-69097056D03*
X143000000Y-65000000D03*
D12*
X143000000Y-67400000D03*
D11*
X143000000Y-69800000D03*
X144697056Y-65702944D03*
X144697056Y-69097056D03*
X145400000Y-67400000D03*
D10*
X169600000Y-31000000D03*
D13*
X177620000Y-151139000D03*
D14*
X177620000Y-148599000D03*
X177620000Y-146059000D03*
X177620000Y-143519000D03*
X177620000Y-140979000D03*
X177620000Y-138439000D03*
X177620000Y-135899000D03*
X177620000Y-133359000D03*
X177620000Y-130819000D03*
X162390000Y-130819000D03*
X162390000Y-133359000D03*
X162390000Y-135899000D03*
X162390000Y-138439000D03*
X162390000Y-140979000D03*
X162390000Y-143519000D03*
X162390000Y-146059000D03*
X162390000Y-148599000D03*
X162390000Y-151139000D03*
D10*
X129000000Y-31000000D03*
X128200000Y-72000000D03*
X172000000Y-115000000D03*
X171200000Y-117000000D03*
D16*
X177500000Y-41029000D03*
X174960000Y-41029000D03*
X172420000Y-41029000D03*
X169880000Y-41029000D03*
X167340000Y-41029000D03*
X164800000Y-41029000D03*
X162260000Y-41029000D03*
X134500000Y-41029000D03*
X131960000Y-41029000D03*
X129420000Y-41029000D03*
X126880000Y-41029000D03*
X124340000Y-41029000D03*
X121800000Y-41029000D03*
X119260000Y-41029000D03*
D15*
X111500000Y-165500000D03*
D16*
X177500000Y-84029000D03*
X174960000Y-84029000D03*
X172420000Y-84029000D03*
X169880000Y-84029000D03*
X167340000Y-84029000D03*
X164800000Y-84029000D03*
X162260000Y-84029000D03*
D15*
X111500000Y-23500000D03*
D16*
X177500000Y-127029000D03*
X174960000Y-127029000D03*
X172420000Y-127029000D03*
X169880000Y-127029000D03*
X167340000Y-127029000D03*
X164800000Y-127029000D03*
X162260000Y-127029000D03*
X134500000Y-127029000D03*
X131960000Y-127029000D03*
X129420000Y-127029000D03*
X126880000Y-127029000D03*
X124340000Y-127029000D03*
X121800000Y-127029000D03*
X119260000Y-127029000D03*
X134500000Y-84029000D03*
X131960000Y-84029000D03*
X129420000Y-84029000D03*
X126880000Y-84029000D03*
X124340000Y-84029000D03*
X121800000Y-84029000D03*
X119260000Y-84029000D03*
D15*
X185500000Y-23500000D03*
M02*
