M48
; FORMAT={-:-/ absolute / metric / decimal}
; #@! TF.GenerationSoftware,Kicad,Pcbnew,10.0.4
; #@! TF.FileFunction,MixedPlating,1,2
FMAT,2
METRIC
; #@! TA.AperFunction,Plated,PTH,ComponentDrill
T1C0.500
; #@! TA.AperFunction,Plated,PTH,ComponentDrill
T2C0.900
; #@! TA.AperFunction,Plated,PTH,ComponentDrill
T3C1.000
; #@! TA.AperFunction,Plated,PTH,ComponentDrill
T4C3.200
; #@! TA.AperFunction,NonPlated,NPTH,ComponentDrill
T5C0.500
; #@! TA.AperFunction,NonPlated,NPTH,ComponentDrill
T6C2.000
%
G90
G05
T1
X108.6Y-35.4
X108.6Y-67.4
X108.6Y-78.4
X108.6Y-110.4
X108.6Y-121.4
X108.6Y-153.4
X109.303Y-33.703
X109.303Y-37.097
X109.303Y-65.703
X109.303Y-69.097
X109.303Y-76.703
X109.303Y-80.097
X109.303Y-108.703
X109.303Y-112.097
X109.303Y-119.703
X109.303Y-123.097
X109.303Y-151.703
X109.303Y-155.097
X111.0Y-33.0
X111.0Y-37.8
X111.0Y-65.0
X111.0Y-69.8
X111.0Y-76.0
X111.0Y-80.8
X111.0Y-108.0
X111.0Y-112.8
X111.0Y-119.0
X111.0Y-123.8
X111.0Y-151.0
X111.0Y-155.8
X112.697Y-33.703
X112.697Y-37.097
X112.697Y-65.703
X112.697Y-69.097
X112.697Y-76.703
X112.697Y-80.097
X112.697Y-108.703
X112.697Y-112.097
X112.697Y-119.703
X112.697Y-123.097
X112.697Y-151.703
X112.697Y-155.097
X113.4Y-35.4
X113.4Y-67.4
X113.4Y-78.4
X113.4Y-110.4
X113.4Y-121.4
X113.4Y-153.4
X140.6Y-35.4
X140.6Y-67.4
X140.6Y-78.4
X140.6Y-110.4
X140.6Y-121.4
X140.6Y-153.4
X141.303Y-33.703
X141.303Y-37.097
X141.303Y-65.703
X141.303Y-69.097
X141.303Y-76.703
X141.303Y-80.097
X141.303Y-108.703
X141.303Y-112.097
X141.303Y-119.703
X141.303Y-123.097
X141.303Y-151.703
X141.303Y-155.097
X143.0Y-33.0
X143.0Y-37.8
X143.0Y-65.0
X143.0Y-69.8
X143.0Y-76.0
X143.0Y-80.8
X143.0Y-108.0
X143.0Y-112.8
X143.0Y-119.0
X143.0Y-123.8
X143.0Y-151.0
X143.0Y-155.8
X144.697Y-33.703
X144.697Y-37.097
X144.697Y-65.703
X144.697Y-69.097
X144.697Y-76.703
X144.697Y-80.097
X144.697Y-108.703
X144.697Y-112.097
X144.697Y-119.703
X144.697Y-123.097
X144.697Y-151.703
X144.697Y-155.097
X145.4Y-35.4
X145.4Y-67.4
X145.4Y-78.4
X145.4Y-110.4
X145.4Y-121.4
X145.4Y-153.4
X151.6Y-35.4
X151.6Y-67.4
X151.6Y-78.4
X151.6Y-110.4
X151.6Y-121.4
X151.6Y-153.4
X152.303Y-33.703
X152.303Y-37.097
X152.303Y-65.703
X152.303Y-69.097
X152.303Y-76.703
X152.303Y-80.097
X152.303Y-108.703
X152.303Y-112.097
X152.303Y-119.703
X152.303Y-123.097
X152.303Y-151.703
X152.303Y-155.097
X154.0Y-33.0
X154.0Y-37.8
X154.0Y-65.0
X154.0Y-69.8
X154.0Y-76.0
X154.0Y-80.8
X154.0Y-108.0
X154.0Y-112.8
X154.0Y-119.0
X154.0Y-123.8
X154.0Y-151.0
X154.0Y-155.8
X155.697Y-33.703
X155.697Y-37.097
X155.697Y-65.703
X155.697Y-69.097
X155.697Y-76.703
X155.697Y-80.097
X155.697Y-108.703
X155.697Y-112.097
X155.697Y-119.703
X155.697Y-123.097
X155.697Y-151.703
X155.697Y-155.097
X156.4Y-35.4
X156.4Y-67.4
X156.4Y-78.4
X156.4Y-110.4
X156.4Y-121.4
X156.4Y-153.4
X183.6Y-35.4
X183.6Y-67.4
X183.6Y-78.4
X183.6Y-110.4
X183.6Y-121.4
X183.6Y-153.4
X184.303Y-33.703
X184.303Y-37.097
X184.303Y-65.703
X184.303Y-69.097
X184.303Y-76.703
X184.303Y-80.097
X184.303Y-108.703
X184.303Y-112.097
X184.303Y-119.703
X184.303Y-123.097
X184.303Y-151.703
X184.303Y-155.097
X186.0Y-33.0
X186.0Y-37.8
X186.0Y-65.0
X186.0Y-69.8
X186.0Y-76.0
X186.0Y-80.8
X186.0Y-108.0
X186.0Y-112.8
X186.0Y-119.0
X186.0Y-123.8
X186.0Y-151.0
X186.0Y-155.8
X187.697Y-33.703
X187.697Y-37.097
X187.697Y-65.703
X187.697Y-69.097
X187.697Y-76.703
X187.697Y-80.097
X187.697Y-108.703
X187.697Y-112.097
X187.697Y-119.703
X187.697Y-123.097
X187.697Y-151.703
X187.697Y-155.097
X188.4Y-35.4
X188.4Y-67.4
X188.4Y-78.4
X188.4Y-110.4
X188.4Y-121.4
X188.4Y-153.4
T2
X119.39Y-44.819
X119.39Y-47.359
X119.39Y-49.899
X119.39Y-52.439
X119.39Y-54.979
X119.39Y-57.519
X119.39Y-60.059
X119.39Y-62.599
X119.39Y-65.139
X119.39Y-87.819
X119.39Y-90.359
X119.39Y-92.899
X119.39Y-95.439
X119.39Y-97.979
X119.39Y-100.519
X119.39Y-103.059
X119.39Y-105.599
X119.39Y-108.139
X119.39Y-130.819
X119.39Y-133.359
X119.39Y-135.899
X119.39Y-138.439
X119.39Y-140.979
X119.39Y-143.519
X119.39Y-146.059
X119.39Y-148.599
X119.39Y-151.139
X134.62Y-44.819
X134.62Y-47.359
X134.62Y-49.899
X134.62Y-52.439
X134.62Y-54.979
X134.62Y-57.519
X134.62Y-60.059
X134.62Y-62.599
X134.62Y-65.139
X134.62Y-87.819
X134.62Y-90.359
X134.62Y-92.899
X134.62Y-95.439
X134.62Y-97.979
X134.62Y-100.519
X134.62Y-103.059
X134.62Y-105.599
X134.62Y-108.139
X134.62Y-130.819
X134.62Y-133.359
X134.62Y-135.899
X134.62Y-138.439
X134.62Y-140.979
X134.62Y-143.519
X134.62Y-146.059
X134.62Y-148.599
X134.62Y-151.139
X162.39Y-44.819
X162.39Y-47.359
X162.39Y-49.899
X162.39Y-52.439
X162.39Y-54.979
X162.39Y-57.519
X162.39Y-60.059
X162.39Y-62.599
X162.39Y-65.139
X162.39Y-87.819
X162.39Y-90.359
X162.39Y-92.899
X162.39Y-95.439
X162.39Y-97.979
X162.39Y-100.519
X162.39Y-103.059
X162.39Y-105.599
X162.39Y-108.139
X162.39Y-130.819
X162.39Y-133.359
X162.39Y-135.899
X162.39Y-138.439
X162.39Y-140.979
X162.39Y-143.519
X162.39Y-146.059
X162.39Y-148.599
X162.39Y-151.139
X177.62Y-44.819
X177.62Y-47.359
X177.62Y-49.899
X177.62Y-52.439
X177.62Y-54.979
X177.62Y-57.519
X177.62Y-60.059
X177.62Y-62.599
X177.62Y-65.139
X177.62Y-87.819
X177.62Y-90.359
X177.62Y-92.899
X177.62Y-95.439
X177.62Y-97.979
X177.62Y-100.519
X177.62Y-103.059
X177.62Y-105.599
X177.62Y-108.139
X177.62Y-130.819
X177.62Y-133.359
X177.62Y-135.899
X177.62Y-138.439
X177.62Y-140.979
X177.62Y-143.519
X177.62Y-146.059
X177.62Y-148.599
X177.62Y-151.139
T3
X119.26Y-40.529
X119.26Y-83.529
X119.26Y-126.529
X121.8Y-40.529
X121.8Y-83.529
X121.8Y-126.529
X124.34Y-40.529
X124.34Y-83.529
X124.34Y-126.529
X126.88Y-40.529
X126.88Y-83.529
X126.88Y-126.529
X129.42Y-40.529
X129.42Y-83.529
X129.42Y-126.529
X131.96Y-40.529
X131.96Y-83.529
X131.96Y-126.529
X134.5Y-40.529
X134.5Y-83.529
X134.5Y-126.529
X162.26Y-40.529
X162.26Y-83.529
X162.26Y-126.529
X164.8Y-40.529
X164.8Y-83.529
X164.8Y-126.529
X167.34Y-40.529
X167.34Y-83.529
X167.34Y-126.529
X169.88Y-40.529
X169.88Y-83.529
X169.88Y-126.529
X172.42Y-40.529
X172.42Y-83.529
X172.42Y-126.529
X174.96Y-40.529
X174.96Y-83.529
X174.96Y-126.529
X177.5Y-40.529
X177.5Y-83.529
X177.5Y-126.529
T4
X111.0Y-35.4
X111.0Y-67.4
X111.0Y-78.4
X111.0Y-110.4
X111.0Y-121.4
X111.0Y-153.4
X143.0Y-35.4
X143.0Y-67.4
X143.0Y-78.4
X143.0Y-110.4
X143.0Y-121.4
X143.0Y-153.4
X154.0Y-35.4
X154.0Y-67.4
X154.0Y-78.4
X154.0Y-110.4
X154.0Y-121.4
X154.0Y-153.4
X186.0Y-35.4
X186.0Y-67.4
X186.0Y-78.4
X186.0Y-110.4
X186.0Y-121.4
X186.0Y-153.4
T5
X125.0Y-31.0
X125.0Y-72.0
X125.0Y-74.0
X125.0Y-115.0
X125.0Y-117.0
X125.0Y-158.0
X125.8Y-31.0
X125.8Y-72.0
X125.8Y-74.0
X125.8Y-115.0
X125.8Y-117.0
X125.8Y-158.0
X126.6Y-31.0
X126.6Y-72.0
X126.6Y-74.0
X126.6Y-115.0
X126.6Y-117.0
X126.6Y-158.0
X127.4Y-31.0
X127.4Y-72.0
X127.4Y-74.0
X127.4Y-115.0
X127.4Y-117.0
X127.4Y-158.0
X128.2Y-31.0
X128.2Y-72.0
X128.2Y-74.0
X128.2Y-115.0
X128.2Y-117.0
X128.2Y-158.0
X129.0Y-31.0
X129.0Y-72.0
X129.0Y-74.0
X129.0Y-115.0
X129.0Y-117.0
X129.0Y-158.0
X147.5Y-49.5
X147.5Y-50.3
X147.5Y-51.1
X147.5Y-51.9
X147.5Y-52.7
X147.5Y-53.5
X147.5Y-92.5
X147.5Y-93.3
X147.5Y-94.1
X147.5Y-94.9
X147.5Y-95.7
X147.5Y-96.5
X147.5Y-135.5
X147.5Y-136.3
X147.5Y-137.1
X147.5Y-137.9
X147.5Y-138.7
X147.5Y-139.5
X149.5Y-49.5
X149.5Y-50.3
X149.5Y-51.1
X149.5Y-51.9
X149.5Y-52.7
X149.5Y-53.5
X149.5Y-92.5
X149.5Y-93.3
X149.5Y-94.1
X149.5Y-94.9
X149.5Y-95.7
X149.5Y-96.5
X149.5Y-135.5
X149.5Y-136.3
X149.5Y-137.1
X149.5Y-137.9
X149.5Y-138.7
X149.5Y-139.5
X168.0Y-31.0
X168.0Y-72.0
X168.0Y-74.0
X168.0Y-115.0
X168.0Y-117.0
X168.0Y-158.0
X168.8Y-31.0
X168.8Y-72.0
X168.8Y-74.0
X168.8Y-115.0
X168.8Y-117.0
X168.8Y-158.0
X169.6Y-31.0
X169.6Y-72.0
X169.6Y-74.0
X169.6Y-115.0
X169.6Y-117.0
X169.6Y-158.0
X170.4Y-31.0
X170.4Y-72.0
X170.4Y-74.0
X170.4Y-115.0
X170.4Y-117.0
X170.4Y-158.0
X171.2Y-31.0
X171.2Y-72.0
X171.2Y-74.0
X171.2Y-115.0
X171.2Y-117.0
X171.2Y-158.0
X172.0Y-31.0
X172.0Y-72.0
X172.0Y-74.0
X172.0Y-115.0
X172.0Y-117.0
X172.0Y-158.0
T6
X109.0Y-22.5
X109.0Y-166.5
X188.0Y-22.5
M30
