G04 #@! TF.GenerationSoftware,KiCad,Pcbnew,10.0.3*
G04 #@! TF.ProjectId,Speakeasy_panel_2x3,53706561-6b65-4617-9379-5f70616e656c,rev?*
G04 #@! TF.SameCoordinates,Original*
G04 #@! TF.FileFunction,Other,User*
%FSLAX46Y46*%
G04 Gerber Fmt 4.6, Leading zero omitted, Abs format (unit mm)*
%MOMM*%
%LPD*%
G01*
G04 APERTURE LIST*
%ADD10C,0.050000*%
G04 APERTURE END LIST*
D10*
X114450000Y-78400000D02*
G75*
G02*
X107550000Y-78400000I-3450000J0D01*
G01*
X107550000Y-78400000D02*
G75*
G02*
X114450000Y-78400000I3450000J0D01*
G01*
X189450000Y-67400000D02*
G75*
G02*
X182550000Y-67400000I-3450000J0D01*
G01*
X182550000Y-67400000D02*
G75*
G02*
X189450000Y-67400000I3450000J0D01*
G01*
X146450000Y-121400000D02*
G75*
G02*
X139550000Y-121400000I-3450000J0D01*
G01*
X139550000Y-121400000D02*
G75*
G02*
X146450000Y-121400000I3450000J0D01*
G01*
X146450000Y-110400000D02*
G75*
G02*
X139550000Y-110400000I-3450000J0D01*
G01*
X139550000Y-110400000D02*
G75*
G02*
X146450000Y-110400000I3450000J0D01*
G01*
X114450000Y-121400000D02*
G75*
G02*
X107550000Y-121400000I-3450000J0D01*
G01*
X107550000Y-121400000D02*
G75*
G02*
X114450000Y-121400000I3450000J0D01*
G01*
X157450000Y-153400000D02*
G75*
G02*
X150550000Y-153400000I-3450000J0D01*
G01*
X150550000Y-153400000D02*
G75*
G02*
X157450000Y-153400000I3450000J0D01*
G01*
X112600000Y-23500000D02*
G75*
G02*
X110400000Y-23500000I-1100000J0D01*
G01*
X110400000Y-23500000D02*
G75*
G02*
X112600000Y-23500000I1100000J0D01*
G01*
X157450000Y-67400000D02*
G75*
G02*
X150550000Y-67400000I-3450000J0D01*
G01*
X150550000Y-67400000D02*
G75*
G02*
X157450000Y-67400000I3450000J0D01*
G01*
X146450000Y-35400000D02*
G75*
G02*
X139550000Y-35400000I-3450000J0D01*
G01*
X139550000Y-35400000D02*
G75*
G02*
X146450000Y-35400000I3450000J0D01*
G01*
X189450000Y-121400000D02*
G75*
G02*
X182550000Y-121400000I-3450000J0D01*
G01*
X182550000Y-121400000D02*
G75*
G02*
X189450000Y-121400000I3450000J0D01*
G01*
X189450000Y-78400000D02*
G75*
G02*
X182550000Y-78400000I-3450000J0D01*
G01*
X182550000Y-78400000D02*
G75*
G02*
X189450000Y-78400000I3450000J0D01*
G01*
X189450000Y-110400000D02*
G75*
G02*
X182550000Y-110400000I-3450000J0D01*
G01*
X182550000Y-110400000D02*
G75*
G02*
X189450000Y-110400000I3450000J0D01*
G01*
X157450000Y-35400000D02*
G75*
G02*
X150550000Y-35400000I-3450000J0D01*
G01*
X150550000Y-35400000D02*
G75*
G02*
X157450000Y-35400000I3450000J0D01*
G01*
X189450000Y-153400000D02*
G75*
G02*
X182550000Y-153400000I-3450000J0D01*
G01*
X182550000Y-153400000D02*
G75*
G02*
X189450000Y-153400000I3450000J0D01*
G01*
X186600000Y-23500000D02*
G75*
G02*
X184400000Y-23500000I-1100000J0D01*
G01*
X184400000Y-23500000D02*
G75*
G02*
X186600000Y-23500000I1100000J0D01*
G01*
X112600000Y-165500000D02*
G75*
G02*
X110400000Y-165500000I-1100000J0D01*
G01*
X110400000Y-165500000D02*
G75*
G02*
X112600000Y-165500000I1100000J0D01*
G01*
X189450000Y-35400000D02*
G75*
G02*
X182550000Y-35400000I-3450000J0D01*
G01*
X182550000Y-35400000D02*
G75*
G02*
X189450000Y-35400000I3450000J0D01*
G01*
X114450000Y-67400000D02*
G75*
G02*
X107550000Y-67400000I-3450000J0D01*
G01*
X107550000Y-67400000D02*
G75*
G02*
X114450000Y-67400000I3450000J0D01*
G01*
X114450000Y-35400000D02*
G75*
G02*
X107550000Y-35400000I-3450000J0D01*
G01*
X107550000Y-35400000D02*
G75*
G02*
X114450000Y-35400000I3450000J0D01*
G01*
X146450000Y-78400000D02*
G75*
G02*
X139550000Y-78400000I-3450000J0D01*
G01*
X139550000Y-78400000D02*
G75*
G02*
X146450000Y-78400000I3450000J0D01*
G01*
X114450000Y-110400000D02*
G75*
G02*
X107550000Y-110400000I-3450000J0D01*
G01*
X107550000Y-110400000D02*
G75*
G02*
X114450000Y-110400000I3450000J0D01*
G01*
X157450000Y-121400000D02*
G75*
G02*
X150550000Y-121400000I-3450000J0D01*
G01*
X150550000Y-121400000D02*
G75*
G02*
X157450000Y-121400000I3450000J0D01*
G01*
X114450000Y-153400000D02*
G75*
G02*
X107550000Y-153400000I-3450000J0D01*
G01*
X107550000Y-153400000D02*
G75*
G02*
X114450000Y-153400000I3450000J0D01*
G01*
X157450000Y-78400000D02*
G75*
G02*
X150550000Y-78400000I-3450000J0D01*
G01*
X150550000Y-78400000D02*
G75*
G02*
X157450000Y-78400000I3450000J0D01*
G01*
X157450000Y-110400000D02*
G75*
G02*
X150550000Y-110400000I-3450000J0D01*
G01*
X150550000Y-110400000D02*
G75*
G02*
X157450000Y-110400000I3450000J0D01*
G01*
X146450000Y-153400000D02*
G75*
G02*
X139550000Y-153400000I-3450000J0D01*
G01*
X139550000Y-153400000D02*
G75*
G02*
X146450000Y-153400000I3450000J0D01*
G01*
X146450000Y-67400000D02*
G75*
G02*
X139550000Y-67400000I-3450000J0D01*
G01*
X139550000Y-67400000D02*
G75*
G02*
X146450000Y-67400000I3450000J0D01*
G01*
M02*
