G04 #@! TF.GenerationSoftware,KiCad,Pcbnew,10.0.3*
G04 #@! TF.ProjectId,Speakeasy_panel_2x3,53706561-6b65-4617-9379-5f70616e656c,rev?*
G04 #@! TF.SameCoordinates,Original*
G04 #@! TF.FileFunction,Legend,Bot*
G04 #@! TF.FilePolarity,Positive*
%FSLAX46Y46*%
G04 Gerber Fmt 4.6, Leading zero omitted, Abs format (unit mm)*
%MOMM*%
%LPD*%
G01*
G04 APERTURE LIST*
%ADD10C,0.100000*%
%ADD11C,0.150000*%
%ADD12C,0.120000*%
G04 APERTURE END LIST*
D10*
X132000000Y-31750000D02*
X140000000Y-31750000D01*
X140000000Y-33750000D01*
X132000000Y-33750000D01*
X132000000Y-31750000D01*
G36*
X132000000Y-31750000D02*
G01*
X140000000Y-31750000D01*
X140000000Y-33750000D01*
X132000000Y-33750000D01*
X132000000Y-31750000D01*
G37*
X132000000Y-74750000D02*
X140000000Y-74750000D01*
X140000000Y-76750000D01*
X132000000Y-76750000D01*
X132000000Y-74750000D01*
G36*
X132000000Y-74750000D02*
G01*
X140000000Y-74750000D01*
X140000000Y-76750000D01*
X132000000Y-76750000D01*
X132000000Y-74750000D01*
G37*
X132000000Y-117750000D02*
X140000000Y-117750000D01*
X140000000Y-119750000D01*
X132000000Y-119750000D01*
X132000000Y-117750000D01*
G36*
X132000000Y-117750000D02*
G01*
X140000000Y-117750000D01*
X140000000Y-119750000D01*
X132000000Y-119750000D01*
X132000000Y-117750000D01*
G37*
X133750000Y-34000000D02*
X138750000Y-34000000D01*
X138750000Y-39000000D01*
X133750000Y-39000000D01*
X133750000Y-34000000D01*
G36*
X133750000Y-34000000D02*
G01*
X138750000Y-34000000D01*
X138750000Y-39000000D01*
X133750000Y-39000000D01*
X133750000Y-34000000D01*
G37*
X133750000Y-77000000D02*
X138750000Y-77000000D01*
X138750000Y-82000000D01*
X133750000Y-82000000D01*
X133750000Y-77000000D01*
G36*
X133750000Y-77000000D02*
G01*
X138750000Y-77000000D01*
X138750000Y-82000000D01*
X133750000Y-82000000D01*
X133750000Y-77000000D01*
G37*
X133750000Y-120000000D02*
X138750000Y-120000000D01*
X138750000Y-125000000D01*
X133750000Y-125000000D01*
X133750000Y-120000000D01*
G36*
X133750000Y-120000000D02*
G01*
X138750000Y-120000000D01*
X138750000Y-125000000D01*
X133750000Y-125000000D01*
X133750000Y-120000000D01*
G37*
X175000000Y-31750000D02*
X183000000Y-31750000D01*
X183000000Y-33750000D01*
X175000000Y-33750000D01*
X175000000Y-31750000D01*
G36*
X175000000Y-31750000D02*
G01*
X183000000Y-31750000D01*
X183000000Y-33750000D01*
X175000000Y-33750000D01*
X175000000Y-31750000D01*
G37*
X175000000Y-74750000D02*
X183000000Y-74750000D01*
X183000000Y-76750000D01*
X175000000Y-76750000D01*
X175000000Y-74750000D01*
G36*
X175000000Y-74750000D02*
G01*
X183000000Y-74750000D01*
X183000000Y-76750000D01*
X175000000Y-76750000D01*
X175000000Y-74750000D01*
G37*
X175000000Y-117750000D02*
X183000000Y-117750000D01*
X183000000Y-119750000D01*
X175000000Y-119750000D01*
X175000000Y-117750000D01*
G36*
X175000000Y-117750000D02*
G01*
X183000000Y-117750000D01*
X183000000Y-119750000D01*
X175000000Y-119750000D01*
X175000000Y-117750000D01*
G37*
X176750000Y-34000000D02*
X181750000Y-34000000D01*
X181750000Y-39000000D01*
X176750000Y-39000000D01*
X176750000Y-34000000D01*
G36*
X176750000Y-34000000D02*
G01*
X181750000Y-34000000D01*
X181750000Y-39000000D01*
X176750000Y-39000000D01*
X176750000Y-34000000D01*
G37*
X176750000Y-77000000D02*
X181750000Y-77000000D01*
X181750000Y-82000000D01*
X176750000Y-82000000D01*
X176750000Y-77000000D01*
G36*
X176750000Y-77000000D02*
G01*
X181750000Y-77000000D01*
X181750000Y-82000000D01*
X176750000Y-82000000D01*
X176750000Y-77000000D01*
G37*
X176750000Y-120000000D02*
X181750000Y-120000000D01*
X181750000Y-125000000D01*
X176750000Y-125000000D01*
X176750000Y-120000000D01*
G36*
X176750000Y-120000000D02*
G01*
X181750000Y-120000000D01*
X181750000Y-125000000D01*
X176750000Y-125000000D01*
X176750000Y-120000000D01*
G37*
D11*
X176702819Y-67738095D02*
X176702819Y-68309523D01*
X177702819Y-68023809D02*
X176702819Y-68023809D01*
X177702819Y-68642857D02*
X176702819Y-68642857D01*
X176702819Y-68642857D02*
X176702819Y-69023809D01*
X176702819Y-69023809D02*
X176750438Y-69119047D01*
X176750438Y-69119047D02*
X176798057Y-69166666D01*
X176798057Y-69166666D02*
X176893295Y-69214285D01*
X176893295Y-69214285D02*
X177036152Y-69214285D01*
X177036152Y-69214285D02*
X177131390Y-69166666D01*
X177131390Y-69166666D02*
X177179009Y-69119047D01*
X177179009Y-69119047D02*
X177226628Y-69023809D01*
X177226628Y-69023809D02*
X177226628Y-68642857D01*
X177702819Y-70166666D02*
X177702819Y-69595238D01*
X177702819Y-69880952D02*
X176702819Y-69880952D01*
X176702819Y-69880952D02*
X176845676Y-69785714D01*
X176845676Y-69785714D02*
X176940914Y-69690476D01*
X176940914Y-69690476D02*
X176988533Y-69595238D01*
X130152819Y-67738095D02*
X130152819Y-68309523D01*
X131152819Y-68023809D02*
X130152819Y-68023809D01*
X131152819Y-68642857D02*
X130152819Y-68642857D01*
X130152819Y-68642857D02*
X130152819Y-69023809D01*
X130152819Y-69023809D02*
X130200438Y-69119047D01*
X130200438Y-69119047D02*
X130248057Y-69166666D01*
X130248057Y-69166666D02*
X130343295Y-69214285D01*
X130343295Y-69214285D02*
X130486152Y-69214285D01*
X130486152Y-69214285D02*
X130581390Y-69166666D01*
X130581390Y-69166666D02*
X130629009Y-69119047D01*
X130629009Y-69119047D02*
X130676628Y-69023809D01*
X130676628Y-69023809D02*
X130676628Y-68642857D01*
X130248057Y-69595238D02*
X130200438Y-69642857D01*
X130200438Y-69642857D02*
X130152819Y-69738095D01*
X130152819Y-69738095D02*
X130152819Y-69976190D01*
X130152819Y-69976190D02*
X130200438Y-70071428D01*
X130200438Y-70071428D02*
X130248057Y-70119047D01*
X130248057Y-70119047D02*
X130343295Y-70166666D01*
X130343295Y-70166666D02*
X130438533Y-70166666D01*
X130438533Y-70166666D02*
X130581390Y-70119047D01*
X130581390Y-70119047D02*
X131152819Y-69547619D01*
X131152819Y-69547619D02*
X131152819Y-70166666D01*
X173152819Y-110738095D02*
X173152819Y-111309523D01*
X174152819Y-111023809D02*
X173152819Y-111023809D01*
X174152819Y-111642857D02*
X173152819Y-111642857D01*
X173152819Y-111642857D02*
X173152819Y-112023809D01*
X173152819Y-112023809D02*
X173200438Y-112119047D01*
X173200438Y-112119047D02*
X173248057Y-112166666D01*
X173248057Y-112166666D02*
X173343295Y-112214285D01*
X173343295Y-112214285D02*
X173486152Y-112214285D01*
X173486152Y-112214285D02*
X173581390Y-112166666D01*
X173581390Y-112166666D02*
X173629009Y-112119047D01*
X173629009Y-112119047D02*
X173676628Y-112023809D01*
X173676628Y-112023809D02*
X173676628Y-111642857D01*
X173248057Y-112595238D02*
X173200438Y-112642857D01*
X173200438Y-112642857D02*
X173152819Y-112738095D01*
X173152819Y-112738095D02*
X173152819Y-112976190D01*
X173152819Y-112976190D02*
X173200438Y-113071428D01*
X173200438Y-113071428D02*
X173248057Y-113119047D01*
X173248057Y-113119047D02*
X173343295Y-113166666D01*
X173343295Y-113166666D02*
X173438533Y-113166666D01*
X173438533Y-113166666D02*
X173581390Y-113119047D01*
X173581390Y-113119047D02*
X174152819Y-112547619D01*
X174152819Y-112547619D02*
X174152819Y-113166666D01*
X173152819Y-67738095D02*
X173152819Y-68309523D01*
X174152819Y-68023809D02*
X173152819Y-68023809D01*
X174152819Y-68642857D02*
X173152819Y-68642857D01*
X173152819Y-68642857D02*
X173152819Y-69023809D01*
X173152819Y-69023809D02*
X173200438Y-69119047D01*
X173200438Y-69119047D02*
X173248057Y-69166666D01*
X173248057Y-69166666D02*
X173343295Y-69214285D01*
X173343295Y-69214285D02*
X173486152Y-69214285D01*
X173486152Y-69214285D02*
X173581390Y-69166666D01*
X173581390Y-69166666D02*
X173629009Y-69119047D01*
X173629009Y-69119047D02*
X173676628Y-69023809D01*
X173676628Y-69023809D02*
X173676628Y-68642857D01*
X173248057Y-69595238D02*
X173200438Y-69642857D01*
X173200438Y-69642857D02*
X173152819Y-69738095D01*
X173152819Y-69738095D02*
X173152819Y-69976190D01*
X173152819Y-69976190D02*
X173200438Y-70071428D01*
X173200438Y-70071428D02*
X173248057Y-70119047D01*
X173248057Y-70119047D02*
X173343295Y-70166666D01*
X173343295Y-70166666D02*
X173438533Y-70166666D01*
X173438533Y-70166666D02*
X173581390Y-70119047D01*
X173581390Y-70119047D02*
X174152819Y-69547619D01*
X174152819Y-69547619D02*
X174152819Y-70166666D01*
X126602819Y-153738095D02*
X126602819Y-154309523D01*
X127602819Y-154023809D02*
X126602819Y-154023809D01*
X127602819Y-154642857D02*
X126602819Y-154642857D01*
X126602819Y-154642857D02*
X126602819Y-155023809D01*
X126602819Y-155023809D02*
X126650438Y-155119047D01*
X126650438Y-155119047D02*
X126698057Y-155166666D01*
X126698057Y-155166666D02*
X126793295Y-155214285D01*
X126793295Y-155214285D02*
X126936152Y-155214285D01*
X126936152Y-155214285D02*
X127031390Y-155166666D01*
X127031390Y-155166666D02*
X127079009Y-155119047D01*
X127079009Y-155119047D02*
X127126628Y-155023809D01*
X127126628Y-155023809D02*
X127126628Y-154642857D01*
X126602819Y-155547619D02*
X126602819Y-156166666D01*
X126602819Y-156166666D02*
X126983771Y-155833333D01*
X126983771Y-155833333D02*
X126983771Y-155976190D01*
X126983771Y-155976190D02*
X127031390Y-156071428D01*
X127031390Y-156071428D02*
X127079009Y-156119047D01*
X127079009Y-156119047D02*
X127174247Y-156166666D01*
X127174247Y-156166666D02*
X127412342Y-156166666D01*
X127412342Y-156166666D02*
X127507580Y-156119047D01*
X127507580Y-156119047D02*
X127555200Y-156071428D01*
X127555200Y-156071428D02*
X127602819Y-155976190D01*
X127602819Y-155976190D02*
X127602819Y-155690476D01*
X127602819Y-155690476D02*
X127555200Y-155595238D01*
X127555200Y-155595238D02*
X127507580Y-155547619D01*
X123052819Y-110738095D02*
X123052819Y-111309523D01*
X124052819Y-111023809D02*
X123052819Y-111023809D01*
X124052819Y-111642857D02*
X123052819Y-111642857D01*
X123052819Y-111642857D02*
X123052819Y-112023809D01*
X123052819Y-112023809D02*
X123100438Y-112119047D01*
X123100438Y-112119047D02*
X123148057Y-112166666D01*
X123148057Y-112166666D02*
X123243295Y-112214285D01*
X123243295Y-112214285D02*
X123386152Y-112214285D01*
X123386152Y-112214285D02*
X123481390Y-112166666D01*
X123481390Y-112166666D02*
X123529009Y-112119047D01*
X123529009Y-112119047D02*
X123576628Y-112023809D01*
X123576628Y-112023809D02*
X123576628Y-111642857D01*
X123386152Y-113071428D02*
X124052819Y-113071428D01*
X123005200Y-112833333D02*
X123719485Y-112595238D01*
X123719485Y-112595238D02*
X123719485Y-113214285D01*
X133702819Y-153738095D02*
X133702819Y-154309523D01*
X134702819Y-154023809D02*
X133702819Y-154023809D01*
X134702819Y-154642857D02*
X133702819Y-154642857D01*
X133702819Y-154642857D02*
X133702819Y-155023809D01*
X133702819Y-155023809D02*
X133750438Y-155119047D01*
X133750438Y-155119047D02*
X133798057Y-155166666D01*
X133798057Y-155166666D02*
X133893295Y-155214285D01*
X133893295Y-155214285D02*
X134036152Y-155214285D01*
X134036152Y-155214285D02*
X134131390Y-155166666D01*
X134131390Y-155166666D02*
X134179009Y-155119047D01*
X134179009Y-155119047D02*
X134226628Y-155023809D01*
X134226628Y-155023809D02*
X134226628Y-154642857D01*
X134702819Y-156166666D02*
X134702819Y-155595238D01*
X134702819Y-155880952D02*
X133702819Y-155880952D01*
X133702819Y-155880952D02*
X133845676Y-155785714D01*
X133845676Y-155785714D02*
X133940914Y-155690476D01*
X133940914Y-155690476D02*
X133988533Y-155595238D01*
X130152819Y-110738095D02*
X130152819Y-111309523D01*
X131152819Y-111023809D02*
X130152819Y-111023809D01*
X131152819Y-111642857D02*
X130152819Y-111642857D01*
X130152819Y-111642857D02*
X130152819Y-112023809D01*
X130152819Y-112023809D02*
X130200438Y-112119047D01*
X130200438Y-112119047D02*
X130248057Y-112166666D01*
X130248057Y-112166666D02*
X130343295Y-112214285D01*
X130343295Y-112214285D02*
X130486152Y-112214285D01*
X130486152Y-112214285D02*
X130581390Y-112166666D01*
X130581390Y-112166666D02*
X130629009Y-112119047D01*
X130629009Y-112119047D02*
X130676628Y-112023809D01*
X130676628Y-112023809D02*
X130676628Y-111642857D01*
X130248057Y-112595238D02*
X130200438Y-112642857D01*
X130200438Y-112642857D02*
X130152819Y-112738095D01*
X130152819Y-112738095D02*
X130152819Y-112976190D01*
X130152819Y-112976190D02*
X130200438Y-113071428D01*
X130200438Y-113071428D02*
X130248057Y-113119047D01*
X130248057Y-113119047D02*
X130343295Y-113166666D01*
X130343295Y-113166666D02*
X130438533Y-113166666D01*
X130438533Y-113166666D02*
X130581390Y-113119047D01*
X130581390Y-113119047D02*
X131152819Y-112547619D01*
X131152819Y-112547619D02*
X131152819Y-113166666D01*
X130152819Y-153738095D02*
X130152819Y-154309523D01*
X131152819Y-154023809D02*
X130152819Y-154023809D01*
X131152819Y-154642857D02*
X130152819Y-154642857D01*
X130152819Y-154642857D02*
X130152819Y-155023809D01*
X130152819Y-155023809D02*
X130200438Y-155119047D01*
X130200438Y-155119047D02*
X130248057Y-155166666D01*
X130248057Y-155166666D02*
X130343295Y-155214285D01*
X130343295Y-155214285D02*
X130486152Y-155214285D01*
X130486152Y-155214285D02*
X130581390Y-155166666D01*
X130581390Y-155166666D02*
X130629009Y-155119047D01*
X130629009Y-155119047D02*
X130676628Y-155023809D01*
X130676628Y-155023809D02*
X130676628Y-154642857D01*
X130248057Y-155595238D02*
X130200438Y-155642857D01*
X130200438Y-155642857D02*
X130152819Y-155738095D01*
X130152819Y-155738095D02*
X130152819Y-155976190D01*
X130152819Y-155976190D02*
X130200438Y-156071428D01*
X130200438Y-156071428D02*
X130248057Y-156119047D01*
X130248057Y-156119047D02*
X130343295Y-156166666D01*
X130343295Y-156166666D02*
X130438533Y-156166666D01*
X130438533Y-156166666D02*
X130581390Y-156119047D01*
X130581390Y-156119047D02*
X131152819Y-155547619D01*
X131152819Y-155547619D02*
X131152819Y-156166666D01*
X169602819Y-67738095D02*
X169602819Y-68309523D01*
X170602819Y-68023809D02*
X169602819Y-68023809D01*
X170602819Y-68642857D02*
X169602819Y-68642857D01*
X169602819Y-68642857D02*
X169602819Y-69023809D01*
X169602819Y-69023809D02*
X169650438Y-69119047D01*
X169650438Y-69119047D02*
X169698057Y-69166666D01*
X169698057Y-69166666D02*
X169793295Y-69214285D01*
X169793295Y-69214285D02*
X169936152Y-69214285D01*
X169936152Y-69214285D02*
X170031390Y-69166666D01*
X170031390Y-69166666D02*
X170079009Y-69119047D01*
X170079009Y-69119047D02*
X170126628Y-69023809D01*
X170126628Y-69023809D02*
X170126628Y-68642857D01*
X169602819Y-69547619D02*
X169602819Y-70166666D01*
X169602819Y-70166666D02*
X169983771Y-69833333D01*
X169983771Y-69833333D02*
X169983771Y-69976190D01*
X169983771Y-69976190D02*
X170031390Y-70071428D01*
X170031390Y-70071428D02*
X170079009Y-70119047D01*
X170079009Y-70119047D02*
X170174247Y-70166666D01*
X170174247Y-70166666D02*
X170412342Y-70166666D01*
X170412342Y-70166666D02*
X170507580Y-70119047D01*
X170507580Y-70119047D02*
X170555200Y-70071428D01*
X170555200Y-70071428D02*
X170602819Y-69976190D01*
X170602819Y-69976190D02*
X170602819Y-69690476D01*
X170602819Y-69690476D02*
X170555200Y-69595238D01*
X170555200Y-69595238D02*
X170507580Y-69547619D01*
X126602819Y-67738095D02*
X126602819Y-68309523D01*
X127602819Y-68023809D02*
X126602819Y-68023809D01*
X127602819Y-68642857D02*
X126602819Y-68642857D01*
X126602819Y-68642857D02*
X126602819Y-69023809D01*
X126602819Y-69023809D02*
X126650438Y-69119047D01*
X126650438Y-69119047D02*
X126698057Y-69166666D01*
X126698057Y-69166666D02*
X126793295Y-69214285D01*
X126793295Y-69214285D02*
X126936152Y-69214285D01*
X126936152Y-69214285D02*
X127031390Y-69166666D01*
X127031390Y-69166666D02*
X127079009Y-69119047D01*
X127079009Y-69119047D02*
X127126628Y-69023809D01*
X127126628Y-69023809D02*
X127126628Y-68642857D01*
X126602819Y-69547619D02*
X126602819Y-70166666D01*
X126602819Y-70166666D02*
X126983771Y-69833333D01*
X126983771Y-69833333D02*
X126983771Y-69976190D01*
X126983771Y-69976190D02*
X127031390Y-70071428D01*
X127031390Y-70071428D02*
X127079009Y-70119047D01*
X127079009Y-70119047D02*
X127174247Y-70166666D01*
X127174247Y-70166666D02*
X127412342Y-70166666D01*
X127412342Y-70166666D02*
X127507580Y-70119047D01*
X127507580Y-70119047D02*
X127555200Y-70071428D01*
X127555200Y-70071428D02*
X127602819Y-69976190D01*
X127602819Y-69976190D02*
X127602819Y-69690476D01*
X127602819Y-69690476D02*
X127555200Y-69595238D01*
X127555200Y-69595238D02*
X127507580Y-69547619D01*
X133702819Y-110738095D02*
X133702819Y-111309523D01*
X134702819Y-111023809D02*
X133702819Y-111023809D01*
X134702819Y-111642857D02*
X133702819Y-111642857D01*
X133702819Y-111642857D02*
X133702819Y-112023809D01*
X133702819Y-112023809D02*
X133750438Y-112119047D01*
X133750438Y-112119047D02*
X133798057Y-112166666D01*
X133798057Y-112166666D02*
X133893295Y-112214285D01*
X133893295Y-112214285D02*
X134036152Y-112214285D01*
X134036152Y-112214285D02*
X134131390Y-112166666D01*
X134131390Y-112166666D02*
X134179009Y-112119047D01*
X134179009Y-112119047D02*
X134226628Y-112023809D01*
X134226628Y-112023809D02*
X134226628Y-111642857D01*
X134702819Y-113166666D02*
X134702819Y-112595238D01*
X134702819Y-112880952D02*
X133702819Y-112880952D01*
X133702819Y-112880952D02*
X133845676Y-112785714D01*
X133845676Y-112785714D02*
X133940914Y-112690476D01*
X133940914Y-112690476D02*
X133988533Y-112595238D01*
X176702819Y-110738095D02*
X176702819Y-111309523D01*
X177702819Y-111023809D02*
X176702819Y-111023809D01*
X177702819Y-111642857D02*
X176702819Y-111642857D01*
X176702819Y-111642857D02*
X176702819Y-112023809D01*
X176702819Y-112023809D02*
X176750438Y-112119047D01*
X176750438Y-112119047D02*
X176798057Y-112166666D01*
X176798057Y-112166666D02*
X176893295Y-112214285D01*
X176893295Y-112214285D02*
X177036152Y-112214285D01*
X177036152Y-112214285D02*
X177131390Y-112166666D01*
X177131390Y-112166666D02*
X177179009Y-112119047D01*
X177179009Y-112119047D02*
X177226628Y-112023809D01*
X177226628Y-112023809D02*
X177226628Y-111642857D01*
X177702819Y-113166666D02*
X177702819Y-112595238D01*
X177702819Y-112880952D02*
X176702819Y-112880952D01*
X176702819Y-112880952D02*
X176845676Y-112785714D01*
X176845676Y-112785714D02*
X176940914Y-112690476D01*
X176940914Y-112690476D02*
X176988533Y-112595238D01*
X123052819Y-153738095D02*
X123052819Y-154309523D01*
X124052819Y-154023809D02*
X123052819Y-154023809D01*
X124052819Y-154642857D02*
X123052819Y-154642857D01*
X123052819Y-154642857D02*
X123052819Y-155023809D01*
X123052819Y-155023809D02*
X123100438Y-155119047D01*
X123100438Y-155119047D02*
X123148057Y-155166666D01*
X123148057Y-155166666D02*
X123243295Y-155214285D01*
X123243295Y-155214285D02*
X123386152Y-155214285D01*
X123386152Y-155214285D02*
X123481390Y-155166666D01*
X123481390Y-155166666D02*
X123529009Y-155119047D01*
X123529009Y-155119047D02*
X123576628Y-155023809D01*
X123576628Y-155023809D02*
X123576628Y-154642857D01*
X123386152Y-156071428D02*
X124052819Y-156071428D01*
X123005200Y-155833333D02*
X123719485Y-155595238D01*
X123719485Y-155595238D02*
X123719485Y-156214285D01*
X166052819Y-110738095D02*
X166052819Y-111309523D01*
X167052819Y-111023809D02*
X166052819Y-111023809D01*
X167052819Y-111642857D02*
X166052819Y-111642857D01*
X166052819Y-111642857D02*
X166052819Y-112023809D01*
X166052819Y-112023809D02*
X166100438Y-112119047D01*
X166100438Y-112119047D02*
X166148057Y-112166666D01*
X166148057Y-112166666D02*
X166243295Y-112214285D01*
X166243295Y-112214285D02*
X166386152Y-112214285D01*
X166386152Y-112214285D02*
X166481390Y-112166666D01*
X166481390Y-112166666D02*
X166529009Y-112119047D01*
X166529009Y-112119047D02*
X166576628Y-112023809D01*
X166576628Y-112023809D02*
X166576628Y-111642857D01*
X166386152Y-113071428D02*
X167052819Y-113071428D01*
X166005200Y-112833333D02*
X166719485Y-112595238D01*
X166719485Y-112595238D02*
X166719485Y-113214285D01*
X173152819Y-153738095D02*
X173152819Y-154309523D01*
X174152819Y-154023809D02*
X173152819Y-154023809D01*
X174152819Y-154642857D02*
X173152819Y-154642857D01*
X173152819Y-154642857D02*
X173152819Y-155023809D01*
X173152819Y-155023809D02*
X173200438Y-155119047D01*
X173200438Y-155119047D02*
X173248057Y-155166666D01*
X173248057Y-155166666D02*
X173343295Y-155214285D01*
X173343295Y-155214285D02*
X173486152Y-155214285D01*
X173486152Y-155214285D02*
X173581390Y-155166666D01*
X173581390Y-155166666D02*
X173629009Y-155119047D01*
X173629009Y-155119047D02*
X173676628Y-155023809D01*
X173676628Y-155023809D02*
X173676628Y-154642857D01*
X173248057Y-155595238D02*
X173200438Y-155642857D01*
X173200438Y-155642857D02*
X173152819Y-155738095D01*
X173152819Y-155738095D02*
X173152819Y-155976190D01*
X173152819Y-155976190D02*
X173200438Y-156071428D01*
X173200438Y-156071428D02*
X173248057Y-156119047D01*
X173248057Y-156119047D02*
X173343295Y-156166666D01*
X173343295Y-156166666D02*
X173438533Y-156166666D01*
X173438533Y-156166666D02*
X173581390Y-156119047D01*
X173581390Y-156119047D02*
X174152819Y-155547619D01*
X174152819Y-155547619D02*
X174152819Y-156166666D01*
X133702819Y-67738095D02*
X133702819Y-68309523D01*
X134702819Y-68023809D02*
X133702819Y-68023809D01*
X134702819Y-68642857D02*
X133702819Y-68642857D01*
X133702819Y-68642857D02*
X133702819Y-69023809D01*
X133702819Y-69023809D02*
X133750438Y-69119047D01*
X133750438Y-69119047D02*
X133798057Y-69166666D01*
X133798057Y-69166666D02*
X133893295Y-69214285D01*
X133893295Y-69214285D02*
X134036152Y-69214285D01*
X134036152Y-69214285D02*
X134131390Y-69166666D01*
X134131390Y-69166666D02*
X134179009Y-69119047D01*
X134179009Y-69119047D02*
X134226628Y-69023809D01*
X134226628Y-69023809D02*
X134226628Y-68642857D01*
X134702819Y-70166666D02*
X134702819Y-69595238D01*
X134702819Y-69880952D02*
X133702819Y-69880952D01*
X133702819Y-69880952D02*
X133845676Y-69785714D01*
X133845676Y-69785714D02*
X133940914Y-69690476D01*
X133940914Y-69690476D02*
X133988533Y-69595238D01*
X166052819Y-67738095D02*
X166052819Y-68309523D01*
X167052819Y-68023809D02*
X166052819Y-68023809D01*
X167052819Y-68642857D02*
X166052819Y-68642857D01*
X166052819Y-68642857D02*
X166052819Y-69023809D01*
X166052819Y-69023809D02*
X166100438Y-69119047D01*
X166100438Y-69119047D02*
X166148057Y-69166666D01*
X166148057Y-69166666D02*
X166243295Y-69214285D01*
X166243295Y-69214285D02*
X166386152Y-69214285D01*
X166386152Y-69214285D02*
X166481390Y-69166666D01*
X166481390Y-69166666D02*
X166529009Y-69119047D01*
X166529009Y-69119047D02*
X166576628Y-69023809D01*
X166576628Y-69023809D02*
X166576628Y-68642857D01*
X166386152Y-70071428D02*
X167052819Y-70071428D01*
X166005200Y-69833333D02*
X166719485Y-69595238D01*
X166719485Y-69595238D02*
X166719485Y-70214285D01*
X176702819Y-153738095D02*
X176702819Y-154309523D01*
X177702819Y-154023809D02*
X176702819Y-154023809D01*
X177702819Y-154642857D02*
X176702819Y-154642857D01*
X176702819Y-154642857D02*
X176702819Y-155023809D01*
X176702819Y-155023809D02*
X176750438Y-155119047D01*
X176750438Y-155119047D02*
X176798057Y-155166666D01*
X176798057Y-155166666D02*
X176893295Y-155214285D01*
X176893295Y-155214285D02*
X177036152Y-155214285D01*
X177036152Y-155214285D02*
X177131390Y-155166666D01*
X177131390Y-155166666D02*
X177179009Y-155119047D01*
X177179009Y-155119047D02*
X177226628Y-155023809D01*
X177226628Y-155023809D02*
X177226628Y-154642857D01*
X177702819Y-156166666D02*
X177702819Y-155595238D01*
X177702819Y-155880952D02*
X176702819Y-155880952D01*
X176702819Y-155880952D02*
X176845676Y-155785714D01*
X176845676Y-155785714D02*
X176940914Y-155690476D01*
X176940914Y-155690476D02*
X176988533Y-155595238D01*
X169602819Y-110738095D02*
X169602819Y-111309523D01*
X170602819Y-111023809D02*
X169602819Y-111023809D01*
X170602819Y-111642857D02*
X169602819Y-111642857D01*
X169602819Y-111642857D02*
X169602819Y-112023809D01*
X169602819Y-112023809D02*
X169650438Y-112119047D01*
X169650438Y-112119047D02*
X169698057Y-112166666D01*
X169698057Y-112166666D02*
X169793295Y-112214285D01*
X169793295Y-112214285D02*
X169936152Y-112214285D01*
X169936152Y-112214285D02*
X170031390Y-112166666D01*
X170031390Y-112166666D02*
X170079009Y-112119047D01*
X170079009Y-112119047D02*
X170126628Y-112023809D01*
X170126628Y-112023809D02*
X170126628Y-111642857D01*
X169602819Y-112547619D02*
X169602819Y-113166666D01*
X169602819Y-113166666D02*
X169983771Y-112833333D01*
X169983771Y-112833333D02*
X169983771Y-112976190D01*
X169983771Y-112976190D02*
X170031390Y-113071428D01*
X170031390Y-113071428D02*
X170079009Y-113119047D01*
X170079009Y-113119047D02*
X170174247Y-113166666D01*
X170174247Y-113166666D02*
X170412342Y-113166666D01*
X170412342Y-113166666D02*
X170507580Y-113119047D01*
X170507580Y-113119047D02*
X170555200Y-113071428D01*
X170555200Y-113071428D02*
X170602819Y-112976190D01*
X170602819Y-112976190D02*
X170602819Y-112690476D01*
X170602819Y-112690476D02*
X170555200Y-112595238D01*
X170555200Y-112595238D02*
X170507580Y-112547619D01*
X123052819Y-67738095D02*
X123052819Y-68309523D01*
X124052819Y-68023809D02*
X123052819Y-68023809D01*
X124052819Y-68642857D02*
X123052819Y-68642857D01*
X123052819Y-68642857D02*
X123052819Y-69023809D01*
X123052819Y-69023809D02*
X123100438Y-69119047D01*
X123100438Y-69119047D02*
X123148057Y-69166666D01*
X123148057Y-69166666D02*
X123243295Y-69214285D01*
X123243295Y-69214285D02*
X123386152Y-69214285D01*
X123386152Y-69214285D02*
X123481390Y-69166666D01*
X123481390Y-69166666D02*
X123529009Y-69119047D01*
X123529009Y-69119047D02*
X123576628Y-69023809D01*
X123576628Y-69023809D02*
X123576628Y-68642857D01*
X123386152Y-70071428D02*
X124052819Y-70071428D01*
X123005200Y-69833333D02*
X123719485Y-69595238D01*
X123719485Y-69595238D02*
X123719485Y-70214285D01*
X166052819Y-153738095D02*
X166052819Y-154309523D01*
X167052819Y-154023809D02*
X166052819Y-154023809D01*
X167052819Y-154642857D02*
X166052819Y-154642857D01*
X166052819Y-154642857D02*
X166052819Y-155023809D01*
X166052819Y-155023809D02*
X166100438Y-155119047D01*
X166100438Y-155119047D02*
X166148057Y-155166666D01*
X166148057Y-155166666D02*
X166243295Y-155214285D01*
X166243295Y-155214285D02*
X166386152Y-155214285D01*
X166386152Y-155214285D02*
X166481390Y-155166666D01*
X166481390Y-155166666D02*
X166529009Y-155119047D01*
X166529009Y-155119047D02*
X166576628Y-155023809D01*
X166576628Y-155023809D02*
X166576628Y-154642857D01*
X166386152Y-156071428D02*
X167052819Y-156071428D01*
X166005200Y-155833333D02*
X166719485Y-155595238D01*
X166719485Y-155595238D02*
X166719485Y-156214285D01*
X126602819Y-110738095D02*
X126602819Y-111309523D01*
X127602819Y-111023809D02*
X126602819Y-111023809D01*
X127602819Y-111642857D02*
X126602819Y-111642857D01*
X126602819Y-111642857D02*
X126602819Y-112023809D01*
X126602819Y-112023809D02*
X126650438Y-112119047D01*
X126650438Y-112119047D02*
X126698057Y-112166666D01*
X126698057Y-112166666D02*
X126793295Y-112214285D01*
X126793295Y-112214285D02*
X126936152Y-112214285D01*
X126936152Y-112214285D02*
X127031390Y-112166666D01*
X127031390Y-112166666D02*
X127079009Y-112119047D01*
X127079009Y-112119047D02*
X127126628Y-112023809D01*
X127126628Y-112023809D02*
X127126628Y-111642857D01*
X126602819Y-112547619D02*
X126602819Y-113166666D01*
X126602819Y-113166666D02*
X126983771Y-112833333D01*
X126983771Y-112833333D02*
X126983771Y-112976190D01*
X126983771Y-112976190D02*
X127031390Y-113071428D01*
X127031390Y-113071428D02*
X127079009Y-113119047D01*
X127079009Y-113119047D02*
X127174247Y-113166666D01*
X127174247Y-113166666D02*
X127412342Y-113166666D01*
X127412342Y-113166666D02*
X127507580Y-113119047D01*
X127507580Y-113119047D02*
X127555200Y-113071428D01*
X127555200Y-113071428D02*
X127602819Y-112976190D01*
X127602819Y-112976190D02*
X127602819Y-112690476D01*
X127602819Y-112690476D02*
X127555200Y-112595238D01*
X127555200Y-112595238D02*
X127507580Y-112547619D01*
X169602819Y-153738095D02*
X169602819Y-154309523D01*
X170602819Y-154023809D02*
X169602819Y-154023809D01*
X170602819Y-154642857D02*
X169602819Y-154642857D01*
X169602819Y-154642857D02*
X169602819Y-155023809D01*
X169602819Y-155023809D02*
X169650438Y-155119047D01*
X169650438Y-155119047D02*
X169698057Y-155166666D01*
X169698057Y-155166666D02*
X169793295Y-155214285D01*
X169793295Y-155214285D02*
X169936152Y-155214285D01*
X169936152Y-155214285D02*
X170031390Y-155166666D01*
X170031390Y-155166666D02*
X170079009Y-155119047D01*
X170079009Y-155119047D02*
X170126628Y-155023809D01*
X170126628Y-155023809D02*
X170126628Y-154642857D01*
X169602819Y-155547619D02*
X169602819Y-156166666D01*
X169602819Y-156166666D02*
X169983771Y-155833333D01*
X169983771Y-155833333D02*
X169983771Y-155976190D01*
X169983771Y-155976190D02*
X170031390Y-156071428D01*
X170031390Y-156071428D02*
X170079009Y-156119047D01*
X170079009Y-156119047D02*
X170174247Y-156166666D01*
X170174247Y-156166666D02*
X170412342Y-156166666D01*
X170412342Y-156166666D02*
X170507580Y-156119047D01*
X170507580Y-156119047D02*
X170555200Y-156071428D01*
X170555200Y-156071428D02*
X170602819Y-155976190D01*
X170602819Y-155976190D02*
X170602819Y-155690476D01*
X170602819Y-155690476D02*
X170555200Y-155595238D01*
X170555200Y-155595238D02*
X170507580Y-155547619D01*
D12*
X176550000Y-69000000D02*
G75*
G02*
X174650000Y-69000000I-950000J0D01*
G01*
X174650000Y-69000000D02*
G75*
G02*
X176550000Y-69000000I950000J0D01*
G01*
X130000000Y-69000000D02*
G75*
G02*
X128100000Y-69000000I-950000J0D01*
G01*
X128100000Y-69000000D02*
G75*
G02*
X130000000Y-69000000I950000J0D01*
G01*
X173000000Y-112000000D02*
G75*
G02*
X171100000Y-112000000I-950000J0D01*
G01*
X171100000Y-112000000D02*
G75*
G02*
X173000000Y-112000000I950000J0D01*
G01*
X173000000Y-69000000D02*
G75*
G02*
X171100000Y-69000000I-950000J0D01*
G01*
X171100000Y-69000000D02*
G75*
G02*
X173000000Y-69000000I950000J0D01*
G01*
X126450000Y-155000000D02*
G75*
G02*
X124550000Y-155000000I-950000J0D01*
G01*
X124550000Y-155000000D02*
G75*
G02*
X126450000Y-155000000I950000J0D01*
G01*
X122900000Y-112000000D02*
G75*
G02*
X121000000Y-112000000I-950000J0D01*
G01*
X121000000Y-112000000D02*
G75*
G02*
X122900000Y-112000000I950000J0D01*
G01*
X133550000Y-155000000D02*
G75*
G02*
X131650000Y-155000000I-950000J0D01*
G01*
X131650000Y-155000000D02*
G75*
G02*
X133550000Y-155000000I950000J0D01*
G01*
X130000000Y-112000000D02*
G75*
G02*
X128100000Y-112000000I-950000J0D01*
G01*
X128100000Y-112000000D02*
G75*
G02*
X130000000Y-112000000I950000J0D01*
G01*
X130000000Y-155000000D02*
G75*
G02*
X128100000Y-155000000I-950000J0D01*
G01*
X128100000Y-155000000D02*
G75*
G02*
X130000000Y-155000000I950000J0D01*
G01*
X169450000Y-69000000D02*
G75*
G02*
X167550000Y-69000000I-950000J0D01*
G01*
X167550000Y-69000000D02*
G75*
G02*
X169450000Y-69000000I950000J0D01*
G01*
X126450000Y-69000000D02*
G75*
G02*
X124550000Y-69000000I-950000J0D01*
G01*
X124550000Y-69000000D02*
G75*
G02*
X126450000Y-69000000I950000J0D01*
G01*
X133550000Y-112000000D02*
G75*
G02*
X131650000Y-112000000I-950000J0D01*
G01*
X131650000Y-112000000D02*
G75*
G02*
X133550000Y-112000000I950000J0D01*
G01*
X176550000Y-112000000D02*
G75*
G02*
X174650000Y-112000000I-950000J0D01*
G01*
X174650000Y-112000000D02*
G75*
G02*
X176550000Y-112000000I950000J0D01*
G01*
X122900000Y-155000000D02*
G75*
G02*
X121000000Y-155000000I-950000J0D01*
G01*
X121000000Y-155000000D02*
G75*
G02*
X122900000Y-155000000I950000J0D01*
G01*
X165900000Y-112000000D02*
G75*
G02*
X164000000Y-112000000I-950000J0D01*
G01*
X164000000Y-112000000D02*
G75*
G02*
X165900000Y-112000000I950000J0D01*
G01*
X173000000Y-155000000D02*
G75*
G02*
X171100000Y-155000000I-950000J0D01*
G01*
X171100000Y-155000000D02*
G75*
G02*
X173000000Y-155000000I950000J0D01*
G01*
X133550000Y-69000000D02*
G75*
G02*
X131650000Y-69000000I-950000J0D01*
G01*
X131650000Y-69000000D02*
G75*
G02*
X133550000Y-69000000I950000J0D01*
G01*
X165900000Y-69000000D02*
G75*
G02*
X164000000Y-69000000I-950000J0D01*
G01*
X164000000Y-69000000D02*
G75*
G02*
X165900000Y-69000000I950000J0D01*
G01*
X176550000Y-155000000D02*
G75*
G02*
X174650000Y-155000000I-950000J0D01*
G01*
X174650000Y-155000000D02*
G75*
G02*
X176550000Y-155000000I950000J0D01*
G01*
X169450000Y-112000000D02*
G75*
G02*
X167550000Y-112000000I-950000J0D01*
G01*
X167550000Y-112000000D02*
G75*
G02*
X169450000Y-112000000I950000J0D01*
G01*
X122900000Y-69000000D02*
G75*
G02*
X121000000Y-69000000I-950000J0D01*
G01*
X121000000Y-69000000D02*
G75*
G02*
X122900000Y-69000000I950000J0D01*
G01*
X165900000Y-155000000D02*
G75*
G02*
X164000000Y-155000000I-950000J0D01*
G01*
X164000000Y-155000000D02*
G75*
G02*
X165900000Y-155000000I950000J0D01*
G01*
X126450000Y-112000000D02*
G75*
G02*
X124550000Y-112000000I-950000J0D01*
G01*
X124550000Y-112000000D02*
G75*
G02*
X126450000Y-112000000I950000J0D01*
G01*
X169450000Y-155000000D02*
G75*
G02*
X167550000Y-155000000I-950000J0D01*
G01*
X167550000Y-155000000D02*
G75*
G02*
X169450000Y-155000000I950000J0D01*
G01*
M02*
