G04 #@! TF.GenerationSoftware,KiCad,Pcbnew,10.0.4*
G04 #@! TF.ProjectId,Speakeasy_panel_2x2,53706561-6b65-4617-9379-5f70616e656c,rev?*
G04 #@! TF.SameCoordinates,Original*
G04 #@! TF.FileFunction,Profile,NP*
%FSLAX46Y46*%
G04 Gerber Fmt 4.6, Leading zero omitted, Abs format (unit mm)*
%MOMM*%
%LPD*%
G01*
G04 APERTURE LIST*
G04 #@! TA.AperFunction,Profile*
%ADD10C,0.100000*%
G04 #@! TD*
G04 APERTURE END LIST*
D10*
X106500000Y-20000000D02*
X106500000Y-26000000D01*
X106500000Y-26000000D02*
X125500000Y-26000000D01*
X106500000Y-35500000D02*
X106500000Y-67500000D01*
X106500000Y-67500000D02*
X106521668Y-67941077D01*
X106500000Y-78500000D02*
X106500000Y-110500000D01*
X106500000Y-110500000D02*
X106521668Y-110941077D01*
X106500000Y-120000000D02*
X106500000Y-126000000D01*
X106500000Y-126000000D02*
X190500000Y-126000000D01*
X106521668Y-35058922D02*
X106500000Y-35500000D01*
X106521668Y-67941077D02*
X106586466Y-68377906D01*
X106521668Y-78058922D02*
X106500000Y-78500000D01*
X106521668Y-110941077D02*
X106586466Y-111377906D01*
X106586466Y-34622093D02*
X106521668Y-35058922D01*
X106586466Y-68377906D02*
X106693768Y-68806281D01*
X106586466Y-77622093D02*
X106521668Y-78058922D01*
X106586466Y-111377906D02*
X106693768Y-111806281D01*
X106693768Y-34193718D02*
X106586466Y-34622093D01*
X106693768Y-68806281D02*
X106842542Y-69222075D01*
X106693768Y-77193718D02*
X106586466Y-77622093D01*
X106693768Y-111806281D02*
X106842542Y-112222075D01*
X106842542Y-33777924D02*
X106693768Y-34193718D01*
X106842542Y-69222075D02*
X107031354Y-69621285D01*
X106842542Y-76777924D02*
X106693768Y-77193718D01*
X106842542Y-112222075D02*
X107031354Y-112621285D01*
X107031354Y-33378714D02*
X106842542Y-33777924D01*
X107031354Y-69621285D02*
X107258386Y-70000066D01*
X107031354Y-76378714D02*
X106842542Y-76777924D01*
X107031354Y-112621285D02*
X107258386Y-113000066D01*
X107258386Y-32999933D02*
X107031354Y-33378714D01*
X107258386Y-70000066D02*
X107521452Y-70354769D01*
X107258386Y-75999933D02*
X107031354Y-76378714D01*
X107258386Y-113000066D02*
X107521452Y-113354769D01*
X107521452Y-32645230D02*
X107258386Y-32999933D01*
X107521452Y-70354769D02*
X107818019Y-70681980D01*
X107521452Y-75645230D02*
X107258386Y-75999933D01*
X107521452Y-113354769D02*
X107818019Y-113681980D01*
X107818019Y-32318019D02*
X107521452Y-32645230D01*
X107818019Y-70681980D02*
X108145230Y-70978547D01*
X107818019Y-75318019D02*
X107521452Y-75645230D01*
X107818019Y-113681980D02*
X108145230Y-113978547D01*
X108145230Y-32021452D02*
X107818019Y-32318019D01*
X108145230Y-70978547D02*
X108499933Y-71241613D01*
X108145230Y-75021452D02*
X107818019Y-75318019D01*
X108145230Y-113978547D02*
X108499933Y-114241613D01*
X108499933Y-31758386D02*
X108145230Y-32021452D01*
X108499933Y-71241613D02*
X108878714Y-71468645D01*
X108499933Y-74758386D02*
X108145230Y-75021452D01*
X108499933Y-114241613D02*
X108878714Y-114468645D01*
X108878714Y-31531354D02*
X108499933Y-31758386D01*
X108878714Y-71468645D02*
X109277924Y-71657457D01*
X108878714Y-74531354D02*
X108499933Y-74758386D01*
X108878714Y-114468645D02*
X109277924Y-114657457D01*
X109277924Y-31342542D02*
X108878714Y-31531354D01*
X109277924Y-71657457D02*
X109693718Y-71806231D01*
X109277924Y-74342542D02*
X108878714Y-74531354D01*
X109277924Y-114657457D02*
X109693718Y-114806231D01*
X109693718Y-31193768D02*
X109277924Y-31342542D01*
X109693718Y-71806231D02*
X110122093Y-71913533D01*
X109693718Y-74193768D02*
X109277924Y-74342542D01*
X109693718Y-114806231D02*
X110122093Y-114913533D01*
X110122093Y-31086466D02*
X109693718Y-31193768D01*
X110122093Y-71913533D02*
X110558922Y-71978331D01*
X110122093Y-74086466D02*
X109693718Y-74193768D01*
X110122093Y-114913533D02*
X110558922Y-114978331D01*
X110558922Y-31021668D02*
X110122093Y-31086466D01*
X110558922Y-71978331D02*
X111000000Y-72000000D01*
X110558922Y-74021668D02*
X110122093Y-74086466D01*
X110558922Y-114978331D02*
X111000000Y-115000000D01*
X111000000Y-31000000D02*
X110558922Y-31021668D01*
X111000000Y-72000000D02*
X125500000Y-72000000D01*
X111000000Y-74000000D02*
X110558922Y-74021668D01*
X111000000Y-115000000D02*
X125500000Y-115000000D01*
X125500000Y-26000000D02*
X125500000Y-31000000D01*
X125500000Y-31000000D02*
X111000000Y-31000000D01*
X125500000Y-72000000D02*
X125500000Y-74000000D01*
X125500000Y-74000000D02*
X111000000Y-74000000D01*
X125500000Y-115000000D02*
X125500000Y-120000000D01*
X125500000Y-120000000D02*
X106500000Y-120000000D01*
X128500000Y-26000000D02*
X168500000Y-26000000D01*
X128500000Y-31000000D02*
X128500000Y-26000000D01*
X128500000Y-72000000D02*
X143000000Y-72000000D01*
X128500000Y-74000000D02*
X128500000Y-72000000D01*
X128500000Y-115000000D02*
X143000000Y-115000000D01*
X128500000Y-120000000D02*
X128500000Y-115000000D01*
X143000000Y-31000000D02*
X128500000Y-31000000D01*
X143000000Y-72000000D02*
X143441077Y-71978331D01*
X143000000Y-74000000D02*
X128500000Y-74000000D01*
X143000000Y-115000000D02*
X143441077Y-114978331D01*
X143441077Y-31021668D02*
X143000000Y-31000000D01*
X143441077Y-71978331D02*
X143877906Y-71913533D01*
X143441077Y-74021668D02*
X143000000Y-74000000D01*
X143441077Y-114978331D02*
X143877906Y-114913533D01*
X143877906Y-31086466D02*
X143441077Y-31021668D01*
X143877906Y-71913533D02*
X144306281Y-71806231D01*
X143877906Y-74086466D02*
X143441077Y-74021668D01*
X143877906Y-114913533D02*
X144306281Y-114806231D01*
X144306281Y-31193768D02*
X143877906Y-31086466D01*
X144306281Y-71806231D02*
X144722075Y-71657457D01*
X144306281Y-74193768D02*
X143877906Y-74086466D01*
X144306281Y-114806231D02*
X144722075Y-114657457D01*
X144722075Y-31342542D02*
X144306281Y-31193768D01*
X144722075Y-71657457D02*
X145121285Y-71468645D01*
X144722075Y-74342542D02*
X144306281Y-74193768D01*
X144722075Y-114657457D02*
X145121285Y-114468645D01*
X145121285Y-31531354D02*
X144722075Y-31342542D01*
X145121285Y-71468645D02*
X145500066Y-71241613D01*
X145121285Y-74531354D02*
X144722075Y-74342542D01*
X145121285Y-114468645D02*
X145500066Y-114241613D01*
X145500066Y-31758386D02*
X145121285Y-31531354D01*
X145500066Y-71241613D02*
X145854769Y-70978547D01*
X145500066Y-74758386D02*
X145121285Y-74531354D01*
X145500066Y-114241613D02*
X145854769Y-113978547D01*
X145854769Y-32021452D02*
X145500066Y-31758386D01*
X145854769Y-70978547D02*
X146181980Y-70681980D01*
X145854769Y-75021452D02*
X145500066Y-74758386D01*
X145854769Y-113978547D02*
X146181980Y-113681980D01*
X146181980Y-32318019D02*
X145854769Y-32021452D01*
X146181980Y-70681980D02*
X146478547Y-70354769D01*
X146181980Y-75318019D02*
X145854769Y-75021452D01*
X146181980Y-113681980D02*
X146478547Y-113354769D01*
X146478547Y-32645230D02*
X146181980Y-32318019D01*
X146478547Y-70354769D02*
X146741613Y-70000066D01*
X146478547Y-75645230D02*
X146181980Y-75318019D01*
X146478547Y-113354769D02*
X146741613Y-113000066D01*
X146741613Y-32999933D02*
X146478547Y-32645230D01*
X146741613Y-70000066D02*
X146968645Y-69621285D01*
X146741613Y-75999933D02*
X146478547Y-75645230D01*
X146741613Y-113000066D02*
X146968645Y-112621285D01*
X146968645Y-33378714D02*
X146741613Y-32999933D01*
X146968645Y-69621285D02*
X147157457Y-69222075D01*
X146968645Y-76378714D02*
X146741613Y-75999933D01*
X146968645Y-112621285D02*
X147157457Y-112222075D01*
X147157457Y-33777924D02*
X146968645Y-33378714D01*
X147157457Y-69222075D02*
X147306231Y-68806281D01*
X147157457Y-76777924D02*
X146968645Y-76378714D01*
X147157457Y-112222075D02*
X147306231Y-111806281D01*
X147306231Y-34193718D02*
X147157457Y-33777924D01*
X147306231Y-68806281D02*
X147413533Y-68377906D01*
X147306231Y-77193718D02*
X147157457Y-76777924D01*
X147306231Y-111806281D02*
X147413533Y-111377906D01*
X147413533Y-34622093D02*
X147306231Y-34193718D01*
X147413533Y-68377906D02*
X147478331Y-67941077D01*
X147413533Y-77622093D02*
X147306231Y-77193718D01*
X147413533Y-111377906D02*
X147478331Y-110941077D01*
X147478331Y-35058922D02*
X147413533Y-34622093D01*
X147478331Y-67941077D02*
X147500000Y-67500000D01*
X147478331Y-78058922D02*
X147413533Y-77622093D01*
X147478331Y-110941077D02*
X147500000Y-110500000D01*
X147500000Y-35500000D02*
X147478331Y-35058922D01*
X147500000Y-50000000D02*
X147500000Y-35500000D01*
X147500000Y-53000000D02*
X149500000Y-53000000D01*
X147500000Y-67500000D02*
X147500000Y-53000000D01*
X147500000Y-78500000D02*
X147478331Y-78058922D01*
X147500000Y-93000000D02*
X147500000Y-78500000D01*
X147500000Y-96000000D02*
X149500000Y-96000000D01*
X147500000Y-110500000D02*
X147500000Y-96000000D01*
X149500000Y-35500000D02*
X149500000Y-50000000D01*
X149500000Y-50000000D02*
X147500000Y-50000000D01*
X149500000Y-53000000D02*
X149500000Y-67500000D01*
X149500000Y-67500000D02*
X149521668Y-67941077D01*
X149500000Y-78500000D02*
X149500000Y-93000000D01*
X149500000Y-93000000D02*
X147500000Y-93000000D01*
X149500000Y-96000000D02*
X149500000Y-110500000D01*
X149500000Y-110500000D02*
X149521668Y-110941077D01*
X149521668Y-35058922D02*
X149500000Y-35500000D01*
X149521668Y-67941077D02*
X149586466Y-68377906D01*
X149521668Y-78058922D02*
X149500000Y-78500000D01*
X149521668Y-110941077D02*
X149586466Y-111377906D01*
X149586466Y-34622093D02*
X149521668Y-35058922D01*
X149586466Y-68377906D02*
X149693768Y-68806281D01*
X149586466Y-77622093D02*
X149521668Y-78058922D01*
X149586466Y-111377906D02*
X149693768Y-111806281D01*
X149693768Y-34193718D02*
X149586466Y-34622093D01*
X149693768Y-68806281D02*
X149842542Y-69222075D01*
X149693768Y-77193718D02*
X149586466Y-77622093D01*
X149693768Y-111806281D02*
X149842542Y-112222075D01*
X149842542Y-33777924D02*
X149693768Y-34193718D01*
X149842542Y-69222075D02*
X150031354Y-69621285D01*
X149842542Y-76777924D02*
X149693768Y-77193718D01*
X149842542Y-112222075D02*
X150031354Y-112621285D01*
X150031354Y-33378714D02*
X149842542Y-33777924D01*
X150031354Y-69621285D02*
X150258386Y-70000066D01*
X150031354Y-76378714D02*
X149842542Y-76777924D01*
X150031354Y-112621285D02*
X150258386Y-113000066D01*
X150258386Y-32999933D02*
X150031354Y-33378714D01*
X150258386Y-70000066D02*
X150521452Y-70354769D01*
X150258386Y-75999933D02*
X150031354Y-76378714D01*
X150258386Y-113000066D02*
X150521452Y-113354769D01*
X150521452Y-32645230D02*
X150258386Y-32999933D01*
X150521452Y-70354769D02*
X150818019Y-70681980D01*
X150521452Y-75645230D02*
X150258386Y-75999933D01*
X150521452Y-113354769D02*
X150818019Y-113681980D01*
X150818019Y-32318019D02*
X150521452Y-32645230D01*
X150818019Y-70681980D02*
X151145230Y-70978547D01*
X150818019Y-75318019D02*
X150521452Y-75645230D01*
X150818019Y-113681980D02*
X151145230Y-113978547D01*
X151145230Y-32021452D02*
X150818019Y-32318019D01*
X151145230Y-70978547D02*
X151499933Y-71241613D01*
X151145230Y-75021452D02*
X150818019Y-75318019D01*
X151145230Y-113978547D02*
X151499933Y-114241613D01*
X151499933Y-31758386D02*
X151145230Y-32021452D01*
X151499933Y-71241613D02*
X151878714Y-71468645D01*
X151499933Y-74758386D02*
X151145230Y-75021452D01*
X151499933Y-114241613D02*
X151878714Y-114468645D01*
X151878714Y-31531354D02*
X151499933Y-31758386D01*
X151878714Y-71468645D02*
X152277924Y-71657457D01*
X151878714Y-74531354D02*
X151499933Y-74758386D01*
X151878714Y-114468645D02*
X152277924Y-114657457D01*
X152277924Y-31342542D02*
X151878714Y-31531354D01*
X152277924Y-71657457D02*
X152693718Y-71806231D01*
X152277924Y-74342542D02*
X151878714Y-74531354D01*
X152277924Y-114657457D02*
X152693718Y-114806231D01*
X152693718Y-31193768D02*
X152277924Y-31342542D01*
X152693718Y-71806231D02*
X153122093Y-71913533D01*
X152693718Y-74193768D02*
X152277924Y-74342542D01*
X152693718Y-114806231D02*
X153122093Y-114913533D01*
X153122093Y-31086466D02*
X152693718Y-31193768D01*
X153122093Y-71913533D02*
X153558922Y-71978331D01*
X153122093Y-74086466D02*
X152693718Y-74193768D01*
X153122093Y-114913533D02*
X153558922Y-114978331D01*
X153558922Y-31021668D02*
X153122093Y-31086466D01*
X153558922Y-71978331D02*
X154000000Y-72000000D01*
X153558922Y-74021668D02*
X153122093Y-74086466D01*
X153558922Y-114978331D02*
X154000000Y-115000000D01*
X154000000Y-31000000D02*
X153558922Y-31021668D01*
X154000000Y-72000000D02*
X168500000Y-72000000D01*
X154000000Y-74000000D02*
X153558922Y-74021668D01*
X154000000Y-115000000D02*
X168500000Y-115000000D01*
X168500000Y-26000000D02*
X168500000Y-31000000D01*
X168500000Y-31000000D02*
X154000000Y-31000000D01*
X168500000Y-72000000D02*
X168500000Y-74000000D01*
X168500000Y-74000000D02*
X154000000Y-74000000D01*
X168500000Y-115000000D02*
X168500000Y-120000000D01*
X168500000Y-120000000D02*
X128500000Y-120000000D01*
X171500000Y-26000000D02*
X190500000Y-26000000D01*
X171500000Y-31000000D02*
X171500000Y-26000000D01*
X171500000Y-72000000D02*
X186000000Y-72000000D01*
X171500000Y-74000000D02*
X171500000Y-72000000D01*
X171500000Y-115000000D02*
X186000000Y-115000000D01*
X171500000Y-120000000D02*
X171500000Y-115000000D01*
X186000000Y-31000000D02*
X171500000Y-31000000D01*
X186000000Y-72000000D02*
X186441077Y-71978331D01*
X186000000Y-74000000D02*
X171500000Y-74000000D01*
X186000000Y-115000000D02*
X186441077Y-114978331D01*
X186441077Y-31021668D02*
X186000000Y-31000000D01*
X186441077Y-71978331D02*
X186877906Y-71913533D01*
X186441077Y-74021668D02*
X186000000Y-74000000D01*
X186441077Y-114978331D02*
X186877906Y-114913533D01*
X186877906Y-31086466D02*
X186441077Y-31021668D01*
X186877906Y-71913533D02*
X187306281Y-71806231D01*
X186877906Y-74086466D02*
X186441077Y-74021668D01*
X186877906Y-114913533D02*
X187306281Y-114806231D01*
X187306281Y-31193768D02*
X186877906Y-31086466D01*
X187306281Y-71806231D02*
X187722075Y-71657457D01*
X187306281Y-74193768D02*
X186877906Y-74086466D01*
X187306281Y-114806231D02*
X187722075Y-114657457D01*
X187722075Y-31342542D02*
X187306281Y-31193768D01*
X187722075Y-71657457D02*
X188121285Y-71468645D01*
X187722075Y-74342542D02*
X187306281Y-74193768D01*
X187722075Y-114657457D02*
X188121285Y-114468645D01*
X188121285Y-31531354D02*
X187722075Y-31342542D01*
X188121285Y-71468645D02*
X188500066Y-71241613D01*
X188121285Y-74531354D02*
X187722075Y-74342542D01*
X188121285Y-114468645D02*
X188500066Y-114241613D01*
X188500066Y-31758386D02*
X188121285Y-31531354D01*
X188500066Y-71241613D02*
X188854769Y-70978547D01*
X188500066Y-74758386D02*
X188121285Y-74531354D01*
X188500066Y-114241613D02*
X188854769Y-113978547D01*
X188854769Y-32021452D02*
X188500066Y-31758386D01*
X188854769Y-70978547D02*
X189181980Y-70681980D01*
X188854769Y-75021452D02*
X188500066Y-74758386D01*
X188854769Y-113978547D02*
X189181980Y-113681980D01*
X189181980Y-32318019D02*
X188854769Y-32021452D01*
X189181980Y-70681980D02*
X189478547Y-70354769D01*
X189181980Y-75318019D02*
X188854769Y-75021452D01*
X189181980Y-113681980D02*
X189478547Y-113354769D01*
X189478547Y-32645230D02*
X189181980Y-32318019D01*
X189478547Y-70354769D02*
X189741613Y-70000066D01*
X189478547Y-75645230D02*
X189181980Y-75318019D01*
X189478547Y-113354769D02*
X189741613Y-113000066D01*
X189741613Y-32999933D02*
X189478547Y-32645230D01*
X189741613Y-70000066D02*
X189968645Y-69621285D01*
X189741613Y-75999933D02*
X189478547Y-75645230D01*
X189741613Y-113000066D02*
X189968645Y-112621285D01*
X189968645Y-33378714D02*
X189741613Y-32999933D01*
X189968645Y-69621285D02*
X190157457Y-69222075D01*
X189968645Y-76378714D02*
X189741613Y-75999933D01*
X189968645Y-112621285D02*
X190157457Y-112222075D01*
X190157457Y-33777924D02*
X189968645Y-33378714D01*
X190157457Y-69222075D02*
X190306231Y-68806281D01*
X190157457Y-76777924D02*
X189968645Y-76378714D01*
X190157457Y-112222075D02*
X190306231Y-111806281D01*
X190306231Y-34193718D02*
X190157457Y-33777924D01*
X190306231Y-68806281D02*
X190413533Y-68377906D01*
X190306231Y-77193718D02*
X190157457Y-76777924D01*
X190306231Y-111806281D02*
X190413533Y-111377906D01*
X190413533Y-34622093D02*
X190306231Y-34193718D01*
X190413533Y-68377906D02*
X190478331Y-67941077D01*
X190413533Y-77622093D02*
X190306231Y-77193718D01*
X190413533Y-111377906D02*
X190478331Y-110941077D01*
X190478331Y-35058922D02*
X190413533Y-34622093D01*
X190478331Y-67941077D02*
X190500000Y-67500000D01*
X190478331Y-78058922D02*
X190413533Y-77622093D01*
X190478331Y-110941077D02*
X190500000Y-110500000D01*
X190500000Y-20000000D02*
X106500000Y-20000000D01*
X190500000Y-26000000D02*
X190500000Y-20000000D01*
X190500000Y-35500000D02*
X190478331Y-35058922D01*
X190500000Y-67500000D02*
X190500000Y-35500000D01*
X190500000Y-78500000D02*
X190478331Y-78058922D01*
X190500000Y-110500000D02*
X190500000Y-78500000D01*
X190500000Y-120000000D02*
X171500000Y-120000000D01*
X190500000Y-126000000D02*
X190500000Y-120000000D01*
M02*
