G04 #@! TF.GenerationSoftware,KiCad,Pcbnew,10.0.3*
G04 #@! TF.ProjectId,Speakeasy_panel,53706561-6b65-4617-9379-5f70616e656c,rev?*
G04 #@! TF.SameCoordinates,Original*
G04 #@! TF.FileFunction,Soldermask,Top*
G04 #@! TF.FilePolarity,Negative*
%FSLAX46Y46*%
G04 Gerber Fmt 4.6, Leading zero omitted, Abs format (unit mm)*
%MOMM*%
%LPD*%
G01*
G04 APERTURE LIST*
G04 Aperture macros list*
%AMRotRect*
0 Rectangle, with rotation*
0 The origin of the aperture is its center*
0 $1 length*
0 $2 width*
0 $3 Rotation angle, in degrees counterclockwise*
0 Add horizontal line*
21,1,$1,$2,0,0,$3*%
%AMFreePoly0*
4,1,14,0.635227,0.635252,0.649872,0.599897,0.649872,-0.600100,0.635227,-0.635455,0.599872,-0.650100,-0.600126,-0.650100,-0.635481,-0.635455,-0.650126,-0.600100,-0.650126,-0.000102,-0.635481,0.035253,-0.035482,0.635252,-0.000127,0.649897,0.599872,0.649897,0.635227,0.635252,0.635227,0.635252,$1*%
%AMFreePoly1*
4,1,14,0.435426,0.135436,0.535430,0.035431,0.550075,0.000076,0.550075,-0.100051,0.535430,-0.135406,0.500075,-0.150051,-0.549910,-0.150051,-0.585265,-0.135406,-0.599910,-0.100051,-0.599910,0.099949,-0.585265,0.135304,-0.549917,0.149949,0.400068,0.150076,0.435426,0.135436,0.435426,0.135436,$1*%
%AMFreePoly2*
4,1,29,0.585214,0.635303,0.599859,0.599948,0.599859,-0.600050,0.585214,-0.635405,0.549859,-0.650050,-0.000076,-0.650050,-0.035431,-0.635405,-0.050076,-0.600050,-0.050076,-0.500037,-0.500177,-0.500037,-0.535532,-0.485392,-0.550177,-0.450037,-0.550177,-0.200152,-0.535532,-0.164797,-0.500177,-0.150152,-0.050076,-0.150152,-0.050076,0.149974,-0.500177,0.149974,-0.535532,0.164619,-0.550177,0.199974,
-0.550177,0.449936,-0.535532,0.485291,-0.500177,0.499936,-0.050076,0.499936,-0.050076,0.599948,-0.035431,0.635303,-0.000076,0.649948,0.549859,0.649948,0.585214,0.635303,0.585214,0.635303,$1*%
%AMFreePoly3*
4,1,29,0.035380,0.635328,0.050025,0.599973,0.050025,0.499986,0.500024,0.499986,0.535379,0.485341,0.550024,0.449986,0.550024,0.199974,0.535379,0.164619,0.500024,0.149974,0.050025,0.149974,0.050025,-0.150025,0.500024,-0.150025,0.535379,-0.164670,0.550024,-0.200025,0.550024,-0.450012,0.535379,-0.485367,0.500024,-0.500012,0.050025,-0.500012,0.050025,-0.600024,0.035380,-0.635379,
0.000025,-0.650024,-0.549961,-0.650024,-0.585316,-0.635379,-0.599961,-0.600024,-0.599961,0.599973,-0.585316,0.635328,-0.549961,0.649973,0.000025,0.649973,0.035380,0.635328,0.035380,0.635328,$1*%
G04 Aperture macros list end*
%ADD10R,0.540000X0.500000*%
%ADD11C,0.500000*%
%ADD12C,2.000000*%
%ADD13C,0.800000*%
%ADD14C,6.400000*%
%ADD15C,1.600000*%
%ADD16RotRect,1.400000X5.000000X142.000000*%
%ADD17R,0.900000X0.800000*%
%ADD18R,0.540000X0.566000*%
%ADD19R,0.600000X0.250000*%
%ADD20R,0.250000X0.600000*%
%ADD21R,1.500000X1.500000*%
%ADD22R,0.800000X0.400000*%
%ADD23R,0.400000X0.800000*%
%ADD24FreePoly0,180.000000*%
%ADD25R,1.200000X1.200000*%
%ADD26R,0.800000X0.800000*%
%ADD27R,0.566000X0.540000*%
%ADD28R,1.230000X1.860000*%
%ADD29R,3.000000X1.000000*%
%ADD30R,2.500000X1.500000*%
%ADD31FreePoly1,0.000000*%
%ADD32R,1.050000X0.200000*%
%ADD33FreePoly2,0.000000*%
%ADD34FreePoly3,0.000000*%
%ADD35R,0.200000X0.700000*%
G04 APERTURE END LIST*
D10*
X179750000Y-106250000D03*
X179750000Y-107090000D03*
D11*
X170400000Y-74000000D03*
X149500000Y-53500000D03*
X128200000Y-31000000D03*
D12*
X185500000Y-23500000D03*
D13*
X183600000Y-110500000D03*
X184302944Y-108802944D03*
X184302944Y-112197056D03*
X186000000Y-108100000D03*
D14*
X186000000Y-110500000D03*
D13*
X186000000Y-112900000D03*
X187697056Y-108802944D03*
X187697056Y-112197056D03*
X188400000Y-110500000D03*
D15*
X138842098Y-87040952D03*
X131750001Y-81500000D03*
D16*
X133288928Y-89681944D03*
X130530892Y-87527126D03*
D11*
X147500000Y-93300000D03*
X126600000Y-31000000D03*
D17*
X183000000Y-103050000D03*
X183000000Y-104450000D03*
D18*
X164250000Y-50000000D03*
X164250000Y-49140000D03*
D11*
X147500000Y-92500000D03*
D18*
X120000000Y-50110000D03*
X120000000Y-49250000D03*
D10*
X178500000Y-63250000D03*
X178500000Y-64090000D03*
D18*
X112250000Y-87610000D03*
X112250000Y-86750000D03*
D11*
X149500000Y-96500000D03*
X169600000Y-72000000D03*
X147500000Y-52700000D03*
X125800000Y-74000000D03*
D10*
X170500000Y-50750000D03*
X170500000Y-49910000D03*
D11*
X147500000Y-49500000D03*
X125800000Y-72000000D03*
D13*
X108600000Y-35500000D03*
X109302944Y-33802944D03*
X109302944Y-37197056D03*
X111000000Y-33100000D03*
D14*
X111000000Y-35500000D03*
D13*
X111000000Y-37900000D03*
X112697056Y-33802944D03*
X112697056Y-37197056D03*
X113400000Y-35500000D03*
D19*
X122500000Y-91500000D03*
X122500000Y-92000000D03*
X122500000Y-92500000D03*
X122500000Y-93000000D03*
D20*
X123250000Y-93750000D03*
X123750000Y-93750000D03*
X124250000Y-93750000D03*
X124750000Y-93750000D03*
D19*
X125500000Y-93000000D03*
X125500000Y-92500000D03*
X125500000Y-92000000D03*
X125500000Y-91500000D03*
D20*
X124750000Y-90750000D03*
X124250000Y-90750000D03*
X123750000Y-90750000D03*
X123250000Y-90750000D03*
D21*
X124000000Y-92250000D03*
D11*
X147500000Y-96500000D03*
X125000000Y-115000000D03*
X172000000Y-72000000D03*
X147500000Y-94100000D03*
X170400000Y-115000000D03*
X172000000Y-74000000D03*
D13*
X151600000Y-78500000D03*
X152302944Y-76802944D03*
X152302944Y-80197056D03*
X154000000Y-76100000D03*
D14*
X154000000Y-78500000D03*
D13*
X154000000Y-80900000D03*
X155697056Y-76802944D03*
X155697056Y-80197056D03*
X156400000Y-78500000D03*
D11*
X127400000Y-74000000D03*
D15*
X181842098Y-44040952D03*
X174750001Y-38500000D03*
D16*
X176288928Y-46681944D03*
X173530892Y-44527126D03*
D11*
X127400000Y-31000000D03*
D22*
X176999999Y-107950000D03*
X177000000Y-107099998D03*
X177000000Y-106250000D03*
X176999999Y-105400001D03*
X177000000Y-104550000D03*
X177000002Y-103700000D03*
X177000000Y-102850002D03*
X177000000Y-102000001D03*
X176999999Y-101150001D03*
X177000000Y-100300000D03*
X176999999Y-99450000D03*
X177000001Y-98600000D03*
X176999999Y-97750000D03*
X176999999Y-96900000D03*
X177000000Y-96050000D03*
D23*
X175950000Y-95000001D03*
X175099998Y-95000000D03*
X174250000Y-95000000D03*
X173400001Y-95000001D03*
X172550000Y-95000000D03*
X171700000Y-94999998D03*
X170850002Y-95000000D03*
X170000001Y-95000000D03*
X169150001Y-95000001D03*
X168300000Y-95000000D03*
X167450000Y-95000001D03*
X166600000Y-94999999D03*
X165750000Y-95000001D03*
X164900000Y-95000001D03*
X164050000Y-95000000D03*
D22*
X163000001Y-96050000D03*
X163000000Y-96900002D03*
X163000000Y-97750000D03*
X163000001Y-98599999D03*
X163000000Y-99450000D03*
X162999998Y-100300000D03*
X163000000Y-101149998D03*
X163000000Y-101999999D03*
X163000001Y-102849999D03*
X163000000Y-103700000D03*
X163000001Y-104550000D03*
X162999999Y-105400000D03*
X163000001Y-106250000D03*
X163000001Y-107100000D03*
X163000000Y-107950000D03*
D23*
X164050000Y-108999999D03*
X164900002Y-109000000D03*
X165750000Y-109000000D03*
X166599999Y-108999999D03*
X167450000Y-109000000D03*
X168300000Y-109000002D03*
X169149998Y-109000000D03*
X169999999Y-109000000D03*
X170849999Y-108999999D03*
X171700000Y-109000000D03*
X172550000Y-108999999D03*
X173400000Y-109000001D03*
X174250000Y-108999999D03*
X175100000Y-108999999D03*
X175950000Y-109000000D03*
D24*
X171650000Y-103650000D03*
D25*
X171650000Y-102000000D03*
X171650000Y-100350000D03*
X170000000Y-103650000D03*
X170000000Y-102000000D03*
X170000000Y-100350000D03*
X168350000Y-103650000D03*
X168350000Y-102000000D03*
X168350000Y-100350000D03*
D26*
X177000000Y-109000000D03*
X177000000Y-95000000D03*
X163000000Y-95000000D03*
X163000000Y-109000000D03*
D22*
X133999999Y-64950000D03*
X134000000Y-64099998D03*
X134000000Y-63250000D03*
X133999999Y-62400001D03*
X134000000Y-61550000D03*
X134000002Y-60700000D03*
X134000000Y-59850002D03*
X134000000Y-59000001D03*
X133999999Y-58150001D03*
X134000000Y-57300000D03*
X133999999Y-56450000D03*
X134000001Y-55600000D03*
X133999999Y-54750000D03*
X133999999Y-53900000D03*
X134000000Y-53050000D03*
D23*
X132950000Y-52000001D03*
X132099998Y-52000000D03*
X131250000Y-52000000D03*
X130400001Y-52000001D03*
X129550000Y-52000000D03*
X128700000Y-51999998D03*
X127850002Y-52000000D03*
X127000001Y-52000000D03*
X126150001Y-52000001D03*
X125300000Y-52000000D03*
X124450000Y-52000001D03*
X123600000Y-51999999D03*
X122750000Y-52000001D03*
X121900000Y-52000001D03*
X121050000Y-52000000D03*
D22*
X120000001Y-53050000D03*
X120000000Y-53900002D03*
X120000000Y-54750000D03*
X120000001Y-55599999D03*
X120000000Y-56450000D03*
X119999998Y-57300000D03*
X120000000Y-58149998D03*
X120000000Y-58999999D03*
X120000001Y-59849999D03*
X120000000Y-60700000D03*
X120000001Y-61550000D03*
X119999999Y-62400000D03*
X120000001Y-63250000D03*
X120000001Y-64100000D03*
X120000000Y-64950000D03*
D23*
X121050000Y-65999999D03*
X121900002Y-66000000D03*
X122750000Y-66000000D03*
X123599999Y-65999999D03*
X124450000Y-66000000D03*
X125300000Y-66000002D03*
X126149998Y-66000000D03*
X126999999Y-66000000D03*
X127849999Y-65999999D03*
X128700000Y-66000000D03*
X129550000Y-65999999D03*
X130400000Y-66000001D03*
X131250000Y-65999999D03*
X132100000Y-65999999D03*
X132950000Y-66000000D03*
D24*
X128650000Y-60650000D03*
D25*
X128650000Y-59000000D03*
X128650000Y-57350000D03*
X127000000Y-60650000D03*
X127000000Y-59000000D03*
X127000000Y-57350000D03*
X125350000Y-60650000D03*
X125350000Y-59000000D03*
X125350000Y-57350000D03*
D26*
X134000000Y-66000000D03*
X134000000Y-52000000D03*
X120000000Y-52000000D03*
X120000000Y-66000000D03*
D11*
X149500000Y-94900000D03*
X149500000Y-50300000D03*
X171200000Y-31000000D03*
X171200000Y-72000000D03*
X149500000Y-51900000D03*
D10*
X136750000Y-63250000D03*
X136750000Y-64090000D03*
D11*
X125000000Y-74000000D03*
D10*
X170500000Y-93750000D03*
X170500000Y-92910000D03*
D13*
X151600000Y-35500000D03*
X152302944Y-33802944D03*
X152302944Y-37197056D03*
X154000000Y-33100000D03*
D14*
X154000000Y-35500000D03*
D13*
X154000000Y-37900000D03*
X155697056Y-33802944D03*
X155697056Y-37197056D03*
X156400000Y-35500000D03*
D11*
X125800000Y-115000000D03*
D18*
X121250000Y-93000000D03*
X121250000Y-92140000D03*
D27*
X113890000Y-41500000D03*
X114750000Y-41500000D03*
D10*
X127500000Y-93750000D03*
X127500000Y-92910000D03*
D11*
X170400000Y-31000000D03*
X149500000Y-94100000D03*
D28*
X118360000Y-61500000D03*
X114000000Y-61500000D03*
D11*
X171200000Y-74000000D03*
D18*
X112250000Y-44610000D03*
X112250000Y-43750000D03*
D10*
X178500000Y-106250000D03*
X178500000Y-107090000D03*
D13*
X151600000Y-67500000D03*
X152302944Y-65802944D03*
X152302944Y-69197056D03*
X154000000Y-65100000D03*
D14*
X154000000Y-67500000D03*
D13*
X154000000Y-69900000D03*
X155697056Y-65802944D03*
X155697056Y-69197056D03*
X156400000Y-67500000D03*
D29*
X154847500Y-99239999D03*
X154847500Y-97240000D03*
X154847499Y-95240000D03*
X154847499Y-93240001D03*
X154847500Y-91239999D03*
X154847499Y-89240001D03*
D30*
X158547500Y-102000000D03*
X158547500Y-86500000D03*
D11*
X127400000Y-115000000D03*
D28*
X161360000Y-61500000D03*
X157000000Y-61500000D03*
D11*
X125000000Y-31000000D03*
D29*
X111847500Y-99239999D03*
X111847500Y-97240000D03*
X111847499Y-95240000D03*
X111847499Y-93240001D03*
X111847500Y-91239999D03*
X111847499Y-89240001D03*
D30*
X115547500Y-102000000D03*
X115547500Y-86500000D03*
D10*
X171500000Y-93750000D03*
X171500000Y-92910000D03*
D11*
X168000000Y-74000000D03*
D31*
X179550000Y-103250000D03*
D32*
X179520000Y-103650000D03*
D33*
X179500000Y-104620000D03*
D34*
X181600000Y-104620000D03*
D32*
X181580000Y-103650000D03*
X181580000Y-103250000D03*
D35*
X181150000Y-102500000D03*
X180750000Y-102500000D03*
X180350000Y-102500000D03*
X179950000Y-102500000D03*
D29*
X111847500Y-56239999D03*
X111847500Y-54240000D03*
X111847499Y-52240000D03*
X111847499Y-50240001D03*
X111847500Y-48239999D03*
X111847499Y-46240001D03*
D30*
X115547500Y-59000000D03*
X115547500Y-43500000D03*
D11*
X147500000Y-94900000D03*
D18*
X164250000Y-93000000D03*
X164250000Y-92140000D03*
D11*
X168800000Y-115000000D03*
D10*
X179750000Y-63250000D03*
X179750000Y-64090000D03*
D11*
X168000000Y-115000000D03*
D18*
X163000000Y-50110000D03*
X163000000Y-49250000D03*
X121250000Y-50000000D03*
X121250000Y-49140000D03*
D11*
X128200000Y-74000000D03*
X129000000Y-115000000D03*
X149500000Y-52700000D03*
X149500000Y-92500000D03*
X168800000Y-72000000D03*
D17*
X183000000Y-60050000D03*
X183000000Y-61450000D03*
D11*
X147500000Y-95700000D03*
D18*
X118250000Y-108750000D03*
X118250000Y-107890000D03*
D11*
X168800000Y-31000000D03*
X147500000Y-51100000D03*
D12*
X111500000Y-122500000D03*
D10*
X135500000Y-63250000D03*
X135500000Y-64090000D03*
D11*
X149500000Y-93300000D03*
X169600000Y-74000000D03*
X169600000Y-31000000D03*
X149500000Y-49500000D03*
D13*
X183600000Y-78500000D03*
X184302944Y-76802944D03*
X184302944Y-80197056D03*
X186000000Y-76100000D03*
D14*
X186000000Y-78500000D03*
D13*
X186000000Y-80900000D03*
X187697056Y-76802944D03*
X187697056Y-80197056D03*
X188400000Y-78500000D03*
D19*
X122500000Y-48500000D03*
X122500000Y-49000000D03*
X122500000Y-49500000D03*
X122500000Y-50000000D03*
D20*
X123250000Y-50750000D03*
X123750000Y-50750000D03*
X124250000Y-50750000D03*
X124750000Y-50750000D03*
D19*
X125500000Y-50000000D03*
X125500000Y-49500000D03*
X125500000Y-49000000D03*
X125500000Y-48500000D03*
D20*
X124750000Y-47750000D03*
X124250000Y-47750000D03*
X123750000Y-47750000D03*
X123250000Y-47750000D03*
D21*
X124000000Y-49250000D03*
D11*
X170400000Y-72000000D03*
D27*
X156890000Y-41500000D03*
X157750000Y-41500000D03*
D31*
X179550000Y-60250000D03*
D32*
X179520000Y-60650000D03*
D33*
X179500000Y-61620000D03*
D34*
X181600000Y-61620000D03*
D32*
X181580000Y-60650000D03*
X181580000Y-60250000D03*
D35*
X181150000Y-59500000D03*
X180750000Y-59500000D03*
X180350000Y-59500000D03*
X179950000Y-59500000D03*
D10*
X127500000Y-50750000D03*
X127500000Y-49910000D03*
X171500000Y-50750000D03*
X171500000Y-49910000D03*
D13*
X140600000Y-67500000D03*
X141302944Y-65802944D03*
X141302944Y-69197056D03*
X143000000Y-65100000D03*
D14*
X143000000Y-67500000D03*
D13*
X143000000Y-69900000D03*
X144697056Y-65802944D03*
X144697056Y-69197056D03*
X145400000Y-67500000D03*
D19*
X165500000Y-91500000D03*
X165500000Y-92000000D03*
X165500000Y-92500000D03*
X165500000Y-93000000D03*
D20*
X166250000Y-93750000D03*
X166750000Y-93750000D03*
X167250000Y-93750000D03*
X167750000Y-93750000D03*
D19*
X168500000Y-93000000D03*
X168500000Y-92500000D03*
X168500000Y-92000000D03*
X168500000Y-91500000D03*
D20*
X167750000Y-90750000D03*
X167250000Y-90750000D03*
X166750000Y-90750000D03*
X166250000Y-90750000D03*
D21*
X167000000Y-92250000D03*
D12*
X109000000Y-22500000D03*
D11*
X128200000Y-72000000D03*
D13*
X140600000Y-78500000D03*
X141302944Y-76802944D03*
X141302944Y-80197056D03*
X143000000Y-76100000D03*
D14*
X143000000Y-78500000D03*
D13*
X143000000Y-80900000D03*
X144697056Y-76802944D03*
X144697056Y-80197056D03*
X145400000Y-78500000D03*
D28*
X180820000Y-100000000D03*
X185180000Y-100000000D03*
D18*
X163000000Y-93110000D03*
X163000000Y-92250000D03*
D11*
X126600000Y-115000000D03*
D18*
X155250000Y-44610000D03*
X155250000Y-43750000D03*
D13*
X108600000Y-67500000D03*
X109302944Y-65802944D03*
X109302944Y-69197056D03*
X111000000Y-65100000D03*
D14*
X111000000Y-67500000D03*
D13*
X111000000Y-69900000D03*
X112697056Y-65802944D03*
X112697056Y-69197056D03*
X113400000Y-67500000D03*
D18*
X155250000Y-87610000D03*
X155250000Y-86750000D03*
D13*
X140600000Y-110500000D03*
X141302944Y-108802944D03*
X141302944Y-112197056D03*
X143000000Y-108100000D03*
D14*
X143000000Y-110500000D03*
D13*
X143000000Y-112900000D03*
X144697056Y-108802944D03*
X144697056Y-112197056D03*
X145400000Y-110500000D03*
D19*
X165500000Y-48500000D03*
X165500000Y-49000000D03*
X165500000Y-49500000D03*
X165500000Y-50000000D03*
D20*
X166250000Y-50750000D03*
X166750000Y-50750000D03*
X167250000Y-50750000D03*
X167750000Y-50750000D03*
D19*
X168500000Y-50000000D03*
X168500000Y-49500000D03*
X168500000Y-49000000D03*
X168500000Y-48500000D03*
D20*
X167750000Y-47750000D03*
X167250000Y-47750000D03*
X166750000Y-47750000D03*
X166250000Y-47750000D03*
D21*
X167000000Y-49250000D03*
D27*
X113890000Y-84500000D03*
X114750000Y-84500000D03*
D10*
X128500000Y-50750000D03*
X128500000Y-49910000D03*
D13*
X183600000Y-35500000D03*
X184302944Y-33802944D03*
X184302944Y-37197056D03*
X186000000Y-33100000D03*
D14*
X186000000Y-35500000D03*
D13*
X186000000Y-37900000D03*
X187697056Y-33802944D03*
X187697056Y-37197056D03*
X188400000Y-35500000D03*
D11*
X125800000Y-31000000D03*
D12*
X109000000Y-123500000D03*
D11*
X129000000Y-72000000D03*
X147500000Y-53500000D03*
D13*
X108600000Y-78500000D03*
X109302944Y-76802944D03*
X109302944Y-80197056D03*
X111000000Y-76100000D03*
D14*
X111000000Y-78500000D03*
D13*
X111000000Y-80900000D03*
X112697056Y-76802944D03*
X112697056Y-80197056D03*
X113400000Y-78500000D03*
D18*
X161250000Y-108750000D03*
X161250000Y-107890000D03*
D11*
X125000000Y-72000000D03*
D13*
X183600000Y-67500000D03*
X184302944Y-65802944D03*
X184302944Y-69197056D03*
X186000000Y-65100000D03*
D14*
X186000000Y-67500000D03*
D13*
X186000000Y-69900000D03*
X187697056Y-65802944D03*
X187697056Y-69197056D03*
X188400000Y-67500000D03*
D18*
X161250000Y-65750000D03*
X161250000Y-64890000D03*
D12*
X188000000Y-22500000D03*
D11*
X127400000Y-72000000D03*
X147500000Y-51900000D03*
X129000000Y-31000000D03*
D29*
X154847500Y-56239999D03*
X154847500Y-54240000D03*
X154847499Y-52240000D03*
X154847499Y-50240001D03*
X154847500Y-48239999D03*
X154847499Y-46240001D03*
D30*
X158547500Y-59000000D03*
X158547500Y-43500000D03*
D11*
X169600000Y-115000000D03*
D13*
X140600000Y-35500000D03*
X141302944Y-33802944D03*
X141302944Y-37197056D03*
X143000000Y-33100000D03*
D14*
X143000000Y-35500000D03*
D13*
X143000000Y-37900000D03*
X144697056Y-33802944D03*
X144697056Y-37197056D03*
X145400000Y-35500000D03*
D11*
X168800000Y-74000000D03*
D17*
X140000000Y-60050000D03*
X140000000Y-61450000D03*
D15*
X138842098Y-44040952D03*
X131750001Y-38500000D03*
D16*
X133288928Y-46681944D03*
X130530892Y-44527126D03*
D10*
X136750000Y-106250000D03*
X136750000Y-107090000D03*
D17*
X140000000Y-103050000D03*
X140000000Y-104450000D03*
D11*
X168000000Y-31000000D03*
X149500000Y-95700000D03*
X149500000Y-51100000D03*
D22*
X176999999Y-64950000D03*
X177000000Y-64099998D03*
X177000000Y-63250000D03*
X176999999Y-62400001D03*
X177000000Y-61550000D03*
X177000002Y-60700000D03*
X177000000Y-59850002D03*
X177000000Y-59000001D03*
X176999999Y-58150001D03*
X177000000Y-57300000D03*
X176999999Y-56450000D03*
X177000001Y-55600000D03*
X176999999Y-54750000D03*
X176999999Y-53900000D03*
X177000000Y-53050000D03*
D23*
X175950000Y-52000001D03*
X175099998Y-52000000D03*
X174250000Y-52000000D03*
X173400001Y-52000001D03*
X172550000Y-52000000D03*
X171700000Y-51999998D03*
X170850002Y-52000000D03*
X170000001Y-52000000D03*
X169150001Y-52000001D03*
X168300000Y-52000000D03*
X167450000Y-52000001D03*
X166600000Y-51999999D03*
X165750000Y-52000001D03*
X164900000Y-52000001D03*
X164050000Y-52000000D03*
D22*
X163000001Y-53050000D03*
X163000000Y-53900002D03*
X163000000Y-54750000D03*
X163000001Y-55599999D03*
X163000000Y-56450000D03*
X162999998Y-57300000D03*
X163000000Y-58149998D03*
X163000000Y-58999999D03*
X163000001Y-59849999D03*
X163000000Y-60700000D03*
X163000001Y-61550000D03*
X162999999Y-62400000D03*
X163000001Y-63250000D03*
X163000001Y-64100000D03*
X163000000Y-64950000D03*
D23*
X164050000Y-65999999D03*
X164900002Y-66000000D03*
X165750000Y-66000000D03*
X166599999Y-65999999D03*
X167450000Y-66000000D03*
X168300000Y-66000002D03*
X169149998Y-66000000D03*
X169999999Y-66000000D03*
X170849999Y-65999999D03*
X171700000Y-66000000D03*
X172550000Y-65999999D03*
X173400000Y-66000001D03*
X174250000Y-65999999D03*
X175100000Y-65999999D03*
X175950000Y-66000000D03*
D24*
X171650000Y-60650000D03*
D25*
X171650000Y-59000000D03*
X171650000Y-57350000D03*
X170000000Y-60650000D03*
X170000000Y-59000000D03*
X170000000Y-57350000D03*
X168350000Y-60650000D03*
X168350000Y-59000000D03*
X168350000Y-57350000D03*
D26*
X177000000Y-66000000D03*
X177000000Y-52000000D03*
X163000000Y-52000000D03*
X163000000Y-66000000D03*
D10*
X128500000Y-93750000D03*
X128500000Y-92910000D03*
D11*
X172000000Y-31000000D03*
X126600000Y-74000000D03*
D13*
X108600000Y-110500000D03*
X109302944Y-108802944D03*
X109302944Y-112197056D03*
X111000000Y-108100000D03*
D14*
X111000000Y-110500000D03*
D13*
X111000000Y-112900000D03*
X112697056Y-108802944D03*
X112697056Y-112197056D03*
X113400000Y-110500000D03*
D18*
X118250000Y-65750000D03*
X118250000Y-64890000D03*
D27*
X156890000Y-84500000D03*
X157750000Y-84500000D03*
D11*
X129000000Y-74000000D03*
D28*
X180820000Y-57000000D03*
X185180000Y-57000000D03*
D11*
X128200000Y-115000000D03*
D31*
X136550000Y-103250000D03*
D32*
X136520000Y-103650000D03*
D33*
X136500000Y-104620000D03*
D34*
X138600000Y-104620000D03*
D32*
X138580000Y-103650000D03*
X138580000Y-103250000D03*
D35*
X138150000Y-102500000D03*
X137750000Y-102500000D03*
X137350000Y-102500000D03*
X136950000Y-102500000D03*
D28*
X118360000Y-104500000D03*
X114000000Y-104500000D03*
D18*
X120000000Y-93110000D03*
X120000000Y-92250000D03*
D28*
X161360000Y-104500000D03*
X157000000Y-104500000D03*
D11*
X147500000Y-50300000D03*
D31*
X136550000Y-60250000D03*
D32*
X136520000Y-60650000D03*
D33*
X136500000Y-61620000D03*
D34*
X138600000Y-61620000D03*
D32*
X138580000Y-60650000D03*
X138580000Y-60250000D03*
D35*
X138150000Y-59500000D03*
X137750000Y-59500000D03*
X137350000Y-59500000D03*
X136950000Y-59500000D03*
D15*
X181842098Y-87040952D03*
X174750001Y-81500000D03*
D16*
X176288928Y-89681944D03*
X173530892Y-87527126D03*
D22*
X133999999Y-107950000D03*
X134000000Y-107099998D03*
X134000000Y-106250000D03*
X133999999Y-105400001D03*
X134000000Y-104550000D03*
X134000002Y-103700000D03*
X134000000Y-102850002D03*
X134000000Y-102000001D03*
X133999999Y-101150001D03*
X134000000Y-100300000D03*
X133999999Y-99450000D03*
X134000001Y-98600000D03*
X133999999Y-97750000D03*
X133999999Y-96900000D03*
X134000000Y-96050000D03*
D23*
X132950000Y-95000001D03*
X132099998Y-95000000D03*
X131250000Y-95000000D03*
X130400001Y-95000001D03*
X129550000Y-95000000D03*
X128700000Y-94999998D03*
X127850002Y-95000000D03*
X127000001Y-95000000D03*
X126150001Y-95000001D03*
X125300000Y-95000000D03*
X124450000Y-95000001D03*
X123600000Y-94999999D03*
X122750000Y-95000001D03*
X121900000Y-95000001D03*
X121050000Y-95000000D03*
D22*
X120000001Y-96050000D03*
X120000000Y-96900002D03*
X120000000Y-97750000D03*
X120000001Y-98599999D03*
X120000000Y-99450000D03*
X119999998Y-100300000D03*
X120000000Y-101149998D03*
X120000000Y-101999999D03*
X120000001Y-102849999D03*
X120000000Y-103700000D03*
X120000001Y-104550000D03*
X119999999Y-105400000D03*
X120000001Y-106250000D03*
X120000001Y-107100000D03*
X120000000Y-107950000D03*
D23*
X121050000Y-108999999D03*
X121900002Y-109000000D03*
X122750000Y-109000000D03*
X123599999Y-108999999D03*
X124450000Y-109000000D03*
X125300000Y-109000002D03*
X126149998Y-109000000D03*
X126999999Y-109000000D03*
X127849999Y-108999999D03*
X128700000Y-109000000D03*
X129550000Y-108999999D03*
X130400000Y-109000001D03*
X131250000Y-108999999D03*
X132100000Y-108999999D03*
X132950000Y-109000000D03*
D24*
X128650000Y-103650000D03*
D25*
X128650000Y-102000000D03*
X128650000Y-100350000D03*
X127000000Y-103650000D03*
X127000000Y-102000000D03*
X127000000Y-100350000D03*
X125350000Y-103650000D03*
X125350000Y-102000000D03*
X125350000Y-100350000D03*
D26*
X134000000Y-109000000D03*
X134000000Y-95000000D03*
X120000000Y-95000000D03*
X120000000Y-109000000D03*
D13*
X151600000Y-110500000D03*
X152302944Y-108802944D03*
X152302944Y-112197056D03*
X154000000Y-108100000D03*
D14*
X154000000Y-110500000D03*
D13*
X154000000Y-112900000D03*
X155697056Y-108802944D03*
X155697056Y-112197056D03*
X156400000Y-110500000D03*
D11*
X126600000Y-72000000D03*
D28*
X137820000Y-57000000D03*
X142180000Y-57000000D03*
D12*
X111500000Y-23500000D03*
D11*
X171200000Y-115000000D03*
X172000000Y-115000000D03*
X168000000Y-72000000D03*
D28*
X137820000Y-100000000D03*
X142180000Y-100000000D03*
D10*
X135500000Y-106250000D03*
X135500000Y-107090000D03*
M02*
