G04 #@! TF.GenerationSoftware,KiCad,Pcbnew,10.0.3*
G04 #@! TF.ProjectId,Speakeasy_panel,53706561-6b65-4617-9379-5f70616e656c,rev?*
G04 #@! TF.SameCoordinates,Original*
G04 #@! TF.FileFunction,Copper,L2,Bot*
G04 #@! TF.FilePolarity,Positive*
%FSLAX46Y46*%
G04 Gerber Fmt 4.6, Leading zero omitted, Abs format (unit mm)*
%MOMM*%
%LPD*%
G01*
G04 APERTURE LIST*
G04 #@! TA.AperFunction,ComponentPad*
%ADD10C,0.800000*%
G04 #@! TD*
G04 #@! TA.AperFunction,ComponentPad*
%ADD11C,6.400000*%
G04 #@! TD*
G04 #@! TA.AperFunction,ComponentPad*
%ADD12C,1.600000*%
G04 #@! TD*
G04 #@! TA.AperFunction,SMDPad,CuDef*
%ADD13C,1.500000*%
G04 #@! TD*
G04 #@! TA.AperFunction,SMDPad,CuDef*
%ADD14C,1.000000*%
G04 #@! TD*
G04 #@! TA.AperFunction,ViaPad*
%ADD15C,0.600000*%
G04 #@! TD*
G04 #@! TA.AperFunction,Conductor*
%ADD16C,0.500000*%
G04 #@! TD*
G04 #@! TA.AperFunction,Conductor*
%ADD17C,0.200000*%
G04 #@! TD*
G04 APERTURE END LIST*
D10*
X183600000Y-110500000D03*
X184302944Y-108802944D03*
X184302944Y-112197056D03*
X186000000Y-108100000D03*
D11*
X186000000Y-110500000D03*
D10*
X186000000Y-112900000D03*
X187697056Y-108802944D03*
X187697056Y-112197056D03*
X188400000Y-110500000D03*
D12*
X138842098Y-87040952D03*
X131750001Y-81500000D03*
D10*
X108600000Y-35500000D03*
X109302944Y-33802944D03*
X109302944Y-37197056D03*
X111000000Y-33100000D03*
D11*
X111000000Y-35500000D03*
D10*
X111000000Y-37900000D03*
X112697056Y-33802944D03*
X112697056Y-37197056D03*
X113400000Y-35500000D03*
X151600000Y-78500000D03*
X152302944Y-76802944D03*
X152302944Y-80197056D03*
X154000000Y-76100000D03*
D11*
X154000000Y-78500000D03*
D10*
X154000000Y-80900000D03*
X155697056Y-76802944D03*
X155697056Y-80197056D03*
X156400000Y-78500000D03*
D12*
X181842098Y-44040952D03*
X174750001Y-38500000D03*
D10*
X151600000Y-35500000D03*
X152302944Y-33802944D03*
X152302944Y-37197056D03*
X154000000Y-33100000D03*
D11*
X154000000Y-35500000D03*
D10*
X154000000Y-37900000D03*
X155697056Y-33802944D03*
X155697056Y-37197056D03*
X156400000Y-35500000D03*
X151600000Y-67500000D03*
X152302944Y-65802944D03*
X152302944Y-69197056D03*
X154000000Y-65100000D03*
D11*
X154000000Y-67500000D03*
D10*
X154000000Y-69900000D03*
X155697056Y-65802944D03*
X155697056Y-69197056D03*
X156400000Y-67500000D03*
X183600000Y-78500000D03*
X184302944Y-76802944D03*
X184302944Y-80197056D03*
X186000000Y-76100000D03*
D11*
X186000000Y-78500000D03*
D10*
X186000000Y-80900000D03*
X187697056Y-76802944D03*
X187697056Y-80197056D03*
X188400000Y-78500000D03*
X140600000Y-67500000D03*
X141302944Y-65802944D03*
X141302944Y-69197056D03*
X143000000Y-65100000D03*
D11*
X143000000Y-67500000D03*
D10*
X143000000Y-69900000D03*
X144697056Y-65802944D03*
X144697056Y-69197056D03*
X145400000Y-67500000D03*
X140600000Y-78500000D03*
X141302944Y-76802944D03*
X141302944Y-80197056D03*
X143000000Y-76100000D03*
D11*
X143000000Y-78500000D03*
D10*
X143000000Y-80900000D03*
X144697056Y-76802944D03*
X144697056Y-80197056D03*
X145400000Y-78500000D03*
X108600000Y-67500000D03*
X109302944Y-65802944D03*
X109302944Y-69197056D03*
X111000000Y-65100000D03*
D11*
X111000000Y-67500000D03*
D10*
X111000000Y-69900000D03*
X112697056Y-65802944D03*
X112697056Y-69197056D03*
X113400000Y-67500000D03*
X140600000Y-110500000D03*
X141302944Y-108802944D03*
X141302944Y-112197056D03*
X143000000Y-108100000D03*
D11*
X143000000Y-110500000D03*
D10*
X143000000Y-112900000D03*
X144697056Y-108802944D03*
X144697056Y-112197056D03*
X145400000Y-110500000D03*
X183600000Y-35500000D03*
X184302944Y-33802944D03*
X184302944Y-37197056D03*
X186000000Y-33100000D03*
D11*
X186000000Y-35500000D03*
D10*
X186000000Y-37900000D03*
X187697056Y-33802944D03*
X187697056Y-37197056D03*
X188400000Y-35500000D03*
X108600000Y-78500000D03*
X109302944Y-76802944D03*
X109302944Y-80197056D03*
X111000000Y-76100000D03*
D11*
X111000000Y-78500000D03*
D10*
X111000000Y-80900000D03*
X112697056Y-76802944D03*
X112697056Y-80197056D03*
X113400000Y-78500000D03*
X183600000Y-67500000D03*
X184302944Y-65802944D03*
X184302944Y-69197056D03*
X186000000Y-65100000D03*
D11*
X186000000Y-67500000D03*
D10*
X186000000Y-69900000D03*
X187697056Y-65802944D03*
X187697056Y-69197056D03*
X188400000Y-67500000D03*
X140600000Y-35500000D03*
X141302944Y-33802944D03*
X141302944Y-37197056D03*
X143000000Y-33100000D03*
D11*
X143000000Y-35500000D03*
D10*
X143000000Y-37900000D03*
X144697056Y-33802944D03*
X144697056Y-37197056D03*
X145400000Y-35500000D03*
D12*
X138842098Y-44040952D03*
X131750001Y-38500000D03*
D10*
X108600000Y-110500000D03*
X109302944Y-108802944D03*
X109302944Y-112197056D03*
X111000000Y-108100000D03*
D11*
X111000000Y-110500000D03*
D10*
X111000000Y-112900000D03*
X112697056Y-108802944D03*
X112697056Y-112197056D03*
X113400000Y-110500000D03*
D12*
X181842098Y-87040952D03*
X174750001Y-81500000D03*
D10*
X151600000Y-110500000D03*
X152302944Y-108802944D03*
X152302944Y-112197056D03*
X154000000Y-108100000D03*
D11*
X154000000Y-110500000D03*
D10*
X154000000Y-112900000D03*
X155697056Y-108802944D03*
X155697056Y-112197056D03*
X156400000Y-110500000D03*
D13*
X175600000Y-69000000D03*
X129050000Y-69000000D03*
X172050000Y-112000000D03*
D14*
X111500000Y-23500000D03*
D13*
X172050000Y-69000000D03*
D14*
X185500000Y-23500000D03*
D13*
X121950000Y-112000000D03*
X129050000Y-112000000D03*
X168500000Y-69000000D03*
X125500000Y-69000000D03*
D14*
X111500000Y-122500000D03*
D13*
X132600000Y-112000000D03*
X175600000Y-112000000D03*
X164950000Y-112000000D03*
X132600000Y-69000000D03*
X164950000Y-69000000D03*
X168500000Y-112000000D03*
X121950000Y-69000000D03*
X125500000Y-112000000D03*
D15*
X161250000Y-108750000D03*
X181360000Y-104860000D03*
X179250000Y-101500000D03*
X177000000Y-106250000D03*
X157750000Y-84500000D03*
X163000001Y-106250000D03*
X158547500Y-86500000D03*
X156000000Y-99250000D03*
X154500000Y-99250000D03*
X171650000Y-100350000D03*
X162999999Y-105400000D03*
X163000000Y-109000000D03*
X178180000Y-103650000D03*
X168350000Y-102000000D03*
X175950000Y-109000000D03*
X160000000Y-92000000D03*
X153750000Y-99239999D03*
X175750000Y-97250000D03*
X174750000Y-96250000D03*
X155250000Y-99239999D03*
X157000000Y-93500000D03*
X169750000Y-90750000D03*
X167000000Y-107500000D03*
X165250000Y-89500000D03*
X166599999Y-108999999D03*
X164050000Y-108999999D03*
X167000000Y-92250000D03*
X164250000Y-106000000D03*
X176000000Y-104000000D03*
X154000000Y-86500000D03*
X164000000Y-99000000D03*
X180350000Y-101520000D03*
X157000000Y-92000000D03*
X177000000Y-107099998D03*
X172500000Y-104500000D03*
X171700000Y-109000000D03*
X172000000Y-103250000D03*
X175500000Y-96500000D03*
X172550000Y-108999999D03*
X175500000Y-102000000D03*
X175500000Y-100000000D03*
X164250000Y-104750000D03*
X176999999Y-107950000D03*
X168750000Y-90750000D03*
X156500000Y-86500000D03*
X167450000Y-109000000D03*
X170000000Y-102000000D03*
X156000000Y-85500000D03*
X174000000Y-89500000D03*
X155000000Y-85500000D03*
X166000000Y-106000000D03*
X160750000Y-86500000D03*
X170000000Y-107500000D03*
X166500000Y-91750000D03*
X172500000Y-93000000D03*
X177000000Y-109000000D03*
X178580000Y-102250000D03*
X157000000Y-89000000D03*
X170000000Y-100350000D03*
X173400000Y-109000001D03*
X173500000Y-91000000D03*
X164900002Y-109000000D03*
X158750000Y-93500000D03*
X169500000Y-91500000D03*
X173000000Y-85500000D03*
X170000000Y-104250000D03*
X167500000Y-91750000D03*
X168350000Y-103650000D03*
X160000000Y-84500000D03*
X171650000Y-102000000D03*
X168350000Y-100350000D03*
X164500000Y-102000000D03*
X172500000Y-107500000D03*
X168300000Y-109000002D03*
X173500000Y-84500000D03*
X164500000Y-107500000D03*
X171500000Y-87750000D03*
X172250000Y-96000000D03*
X171500000Y-93750000D03*
X161689339Y-97500000D03*
X176500000Y-93750000D03*
X166750000Y-98000000D03*
X183000000Y-103050000D03*
X164250000Y-50000000D03*
X176999999Y-56450000D03*
X120000000Y-50110000D03*
X134000001Y-55600000D03*
X161250000Y-65750000D03*
X181360000Y-61860000D03*
X179250000Y-58500000D03*
X177000000Y-63250000D03*
X164000000Y-56000000D03*
X160750000Y-43500000D03*
X173000000Y-42500000D03*
X172500000Y-61500000D03*
X173500000Y-41500000D03*
X171700000Y-66000000D03*
X171650000Y-59000000D03*
X167500000Y-48750000D03*
X171650000Y-57350000D03*
X174750000Y-53250000D03*
X170000000Y-57350000D03*
X175950000Y-66000000D03*
X155000000Y-42500000D03*
X166500000Y-48750000D03*
X168350000Y-60650000D03*
X164050000Y-65999999D03*
X176000000Y-61000000D03*
X167000000Y-49250000D03*
X157000000Y-50500000D03*
X157750000Y-41500000D03*
X163000000Y-66000000D03*
X173400000Y-66000001D03*
X158547500Y-43500000D03*
X169500000Y-48500000D03*
X166000000Y-63000000D03*
X177000000Y-64099998D03*
X172500000Y-64500000D03*
X172000000Y-60250000D03*
X160000000Y-41500000D03*
X175750000Y-54250000D03*
X174000000Y-46500000D03*
X162999999Y-62400000D03*
X164900002Y-66000000D03*
X164500000Y-59000000D03*
X175500000Y-53500000D03*
X154500000Y-56250000D03*
X178580000Y-59250000D03*
X156000000Y-56250000D03*
X177000000Y-66000000D03*
X178180000Y-60650000D03*
X170000000Y-61250000D03*
X167000000Y-64500000D03*
X164250000Y-61750000D03*
X172550000Y-65999999D03*
X156000000Y-42500000D03*
X168300000Y-66000002D03*
X172500000Y-50000000D03*
X158750000Y-50500000D03*
X171500000Y-44750000D03*
X176999999Y-64950000D03*
X168350000Y-59000000D03*
X160000000Y-49000000D03*
X166599999Y-65999999D03*
X173500000Y-48000000D03*
X169750000Y-47750000D03*
X175500000Y-57000000D03*
X165250000Y-46500000D03*
X154000000Y-43500000D03*
X156500000Y-43500000D03*
X164250000Y-63000000D03*
X168750000Y-47750000D03*
X170000000Y-64500000D03*
X168350000Y-57350000D03*
X175500000Y-59000000D03*
X155250000Y-56239999D03*
X157000000Y-46000000D03*
X180350000Y-58520000D03*
X157000000Y-49000000D03*
X164500000Y-64500000D03*
X153750000Y-56239999D03*
X167450000Y-66000000D03*
X163000001Y-63250000D03*
X170000000Y-59000000D03*
X132500000Y-96500000D03*
X124000000Y-107500000D03*
X124000000Y-92250000D03*
X128650000Y-100350000D03*
X121050000Y-108999999D03*
X130000000Y-85500000D03*
X125350000Y-103650000D03*
X129500000Y-107500000D03*
X121500000Y-102000000D03*
X132500000Y-100000000D03*
X128500000Y-87750000D03*
X114000000Y-92000000D03*
X121250000Y-104750000D03*
X121500000Y-107500000D03*
X130500000Y-84500000D03*
X129550000Y-108999999D03*
X127000000Y-100350000D03*
X133999999Y-107950000D03*
X134000000Y-107099998D03*
X113000000Y-99250000D03*
X112250000Y-99239999D03*
X130500000Y-91000000D03*
X111000000Y-86500000D03*
X117750000Y-86500000D03*
X121900002Y-109000000D03*
X120000001Y-106250000D03*
X125350000Y-100350000D03*
X129500000Y-104500000D03*
X122250000Y-89500000D03*
X117000000Y-92000000D03*
X131750000Y-96250000D03*
X124450000Y-109000000D03*
X124500000Y-91750000D03*
X127000000Y-107500000D03*
X135180000Y-103650000D03*
X125750000Y-90750000D03*
X132950000Y-109000000D03*
X123000000Y-106000000D03*
X132750000Y-97250000D03*
X123500000Y-91750000D03*
X114750000Y-84500000D03*
X121000000Y-99000000D03*
X127000000Y-102000000D03*
X113500000Y-86500000D03*
X135580000Y-102250000D03*
X110750000Y-99239999D03*
X114000000Y-93500000D03*
X130400000Y-109000001D03*
X134000000Y-109000000D03*
X125350000Y-102000000D03*
X132500000Y-102000000D03*
X113000000Y-85500000D03*
X127000000Y-104250000D03*
X115547500Y-86500000D03*
X125300000Y-109000002D03*
X121250000Y-106000000D03*
X128650000Y-102000000D03*
X129500000Y-93000000D03*
X112000000Y-85500000D03*
X129000000Y-103250000D03*
X128700000Y-109000000D03*
X126750000Y-90750000D03*
X131000000Y-89500000D03*
X115750000Y-93500000D03*
X133000000Y-104000000D03*
X114000000Y-89000000D03*
X119999999Y-105400000D03*
X123599999Y-108999999D03*
X126500000Y-91500000D03*
X117000000Y-84500000D03*
X111500000Y-99250000D03*
X120000000Y-109000000D03*
X137350000Y-101520000D03*
X171500000Y-50750000D03*
X161689339Y-54500000D03*
X176500000Y-50750000D03*
X172250000Y-53000000D03*
X166750000Y-55000000D03*
X183000000Y-60050000D03*
X130400000Y-66000001D03*
X134000000Y-66000000D03*
X126750000Y-47750000D03*
X121900002Y-66000000D03*
X123000000Y-63000000D03*
X130500000Y-48000000D03*
X135180000Y-60650000D03*
X125350000Y-57350000D03*
X111500000Y-56250000D03*
X114750000Y-41500000D03*
X132500000Y-57000000D03*
X121250000Y-63000000D03*
X117000000Y-41500000D03*
X123500000Y-48750000D03*
X128650000Y-57350000D03*
X137350000Y-58520000D03*
X126500000Y-48500000D03*
X121250000Y-61750000D03*
X121500000Y-59000000D03*
X115750000Y-50500000D03*
X129500000Y-61500000D03*
X112000000Y-42500000D03*
X125750000Y-47750000D03*
X133000000Y-61000000D03*
X132950000Y-66000000D03*
X122250000Y-46500000D03*
X129500000Y-50000000D03*
X110750000Y-56239999D03*
X119999999Y-62400000D03*
X124000000Y-49250000D03*
X130500000Y-41500000D03*
X114000000Y-49000000D03*
X132500000Y-53500000D03*
X117000000Y-49000000D03*
X129550000Y-65999999D03*
X128650000Y-59000000D03*
X114000000Y-46000000D03*
X113000000Y-56250000D03*
X120000001Y-63250000D03*
X125350000Y-59000000D03*
X134000000Y-64099998D03*
X114000000Y-50500000D03*
X115547500Y-43500000D03*
X124450000Y-66000000D03*
X129500000Y-64500000D03*
X127000000Y-59000000D03*
X127000000Y-57350000D03*
X123599999Y-65999999D03*
X127000000Y-61250000D03*
X120000000Y-66000000D03*
X121500000Y-64500000D03*
X131750000Y-53250000D03*
X128700000Y-66000000D03*
X135580000Y-59250000D03*
X131000000Y-46500000D03*
X121000000Y-56000000D03*
X130000000Y-42500000D03*
X124000000Y-64500000D03*
X133999999Y-64950000D03*
X127000000Y-64500000D03*
X111000000Y-43500000D03*
X125350000Y-60650000D03*
X121050000Y-65999999D03*
X132750000Y-54250000D03*
X128500000Y-44750000D03*
X112250000Y-56239999D03*
X125300000Y-66000002D03*
X124500000Y-48750000D03*
X113500000Y-43500000D03*
X113000000Y-42500000D03*
X117750000Y-43500000D03*
X129000000Y-60250000D03*
X132500000Y-59000000D03*
X118750000Y-96500000D03*
X121750000Y-91250000D03*
X118750000Y-93750000D03*
X134000000Y-102000001D03*
X123750000Y-98000000D03*
X118689339Y-97500000D03*
X129250000Y-96000000D03*
X140000000Y-103050000D03*
X133500000Y-93750000D03*
X128500000Y-93750000D03*
X134000000Y-100300000D03*
X126443861Y-89400000D03*
X122500000Y-90750000D03*
X127500000Y-88750000D03*
X125250000Y-90000000D03*
X133999999Y-101150001D03*
X176999999Y-105400001D03*
X180820000Y-100000000D03*
X161750000Y-93750000D03*
X177000000Y-102000001D03*
X161750000Y-96500000D03*
X164750000Y-91250000D03*
X168250000Y-90000000D03*
X170500000Y-88750000D03*
X176999999Y-101150001D03*
X165500000Y-90750000D03*
X169443861Y-89400000D03*
X177000000Y-100300000D03*
X176999999Y-99450000D03*
X164250000Y-93000000D03*
X177000001Y-98600000D03*
X163000000Y-93110000D03*
X170000001Y-95000000D03*
X156250000Y-95250000D03*
X169150001Y-95000001D03*
X155750000Y-97250000D03*
X163000001Y-102849999D03*
X163000000Y-103700000D03*
X163000000Y-107950000D03*
X138360000Y-61860000D03*
X136250000Y-58500000D03*
X118250000Y-65750000D03*
X134000000Y-63250000D03*
X137820000Y-57000000D03*
X133999999Y-62400001D03*
X118750000Y-53500000D03*
X134000000Y-59000001D03*
X118750000Y-50750000D03*
X121750000Y-48250000D03*
X127500000Y-45750000D03*
X125250000Y-47000000D03*
X133999999Y-58150001D03*
X122500000Y-47750000D03*
X134000000Y-57300000D03*
X126443861Y-46400000D03*
X121250000Y-50000000D03*
X133999999Y-56450000D03*
X113250000Y-52250000D03*
X127000001Y-52000000D03*
X126150001Y-52000001D03*
X112750000Y-54250000D03*
X120000001Y-59849999D03*
X120000000Y-60700000D03*
X120000000Y-64950000D03*
X121250000Y-93000000D03*
X133999999Y-99450000D03*
X163000000Y-64950000D03*
X126150001Y-95000001D03*
X112750000Y-97250000D03*
X127000001Y-95000000D03*
X113250000Y-95250000D03*
X140000000Y-60050000D03*
X133500000Y-50750000D03*
X129250000Y-53000000D03*
X118689339Y-54500000D03*
X128500000Y-50750000D03*
X123750000Y-55000000D03*
X177000001Y-55600000D03*
X163000000Y-50110000D03*
X134000000Y-106250000D03*
X118250000Y-108750000D03*
X136250000Y-101500000D03*
X138360000Y-104860000D03*
X120000000Y-107950000D03*
X164750000Y-48250000D03*
X177000000Y-59000001D03*
X161750000Y-50750000D03*
X161750000Y-53500000D03*
X169443861Y-46400000D03*
X177000000Y-57300000D03*
X170500000Y-45750000D03*
X165500000Y-47750000D03*
X176999999Y-58150001D03*
X168250000Y-47000000D03*
X169150001Y-52000001D03*
X155750000Y-54250000D03*
X170000001Y-52000000D03*
X156250000Y-52250000D03*
X180820000Y-57000000D03*
X176999999Y-62400001D03*
X163000001Y-59849999D03*
X163000000Y-60700000D03*
X134000001Y-98600000D03*
X120000000Y-93110000D03*
X137820000Y-100000000D03*
X133999999Y-105400001D03*
X120000001Y-102849999D03*
X120000000Y-103700000D03*
D16*
X181360000Y-104860000D02*
X181360000Y-103610000D01*
X176100000Y-106250000D02*
X177000000Y-106250000D01*
X181360000Y-103610000D02*
X179250000Y-101500000D01*
X161250000Y-110562743D02*
X164287257Y-113600000D01*
X174000000Y-113600000D02*
X175600000Y-112000000D01*
X175600000Y-109710661D02*
X175200000Y-109310661D01*
X161250000Y-108750000D02*
X161250000Y-110562743D01*
X164287257Y-113600000D02*
X174000000Y-113600000D01*
X175200000Y-107150000D02*
X176100000Y-106250000D01*
X175200000Y-109310661D02*
X175200000Y-107150000D01*
X175600000Y-112000000D02*
X175600000Y-109710661D01*
X183000000Y-103050000D02*
X183000000Y-100722182D01*
X161689339Y-97500000D02*
X162189339Y-98000000D01*
X172250000Y-94500000D02*
X171500000Y-93750000D01*
X176500000Y-94222182D02*
X183000000Y-100722182D01*
X172250000Y-96000000D02*
X172250000Y-94500000D01*
X162189339Y-98000000D02*
X166750000Y-98000000D01*
X176500000Y-93750000D02*
X176500000Y-94222182D01*
D17*
X177600001Y-55849998D02*
X176999999Y-56450000D01*
X169900000Y-49661471D02*
X170251471Y-49310000D01*
X169900000Y-50000000D02*
X169900000Y-49661471D01*
X164250000Y-50000000D02*
X169900000Y-50000000D01*
X177600001Y-54251472D02*
X177600001Y-55849998D01*
X170251471Y-49310000D02*
X172658529Y-49310000D01*
X172658529Y-49310000D02*
X177600001Y-54251472D01*
X120490000Y-50600000D02*
X120000000Y-50110000D01*
X130415686Y-55200000D02*
X127600001Y-52384315D01*
X134000001Y-55600000D02*
X133600001Y-55200000D01*
X127600001Y-51751471D02*
X126448530Y-50600000D01*
X133600001Y-55200000D02*
X130415686Y-55200000D01*
X127600001Y-52384315D02*
X127600001Y-51751471D01*
X126448530Y-50600000D02*
X120490000Y-50600000D01*
D16*
X176100000Y-63250000D02*
X177000000Y-63250000D01*
X161250000Y-67562743D02*
X164287257Y-70600000D01*
X175200000Y-64150000D02*
X176100000Y-63250000D01*
X161250000Y-65750000D02*
X161250000Y-67562743D01*
X181360000Y-61860000D02*
X181360000Y-60610000D01*
X181360000Y-60610000D02*
X179250000Y-58500000D01*
X174000000Y-70600000D02*
X175600000Y-69000000D01*
X175600000Y-69000000D02*
X175600000Y-66710661D01*
X175600000Y-66710661D02*
X175200000Y-66310661D01*
X164287257Y-70600000D02*
X174000000Y-70600000D01*
X175200000Y-66310661D02*
X175200000Y-64150000D01*
X161689339Y-54500000D02*
X162189339Y-55000000D01*
X176500000Y-51222182D02*
X183000000Y-57722182D01*
X162189339Y-55000000D02*
X166750000Y-55000000D01*
X183000000Y-60050000D02*
X183000000Y-57722182D01*
X172250000Y-51500000D02*
X171500000Y-50750000D01*
X172250000Y-53000000D02*
X172250000Y-51500000D01*
X176500000Y-50750000D02*
X176500000Y-51222182D01*
D17*
X128750000Y-97100000D02*
X133650001Y-102000001D01*
X121750000Y-91250000D02*
X121011471Y-91250000D01*
X118750000Y-96500000D02*
X119350000Y-97100000D01*
X121011471Y-91250000D02*
X118750000Y-93511471D01*
X119350000Y-97100000D02*
X128750000Y-97100000D01*
X133650001Y-102000001D02*
X134000000Y-102000001D01*
X118750000Y-93511471D02*
X118750000Y-93750000D01*
D16*
X140000000Y-103050000D02*
X140000000Y-100722182D01*
X129250000Y-96000000D02*
X129250000Y-94500000D01*
X133500000Y-93750000D02*
X133500000Y-94222182D01*
X133500000Y-94222182D02*
X140000000Y-100722182D01*
X118689339Y-97500000D02*
X119189339Y-98000000D01*
X129250000Y-94500000D02*
X128500000Y-93750000D01*
X119189339Y-98000000D02*
X123750000Y-98000000D01*
D17*
X135000001Y-97085787D02*
X135000001Y-99299999D01*
X126443861Y-89400000D02*
X127314214Y-89400000D01*
X127314214Y-89400000D02*
X135000001Y-97085787D01*
X135000001Y-99299999D02*
X134000000Y-100300000D01*
X127500000Y-89000000D02*
X127500000Y-88750000D01*
X133999999Y-101150001D02*
X135400001Y-99749999D01*
X135400001Y-96900001D02*
X127500000Y-89000000D01*
X125250000Y-90000000D02*
X124500000Y-90750000D01*
X135400001Y-99749999D02*
X135400001Y-96900001D01*
X124500000Y-90750000D02*
X122500000Y-90750000D01*
X180820000Y-100000000D02*
X179901471Y-100000000D01*
X176999999Y-102901472D02*
X176999999Y-105400001D01*
X179901471Y-100000000D02*
X176999999Y-102901472D01*
X162350000Y-97100000D02*
X171750000Y-97100000D01*
X164750000Y-91250000D02*
X164011471Y-91250000D01*
X161750000Y-93511471D02*
X161750000Y-93750000D01*
X176650001Y-102000001D02*
X177000000Y-102000001D01*
X164011471Y-91250000D02*
X161750000Y-93511471D01*
X161750000Y-96500000D02*
X162350000Y-97100000D01*
X171750000Y-97100000D02*
X176650001Y-102000001D01*
X167500000Y-90750000D02*
X165500000Y-90750000D01*
X170500000Y-89000000D02*
X170500000Y-88750000D01*
X178400001Y-99749999D02*
X178400001Y-96900001D01*
X168250000Y-90000000D02*
X167500000Y-90750000D01*
X178400001Y-96900001D02*
X170500000Y-89000000D01*
X176999999Y-101150001D02*
X178400001Y-99749999D01*
X178000001Y-99299999D02*
X177000000Y-100300000D01*
X170314214Y-89400000D02*
X178000001Y-97085787D01*
X169443861Y-89400000D02*
X170314214Y-89400000D01*
X178000001Y-97085787D02*
X178000001Y-99299999D01*
X169900000Y-92661471D02*
X170251471Y-92310000D01*
X177600001Y-97251472D02*
X177600001Y-98849998D01*
X172658529Y-92310000D02*
X177600001Y-97251472D01*
X164250000Y-93000000D02*
X169900000Y-93000000D01*
X177600001Y-98849998D02*
X176999999Y-99450000D01*
X170251471Y-92310000D02*
X172658529Y-92310000D01*
X169900000Y-93000000D02*
X169900000Y-92661471D01*
X176600001Y-98200000D02*
X173415686Y-98200000D01*
X173415686Y-98200000D02*
X170600001Y-95384315D01*
X163490000Y-93600000D02*
X163000000Y-93110000D01*
X177000001Y-98600000D02*
X176600001Y-98200000D01*
X170600001Y-95384315D02*
X170600001Y-94751471D01*
X170600001Y-94751471D02*
X169448530Y-93600000D01*
X169448530Y-93600000D02*
X163490000Y-93600000D01*
X169400002Y-94400001D02*
X157099999Y-94400001D01*
X170000001Y-95000000D02*
X169400002Y-94400001D01*
X157099999Y-94400001D02*
X156250000Y-95250000D01*
X168250000Y-95900002D02*
X157099998Y-95900002D01*
X169150001Y-95000001D02*
X169150001Y-95099999D01*
X169150001Y-95000001D02*
X168250000Y-95900002D01*
X157099998Y-95900002D02*
X155750000Y-97250000D01*
X164515075Y-113050000D02*
X162000000Y-110534925D01*
X167450000Y-113050000D02*
X164515075Y-113050000D01*
X168500000Y-112000000D02*
X167450000Y-113050000D01*
X162000000Y-103850000D02*
X163000001Y-102849999D01*
X162000000Y-110534925D02*
X162000000Y-103850000D01*
X164950000Y-112000000D02*
X162400000Y-109450000D01*
X162400000Y-104300000D02*
X163000000Y-103700000D01*
X162400000Y-109450000D02*
X162400000Y-104300000D01*
D16*
X131000000Y-70600000D02*
X132600000Y-69000000D01*
X118250000Y-67562743D02*
X121287257Y-70600000D01*
X118250000Y-65750000D02*
X118250000Y-67562743D01*
X132200000Y-64150000D02*
X133100000Y-63250000D01*
X138360000Y-61860000D02*
X138360000Y-60610000D01*
X133100000Y-63250000D02*
X134000000Y-63250000D01*
X121287257Y-70600000D02*
X131000000Y-70600000D01*
X138360000Y-60610000D02*
X136250000Y-58500000D01*
X132600000Y-66710661D02*
X132200000Y-66310661D01*
X132200000Y-66310661D02*
X132200000Y-64150000D01*
X132600000Y-69000000D02*
X132600000Y-66710661D01*
D17*
X137820000Y-57000000D02*
X136901471Y-57000000D01*
X133999999Y-59901472D02*
X133999999Y-62400001D01*
X136901471Y-57000000D02*
X133999999Y-59901472D01*
X121011471Y-48250000D02*
X118750000Y-50511471D01*
X118750000Y-53500000D02*
X119350000Y-54100000D01*
X133650001Y-59000001D02*
X134000000Y-59000001D01*
X121750000Y-48250000D02*
X121011471Y-48250000D01*
X128750000Y-54100000D02*
X133650001Y-59000001D01*
X118750000Y-50511471D02*
X118750000Y-50750000D01*
X119350000Y-54100000D02*
X128750000Y-54100000D01*
X135400001Y-56749999D02*
X135400001Y-53900001D01*
X125250000Y-47000000D02*
X124500000Y-47750000D01*
X124500000Y-47750000D02*
X122500000Y-47750000D01*
X127500000Y-46000000D02*
X127500000Y-45750000D01*
X135400001Y-53900001D02*
X127500000Y-46000000D01*
X133999999Y-58150001D02*
X135400001Y-56749999D01*
X126443861Y-46400000D02*
X127314214Y-46400000D01*
X135000001Y-54085787D02*
X135000001Y-56299999D01*
X127314214Y-46400000D02*
X135000001Y-54085787D01*
X135000001Y-56299999D02*
X134000000Y-57300000D01*
X121250000Y-50000000D02*
X126900000Y-50000000D01*
X129658529Y-49310000D02*
X134600001Y-54251472D01*
X134600001Y-55849998D02*
X133999999Y-56450000D01*
X126900000Y-50000000D02*
X126900000Y-49661471D01*
X126900000Y-49661471D02*
X127251471Y-49310000D01*
X127251471Y-49310000D02*
X129658529Y-49310000D01*
X134600001Y-54251472D02*
X134600001Y-55849998D01*
X114099999Y-51400001D02*
X113250000Y-52250000D01*
X126400002Y-51400001D02*
X114099999Y-51400001D01*
X127000001Y-52000000D02*
X126400002Y-51400001D01*
X126150001Y-52000001D02*
X125250000Y-52900002D01*
X125250000Y-52900002D02*
X114099998Y-52900002D01*
X126150001Y-52000001D02*
X126150001Y-52099999D01*
X114099998Y-52900002D02*
X112750000Y-54250000D01*
X125500000Y-69000000D02*
X124450000Y-70050000D01*
X119000000Y-67534925D02*
X119000000Y-60850000D01*
X124450000Y-70050000D02*
X121515075Y-70050000D01*
X121515075Y-70050000D02*
X119000000Y-67534925D01*
X119000000Y-60850000D02*
X120000001Y-59849999D01*
X121950000Y-69000000D02*
X119400000Y-66450000D01*
X119400000Y-61300000D02*
X120000000Y-60700000D01*
X119400000Y-66450000D02*
X119400000Y-61300000D01*
X127251471Y-92310000D02*
X129658529Y-92310000D01*
X129658529Y-92310000D02*
X134600001Y-97251472D01*
X126900000Y-93000000D02*
X126900000Y-92661471D01*
X126900000Y-92661471D02*
X127251471Y-92310000D01*
X134600001Y-97251472D02*
X134600001Y-98849998D01*
X121250000Y-93000000D02*
X126900000Y-93000000D01*
X134600001Y-98849998D02*
X133999999Y-99450000D01*
X126150001Y-95000001D02*
X125250000Y-95900002D01*
X114099998Y-95900002D02*
X112750000Y-97250000D01*
X125250000Y-95900002D02*
X114099998Y-95900002D01*
X126150001Y-95000001D02*
X126150001Y-95099999D01*
X126400002Y-94400001D02*
X114099999Y-94400001D01*
X127000001Y-95000000D02*
X126400002Y-94400001D01*
X114099999Y-94400001D02*
X113250000Y-95250000D01*
D16*
X118689339Y-54500000D02*
X119189339Y-55000000D01*
X140000000Y-60050000D02*
X140000000Y-57722182D01*
X129250000Y-53000000D02*
X129250000Y-51500000D01*
X129250000Y-51500000D02*
X128500000Y-50750000D01*
X133500000Y-50750000D02*
X133500000Y-51222182D01*
X133500000Y-51222182D02*
X140000000Y-57722182D01*
X119189339Y-55000000D02*
X123750000Y-55000000D01*
D17*
X173415686Y-55200000D02*
X170600001Y-52384315D01*
X169448530Y-50600000D02*
X163490000Y-50600000D01*
X176600001Y-55200000D02*
X173415686Y-55200000D01*
X163490000Y-50600000D02*
X163000000Y-50110000D01*
X170600001Y-51751471D02*
X169448530Y-50600000D01*
X170600001Y-52384315D02*
X170600001Y-51751471D01*
X177000001Y-55600000D02*
X176600001Y-55200000D01*
D16*
X133100000Y-106250000D02*
X134000000Y-106250000D01*
X131000000Y-113600000D02*
X132600000Y-112000000D01*
X132600000Y-112000000D02*
X132600000Y-109710661D01*
X138360000Y-103610000D02*
X136250000Y-101500000D01*
X121287257Y-113600000D02*
X131000000Y-113600000D01*
X132600000Y-109710661D02*
X132200000Y-109310661D01*
X118250000Y-108750000D02*
X118250000Y-110562743D01*
X118250000Y-110562743D02*
X121287257Y-113600000D01*
X138360000Y-104860000D02*
X138360000Y-103610000D01*
X132200000Y-107150000D02*
X133100000Y-106250000D01*
X132200000Y-109310661D02*
X132200000Y-107150000D01*
D17*
X162350000Y-54100000D02*
X171750000Y-54100000D01*
X171750000Y-54100000D02*
X176650001Y-59000001D01*
X164750000Y-48250000D02*
X164011471Y-48250000D01*
X161750000Y-50511471D02*
X161750000Y-50750000D01*
X164011471Y-48250000D02*
X161750000Y-50511471D01*
X161750000Y-53500000D02*
X162350000Y-54100000D01*
X176650001Y-59000001D02*
X177000000Y-59000001D01*
X170314214Y-46400000D02*
X178000001Y-54085787D01*
X169443861Y-46400000D02*
X170314214Y-46400000D01*
X178000001Y-54085787D02*
X178000001Y-56299999D01*
X178000001Y-56299999D02*
X177000000Y-57300000D01*
X167500000Y-47750000D02*
X165500000Y-47750000D01*
X170500000Y-46000000D02*
X170500000Y-45750000D01*
X176999999Y-58150001D02*
X178400001Y-56749999D01*
X178400001Y-53900001D02*
X170500000Y-46000000D01*
X178400001Y-56749999D02*
X178400001Y-53900001D01*
X168250000Y-47000000D02*
X167500000Y-47750000D01*
X168250000Y-52900002D02*
X157099998Y-52900002D01*
X169150001Y-52000001D02*
X169150001Y-52099999D01*
X169150001Y-52000001D02*
X168250000Y-52900002D01*
X157099998Y-52900002D02*
X155750000Y-54250000D01*
X170000001Y-52000000D02*
X169400002Y-51400001D01*
X169400002Y-51400001D02*
X157099999Y-51400001D01*
X157099999Y-51400001D02*
X156250000Y-52250000D01*
X179901471Y-57000000D02*
X176999999Y-59901472D01*
X180820000Y-57000000D02*
X179901471Y-57000000D01*
X176999999Y-59901472D02*
X176999999Y-62400001D01*
X162000000Y-60850000D02*
X163000001Y-59849999D01*
X168500000Y-69000000D02*
X167450000Y-70050000D01*
X167450000Y-70050000D02*
X164515075Y-70050000D01*
X162000000Y-67534925D02*
X162000000Y-60850000D01*
X164515075Y-70050000D02*
X162000000Y-67534925D01*
X164950000Y-69000000D02*
X162400000Y-66450000D01*
X162400000Y-61300000D02*
X163000000Y-60700000D01*
X162400000Y-66450000D02*
X162400000Y-61300000D01*
X134000001Y-98600000D02*
X133600001Y-98200000D01*
X127600001Y-94751471D02*
X126448530Y-93600000D01*
X120490000Y-93600000D02*
X120000000Y-93110000D01*
X127600001Y-95384315D02*
X127600001Y-94751471D01*
X130415686Y-98200000D02*
X127600001Y-95384315D01*
X126448530Y-93600000D02*
X120490000Y-93600000D01*
X133600001Y-98200000D02*
X130415686Y-98200000D01*
X133999999Y-102901472D02*
X133999999Y-105400001D01*
X136901471Y-100000000D02*
X133999999Y-102901472D01*
X137820000Y-100000000D02*
X136901471Y-100000000D01*
X119000000Y-110534925D02*
X119000000Y-103850000D01*
X119000000Y-103850000D02*
X120000001Y-102849999D01*
X124450000Y-113050000D02*
X121515075Y-113050000D01*
X121515075Y-113050000D02*
X119000000Y-110534925D01*
X125500000Y-112000000D02*
X124450000Y-113050000D01*
X119400000Y-104300000D02*
X120000000Y-103700000D01*
X119400000Y-109450000D02*
X119400000Y-104300000D01*
X121950000Y-112000000D02*
X119400000Y-109450000D01*
G04 #@! TA.AperFunction,Conductor*
G36*
X143002855Y-74500632D02*
G01*
X143363311Y-74517296D01*
X143374700Y-74518352D01*
X143729238Y-74567808D01*
X143740482Y-74569910D01*
X144088944Y-74651867D01*
X144099934Y-74654994D01*
X144439368Y-74768761D01*
X144450022Y-74772889D01*
X144777496Y-74917482D01*
X144787723Y-74922574D01*
X145030656Y-75057887D01*
X145100453Y-75096764D01*
X145110191Y-75102793D01*
X145405513Y-75305093D01*
X145414653Y-75311996D01*
X145690035Y-75540670D01*
X145698499Y-75548386D01*
X145951613Y-75801500D01*
X145959329Y-75809964D01*
X146188003Y-76085346D01*
X146194906Y-76094486D01*
X146397206Y-76389808D01*
X146403235Y-76399546D01*
X146577418Y-76712263D01*
X146582523Y-76722516D01*
X146727105Y-77049964D01*
X146731243Y-77060644D01*
X146845001Y-77400052D01*
X146848135Y-77411068D01*
X146930087Y-77759509D01*
X146932192Y-77770768D01*
X146981646Y-78125291D01*
X146982703Y-78136695D01*
X146999368Y-78497144D01*
X146999500Y-78502871D01*
X146999500Y-110497128D01*
X146999368Y-110502855D01*
X146982703Y-110863304D01*
X146981646Y-110874708D01*
X146932192Y-111229231D01*
X146930087Y-111240490D01*
X146848135Y-111588931D01*
X146845001Y-111599947D01*
X146731243Y-111939355D01*
X146727105Y-111950035D01*
X146582523Y-112277483D01*
X146577418Y-112287736D01*
X146403235Y-112600453D01*
X146397206Y-112610191D01*
X146194906Y-112905513D01*
X146188003Y-112914653D01*
X145959329Y-113190035D01*
X145951613Y-113198499D01*
X145698499Y-113451613D01*
X145690035Y-113459329D01*
X145414653Y-113688003D01*
X145405513Y-113694906D01*
X145110191Y-113897206D01*
X145100453Y-113903235D01*
X144787736Y-114077418D01*
X144777483Y-114082523D01*
X144450035Y-114227105D01*
X144439355Y-114231243D01*
X144099947Y-114345001D01*
X144088931Y-114348135D01*
X143740490Y-114430087D01*
X143729231Y-114432192D01*
X143374708Y-114481646D01*
X143363304Y-114482703D01*
X143002855Y-114499368D01*
X142997128Y-114499500D01*
X131411970Y-114499500D01*
X131344931Y-114479815D01*
X131299176Y-114427011D01*
X131289232Y-114357853D01*
X131318257Y-114294297D01*
X131350490Y-114268557D01*
X131350430Y-114268468D01*
X131351487Y-114267761D01*
X131353513Y-114266144D01*
X131355489Y-114265087D01*
X131355491Y-114265085D01*
X131355495Y-114265084D01*
X131408866Y-114229423D01*
X131478416Y-114182952D01*
X132378596Y-113282770D01*
X132439917Y-113249287D01*
X132485673Y-113247980D01*
X132501583Y-113250500D01*
X132501584Y-113250500D01*
X132698422Y-113250500D01*
X132892826Y-113219709D01*
X132958103Y-113198499D01*
X133080025Y-113158884D01*
X133255405Y-113069524D01*
X133414646Y-112953828D01*
X133553828Y-112814646D01*
X133669524Y-112655405D01*
X133758884Y-112480025D01*
X133819709Y-112292826D01*
X133838097Y-112176728D01*
X133850500Y-112098422D01*
X133850500Y-111901577D01*
X133819709Y-111707173D01*
X133758882Y-111519970D01*
X133711743Y-111427455D01*
X133669524Y-111344595D01*
X133553828Y-111185354D01*
X133414646Y-111046172D01*
X133414645Y-111046171D01*
X133414643Y-111046169D01*
X133401612Y-111036701D01*
X133358948Y-110981370D01*
X133350500Y-110936385D01*
X133350500Y-109636740D01*
X133321659Y-109491753D01*
X133321658Y-109491752D01*
X133321658Y-109491748D01*
X133277268Y-109384581D01*
X133265087Y-109355172D01*
X133265080Y-109355159D01*
X133182952Y-109232246D01*
X133151970Y-109201264D01*
X133078416Y-109127710D01*
X132986818Y-109036111D01*
X132953334Y-108974787D01*
X132950500Y-108948430D01*
X132950500Y-107512229D01*
X132970185Y-107445190D01*
X132986819Y-107424548D01*
X133374548Y-107036819D01*
X133435871Y-107003334D01*
X133462229Y-107000500D01*
X133695396Y-107000500D01*
X133742844Y-107009937D01*
X133766503Y-107019737D01*
X133766508Y-107019738D01*
X133766511Y-107019739D01*
X133921153Y-107050499D01*
X133921156Y-107050500D01*
X133921158Y-107050500D01*
X134078844Y-107050500D01*
X134078845Y-107050499D01*
X134233497Y-107019737D01*
X134379179Y-106959394D01*
X134510289Y-106871789D01*
X134621789Y-106760289D01*
X134709394Y-106629179D01*
X134769737Y-106483497D01*
X134800500Y-106328842D01*
X134800500Y-106171158D01*
X134800500Y-106171155D01*
X134800499Y-106171153D01*
X134769738Y-106016510D01*
X134769737Y-106016503D01*
X134710068Y-105872450D01*
X134702600Y-105802982D01*
X134710067Y-105777552D01*
X134769736Y-105633498D01*
X134800499Y-105478843D01*
X134800499Y-105321159D01*
X134800499Y-105321156D01*
X134800498Y-105321154D01*
X134784192Y-105239179D01*
X134769736Y-105166504D01*
X134769734Y-105166499D01*
X134709396Y-105020828D01*
X134709389Y-105020815D01*
X134621397Y-104889126D01*
X134600519Y-104822448D01*
X134600499Y-104820235D01*
X134600499Y-103201569D01*
X134620184Y-103134530D01*
X134636818Y-103113888D01*
X135093673Y-102657033D01*
X135601338Y-102149367D01*
X135627115Y-102135292D01*
X135651475Y-102118870D01*
X135657430Y-102118739D01*
X135662659Y-102115884D01*
X135691962Y-102117979D01*
X135721327Y-102117334D01*
X135728502Y-102120592D01*
X135732350Y-102120868D01*
X135753747Y-102131286D01*
X135755855Y-102132576D01*
X135870821Y-102209394D01*
X135903460Y-102222913D01*
X135911752Y-102227988D01*
X135918055Y-102234947D01*
X135934703Y-102246071D01*
X137573181Y-103884548D01*
X137606666Y-103945871D01*
X137609500Y-103972229D01*
X137609500Y-104555396D01*
X137600062Y-104602844D01*
X137590263Y-104626503D01*
X137590262Y-104626506D01*
X137590260Y-104626511D01*
X137559500Y-104781153D01*
X137559500Y-104938846D01*
X137590261Y-105093489D01*
X137590264Y-105093501D01*
X137650602Y-105239172D01*
X137650609Y-105239185D01*
X137738210Y-105370288D01*
X137738213Y-105370292D01*
X137849707Y-105481786D01*
X137849711Y-105481789D01*
X137980814Y-105569390D01*
X137980827Y-105569397D01*
X138126498Y-105629735D01*
X138126503Y-105629737D01*
X138281153Y-105660499D01*
X138281156Y-105660500D01*
X138281158Y-105660500D01*
X138438844Y-105660500D01*
X138438845Y-105660499D01*
X138593497Y-105629737D01*
X138739179Y-105569394D01*
X138870289Y-105481789D01*
X138981789Y-105370289D01*
X139069394Y-105239179D01*
X139129737Y-105093497D01*
X139160500Y-104938842D01*
X139160500Y-104781158D01*
X139160500Y-104781155D01*
X139160499Y-104781153D01*
X139129739Y-104626511D01*
X139129738Y-104626508D01*
X139129737Y-104626503D01*
X139119937Y-104602844D01*
X139110500Y-104555396D01*
X139110500Y-103568405D01*
X139130185Y-103501366D01*
X139182989Y-103455611D01*
X139252147Y-103445667D01*
X139315703Y-103474692D01*
X139337602Y-103499514D01*
X139378210Y-103560288D01*
X139378213Y-103560292D01*
X139489707Y-103671786D01*
X139489711Y-103671789D01*
X139620814Y-103759390D01*
X139620827Y-103759397D01*
X139766498Y-103819735D01*
X139766503Y-103819737D01*
X139921153Y-103850499D01*
X139921156Y-103850500D01*
X139921158Y-103850500D01*
X140078844Y-103850500D01*
X140078845Y-103850499D01*
X140233497Y-103819737D01*
X140379179Y-103759394D01*
X140510289Y-103671789D01*
X140621789Y-103560289D01*
X140709394Y-103429179D01*
X140769737Y-103283497D01*
X140800500Y-103128842D01*
X140800500Y-102971158D01*
X140800500Y-102971155D01*
X140800499Y-102971153D01*
X140769739Y-102816511D01*
X140769738Y-102816508D01*
X140769737Y-102816503D01*
X140759937Y-102792844D01*
X140750500Y-102745396D01*
X140750500Y-100648261D01*
X140721659Y-100503274D01*
X140721658Y-100503273D01*
X140721658Y-100503269D01*
X140670325Y-100379339D01*
X140665087Y-100366693D01*
X140665080Y-100366680D01*
X140582952Y-100243767D01*
X140560338Y-100221153D01*
X140478416Y-100139231D01*
X134325388Y-93986202D01*
X134291903Y-93924879D01*
X134291452Y-93874329D01*
X134300500Y-93828844D01*
X134300500Y-93671155D01*
X134300499Y-93671153D01*
X134269738Y-93516510D01*
X134269737Y-93516503D01*
X134255612Y-93482401D01*
X134209397Y-93370827D01*
X134209390Y-93370814D01*
X134121789Y-93239711D01*
X134121786Y-93239707D01*
X134010292Y-93128213D01*
X134010288Y-93128210D01*
X133916811Y-93065750D01*
X135749500Y-93065750D01*
X135749500Y-93095834D01*
X135749500Y-93434250D01*
X135757317Y-93513619D01*
X135785618Y-93800975D01*
X135857504Y-94162375D01*
X135857507Y-94162386D01*
X135964480Y-94515030D01*
X136105500Y-94855481D01*
X136105502Y-94855486D01*
X136279202Y-95180456D01*
X136279213Y-95180474D01*
X136483931Y-95486856D01*
X136483941Y-95486870D01*
X136717715Y-95771724D01*
X136978275Y-96032284D01*
X136978280Y-96032288D01*
X136978281Y-96032289D01*
X137263135Y-96266063D01*
X137569532Y-96470791D01*
X137569541Y-96470796D01*
X137569543Y-96470797D01*
X137894513Y-96644497D01*
X137894515Y-96644497D01*
X137894521Y-96644501D01*
X138234971Y-96785520D01*
X138587604Y-96892490D01*
X138587610Y-96892491D01*
X138587613Y-96892492D01*
X138587624Y-96892495D01*
X138949024Y-96964381D01*
X139315750Y-97000500D01*
X139315753Y-97000500D01*
X139684247Y-97000500D01*
X139684250Y-97000500D01*
X140050976Y-96964381D01*
X140121331Y-96950386D01*
X140412375Y-96892495D01*
X140412386Y-96892492D01*
X140412386Y-96892491D01*
X140412396Y-96892490D01*
X140765029Y-96785520D01*
X141105479Y-96644501D01*
X141430468Y-96470791D01*
X141736865Y-96266063D01*
X142021719Y-96032289D01*
X142282289Y-95771719D01*
X142516063Y-95486865D01*
X142720791Y-95180468D01*
X142894501Y-94855479D01*
X143035520Y-94515029D01*
X143142490Y-94162396D01*
X143142492Y-94162386D01*
X143142495Y-94162375D01*
X143209580Y-93825111D01*
X143214381Y-93800976D01*
X143250500Y-93434250D01*
X143250500Y-93065750D01*
X143214381Y-92699024D01*
X143186628Y-92559500D01*
X143142495Y-92337624D01*
X143142492Y-92337613D01*
X143142491Y-92337610D01*
X143142490Y-92337604D01*
X143035520Y-91984971D01*
X142894501Y-91644521D01*
X142737354Y-91350520D01*
X142720797Y-91319543D01*
X142720796Y-91319541D01*
X142720791Y-91319532D01*
X142516063Y-91013135D01*
X142282289Y-90728281D01*
X142282288Y-90728280D01*
X142282284Y-90728275D01*
X142021724Y-90467715D01*
X141736870Y-90233941D01*
X141736869Y-90233940D01*
X141736865Y-90233937D01*
X141430468Y-90029209D01*
X141430463Y-90029206D01*
X141430456Y-90029202D01*
X141105486Y-89855502D01*
X141105481Y-89855500D01*
X140765030Y-89714480D01*
X140412386Y-89607507D01*
X140412375Y-89607504D01*
X140050975Y-89535618D01*
X139774772Y-89508415D01*
X139684250Y-89499500D01*
X139315750Y-89499500D01*
X139232109Y-89507737D01*
X138949024Y-89535618D01*
X138587624Y-89607504D01*
X138587613Y-89607507D01*
X138234969Y-89714480D01*
X137894518Y-89855500D01*
X137894513Y-89855502D01*
X137569543Y-90029202D01*
X137569525Y-90029213D01*
X137263143Y-90233931D01*
X137263129Y-90233941D01*
X136978275Y-90467715D01*
X136717715Y-90728275D01*
X136483941Y-91013129D01*
X136483931Y-91013143D01*
X136279213Y-91319525D01*
X136279202Y-91319543D01*
X136105502Y-91644513D01*
X136105500Y-91644518D01*
X135964480Y-91984969D01*
X135857507Y-92337613D01*
X135857504Y-92337624D01*
X135785618Y-92699024D01*
X135757920Y-92980261D01*
X135749500Y-93065750D01*
X133916811Y-93065750D01*
X133879185Y-93040609D01*
X133879172Y-93040602D01*
X133733501Y-92980264D01*
X133733489Y-92980261D01*
X133578845Y-92949500D01*
X133578842Y-92949500D01*
X133421158Y-92949500D01*
X133421155Y-92949500D01*
X133266510Y-92980261D01*
X133266498Y-92980264D01*
X133120827Y-93040602D01*
X133120814Y-93040609D01*
X132989711Y-93128210D01*
X132989707Y-93128213D01*
X132878213Y-93239707D01*
X132878208Y-93239713D01*
X132846289Y-93287483D01*
X132792676Y-93332288D01*
X132723351Y-93340994D01*
X132660324Y-93310838D01*
X132655507Y-93306272D01*
X128327055Y-88977820D01*
X128293570Y-88916497D01*
X128293119Y-88865945D01*
X128300500Y-88828841D01*
X128300500Y-88671155D01*
X128300499Y-88671153D01*
X128292405Y-88630464D01*
X128269737Y-88516503D01*
X128269735Y-88516498D01*
X128209397Y-88370827D01*
X128209390Y-88370814D01*
X128121789Y-88239711D01*
X128121786Y-88239707D01*
X128010292Y-88128213D01*
X128010288Y-88128210D01*
X127879181Y-88040606D01*
X127876970Y-88039425D01*
X127876028Y-88038500D01*
X127874114Y-88037221D01*
X127874356Y-88036857D01*
X127827124Y-87990464D01*
X127811662Y-87922327D01*
X127835492Y-87856646D01*
X127854884Y-87835779D01*
X127940421Y-87762724D01*
X128262724Y-87440421D01*
X128558745Y-87093825D01*
X128671522Y-86938600D01*
X137541598Y-86938600D01*
X137541598Y-87143303D01*
X137573620Y-87345486D01*
X137636879Y-87540175D01*
X137729813Y-87722565D01*
X137850126Y-87888165D01*
X137994884Y-88032923D01*
X138126042Y-88128213D01*
X138160488Y-88153239D01*
X138276705Y-88212455D01*
X138342874Y-88246170D01*
X138342876Y-88246170D01*
X138342879Y-88246172D01*
X138447235Y-88280079D01*
X138537563Y-88309429D01*
X138638655Y-88325440D01*
X138739746Y-88341452D01*
X138739747Y-88341452D01*
X138944449Y-88341452D01*
X138944450Y-88341452D01*
X139146632Y-88309429D01*
X139341317Y-88246172D01*
X139523708Y-88153239D01*
X139616688Y-88085684D01*
X139689311Y-88032923D01*
X139689313Y-88032920D01*
X139689317Y-88032918D01*
X139834064Y-87888171D01*
X139834066Y-87888167D01*
X139834069Y-87888165D01*
X139925202Y-87762729D01*
X139954385Y-87722562D01*
X140047318Y-87540171D01*
X140110575Y-87345486D01*
X140142598Y-87143304D01*
X140142598Y-86938600D01*
X140110575Y-86736418D01*
X140106888Y-86725072D01*
X140047316Y-86541728D01*
X140013601Y-86475559D01*
X139954385Y-86359342D01*
X139937751Y-86336447D01*
X139834069Y-86193738D01*
X139689311Y-86048980D01*
X139523711Y-85928667D01*
X139523710Y-85928666D01*
X139523708Y-85928665D01*
X139466751Y-85899643D01*
X139341321Y-85835733D01*
X139146632Y-85772474D01*
X138972093Y-85744830D01*
X138944450Y-85740452D01*
X138739746Y-85740452D01*
X138715427Y-85744303D01*
X138537563Y-85772474D01*
X138342874Y-85835733D01*
X138160484Y-85928667D01*
X137994884Y-86048980D01*
X137850126Y-86193738D01*
X137729813Y-86359338D01*
X137636879Y-86541728D01*
X137573620Y-86736417D01*
X137541598Y-86938600D01*
X128671522Y-86938600D01*
X128826660Y-86725071D01*
X129064818Y-86336434D01*
X129271748Y-85930309D01*
X129446177Y-85509201D01*
X129587029Y-85075705D01*
X129693434Y-84632494D01*
X129764738Y-84182302D01*
X129800500Y-83727902D01*
X129800500Y-83272098D01*
X129764738Y-82817698D01*
X129693434Y-82367506D01*
X129587029Y-81924295D01*
X129446177Y-81490799D01*
X129407593Y-81397648D01*
X130449501Y-81397648D01*
X130449501Y-81602351D01*
X130481523Y-81804534D01*
X130544782Y-81999223D01*
X130637716Y-82181613D01*
X130758029Y-82347213D01*
X130902787Y-82491971D01*
X131057750Y-82604556D01*
X131068391Y-82612287D01*
X131184608Y-82671503D01*
X131250777Y-82705218D01*
X131250779Y-82705218D01*
X131250782Y-82705220D01*
X131355138Y-82739127D01*
X131445466Y-82768477D01*
X131546558Y-82784488D01*
X131647649Y-82800500D01*
X131647650Y-82800500D01*
X131852352Y-82800500D01*
X131852353Y-82800500D01*
X132054535Y-82768477D01*
X132249220Y-82705220D01*
X132431611Y-82612287D01*
X132524591Y-82544732D01*
X132597214Y-82491971D01*
X132597216Y-82491968D01*
X132597220Y-82491966D01*
X132741967Y-82347219D01*
X132741969Y-82347215D01*
X132741972Y-82347213D01*
X132794733Y-82274590D01*
X132862288Y-82181610D01*
X132955221Y-81999219D01*
X133018478Y-81804534D01*
X133050501Y-81602352D01*
X133050501Y-81397648D01*
X133018478Y-81195466D01*
X132955221Y-81000781D01*
X132955219Y-81000778D01*
X132955219Y-81000776D01*
X132914688Y-80921231D01*
X132862288Y-80818390D01*
X132854557Y-80807749D01*
X132741972Y-80652786D01*
X132597214Y-80508028D01*
X132431614Y-80387715D01*
X132431613Y-80387714D01*
X132431611Y-80387713D01*
X132374654Y-80358691D01*
X132249224Y-80294781D01*
X132054535Y-80231522D01*
X131879996Y-80203878D01*
X131852353Y-80199500D01*
X131647649Y-80199500D01*
X131623330Y-80203351D01*
X131445466Y-80231522D01*
X131250777Y-80294781D01*
X131068387Y-80387715D01*
X130902787Y-80508028D01*
X130758029Y-80652786D01*
X130637716Y-80818386D01*
X130544782Y-81000776D01*
X130481523Y-81195465D01*
X130449501Y-81397648D01*
X129407593Y-81397648D01*
X129271748Y-81069691D01*
X129064818Y-80663566D01*
X129064812Y-80663557D01*
X129064810Y-80663552D01*
X129064807Y-80663547D01*
X128826666Y-80274938D01*
X128826662Y-80274933D01*
X128826660Y-80274929D01*
X128558745Y-79906175D01*
X128262724Y-79559579D01*
X127940421Y-79237276D01*
X127593825Y-78941255D01*
X127225071Y-78673340D01*
X127225068Y-78673338D01*
X127225061Y-78673333D01*
X126836452Y-78435192D01*
X126836447Y-78435189D01*
X126836437Y-78435184D01*
X126836434Y-78435182D01*
X126430309Y-78228252D01*
X126302426Y-78175281D01*
X126009212Y-78053827D01*
X126009205Y-78053824D01*
X126009201Y-78053823D01*
X125575705Y-77912971D01*
X125132494Y-77806566D01*
X124682302Y-77735262D01*
X124227907Y-77699500D01*
X124227902Y-77699500D01*
X123772098Y-77699500D01*
X123772092Y-77699500D01*
X123317697Y-77735262D01*
X123317696Y-77735262D01*
X122867511Y-77806565D01*
X122867508Y-77806565D01*
X122867506Y-77806566D01*
X122708784Y-77844671D01*
X122424306Y-77912968D01*
X122424301Y-77912969D01*
X122424295Y-77912971D01*
X121990799Y-78053823D01*
X121990787Y-78053827D01*
X121569693Y-78228251D01*
X121163552Y-78435189D01*
X121163547Y-78435192D01*
X120774938Y-78673333D01*
X120774927Y-78673341D01*
X120406182Y-78941249D01*
X120406168Y-78941260D01*
X120059585Y-79237270D01*
X120059571Y-79237283D01*
X119737283Y-79559571D01*
X119737270Y-79559585D01*
X119441260Y-79906168D01*
X119441249Y-79906182D01*
X119173341Y-80274927D01*
X119173333Y-80274938D01*
X118935192Y-80663547D01*
X118935189Y-80663552D01*
X118728251Y-81069693D01*
X118553827Y-81490787D01*
X118553823Y-81490799D01*
X118412971Y-81924295D01*
X118311437Y-82347219D01*
X118306565Y-82367511D01*
X118235262Y-82817696D01*
X118235262Y-82817697D01*
X118199500Y-83272092D01*
X118199500Y-83727907D01*
X118235262Y-84182302D01*
X118235262Y-84182303D01*
X118306565Y-84632488D01*
X118306566Y-84632494D01*
X118412971Y-85075705D01*
X118553823Y-85509200D01*
X118553827Y-85509212D01*
X118639549Y-85716162D01*
X118728252Y-85930309D01*
X118935182Y-86336434D01*
X118935189Y-86336447D01*
X118935192Y-86336452D01*
X119173333Y-86725061D01*
X119173338Y-86725068D01*
X119173340Y-86725071D01*
X119441255Y-87093825D01*
X119737276Y-87440421D01*
X120059579Y-87762724D01*
X120406175Y-88058745D01*
X120774929Y-88326660D01*
X120774933Y-88326662D01*
X120774938Y-88326666D01*
X121163547Y-88564807D01*
X121163552Y-88564810D01*
X121163557Y-88564812D01*
X121163566Y-88564818D01*
X121569691Y-88771748D01*
X121990799Y-88946177D01*
X122424295Y-89087029D01*
X122867506Y-89193434D01*
X123317698Y-89264738D01*
X123772098Y-89300500D01*
X123772106Y-89300500D01*
X124227894Y-89300500D01*
X124227902Y-89300500D01*
X124532703Y-89276511D01*
X124601077Y-89290875D01*
X124650834Y-89339926D01*
X124666173Y-89408091D01*
X124642224Y-89473729D01*
X124630117Y-89487803D01*
X124628216Y-89489703D01*
X124628210Y-89489711D01*
X124540609Y-89620814D01*
X124540602Y-89620827D01*
X124480264Y-89766498D01*
X124480261Y-89766508D01*
X124449361Y-89921850D01*
X124440595Y-89938607D01*
X124436576Y-89957084D01*
X124417831Y-89982125D01*
X124416976Y-89983761D01*
X124415426Y-89985339D01*
X124287582Y-90113182D01*
X124226262Y-90146666D01*
X124199903Y-90149500D01*
X123079766Y-90149500D01*
X123012727Y-90129815D01*
X123010875Y-90128602D01*
X122879185Y-90040609D01*
X122879172Y-90040602D01*
X122733501Y-89980264D01*
X122733489Y-89980261D01*
X122578845Y-89949500D01*
X122578842Y-89949500D01*
X122421158Y-89949500D01*
X122421155Y-89949500D01*
X122266510Y-89980261D01*
X122266498Y-89980264D01*
X122120827Y-90040602D01*
X122120814Y-90040609D01*
X121989711Y-90128210D01*
X121989707Y-90128213D01*
X121878213Y-90239707D01*
X121878210Y-90239711D01*
X121790609Y-90370814D01*
X121790607Y-90370819D01*
X121789725Y-90372949D01*
X121788964Y-90373893D01*
X121787736Y-90376191D01*
X121787300Y-90375958D01*
X121745885Y-90427354D01*
X121679592Y-90449421D01*
X121675162Y-90449500D01*
X121671155Y-90449500D01*
X121516510Y-90480261D01*
X121516498Y-90480264D01*
X121370827Y-90540602D01*
X121370814Y-90540609D01*
X121239125Y-90628602D01*
X121221078Y-90634252D01*
X121205169Y-90644477D01*
X121174207Y-90648928D01*
X121172447Y-90649480D01*
X121170234Y-90649500D01*
X121098140Y-90649500D01*
X121098124Y-90649499D01*
X121090528Y-90649499D01*
X120932414Y-90649499D01*
X120852481Y-90670917D01*
X120779687Y-90690422D01*
X120746826Y-90709395D01*
X120746825Y-90709394D01*
X120642758Y-90769477D01*
X120642753Y-90769481D01*
X120530949Y-90881286D01*
X118381892Y-93030342D01*
X118363102Y-93045763D01*
X118239711Y-93128210D01*
X118239707Y-93128213D01*
X118128213Y-93239707D01*
X118128210Y-93239711D01*
X118040609Y-93370814D01*
X118040602Y-93370827D01*
X117980264Y-93516498D01*
X117980261Y-93516510D01*
X117949500Y-93671153D01*
X117949500Y-93675501D01*
X117929815Y-93742540D01*
X117877011Y-93788295D01*
X117825500Y-93799501D01*
X114020942Y-93799501D01*
X113868212Y-93840424D01*
X113822724Y-93866688D01*
X113822723Y-93866688D01*
X113731286Y-93919478D01*
X113731281Y-93919482D01*
X113235339Y-94415425D01*
X113174016Y-94448910D01*
X113171850Y-94449361D01*
X113016508Y-94480261D01*
X113016498Y-94480264D01*
X112870827Y-94540602D01*
X112870814Y-94540609D01*
X112739711Y-94628210D01*
X112739707Y-94628213D01*
X112628213Y-94739707D01*
X112628210Y-94739711D01*
X112540609Y-94870814D01*
X112540602Y-94870827D01*
X112480264Y-95016498D01*
X112480261Y-95016510D01*
X112449500Y-95171153D01*
X112449500Y-95328846D01*
X112480261Y-95483489D01*
X112480264Y-95483501D01*
X112540602Y-95629172D01*
X112540609Y-95629185D01*
X112628210Y-95760288D01*
X112628213Y-95760292D01*
X112739707Y-95871786D01*
X112739711Y-95871789D01*
X112870814Y-95959390D01*
X112870821Y-95959394D01*
X112926030Y-95982262D01*
X112980433Y-96026102D01*
X113002499Y-96092396D01*
X112985221Y-96160095D01*
X112966259Y-96184504D01*
X112735339Y-96415425D01*
X112674016Y-96448910D01*
X112671850Y-96449361D01*
X112516508Y-96480261D01*
X112516498Y-96480264D01*
X112370827Y-96540602D01*
X112370814Y-96540609D01*
X112239711Y-96628210D01*
X112239707Y-96628213D01*
X112128213Y-96739707D01*
X112128210Y-96739711D01*
X112040609Y-96870814D01*
X112040602Y-96870827D01*
X111980264Y-97016498D01*
X111980261Y-97016510D01*
X111949500Y-97171153D01*
X111949500Y-97328846D01*
X111980261Y-97483489D01*
X111980264Y-97483501D01*
X112040602Y-97629172D01*
X112040609Y-97629185D01*
X112128210Y-97760288D01*
X112128213Y-97760292D01*
X112239707Y-97871786D01*
X112239711Y-97871789D01*
X112370814Y-97959390D01*
X112370827Y-97959397D01*
X112516498Y-98019735D01*
X112516503Y-98019737D01*
X112671153Y-98050499D01*
X112671156Y-98050500D01*
X112671158Y-98050500D01*
X112828844Y-98050500D01*
X112828845Y-98050499D01*
X112983497Y-98019737D01*
X113129179Y-97959394D01*
X113260289Y-97871789D01*
X113371789Y-97760289D01*
X113459394Y-97629179D01*
X113519737Y-97483497D01*
X113539113Y-97386085D01*
X113550638Y-97328150D01*
X113583023Y-97266239D01*
X113584518Y-97264716D01*
X114312414Y-96536821D01*
X114373737Y-96503336D01*
X114400095Y-96500502D01*
X117832153Y-96500502D01*
X117899192Y-96520187D01*
X117944947Y-96572991D01*
X117953770Y-96600311D01*
X117980261Y-96733489D01*
X117980264Y-96733501D01*
X118040602Y-96879172D01*
X118040611Y-96879188D01*
X118044974Y-96885718D01*
X118065851Y-96952395D01*
X118047366Y-97019775D01*
X118044973Y-97023497D01*
X117979951Y-97120809D01*
X117979941Y-97120827D01*
X117919603Y-97266498D01*
X117919600Y-97266510D01*
X117888839Y-97421153D01*
X117888839Y-97578846D01*
X117919600Y-97733489D01*
X117919603Y-97733501D01*
X117979941Y-97879172D01*
X117979948Y-97879185D01*
X118067549Y-98010288D01*
X118067552Y-98010292D01*
X118179049Y-98121789D01*
X118310154Y-98209390D01*
X118310160Y-98209394D01*
X118333814Y-98219191D01*
X118374042Y-98246071D01*
X118710917Y-98582947D01*
X118710920Y-98582950D01*
X118763696Y-98618213D01*
X118833847Y-98665086D01*
X118940825Y-98709397D01*
X118970426Y-98721658D01*
X118970430Y-98721658D01*
X118970431Y-98721659D01*
X119115418Y-98750500D01*
X119115421Y-98750500D01*
X119115422Y-98750500D01*
X119263257Y-98750500D01*
X123445396Y-98750500D01*
X123492844Y-98759937D01*
X123516503Y-98769737D01*
X123516508Y-98769738D01*
X123516511Y-98769739D01*
X123671153Y-98800499D01*
X123671156Y-98800500D01*
X123671158Y-98800500D01*
X123828844Y-98800500D01*
X123828845Y-98800499D01*
X123983497Y-98769737D01*
X124129179Y-98709394D01*
X124260289Y-98621789D01*
X124371789Y-98510289D01*
X124459394Y-98379179D01*
X124519737Y-98233497D01*
X124550500Y-98078842D01*
X124550500Y-97921158D01*
X124550500Y-97921155D01*
X124550499Y-97921153D01*
X124536086Y-97848691D01*
X124542313Y-97779100D01*
X124585176Y-97723922D01*
X124651066Y-97700678D01*
X124657703Y-97700500D01*
X128449903Y-97700500D01*
X128516942Y-97720185D01*
X128537584Y-97736819D01*
X133165140Y-102364375D01*
X133165150Y-102364386D01*
X133169480Y-102368716D01*
X133169481Y-102368717D01*
X133281285Y-102480521D01*
X133368096Y-102530640D01*
X133380598Y-102537858D01*
X133428813Y-102588426D01*
X133442035Y-102657033D01*
X133438372Y-102677334D01*
X133399498Y-102822415D01*
X133399498Y-102822417D01*
X133399498Y-102990518D01*
X133399499Y-102990531D01*
X133399499Y-104820235D01*
X133379814Y-104887274D01*
X133378601Y-104889126D01*
X133290608Y-105020815D01*
X133290601Y-105020828D01*
X133230263Y-105166499D01*
X133230260Y-105166511D01*
X133199499Y-105321154D01*
X133199499Y-105375500D01*
X133179814Y-105442539D01*
X133127010Y-105488294D01*
X133075499Y-105499500D01*
X133026080Y-105499500D01*
X132881092Y-105528340D01*
X132881082Y-105528343D01*
X132744511Y-105584912D01*
X132744498Y-105584919D01*
X132621584Y-105667048D01*
X132621580Y-105667051D01*
X131617052Y-106671578D01*
X131617046Y-106671585D01*
X131579074Y-106728415D01*
X131579075Y-106728416D01*
X131534913Y-106794508D01*
X131478343Y-106931082D01*
X131478340Y-106931092D01*
X131449500Y-107076079D01*
X131449500Y-107076082D01*
X131449500Y-109384579D01*
X131449500Y-109384581D01*
X131449499Y-109384581D01*
X131478340Y-109529568D01*
X131478343Y-109529578D01*
X131534912Y-109666149D01*
X131534918Y-109666160D01*
X131545356Y-109681780D01*
X131545358Y-109681785D01*
X131617046Y-109789075D01*
X131617047Y-109789076D01*
X131617048Y-109789077D01*
X131813182Y-109985210D01*
X131846666Y-110046531D01*
X131849500Y-110072890D01*
X131849500Y-110936385D01*
X131829815Y-111003424D01*
X131798388Y-111036701D01*
X131785356Y-111046169D01*
X131646171Y-111185355D01*
X131530476Y-111344594D01*
X131441117Y-111519970D01*
X131380290Y-111707173D01*
X131349500Y-111901577D01*
X131349500Y-112098421D01*
X131352019Y-112114329D01*
X131343062Y-112183622D01*
X131317226Y-112221404D01*
X130725451Y-112813181D01*
X130664128Y-112846666D01*
X130637770Y-112849500D01*
X130221251Y-112849500D01*
X130154212Y-112829815D01*
X130108457Y-112777011D01*
X130098513Y-112707853D01*
X130117891Y-112660120D01*
X130116550Y-112659299D01*
X130119091Y-112655151D01*
X130208418Y-112479835D01*
X130269221Y-112292705D01*
X130300000Y-112098382D01*
X130300000Y-111901617D01*
X130269221Y-111707294D01*
X130208418Y-111520164D01*
X130119096Y-111344858D01*
X130093678Y-111309873D01*
X130093677Y-111309873D01*
X129314457Y-112089095D01*
X129253134Y-112122580D01*
X129183443Y-112117596D01*
X129139095Y-112089095D01*
X129050000Y-112000000D01*
X128960904Y-112089096D01*
X128899581Y-112122580D01*
X128829889Y-112117596D01*
X128785542Y-112089095D01*
X128006320Y-111309872D01*
X128006320Y-111309873D01*
X127980902Y-111344859D01*
X127980899Y-111344863D01*
X127891582Y-111520161D01*
X127830778Y-111707294D01*
X127800000Y-111901617D01*
X127800000Y-112098382D01*
X127830778Y-112292705D01*
X127891581Y-112479835D01*
X127980908Y-112655151D01*
X127983450Y-112659299D01*
X127981806Y-112660306D01*
X128002545Y-112718398D01*
X127986733Y-112786455D01*
X127936636Y-112835159D01*
X127878749Y-112849500D01*
X126671870Y-112849500D01*
X126604831Y-112829815D01*
X126559076Y-112777011D01*
X126549132Y-112707853D01*
X126568380Y-112660420D01*
X126566978Y-112659561D01*
X126569519Y-112655413D01*
X126569520Y-112655409D01*
X126569524Y-112655405D01*
X126658884Y-112480025D01*
X126719709Y-112292826D01*
X126738097Y-112176728D01*
X126750500Y-112098422D01*
X126750500Y-111901577D01*
X126719709Y-111707173D01*
X126658882Y-111519970D01*
X126611743Y-111427455D01*
X126569524Y-111344595D01*
X126453828Y-111185354D01*
X126314646Y-111046172D01*
X126190976Y-110956320D01*
X128359872Y-110956320D01*
X129050000Y-111646446D01*
X129050001Y-111646446D01*
X129740125Y-110956320D01*
X129740125Y-110956319D01*
X129705145Y-110930905D01*
X129529835Y-110841581D01*
X129342705Y-110780778D01*
X129148382Y-110750000D01*
X128951618Y-110750000D01*
X128757294Y-110780778D01*
X128570161Y-110841582D01*
X128394863Y-110930899D01*
X128394859Y-110930902D01*
X128359873Y-110956320D01*
X128359872Y-110956320D01*
X126190976Y-110956320D01*
X126155405Y-110930476D01*
X125980029Y-110841117D01*
X125792826Y-110780290D01*
X125598422Y-110749500D01*
X125598417Y-110749500D01*
X125401583Y-110749500D01*
X125401578Y-110749500D01*
X125207173Y-110780290D01*
X125019970Y-110841117D01*
X124844594Y-110930476D01*
X124795161Y-110966392D01*
X124685354Y-111046172D01*
X124685352Y-111046174D01*
X124685351Y-111046174D01*
X124546174Y-111185351D01*
X124546174Y-111185352D01*
X124546172Y-111185354D01*
X124510170Y-111234906D01*
X124430476Y-111344594D01*
X124341117Y-111519970D01*
X124280290Y-111707173D01*
X124249500Y-111901577D01*
X124249500Y-112098422D01*
X124281023Y-112297452D01*
X124280322Y-112302870D01*
X124282233Y-112307990D01*
X124275892Y-112337153D01*
X124272068Y-112366746D01*
X124268241Y-112372342D01*
X124267389Y-112376264D01*
X124246241Y-112404521D01*
X124237593Y-112413171D01*
X124176274Y-112446663D01*
X124149902Y-112449500D01*
X123289388Y-112449500D01*
X123222349Y-112429815D01*
X123176594Y-112377011D01*
X123166650Y-112307853D01*
X123168814Y-112296553D01*
X123169704Y-112292840D01*
X123169709Y-112292826D01*
X123188097Y-112176728D01*
X123200500Y-112098422D01*
X123200500Y-111901577D01*
X123169709Y-111707173D01*
X123108882Y-111519970D01*
X123061743Y-111427455D01*
X123019524Y-111344595D01*
X122903828Y-111185354D01*
X122764646Y-111046172D01*
X122605405Y-110930476D01*
X122430029Y-110841117D01*
X122242826Y-110780290D01*
X122048422Y-110749500D01*
X122048417Y-110749500D01*
X121851583Y-110749500D01*
X121851577Y-110749500D01*
X121652544Y-110781023D01*
X121583251Y-110772068D01*
X121545466Y-110746231D01*
X120036819Y-109237583D01*
X120003334Y-109176260D01*
X120000500Y-109149902D01*
X120000500Y-108867847D01*
X120020185Y-108800808D01*
X120072989Y-108755053D01*
X120100309Y-108746230D01*
X120116291Y-108743050D01*
X120233497Y-108719737D01*
X120379179Y-108659394D01*
X120510289Y-108571789D01*
X120621789Y-108460289D01*
X120709394Y-108329179D01*
X120769737Y-108183497D01*
X120800500Y-108028842D01*
X120800500Y-107871158D01*
X120800500Y-107871155D01*
X120800499Y-107871153D01*
X120769738Y-107716510D01*
X120769737Y-107716503D01*
X120769735Y-107716498D01*
X120709397Y-107570827D01*
X120709390Y-107570814D01*
X120621789Y-107439711D01*
X120621786Y-107439707D01*
X120510292Y-107328213D01*
X120510288Y-107328210D01*
X120379185Y-107240609D01*
X120379172Y-107240602D01*
X120233501Y-107180264D01*
X120233491Y-107180261D01*
X120100308Y-107153769D01*
X120038397Y-107121384D01*
X120003823Y-107060668D01*
X120000500Y-107032152D01*
X120000500Y-104617847D01*
X120020185Y-104550808D01*
X120072989Y-104505053D01*
X120100309Y-104496230D01*
X120116291Y-104493050D01*
X120233497Y-104469737D01*
X120379179Y-104409394D01*
X120510289Y-104321789D01*
X120621789Y-104210289D01*
X120709394Y-104079179D01*
X120769737Y-103933497D01*
X120800500Y-103778842D01*
X120800500Y-103621158D01*
X120800500Y-103621155D01*
X120800499Y-103621153D01*
X120783577Y-103536082D01*
X120769737Y-103466503D01*
X120767478Y-103461049D01*
X120710070Y-103322452D01*
X120702601Y-103252983D01*
X120710068Y-103227551D01*
X120769738Y-103083496D01*
X120800501Y-102928841D01*
X120800501Y-102771157D01*
X120800501Y-102771154D01*
X120800500Y-102771152D01*
X120769739Y-102616509D01*
X120769739Y-102616507D01*
X120769738Y-102616502D01*
X120747567Y-102562975D01*
X120709398Y-102470826D01*
X120709391Y-102470813D01*
X120621790Y-102339710D01*
X120621787Y-102339706D01*
X120510293Y-102228212D01*
X120510289Y-102228209D01*
X120379186Y-102140608D01*
X120379173Y-102140601D01*
X120233502Y-102080263D01*
X120233490Y-102080260D01*
X120078846Y-102049499D01*
X120078843Y-102049499D01*
X119921159Y-102049499D01*
X119921156Y-102049499D01*
X119766511Y-102080260D01*
X119766499Y-102080263D01*
X119620828Y-102140601D01*
X119620815Y-102140608D01*
X119489712Y-102228209D01*
X119489708Y-102228212D01*
X119378214Y-102339706D01*
X119378211Y-102339710D01*
X119290610Y-102470813D01*
X119290603Y-102470826D01*
X119230265Y-102616497D01*
X119230262Y-102616507D01*
X119199362Y-102771849D01*
X119166977Y-102833760D01*
X119165426Y-102835338D01*
X118519481Y-103481282D01*
X118519477Y-103481287D01*
X118492270Y-103528414D01*
X118492269Y-103528416D01*
X118440423Y-103618215D01*
X118399499Y-103770943D01*
X118399499Y-103770945D01*
X118399499Y-103939046D01*
X118399500Y-103939059D01*
X118399500Y-107825500D01*
X118379815Y-107892539D01*
X118327011Y-107938294D01*
X118275500Y-107949500D01*
X118171155Y-107949500D01*
X118016510Y-107980261D01*
X118016498Y-107980264D01*
X117870827Y-108040602D01*
X117870814Y-108040609D01*
X117739711Y-108128210D01*
X117739707Y-108128213D01*
X117628213Y-108239707D01*
X117628210Y-108239711D01*
X117540609Y-108370814D01*
X117540602Y-108370827D01*
X117480264Y-108516498D01*
X117480261Y-108516510D01*
X117449500Y-108671153D01*
X117449500Y-108828846D01*
X117480261Y-108983489D01*
X117480263Y-108983497D01*
X117490061Y-109007151D01*
X117499500Y-109054604D01*
X117499500Y-110636661D01*
X117499500Y-110636663D01*
X117499499Y-110636663D01*
X117528340Y-110781650D01*
X117528343Y-110781660D01*
X117566885Y-110874708D01*
X117584916Y-110918238D01*
X117606460Y-110950482D01*
X117617090Y-110966391D01*
X117667049Y-111041161D01*
X120808838Y-114182950D01*
X120808841Y-114182952D01*
X120878391Y-114229423D01*
X120931762Y-114265084D01*
X120931763Y-114265084D01*
X120931767Y-114265087D01*
X120933744Y-114266144D01*
X120934584Y-114266969D01*
X120936827Y-114268468D01*
X120936542Y-114268893D01*
X120983587Y-114315108D01*
X120999045Y-114383246D01*
X120975211Y-114448925D01*
X120919652Y-114491292D01*
X120875287Y-114499500D01*
X111002872Y-114499500D01*
X110997145Y-114499368D01*
X110636695Y-114482703D01*
X110625291Y-114481646D01*
X110270768Y-114432192D01*
X110259509Y-114430087D01*
X109911068Y-114348135D01*
X109900052Y-114345001D01*
X109560644Y-114231243D01*
X109549964Y-114227105D01*
X109449962Y-114182950D01*
X109222511Y-114082520D01*
X109212268Y-114077420D01*
X109110316Y-114020633D01*
X108899546Y-113903235D01*
X108889808Y-113897206D01*
X108594486Y-113694906D01*
X108585346Y-113688003D01*
X108309964Y-113459329D01*
X108301500Y-113451613D01*
X108048386Y-113198499D01*
X108040670Y-113190035D01*
X107934243Y-113061870D01*
X107811994Y-112914650D01*
X107805093Y-112905513D01*
X107756899Y-112835159D01*
X107662998Y-112698080D01*
X107602793Y-112610191D01*
X107596764Y-112600453D01*
X107529580Y-112479835D01*
X107422574Y-112287723D01*
X107417482Y-112277496D01*
X107272889Y-111950022D01*
X107268761Y-111939368D01*
X107154994Y-111599934D01*
X107151867Y-111588944D01*
X107069910Y-111240482D01*
X107067807Y-111229231D01*
X107061686Y-111185354D01*
X107018352Y-110874700D01*
X107017296Y-110863304D01*
X107016270Y-110841117D01*
X107000632Y-110502855D01*
X107000500Y-110497128D01*
X107000500Y-78502871D01*
X107000632Y-78497144D01*
X107010062Y-78293178D01*
X107017296Y-78136686D01*
X107018353Y-78125291D01*
X107028322Y-78053827D01*
X107067808Y-77770757D01*
X107069909Y-77759520D01*
X107151869Y-77411049D01*
X107154992Y-77400070D01*
X107268763Y-77060623D01*
X107272886Y-77049984D01*
X107417486Y-76722494D01*
X107422569Y-76712285D01*
X107596767Y-76399540D01*
X107602793Y-76389808D01*
X107662998Y-76301920D01*
X107805103Y-76094472D01*
X107811986Y-76085359D01*
X108040681Y-75809951D01*
X108048375Y-75801511D01*
X108301511Y-75548375D01*
X108309951Y-75540681D01*
X108585359Y-75311986D01*
X108594472Y-75305103D01*
X108889813Y-75102789D01*
X108899540Y-75096767D01*
X109212285Y-74922569D01*
X109222494Y-74917486D01*
X109549984Y-74772886D01*
X109560623Y-74768763D01*
X109900070Y-74654992D01*
X109911049Y-74651869D01*
X110259520Y-74569909D01*
X110270757Y-74567808D01*
X110625301Y-74518352D01*
X110636686Y-74517296D01*
X110997145Y-74500632D01*
X111002872Y-74500500D01*
X111065892Y-74500500D01*
X142934108Y-74500500D01*
X142997128Y-74500500D01*
X143002855Y-74500632D01*
G37*
G04 #@! TD.AperFunction*
G04 #@! TA.AperFunction,Conductor*
G36*
X138657945Y-100441745D02*
G01*
X138662747Y-100446297D01*
X138925841Y-100709390D01*
X139213181Y-100996730D01*
X139246666Y-101058053D01*
X139249500Y-101084411D01*
X139249500Y-102745396D01*
X139240062Y-102792844D01*
X139230263Y-102816503D01*
X139230262Y-102816506D01*
X139230260Y-102816511D01*
X139199500Y-102971153D01*
X139199500Y-103106762D01*
X139192302Y-103131272D01*
X139189038Y-103156613D01*
X139182622Y-103164240D01*
X139179815Y-103173801D01*
X139160511Y-103190527D01*
X139144063Y-103210083D01*
X139134540Y-103213031D01*
X139127011Y-103219556D01*
X139101727Y-103223191D01*
X139077319Y-103230749D01*
X139067716Y-103228081D01*
X139057853Y-103229500D01*
X139034615Y-103218887D01*
X139009998Y-103212050D01*
X139001383Y-103203711D01*
X138994297Y-103200475D01*
X138982988Y-103189331D01*
X138977212Y-103182859D01*
X138942951Y-103131584D01*
X138838416Y-103027049D01*
X136996071Y-101184703D01*
X136969191Y-101144475D01*
X136959394Y-101120821D01*
X136883948Y-101007908D01*
X136863070Y-100941230D01*
X136881555Y-100873850D01*
X136899365Y-100851340D01*
X137113887Y-100636819D01*
X137140814Y-100622115D01*
X137166633Y-100605523D01*
X137172833Y-100604631D01*
X137175210Y-100603334D01*
X137201568Y-100600500D01*
X137240234Y-100600500D01*
X137307273Y-100620185D01*
X137309125Y-100621398D01*
X137440814Y-100709390D01*
X137440827Y-100709397D01*
X137586498Y-100769735D01*
X137586503Y-100769737D01*
X137741153Y-100800499D01*
X137741156Y-100800500D01*
X137741158Y-100800500D01*
X137898844Y-100800500D01*
X137898845Y-100800499D01*
X138053497Y-100769737D01*
X138199179Y-100709394D01*
X138330289Y-100621789D01*
X138441789Y-100510289D01*
X138471981Y-100465102D01*
X138525592Y-100420299D01*
X138594917Y-100411591D01*
X138657945Y-100441745D01*
G37*
G04 #@! TD.AperFunction*
G04 #@! TA.AperFunction,Conductor*
G36*
X133200781Y-98820185D02*
G01*
X133246536Y-98872989D01*
X133248303Y-98877047D01*
X133289930Y-98977544D01*
X133297399Y-99047014D01*
X133289930Y-99072449D01*
X133230263Y-99216498D01*
X133230260Y-99216510D01*
X133199499Y-99371153D01*
X133199499Y-99528846D01*
X133230260Y-99683489D01*
X133230263Y-99683501D01*
X133289929Y-99827549D01*
X133297398Y-99897018D01*
X133289929Y-99922453D01*
X133230264Y-100066498D01*
X133230261Y-100066510D01*
X133199500Y-100221153D01*
X133199500Y-100378851D01*
X133199564Y-100379170D01*
X133199548Y-100379339D01*
X133200097Y-100384907D01*
X133199040Y-100385011D01*
X133193329Y-100448761D01*
X133150459Y-100503933D01*
X133084567Y-100527170D01*
X133016572Y-100511094D01*
X132990263Y-100491028D01*
X131511416Y-99012181D01*
X131477931Y-98950858D01*
X131482915Y-98881166D01*
X131524787Y-98825233D01*
X131590251Y-98800816D01*
X131599097Y-98800500D01*
X133133742Y-98800500D01*
X133200781Y-98820185D01*
G37*
G04 #@! TD.AperFunction*
G04 #@! TA.AperFunction,Conductor*
G36*
X129425471Y-92930185D02*
G01*
X129446113Y-92946819D01*
X133925197Y-97425903D01*
X133958682Y-97487226D01*
X133953698Y-97556918D01*
X133911826Y-97612851D01*
X133846362Y-97637268D01*
X133805423Y-97633359D01*
X133679058Y-97599499D01*
X133520944Y-97599499D01*
X133513348Y-97599499D01*
X133513332Y-97599500D01*
X130715783Y-97599500D01*
X130648744Y-97579815D01*
X130628102Y-97563181D01*
X129811180Y-96746259D01*
X129777695Y-96684936D01*
X129782679Y-96615244D01*
X129811177Y-96570900D01*
X129871789Y-96510289D01*
X129959394Y-96379179D01*
X130019737Y-96233497D01*
X130050500Y-96078842D01*
X130050500Y-95921158D01*
X130050500Y-95921155D01*
X130050499Y-95921153D01*
X130019739Y-95766511D01*
X130019738Y-95766508D01*
X130019737Y-95766503D01*
X130009937Y-95742844D01*
X130000500Y-95695396D01*
X130000500Y-94426079D01*
X129971659Y-94281092D01*
X129971658Y-94281091D01*
X129971658Y-94281087D01*
X129922486Y-94162375D01*
X129915087Y-94144511D01*
X129915080Y-94144498D01*
X129832952Y-94021585D01*
X129794864Y-93983497D01*
X129728416Y-93917049D01*
X129246072Y-93434705D01*
X129219191Y-93394473D01*
X129209397Y-93370828D01*
X129209396Y-93370826D01*
X129209394Y-93370821D01*
X129166264Y-93306272D01*
X129121789Y-93239710D01*
X129005982Y-93123903D01*
X129007482Y-93122402D01*
X128973563Y-93072600D01*
X128971697Y-93002756D01*
X129007888Y-92942989D01*
X129070646Y-92912277D01*
X129091565Y-92910500D01*
X129358432Y-92910500D01*
X129425471Y-92930185D01*
G37*
G04 #@! TD.AperFunction*
G04 #@! TA.AperFunction,Conductor*
G36*
X127083093Y-90022813D02*
G01*
X127105607Y-90040628D01*
X128562798Y-91497819D01*
X128596283Y-91559142D01*
X128591299Y-91628834D01*
X128549427Y-91684767D01*
X128483963Y-91709184D01*
X128475117Y-91709500D01*
X127172414Y-91709500D01*
X127019688Y-91750422D01*
X127019686Y-91750422D01*
X127019686Y-91750423D01*
X127002598Y-91760289D01*
X127002595Y-91760291D01*
X127002594Y-91760290D01*
X126882758Y-91829477D01*
X126882753Y-91829481D01*
X126419479Y-92292755D01*
X126393648Y-92337499D01*
X126343082Y-92385715D01*
X126286260Y-92399500D01*
X121829766Y-92399500D01*
X121812609Y-92394462D01*
X121794729Y-92394447D01*
X121764711Y-92380397D01*
X121762727Y-92379815D01*
X121762637Y-92379758D01*
X121760387Y-92378309D01*
X121760289Y-92378211D01*
X121629179Y-92290606D01*
X121615147Y-92284794D01*
X121605773Y-92278758D01*
X121589918Y-92260429D01*
X121571047Y-92245222D01*
X121567470Y-92234477D01*
X121560064Y-92225915D01*
X121556635Y-92201924D01*
X121548981Y-92178928D01*
X121551780Y-92167957D01*
X121550179Y-92156748D01*
X121560265Y-92134711D01*
X121566259Y-92111229D01*
X121574546Y-92103512D01*
X121579259Y-92093217D01*
X121599657Y-92080132D01*
X121617395Y-92063617D01*
X121630075Y-92060620D01*
X121638069Y-92055493D01*
X121651723Y-92055504D01*
X121672902Y-92050500D01*
X121828844Y-92050500D01*
X121828845Y-92050499D01*
X121983497Y-92019737D01*
X122129179Y-91959394D01*
X122260289Y-91871789D01*
X122302601Y-91829477D01*
X122371788Y-91760291D01*
X122371789Y-91760289D01*
X122459394Y-91629179D01*
X122460275Y-91627049D01*
X122461035Y-91626106D01*
X122462264Y-91623809D01*
X122462699Y-91624041D01*
X122504115Y-91572646D01*
X122570408Y-91550579D01*
X122574838Y-91550500D01*
X122578844Y-91550500D01*
X122578845Y-91550499D01*
X122733497Y-91519737D01*
X122879179Y-91459394D01*
X122941309Y-91417880D01*
X123010875Y-91371398D01*
X123077553Y-91350520D01*
X123079766Y-91350500D01*
X124413331Y-91350500D01*
X124413347Y-91350501D01*
X124420943Y-91350501D01*
X124579054Y-91350501D01*
X124579057Y-91350501D01*
X124731785Y-91309577D01*
X124781904Y-91280639D01*
X124868716Y-91230520D01*
X124980520Y-91118716D01*
X124980520Y-91118714D01*
X124990728Y-91108507D01*
X124990729Y-91108504D01*
X125264661Y-90834572D01*
X125325983Y-90801089D01*
X125328150Y-90800638D01*
X125386085Y-90789113D01*
X125483497Y-90769737D01*
X125629179Y-90709394D01*
X125760289Y-90621789D01*
X125871789Y-90510289D01*
X125959394Y-90379179D01*
X126019737Y-90233497D01*
X126019737Y-90233496D01*
X126022068Y-90227869D01*
X126024287Y-90228788D01*
X126056740Y-90179224D01*
X126120540Y-90150741D01*
X126184593Y-90159062D01*
X126210364Y-90169737D01*
X126365014Y-90200499D01*
X126365017Y-90200500D01*
X126365019Y-90200500D01*
X126522705Y-90200500D01*
X126522706Y-90200499D01*
X126677358Y-90169737D01*
X126823040Y-90109394D01*
X126840923Y-90097445D01*
X126949035Y-90025207D01*
X127015712Y-90004329D01*
X127083093Y-90022813D01*
G37*
G04 #@! TD.AperFunction*
G04 #@! TA.AperFunction,Conductor*
G36*
X186002855Y-74500632D02*
G01*
X186363311Y-74517296D01*
X186374700Y-74518352D01*
X186729238Y-74567808D01*
X186740482Y-74569910D01*
X187088944Y-74651867D01*
X187099934Y-74654994D01*
X187439368Y-74768761D01*
X187450022Y-74772889D01*
X187777496Y-74917482D01*
X187787723Y-74922574D01*
X188030656Y-75057887D01*
X188100453Y-75096764D01*
X188110191Y-75102793D01*
X188405513Y-75305093D01*
X188414653Y-75311996D01*
X188690035Y-75540670D01*
X188698499Y-75548386D01*
X188951613Y-75801500D01*
X188959329Y-75809964D01*
X189188003Y-76085346D01*
X189194906Y-76094486D01*
X189397206Y-76389808D01*
X189403235Y-76399546D01*
X189577418Y-76712263D01*
X189582523Y-76722516D01*
X189727105Y-77049964D01*
X189731243Y-77060644D01*
X189845001Y-77400052D01*
X189848135Y-77411068D01*
X189930087Y-77759509D01*
X189932192Y-77770768D01*
X189981646Y-78125291D01*
X189982703Y-78136695D01*
X189999368Y-78497144D01*
X189999500Y-78502871D01*
X189999500Y-110497128D01*
X189999368Y-110502855D01*
X189982703Y-110863304D01*
X189981646Y-110874708D01*
X189932192Y-111229231D01*
X189930087Y-111240490D01*
X189848135Y-111588931D01*
X189845001Y-111599947D01*
X189731243Y-111939355D01*
X189727105Y-111950035D01*
X189582523Y-112277483D01*
X189577418Y-112287736D01*
X189403235Y-112600453D01*
X189397206Y-112610191D01*
X189194906Y-112905513D01*
X189188003Y-112914653D01*
X188959329Y-113190035D01*
X188951613Y-113198499D01*
X188698499Y-113451613D01*
X188690035Y-113459329D01*
X188414653Y-113688003D01*
X188405513Y-113694906D01*
X188110191Y-113897206D01*
X188100453Y-113903235D01*
X187787736Y-114077418D01*
X187777483Y-114082523D01*
X187450035Y-114227105D01*
X187439355Y-114231243D01*
X187099947Y-114345001D01*
X187088931Y-114348135D01*
X186740490Y-114430087D01*
X186729231Y-114432192D01*
X186374708Y-114481646D01*
X186363304Y-114482703D01*
X186002855Y-114499368D01*
X185997128Y-114499500D01*
X174411970Y-114499500D01*
X174344931Y-114479815D01*
X174299176Y-114427011D01*
X174289232Y-114357853D01*
X174318257Y-114294297D01*
X174350490Y-114268557D01*
X174350430Y-114268468D01*
X174351487Y-114267761D01*
X174353513Y-114266144D01*
X174355489Y-114265087D01*
X174355491Y-114265085D01*
X174355495Y-114265084D01*
X174408866Y-114229423D01*
X174478416Y-114182952D01*
X175378596Y-113282770D01*
X175439917Y-113249287D01*
X175485673Y-113247980D01*
X175501583Y-113250500D01*
X175501584Y-113250500D01*
X175698422Y-113250500D01*
X175892826Y-113219709D01*
X175958103Y-113198499D01*
X176080025Y-113158884D01*
X176255405Y-113069524D01*
X176414646Y-112953828D01*
X176553828Y-112814646D01*
X176669524Y-112655405D01*
X176758884Y-112480025D01*
X176819709Y-112292826D01*
X176838097Y-112176728D01*
X176850500Y-112098422D01*
X176850500Y-111901577D01*
X176819709Y-111707173D01*
X176758882Y-111519970D01*
X176711743Y-111427455D01*
X176669524Y-111344595D01*
X176553828Y-111185354D01*
X176414646Y-111046172D01*
X176414645Y-111046171D01*
X176414643Y-111046169D01*
X176401612Y-111036701D01*
X176358948Y-110981370D01*
X176350500Y-110936385D01*
X176350500Y-109636740D01*
X176321659Y-109491753D01*
X176321658Y-109491752D01*
X176321658Y-109491748D01*
X176277268Y-109384581D01*
X176265087Y-109355172D01*
X176265080Y-109355159D01*
X176182952Y-109232246D01*
X176151970Y-109201264D01*
X176078416Y-109127710D01*
X175986818Y-109036111D01*
X175953334Y-108974787D01*
X175950500Y-108948430D01*
X175950500Y-107512229D01*
X175970185Y-107445190D01*
X175986819Y-107424548D01*
X176374548Y-107036819D01*
X176435871Y-107003334D01*
X176462229Y-107000500D01*
X176695396Y-107000500D01*
X176742844Y-107009937D01*
X176766503Y-107019737D01*
X176766508Y-107019738D01*
X176766511Y-107019739D01*
X176921153Y-107050499D01*
X176921156Y-107050500D01*
X176921158Y-107050500D01*
X177078844Y-107050500D01*
X177078845Y-107050499D01*
X177233497Y-107019737D01*
X177379179Y-106959394D01*
X177510289Y-106871789D01*
X177621789Y-106760289D01*
X177709394Y-106629179D01*
X177769737Y-106483497D01*
X177800500Y-106328842D01*
X177800500Y-106171158D01*
X177800500Y-106171155D01*
X177800499Y-106171153D01*
X177769738Y-106016510D01*
X177769737Y-106016503D01*
X177710068Y-105872450D01*
X177702600Y-105802982D01*
X177710067Y-105777552D01*
X177769736Y-105633498D01*
X177800499Y-105478843D01*
X177800499Y-105321159D01*
X177800499Y-105321156D01*
X177800498Y-105321154D01*
X177784192Y-105239179D01*
X177769736Y-105166504D01*
X177769734Y-105166499D01*
X177709396Y-105020828D01*
X177709389Y-105020815D01*
X177621397Y-104889126D01*
X177600519Y-104822448D01*
X177600499Y-104820235D01*
X177600499Y-103201569D01*
X177620184Y-103134530D01*
X177636818Y-103113888D01*
X178093673Y-102657033D01*
X178601338Y-102149367D01*
X178627115Y-102135292D01*
X178651475Y-102118870D01*
X178657430Y-102118739D01*
X178662659Y-102115884D01*
X178691962Y-102117979D01*
X178721327Y-102117334D01*
X178728502Y-102120592D01*
X178732350Y-102120868D01*
X178753747Y-102131286D01*
X178755855Y-102132576D01*
X178870821Y-102209394D01*
X178903460Y-102222913D01*
X178911752Y-102227988D01*
X178918055Y-102234947D01*
X178934703Y-102246071D01*
X180573181Y-103884548D01*
X180606666Y-103945871D01*
X180609500Y-103972229D01*
X180609500Y-104555396D01*
X180600062Y-104602844D01*
X180590263Y-104626503D01*
X180590262Y-104626506D01*
X180590260Y-104626511D01*
X180559500Y-104781153D01*
X180559500Y-104938846D01*
X180590261Y-105093489D01*
X180590264Y-105093501D01*
X180650602Y-105239172D01*
X180650609Y-105239185D01*
X180738210Y-105370288D01*
X180738213Y-105370292D01*
X180849707Y-105481786D01*
X180849711Y-105481789D01*
X180980814Y-105569390D01*
X180980827Y-105569397D01*
X181126498Y-105629735D01*
X181126503Y-105629737D01*
X181281153Y-105660499D01*
X181281156Y-105660500D01*
X181281158Y-105660500D01*
X181438844Y-105660500D01*
X181438845Y-105660499D01*
X181593497Y-105629737D01*
X181739179Y-105569394D01*
X181870289Y-105481789D01*
X181981789Y-105370289D01*
X182069394Y-105239179D01*
X182129737Y-105093497D01*
X182160500Y-104938842D01*
X182160500Y-104781158D01*
X182160500Y-104781155D01*
X182160499Y-104781153D01*
X182129739Y-104626511D01*
X182129738Y-104626508D01*
X182129737Y-104626503D01*
X182119937Y-104602844D01*
X182110500Y-104555396D01*
X182110500Y-103568405D01*
X182130185Y-103501366D01*
X182182989Y-103455611D01*
X182252147Y-103445667D01*
X182315703Y-103474692D01*
X182337602Y-103499514D01*
X182378210Y-103560288D01*
X182378213Y-103560292D01*
X182489707Y-103671786D01*
X182489711Y-103671789D01*
X182620814Y-103759390D01*
X182620827Y-103759397D01*
X182766498Y-103819735D01*
X182766503Y-103819737D01*
X182921153Y-103850499D01*
X182921156Y-103850500D01*
X182921158Y-103850500D01*
X183078844Y-103850500D01*
X183078845Y-103850499D01*
X183233497Y-103819737D01*
X183379179Y-103759394D01*
X183510289Y-103671789D01*
X183621789Y-103560289D01*
X183709394Y-103429179D01*
X183769737Y-103283497D01*
X183800500Y-103128842D01*
X183800500Y-102971158D01*
X183800500Y-102971155D01*
X183800499Y-102971153D01*
X183769739Y-102816511D01*
X183769738Y-102816508D01*
X183769737Y-102816503D01*
X183759937Y-102792844D01*
X183750500Y-102745396D01*
X183750500Y-100648261D01*
X183721659Y-100503274D01*
X183721658Y-100503273D01*
X183721658Y-100503269D01*
X183670325Y-100379339D01*
X183665087Y-100366693D01*
X183665080Y-100366680D01*
X183582952Y-100243767D01*
X183560338Y-100221153D01*
X183478416Y-100139231D01*
X177325388Y-93986202D01*
X177291903Y-93924879D01*
X177291452Y-93874329D01*
X177300500Y-93828844D01*
X177300500Y-93671155D01*
X177300499Y-93671153D01*
X177269738Y-93516510D01*
X177269737Y-93516503D01*
X177255612Y-93482401D01*
X177209397Y-93370827D01*
X177209390Y-93370814D01*
X177121789Y-93239711D01*
X177121786Y-93239707D01*
X177010292Y-93128213D01*
X177010288Y-93128210D01*
X176916811Y-93065750D01*
X178749500Y-93065750D01*
X178749500Y-93095834D01*
X178749500Y-93434250D01*
X178757317Y-93513619D01*
X178785618Y-93800975D01*
X178857504Y-94162375D01*
X178857507Y-94162386D01*
X178964480Y-94515030D01*
X179105500Y-94855481D01*
X179105502Y-94855486D01*
X179279202Y-95180456D01*
X179279213Y-95180474D01*
X179483931Y-95486856D01*
X179483941Y-95486870D01*
X179717715Y-95771724D01*
X179978275Y-96032284D01*
X179978280Y-96032288D01*
X179978281Y-96032289D01*
X180263135Y-96266063D01*
X180569532Y-96470791D01*
X180569541Y-96470796D01*
X180569543Y-96470797D01*
X180894513Y-96644497D01*
X180894515Y-96644497D01*
X180894521Y-96644501D01*
X181234971Y-96785520D01*
X181587604Y-96892490D01*
X181587610Y-96892491D01*
X181587613Y-96892492D01*
X181587624Y-96892495D01*
X181949024Y-96964381D01*
X182315750Y-97000500D01*
X182315753Y-97000500D01*
X182684247Y-97000500D01*
X182684250Y-97000500D01*
X183050976Y-96964381D01*
X183121331Y-96950386D01*
X183412375Y-96892495D01*
X183412386Y-96892492D01*
X183412386Y-96892491D01*
X183412396Y-96892490D01*
X183765029Y-96785520D01*
X184105479Y-96644501D01*
X184430468Y-96470791D01*
X184736865Y-96266063D01*
X185021719Y-96032289D01*
X185282289Y-95771719D01*
X185516063Y-95486865D01*
X185720791Y-95180468D01*
X185894501Y-94855479D01*
X186035520Y-94515029D01*
X186142490Y-94162396D01*
X186142492Y-94162386D01*
X186142495Y-94162375D01*
X186209580Y-93825111D01*
X186214381Y-93800976D01*
X186250500Y-93434250D01*
X186250500Y-93065750D01*
X186214381Y-92699024D01*
X186186628Y-92559500D01*
X186142495Y-92337624D01*
X186142492Y-92337613D01*
X186142491Y-92337610D01*
X186142490Y-92337604D01*
X186035520Y-91984971D01*
X185894501Y-91644521D01*
X185737354Y-91350520D01*
X185720797Y-91319543D01*
X185720796Y-91319541D01*
X185720791Y-91319532D01*
X185516063Y-91013135D01*
X185282289Y-90728281D01*
X185282288Y-90728280D01*
X185282284Y-90728275D01*
X185021724Y-90467715D01*
X184736870Y-90233941D01*
X184736869Y-90233940D01*
X184736865Y-90233937D01*
X184430468Y-90029209D01*
X184430463Y-90029206D01*
X184430456Y-90029202D01*
X184105486Y-89855502D01*
X184105481Y-89855500D01*
X183765030Y-89714480D01*
X183412386Y-89607507D01*
X183412375Y-89607504D01*
X183050975Y-89535618D01*
X182774772Y-89508415D01*
X182684250Y-89499500D01*
X182315750Y-89499500D01*
X182232109Y-89507737D01*
X181949024Y-89535618D01*
X181587624Y-89607504D01*
X181587613Y-89607507D01*
X181234969Y-89714480D01*
X180894518Y-89855500D01*
X180894513Y-89855502D01*
X180569543Y-90029202D01*
X180569525Y-90029213D01*
X180263143Y-90233931D01*
X180263129Y-90233941D01*
X179978275Y-90467715D01*
X179717715Y-90728275D01*
X179483941Y-91013129D01*
X179483931Y-91013143D01*
X179279213Y-91319525D01*
X179279202Y-91319543D01*
X179105502Y-91644513D01*
X179105500Y-91644518D01*
X178964480Y-91984969D01*
X178857507Y-92337613D01*
X178857504Y-92337624D01*
X178785618Y-92699024D01*
X178757920Y-92980261D01*
X178749500Y-93065750D01*
X176916811Y-93065750D01*
X176879185Y-93040609D01*
X176879172Y-93040602D01*
X176733501Y-92980264D01*
X176733489Y-92980261D01*
X176578845Y-92949500D01*
X176578842Y-92949500D01*
X176421158Y-92949500D01*
X176421155Y-92949500D01*
X176266510Y-92980261D01*
X176266498Y-92980264D01*
X176120827Y-93040602D01*
X176120814Y-93040609D01*
X175989711Y-93128210D01*
X175989707Y-93128213D01*
X175878213Y-93239707D01*
X175878208Y-93239713D01*
X175846289Y-93287483D01*
X175792676Y-93332288D01*
X175723351Y-93340994D01*
X175660324Y-93310838D01*
X175655507Y-93306272D01*
X171327055Y-88977820D01*
X171293570Y-88916497D01*
X171293119Y-88865945D01*
X171300500Y-88828841D01*
X171300500Y-88671155D01*
X171300499Y-88671153D01*
X171292405Y-88630464D01*
X171269737Y-88516503D01*
X171269735Y-88516498D01*
X171209397Y-88370827D01*
X171209390Y-88370814D01*
X171121789Y-88239711D01*
X171121786Y-88239707D01*
X171010292Y-88128213D01*
X171010288Y-88128210D01*
X170879181Y-88040606D01*
X170876970Y-88039425D01*
X170876028Y-88038500D01*
X170874114Y-88037221D01*
X170874356Y-88036857D01*
X170827124Y-87990464D01*
X170811662Y-87922327D01*
X170835492Y-87856646D01*
X170854884Y-87835779D01*
X170940421Y-87762724D01*
X171262724Y-87440421D01*
X171558745Y-87093825D01*
X171671522Y-86938600D01*
X180541598Y-86938600D01*
X180541598Y-87143303D01*
X180573620Y-87345486D01*
X180636879Y-87540175D01*
X180729813Y-87722565D01*
X180850126Y-87888165D01*
X180994884Y-88032923D01*
X181126042Y-88128213D01*
X181160488Y-88153239D01*
X181276705Y-88212455D01*
X181342874Y-88246170D01*
X181342876Y-88246170D01*
X181342879Y-88246172D01*
X181447235Y-88280079D01*
X181537563Y-88309429D01*
X181638655Y-88325440D01*
X181739746Y-88341452D01*
X181739747Y-88341452D01*
X181944449Y-88341452D01*
X181944450Y-88341452D01*
X182146632Y-88309429D01*
X182341317Y-88246172D01*
X182523708Y-88153239D01*
X182616688Y-88085684D01*
X182689311Y-88032923D01*
X182689313Y-88032920D01*
X182689317Y-88032918D01*
X182834064Y-87888171D01*
X182834066Y-87888167D01*
X182834069Y-87888165D01*
X182925202Y-87762729D01*
X182954385Y-87722562D01*
X183047318Y-87540171D01*
X183110575Y-87345486D01*
X183142598Y-87143304D01*
X183142598Y-86938600D01*
X183110575Y-86736418D01*
X183106888Y-86725072D01*
X183047316Y-86541728D01*
X183013601Y-86475559D01*
X182954385Y-86359342D01*
X182937751Y-86336447D01*
X182834069Y-86193738D01*
X182689311Y-86048980D01*
X182523711Y-85928667D01*
X182523710Y-85928666D01*
X182523708Y-85928665D01*
X182466751Y-85899643D01*
X182341321Y-85835733D01*
X182146632Y-85772474D01*
X181972093Y-85744830D01*
X181944450Y-85740452D01*
X181739746Y-85740452D01*
X181715427Y-85744303D01*
X181537563Y-85772474D01*
X181342874Y-85835733D01*
X181160484Y-85928667D01*
X180994884Y-86048980D01*
X180850126Y-86193738D01*
X180729813Y-86359338D01*
X180636879Y-86541728D01*
X180573620Y-86736417D01*
X180541598Y-86938600D01*
X171671522Y-86938600D01*
X171826660Y-86725071D01*
X172064818Y-86336434D01*
X172271748Y-85930309D01*
X172446177Y-85509201D01*
X172587029Y-85075705D01*
X172693434Y-84632494D01*
X172764738Y-84182302D01*
X172800500Y-83727902D01*
X172800500Y-83272098D01*
X172764738Y-82817698D01*
X172693434Y-82367506D01*
X172587029Y-81924295D01*
X172446177Y-81490799D01*
X172407593Y-81397648D01*
X173449501Y-81397648D01*
X173449501Y-81602351D01*
X173481523Y-81804534D01*
X173544782Y-81999223D01*
X173637716Y-82181613D01*
X173758029Y-82347213D01*
X173902787Y-82491971D01*
X174057750Y-82604556D01*
X174068391Y-82612287D01*
X174184608Y-82671503D01*
X174250777Y-82705218D01*
X174250779Y-82705218D01*
X174250782Y-82705220D01*
X174355138Y-82739127D01*
X174445466Y-82768477D01*
X174546558Y-82784488D01*
X174647649Y-82800500D01*
X174647650Y-82800500D01*
X174852352Y-82800500D01*
X174852353Y-82800500D01*
X175054535Y-82768477D01*
X175249220Y-82705220D01*
X175431611Y-82612287D01*
X175524591Y-82544732D01*
X175597214Y-82491971D01*
X175597216Y-82491968D01*
X175597220Y-82491966D01*
X175741967Y-82347219D01*
X175741969Y-82347215D01*
X175741972Y-82347213D01*
X175794733Y-82274590D01*
X175862288Y-82181610D01*
X175955221Y-81999219D01*
X176018478Y-81804534D01*
X176050501Y-81602352D01*
X176050501Y-81397648D01*
X176018478Y-81195466D01*
X175955221Y-81000781D01*
X175955219Y-81000778D01*
X175955219Y-81000776D01*
X175914688Y-80921231D01*
X175862288Y-80818390D01*
X175854557Y-80807749D01*
X175741972Y-80652786D01*
X175597214Y-80508028D01*
X175431614Y-80387715D01*
X175431613Y-80387714D01*
X175431611Y-80387713D01*
X175374654Y-80358691D01*
X175249224Y-80294781D01*
X175054535Y-80231522D01*
X174879996Y-80203878D01*
X174852353Y-80199500D01*
X174647649Y-80199500D01*
X174623330Y-80203351D01*
X174445466Y-80231522D01*
X174250777Y-80294781D01*
X174068387Y-80387715D01*
X173902787Y-80508028D01*
X173758029Y-80652786D01*
X173637716Y-80818386D01*
X173544782Y-81000776D01*
X173481523Y-81195465D01*
X173449501Y-81397648D01*
X172407593Y-81397648D01*
X172271748Y-81069691D01*
X172064818Y-80663566D01*
X172064812Y-80663557D01*
X172064810Y-80663552D01*
X172064807Y-80663547D01*
X171826666Y-80274938D01*
X171826662Y-80274933D01*
X171826660Y-80274929D01*
X171558745Y-79906175D01*
X171262724Y-79559579D01*
X170940421Y-79237276D01*
X170593825Y-78941255D01*
X170225071Y-78673340D01*
X170225068Y-78673338D01*
X170225061Y-78673333D01*
X169836452Y-78435192D01*
X169836447Y-78435189D01*
X169836437Y-78435184D01*
X169836434Y-78435182D01*
X169430309Y-78228252D01*
X169302426Y-78175281D01*
X169009212Y-78053827D01*
X169009205Y-78053824D01*
X169009201Y-78053823D01*
X168575705Y-77912971D01*
X168132494Y-77806566D01*
X167682302Y-77735262D01*
X167227907Y-77699500D01*
X167227902Y-77699500D01*
X166772098Y-77699500D01*
X166772092Y-77699500D01*
X166317697Y-77735262D01*
X166317696Y-77735262D01*
X165867511Y-77806565D01*
X165867508Y-77806565D01*
X165867506Y-77806566D01*
X165708784Y-77844671D01*
X165424306Y-77912968D01*
X165424301Y-77912969D01*
X165424295Y-77912971D01*
X164990799Y-78053823D01*
X164990787Y-78053827D01*
X164569693Y-78228251D01*
X164163552Y-78435189D01*
X164163547Y-78435192D01*
X163774938Y-78673333D01*
X163774927Y-78673341D01*
X163406182Y-78941249D01*
X163406168Y-78941260D01*
X163059585Y-79237270D01*
X163059571Y-79237283D01*
X162737283Y-79559571D01*
X162737270Y-79559585D01*
X162441260Y-79906168D01*
X162441249Y-79906182D01*
X162173341Y-80274927D01*
X162173333Y-80274938D01*
X161935192Y-80663547D01*
X161935189Y-80663552D01*
X161728251Y-81069693D01*
X161553827Y-81490787D01*
X161553823Y-81490799D01*
X161412971Y-81924295D01*
X161311437Y-82347219D01*
X161306565Y-82367511D01*
X161235262Y-82817696D01*
X161235262Y-82817697D01*
X161199500Y-83272092D01*
X161199500Y-83727907D01*
X161235262Y-84182302D01*
X161235262Y-84182303D01*
X161306565Y-84632488D01*
X161306566Y-84632494D01*
X161412971Y-85075705D01*
X161553823Y-85509200D01*
X161553827Y-85509212D01*
X161639549Y-85716162D01*
X161728252Y-85930309D01*
X161935182Y-86336434D01*
X161935189Y-86336447D01*
X161935192Y-86336452D01*
X162173333Y-86725061D01*
X162173338Y-86725068D01*
X162173340Y-86725071D01*
X162441255Y-87093825D01*
X162737276Y-87440421D01*
X163059579Y-87762724D01*
X163406175Y-88058745D01*
X163774929Y-88326660D01*
X163774933Y-88326662D01*
X163774938Y-88326666D01*
X164163547Y-88564807D01*
X164163552Y-88564810D01*
X164163557Y-88564812D01*
X164163566Y-88564818D01*
X164569691Y-88771748D01*
X164990799Y-88946177D01*
X165424295Y-89087029D01*
X165867506Y-89193434D01*
X166317698Y-89264738D01*
X166772098Y-89300500D01*
X166772106Y-89300500D01*
X167227894Y-89300500D01*
X167227902Y-89300500D01*
X167532703Y-89276511D01*
X167601077Y-89290875D01*
X167650834Y-89339926D01*
X167666173Y-89408091D01*
X167642224Y-89473729D01*
X167630117Y-89487803D01*
X167628216Y-89489703D01*
X167628210Y-89489711D01*
X167540609Y-89620814D01*
X167540602Y-89620827D01*
X167480264Y-89766498D01*
X167480261Y-89766508D01*
X167449361Y-89921850D01*
X167440595Y-89938607D01*
X167436576Y-89957084D01*
X167417831Y-89982125D01*
X167416976Y-89983761D01*
X167415426Y-89985339D01*
X167287582Y-90113182D01*
X167226262Y-90146666D01*
X167199903Y-90149500D01*
X166079766Y-90149500D01*
X166012727Y-90129815D01*
X166010875Y-90128602D01*
X165879185Y-90040609D01*
X165879172Y-90040602D01*
X165733501Y-89980264D01*
X165733489Y-89980261D01*
X165578845Y-89949500D01*
X165578842Y-89949500D01*
X165421158Y-89949500D01*
X165421155Y-89949500D01*
X165266510Y-89980261D01*
X165266498Y-89980264D01*
X165120827Y-90040602D01*
X165120814Y-90040609D01*
X164989711Y-90128210D01*
X164989707Y-90128213D01*
X164878213Y-90239707D01*
X164878210Y-90239711D01*
X164790609Y-90370814D01*
X164790607Y-90370819D01*
X164789725Y-90372949D01*
X164788964Y-90373893D01*
X164787736Y-90376191D01*
X164787300Y-90375958D01*
X164745885Y-90427354D01*
X164679592Y-90449421D01*
X164675162Y-90449500D01*
X164671155Y-90449500D01*
X164516510Y-90480261D01*
X164516498Y-90480264D01*
X164370827Y-90540602D01*
X164370814Y-90540609D01*
X164239125Y-90628602D01*
X164221078Y-90634252D01*
X164205169Y-90644477D01*
X164174207Y-90648928D01*
X164172447Y-90649480D01*
X164170234Y-90649500D01*
X164098140Y-90649500D01*
X164098124Y-90649499D01*
X164090528Y-90649499D01*
X163932414Y-90649499D01*
X163852481Y-90670917D01*
X163779687Y-90690422D01*
X163746826Y-90709395D01*
X163746825Y-90709394D01*
X163642758Y-90769477D01*
X163642753Y-90769481D01*
X163530949Y-90881286D01*
X161381892Y-93030342D01*
X161363102Y-93045763D01*
X161239711Y-93128210D01*
X161239707Y-93128213D01*
X161128213Y-93239707D01*
X161128210Y-93239711D01*
X161040609Y-93370814D01*
X161040602Y-93370827D01*
X160980264Y-93516498D01*
X160980261Y-93516510D01*
X160949500Y-93671153D01*
X160949500Y-93675501D01*
X160929815Y-93742540D01*
X160877011Y-93788295D01*
X160825500Y-93799501D01*
X157020942Y-93799501D01*
X156868212Y-93840424D01*
X156822724Y-93866688D01*
X156822723Y-93866688D01*
X156731286Y-93919478D01*
X156731281Y-93919482D01*
X156235339Y-94415425D01*
X156174016Y-94448910D01*
X156171850Y-94449361D01*
X156016508Y-94480261D01*
X156016498Y-94480264D01*
X155870827Y-94540602D01*
X155870814Y-94540609D01*
X155739711Y-94628210D01*
X155739707Y-94628213D01*
X155628213Y-94739707D01*
X155628210Y-94739711D01*
X155540609Y-94870814D01*
X155540602Y-94870827D01*
X155480264Y-95016498D01*
X155480261Y-95016510D01*
X155449500Y-95171153D01*
X155449500Y-95328846D01*
X155480261Y-95483489D01*
X155480264Y-95483501D01*
X155540602Y-95629172D01*
X155540609Y-95629185D01*
X155628210Y-95760288D01*
X155628213Y-95760292D01*
X155739707Y-95871786D01*
X155739711Y-95871789D01*
X155870814Y-95959390D01*
X155870821Y-95959394D01*
X155926030Y-95982262D01*
X155980433Y-96026102D01*
X156002499Y-96092396D01*
X155985221Y-96160095D01*
X155966259Y-96184504D01*
X155735339Y-96415425D01*
X155674016Y-96448910D01*
X155671850Y-96449361D01*
X155516508Y-96480261D01*
X155516498Y-96480264D01*
X155370827Y-96540602D01*
X155370814Y-96540609D01*
X155239711Y-96628210D01*
X155239707Y-96628213D01*
X155128213Y-96739707D01*
X155128210Y-96739711D01*
X155040609Y-96870814D01*
X155040602Y-96870827D01*
X154980264Y-97016498D01*
X154980261Y-97016510D01*
X154949500Y-97171153D01*
X154949500Y-97328846D01*
X154980261Y-97483489D01*
X154980264Y-97483501D01*
X155040602Y-97629172D01*
X155040609Y-97629185D01*
X155128210Y-97760288D01*
X155128213Y-97760292D01*
X155239707Y-97871786D01*
X155239711Y-97871789D01*
X155370814Y-97959390D01*
X155370827Y-97959397D01*
X155516498Y-98019735D01*
X155516503Y-98019737D01*
X155671153Y-98050499D01*
X155671156Y-98050500D01*
X155671158Y-98050500D01*
X155828844Y-98050500D01*
X155828845Y-98050499D01*
X155983497Y-98019737D01*
X156129179Y-97959394D01*
X156260289Y-97871789D01*
X156371789Y-97760289D01*
X156459394Y-97629179D01*
X156519737Y-97483497D01*
X156539113Y-97386085D01*
X156550638Y-97328150D01*
X156583023Y-97266239D01*
X156584518Y-97264716D01*
X157312414Y-96536821D01*
X157373737Y-96503336D01*
X157400095Y-96500502D01*
X160832153Y-96500502D01*
X160899192Y-96520187D01*
X160944947Y-96572991D01*
X160953770Y-96600311D01*
X160980261Y-96733489D01*
X160980264Y-96733501D01*
X161040602Y-96879172D01*
X161040611Y-96879188D01*
X161044974Y-96885718D01*
X161065851Y-96952395D01*
X161047366Y-97019775D01*
X161044973Y-97023497D01*
X160979951Y-97120809D01*
X160979941Y-97120827D01*
X160919603Y-97266498D01*
X160919600Y-97266510D01*
X160888839Y-97421153D01*
X160888839Y-97578846D01*
X160919600Y-97733489D01*
X160919603Y-97733501D01*
X160979941Y-97879172D01*
X160979948Y-97879185D01*
X161067549Y-98010288D01*
X161067552Y-98010292D01*
X161179049Y-98121789D01*
X161310154Y-98209390D01*
X161310160Y-98209394D01*
X161333814Y-98219191D01*
X161374042Y-98246071D01*
X161710917Y-98582947D01*
X161710920Y-98582950D01*
X161763696Y-98618213D01*
X161833847Y-98665086D01*
X161940825Y-98709397D01*
X161970426Y-98721658D01*
X161970430Y-98721658D01*
X161970431Y-98721659D01*
X162115418Y-98750500D01*
X162115421Y-98750500D01*
X162115422Y-98750500D01*
X162263257Y-98750500D01*
X166445396Y-98750500D01*
X166492844Y-98759937D01*
X166516503Y-98769737D01*
X166516508Y-98769738D01*
X166516511Y-98769739D01*
X166671153Y-98800499D01*
X166671156Y-98800500D01*
X166671158Y-98800500D01*
X166828844Y-98800500D01*
X166828845Y-98800499D01*
X166983497Y-98769737D01*
X167129179Y-98709394D01*
X167260289Y-98621789D01*
X167371789Y-98510289D01*
X167459394Y-98379179D01*
X167519737Y-98233497D01*
X167550500Y-98078842D01*
X167550500Y-97921158D01*
X167550500Y-97921155D01*
X167550499Y-97921153D01*
X167536086Y-97848691D01*
X167542313Y-97779100D01*
X167585176Y-97723922D01*
X167651066Y-97700678D01*
X167657703Y-97700500D01*
X171449903Y-97700500D01*
X171516942Y-97720185D01*
X171537584Y-97736819D01*
X176165140Y-102364375D01*
X176165150Y-102364386D01*
X176169480Y-102368716D01*
X176169481Y-102368717D01*
X176281285Y-102480521D01*
X176368096Y-102530640D01*
X176380598Y-102537858D01*
X176428813Y-102588426D01*
X176442035Y-102657033D01*
X176438372Y-102677334D01*
X176399498Y-102822415D01*
X176399498Y-102822417D01*
X176399498Y-102990518D01*
X176399499Y-102990531D01*
X176399499Y-104820235D01*
X176379814Y-104887274D01*
X176378601Y-104889126D01*
X176290608Y-105020815D01*
X176290601Y-105020828D01*
X176230263Y-105166499D01*
X176230260Y-105166511D01*
X176199499Y-105321154D01*
X176199499Y-105375500D01*
X176179814Y-105442539D01*
X176127010Y-105488294D01*
X176075499Y-105499500D01*
X176026080Y-105499500D01*
X175881092Y-105528340D01*
X175881082Y-105528343D01*
X175744511Y-105584912D01*
X175744498Y-105584919D01*
X175621584Y-105667048D01*
X175621580Y-105667051D01*
X174617052Y-106671578D01*
X174617046Y-106671585D01*
X174579074Y-106728415D01*
X174579075Y-106728416D01*
X174534913Y-106794508D01*
X174478343Y-106931082D01*
X174478340Y-106931092D01*
X174449500Y-107076079D01*
X174449500Y-107076082D01*
X174449500Y-109384579D01*
X174449500Y-109384581D01*
X174449499Y-109384581D01*
X174478340Y-109529568D01*
X174478343Y-109529578D01*
X174534912Y-109666149D01*
X174534918Y-109666160D01*
X174545356Y-109681780D01*
X174545358Y-109681785D01*
X174617046Y-109789075D01*
X174617047Y-109789076D01*
X174617048Y-109789077D01*
X174813182Y-109985210D01*
X174846666Y-110046531D01*
X174849500Y-110072890D01*
X174849500Y-110936385D01*
X174829815Y-111003424D01*
X174798388Y-111036701D01*
X174785356Y-111046169D01*
X174646171Y-111185355D01*
X174530476Y-111344594D01*
X174441117Y-111519970D01*
X174380290Y-111707173D01*
X174349500Y-111901577D01*
X174349500Y-112098421D01*
X174352019Y-112114329D01*
X174343062Y-112183622D01*
X174317226Y-112221404D01*
X173725451Y-112813181D01*
X173664128Y-112846666D01*
X173637770Y-112849500D01*
X173221251Y-112849500D01*
X173154212Y-112829815D01*
X173108457Y-112777011D01*
X173098513Y-112707853D01*
X173117891Y-112660120D01*
X173116550Y-112659299D01*
X173119091Y-112655151D01*
X173208418Y-112479835D01*
X173269221Y-112292705D01*
X173300000Y-112098382D01*
X173300000Y-111901617D01*
X173269221Y-111707294D01*
X173208418Y-111520164D01*
X173119096Y-111344858D01*
X173093678Y-111309873D01*
X173093677Y-111309873D01*
X172314457Y-112089095D01*
X172253134Y-112122580D01*
X172183443Y-112117596D01*
X172139095Y-112089095D01*
X172050000Y-112000000D01*
X171960904Y-112089096D01*
X171899581Y-112122580D01*
X171829889Y-112117596D01*
X171785542Y-112089095D01*
X171006320Y-111309872D01*
X171006320Y-111309873D01*
X170980902Y-111344859D01*
X170980899Y-111344863D01*
X170891582Y-111520161D01*
X170830778Y-111707294D01*
X170800000Y-111901617D01*
X170800000Y-112098382D01*
X170830778Y-112292705D01*
X170891581Y-112479835D01*
X170980908Y-112655151D01*
X170983450Y-112659299D01*
X170981806Y-112660306D01*
X171002545Y-112718398D01*
X170986733Y-112786455D01*
X170936636Y-112835159D01*
X170878749Y-112849500D01*
X169671870Y-112849500D01*
X169604831Y-112829815D01*
X169559076Y-112777011D01*
X169549132Y-112707853D01*
X169568380Y-112660420D01*
X169566978Y-112659561D01*
X169569519Y-112655413D01*
X169569520Y-112655409D01*
X169569524Y-112655405D01*
X169658884Y-112480025D01*
X169719709Y-112292826D01*
X169738097Y-112176728D01*
X169750500Y-112098422D01*
X169750500Y-111901577D01*
X169719709Y-111707173D01*
X169658882Y-111519970D01*
X169611743Y-111427455D01*
X169569524Y-111344595D01*
X169453828Y-111185354D01*
X169314646Y-111046172D01*
X169190976Y-110956320D01*
X171359872Y-110956320D01*
X172050000Y-111646446D01*
X172050001Y-111646446D01*
X172740125Y-110956320D01*
X172740125Y-110956319D01*
X172705145Y-110930905D01*
X172529835Y-110841581D01*
X172342705Y-110780778D01*
X172148382Y-110750000D01*
X171951618Y-110750000D01*
X171757294Y-110780778D01*
X171570161Y-110841582D01*
X171394863Y-110930899D01*
X171394859Y-110930902D01*
X171359873Y-110956320D01*
X171359872Y-110956320D01*
X169190976Y-110956320D01*
X169155405Y-110930476D01*
X168980029Y-110841117D01*
X168792826Y-110780290D01*
X168598422Y-110749500D01*
X168598417Y-110749500D01*
X168401583Y-110749500D01*
X168401578Y-110749500D01*
X168207173Y-110780290D01*
X168019970Y-110841117D01*
X167844594Y-110930476D01*
X167795161Y-110966392D01*
X167685354Y-111046172D01*
X167685352Y-111046174D01*
X167685351Y-111046174D01*
X167546174Y-111185351D01*
X167546174Y-111185352D01*
X167546172Y-111185354D01*
X167510170Y-111234906D01*
X167430476Y-111344594D01*
X167341117Y-111519970D01*
X167280290Y-111707173D01*
X167249500Y-111901577D01*
X167249500Y-112098422D01*
X167281023Y-112297452D01*
X167280322Y-112302870D01*
X167282233Y-112307990D01*
X167275892Y-112337153D01*
X167272068Y-112366746D01*
X167268241Y-112372342D01*
X167267389Y-112376264D01*
X167246241Y-112404521D01*
X167237593Y-112413171D01*
X167176274Y-112446663D01*
X167149902Y-112449500D01*
X166289388Y-112449500D01*
X166222349Y-112429815D01*
X166176594Y-112377011D01*
X166166650Y-112307853D01*
X166168814Y-112296553D01*
X166169704Y-112292840D01*
X166169709Y-112292826D01*
X166188097Y-112176728D01*
X166200500Y-112098422D01*
X166200500Y-111901577D01*
X166169709Y-111707173D01*
X166108882Y-111519970D01*
X166061743Y-111427455D01*
X166019524Y-111344595D01*
X165903828Y-111185354D01*
X165764646Y-111046172D01*
X165605405Y-110930476D01*
X165430029Y-110841117D01*
X165242826Y-110780290D01*
X165048422Y-110749500D01*
X165048417Y-110749500D01*
X164851583Y-110749500D01*
X164851577Y-110749500D01*
X164652544Y-110781023D01*
X164583251Y-110772068D01*
X164545466Y-110746231D01*
X163036819Y-109237583D01*
X163003334Y-109176260D01*
X163000500Y-109149902D01*
X163000500Y-108867847D01*
X163020185Y-108800808D01*
X163072989Y-108755053D01*
X163100309Y-108746230D01*
X163116291Y-108743050D01*
X163233497Y-108719737D01*
X163379179Y-108659394D01*
X163510289Y-108571789D01*
X163621789Y-108460289D01*
X163709394Y-108329179D01*
X163769737Y-108183497D01*
X163800500Y-108028842D01*
X163800500Y-107871158D01*
X163800500Y-107871155D01*
X163800499Y-107871153D01*
X163769738Y-107716510D01*
X163769737Y-107716503D01*
X163769735Y-107716498D01*
X163709397Y-107570827D01*
X163709390Y-107570814D01*
X163621789Y-107439711D01*
X163621786Y-107439707D01*
X163510292Y-107328213D01*
X163510288Y-107328210D01*
X163379185Y-107240609D01*
X163379172Y-107240602D01*
X163233501Y-107180264D01*
X163233491Y-107180261D01*
X163100308Y-107153769D01*
X163038397Y-107121384D01*
X163003823Y-107060668D01*
X163000500Y-107032152D01*
X163000500Y-104617847D01*
X163020185Y-104550808D01*
X163072989Y-104505053D01*
X163100309Y-104496230D01*
X163116291Y-104493050D01*
X163233497Y-104469737D01*
X163379179Y-104409394D01*
X163510289Y-104321789D01*
X163621789Y-104210289D01*
X163709394Y-104079179D01*
X163769737Y-103933497D01*
X163800500Y-103778842D01*
X163800500Y-103621158D01*
X163800500Y-103621155D01*
X163800499Y-103621153D01*
X163783577Y-103536082D01*
X163769737Y-103466503D01*
X163767478Y-103461049D01*
X163710070Y-103322452D01*
X163702601Y-103252983D01*
X163710068Y-103227551D01*
X163769738Y-103083496D01*
X163800501Y-102928841D01*
X163800501Y-102771157D01*
X163800501Y-102771154D01*
X163800500Y-102771152D01*
X163769739Y-102616509D01*
X163769739Y-102616507D01*
X163769738Y-102616502D01*
X163747567Y-102562975D01*
X163709398Y-102470826D01*
X163709391Y-102470813D01*
X163621790Y-102339710D01*
X163621787Y-102339706D01*
X163510293Y-102228212D01*
X163510289Y-102228209D01*
X163379186Y-102140608D01*
X163379173Y-102140601D01*
X163233502Y-102080263D01*
X163233490Y-102080260D01*
X163078846Y-102049499D01*
X163078843Y-102049499D01*
X162921159Y-102049499D01*
X162921156Y-102049499D01*
X162766511Y-102080260D01*
X162766499Y-102080263D01*
X162620828Y-102140601D01*
X162620815Y-102140608D01*
X162489712Y-102228209D01*
X162489708Y-102228212D01*
X162378214Y-102339706D01*
X162378211Y-102339710D01*
X162290610Y-102470813D01*
X162290603Y-102470826D01*
X162230265Y-102616497D01*
X162230262Y-102616507D01*
X162199362Y-102771849D01*
X162166977Y-102833760D01*
X162165426Y-102835338D01*
X161519481Y-103481282D01*
X161519477Y-103481287D01*
X161492270Y-103528414D01*
X161492269Y-103528416D01*
X161440423Y-103618215D01*
X161399499Y-103770943D01*
X161399499Y-103770945D01*
X161399499Y-103939046D01*
X161399500Y-103939059D01*
X161399500Y-107825500D01*
X161379815Y-107892539D01*
X161327011Y-107938294D01*
X161275500Y-107949500D01*
X161171155Y-107949500D01*
X161016510Y-107980261D01*
X161016498Y-107980264D01*
X160870827Y-108040602D01*
X160870814Y-108040609D01*
X160739711Y-108128210D01*
X160739707Y-108128213D01*
X160628213Y-108239707D01*
X160628210Y-108239711D01*
X160540609Y-108370814D01*
X160540602Y-108370827D01*
X160480264Y-108516498D01*
X160480261Y-108516510D01*
X160449500Y-108671153D01*
X160449500Y-108828846D01*
X160480261Y-108983489D01*
X160480263Y-108983497D01*
X160490061Y-109007151D01*
X160499500Y-109054604D01*
X160499500Y-110636661D01*
X160499500Y-110636663D01*
X160499499Y-110636663D01*
X160528340Y-110781650D01*
X160528343Y-110781660D01*
X160566885Y-110874708D01*
X160584916Y-110918238D01*
X160606460Y-110950482D01*
X160617090Y-110966391D01*
X160667049Y-111041161D01*
X163808838Y-114182950D01*
X163808841Y-114182952D01*
X163878391Y-114229423D01*
X163931762Y-114265084D01*
X163931763Y-114265084D01*
X163931767Y-114265087D01*
X163933744Y-114266144D01*
X163934584Y-114266969D01*
X163936827Y-114268468D01*
X163936542Y-114268893D01*
X163983587Y-114315108D01*
X163999045Y-114383246D01*
X163975211Y-114448925D01*
X163919652Y-114491292D01*
X163875287Y-114499500D01*
X154002872Y-114499500D01*
X153997145Y-114499368D01*
X153636695Y-114482703D01*
X153625291Y-114481646D01*
X153270768Y-114432192D01*
X153259509Y-114430087D01*
X152911068Y-114348135D01*
X152900052Y-114345001D01*
X152560644Y-114231243D01*
X152549964Y-114227105D01*
X152449962Y-114182950D01*
X152222511Y-114082520D01*
X152212268Y-114077420D01*
X152110316Y-114020633D01*
X151899546Y-113903235D01*
X151889808Y-113897206D01*
X151594486Y-113694906D01*
X151585346Y-113688003D01*
X151309964Y-113459329D01*
X151301500Y-113451613D01*
X151048386Y-113198499D01*
X151040670Y-113190035D01*
X150934243Y-113061870D01*
X150811994Y-112914650D01*
X150805093Y-112905513D01*
X150756899Y-112835159D01*
X150662998Y-112698080D01*
X150602793Y-112610191D01*
X150596764Y-112600453D01*
X150529580Y-112479835D01*
X150422574Y-112287723D01*
X150417482Y-112277496D01*
X150272889Y-111950022D01*
X150268761Y-111939368D01*
X150154994Y-111599934D01*
X150151867Y-111588944D01*
X150069910Y-111240482D01*
X150067807Y-111229231D01*
X150061686Y-111185354D01*
X150018352Y-110874700D01*
X150017296Y-110863304D01*
X150016270Y-110841117D01*
X150000632Y-110502855D01*
X150000500Y-110497128D01*
X150000500Y-78502871D01*
X150000632Y-78497144D01*
X150010062Y-78293178D01*
X150017296Y-78136686D01*
X150018353Y-78125291D01*
X150028322Y-78053827D01*
X150067808Y-77770757D01*
X150069909Y-77759520D01*
X150151869Y-77411049D01*
X150154992Y-77400070D01*
X150268763Y-77060623D01*
X150272886Y-77049984D01*
X150417486Y-76722494D01*
X150422569Y-76712285D01*
X150596767Y-76399540D01*
X150602793Y-76389808D01*
X150662998Y-76301920D01*
X150805103Y-76094472D01*
X150811986Y-76085359D01*
X151040681Y-75809951D01*
X151048375Y-75801511D01*
X151301511Y-75548375D01*
X151309951Y-75540681D01*
X151585359Y-75311986D01*
X151594472Y-75305103D01*
X151889813Y-75102789D01*
X151899540Y-75096767D01*
X152212285Y-74922569D01*
X152222494Y-74917486D01*
X152549984Y-74772886D01*
X152560623Y-74768763D01*
X152900070Y-74654992D01*
X152911049Y-74651869D01*
X153259520Y-74569909D01*
X153270757Y-74567808D01*
X153625301Y-74518352D01*
X153636686Y-74517296D01*
X153997145Y-74500632D01*
X154002872Y-74500500D01*
X154065892Y-74500500D01*
X185934108Y-74500500D01*
X185997128Y-74500500D01*
X186002855Y-74500632D01*
G37*
G04 #@! TD.AperFunction*
G04 #@! TA.AperFunction,Conductor*
G36*
X181657945Y-100441745D02*
G01*
X181662747Y-100446297D01*
X181925841Y-100709390D01*
X182213181Y-100996730D01*
X182246666Y-101058053D01*
X182249500Y-101084411D01*
X182249500Y-102745396D01*
X182240062Y-102792844D01*
X182230263Y-102816503D01*
X182230262Y-102816506D01*
X182230260Y-102816511D01*
X182199500Y-102971153D01*
X182199500Y-103106762D01*
X182192302Y-103131272D01*
X182189038Y-103156613D01*
X182182622Y-103164240D01*
X182179815Y-103173801D01*
X182160511Y-103190527D01*
X182144063Y-103210083D01*
X182134540Y-103213031D01*
X182127011Y-103219556D01*
X182101727Y-103223191D01*
X182077319Y-103230749D01*
X182067716Y-103228081D01*
X182057853Y-103229500D01*
X182034615Y-103218887D01*
X182009998Y-103212050D01*
X182001383Y-103203711D01*
X181994297Y-103200475D01*
X181982988Y-103189331D01*
X181977212Y-103182859D01*
X181942951Y-103131584D01*
X181838416Y-103027049D01*
X179996071Y-101184703D01*
X179969191Y-101144475D01*
X179959394Y-101120821D01*
X179883948Y-101007908D01*
X179863070Y-100941230D01*
X179881555Y-100873850D01*
X179899365Y-100851340D01*
X180113887Y-100636819D01*
X180140814Y-100622115D01*
X180166633Y-100605523D01*
X180172833Y-100604631D01*
X180175210Y-100603334D01*
X180201568Y-100600500D01*
X180240234Y-100600500D01*
X180307273Y-100620185D01*
X180309125Y-100621398D01*
X180440814Y-100709390D01*
X180440827Y-100709397D01*
X180586498Y-100769735D01*
X180586503Y-100769737D01*
X180741153Y-100800499D01*
X180741156Y-100800500D01*
X180741158Y-100800500D01*
X180898844Y-100800500D01*
X180898845Y-100800499D01*
X181053497Y-100769737D01*
X181199179Y-100709394D01*
X181330289Y-100621789D01*
X181441789Y-100510289D01*
X181471981Y-100465102D01*
X181525592Y-100420299D01*
X181594917Y-100411591D01*
X181657945Y-100441745D01*
G37*
G04 #@! TD.AperFunction*
G04 #@! TA.AperFunction,Conductor*
G36*
X176200781Y-98820185D02*
G01*
X176246536Y-98872989D01*
X176248303Y-98877047D01*
X176289930Y-98977544D01*
X176297399Y-99047014D01*
X176289930Y-99072449D01*
X176230263Y-99216498D01*
X176230260Y-99216510D01*
X176199499Y-99371153D01*
X176199499Y-99528846D01*
X176230260Y-99683489D01*
X176230263Y-99683501D01*
X176289929Y-99827549D01*
X176297398Y-99897018D01*
X176289929Y-99922453D01*
X176230264Y-100066498D01*
X176230261Y-100066510D01*
X176199500Y-100221153D01*
X176199500Y-100378851D01*
X176199564Y-100379170D01*
X176199548Y-100379339D01*
X176200097Y-100384907D01*
X176199040Y-100385011D01*
X176193329Y-100448761D01*
X176150459Y-100503933D01*
X176084567Y-100527170D01*
X176016572Y-100511094D01*
X175990263Y-100491028D01*
X174511416Y-99012181D01*
X174477931Y-98950858D01*
X174482915Y-98881166D01*
X174524787Y-98825233D01*
X174590251Y-98800816D01*
X174599097Y-98800500D01*
X176133742Y-98800500D01*
X176200781Y-98820185D01*
G37*
G04 #@! TD.AperFunction*
G04 #@! TA.AperFunction,Conductor*
G36*
X172425471Y-92930185D02*
G01*
X172446113Y-92946819D01*
X176925197Y-97425903D01*
X176958682Y-97487226D01*
X176953698Y-97556918D01*
X176911826Y-97612851D01*
X176846362Y-97637268D01*
X176805423Y-97633359D01*
X176679058Y-97599499D01*
X176520944Y-97599499D01*
X176513348Y-97599499D01*
X176513332Y-97599500D01*
X173715783Y-97599500D01*
X173648744Y-97579815D01*
X173628102Y-97563181D01*
X172811180Y-96746259D01*
X172777695Y-96684936D01*
X172782679Y-96615244D01*
X172811177Y-96570900D01*
X172871789Y-96510289D01*
X172959394Y-96379179D01*
X173019737Y-96233497D01*
X173050500Y-96078842D01*
X173050500Y-95921158D01*
X173050500Y-95921155D01*
X173050499Y-95921153D01*
X173019739Y-95766511D01*
X173019738Y-95766508D01*
X173019737Y-95766503D01*
X173009937Y-95742844D01*
X173000500Y-95695396D01*
X173000500Y-94426079D01*
X172971659Y-94281092D01*
X172971658Y-94281091D01*
X172971658Y-94281087D01*
X172922486Y-94162375D01*
X172915087Y-94144511D01*
X172915080Y-94144498D01*
X172832952Y-94021585D01*
X172794864Y-93983497D01*
X172728416Y-93917049D01*
X172246072Y-93434705D01*
X172219191Y-93394473D01*
X172209397Y-93370828D01*
X172209396Y-93370826D01*
X172209394Y-93370821D01*
X172166264Y-93306272D01*
X172121789Y-93239710D01*
X172005982Y-93123903D01*
X172007482Y-93122402D01*
X171973563Y-93072600D01*
X171971697Y-93002756D01*
X172007888Y-92942989D01*
X172070646Y-92912277D01*
X172091565Y-92910500D01*
X172358432Y-92910500D01*
X172425471Y-92930185D01*
G37*
G04 #@! TD.AperFunction*
G04 #@! TA.AperFunction,Conductor*
G36*
X170083093Y-90022813D02*
G01*
X170105607Y-90040628D01*
X171562798Y-91497819D01*
X171596283Y-91559142D01*
X171591299Y-91628834D01*
X171549427Y-91684767D01*
X171483963Y-91709184D01*
X171475117Y-91709500D01*
X170172414Y-91709500D01*
X170019688Y-91750422D01*
X170019686Y-91750422D01*
X170019686Y-91750423D01*
X170002598Y-91760289D01*
X170002595Y-91760291D01*
X170002594Y-91760290D01*
X169882758Y-91829477D01*
X169882753Y-91829481D01*
X169419479Y-92292755D01*
X169393648Y-92337499D01*
X169343082Y-92385715D01*
X169286260Y-92399500D01*
X164829766Y-92399500D01*
X164812609Y-92394462D01*
X164794729Y-92394447D01*
X164764711Y-92380397D01*
X164762727Y-92379815D01*
X164762637Y-92379758D01*
X164760387Y-92378309D01*
X164760289Y-92378211D01*
X164629179Y-92290606D01*
X164615147Y-92284794D01*
X164605773Y-92278758D01*
X164589918Y-92260429D01*
X164571047Y-92245222D01*
X164567470Y-92234477D01*
X164560064Y-92225915D01*
X164556635Y-92201924D01*
X164548981Y-92178928D01*
X164551780Y-92167957D01*
X164550179Y-92156748D01*
X164560265Y-92134711D01*
X164566259Y-92111229D01*
X164574546Y-92103512D01*
X164579259Y-92093217D01*
X164599657Y-92080132D01*
X164617395Y-92063617D01*
X164630075Y-92060620D01*
X164638069Y-92055493D01*
X164651723Y-92055504D01*
X164672902Y-92050500D01*
X164828844Y-92050500D01*
X164828845Y-92050499D01*
X164983497Y-92019737D01*
X165129179Y-91959394D01*
X165260289Y-91871789D01*
X165302601Y-91829477D01*
X165371788Y-91760291D01*
X165371789Y-91760289D01*
X165459394Y-91629179D01*
X165460275Y-91627049D01*
X165461035Y-91626106D01*
X165462264Y-91623809D01*
X165462699Y-91624041D01*
X165504115Y-91572646D01*
X165570408Y-91550579D01*
X165574838Y-91550500D01*
X165578844Y-91550500D01*
X165578845Y-91550499D01*
X165733497Y-91519737D01*
X165879179Y-91459394D01*
X165941309Y-91417880D01*
X166010875Y-91371398D01*
X166077553Y-91350520D01*
X166079766Y-91350500D01*
X167413331Y-91350500D01*
X167413347Y-91350501D01*
X167420943Y-91350501D01*
X167579054Y-91350501D01*
X167579057Y-91350501D01*
X167731785Y-91309577D01*
X167781904Y-91280639D01*
X167868716Y-91230520D01*
X167980520Y-91118716D01*
X167980520Y-91118714D01*
X167990728Y-91108507D01*
X167990729Y-91108504D01*
X168264661Y-90834572D01*
X168325983Y-90801089D01*
X168328150Y-90800638D01*
X168386085Y-90789113D01*
X168483497Y-90769737D01*
X168629179Y-90709394D01*
X168760289Y-90621789D01*
X168871789Y-90510289D01*
X168959394Y-90379179D01*
X169019737Y-90233497D01*
X169019737Y-90233496D01*
X169022068Y-90227869D01*
X169024287Y-90228788D01*
X169056740Y-90179224D01*
X169120540Y-90150741D01*
X169184593Y-90159062D01*
X169210364Y-90169737D01*
X169365014Y-90200499D01*
X169365017Y-90200500D01*
X169365019Y-90200500D01*
X169522705Y-90200500D01*
X169522706Y-90200499D01*
X169677358Y-90169737D01*
X169823040Y-90109394D01*
X169840923Y-90097445D01*
X169949035Y-90025207D01*
X170015712Y-90004329D01*
X170083093Y-90022813D01*
G37*
G04 #@! TD.AperFunction*
G04 #@! TA.AperFunction,Conductor*
G36*
X143002855Y-31500632D02*
G01*
X143363311Y-31517296D01*
X143374700Y-31518352D01*
X143729238Y-31567808D01*
X143740482Y-31569910D01*
X144088944Y-31651867D01*
X144099934Y-31654994D01*
X144439368Y-31768761D01*
X144450022Y-31772889D01*
X144777496Y-31917482D01*
X144787723Y-31922574D01*
X145030656Y-32057887D01*
X145100453Y-32096764D01*
X145110191Y-32102793D01*
X145405513Y-32305093D01*
X145414653Y-32311996D01*
X145690035Y-32540670D01*
X145698499Y-32548386D01*
X145951613Y-32801500D01*
X145959329Y-32809964D01*
X146188003Y-33085346D01*
X146194906Y-33094486D01*
X146397206Y-33389808D01*
X146403235Y-33399546D01*
X146577418Y-33712263D01*
X146582523Y-33722516D01*
X146727105Y-34049964D01*
X146731243Y-34060644D01*
X146845001Y-34400052D01*
X146848135Y-34411068D01*
X146930087Y-34759509D01*
X146932192Y-34770768D01*
X146981646Y-35125291D01*
X146982703Y-35136695D01*
X146999368Y-35497144D01*
X146999500Y-35502871D01*
X146999500Y-67497128D01*
X146999368Y-67502855D01*
X146982703Y-67863304D01*
X146981646Y-67874708D01*
X146932192Y-68229231D01*
X146930087Y-68240490D01*
X146848135Y-68588931D01*
X146845001Y-68599947D01*
X146731243Y-68939355D01*
X146727105Y-68950035D01*
X146582523Y-69277483D01*
X146577418Y-69287736D01*
X146403235Y-69600453D01*
X146397206Y-69610191D01*
X146194906Y-69905513D01*
X146188003Y-69914653D01*
X145959329Y-70190035D01*
X145951613Y-70198499D01*
X145698499Y-70451613D01*
X145690035Y-70459329D01*
X145414653Y-70688003D01*
X145405513Y-70694906D01*
X145110191Y-70897206D01*
X145100453Y-70903235D01*
X144787736Y-71077418D01*
X144777483Y-71082523D01*
X144450035Y-71227105D01*
X144439355Y-71231243D01*
X144099947Y-71345001D01*
X144088931Y-71348135D01*
X143740490Y-71430087D01*
X143729231Y-71432192D01*
X143374708Y-71481646D01*
X143363304Y-71482703D01*
X143002855Y-71499368D01*
X142997128Y-71499500D01*
X131411970Y-71499500D01*
X131344931Y-71479815D01*
X131299176Y-71427011D01*
X131289232Y-71357853D01*
X131318257Y-71294297D01*
X131350490Y-71268557D01*
X131350430Y-71268468D01*
X131351487Y-71267761D01*
X131353513Y-71266144D01*
X131355489Y-71265087D01*
X131355491Y-71265085D01*
X131355495Y-71265084D01*
X131408866Y-71229423D01*
X131478416Y-71182952D01*
X132378596Y-70282770D01*
X132439917Y-70249287D01*
X132485673Y-70247980D01*
X132501583Y-70250500D01*
X132501584Y-70250500D01*
X132698422Y-70250500D01*
X132892826Y-70219709D01*
X132958103Y-70198499D01*
X133080025Y-70158884D01*
X133255405Y-70069524D01*
X133414646Y-69953828D01*
X133553828Y-69814646D01*
X133669524Y-69655405D01*
X133758884Y-69480025D01*
X133819709Y-69292826D01*
X133838097Y-69176728D01*
X133850500Y-69098422D01*
X133850500Y-68901577D01*
X133819709Y-68707173D01*
X133758882Y-68519970D01*
X133711743Y-68427455D01*
X133669524Y-68344595D01*
X133553828Y-68185354D01*
X133414646Y-68046172D01*
X133414645Y-68046171D01*
X133414643Y-68046169D01*
X133401612Y-68036701D01*
X133358948Y-67981370D01*
X133350500Y-67936385D01*
X133350500Y-66636740D01*
X133321659Y-66491753D01*
X133321658Y-66491752D01*
X133321658Y-66491748D01*
X133277268Y-66384581D01*
X133265087Y-66355172D01*
X133265080Y-66355159D01*
X133182952Y-66232246D01*
X133151970Y-66201264D01*
X133078416Y-66127710D01*
X132986818Y-66036111D01*
X132953334Y-65974787D01*
X132950500Y-65948430D01*
X132950500Y-64512229D01*
X132970185Y-64445190D01*
X132986819Y-64424548D01*
X133374548Y-64036819D01*
X133435871Y-64003334D01*
X133462229Y-64000500D01*
X133695396Y-64000500D01*
X133742844Y-64009937D01*
X133766503Y-64019737D01*
X133766508Y-64019738D01*
X133766511Y-64019739D01*
X133921153Y-64050499D01*
X133921156Y-64050500D01*
X133921158Y-64050500D01*
X134078844Y-64050500D01*
X134078845Y-64050499D01*
X134233497Y-64019737D01*
X134379179Y-63959394D01*
X134510289Y-63871789D01*
X134621789Y-63760289D01*
X134709394Y-63629179D01*
X134769737Y-63483497D01*
X134800500Y-63328842D01*
X134800500Y-63171158D01*
X134800500Y-63171155D01*
X134800499Y-63171153D01*
X134769738Y-63016510D01*
X134769737Y-63016503D01*
X134710068Y-62872450D01*
X134702600Y-62802982D01*
X134710067Y-62777552D01*
X134769736Y-62633498D01*
X134800499Y-62478843D01*
X134800499Y-62321159D01*
X134800499Y-62321156D01*
X134800498Y-62321154D01*
X134784192Y-62239179D01*
X134769736Y-62166504D01*
X134769734Y-62166499D01*
X134709396Y-62020828D01*
X134709389Y-62020815D01*
X134621397Y-61889126D01*
X134600519Y-61822448D01*
X134600499Y-61820235D01*
X134600499Y-60201569D01*
X134620184Y-60134530D01*
X134636818Y-60113888D01*
X135093673Y-59657033D01*
X135601338Y-59149367D01*
X135627115Y-59135292D01*
X135651475Y-59118870D01*
X135657430Y-59118739D01*
X135662659Y-59115884D01*
X135691962Y-59117979D01*
X135721327Y-59117334D01*
X135728502Y-59120592D01*
X135732350Y-59120868D01*
X135753747Y-59131286D01*
X135755855Y-59132576D01*
X135870821Y-59209394D01*
X135903460Y-59222913D01*
X135911752Y-59227988D01*
X135918055Y-59234947D01*
X135934703Y-59246071D01*
X137573181Y-60884548D01*
X137606666Y-60945871D01*
X137609500Y-60972229D01*
X137609500Y-61555396D01*
X137600062Y-61602844D01*
X137590263Y-61626503D01*
X137590262Y-61626506D01*
X137590260Y-61626511D01*
X137559500Y-61781153D01*
X137559500Y-61938846D01*
X137590261Y-62093489D01*
X137590264Y-62093501D01*
X137650602Y-62239172D01*
X137650609Y-62239185D01*
X137738210Y-62370288D01*
X137738213Y-62370292D01*
X137849707Y-62481786D01*
X137849711Y-62481789D01*
X137980814Y-62569390D01*
X137980827Y-62569397D01*
X138126498Y-62629735D01*
X138126503Y-62629737D01*
X138281153Y-62660499D01*
X138281156Y-62660500D01*
X138281158Y-62660500D01*
X138438844Y-62660500D01*
X138438845Y-62660499D01*
X138593497Y-62629737D01*
X138739179Y-62569394D01*
X138870289Y-62481789D01*
X138981789Y-62370289D01*
X139069394Y-62239179D01*
X139129737Y-62093497D01*
X139160500Y-61938842D01*
X139160500Y-61781158D01*
X139160500Y-61781155D01*
X139160499Y-61781153D01*
X139129739Y-61626511D01*
X139129738Y-61626508D01*
X139129737Y-61626503D01*
X139119937Y-61602844D01*
X139110500Y-61555396D01*
X139110500Y-60568405D01*
X139130185Y-60501366D01*
X139182989Y-60455611D01*
X139252147Y-60445667D01*
X139315703Y-60474692D01*
X139337602Y-60499514D01*
X139378210Y-60560288D01*
X139378213Y-60560292D01*
X139489707Y-60671786D01*
X139489711Y-60671789D01*
X139620814Y-60759390D01*
X139620827Y-60759397D01*
X139766498Y-60819735D01*
X139766503Y-60819737D01*
X139921153Y-60850499D01*
X139921156Y-60850500D01*
X139921158Y-60850500D01*
X140078844Y-60850500D01*
X140078845Y-60850499D01*
X140233497Y-60819737D01*
X140379179Y-60759394D01*
X140510289Y-60671789D01*
X140621789Y-60560289D01*
X140709394Y-60429179D01*
X140769737Y-60283497D01*
X140800500Y-60128842D01*
X140800500Y-59971158D01*
X140800500Y-59971155D01*
X140800499Y-59971153D01*
X140769739Y-59816511D01*
X140769738Y-59816508D01*
X140769737Y-59816503D01*
X140759937Y-59792844D01*
X140750500Y-59745396D01*
X140750500Y-57648261D01*
X140721659Y-57503274D01*
X140721658Y-57503273D01*
X140721658Y-57503269D01*
X140670325Y-57379339D01*
X140665087Y-57366693D01*
X140665080Y-57366680D01*
X140582952Y-57243767D01*
X140560338Y-57221153D01*
X140478416Y-57139231D01*
X134325388Y-50986202D01*
X134291903Y-50924879D01*
X134291452Y-50874329D01*
X134300500Y-50828844D01*
X134300500Y-50671155D01*
X134300499Y-50671153D01*
X134269738Y-50516510D01*
X134269737Y-50516503D01*
X134255612Y-50482401D01*
X134209397Y-50370827D01*
X134209390Y-50370814D01*
X134121789Y-50239711D01*
X134121786Y-50239707D01*
X134010292Y-50128213D01*
X134010288Y-50128210D01*
X133916811Y-50065750D01*
X135749500Y-50065750D01*
X135749500Y-50095834D01*
X135749500Y-50434250D01*
X135757317Y-50513619D01*
X135785618Y-50800975D01*
X135857504Y-51162375D01*
X135857507Y-51162386D01*
X135964480Y-51515030D01*
X136105500Y-51855481D01*
X136105502Y-51855486D01*
X136279202Y-52180456D01*
X136279213Y-52180474D01*
X136483931Y-52486856D01*
X136483941Y-52486870D01*
X136717715Y-52771724D01*
X136978275Y-53032284D01*
X136978280Y-53032288D01*
X136978281Y-53032289D01*
X137263135Y-53266063D01*
X137569532Y-53470791D01*
X137569541Y-53470796D01*
X137569543Y-53470797D01*
X137894513Y-53644497D01*
X137894515Y-53644497D01*
X137894521Y-53644501D01*
X138234971Y-53785520D01*
X138587604Y-53892490D01*
X138587610Y-53892491D01*
X138587613Y-53892492D01*
X138587624Y-53892495D01*
X138949024Y-53964381D01*
X139315750Y-54000500D01*
X139315753Y-54000500D01*
X139684247Y-54000500D01*
X139684250Y-54000500D01*
X140050976Y-53964381D01*
X140121331Y-53950386D01*
X140412375Y-53892495D01*
X140412386Y-53892492D01*
X140412386Y-53892491D01*
X140412396Y-53892490D01*
X140765029Y-53785520D01*
X141105479Y-53644501D01*
X141430468Y-53470791D01*
X141736865Y-53266063D01*
X142021719Y-53032289D01*
X142282289Y-52771719D01*
X142516063Y-52486865D01*
X142720791Y-52180468D01*
X142894501Y-51855479D01*
X143035520Y-51515029D01*
X143142490Y-51162396D01*
X143142492Y-51162386D01*
X143142495Y-51162375D01*
X143209580Y-50825111D01*
X143214381Y-50800976D01*
X143250500Y-50434250D01*
X143250500Y-50065750D01*
X143214381Y-49699024D01*
X143186628Y-49559500D01*
X143142495Y-49337624D01*
X143142492Y-49337613D01*
X143142491Y-49337610D01*
X143142490Y-49337604D01*
X143035520Y-48984971D01*
X142894501Y-48644521D01*
X142737354Y-48350520D01*
X142720797Y-48319543D01*
X142720796Y-48319541D01*
X142720791Y-48319532D01*
X142516063Y-48013135D01*
X142282289Y-47728281D01*
X142282288Y-47728280D01*
X142282284Y-47728275D01*
X142021724Y-47467715D01*
X141736870Y-47233941D01*
X141736869Y-47233940D01*
X141736865Y-47233937D01*
X141430468Y-47029209D01*
X141430463Y-47029206D01*
X141430456Y-47029202D01*
X141105486Y-46855502D01*
X141105481Y-46855500D01*
X140765030Y-46714480D01*
X140412386Y-46607507D01*
X140412375Y-46607504D01*
X140050975Y-46535618D01*
X139774772Y-46508415D01*
X139684250Y-46499500D01*
X139315750Y-46499500D01*
X139232109Y-46507737D01*
X138949024Y-46535618D01*
X138587624Y-46607504D01*
X138587613Y-46607507D01*
X138234969Y-46714480D01*
X137894518Y-46855500D01*
X137894513Y-46855502D01*
X137569543Y-47029202D01*
X137569525Y-47029213D01*
X137263143Y-47233931D01*
X137263129Y-47233941D01*
X136978275Y-47467715D01*
X136717715Y-47728275D01*
X136483941Y-48013129D01*
X136483931Y-48013143D01*
X136279213Y-48319525D01*
X136279202Y-48319543D01*
X136105502Y-48644513D01*
X136105500Y-48644518D01*
X135964480Y-48984969D01*
X135857507Y-49337613D01*
X135857504Y-49337624D01*
X135785618Y-49699024D01*
X135757920Y-49980261D01*
X135749500Y-50065750D01*
X133916811Y-50065750D01*
X133879185Y-50040609D01*
X133879172Y-50040602D01*
X133733501Y-49980264D01*
X133733489Y-49980261D01*
X133578845Y-49949500D01*
X133578842Y-49949500D01*
X133421158Y-49949500D01*
X133421155Y-49949500D01*
X133266510Y-49980261D01*
X133266498Y-49980264D01*
X133120827Y-50040602D01*
X133120814Y-50040609D01*
X132989711Y-50128210D01*
X132989707Y-50128213D01*
X132878213Y-50239707D01*
X132878208Y-50239713D01*
X132846289Y-50287483D01*
X132792676Y-50332288D01*
X132723351Y-50340994D01*
X132660324Y-50310838D01*
X132655507Y-50306272D01*
X128327055Y-45977820D01*
X128293570Y-45916497D01*
X128293119Y-45865945D01*
X128300500Y-45828841D01*
X128300500Y-45671155D01*
X128300499Y-45671153D01*
X128292405Y-45630464D01*
X128269737Y-45516503D01*
X128269735Y-45516498D01*
X128209397Y-45370827D01*
X128209390Y-45370814D01*
X128121789Y-45239711D01*
X128121786Y-45239707D01*
X128010292Y-45128213D01*
X128010288Y-45128210D01*
X127879181Y-45040606D01*
X127876970Y-45039425D01*
X127876028Y-45038500D01*
X127874114Y-45037221D01*
X127874356Y-45036857D01*
X127827124Y-44990464D01*
X127811662Y-44922327D01*
X127835492Y-44856646D01*
X127854884Y-44835779D01*
X127940421Y-44762724D01*
X128262724Y-44440421D01*
X128558745Y-44093825D01*
X128671522Y-43938600D01*
X137541598Y-43938600D01*
X137541598Y-44143303D01*
X137573620Y-44345486D01*
X137636879Y-44540175D01*
X137729813Y-44722565D01*
X137850126Y-44888165D01*
X137994884Y-45032923D01*
X138126042Y-45128213D01*
X138160488Y-45153239D01*
X138276705Y-45212455D01*
X138342874Y-45246170D01*
X138342876Y-45246170D01*
X138342879Y-45246172D01*
X138447235Y-45280079D01*
X138537563Y-45309429D01*
X138638655Y-45325440D01*
X138739746Y-45341452D01*
X138739747Y-45341452D01*
X138944449Y-45341452D01*
X138944450Y-45341452D01*
X139146632Y-45309429D01*
X139341317Y-45246172D01*
X139523708Y-45153239D01*
X139616688Y-45085684D01*
X139689311Y-45032923D01*
X139689313Y-45032920D01*
X139689317Y-45032918D01*
X139834064Y-44888171D01*
X139834066Y-44888167D01*
X139834069Y-44888165D01*
X139925202Y-44762729D01*
X139954385Y-44722562D01*
X140047318Y-44540171D01*
X140110575Y-44345486D01*
X140142598Y-44143304D01*
X140142598Y-43938600D01*
X140110575Y-43736418D01*
X140106888Y-43725072D01*
X140047316Y-43541728D01*
X140013601Y-43475559D01*
X139954385Y-43359342D01*
X139937751Y-43336447D01*
X139834069Y-43193738D01*
X139689311Y-43048980D01*
X139523711Y-42928667D01*
X139523710Y-42928666D01*
X139523708Y-42928665D01*
X139466751Y-42899643D01*
X139341321Y-42835733D01*
X139146632Y-42772474D01*
X138972093Y-42744830D01*
X138944450Y-42740452D01*
X138739746Y-42740452D01*
X138715427Y-42744303D01*
X138537563Y-42772474D01*
X138342874Y-42835733D01*
X138160484Y-42928667D01*
X137994884Y-43048980D01*
X137850126Y-43193738D01*
X137729813Y-43359338D01*
X137636879Y-43541728D01*
X137573620Y-43736417D01*
X137541598Y-43938600D01*
X128671522Y-43938600D01*
X128826660Y-43725071D01*
X129064818Y-43336434D01*
X129271748Y-42930309D01*
X129446177Y-42509201D01*
X129587029Y-42075705D01*
X129693434Y-41632494D01*
X129764738Y-41182302D01*
X129800500Y-40727902D01*
X129800500Y-40272098D01*
X129764738Y-39817698D01*
X129693434Y-39367506D01*
X129587029Y-38924295D01*
X129446177Y-38490799D01*
X129407593Y-38397648D01*
X130449501Y-38397648D01*
X130449501Y-38602351D01*
X130481523Y-38804534D01*
X130544782Y-38999223D01*
X130637716Y-39181613D01*
X130758029Y-39347213D01*
X130902787Y-39491971D01*
X131057750Y-39604556D01*
X131068391Y-39612287D01*
X131184608Y-39671503D01*
X131250777Y-39705218D01*
X131250779Y-39705218D01*
X131250782Y-39705220D01*
X131355138Y-39739127D01*
X131445466Y-39768477D01*
X131546558Y-39784488D01*
X131647649Y-39800500D01*
X131647650Y-39800500D01*
X131852352Y-39800500D01*
X131852353Y-39800500D01*
X132054535Y-39768477D01*
X132249220Y-39705220D01*
X132431611Y-39612287D01*
X132524591Y-39544732D01*
X132597214Y-39491971D01*
X132597216Y-39491968D01*
X132597220Y-39491966D01*
X132741967Y-39347219D01*
X132741969Y-39347215D01*
X132741972Y-39347213D01*
X132794733Y-39274590D01*
X132862288Y-39181610D01*
X132955221Y-38999219D01*
X133018478Y-38804534D01*
X133050501Y-38602352D01*
X133050501Y-38397648D01*
X133018478Y-38195466D01*
X132955221Y-38000781D01*
X132955219Y-38000778D01*
X132955219Y-38000776D01*
X132914688Y-37921231D01*
X132862288Y-37818390D01*
X132854557Y-37807749D01*
X132741972Y-37652786D01*
X132597214Y-37508028D01*
X132431614Y-37387715D01*
X132431613Y-37387714D01*
X132431611Y-37387713D01*
X132374654Y-37358691D01*
X132249224Y-37294781D01*
X132054535Y-37231522D01*
X131879996Y-37203878D01*
X131852353Y-37199500D01*
X131647649Y-37199500D01*
X131623330Y-37203351D01*
X131445466Y-37231522D01*
X131250777Y-37294781D01*
X131068387Y-37387715D01*
X130902787Y-37508028D01*
X130758029Y-37652786D01*
X130637716Y-37818386D01*
X130544782Y-38000776D01*
X130481523Y-38195465D01*
X130449501Y-38397648D01*
X129407593Y-38397648D01*
X129271748Y-38069691D01*
X129064818Y-37663566D01*
X129064812Y-37663557D01*
X129064810Y-37663552D01*
X129064807Y-37663547D01*
X128826666Y-37274938D01*
X128826662Y-37274933D01*
X128826660Y-37274929D01*
X128558745Y-36906175D01*
X128262724Y-36559579D01*
X127940421Y-36237276D01*
X127593825Y-35941255D01*
X127225071Y-35673340D01*
X127225068Y-35673338D01*
X127225061Y-35673333D01*
X126836452Y-35435192D01*
X126836447Y-35435189D01*
X126836437Y-35435184D01*
X126836434Y-35435182D01*
X126430309Y-35228252D01*
X126302426Y-35175281D01*
X126009212Y-35053827D01*
X126009205Y-35053824D01*
X126009201Y-35053823D01*
X125575705Y-34912971D01*
X125132494Y-34806566D01*
X124682302Y-34735262D01*
X124227907Y-34699500D01*
X124227902Y-34699500D01*
X123772098Y-34699500D01*
X123772092Y-34699500D01*
X123317697Y-34735262D01*
X123317696Y-34735262D01*
X122867511Y-34806565D01*
X122867508Y-34806565D01*
X122867506Y-34806566D01*
X122708784Y-34844671D01*
X122424306Y-34912968D01*
X122424301Y-34912969D01*
X122424295Y-34912971D01*
X121990799Y-35053823D01*
X121990787Y-35053827D01*
X121569693Y-35228251D01*
X121163552Y-35435189D01*
X121163547Y-35435192D01*
X120774938Y-35673333D01*
X120774927Y-35673341D01*
X120406182Y-35941249D01*
X120406168Y-35941260D01*
X120059585Y-36237270D01*
X120059571Y-36237283D01*
X119737283Y-36559571D01*
X119737270Y-36559585D01*
X119441260Y-36906168D01*
X119441249Y-36906182D01*
X119173341Y-37274927D01*
X119173333Y-37274938D01*
X118935192Y-37663547D01*
X118935189Y-37663552D01*
X118728251Y-38069693D01*
X118553827Y-38490787D01*
X118553823Y-38490799D01*
X118412971Y-38924295D01*
X118311437Y-39347219D01*
X118306565Y-39367511D01*
X118235262Y-39817696D01*
X118235262Y-39817697D01*
X118199500Y-40272092D01*
X118199500Y-40727907D01*
X118235262Y-41182302D01*
X118235262Y-41182303D01*
X118306565Y-41632488D01*
X118306566Y-41632494D01*
X118412971Y-42075705D01*
X118553823Y-42509200D01*
X118553827Y-42509212D01*
X118639549Y-42716162D01*
X118728252Y-42930309D01*
X118935182Y-43336434D01*
X118935189Y-43336447D01*
X118935192Y-43336452D01*
X119173333Y-43725061D01*
X119173338Y-43725068D01*
X119173340Y-43725071D01*
X119441255Y-44093825D01*
X119737276Y-44440421D01*
X120059579Y-44762724D01*
X120406175Y-45058745D01*
X120774929Y-45326660D01*
X120774933Y-45326662D01*
X120774938Y-45326666D01*
X121163547Y-45564807D01*
X121163552Y-45564810D01*
X121163557Y-45564812D01*
X121163566Y-45564818D01*
X121569691Y-45771748D01*
X121990799Y-45946177D01*
X122424295Y-46087029D01*
X122867506Y-46193434D01*
X123317698Y-46264738D01*
X123772098Y-46300500D01*
X123772106Y-46300500D01*
X124227894Y-46300500D01*
X124227902Y-46300500D01*
X124532703Y-46276511D01*
X124601077Y-46290875D01*
X124650834Y-46339926D01*
X124666173Y-46408091D01*
X124642224Y-46473729D01*
X124630117Y-46487803D01*
X124628216Y-46489703D01*
X124628210Y-46489711D01*
X124540609Y-46620814D01*
X124540602Y-46620827D01*
X124480264Y-46766498D01*
X124480261Y-46766508D01*
X124449361Y-46921850D01*
X124440595Y-46938607D01*
X124436576Y-46957084D01*
X124417831Y-46982125D01*
X124416976Y-46983761D01*
X124415426Y-46985339D01*
X124287582Y-47113182D01*
X124226262Y-47146666D01*
X124199903Y-47149500D01*
X123079766Y-47149500D01*
X123012727Y-47129815D01*
X123010875Y-47128602D01*
X122879185Y-47040609D01*
X122879172Y-47040602D01*
X122733501Y-46980264D01*
X122733489Y-46980261D01*
X122578845Y-46949500D01*
X122578842Y-46949500D01*
X122421158Y-46949500D01*
X122421155Y-46949500D01*
X122266510Y-46980261D01*
X122266498Y-46980264D01*
X122120827Y-47040602D01*
X122120814Y-47040609D01*
X121989711Y-47128210D01*
X121989707Y-47128213D01*
X121878213Y-47239707D01*
X121878210Y-47239711D01*
X121790609Y-47370814D01*
X121790607Y-47370819D01*
X121789725Y-47372949D01*
X121788964Y-47373893D01*
X121787736Y-47376191D01*
X121787300Y-47375958D01*
X121745885Y-47427354D01*
X121679592Y-47449421D01*
X121675162Y-47449500D01*
X121671155Y-47449500D01*
X121516510Y-47480261D01*
X121516498Y-47480264D01*
X121370827Y-47540602D01*
X121370814Y-47540609D01*
X121239125Y-47628602D01*
X121221078Y-47634252D01*
X121205169Y-47644477D01*
X121174207Y-47648928D01*
X121172447Y-47649480D01*
X121170234Y-47649500D01*
X121098140Y-47649500D01*
X121098124Y-47649499D01*
X121090528Y-47649499D01*
X120932414Y-47649499D01*
X120852481Y-47670917D01*
X120779687Y-47690422D01*
X120746826Y-47709395D01*
X120746825Y-47709394D01*
X120642758Y-47769477D01*
X120642753Y-47769481D01*
X120530949Y-47881286D01*
X118381892Y-50030342D01*
X118363102Y-50045763D01*
X118239711Y-50128210D01*
X118239707Y-50128213D01*
X118128213Y-50239707D01*
X118128210Y-50239711D01*
X118040609Y-50370814D01*
X118040602Y-50370827D01*
X117980264Y-50516498D01*
X117980261Y-50516510D01*
X117949500Y-50671153D01*
X117949500Y-50675501D01*
X117929815Y-50742540D01*
X117877011Y-50788295D01*
X117825500Y-50799501D01*
X114020942Y-50799501D01*
X113868212Y-50840424D01*
X113822724Y-50866688D01*
X113822723Y-50866688D01*
X113731286Y-50919478D01*
X113731281Y-50919482D01*
X113235339Y-51415425D01*
X113174016Y-51448910D01*
X113171850Y-51449361D01*
X113016508Y-51480261D01*
X113016498Y-51480264D01*
X112870827Y-51540602D01*
X112870814Y-51540609D01*
X112739711Y-51628210D01*
X112739707Y-51628213D01*
X112628213Y-51739707D01*
X112628210Y-51739711D01*
X112540609Y-51870814D01*
X112540602Y-51870827D01*
X112480264Y-52016498D01*
X112480261Y-52016510D01*
X112449500Y-52171153D01*
X112449500Y-52328846D01*
X112480261Y-52483489D01*
X112480264Y-52483501D01*
X112540602Y-52629172D01*
X112540609Y-52629185D01*
X112628210Y-52760288D01*
X112628213Y-52760292D01*
X112739707Y-52871786D01*
X112739711Y-52871789D01*
X112870814Y-52959390D01*
X112870821Y-52959394D01*
X112926030Y-52982262D01*
X112980433Y-53026102D01*
X113002499Y-53092396D01*
X112985221Y-53160095D01*
X112966259Y-53184504D01*
X112735339Y-53415425D01*
X112674016Y-53448910D01*
X112671850Y-53449361D01*
X112516508Y-53480261D01*
X112516498Y-53480264D01*
X112370827Y-53540602D01*
X112370814Y-53540609D01*
X112239711Y-53628210D01*
X112239707Y-53628213D01*
X112128213Y-53739707D01*
X112128210Y-53739711D01*
X112040609Y-53870814D01*
X112040602Y-53870827D01*
X111980264Y-54016498D01*
X111980261Y-54016510D01*
X111949500Y-54171153D01*
X111949500Y-54328846D01*
X111980261Y-54483489D01*
X111980264Y-54483501D01*
X112040602Y-54629172D01*
X112040609Y-54629185D01*
X112128210Y-54760288D01*
X112128213Y-54760292D01*
X112239707Y-54871786D01*
X112239711Y-54871789D01*
X112370814Y-54959390D01*
X112370827Y-54959397D01*
X112516498Y-55019735D01*
X112516503Y-55019737D01*
X112671153Y-55050499D01*
X112671156Y-55050500D01*
X112671158Y-55050500D01*
X112828844Y-55050500D01*
X112828845Y-55050499D01*
X112983497Y-55019737D01*
X113129179Y-54959394D01*
X113260289Y-54871789D01*
X113371789Y-54760289D01*
X113459394Y-54629179D01*
X113519737Y-54483497D01*
X113539113Y-54386085D01*
X113550638Y-54328150D01*
X113583023Y-54266239D01*
X113584518Y-54264716D01*
X114312414Y-53536821D01*
X114373737Y-53503336D01*
X114400095Y-53500502D01*
X117832153Y-53500502D01*
X117899192Y-53520187D01*
X117944947Y-53572991D01*
X117953770Y-53600311D01*
X117980261Y-53733489D01*
X117980264Y-53733501D01*
X118040602Y-53879172D01*
X118040611Y-53879188D01*
X118044974Y-53885718D01*
X118065851Y-53952395D01*
X118047366Y-54019775D01*
X118044973Y-54023497D01*
X117979951Y-54120809D01*
X117979941Y-54120827D01*
X117919603Y-54266498D01*
X117919600Y-54266510D01*
X117888839Y-54421153D01*
X117888839Y-54578846D01*
X117919600Y-54733489D01*
X117919603Y-54733501D01*
X117979941Y-54879172D01*
X117979948Y-54879185D01*
X118067549Y-55010288D01*
X118067552Y-55010292D01*
X118179049Y-55121789D01*
X118310154Y-55209390D01*
X118310160Y-55209394D01*
X118333814Y-55219191D01*
X118374042Y-55246071D01*
X118710917Y-55582947D01*
X118710920Y-55582950D01*
X118763696Y-55618213D01*
X118833847Y-55665086D01*
X118940825Y-55709397D01*
X118970426Y-55721658D01*
X118970430Y-55721658D01*
X118970431Y-55721659D01*
X119115418Y-55750500D01*
X119115421Y-55750500D01*
X119115422Y-55750500D01*
X119263257Y-55750500D01*
X123445396Y-55750500D01*
X123492844Y-55759937D01*
X123516503Y-55769737D01*
X123516508Y-55769738D01*
X123516511Y-55769739D01*
X123671153Y-55800499D01*
X123671156Y-55800500D01*
X123671158Y-55800500D01*
X123828844Y-55800500D01*
X123828845Y-55800499D01*
X123983497Y-55769737D01*
X124129179Y-55709394D01*
X124260289Y-55621789D01*
X124371789Y-55510289D01*
X124459394Y-55379179D01*
X124519737Y-55233497D01*
X124550500Y-55078842D01*
X124550500Y-54921158D01*
X124550500Y-54921155D01*
X124550499Y-54921153D01*
X124536086Y-54848691D01*
X124542313Y-54779100D01*
X124585176Y-54723922D01*
X124651066Y-54700678D01*
X124657703Y-54700500D01*
X128449903Y-54700500D01*
X128516942Y-54720185D01*
X128537584Y-54736819D01*
X133165140Y-59364375D01*
X133165150Y-59364386D01*
X133169480Y-59368716D01*
X133169481Y-59368717D01*
X133281285Y-59480521D01*
X133368096Y-59530640D01*
X133380598Y-59537858D01*
X133428813Y-59588426D01*
X133442035Y-59657033D01*
X133438372Y-59677334D01*
X133399498Y-59822415D01*
X133399498Y-59822417D01*
X133399498Y-59990518D01*
X133399499Y-59990531D01*
X133399499Y-61820235D01*
X133379814Y-61887274D01*
X133378601Y-61889126D01*
X133290608Y-62020815D01*
X133290601Y-62020828D01*
X133230263Y-62166499D01*
X133230260Y-62166511D01*
X133199499Y-62321154D01*
X133199499Y-62375500D01*
X133179814Y-62442539D01*
X133127010Y-62488294D01*
X133075499Y-62499500D01*
X133026080Y-62499500D01*
X132881092Y-62528340D01*
X132881082Y-62528343D01*
X132744511Y-62584912D01*
X132744498Y-62584919D01*
X132621584Y-62667048D01*
X132621580Y-62667051D01*
X131617052Y-63671578D01*
X131617046Y-63671585D01*
X131579074Y-63728415D01*
X131579075Y-63728416D01*
X131534913Y-63794508D01*
X131478343Y-63931082D01*
X131478340Y-63931092D01*
X131449500Y-64076079D01*
X131449500Y-64076082D01*
X131449500Y-66384579D01*
X131449500Y-66384581D01*
X131449499Y-66384581D01*
X131478340Y-66529568D01*
X131478343Y-66529578D01*
X131534912Y-66666149D01*
X131534918Y-66666160D01*
X131545356Y-66681780D01*
X131545358Y-66681785D01*
X131617046Y-66789075D01*
X131617047Y-66789076D01*
X131617048Y-66789077D01*
X131813182Y-66985210D01*
X131846666Y-67046531D01*
X131849500Y-67072890D01*
X131849500Y-67936385D01*
X131829815Y-68003424D01*
X131798388Y-68036701D01*
X131785356Y-68046169D01*
X131646171Y-68185355D01*
X131530476Y-68344594D01*
X131441117Y-68519970D01*
X131380290Y-68707173D01*
X131349500Y-68901577D01*
X131349500Y-69098421D01*
X131352019Y-69114329D01*
X131343062Y-69183622D01*
X131317226Y-69221404D01*
X130725451Y-69813181D01*
X130664128Y-69846666D01*
X130637770Y-69849500D01*
X130221251Y-69849500D01*
X130154212Y-69829815D01*
X130108457Y-69777011D01*
X130098513Y-69707853D01*
X130117891Y-69660120D01*
X130116550Y-69659299D01*
X130119091Y-69655151D01*
X130208418Y-69479835D01*
X130269221Y-69292705D01*
X130300000Y-69098382D01*
X130300000Y-68901617D01*
X130269221Y-68707294D01*
X130208418Y-68520164D01*
X130119096Y-68344858D01*
X130093678Y-68309873D01*
X130093677Y-68309873D01*
X129314457Y-69089095D01*
X129253134Y-69122580D01*
X129183443Y-69117596D01*
X129139095Y-69089095D01*
X129050000Y-69000000D01*
X128960904Y-69089096D01*
X128899581Y-69122580D01*
X128829889Y-69117596D01*
X128785542Y-69089095D01*
X128006320Y-68309872D01*
X128006320Y-68309873D01*
X127980902Y-68344859D01*
X127980899Y-68344863D01*
X127891582Y-68520161D01*
X127830778Y-68707294D01*
X127800000Y-68901617D01*
X127800000Y-69098382D01*
X127830778Y-69292705D01*
X127891581Y-69479835D01*
X127980908Y-69655151D01*
X127983450Y-69659299D01*
X127981806Y-69660306D01*
X128002545Y-69718398D01*
X127986733Y-69786455D01*
X127936636Y-69835159D01*
X127878749Y-69849500D01*
X126671870Y-69849500D01*
X126604831Y-69829815D01*
X126559076Y-69777011D01*
X126549132Y-69707853D01*
X126568380Y-69660420D01*
X126566978Y-69659561D01*
X126569519Y-69655413D01*
X126569520Y-69655409D01*
X126569524Y-69655405D01*
X126658884Y-69480025D01*
X126719709Y-69292826D01*
X126738097Y-69176728D01*
X126750500Y-69098422D01*
X126750500Y-68901577D01*
X126719709Y-68707173D01*
X126658882Y-68519970D01*
X126611743Y-68427455D01*
X126569524Y-68344595D01*
X126453828Y-68185354D01*
X126314646Y-68046172D01*
X126190976Y-67956320D01*
X128359872Y-67956320D01*
X129050000Y-68646446D01*
X129050001Y-68646446D01*
X129740125Y-67956320D01*
X129740125Y-67956319D01*
X129705145Y-67930905D01*
X129529835Y-67841581D01*
X129342705Y-67780778D01*
X129148382Y-67750000D01*
X128951618Y-67750000D01*
X128757294Y-67780778D01*
X128570161Y-67841582D01*
X128394863Y-67930899D01*
X128394859Y-67930902D01*
X128359873Y-67956320D01*
X128359872Y-67956320D01*
X126190976Y-67956320D01*
X126155405Y-67930476D01*
X125980029Y-67841117D01*
X125792826Y-67780290D01*
X125598422Y-67749500D01*
X125598417Y-67749500D01*
X125401583Y-67749500D01*
X125401578Y-67749500D01*
X125207173Y-67780290D01*
X125019970Y-67841117D01*
X124844594Y-67930476D01*
X124795161Y-67966392D01*
X124685354Y-68046172D01*
X124685352Y-68046174D01*
X124685351Y-68046174D01*
X124546174Y-68185351D01*
X124546174Y-68185352D01*
X124546172Y-68185354D01*
X124510170Y-68234906D01*
X124430476Y-68344594D01*
X124341117Y-68519970D01*
X124280290Y-68707173D01*
X124249500Y-68901577D01*
X124249500Y-69098422D01*
X124281023Y-69297452D01*
X124280322Y-69302870D01*
X124282233Y-69307990D01*
X124275892Y-69337153D01*
X124272068Y-69366746D01*
X124268241Y-69372342D01*
X124267389Y-69376264D01*
X124246241Y-69404521D01*
X124237593Y-69413171D01*
X124176274Y-69446663D01*
X124149902Y-69449500D01*
X123289388Y-69449500D01*
X123222349Y-69429815D01*
X123176594Y-69377011D01*
X123166650Y-69307853D01*
X123168814Y-69296553D01*
X123169704Y-69292840D01*
X123169709Y-69292826D01*
X123188097Y-69176728D01*
X123200500Y-69098422D01*
X123200500Y-68901577D01*
X123169709Y-68707173D01*
X123108882Y-68519970D01*
X123061743Y-68427455D01*
X123019524Y-68344595D01*
X122903828Y-68185354D01*
X122764646Y-68046172D01*
X122605405Y-67930476D01*
X122430029Y-67841117D01*
X122242826Y-67780290D01*
X122048422Y-67749500D01*
X122048417Y-67749500D01*
X121851583Y-67749500D01*
X121851577Y-67749500D01*
X121652544Y-67781023D01*
X121583251Y-67772068D01*
X121545466Y-67746231D01*
X120036819Y-66237583D01*
X120003334Y-66176260D01*
X120000500Y-66149902D01*
X120000500Y-65867847D01*
X120020185Y-65800808D01*
X120072989Y-65755053D01*
X120100309Y-65746230D01*
X120116291Y-65743050D01*
X120233497Y-65719737D01*
X120379179Y-65659394D01*
X120510289Y-65571789D01*
X120621789Y-65460289D01*
X120709394Y-65329179D01*
X120769737Y-65183497D01*
X120800500Y-65028842D01*
X120800500Y-64871158D01*
X120800500Y-64871155D01*
X120800499Y-64871153D01*
X120769738Y-64716510D01*
X120769737Y-64716503D01*
X120769735Y-64716498D01*
X120709397Y-64570827D01*
X120709390Y-64570814D01*
X120621789Y-64439711D01*
X120621786Y-64439707D01*
X120510292Y-64328213D01*
X120510288Y-64328210D01*
X120379185Y-64240609D01*
X120379172Y-64240602D01*
X120233501Y-64180264D01*
X120233491Y-64180261D01*
X120100308Y-64153769D01*
X120038397Y-64121384D01*
X120003823Y-64060668D01*
X120000500Y-64032152D01*
X120000500Y-61617847D01*
X120020185Y-61550808D01*
X120072989Y-61505053D01*
X120100309Y-61496230D01*
X120116291Y-61493050D01*
X120233497Y-61469737D01*
X120379179Y-61409394D01*
X120510289Y-61321789D01*
X120621789Y-61210289D01*
X120709394Y-61079179D01*
X120769737Y-60933497D01*
X120800500Y-60778842D01*
X120800500Y-60621158D01*
X120800500Y-60621155D01*
X120800499Y-60621153D01*
X120783577Y-60536082D01*
X120769737Y-60466503D01*
X120767478Y-60461049D01*
X120710070Y-60322452D01*
X120702601Y-60252983D01*
X120710068Y-60227551D01*
X120769738Y-60083496D01*
X120800501Y-59928841D01*
X120800501Y-59771157D01*
X120800501Y-59771154D01*
X120800500Y-59771152D01*
X120769739Y-59616509D01*
X120769739Y-59616507D01*
X120769738Y-59616502D01*
X120747567Y-59562975D01*
X120709398Y-59470826D01*
X120709391Y-59470813D01*
X120621790Y-59339710D01*
X120621787Y-59339706D01*
X120510293Y-59228212D01*
X120510289Y-59228209D01*
X120379186Y-59140608D01*
X120379173Y-59140601D01*
X120233502Y-59080263D01*
X120233490Y-59080260D01*
X120078846Y-59049499D01*
X120078843Y-59049499D01*
X119921159Y-59049499D01*
X119921156Y-59049499D01*
X119766511Y-59080260D01*
X119766499Y-59080263D01*
X119620828Y-59140601D01*
X119620815Y-59140608D01*
X119489712Y-59228209D01*
X119489708Y-59228212D01*
X119378214Y-59339706D01*
X119378211Y-59339710D01*
X119290610Y-59470813D01*
X119290603Y-59470826D01*
X119230265Y-59616497D01*
X119230262Y-59616507D01*
X119199362Y-59771849D01*
X119166977Y-59833760D01*
X119165426Y-59835338D01*
X118519481Y-60481282D01*
X118519477Y-60481287D01*
X118492270Y-60528414D01*
X118492269Y-60528416D01*
X118440423Y-60618215D01*
X118399499Y-60770943D01*
X118399499Y-60770945D01*
X118399499Y-60939046D01*
X118399500Y-60939059D01*
X118399500Y-64825500D01*
X118379815Y-64892539D01*
X118327011Y-64938294D01*
X118275500Y-64949500D01*
X118171155Y-64949500D01*
X118016510Y-64980261D01*
X118016498Y-64980264D01*
X117870827Y-65040602D01*
X117870814Y-65040609D01*
X117739711Y-65128210D01*
X117739707Y-65128213D01*
X117628213Y-65239707D01*
X117628210Y-65239711D01*
X117540609Y-65370814D01*
X117540602Y-65370827D01*
X117480264Y-65516498D01*
X117480261Y-65516510D01*
X117449500Y-65671153D01*
X117449500Y-65828846D01*
X117480261Y-65983489D01*
X117480263Y-65983497D01*
X117490061Y-66007151D01*
X117499500Y-66054604D01*
X117499500Y-67636661D01*
X117499500Y-67636663D01*
X117499499Y-67636663D01*
X117528340Y-67781650D01*
X117528343Y-67781660D01*
X117566885Y-67874708D01*
X117584916Y-67918238D01*
X117606460Y-67950482D01*
X117617090Y-67966391D01*
X117667049Y-68041161D01*
X120808838Y-71182950D01*
X120808841Y-71182952D01*
X120878391Y-71229423D01*
X120931762Y-71265084D01*
X120931763Y-71265084D01*
X120931767Y-71265087D01*
X120933744Y-71266144D01*
X120934584Y-71266969D01*
X120936827Y-71268468D01*
X120936542Y-71268893D01*
X120983587Y-71315108D01*
X120999045Y-71383246D01*
X120975211Y-71448925D01*
X120919652Y-71491292D01*
X120875287Y-71499500D01*
X111002872Y-71499500D01*
X110997145Y-71499368D01*
X110636695Y-71482703D01*
X110625291Y-71481646D01*
X110270768Y-71432192D01*
X110259509Y-71430087D01*
X109911068Y-71348135D01*
X109900052Y-71345001D01*
X109560644Y-71231243D01*
X109549964Y-71227105D01*
X109449962Y-71182950D01*
X109222511Y-71082520D01*
X109212268Y-71077420D01*
X109110316Y-71020633D01*
X108899546Y-70903235D01*
X108889808Y-70897206D01*
X108594486Y-70694906D01*
X108585346Y-70688003D01*
X108309964Y-70459329D01*
X108301500Y-70451613D01*
X108048386Y-70198499D01*
X108040670Y-70190035D01*
X107934243Y-70061870D01*
X107811994Y-69914650D01*
X107805093Y-69905513D01*
X107756899Y-69835159D01*
X107662998Y-69698080D01*
X107602793Y-69610191D01*
X107596764Y-69600453D01*
X107529580Y-69479835D01*
X107422574Y-69287723D01*
X107417482Y-69277496D01*
X107272889Y-68950022D01*
X107268761Y-68939368D01*
X107154994Y-68599934D01*
X107151867Y-68588944D01*
X107069910Y-68240482D01*
X107067807Y-68229231D01*
X107061686Y-68185354D01*
X107018352Y-67874700D01*
X107017296Y-67863304D01*
X107016270Y-67841117D01*
X107000632Y-67502855D01*
X107000500Y-67497128D01*
X107000500Y-35502871D01*
X107000632Y-35497144D01*
X107010062Y-35293178D01*
X107017296Y-35136686D01*
X107018353Y-35125291D01*
X107028322Y-35053827D01*
X107067808Y-34770757D01*
X107069909Y-34759520D01*
X107151869Y-34411049D01*
X107154992Y-34400070D01*
X107268763Y-34060623D01*
X107272886Y-34049984D01*
X107417486Y-33722494D01*
X107422569Y-33712285D01*
X107596767Y-33399540D01*
X107602793Y-33389808D01*
X107662998Y-33301920D01*
X107805103Y-33094472D01*
X107811986Y-33085359D01*
X108040681Y-32809951D01*
X108048375Y-32801511D01*
X108301511Y-32548375D01*
X108309951Y-32540681D01*
X108585359Y-32311986D01*
X108594472Y-32305103D01*
X108889813Y-32102789D01*
X108899540Y-32096767D01*
X109212285Y-31922569D01*
X109222494Y-31917486D01*
X109549984Y-31772886D01*
X109560623Y-31768763D01*
X109900070Y-31654992D01*
X109911049Y-31651869D01*
X110259520Y-31569909D01*
X110270757Y-31567808D01*
X110625301Y-31518352D01*
X110636686Y-31517296D01*
X110997145Y-31500632D01*
X111002872Y-31500500D01*
X111065892Y-31500500D01*
X142934108Y-31500500D01*
X142997128Y-31500500D01*
X143002855Y-31500632D01*
G37*
G04 #@! TD.AperFunction*
G04 #@! TA.AperFunction,Conductor*
G36*
X138657945Y-57441745D02*
G01*
X138662747Y-57446297D01*
X138925841Y-57709390D01*
X139213181Y-57996730D01*
X139246666Y-58058053D01*
X139249500Y-58084411D01*
X139249500Y-59745396D01*
X139240062Y-59792844D01*
X139230263Y-59816503D01*
X139230262Y-59816506D01*
X139230260Y-59816511D01*
X139199500Y-59971153D01*
X139199500Y-60106762D01*
X139192302Y-60131272D01*
X139189038Y-60156613D01*
X139182622Y-60164240D01*
X139179815Y-60173801D01*
X139160511Y-60190527D01*
X139144063Y-60210083D01*
X139134540Y-60213031D01*
X139127011Y-60219556D01*
X139101727Y-60223191D01*
X139077319Y-60230749D01*
X139067716Y-60228081D01*
X139057853Y-60229500D01*
X139034615Y-60218887D01*
X139009998Y-60212050D01*
X139001383Y-60203711D01*
X138994297Y-60200475D01*
X138982988Y-60189331D01*
X138977212Y-60182859D01*
X138942951Y-60131584D01*
X138838416Y-60027049D01*
X136996071Y-58184703D01*
X136969191Y-58144475D01*
X136959394Y-58120821D01*
X136883948Y-58007908D01*
X136863070Y-57941230D01*
X136881555Y-57873850D01*
X136899365Y-57851340D01*
X137113887Y-57636819D01*
X137140814Y-57622115D01*
X137166633Y-57605523D01*
X137172833Y-57604631D01*
X137175210Y-57603334D01*
X137201568Y-57600500D01*
X137240234Y-57600500D01*
X137307273Y-57620185D01*
X137309125Y-57621398D01*
X137440814Y-57709390D01*
X137440827Y-57709397D01*
X137586498Y-57769735D01*
X137586503Y-57769737D01*
X137741153Y-57800499D01*
X137741156Y-57800500D01*
X137741158Y-57800500D01*
X137898844Y-57800500D01*
X137898845Y-57800499D01*
X138053497Y-57769737D01*
X138199179Y-57709394D01*
X138330289Y-57621789D01*
X138441789Y-57510289D01*
X138471981Y-57465102D01*
X138525592Y-57420299D01*
X138594917Y-57411591D01*
X138657945Y-57441745D01*
G37*
G04 #@! TD.AperFunction*
G04 #@! TA.AperFunction,Conductor*
G36*
X133200781Y-55820185D02*
G01*
X133246536Y-55872989D01*
X133248303Y-55877047D01*
X133289930Y-55977544D01*
X133297399Y-56047014D01*
X133289930Y-56072449D01*
X133230263Y-56216498D01*
X133230260Y-56216510D01*
X133199499Y-56371153D01*
X133199499Y-56528846D01*
X133230260Y-56683489D01*
X133230263Y-56683501D01*
X133289929Y-56827549D01*
X133297398Y-56897018D01*
X133289929Y-56922453D01*
X133230264Y-57066498D01*
X133230261Y-57066510D01*
X133199500Y-57221153D01*
X133199500Y-57378851D01*
X133199564Y-57379170D01*
X133199548Y-57379339D01*
X133200097Y-57384907D01*
X133199040Y-57385011D01*
X133193329Y-57448761D01*
X133150459Y-57503933D01*
X133084567Y-57527170D01*
X133016572Y-57511094D01*
X132990263Y-57491028D01*
X131511416Y-56012181D01*
X131477931Y-55950858D01*
X131482915Y-55881166D01*
X131524787Y-55825233D01*
X131590251Y-55800816D01*
X131599097Y-55800500D01*
X133133742Y-55800500D01*
X133200781Y-55820185D01*
G37*
G04 #@! TD.AperFunction*
G04 #@! TA.AperFunction,Conductor*
G36*
X129425471Y-49930185D02*
G01*
X129446113Y-49946819D01*
X133925197Y-54425903D01*
X133958682Y-54487226D01*
X133953698Y-54556918D01*
X133911826Y-54612851D01*
X133846362Y-54637268D01*
X133805423Y-54633359D01*
X133679058Y-54599499D01*
X133520944Y-54599499D01*
X133513348Y-54599499D01*
X133513332Y-54599500D01*
X130715783Y-54599500D01*
X130648744Y-54579815D01*
X130628102Y-54563181D01*
X129811180Y-53746259D01*
X129777695Y-53684936D01*
X129782679Y-53615244D01*
X129811177Y-53570900D01*
X129871789Y-53510289D01*
X129959394Y-53379179D01*
X130019737Y-53233497D01*
X130050500Y-53078842D01*
X130050500Y-52921158D01*
X130050500Y-52921155D01*
X130050499Y-52921153D01*
X130019739Y-52766511D01*
X130019738Y-52766508D01*
X130019737Y-52766503D01*
X130009937Y-52742844D01*
X130000500Y-52695396D01*
X130000500Y-51426079D01*
X129971659Y-51281092D01*
X129971658Y-51281091D01*
X129971658Y-51281087D01*
X129922486Y-51162375D01*
X129915087Y-51144511D01*
X129915080Y-51144498D01*
X129832952Y-51021585D01*
X129794864Y-50983497D01*
X129728416Y-50917049D01*
X129246072Y-50434705D01*
X129219191Y-50394473D01*
X129209397Y-50370828D01*
X129209396Y-50370826D01*
X129209394Y-50370821D01*
X129166264Y-50306272D01*
X129121789Y-50239710D01*
X129005982Y-50123903D01*
X129007482Y-50122402D01*
X128973563Y-50072600D01*
X128971697Y-50002756D01*
X129007888Y-49942989D01*
X129070646Y-49912277D01*
X129091565Y-49910500D01*
X129358432Y-49910500D01*
X129425471Y-49930185D01*
G37*
G04 #@! TD.AperFunction*
G04 #@! TA.AperFunction,Conductor*
G36*
X127083093Y-47022813D02*
G01*
X127105607Y-47040628D01*
X128562798Y-48497819D01*
X128596283Y-48559142D01*
X128591299Y-48628834D01*
X128549427Y-48684767D01*
X128483963Y-48709184D01*
X128475117Y-48709500D01*
X127172414Y-48709500D01*
X127019688Y-48750422D01*
X127019686Y-48750422D01*
X127019686Y-48750423D01*
X127002598Y-48760289D01*
X127002595Y-48760291D01*
X127002594Y-48760290D01*
X126882758Y-48829477D01*
X126882753Y-48829481D01*
X126419479Y-49292755D01*
X126393648Y-49337499D01*
X126343082Y-49385715D01*
X126286260Y-49399500D01*
X121829766Y-49399500D01*
X121812609Y-49394462D01*
X121794729Y-49394447D01*
X121764711Y-49380397D01*
X121762727Y-49379815D01*
X121762637Y-49379758D01*
X121760387Y-49378309D01*
X121760289Y-49378211D01*
X121629179Y-49290606D01*
X121615147Y-49284794D01*
X121605773Y-49278758D01*
X121589918Y-49260429D01*
X121571047Y-49245222D01*
X121567470Y-49234477D01*
X121560064Y-49225915D01*
X121556635Y-49201924D01*
X121548981Y-49178928D01*
X121551780Y-49167957D01*
X121550179Y-49156748D01*
X121560265Y-49134711D01*
X121566259Y-49111229D01*
X121574546Y-49103512D01*
X121579259Y-49093217D01*
X121599657Y-49080132D01*
X121617395Y-49063617D01*
X121630075Y-49060620D01*
X121638069Y-49055493D01*
X121651723Y-49055504D01*
X121672902Y-49050500D01*
X121828844Y-49050500D01*
X121828845Y-49050499D01*
X121983497Y-49019737D01*
X122129179Y-48959394D01*
X122260289Y-48871789D01*
X122302601Y-48829477D01*
X122371788Y-48760291D01*
X122371789Y-48760289D01*
X122459394Y-48629179D01*
X122460275Y-48627049D01*
X122461035Y-48626106D01*
X122462264Y-48623809D01*
X122462699Y-48624041D01*
X122504115Y-48572646D01*
X122570408Y-48550579D01*
X122574838Y-48550500D01*
X122578844Y-48550500D01*
X122578845Y-48550499D01*
X122733497Y-48519737D01*
X122879179Y-48459394D01*
X122941309Y-48417880D01*
X123010875Y-48371398D01*
X123077553Y-48350520D01*
X123079766Y-48350500D01*
X124413331Y-48350500D01*
X124413347Y-48350501D01*
X124420943Y-48350501D01*
X124579054Y-48350501D01*
X124579057Y-48350501D01*
X124731785Y-48309577D01*
X124781904Y-48280639D01*
X124868716Y-48230520D01*
X124980520Y-48118716D01*
X124980520Y-48118714D01*
X124990728Y-48108507D01*
X124990729Y-48108504D01*
X125264661Y-47834572D01*
X125325983Y-47801089D01*
X125328150Y-47800638D01*
X125386085Y-47789113D01*
X125483497Y-47769737D01*
X125629179Y-47709394D01*
X125760289Y-47621789D01*
X125871789Y-47510289D01*
X125959394Y-47379179D01*
X126019737Y-47233497D01*
X126019737Y-47233496D01*
X126022068Y-47227869D01*
X126024287Y-47228788D01*
X126056740Y-47179224D01*
X126120540Y-47150741D01*
X126184593Y-47159062D01*
X126210364Y-47169737D01*
X126365014Y-47200499D01*
X126365017Y-47200500D01*
X126365019Y-47200500D01*
X126522705Y-47200500D01*
X126522706Y-47200499D01*
X126677358Y-47169737D01*
X126823040Y-47109394D01*
X126840923Y-47097445D01*
X126949035Y-47025207D01*
X127015712Y-47004329D01*
X127083093Y-47022813D01*
G37*
G04 #@! TD.AperFunction*
G04 #@! TA.AperFunction,Conductor*
G36*
X186002855Y-31500632D02*
G01*
X186363311Y-31517296D01*
X186374700Y-31518352D01*
X186729238Y-31567808D01*
X186740482Y-31569910D01*
X187088944Y-31651867D01*
X187099934Y-31654994D01*
X187439368Y-31768761D01*
X187450022Y-31772889D01*
X187777496Y-31917482D01*
X187787723Y-31922574D01*
X188030656Y-32057887D01*
X188100453Y-32096764D01*
X188110191Y-32102793D01*
X188405513Y-32305093D01*
X188414653Y-32311996D01*
X188690035Y-32540670D01*
X188698499Y-32548386D01*
X188951613Y-32801500D01*
X188959329Y-32809964D01*
X189188003Y-33085346D01*
X189194906Y-33094486D01*
X189397206Y-33389808D01*
X189403235Y-33399546D01*
X189577418Y-33712263D01*
X189582523Y-33722516D01*
X189727105Y-34049964D01*
X189731243Y-34060644D01*
X189845001Y-34400052D01*
X189848135Y-34411068D01*
X189930087Y-34759509D01*
X189932192Y-34770768D01*
X189981646Y-35125291D01*
X189982703Y-35136695D01*
X189999368Y-35497144D01*
X189999500Y-35502871D01*
X189999500Y-67497128D01*
X189999368Y-67502855D01*
X189982703Y-67863304D01*
X189981646Y-67874708D01*
X189932192Y-68229231D01*
X189930087Y-68240490D01*
X189848135Y-68588931D01*
X189845001Y-68599947D01*
X189731243Y-68939355D01*
X189727105Y-68950035D01*
X189582523Y-69277483D01*
X189577418Y-69287736D01*
X189403235Y-69600453D01*
X189397206Y-69610191D01*
X189194906Y-69905513D01*
X189188003Y-69914653D01*
X188959329Y-70190035D01*
X188951613Y-70198499D01*
X188698499Y-70451613D01*
X188690035Y-70459329D01*
X188414653Y-70688003D01*
X188405513Y-70694906D01*
X188110191Y-70897206D01*
X188100453Y-70903235D01*
X187787736Y-71077418D01*
X187777483Y-71082523D01*
X187450035Y-71227105D01*
X187439355Y-71231243D01*
X187099947Y-71345001D01*
X187088931Y-71348135D01*
X186740490Y-71430087D01*
X186729231Y-71432192D01*
X186374708Y-71481646D01*
X186363304Y-71482703D01*
X186002855Y-71499368D01*
X185997128Y-71499500D01*
X174411970Y-71499500D01*
X174344931Y-71479815D01*
X174299176Y-71427011D01*
X174289232Y-71357853D01*
X174318257Y-71294297D01*
X174350490Y-71268557D01*
X174350430Y-71268468D01*
X174351487Y-71267761D01*
X174353513Y-71266144D01*
X174355489Y-71265087D01*
X174355491Y-71265085D01*
X174355495Y-71265084D01*
X174408866Y-71229423D01*
X174478416Y-71182952D01*
X175378596Y-70282770D01*
X175439917Y-70249287D01*
X175485673Y-70247980D01*
X175501583Y-70250500D01*
X175501584Y-70250500D01*
X175698422Y-70250500D01*
X175892826Y-70219709D01*
X175958103Y-70198499D01*
X176080025Y-70158884D01*
X176255405Y-70069524D01*
X176414646Y-69953828D01*
X176553828Y-69814646D01*
X176669524Y-69655405D01*
X176758884Y-69480025D01*
X176819709Y-69292826D01*
X176838097Y-69176728D01*
X176850500Y-69098422D01*
X176850500Y-68901577D01*
X176819709Y-68707173D01*
X176758882Y-68519970D01*
X176711743Y-68427455D01*
X176669524Y-68344595D01*
X176553828Y-68185354D01*
X176414646Y-68046172D01*
X176414645Y-68046171D01*
X176414643Y-68046169D01*
X176401612Y-68036701D01*
X176358948Y-67981370D01*
X176350500Y-67936385D01*
X176350500Y-66636740D01*
X176321659Y-66491753D01*
X176321658Y-66491752D01*
X176321658Y-66491748D01*
X176277268Y-66384581D01*
X176265087Y-66355172D01*
X176265080Y-66355159D01*
X176182952Y-66232246D01*
X176151970Y-66201264D01*
X176078416Y-66127710D01*
X175986818Y-66036111D01*
X175953334Y-65974787D01*
X175950500Y-65948430D01*
X175950500Y-64512229D01*
X175970185Y-64445190D01*
X175986819Y-64424548D01*
X176374548Y-64036819D01*
X176435871Y-64003334D01*
X176462229Y-64000500D01*
X176695396Y-64000500D01*
X176742844Y-64009937D01*
X176766503Y-64019737D01*
X176766508Y-64019738D01*
X176766511Y-64019739D01*
X176921153Y-64050499D01*
X176921156Y-64050500D01*
X176921158Y-64050500D01*
X177078844Y-64050500D01*
X177078845Y-64050499D01*
X177233497Y-64019737D01*
X177379179Y-63959394D01*
X177510289Y-63871789D01*
X177621789Y-63760289D01*
X177709394Y-63629179D01*
X177769737Y-63483497D01*
X177800500Y-63328842D01*
X177800500Y-63171158D01*
X177800500Y-63171155D01*
X177800499Y-63171153D01*
X177769738Y-63016510D01*
X177769737Y-63016503D01*
X177710068Y-62872450D01*
X177702600Y-62802982D01*
X177710067Y-62777552D01*
X177769736Y-62633498D01*
X177800499Y-62478843D01*
X177800499Y-62321159D01*
X177800499Y-62321156D01*
X177800498Y-62321154D01*
X177784192Y-62239179D01*
X177769736Y-62166504D01*
X177769734Y-62166499D01*
X177709396Y-62020828D01*
X177709389Y-62020815D01*
X177621397Y-61889126D01*
X177600519Y-61822448D01*
X177600499Y-61820235D01*
X177600499Y-60201569D01*
X177620184Y-60134530D01*
X177636818Y-60113888D01*
X178093673Y-59657033D01*
X178601338Y-59149367D01*
X178627115Y-59135292D01*
X178651475Y-59118870D01*
X178657430Y-59118739D01*
X178662659Y-59115884D01*
X178691962Y-59117979D01*
X178721327Y-59117334D01*
X178728502Y-59120592D01*
X178732350Y-59120868D01*
X178753747Y-59131286D01*
X178755855Y-59132576D01*
X178870821Y-59209394D01*
X178903460Y-59222913D01*
X178911752Y-59227988D01*
X178918055Y-59234947D01*
X178934703Y-59246071D01*
X180573181Y-60884548D01*
X180606666Y-60945871D01*
X180609500Y-60972229D01*
X180609500Y-61555396D01*
X180600062Y-61602844D01*
X180590263Y-61626503D01*
X180590262Y-61626506D01*
X180590260Y-61626511D01*
X180559500Y-61781153D01*
X180559500Y-61938846D01*
X180590261Y-62093489D01*
X180590264Y-62093501D01*
X180650602Y-62239172D01*
X180650609Y-62239185D01*
X180738210Y-62370288D01*
X180738213Y-62370292D01*
X180849707Y-62481786D01*
X180849711Y-62481789D01*
X180980814Y-62569390D01*
X180980827Y-62569397D01*
X181126498Y-62629735D01*
X181126503Y-62629737D01*
X181281153Y-62660499D01*
X181281156Y-62660500D01*
X181281158Y-62660500D01*
X181438844Y-62660500D01*
X181438845Y-62660499D01*
X181593497Y-62629737D01*
X181739179Y-62569394D01*
X181870289Y-62481789D01*
X181981789Y-62370289D01*
X182069394Y-62239179D01*
X182129737Y-62093497D01*
X182160500Y-61938842D01*
X182160500Y-61781158D01*
X182160500Y-61781155D01*
X182160499Y-61781153D01*
X182129739Y-61626511D01*
X182129738Y-61626508D01*
X182129737Y-61626503D01*
X182119937Y-61602844D01*
X182110500Y-61555396D01*
X182110500Y-60568405D01*
X182130185Y-60501366D01*
X182182989Y-60455611D01*
X182252147Y-60445667D01*
X182315703Y-60474692D01*
X182337602Y-60499514D01*
X182378210Y-60560288D01*
X182378213Y-60560292D01*
X182489707Y-60671786D01*
X182489711Y-60671789D01*
X182620814Y-60759390D01*
X182620827Y-60759397D01*
X182766498Y-60819735D01*
X182766503Y-60819737D01*
X182921153Y-60850499D01*
X182921156Y-60850500D01*
X182921158Y-60850500D01*
X183078844Y-60850500D01*
X183078845Y-60850499D01*
X183233497Y-60819737D01*
X183379179Y-60759394D01*
X183510289Y-60671789D01*
X183621789Y-60560289D01*
X183709394Y-60429179D01*
X183769737Y-60283497D01*
X183800500Y-60128842D01*
X183800500Y-59971158D01*
X183800500Y-59971155D01*
X183800499Y-59971153D01*
X183769739Y-59816511D01*
X183769738Y-59816508D01*
X183769737Y-59816503D01*
X183759937Y-59792844D01*
X183750500Y-59745396D01*
X183750500Y-57648261D01*
X183721659Y-57503274D01*
X183721658Y-57503273D01*
X183721658Y-57503269D01*
X183670325Y-57379339D01*
X183665087Y-57366693D01*
X183665080Y-57366680D01*
X183582952Y-57243767D01*
X183560338Y-57221153D01*
X183478416Y-57139231D01*
X177325388Y-50986202D01*
X177291903Y-50924879D01*
X177291452Y-50874329D01*
X177300500Y-50828844D01*
X177300500Y-50671155D01*
X177300499Y-50671153D01*
X177269738Y-50516510D01*
X177269737Y-50516503D01*
X177255612Y-50482401D01*
X177209397Y-50370827D01*
X177209390Y-50370814D01*
X177121789Y-50239711D01*
X177121786Y-50239707D01*
X177010292Y-50128213D01*
X177010288Y-50128210D01*
X176916811Y-50065750D01*
X178749500Y-50065750D01*
X178749500Y-50095834D01*
X178749500Y-50434250D01*
X178757317Y-50513619D01*
X178785618Y-50800975D01*
X178857504Y-51162375D01*
X178857507Y-51162386D01*
X178964480Y-51515030D01*
X179105500Y-51855481D01*
X179105502Y-51855486D01*
X179279202Y-52180456D01*
X179279213Y-52180474D01*
X179483931Y-52486856D01*
X179483941Y-52486870D01*
X179717715Y-52771724D01*
X179978275Y-53032284D01*
X179978280Y-53032288D01*
X179978281Y-53032289D01*
X180263135Y-53266063D01*
X180569532Y-53470791D01*
X180569541Y-53470796D01*
X180569543Y-53470797D01*
X180894513Y-53644497D01*
X180894515Y-53644497D01*
X180894521Y-53644501D01*
X181234971Y-53785520D01*
X181587604Y-53892490D01*
X181587610Y-53892491D01*
X181587613Y-53892492D01*
X181587624Y-53892495D01*
X181949024Y-53964381D01*
X182315750Y-54000500D01*
X182315753Y-54000500D01*
X182684247Y-54000500D01*
X182684250Y-54000500D01*
X183050976Y-53964381D01*
X183121331Y-53950386D01*
X183412375Y-53892495D01*
X183412386Y-53892492D01*
X183412386Y-53892491D01*
X183412396Y-53892490D01*
X183765029Y-53785520D01*
X184105479Y-53644501D01*
X184430468Y-53470791D01*
X184736865Y-53266063D01*
X185021719Y-53032289D01*
X185282289Y-52771719D01*
X185516063Y-52486865D01*
X185720791Y-52180468D01*
X185894501Y-51855479D01*
X186035520Y-51515029D01*
X186142490Y-51162396D01*
X186142492Y-51162386D01*
X186142495Y-51162375D01*
X186209580Y-50825111D01*
X186214381Y-50800976D01*
X186250500Y-50434250D01*
X186250500Y-50065750D01*
X186214381Y-49699024D01*
X186186628Y-49559500D01*
X186142495Y-49337624D01*
X186142492Y-49337613D01*
X186142491Y-49337610D01*
X186142490Y-49337604D01*
X186035520Y-48984971D01*
X185894501Y-48644521D01*
X185737354Y-48350520D01*
X185720797Y-48319543D01*
X185720796Y-48319541D01*
X185720791Y-48319532D01*
X185516063Y-48013135D01*
X185282289Y-47728281D01*
X185282288Y-47728280D01*
X185282284Y-47728275D01*
X185021724Y-47467715D01*
X184736870Y-47233941D01*
X184736869Y-47233940D01*
X184736865Y-47233937D01*
X184430468Y-47029209D01*
X184430463Y-47029206D01*
X184430456Y-47029202D01*
X184105486Y-46855502D01*
X184105481Y-46855500D01*
X183765030Y-46714480D01*
X183412386Y-46607507D01*
X183412375Y-46607504D01*
X183050975Y-46535618D01*
X182774772Y-46508415D01*
X182684250Y-46499500D01*
X182315750Y-46499500D01*
X182232109Y-46507737D01*
X181949024Y-46535618D01*
X181587624Y-46607504D01*
X181587613Y-46607507D01*
X181234969Y-46714480D01*
X180894518Y-46855500D01*
X180894513Y-46855502D01*
X180569543Y-47029202D01*
X180569525Y-47029213D01*
X180263143Y-47233931D01*
X180263129Y-47233941D01*
X179978275Y-47467715D01*
X179717715Y-47728275D01*
X179483941Y-48013129D01*
X179483931Y-48013143D01*
X179279213Y-48319525D01*
X179279202Y-48319543D01*
X179105502Y-48644513D01*
X179105500Y-48644518D01*
X178964480Y-48984969D01*
X178857507Y-49337613D01*
X178857504Y-49337624D01*
X178785618Y-49699024D01*
X178757920Y-49980261D01*
X178749500Y-50065750D01*
X176916811Y-50065750D01*
X176879185Y-50040609D01*
X176879172Y-50040602D01*
X176733501Y-49980264D01*
X176733489Y-49980261D01*
X176578845Y-49949500D01*
X176578842Y-49949500D01*
X176421158Y-49949500D01*
X176421155Y-49949500D01*
X176266510Y-49980261D01*
X176266498Y-49980264D01*
X176120827Y-50040602D01*
X176120814Y-50040609D01*
X175989711Y-50128210D01*
X175989707Y-50128213D01*
X175878213Y-50239707D01*
X175878208Y-50239713D01*
X175846289Y-50287483D01*
X175792676Y-50332288D01*
X175723351Y-50340994D01*
X175660324Y-50310838D01*
X175655507Y-50306272D01*
X171327055Y-45977820D01*
X171293570Y-45916497D01*
X171293119Y-45865945D01*
X171300500Y-45828841D01*
X171300500Y-45671155D01*
X171300499Y-45671153D01*
X171292405Y-45630464D01*
X171269737Y-45516503D01*
X171269735Y-45516498D01*
X171209397Y-45370827D01*
X171209390Y-45370814D01*
X171121789Y-45239711D01*
X171121786Y-45239707D01*
X171010292Y-45128213D01*
X171010288Y-45128210D01*
X170879181Y-45040606D01*
X170876970Y-45039425D01*
X170876028Y-45038500D01*
X170874114Y-45037221D01*
X170874356Y-45036857D01*
X170827124Y-44990464D01*
X170811662Y-44922327D01*
X170835492Y-44856646D01*
X170854884Y-44835779D01*
X170940421Y-44762724D01*
X171262724Y-44440421D01*
X171558745Y-44093825D01*
X171671522Y-43938600D01*
X180541598Y-43938600D01*
X180541598Y-44143303D01*
X180573620Y-44345486D01*
X180636879Y-44540175D01*
X180729813Y-44722565D01*
X180850126Y-44888165D01*
X180994884Y-45032923D01*
X181126042Y-45128213D01*
X181160488Y-45153239D01*
X181276705Y-45212455D01*
X181342874Y-45246170D01*
X181342876Y-45246170D01*
X181342879Y-45246172D01*
X181447235Y-45280079D01*
X181537563Y-45309429D01*
X181638655Y-45325440D01*
X181739746Y-45341452D01*
X181739747Y-45341452D01*
X181944449Y-45341452D01*
X181944450Y-45341452D01*
X182146632Y-45309429D01*
X182341317Y-45246172D01*
X182523708Y-45153239D01*
X182616688Y-45085684D01*
X182689311Y-45032923D01*
X182689313Y-45032920D01*
X182689317Y-45032918D01*
X182834064Y-44888171D01*
X182834066Y-44888167D01*
X182834069Y-44888165D01*
X182925202Y-44762729D01*
X182954385Y-44722562D01*
X183047318Y-44540171D01*
X183110575Y-44345486D01*
X183142598Y-44143304D01*
X183142598Y-43938600D01*
X183110575Y-43736418D01*
X183106888Y-43725072D01*
X183047316Y-43541728D01*
X183013601Y-43475559D01*
X182954385Y-43359342D01*
X182937751Y-43336447D01*
X182834069Y-43193738D01*
X182689311Y-43048980D01*
X182523711Y-42928667D01*
X182523710Y-42928666D01*
X182523708Y-42928665D01*
X182466751Y-42899643D01*
X182341321Y-42835733D01*
X182146632Y-42772474D01*
X181972093Y-42744830D01*
X181944450Y-42740452D01*
X181739746Y-42740452D01*
X181715427Y-42744303D01*
X181537563Y-42772474D01*
X181342874Y-42835733D01*
X181160484Y-42928667D01*
X180994884Y-43048980D01*
X180850126Y-43193738D01*
X180729813Y-43359338D01*
X180636879Y-43541728D01*
X180573620Y-43736417D01*
X180541598Y-43938600D01*
X171671522Y-43938600D01*
X171826660Y-43725071D01*
X172064818Y-43336434D01*
X172271748Y-42930309D01*
X172446177Y-42509201D01*
X172587029Y-42075705D01*
X172693434Y-41632494D01*
X172764738Y-41182302D01*
X172800500Y-40727902D01*
X172800500Y-40272098D01*
X172764738Y-39817698D01*
X172693434Y-39367506D01*
X172587029Y-38924295D01*
X172446177Y-38490799D01*
X172407593Y-38397648D01*
X173449501Y-38397648D01*
X173449501Y-38602351D01*
X173481523Y-38804534D01*
X173544782Y-38999223D01*
X173637716Y-39181613D01*
X173758029Y-39347213D01*
X173902787Y-39491971D01*
X174057750Y-39604556D01*
X174068391Y-39612287D01*
X174184608Y-39671503D01*
X174250777Y-39705218D01*
X174250779Y-39705218D01*
X174250782Y-39705220D01*
X174355138Y-39739127D01*
X174445466Y-39768477D01*
X174546558Y-39784488D01*
X174647649Y-39800500D01*
X174647650Y-39800500D01*
X174852352Y-39800500D01*
X174852353Y-39800500D01*
X175054535Y-39768477D01*
X175249220Y-39705220D01*
X175431611Y-39612287D01*
X175524591Y-39544732D01*
X175597214Y-39491971D01*
X175597216Y-39491968D01*
X175597220Y-39491966D01*
X175741967Y-39347219D01*
X175741969Y-39347215D01*
X175741972Y-39347213D01*
X175794733Y-39274590D01*
X175862288Y-39181610D01*
X175955221Y-38999219D01*
X176018478Y-38804534D01*
X176050501Y-38602352D01*
X176050501Y-38397648D01*
X176018478Y-38195466D01*
X175955221Y-38000781D01*
X175955219Y-38000778D01*
X175955219Y-38000776D01*
X175914688Y-37921231D01*
X175862288Y-37818390D01*
X175854557Y-37807749D01*
X175741972Y-37652786D01*
X175597214Y-37508028D01*
X175431614Y-37387715D01*
X175431613Y-37387714D01*
X175431611Y-37387713D01*
X175374654Y-37358691D01*
X175249224Y-37294781D01*
X175054535Y-37231522D01*
X174879996Y-37203878D01*
X174852353Y-37199500D01*
X174647649Y-37199500D01*
X174623330Y-37203351D01*
X174445466Y-37231522D01*
X174250777Y-37294781D01*
X174068387Y-37387715D01*
X173902787Y-37508028D01*
X173758029Y-37652786D01*
X173637716Y-37818386D01*
X173544782Y-38000776D01*
X173481523Y-38195465D01*
X173449501Y-38397648D01*
X172407593Y-38397648D01*
X172271748Y-38069691D01*
X172064818Y-37663566D01*
X172064812Y-37663557D01*
X172064810Y-37663552D01*
X172064807Y-37663547D01*
X171826666Y-37274938D01*
X171826662Y-37274933D01*
X171826660Y-37274929D01*
X171558745Y-36906175D01*
X171262724Y-36559579D01*
X170940421Y-36237276D01*
X170593825Y-35941255D01*
X170225071Y-35673340D01*
X170225068Y-35673338D01*
X170225061Y-35673333D01*
X169836452Y-35435192D01*
X169836447Y-35435189D01*
X169836437Y-35435184D01*
X169836434Y-35435182D01*
X169430309Y-35228252D01*
X169302426Y-35175281D01*
X169009212Y-35053827D01*
X169009205Y-35053824D01*
X169009201Y-35053823D01*
X168575705Y-34912971D01*
X168132494Y-34806566D01*
X167682302Y-34735262D01*
X167227907Y-34699500D01*
X167227902Y-34699500D01*
X166772098Y-34699500D01*
X166772092Y-34699500D01*
X166317697Y-34735262D01*
X166317696Y-34735262D01*
X165867511Y-34806565D01*
X165867508Y-34806565D01*
X165867506Y-34806566D01*
X165708784Y-34844671D01*
X165424306Y-34912968D01*
X165424301Y-34912969D01*
X165424295Y-34912971D01*
X164990799Y-35053823D01*
X164990787Y-35053827D01*
X164569693Y-35228251D01*
X164163552Y-35435189D01*
X164163547Y-35435192D01*
X163774938Y-35673333D01*
X163774927Y-35673341D01*
X163406182Y-35941249D01*
X163406168Y-35941260D01*
X163059585Y-36237270D01*
X163059571Y-36237283D01*
X162737283Y-36559571D01*
X162737270Y-36559585D01*
X162441260Y-36906168D01*
X162441249Y-36906182D01*
X162173341Y-37274927D01*
X162173333Y-37274938D01*
X161935192Y-37663547D01*
X161935189Y-37663552D01*
X161728251Y-38069693D01*
X161553827Y-38490787D01*
X161553823Y-38490799D01*
X161412971Y-38924295D01*
X161311437Y-39347219D01*
X161306565Y-39367511D01*
X161235262Y-39817696D01*
X161235262Y-39817697D01*
X161199500Y-40272092D01*
X161199500Y-40727907D01*
X161235262Y-41182302D01*
X161235262Y-41182303D01*
X161306565Y-41632488D01*
X161306566Y-41632494D01*
X161412971Y-42075705D01*
X161553823Y-42509200D01*
X161553827Y-42509212D01*
X161639549Y-42716162D01*
X161728252Y-42930309D01*
X161935182Y-43336434D01*
X161935189Y-43336447D01*
X161935192Y-43336452D01*
X162173333Y-43725061D01*
X162173338Y-43725068D01*
X162173340Y-43725071D01*
X162441255Y-44093825D01*
X162737276Y-44440421D01*
X163059579Y-44762724D01*
X163406175Y-45058745D01*
X163774929Y-45326660D01*
X163774933Y-45326662D01*
X163774938Y-45326666D01*
X164163547Y-45564807D01*
X164163552Y-45564810D01*
X164163557Y-45564812D01*
X164163566Y-45564818D01*
X164569691Y-45771748D01*
X164990799Y-45946177D01*
X165424295Y-46087029D01*
X165867506Y-46193434D01*
X166317698Y-46264738D01*
X166772098Y-46300500D01*
X166772106Y-46300500D01*
X167227894Y-46300500D01*
X167227902Y-46300500D01*
X167532703Y-46276511D01*
X167601077Y-46290875D01*
X167650834Y-46339926D01*
X167666173Y-46408091D01*
X167642224Y-46473729D01*
X167630117Y-46487803D01*
X167628216Y-46489703D01*
X167628210Y-46489711D01*
X167540609Y-46620814D01*
X167540602Y-46620827D01*
X167480264Y-46766498D01*
X167480261Y-46766508D01*
X167449361Y-46921850D01*
X167440595Y-46938607D01*
X167436576Y-46957084D01*
X167417831Y-46982125D01*
X167416976Y-46983761D01*
X167415426Y-46985339D01*
X167287582Y-47113182D01*
X167226262Y-47146666D01*
X167199903Y-47149500D01*
X166079766Y-47149500D01*
X166012727Y-47129815D01*
X166010875Y-47128602D01*
X165879185Y-47040609D01*
X165879172Y-47040602D01*
X165733501Y-46980264D01*
X165733489Y-46980261D01*
X165578845Y-46949500D01*
X165578842Y-46949500D01*
X165421158Y-46949500D01*
X165421155Y-46949500D01*
X165266510Y-46980261D01*
X165266498Y-46980264D01*
X165120827Y-47040602D01*
X165120814Y-47040609D01*
X164989711Y-47128210D01*
X164989707Y-47128213D01*
X164878213Y-47239707D01*
X164878210Y-47239711D01*
X164790609Y-47370814D01*
X164790607Y-47370819D01*
X164789725Y-47372949D01*
X164788964Y-47373893D01*
X164787736Y-47376191D01*
X164787300Y-47375958D01*
X164745885Y-47427354D01*
X164679592Y-47449421D01*
X164675162Y-47449500D01*
X164671155Y-47449500D01*
X164516510Y-47480261D01*
X164516498Y-47480264D01*
X164370827Y-47540602D01*
X164370814Y-47540609D01*
X164239125Y-47628602D01*
X164221078Y-47634252D01*
X164205169Y-47644477D01*
X164174207Y-47648928D01*
X164172447Y-47649480D01*
X164170234Y-47649500D01*
X164098140Y-47649500D01*
X164098124Y-47649499D01*
X164090528Y-47649499D01*
X163932414Y-47649499D01*
X163852481Y-47670917D01*
X163779687Y-47690422D01*
X163746826Y-47709395D01*
X163746825Y-47709394D01*
X163642758Y-47769477D01*
X163642753Y-47769481D01*
X163530949Y-47881286D01*
X161381892Y-50030342D01*
X161363102Y-50045763D01*
X161239711Y-50128210D01*
X161239707Y-50128213D01*
X161128213Y-50239707D01*
X161128210Y-50239711D01*
X161040609Y-50370814D01*
X161040602Y-50370827D01*
X160980264Y-50516498D01*
X160980261Y-50516510D01*
X160949500Y-50671153D01*
X160949500Y-50675501D01*
X160929815Y-50742540D01*
X160877011Y-50788295D01*
X160825500Y-50799501D01*
X157020942Y-50799501D01*
X156868212Y-50840424D01*
X156822724Y-50866688D01*
X156822723Y-50866688D01*
X156731286Y-50919478D01*
X156731281Y-50919482D01*
X156235339Y-51415425D01*
X156174016Y-51448910D01*
X156171850Y-51449361D01*
X156016508Y-51480261D01*
X156016498Y-51480264D01*
X155870827Y-51540602D01*
X155870814Y-51540609D01*
X155739711Y-51628210D01*
X155739707Y-51628213D01*
X155628213Y-51739707D01*
X155628210Y-51739711D01*
X155540609Y-51870814D01*
X155540602Y-51870827D01*
X155480264Y-52016498D01*
X155480261Y-52016510D01*
X155449500Y-52171153D01*
X155449500Y-52328846D01*
X155480261Y-52483489D01*
X155480264Y-52483501D01*
X155540602Y-52629172D01*
X155540609Y-52629185D01*
X155628210Y-52760288D01*
X155628213Y-52760292D01*
X155739707Y-52871786D01*
X155739711Y-52871789D01*
X155870814Y-52959390D01*
X155870821Y-52959394D01*
X155926030Y-52982262D01*
X155980433Y-53026102D01*
X156002499Y-53092396D01*
X155985221Y-53160095D01*
X155966259Y-53184504D01*
X155735339Y-53415425D01*
X155674016Y-53448910D01*
X155671850Y-53449361D01*
X155516508Y-53480261D01*
X155516498Y-53480264D01*
X155370827Y-53540602D01*
X155370814Y-53540609D01*
X155239711Y-53628210D01*
X155239707Y-53628213D01*
X155128213Y-53739707D01*
X155128210Y-53739711D01*
X155040609Y-53870814D01*
X155040602Y-53870827D01*
X154980264Y-54016498D01*
X154980261Y-54016510D01*
X154949500Y-54171153D01*
X154949500Y-54328846D01*
X154980261Y-54483489D01*
X154980264Y-54483501D01*
X155040602Y-54629172D01*
X155040609Y-54629185D01*
X155128210Y-54760288D01*
X155128213Y-54760292D01*
X155239707Y-54871786D01*
X155239711Y-54871789D01*
X155370814Y-54959390D01*
X155370827Y-54959397D01*
X155516498Y-55019735D01*
X155516503Y-55019737D01*
X155671153Y-55050499D01*
X155671156Y-55050500D01*
X155671158Y-55050500D01*
X155828844Y-55050500D01*
X155828845Y-55050499D01*
X155983497Y-55019737D01*
X156129179Y-54959394D01*
X156260289Y-54871789D01*
X156371789Y-54760289D01*
X156459394Y-54629179D01*
X156519737Y-54483497D01*
X156539113Y-54386085D01*
X156550638Y-54328150D01*
X156583023Y-54266239D01*
X156584518Y-54264716D01*
X157312414Y-53536821D01*
X157373737Y-53503336D01*
X157400095Y-53500502D01*
X160832153Y-53500502D01*
X160899192Y-53520187D01*
X160944947Y-53572991D01*
X160953770Y-53600311D01*
X160980261Y-53733489D01*
X160980264Y-53733501D01*
X161040602Y-53879172D01*
X161040611Y-53879188D01*
X161044974Y-53885718D01*
X161065851Y-53952395D01*
X161047366Y-54019775D01*
X161044973Y-54023497D01*
X160979951Y-54120809D01*
X160979941Y-54120827D01*
X160919603Y-54266498D01*
X160919600Y-54266510D01*
X160888839Y-54421153D01*
X160888839Y-54578846D01*
X160919600Y-54733489D01*
X160919603Y-54733501D01*
X160979941Y-54879172D01*
X160979948Y-54879185D01*
X161067549Y-55010288D01*
X161067552Y-55010292D01*
X161179049Y-55121789D01*
X161310154Y-55209390D01*
X161310160Y-55209394D01*
X161333814Y-55219191D01*
X161374042Y-55246071D01*
X161710917Y-55582947D01*
X161710920Y-55582950D01*
X161763696Y-55618213D01*
X161833847Y-55665086D01*
X161940825Y-55709397D01*
X161970426Y-55721658D01*
X161970430Y-55721658D01*
X161970431Y-55721659D01*
X162115418Y-55750500D01*
X162115421Y-55750500D01*
X162115422Y-55750500D01*
X162263257Y-55750500D01*
X166445396Y-55750500D01*
X166492844Y-55759937D01*
X166516503Y-55769737D01*
X166516508Y-55769738D01*
X166516511Y-55769739D01*
X166671153Y-55800499D01*
X166671156Y-55800500D01*
X166671158Y-55800500D01*
X166828844Y-55800500D01*
X166828845Y-55800499D01*
X166983497Y-55769737D01*
X167129179Y-55709394D01*
X167260289Y-55621789D01*
X167371789Y-55510289D01*
X167459394Y-55379179D01*
X167519737Y-55233497D01*
X167550500Y-55078842D01*
X167550500Y-54921158D01*
X167550500Y-54921155D01*
X167550499Y-54921153D01*
X167536086Y-54848691D01*
X167542313Y-54779100D01*
X167585176Y-54723922D01*
X167651066Y-54700678D01*
X167657703Y-54700500D01*
X171449903Y-54700500D01*
X171516942Y-54720185D01*
X171537584Y-54736819D01*
X176165140Y-59364375D01*
X176165150Y-59364386D01*
X176169480Y-59368716D01*
X176169481Y-59368717D01*
X176281285Y-59480521D01*
X176368096Y-59530640D01*
X176380598Y-59537858D01*
X176428813Y-59588426D01*
X176442035Y-59657033D01*
X176438372Y-59677334D01*
X176399498Y-59822415D01*
X176399498Y-59822417D01*
X176399498Y-59990518D01*
X176399499Y-59990531D01*
X176399499Y-61820235D01*
X176379814Y-61887274D01*
X176378601Y-61889126D01*
X176290608Y-62020815D01*
X176290601Y-62020828D01*
X176230263Y-62166499D01*
X176230260Y-62166511D01*
X176199499Y-62321154D01*
X176199499Y-62375500D01*
X176179814Y-62442539D01*
X176127010Y-62488294D01*
X176075499Y-62499500D01*
X176026080Y-62499500D01*
X175881092Y-62528340D01*
X175881082Y-62528343D01*
X175744511Y-62584912D01*
X175744498Y-62584919D01*
X175621584Y-62667048D01*
X175621580Y-62667051D01*
X174617052Y-63671578D01*
X174617046Y-63671585D01*
X174579074Y-63728415D01*
X174579075Y-63728416D01*
X174534913Y-63794508D01*
X174478343Y-63931082D01*
X174478340Y-63931092D01*
X174449500Y-64076079D01*
X174449500Y-64076082D01*
X174449500Y-66384579D01*
X174449500Y-66384581D01*
X174449499Y-66384581D01*
X174478340Y-66529568D01*
X174478343Y-66529578D01*
X174534912Y-66666149D01*
X174534918Y-66666160D01*
X174545356Y-66681780D01*
X174545358Y-66681785D01*
X174617046Y-66789075D01*
X174617047Y-66789076D01*
X174617048Y-66789077D01*
X174813182Y-66985210D01*
X174846666Y-67046531D01*
X174849500Y-67072890D01*
X174849500Y-67936385D01*
X174829815Y-68003424D01*
X174798388Y-68036701D01*
X174785356Y-68046169D01*
X174646171Y-68185355D01*
X174530476Y-68344594D01*
X174441117Y-68519970D01*
X174380290Y-68707173D01*
X174349500Y-68901577D01*
X174349500Y-69098421D01*
X174352019Y-69114329D01*
X174343062Y-69183622D01*
X174317226Y-69221404D01*
X173725451Y-69813181D01*
X173664128Y-69846666D01*
X173637770Y-69849500D01*
X173221251Y-69849500D01*
X173154212Y-69829815D01*
X173108457Y-69777011D01*
X173098513Y-69707853D01*
X173117891Y-69660120D01*
X173116550Y-69659299D01*
X173119091Y-69655151D01*
X173208418Y-69479835D01*
X173269221Y-69292705D01*
X173300000Y-69098382D01*
X173300000Y-68901617D01*
X173269221Y-68707294D01*
X173208418Y-68520164D01*
X173119096Y-68344858D01*
X173093678Y-68309873D01*
X173093677Y-68309873D01*
X172314457Y-69089095D01*
X172253134Y-69122580D01*
X172183443Y-69117596D01*
X172139095Y-69089095D01*
X172050000Y-69000000D01*
X171960904Y-69089096D01*
X171899581Y-69122580D01*
X171829889Y-69117596D01*
X171785542Y-69089095D01*
X171006320Y-68309872D01*
X171006320Y-68309873D01*
X170980902Y-68344859D01*
X170980899Y-68344863D01*
X170891582Y-68520161D01*
X170830778Y-68707294D01*
X170800000Y-68901617D01*
X170800000Y-69098382D01*
X170830778Y-69292705D01*
X170891581Y-69479835D01*
X170980908Y-69655151D01*
X170983450Y-69659299D01*
X170981806Y-69660306D01*
X171002545Y-69718398D01*
X170986733Y-69786455D01*
X170936636Y-69835159D01*
X170878749Y-69849500D01*
X169671870Y-69849500D01*
X169604831Y-69829815D01*
X169559076Y-69777011D01*
X169549132Y-69707853D01*
X169568380Y-69660420D01*
X169566978Y-69659561D01*
X169569519Y-69655413D01*
X169569520Y-69655409D01*
X169569524Y-69655405D01*
X169658884Y-69480025D01*
X169719709Y-69292826D01*
X169738097Y-69176728D01*
X169750500Y-69098422D01*
X169750500Y-68901577D01*
X169719709Y-68707173D01*
X169658882Y-68519970D01*
X169611743Y-68427455D01*
X169569524Y-68344595D01*
X169453828Y-68185354D01*
X169314646Y-68046172D01*
X169190976Y-67956320D01*
X171359872Y-67956320D01*
X172050000Y-68646446D01*
X172050001Y-68646446D01*
X172740125Y-67956320D01*
X172740125Y-67956319D01*
X172705145Y-67930905D01*
X172529835Y-67841581D01*
X172342705Y-67780778D01*
X172148382Y-67750000D01*
X171951618Y-67750000D01*
X171757294Y-67780778D01*
X171570161Y-67841582D01*
X171394863Y-67930899D01*
X171394859Y-67930902D01*
X171359873Y-67956320D01*
X171359872Y-67956320D01*
X169190976Y-67956320D01*
X169155405Y-67930476D01*
X168980029Y-67841117D01*
X168792826Y-67780290D01*
X168598422Y-67749500D01*
X168598417Y-67749500D01*
X168401583Y-67749500D01*
X168401578Y-67749500D01*
X168207173Y-67780290D01*
X168019970Y-67841117D01*
X167844594Y-67930476D01*
X167795161Y-67966392D01*
X167685354Y-68046172D01*
X167685352Y-68046174D01*
X167685351Y-68046174D01*
X167546174Y-68185351D01*
X167546174Y-68185352D01*
X167546172Y-68185354D01*
X167510170Y-68234906D01*
X167430476Y-68344594D01*
X167341117Y-68519970D01*
X167280290Y-68707173D01*
X167249500Y-68901577D01*
X167249500Y-69098422D01*
X167281023Y-69297452D01*
X167280322Y-69302870D01*
X167282233Y-69307990D01*
X167275892Y-69337153D01*
X167272068Y-69366746D01*
X167268241Y-69372342D01*
X167267389Y-69376264D01*
X167246241Y-69404521D01*
X167237593Y-69413171D01*
X167176274Y-69446663D01*
X167149902Y-69449500D01*
X166289388Y-69449500D01*
X166222349Y-69429815D01*
X166176594Y-69377011D01*
X166166650Y-69307853D01*
X166168814Y-69296553D01*
X166169704Y-69292840D01*
X166169709Y-69292826D01*
X166188097Y-69176728D01*
X166200500Y-69098422D01*
X166200500Y-68901577D01*
X166169709Y-68707173D01*
X166108882Y-68519970D01*
X166061743Y-68427455D01*
X166019524Y-68344595D01*
X165903828Y-68185354D01*
X165764646Y-68046172D01*
X165605405Y-67930476D01*
X165430029Y-67841117D01*
X165242826Y-67780290D01*
X165048422Y-67749500D01*
X165048417Y-67749500D01*
X164851583Y-67749500D01*
X164851577Y-67749500D01*
X164652544Y-67781023D01*
X164583251Y-67772068D01*
X164545466Y-67746231D01*
X163036819Y-66237583D01*
X163003334Y-66176260D01*
X163000500Y-66149902D01*
X163000500Y-65867847D01*
X163020185Y-65800808D01*
X163072989Y-65755053D01*
X163100309Y-65746230D01*
X163116291Y-65743050D01*
X163233497Y-65719737D01*
X163379179Y-65659394D01*
X163510289Y-65571789D01*
X163621789Y-65460289D01*
X163709394Y-65329179D01*
X163769737Y-65183497D01*
X163800500Y-65028842D01*
X163800500Y-64871158D01*
X163800500Y-64871155D01*
X163800499Y-64871153D01*
X163769738Y-64716510D01*
X163769737Y-64716503D01*
X163769735Y-64716498D01*
X163709397Y-64570827D01*
X163709390Y-64570814D01*
X163621789Y-64439711D01*
X163621786Y-64439707D01*
X163510292Y-64328213D01*
X163510288Y-64328210D01*
X163379185Y-64240609D01*
X163379172Y-64240602D01*
X163233501Y-64180264D01*
X163233491Y-64180261D01*
X163100308Y-64153769D01*
X163038397Y-64121384D01*
X163003823Y-64060668D01*
X163000500Y-64032152D01*
X163000500Y-61617847D01*
X163020185Y-61550808D01*
X163072989Y-61505053D01*
X163100309Y-61496230D01*
X163116291Y-61493050D01*
X163233497Y-61469737D01*
X163379179Y-61409394D01*
X163510289Y-61321789D01*
X163621789Y-61210289D01*
X163709394Y-61079179D01*
X163769737Y-60933497D01*
X163800500Y-60778842D01*
X163800500Y-60621158D01*
X163800500Y-60621155D01*
X163800499Y-60621153D01*
X163783577Y-60536082D01*
X163769737Y-60466503D01*
X163767478Y-60461049D01*
X163710070Y-60322452D01*
X163702601Y-60252983D01*
X163710068Y-60227551D01*
X163769738Y-60083496D01*
X163800501Y-59928841D01*
X163800501Y-59771157D01*
X163800501Y-59771154D01*
X163800500Y-59771152D01*
X163769739Y-59616509D01*
X163769739Y-59616507D01*
X163769738Y-59616502D01*
X163747567Y-59562975D01*
X163709398Y-59470826D01*
X163709391Y-59470813D01*
X163621790Y-59339710D01*
X163621787Y-59339706D01*
X163510293Y-59228212D01*
X163510289Y-59228209D01*
X163379186Y-59140608D01*
X163379173Y-59140601D01*
X163233502Y-59080263D01*
X163233490Y-59080260D01*
X163078846Y-59049499D01*
X163078843Y-59049499D01*
X162921159Y-59049499D01*
X162921156Y-59049499D01*
X162766511Y-59080260D01*
X162766499Y-59080263D01*
X162620828Y-59140601D01*
X162620815Y-59140608D01*
X162489712Y-59228209D01*
X162489708Y-59228212D01*
X162378214Y-59339706D01*
X162378211Y-59339710D01*
X162290610Y-59470813D01*
X162290603Y-59470826D01*
X162230265Y-59616497D01*
X162230262Y-59616507D01*
X162199362Y-59771849D01*
X162166977Y-59833760D01*
X162165426Y-59835338D01*
X161519481Y-60481282D01*
X161519477Y-60481287D01*
X161492270Y-60528414D01*
X161492269Y-60528416D01*
X161440423Y-60618215D01*
X161399499Y-60770943D01*
X161399499Y-60770945D01*
X161399499Y-60939046D01*
X161399500Y-60939059D01*
X161399500Y-64825500D01*
X161379815Y-64892539D01*
X161327011Y-64938294D01*
X161275500Y-64949500D01*
X161171155Y-64949500D01*
X161016510Y-64980261D01*
X161016498Y-64980264D01*
X160870827Y-65040602D01*
X160870814Y-65040609D01*
X160739711Y-65128210D01*
X160739707Y-65128213D01*
X160628213Y-65239707D01*
X160628210Y-65239711D01*
X160540609Y-65370814D01*
X160540602Y-65370827D01*
X160480264Y-65516498D01*
X160480261Y-65516510D01*
X160449500Y-65671153D01*
X160449500Y-65828846D01*
X160480261Y-65983489D01*
X160480263Y-65983497D01*
X160490061Y-66007151D01*
X160499500Y-66054604D01*
X160499500Y-67636661D01*
X160499500Y-67636663D01*
X160499499Y-67636663D01*
X160528340Y-67781650D01*
X160528343Y-67781660D01*
X160566885Y-67874708D01*
X160584916Y-67918238D01*
X160606460Y-67950482D01*
X160617090Y-67966391D01*
X160667049Y-68041161D01*
X163808838Y-71182950D01*
X163808841Y-71182952D01*
X163878391Y-71229423D01*
X163931762Y-71265084D01*
X163931763Y-71265084D01*
X163931767Y-71265087D01*
X163933744Y-71266144D01*
X163934584Y-71266969D01*
X163936827Y-71268468D01*
X163936542Y-71268893D01*
X163983587Y-71315108D01*
X163999045Y-71383246D01*
X163975211Y-71448925D01*
X163919652Y-71491292D01*
X163875287Y-71499500D01*
X154002872Y-71499500D01*
X153997145Y-71499368D01*
X153636695Y-71482703D01*
X153625291Y-71481646D01*
X153270768Y-71432192D01*
X153259509Y-71430087D01*
X152911068Y-71348135D01*
X152900052Y-71345001D01*
X152560644Y-71231243D01*
X152549964Y-71227105D01*
X152449962Y-71182950D01*
X152222511Y-71082520D01*
X152212268Y-71077420D01*
X152110316Y-71020633D01*
X151899546Y-70903235D01*
X151889808Y-70897206D01*
X151594486Y-70694906D01*
X151585346Y-70688003D01*
X151309964Y-70459329D01*
X151301500Y-70451613D01*
X151048386Y-70198499D01*
X151040670Y-70190035D01*
X150934243Y-70061870D01*
X150811994Y-69914650D01*
X150805093Y-69905513D01*
X150756899Y-69835159D01*
X150662998Y-69698080D01*
X150602793Y-69610191D01*
X150596764Y-69600453D01*
X150529580Y-69479835D01*
X150422574Y-69287723D01*
X150417482Y-69277496D01*
X150272889Y-68950022D01*
X150268761Y-68939368D01*
X150154994Y-68599934D01*
X150151867Y-68588944D01*
X150069910Y-68240482D01*
X150067807Y-68229231D01*
X150061686Y-68185354D01*
X150018352Y-67874700D01*
X150017296Y-67863304D01*
X150016270Y-67841117D01*
X150000632Y-67502855D01*
X150000500Y-67497128D01*
X150000500Y-35502871D01*
X150000632Y-35497144D01*
X150010062Y-35293178D01*
X150017296Y-35136686D01*
X150018353Y-35125291D01*
X150028322Y-35053827D01*
X150067808Y-34770757D01*
X150069909Y-34759520D01*
X150151869Y-34411049D01*
X150154992Y-34400070D01*
X150268763Y-34060623D01*
X150272886Y-34049984D01*
X150417486Y-33722494D01*
X150422569Y-33712285D01*
X150596767Y-33399540D01*
X150602793Y-33389808D01*
X150662998Y-33301920D01*
X150805103Y-33094472D01*
X150811986Y-33085359D01*
X151040681Y-32809951D01*
X151048375Y-32801511D01*
X151301511Y-32548375D01*
X151309951Y-32540681D01*
X151585359Y-32311986D01*
X151594472Y-32305103D01*
X151889813Y-32102789D01*
X151899540Y-32096767D01*
X152212285Y-31922569D01*
X152222494Y-31917486D01*
X152549984Y-31772886D01*
X152560623Y-31768763D01*
X152900070Y-31654992D01*
X152911049Y-31651869D01*
X153259520Y-31569909D01*
X153270757Y-31567808D01*
X153625301Y-31518352D01*
X153636686Y-31517296D01*
X153997145Y-31500632D01*
X154002872Y-31500500D01*
X154065892Y-31500500D01*
X185934108Y-31500500D01*
X185997128Y-31500500D01*
X186002855Y-31500632D01*
G37*
G04 #@! TD.AperFunction*
G04 #@! TA.AperFunction,Conductor*
G36*
X181657945Y-57441745D02*
G01*
X181662747Y-57446297D01*
X181925841Y-57709390D01*
X182213181Y-57996730D01*
X182246666Y-58058053D01*
X182249500Y-58084411D01*
X182249500Y-59745396D01*
X182240062Y-59792844D01*
X182230263Y-59816503D01*
X182230262Y-59816506D01*
X182230260Y-59816511D01*
X182199500Y-59971153D01*
X182199500Y-60106762D01*
X182192302Y-60131272D01*
X182189038Y-60156613D01*
X182182622Y-60164240D01*
X182179815Y-60173801D01*
X182160511Y-60190527D01*
X182144063Y-60210083D01*
X182134540Y-60213031D01*
X182127011Y-60219556D01*
X182101727Y-60223191D01*
X182077319Y-60230749D01*
X182067716Y-60228081D01*
X182057853Y-60229500D01*
X182034615Y-60218887D01*
X182009998Y-60212050D01*
X182001383Y-60203711D01*
X181994297Y-60200475D01*
X181982988Y-60189331D01*
X181977212Y-60182859D01*
X181942951Y-60131584D01*
X181838416Y-60027049D01*
X179996071Y-58184703D01*
X179969191Y-58144475D01*
X179959394Y-58120821D01*
X179883948Y-58007908D01*
X179863070Y-57941230D01*
X179881555Y-57873850D01*
X179899365Y-57851340D01*
X180113887Y-57636819D01*
X180140814Y-57622115D01*
X180166633Y-57605523D01*
X180172833Y-57604631D01*
X180175210Y-57603334D01*
X180201568Y-57600500D01*
X180240234Y-57600500D01*
X180307273Y-57620185D01*
X180309125Y-57621398D01*
X180440814Y-57709390D01*
X180440827Y-57709397D01*
X180586498Y-57769735D01*
X180586503Y-57769737D01*
X180741153Y-57800499D01*
X180741156Y-57800500D01*
X180741158Y-57800500D01*
X180898844Y-57800500D01*
X180898845Y-57800499D01*
X181053497Y-57769737D01*
X181199179Y-57709394D01*
X181330289Y-57621789D01*
X181441789Y-57510289D01*
X181471981Y-57465102D01*
X181525592Y-57420299D01*
X181594917Y-57411591D01*
X181657945Y-57441745D01*
G37*
G04 #@! TD.AperFunction*
G04 #@! TA.AperFunction,Conductor*
G36*
X176200781Y-55820185D02*
G01*
X176246536Y-55872989D01*
X176248303Y-55877047D01*
X176289930Y-55977544D01*
X176297399Y-56047014D01*
X176289930Y-56072449D01*
X176230263Y-56216498D01*
X176230260Y-56216510D01*
X176199499Y-56371153D01*
X176199499Y-56528846D01*
X176230260Y-56683489D01*
X176230263Y-56683501D01*
X176289929Y-56827549D01*
X176297398Y-56897018D01*
X176289929Y-56922453D01*
X176230264Y-57066498D01*
X176230261Y-57066510D01*
X176199500Y-57221153D01*
X176199500Y-57378851D01*
X176199564Y-57379170D01*
X176199548Y-57379339D01*
X176200097Y-57384907D01*
X176199040Y-57385011D01*
X176193329Y-57448761D01*
X176150459Y-57503933D01*
X176084567Y-57527170D01*
X176016572Y-57511094D01*
X175990263Y-57491028D01*
X174511416Y-56012181D01*
X174477931Y-55950858D01*
X174482915Y-55881166D01*
X174524787Y-55825233D01*
X174590251Y-55800816D01*
X174599097Y-55800500D01*
X176133742Y-55800500D01*
X176200781Y-55820185D01*
G37*
G04 #@! TD.AperFunction*
G04 #@! TA.AperFunction,Conductor*
G36*
X172425471Y-49930185D02*
G01*
X172446113Y-49946819D01*
X176925197Y-54425903D01*
X176958682Y-54487226D01*
X176953698Y-54556918D01*
X176911826Y-54612851D01*
X176846362Y-54637268D01*
X176805423Y-54633359D01*
X176679058Y-54599499D01*
X176520944Y-54599499D01*
X176513348Y-54599499D01*
X176513332Y-54599500D01*
X173715783Y-54599500D01*
X173648744Y-54579815D01*
X173628102Y-54563181D01*
X172811180Y-53746259D01*
X172777695Y-53684936D01*
X172782679Y-53615244D01*
X172811177Y-53570900D01*
X172871789Y-53510289D01*
X172959394Y-53379179D01*
X173019737Y-53233497D01*
X173050500Y-53078842D01*
X173050500Y-52921158D01*
X173050500Y-52921155D01*
X173050499Y-52921153D01*
X173019739Y-52766511D01*
X173019738Y-52766508D01*
X173019737Y-52766503D01*
X173009937Y-52742844D01*
X173000500Y-52695396D01*
X173000500Y-51426079D01*
X172971659Y-51281092D01*
X172971658Y-51281091D01*
X172971658Y-51281087D01*
X172922486Y-51162375D01*
X172915087Y-51144511D01*
X172915080Y-51144498D01*
X172832952Y-51021585D01*
X172794864Y-50983497D01*
X172728416Y-50917049D01*
X172246072Y-50434705D01*
X172219191Y-50394473D01*
X172209397Y-50370828D01*
X172209396Y-50370826D01*
X172209394Y-50370821D01*
X172166264Y-50306272D01*
X172121789Y-50239710D01*
X172005982Y-50123903D01*
X172007482Y-50122402D01*
X171973563Y-50072600D01*
X171971697Y-50002756D01*
X172007888Y-49942989D01*
X172070646Y-49912277D01*
X172091565Y-49910500D01*
X172358432Y-49910500D01*
X172425471Y-49930185D01*
G37*
G04 #@! TD.AperFunction*
G04 #@! TA.AperFunction,Conductor*
G36*
X170083093Y-47022813D02*
G01*
X170105607Y-47040628D01*
X171562798Y-48497819D01*
X171596283Y-48559142D01*
X171591299Y-48628834D01*
X171549427Y-48684767D01*
X171483963Y-48709184D01*
X171475117Y-48709500D01*
X170172414Y-48709500D01*
X170019688Y-48750422D01*
X170019686Y-48750422D01*
X170019686Y-48750423D01*
X170002598Y-48760289D01*
X170002595Y-48760291D01*
X170002594Y-48760290D01*
X169882758Y-48829477D01*
X169882753Y-48829481D01*
X169419479Y-49292755D01*
X169393648Y-49337499D01*
X169343082Y-49385715D01*
X169286260Y-49399500D01*
X164829766Y-49399500D01*
X164812609Y-49394462D01*
X164794729Y-49394447D01*
X164764711Y-49380397D01*
X164762727Y-49379815D01*
X164762637Y-49379758D01*
X164760387Y-49378309D01*
X164760289Y-49378211D01*
X164629179Y-49290606D01*
X164615147Y-49284794D01*
X164605773Y-49278758D01*
X164589918Y-49260429D01*
X164571047Y-49245222D01*
X164567470Y-49234477D01*
X164560064Y-49225915D01*
X164556635Y-49201924D01*
X164548981Y-49178928D01*
X164551780Y-49167957D01*
X164550179Y-49156748D01*
X164560265Y-49134711D01*
X164566259Y-49111229D01*
X164574546Y-49103512D01*
X164579259Y-49093217D01*
X164599657Y-49080132D01*
X164617395Y-49063617D01*
X164630075Y-49060620D01*
X164638069Y-49055493D01*
X164651723Y-49055504D01*
X164672902Y-49050500D01*
X164828844Y-49050500D01*
X164828845Y-49050499D01*
X164983497Y-49019737D01*
X165129179Y-48959394D01*
X165260289Y-48871789D01*
X165302601Y-48829477D01*
X165371788Y-48760291D01*
X165371789Y-48760289D01*
X165459394Y-48629179D01*
X165460275Y-48627049D01*
X165461035Y-48626106D01*
X165462264Y-48623809D01*
X165462699Y-48624041D01*
X165504115Y-48572646D01*
X165570408Y-48550579D01*
X165574838Y-48550500D01*
X165578844Y-48550500D01*
X165578845Y-48550499D01*
X165733497Y-48519737D01*
X165879179Y-48459394D01*
X165941309Y-48417880D01*
X166010875Y-48371398D01*
X166077553Y-48350520D01*
X166079766Y-48350500D01*
X167413331Y-48350500D01*
X167413347Y-48350501D01*
X167420943Y-48350501D01*
X167579054Y-48350501D01*
X167579057Y-48350501D01*
X167731785Y-48309577D01*
X167781904Y-48280639D01*
X167868716Y-48230520D01*
X167980520Y-48118716D01*
X167980520Y-48118714D01*
X167990728Y-48108507D01*
X167990729Y-48108504D01*
X168264661Y-47834572D01*
X168325983Y-47801089D01*
X168328150Y-47800638D01*
X168386085Y-47789113D01*
X168483497Y-47769737D01*
X168629179Y-47709394D01*
X168760289Y-47621789D01*
X168871789Y-47510289D01*
X168959394Y-47379179D01*
X169019737Y-47233497D01*
X169019737Y-47233496D01*
X169022068Y-47227869D01*
X169024287Y-47228788D01*
X169056740Y-47179224D01*
X169120540Y-47150741D01*
X169184593Y-47159062D01*
X169210364Y-47169737D01*
X169365014Y-47200499D01*
X169365017Y-47200500D01*
X169365019Y-47200500D01*
X169522705Y-47200500D01*
X169522706Y-47200499D01*
X169677358Y-47169737D01*
X169823040Y-47109394D01*
X169840923Y-47097445D01*
X169949035Y-47025207D01*
X170015712Y-47004329D01*
X170083093Y-47022813D01*
G37*
G04 #@! TD.AperFunction*
M02*
