M48
; FORMAT={-:-/ absolute / metric / decimal}
; #@! TF.GenerationSoftware,Kicad,Pcbnew,10.0.3
; #@! TF.FileFunction,MixedPlating,1,2
FMAT,2
METRIC
; #@! TA.AperFunction,Plated,PTH,ComponentDrill
T1C0.500
; #@! TA.AperFunction,Plated,PTH,ComponentDrill
T2C0.900
; #@! TA.AperFunction,Plated,PTH,ComponentDrill
T3C1.000
; #@! TA.AperFunction,Plated,PTH,ComponentDrill
T4C3.200
; #@! TA.AperFunction,NonPlated,NPTH,ComponentDrill
T5C0.500
; #@! TA.AperFunction,NonPlated,NPTH,ComponentDrill
T6C2.000
%
G90
G05
T1
X87.1Y-35.4
X87.1Y-67.4
X87.1Y-78.4
X87.1Y-110.4
X87.1Y-121.4
X87.1Y-153.4
X87.803Y-33.703
X87.803Y-37.097
X87.803Y-65.703
X87.803Y-69.097
X87.803Y-76.703
X87.803Y-80.097
X87.803Y-108.703
X87.803Y-112.097
X87.803Y-119.703
X87.803Y-123.097
X87.803Y-151.703
X87.803Y-155.097
X89.5Y-33.0
X89.5Y-37.8
X89.5Y-65.0
X89.5Y-69.8
X89.5Y-76.0
X89.5Y-80.8
X89.5Y-108.0
X89.5Y-112.8
X89.5Y-119.0
X89.5Y-123.8
X89.5Y-151.0
X89.5Y-155.8
X91.197Y-33.703
X91.197Y-37.097
X91.197Y-65.703
X91.197Y-69.097
X91.197Y-76.703
X91.197Y-80.097
X91.197Y-108.703
X91.197Y-112.097
X91.197Y-119.703
X91.197Y-123.097
X91.197Y-151.703
X91.197Y-155.097
X91.9Y-35.4
X91.9Y-67.4
X91.9Y-78.4
X91.9Y-110.4
X91.9Y-121.4
X91.9Y-153.4
X119.1Y-35.4
X119.1Y-67.4
X119.1Y-78.4
X119.1Y-110.4
X119.1Y-121.4
X119.1Y-153.4
X119.803Y-33.703
X119.803Y-37.097
X119.803Y-65.703
X119.803Y-69.097
X119.803Y-76.703
X119.803Y-80.097
X119.803Y-108.703
X119.803Y-112.097
X119.803Y-119.703
X119.803Y-123.097
X119.803Y-151.703
X119.803Y-155.097
X121.5Y-33.0
X121.5Y-37.8
X121.5Y-65.0
X121.5Y-69.8
X121.5Y-76.0
X121.5Y-80.8
X121.5Y-108.0
X121.5Y-112.8
X121.5Y-119.0
X121.5Y-123.8
X121.5Y-151.0
X121.5Y-155.8
X123.197Y-33.703
X123.197Y-37.097
X123.197Y-65.703
X123.197Y-69.097
X123.197Y-76.703
X123.197Y-80.097
X123.197Y-108.703
X123.197Y-112.097
X123.197Y-119.703
X123.197Y-123.097
X123.197Y-151.703
X123.197Y-155.097
X123.9Y-35.4
X123.9Y-67.4
X123.9Y-78.4
X123.9Y-110.4
X123.9Y-121.4
X123.9Y-153.4
X130.1Y-35.4
X130.1Y-67.4
X130.1Y-78.4
X130.1Y-110.4
X130.1Y-121.4
X130.1Y-153.4
X130.803Y-33.703
X130.803Y-37.097
X130.803Y-65.703
X130.803Y-69.097
X130.803Y-76.703
X130.803Y-80.097
X130.803Y-108.703
X130.803Y-112.097
X130.803Y-119.703
X130.803Y-123.097
X130.803Y-151.703
X130.803Y-155.097
X132.5Y-33.0
X132.5Y-37.8
X132.5Y-65.0
X132.5Y-69.8
X132.5Y-76.0
X132.5Y-80.8
X132.5Y-108.0
X132.5Y-112.8
X132.5Y-119.0
X132.5Y-123.8
X132.5Y-151.0
X132.5Y-155.8
X134.197Y-33.703
X134.197Y-37.097
X134.197Y-65.703
X134.197Y-69.097
X134.197Y-76.703
X134.197Y-80.097
X134.197Y-108.703
X134.197Y-112.097
X134.197Y-119.703
X134.197Y-123.097
X134.197Y-151.703
X134.197Y-155.097
X134.9Y-35.4
X134.9Y-67.4
X134.9Y-78.4
X134.9Y-110.4
X134.9Y-121.4
X134.9Y-153.4
X162.1Y-35.4
X162.1Y-67.4
X162.1Y-78.4
X162.1Y-110.4
X162.1Y-121.4
X162.1Y-153.4
X162.803Y-33.703
X162.803Y-37.097
X162.803Y-65.703
X162.803Y-69.097
X162.803Y-76.703
X162.803Y-80.097
X162.803Y-108.703
X162.803Y-112.097
X162.803Y-119.703
X162.803Y-123.097
X162.803Y-151.703
X162.803Y-155.097
X164.5Y-33.0
X164.5Y-37.8
X164.5Y-65.0
X164.5Y-69.8
X164.5Y-76.0
X164.5Y-80.8
X164.5Y-108.0
X164.5Y-112.8
X164.5Y-119.0
X164.5Y-123.8
X164.5Y-151.0
X164.5Y-155.8
X166.197Y-33.703
X166.197Y-37.097
X166.197Y-65.703
X166.197Y-69.097
X166.197Y-76.703
X166.197Y-80.097
X166.197Y-108.703
X166.197Y-112.097
X166.197Y-119.703
X166.197Y-123.097
X166.197Y-151.703
X166.197Y-155.097
X166.9Y-35.4
X166.9Y-67.4
X166.9Y-78.4
X166.9Y-110.4
X166.9Y-121.4
X166.9Y-153.4
X173.1Y-35.4
X173.1Y-67.4
X173.1Y-78.4
X173.1Y-110.4
X173.1Y-121.4
X173.1Y-153.4
X173.803Y-33.703
X173.803Y-37.097
X173.803Y-65.703
X173.803Y-69.097
X173.803Y-76.703
X173.803Y-80.097
X173.803Y-108.703
X173.803Y-112.097
X173.803Y-119.703
X173.803Y-123.097
X173.803Y-151.703
X173.803Y-155.097
X175.5Y-33.0
X175.5Y-37.8
X175.5Y-65.0
X175.5Y-69.8
X175.5Y-76.0
X175.5Y-80.8
X175.5Y-108.0
X175.5Y-112.8
X175.5Y-119.0
X175.5Y-123.8
X175.5Y-151.0
X175.5Y-155.8
X177.197Y-33.703
X177.197Y-37.097
X177.197Y-65.703
X177.197Y-69.097
X177.197Y-76.703
X177.197Y-80.097
X177.197Y-108.703
X177.197Y-112.097
X177.197Y-119.703
X177.197Y-123.097
X177.197Y-151.703
X177.197Y-155.097
X177.9Y-35.4
X177.9Y-67.4
X177.9Y-78.4
X177.9Y-110.4
X177.9Y-121.4
X177.9Y-153.4
X205.1Y-35.4
X205.1Y-67.4
X205.1Y-78.4
X205.1Y-110.4
X205.1Y-121.4
X205.1Y-153.4
X205.803Y-33.703
X205.803Y-37.097
X205.803Y-65.703
X205.803Y-69.097
X205.803Y-76.703
X205.803Y-80.097
X205.803Y-108.703
X205.803Y-112.097
X205.803Y-119.703
X205.803Y-123.097
X205.803Y-151.703
X205.803Y-155.097
X207.5Y-33.0
X207.5Y-37.8
X207.5Y-65.0
X207.5Y-69.8
X207.5Y-76.0
X207.5Y-80.8
X207.5Y-108.0
X207.5Y-112.8
X207.5Y-119.0
X207.5Y-123.8
X207.5Y-151.0
X207.5Y-155.8
X209.197Y-33.703
X209.197Y-37.097
X209.197Y-65.703
X209.197Y-69.097
X209.197Y-76.703
X209.197Y-80.097
X209.197Y-108.703
X209.197Y-112.097
X209.197Y-119.703
X209.197Y-123.097
X209.197Y-151.703
X209.197Y-155.097
X209.9Y-35.4
X209.9Y-67.4
X209.9Y-78.4
X209.9Y-110.4
X209.9Y-121.4
X209.9Y-153.4
T2
X97.89Y-44.819
X97.89Y-47.359
X97.89Y-49.899
X97.89Y-52.439
X97.89Y-54.979
X97.89Y-57.519
X97.89Y-60.059
X97.89Y-62.599
X97.89Y-65.139
X97.89Y-87.819
X97.89Y-90.359
X97.89Y-92.899
X97.89Y-95.439
X97.89Y-97.979
X97.89Y-100.519
X97.89Y-103.059
X97.89Y-105.599
X97.89Y-108.139
X97.89Y-130.819
X97.89Y-133.359
X97.89Y-135.899
X97.89Y-138.439
X97.89Y-140.979
X97.89Y-143.519
X97.89Y-146.059
X97.89Y-148.599
X97.89Y-151.139
X113.12Y-44.819
X113.12Y-47.359
X113.12Y-49.899
X113.12Y-52.439
X113.12Y-54.979
X113.12Y-57.519
X113.12Y-60.059
X113.12Y-62.599
X113.12Y-65.139
X113.12Y-87.819
X113.12Y-90.359
X113.12Y-92.899
X113.12Y-95.439
X113.12Y-97.979
X113.12Y-100.519
X113.12Y-103.059
X113.12Y-105.599
X113.12Y-108.139
X113.12Y-130.819
X113.12Y-133.359
X113.12Y-135.899
X113.12Y-138.439
X113.12Y-140.979
X113.12Y-143.519
X113.12Y-146.059
X113.12Y-148.599
X113.12Y-151.139
X140.89Y-44.819
X140.89Y-47.359
X140.89Y-49.899
X140.89Y-52.439
X140.89Y-54.979
X140.89Y-57.519
X140.89Y-60.059
X140.89Y-62.599
X140.89Y-65.139
X140.89Y-87.819
X140.89Y-90.359
X140.89Y-92.899
X140.89Y-95.439
X140.89Y-97.979
X140.89Y-100.519
X140.89Y-103.059
X140.89Y-105.599
X140.89Y-108.139
X140.89Y-130.819
X140.89Y-133.359
X140.89Y-135.899
X140.89Y-138.439
X140.89Y-140.979
X140.89Y-143.519
X140.89Y-146.059
X140.89Y-148.599
X140.89Y-151.139
X156.12Y-44.819
X156.12Y-47.359
X156.12Y-49.899
X156.12Y-52.439
X156.12Y-54.979
X156.12Y-57.519
X156.12Y-60.059
X156.12Y-62.599
X156.12Y-65.139
X156.12Y-87.819
X156.12Y-90.359
X156.12Y-92.899
X156.12Y-95.439
X156.12Y-97.979
X156.12Y-100.519
X156.12Y-103.059
X156.12Y-105.599
X156.12Y-108.139
X156.12Y-130.819
X156.12Y-133.359
X156.12Y-135.899
X156.12Y-138.439
X156.12Y-140.979
X156.12Y-143.519
X156.12Y-146.059
X156.12Y-148.599
X156.12Y-151.139
X183.89Y-44.819
X183.89Y-47.359
X183.89Y-49.899
X183.89Y-52.439
X183.89Y-54.979
X183.89Y-57.519
X183.89Y-60.059
X183.89Y-62.599
X183.89Y-65.139
X183.89Y-87.819
X183.89Y-90.359
X183.89Y-92.899
X183.89Y-95.439
X183.89Y-97.979
X183.89Y-100.519
X183.89Y-103.059
X183.89Y-105.599
X183.89Y-108.139
X183.89Y-130.819
X183.89Y-133.359
X183.89Y-135.899
X183.89Y-138.439
X183.89Y-140.979
X183.89Y-143.519
X183.89Y-146.059
X183.89Y-148.599
X183.89Y-151.139
X199.12Y-44.819
X199.12Y-47.359
X199.12Y-49.899
X199.12Y-52.439
X199.12Y-54.979
X199.12Y-57.519
X199.12Y-60.059
X199.12Y-62.599
X199.12Y-65.139
X199.12Y-87.819
X199.12Y-90.359
X199.12Y-92.899
X199.12Y-95.439
X199.12Y-97.979
X199.12Y-100.519
X199.12Y-103.059
X199.12Y-105.599
X199.12Y-108.139
X199.12Y-130.819
X199.12Y-133.359
X199.12Y-135.899
X199.12Y-138.439
X199.12Y-140.979
X199.12Y-143.519
X199.12Y-146.059
X199.12Y-148.599
X199.12Y-151.139
T3
X97.76Y-40.529
X97.76Y-83.529
X97.76Y-126.529
X100.3Y-40.529
X100.3Y-83.529
X100.3Y-126.529
X102.84Y-40.529
X102.84Y-83.529
X102.84Y-126.529
X105.38Y-40.529
X105.38Y-83.529
X105.38Y-126.529
X107.92Y-40.529
X107.92Y-83.529
X107.92Y-126.529
X110.46Y-40.529
X110.46Y-83.529
X110.46Y-126.529
X113.0Y-40.529
X113.0Y-83.529
X113.0Y-126.529
X140.76Y-40.529
X140.76Y-83.529
X140.76Y-126.529
X143.3Y-40.529
X143.3Y-83.529
X143.3Y-126.529
X145.84Y-40.529
X145.84Y-83.529
X145.84Y-126.529
X148.38Y-40.529
X148.38Y-83.529
X148.38Y-126.529
X150.92Y-40.529
X150.92Y-83.529
X150.92Y-126.529
X153.46Y-40.529
X153.46Y-83.529
X153.46Y-126.529
X156.0Y-40.529
X156.0Y-83.529
X156.0Y-126.529
X183.76Y-40.529
X183.76Y-83.529
X183.76Y-126.529
X186.3Y-40.529
X186.3Y-83.529
X186.3Y-126.529
X188.84Y-40.529
X188.84Y-83.529
X188.84Y-126.529
X191.38Y-40.529
X191.38Y-83.529
X191.38Y-126.529
X193.92Y-40.529
X193.92Y-83.529
X193.92Y-126.529
X196.46Y-40.529
X196.46Y-83.529
X196.46Y-126.529
X199.0Y-40.529
X199.0Y-83.529
X199.0Y-126.529
T4
X89.5Y-35.4
X89.5Y-67.4
X89.5Y-78.4
X89.5Y-110.4
X89.5Y-121.4
X89.5Y-153.4
X121.5Y-35.4
X121.5Y-67.4
X121.5Y-78.4
X121.5Y-110.4
X121.5Y-121.4
X121.5Y-153.4
X132.5Y-35.4
X132.5Y-67.4
X132.5Y-78.4
X132.5Y-110.4
X132.5Y-121.4
X132.5Y-153.4
X164.5Y-35.4
X164.5Y-67.4
X164.5Y-78.4
X164.5Y-110.4
X164.5Y-121.4
X164.5Y-153.4
X175.5Y-35.4
X175.5Y-67.4
X175.5Y-78.4
X175.5Y-110.4
X175.5Y-121.4
X175.5Y-153.4
X207.5Y-35.4
X207.5Y-67.4
X207.5Y-78.4
X207.5Y-110.4
X207.5Y-121.4
X207.5Y-153.4
T5
X103.5Y-31.0
X103.5Y-72.0
X103.5Y-74.0
X103.5Y-115.0
X103.5Y-117.0
X103.5Y-158.0
X104.3Y-31.0
X104.3Y-72.0
X104.3Y-74.0
X104.3Y-115.0
X104.3Y-117.0
X104.3Y-158.0
X105.1Y-31.0
X105.1Y-72.0
X105.1Y-74.0
X105.1Y-115.0
X105.1Y-117.0
X105.1Y-158.0
X105.9Y-31.0
X105.9Y-72.0
X105.9Y-74.0
X105.9Y-115.0
X105.9Y-117.0
X105.9Y-158.0
X106.7Y-31.0
X106.7Y-72.0
X106.7Y-74.0
X106.7Y-115.0
X106.7Y-117.0
X106.7Y-158.0
X107.5Y-31.0
X107.5Y-72.0
X107.5Y-74.0
X107.5Y-115.0
X107.5Y-117.0
X107.5Y-158.0
X126.0Y-49.5
X126.0Y-50.3
X126.0Y-51.1
X126.0Y-51.9
X126.0Y-52.7
X126.0Y-53.5
X126.0Y-92.5
X126.0Y-93.3
X126.0Y-94.1
X126.0Y-94.9
X126.0Y-95.7
X126.0Y-96.5
X126.0Y-135.5
X126.0Y-136.3
X126.0Y-137.1
X126.0Y-137.9
X126.0Y-138.7
X126.0Y-139.5
X128.0Y-49.5
X128.0Y-50.3
X128.0Y-51.1
X128.0Y-51.9
X128.0Y-52.7
X128.0Y-53.5
X128.0Y-92.5
X128.0Y-93.3
X128.0Y-94.1
X128.0Y-94.9
X128.0Y-95.7
X128.0Y-96.5
X128.0Y-135.5
X128.0Y-136.3
X128.0Y-137.1
X128.0Y-137.9
X128.0Y-138.7
X128.0Y-139.5
X146.5Y-31.0
X146.5Y-72.0
X146.5Y-74.0
X146.5Y-115.0
X146.5Y-117.0
X146.5Y-158.0
X147.3Y-31.0
X147.3Y-72.0
X147.3Y-74.0
X147.3Y-115.0
X147.3Y-117.0
X147.3Y-158.0
X148.1Y-31.0
X148.1Y-72.0
X148.1Y-74.0
X148.1Y-115.0
X148.1Y-117.0
X148.1Y-158.0
X148.9Y-31.0
X148.9Y-72.0
X148.9Y-74.0
X148.9Y-115.0
X148.9Y-117.0
X148.9Y-158.0
X149.7Y-31.0
X149.7Y-72.0
X149.7Y-74.0
X149.7Y-115.0
X149.7Y-117.0
X149.7Y-158.0
X150.5Y-31.0
X150.5Y-72.0
X150.5Y-74.0
X150.5Y-115.0
X150.5Y-117.0
X150.5Y-158.0
X169.0Y-49.5
X169.0Y-50.3
X169.0Y-51.1
X169.0Y-51.9
X169.0Y-52.7
X169.0Y-53.5
X169.0Y-92.5
X169.0Y-93.3
X169.0Y-94.1
X169.0Y-94.9
X169.0Y-95.7
X169.0Y-96.5
X169.0Y-135.5
X169.0Y-136.3
X169.0Y-137.1
X169.0Y-137.9
X169.0Y-138.7
X169.0Y-139.5
X171.0Y-49.5
X171.0Y-50.3
X171.0Y-51.1
X171.0Y-51.9
X171.0Y-52.7
X171.0Y-53.5
X171.0Y-92.5
X171.0Y-93.3
X171.0Y-94.1
X171.0Y-94.9
X171.0Y-95.7
X171.0Y-96.5
X171.0Y-135.5
X171.0Y-136.3
X171.0Y-137.1
X171.0Y-137.9
X171.0Y-138.7
X171.0Y-139.5
X189.5Y-31.0
X189.5Y-72.0
X189.5Y-74.0
X189.5Y-115.0
X189.5Y-117.0
X189.5Y-158.0
X190.3Y-31.0
X190.3Y-72.0
X190.3Y-74.0
X190.3Y-115.0
X190.3Y-117.0
X190.3Y-158.0
X191.1Y-31.0
X191.1Y-72.0
X191.1Y-74.0
X191.1Y-115.0
X191.1Y-117.0
X191.1Y-158.0
X191.9Y-31.0
X191.9Y-72.0
X191.9Y-74.0
X191.9Y-115.0
X191.9Y-117.0
X191.9Y-158.0
X192.7Y-31.0
X192.7Y-72.0
X192.7Y-74.0
X192.7Y-115.0
X192.7Y-117.0
X192.7Y-158.0
X193.5Y-31.0
X193.5Y-72.0
X193.5Y-74.0
X193.5Y-115.0
X193.5Y-117.0
X193.5Y-158.0
T6
X87.5Y-22.5
X87.5Y-166.5
X209.5Y-22.5
M30
