G04 #@! TF.GenerationSoftware,KiCad,Pcbnew,10.0.3*
G04 #@! TF.ProjectId,Speakeasy_panel_3x3,53706561-6b65-4617-9379-5f70616e656c,rev?*
G04 #@! TF.SameCoordinates,Original*
G04 #@! TF.FileFunction,Other,User*
%FSLAX46Y46*%
G04 Gerber Fmt 4.6, Leading zero omitted, Abs format (unit mm)*
%MOMM*%
%LPD*%
G01*
G04 APERTURE LIST*
%ADD10C,0.050000*%
G04 APERTURE END LIST*
D10*
X178950000Y-35400000D02*
G75*
G02*
X172050000Y-35400000I-3450000J0D01*
G01*
X172050000Y-35400000D02*
G75*
G02*
X178950000Y-35400000I3450000J0D01*
G01*
X167950000Y-67400000D02*
G75*
G02*
X161050000Y-67400000I-3450000J0D01*
G01*
X161050000Y-67400000D02*
G75*
G02*
X167950000Y-67400000I3450000J0D01*
G01*
X167950000Y-78400000D02*
G75*
G02*
X161050000Y-78400000I-3450000J0D01*
G01*
X161050000Y-78400000D02*
G75*
G02*
X167950000Y-78400000I3450000J0D01*
G01*
X167950000Y-121400000D02*
G75*
G02*
X161050000Y-121400000I-3450000J0D01*
G01*
X161050000Y-121400000D02*
G75*
G02*
X167950000Y-121400000I3450000J0D01*
G01*
X135950000Y-121400000D02*
G75*
G02*
X129050000Y-121400000I-3450000J0D01*
G01*
X129050000Y-121400000D02*
G75*
G02*
X135950000Y-121400000I3450000J0D01*
G01*
X210950000Y-67400000D02*
G75*
G02*
X204050000Y-67400000I-3450000J0D01*
G01*
X204050000Y-67400000D02*
G75*
G02*
X210950000Y-67400000I3450000J0D01*
G01*
X178950000Y-153400000D02*
G75*
G02*
X172050000Y-153400000I-3450000J0D01*
G01*
X172050000Y-153400000D02*
G75*
G02*
X178950000Y-153400000I3450000J0D01*
G01*
X135950000Y-78400000D02*
G75*
G02*
X129050000Y-78400000I-3450000J0D01*
G01*
X129050000Y-78400000D02*
G75*
G02*
X135950000Y-78400000I3450000J0D01*
G01*
X91100000Y-165500000D02*
G75*
G02*
X88900000Y-165500000I-1100000J0D01*
G01*
X88900000Y-165500000D02*
G75*
G02*
X91100000Y-165500000I1100000J0D01*
G01*
X178950000Y-110400000D02*
G75*
G02*
X172050000Y-110400000I-3450000J0D01*
G01*
X172050000Y-110400000D02*
G75*
G02*
X178950000Y-110400000I3450000J0D01*
G01*
X135950000Y-67400000D02*
G75*
G02*
X129050000Y-67400000I-3450000J0D01*
G01*
X129050000Y-67400000D02*
G75*
G02*
X135950000Y-67400000I3450000J0D01*
G01*
X178950000Y-121400000D02*
G75*
G02*
X172050000Y-121400000I-3450000J0D01*
G01*
X172050000Y-121400000D02*
G75*
G02*
X178950000Y-121400000I3450000J0D01*
G01*
X210950000Y-121400000D02*
G75*
G02*
X204050000Y-121400000I-3450000J0D01*
G01*
X204050000Y-121400000D02*
G75*
G02*
X210950000Y-121400000I3450000J0D01*
G01*
X124950000Y-35400000D02*
G75*
G02*
X118050000Y-35400000I-3450000J0D01*
G01*
X118050000Y-35400000D02*
G75*
G02*
X124950000Y-35400000I3450000J0D01*
G01*
X210950000Y-78400000D02*
G75*
G02*
X204050000Y-78400000I-3450000J0D01*
G01*
X204050000Y-78400000D02*
G75*
G02*
X210950000Y-78400000I3450000J0D01*
G01*
X124950000Y-78400000D02*
G75*
G02*
X118050000Y-78400000I-3450000J0D01*
G01*
X118050000Y-78400000D02*
G75*
G02*
X124950000Y-78400000I3450000J0D01*
G01*
X124950000Y-153400000D02*
G75*
G02*
X118050000Y-153400000I-3450000J0D01*
G01*
X118050000Y-153400000D02*
G75*
G02*
X124950000Y-153400000I3450000J0D01*
G01*
X124950000Y-110400000D02*
G75*
G02*
X118050000Y-110400000I-3450000J0D01*
G01*
X118050000Y-110400000D02*
G75*
G02*
X124950000Y-110400000I3450000J0D01*
G01*
X135950000Y-35400000D02*
G75*
G02*
X129050000Y-35400000I-3450000J0D01*
G01*
X129050000Y-35400000D02*
G75*
G02*
X135950000Y-35400000I3450000J0D01*
G01*
X208100000Y-23500000D02*
G75*
G02*
X205900000Y-23500000I-1100000J0D01*
G01*
X205900000Y-23500000D02*
G75*
G02*
X208100000Y-23500000I1100000J0D01*
G01*
X210950000Y-110400000D02*
G75*
G02*
X204050000Y-110400000I-3450000J0D01*
G01*
X204050000Y-110400000D02*
G75*
G02*
X210950000Y-110400000I3450000J0D01*
G01*
X167950000Y-35400000D02*
G75*
G02*
X161050000Y-35400000I-3450000J0D01*
G01*
X161050000Y-35400000D02*
G75*
G02*
X167950000Y-35400000I3450000J0D01*
G01*
X92950000Y-67400000D02*
G75*
G02*
X86050000Y-67400000I-3450000J0D01*
G01*
X86050000Y-67400000D02*
G75*
G02*
X92950000Y-67400000I3450000J0D01*
G01*
X91100000Y-23500000D02*
G75*
G02*
X88900000Y-23500000I-1100000J0D01*
G01*
X88900000Y-23500000D02*
G75*
G02*
X91100000Y-23500000I1100000J0D01*
G01*
X92950000Y-35400000D02*
G75*
G02*
X86050000Y-35400000I-3450000J0D01*
G01*
X86050000Y-35400000D02*
G75*
G02*
X92950000Y-35400000I3450000J0D01*
G01*
X210950000Y-35400000D02*
G75*
G02*
X204050000Y-35400000I-3450000J0D01*
G01*
X204050000Y-35400000D02*
G75*
G02*
X210950000Y-35400000I3450000J0D01*
G01*
X178950000Y-67400000D02*
G75*
G02*
X172050000Y-67400000I-3450000J0D01*
G01*
X172050000Y-67400000D02*
G75*
G02*
X178950000Y-67400000I3450000J0D01*
G01*
X92950000Y-153400000D02*
G75*
G02*
X86050000Y-153400000I-3450000J0D01*
G01*
X86050000Y-153400000D02*
G75*
G02*
X92950000Y-153400000I3450000J0D01*
G01*
X178950000Y-78400000D02*
G75*
G02*
X172050000Y-78400000I-3450000J0D01*
G01*
X172050000Y-78400000D02*
G75*
G02*
X178950000Y-78400000I3450000J0D01*
G01*
X135950000Y-110400000D02*
G75*
G02*
X129050000Y-110400000I-3450000J0D01*
G01*
X129050000Y-110400000D02*
G75*
G02*
X135950000Y-110400000I3450000J0D01*
G01*
X92950000Y-78400000D02*
G75*
G02*
X86050000Y-78400000I-3450000J0D01*
G01*
X86050000Y-78400000D02*
G75*
G02*
X92950000Y-78400000I3450000J0D01*
G01*
X92950000Y-121400000D02*
G75*
G02*
X86050000Y-121400000I-3450000J0D01*
G01*
X86050000Y-121400000D02*
G75*
G02*
X92950000Y-121400000I3450000J0D01*
G01*
X92950000Y-110400000D02*
G75*
G02*
X86050000Y-110400000I-3450000J0D01*
G01*
X86050000Y-110400000D02*
G75*
G02*
X92950000Y-110400000I3450000J0D01*
G01*
X167950000Y-110400000D02*
G75*
G02*
X161050000Y-110400000I-3450000J0D01*
G01*
X161050000Y-110400000D02*
G75*
G02*
X167950000Y-110400000I3450000J0D01*
G01*
X135950000Y-153400000D02*
G75*
G02*
X129050000Y-153400000I-3450000J0D01*
G01*
X129050000Y-153400000D02*
G75*
G02*
X135950000Y-153400000I3450000J0D01*
G01*
X124950000Y-121400000D02*
G75*
G02*
X118050000Y-121400000I-3450000J0D01*
G01*
X118050000Y-121400000D02*
G75*
G02*
X124950000Y-121400000I3450000J0D01*
G01*
X167950000Y-153400000D02*
G75*
G02*
X161050000Y-153400000I-3450000J0D01*
G01*
X161050000Y-153400000D02*
G75*
G02*
X167950000Y-153400000I3450000J0D01*
G01*
X210950000Y-153400000D02*
G75*
G02*
X204050000Y-153400000I-3450000J0D01*
G01*
X204050000Y-153400000D02*
G75*
G02*
X210950000Y-153400000I3450000J0D01*
G01*
X124950000Y-67400000D02*
G75*
G02*
X118050000Y-67400000I-3450000J0D01*
G01*
X118050000Y-67400000D02*
G75*
G02*
X124950000Y-67400000I3450000J0D01*
G01*
M02*
