G04 #@! TF.GenerationSoftware,KiCad,Pcbnew,10.0.3*
G04 #@! TF.ProjectId,Speakeasy,53706561-6b65-4617-9379-2e6b69636164,rev?*
G04 #@! TF.SameCoordinates,Original*
G04 #@! TF.FileFunction,Legend,Bot*
G04 #@! TF.FilePolarity,Positive*
%FSLAX46Y46*%
G04 Gerber Fmt 4.6, Leading zero omitted, Abs format (unit mm)*
%MOMM*%
%LPD*%
G01*
G04 APERTURE LIST*
%ADD10C,0.100000*%
%ADD11C,0.150000*%
%ADD12C,0.120000*%
G04 APERTURE END LIST*
D10*
X155000000Y-80250000D02*
X163000000Y-80250000D01*
X163000000Y-82250000D01*
X155000000Y-82250000D01*
X155000000Y-80250000D01*
G36*
X155000000Y-80250000D02*
G01*
X163000000Y-80250000D01*
X163000000Y-82250000D01*
X155000000Y-82250000D01*
X155000000Y-80250000D01*
G37*
X156750000Y-82500000D02*
X161750000Y-82500000D01*
X161750000Y-87500000D01*
X156750000Y-87500000D01*
X156750000Y-82500000D01*
G36*
X156750000Y-82500000D02*
G01*
X161750000Y-82500000D01*
X161750000Y-87500000D01*
X156750000Y-87500000D01*
X156750000Y-82500000D01*
G37*
D11*
X146052819Y-116238095D02*
X146052819Y-116809523D01*
X147052819Y-116523809D02*
X146052819Y-116523809D01*
X147052819Y-117142857D02*
X146052819Y-117142857D01*
X146052819Y-117142857D02*
X146052819Y-117523809D01*
X146052819Y-117523809D02*
X146100438Y-117619047D01*
X146100438Y-117619047D02*
X146148057Y-117666666D01*
X146148057Y-117666666D02*
X146243295Y-117714285D01*
X146243295Y-117714285D02*
X146386152Y-117714285D01*
X146386152Y-117714285D02*
X146481390Y-117666666D01*
X146481390Y-117666666D02*
X146529009Y-117619047D01*
X146529009Y-117619047D02*
X146576628Y-117523809D01*
X146576628Y-117523809D02*
X146576628Y-117142857D01*
X146386152Y-118571428D02*
X147052819Y-118571428D01*
X146005200Y-118333333D02*
X146719485Y-118095238D01*
X146719485Y-118095238D02*
X146719485Y-118714285D01*
X153152819Y-116238095D02*
X153152819Y-116809523D01*
X154152819Y-116523809D02*
X153152819Y-116523809D01*
X154152819Y-117142857D02*
X153152819Y-117142857D01*
X153152819Y-117142857D02*
X153152819Y-117523809D01*
X153152819Y-117523809D02*
X153200438Y-117619047D01*
X153200438Y-117619047D02*
X153248057Y-117666666D01*
X153248057Y-117666666D02*
X153343295Y-117714285D01*
X153343295Y-117714285D02*
X153486152Y-117714285D01*
X153486152Y-117714285D02*
X153581390Y-117666666D01*
X153581390Y-117666666D02*
X153629009Y-117619047D01*
X153629009Y-117619047D02*
X153676628Y-117523809D01*
X153676628Y-117523809D02*
X153676628Y-117142857D01*
X153248057Y-118095238D02*
X153200438Y-118142857D01*
X153200438Y-118142857D02*
X153152819Y-118238095D01*
X153152819Y-118238095D02*
X153152819Y-118476190D01*
X153152819Y-118476190D02*
X153200438Y-118571428D01*
X153200438Y-118571428D02*
X153248057Y-118619047D01*
X153248057Y-118619047D02*
X153343295Y-118666666D01*
X153343295Y-118666666D02*
X153438533Y-118666666D01*
X153438533Y-118666666D02*
X153581390Y-118619047D01*
X153581390Y-118619047D02*
X154152819Y-118047619D01*
X154152819Y-118047619D02*
X154152819Y-118666666D01*
X156702819Y-116238095D02*
X156702819Y-116809523D01*
X157702819Y-116523809D02*
X156702819Y-116523809D01*
X157702819Y-117142857D02*
X156702819Y-117142857D01*
X156702819Y-117142857D02*
X156702819Y-117523809D01*
X156702819Y-117523809D02*
X156750438Y-117619047D01*
X156750438Y-117619047D02*
X156798057Y-117666666D01*
X156798057Y-117666666D02*
X156893295Y-117714285D01*
X156893295Y-117714285D02*
X157036152Y-117714285D01*
X157036152Y-117714285D02*
X157131390Y-117666666D01*
X157131390Y-117666666D02*
X157179009Y-117619047D01*
X157179009Y-117619047D02*
X157226628Y-117523809D01*
X157226628Y-117523809D02*
X157226628Y-117142857D01*
X157702819Y-118666666D02*
X157702819Y-118095238D01*
X157702819Y-118380952D02*
X156702819Y-118380952D01*
X156702819Y-118380952D02*
X156845676Y-118285714D01*
X156845676Y-118285714D02*
X156940914Y-118190476D01*
X156940914Y-118190476D02*
X156988533Y-118095238D01*
X149602819Y-116238095D02*
X149602819Y-116809523D01*
X150602819Y-116523809D02*
X149602819Y-116523809D01*
X150602819Y-117142857D02*
X149602819Y-117142857D01*
X149602819Y-117142857D02*
X149602819Y-117523809D01*
X149602819Y-117523809D02*
X149650438Y-117619047D01*
X149650438Y-117619047D02*
X149698057Y-117666666D01*
X149698057Y-117666666D02*
X149793295Y-117714285D01*
X149793295Y-117714285D02*
X149936152Y-117714285D01*
X149936152Y-117714285D02*
X150031390Y-117666666D01*
X150031390Y-117666666D02*
X150079009Y-117619047D01*
X150079009Y-117619047D02*
X150126628Y-117523809D01*
X150126628Y-117523809D02*
X150126628Y-117142857D01*
X149602819Y-118047619D02*
X149602819Y-118666666D01*
X149602819Y-118666666D02*
X149983771Y-118333333D01*
X149983771Y-118333333D02*
X149983771Y-118476190D01*
X149983771Y-118476190D02*
X150031390Y-118571428D01*
X150031390Y-118571428D02*
X150079009Y-118619047D01*
X150079009Y-118619047D02*
X150174247Y-118666666D01*
X150174247Y-118666666D02*
X150412342Y-118666666D01*
X150412342Y-118666666D02*
X150507580Y-118619047D01*
X150507580Y-118619047D02*
X150555200Y-118571428D01*
X150555200Y-118571428D02*
X150602819Y-118476190D01*
X150602819Y-118476190D02*
X150602819Y-118190476D01*
X150602819Y-118190476D02*
X150555200Y-118095238D01*
X150555200Y-118095238D02*
X150507580Y-118047619D01*
D12*
X145900000Y-117500000D02*
G75*
G02*
X144000000Y-117500000I-950000J0D01*
G01*
X144000000Y-117500000D02*
G75*
G02*
X145900000Y-117500000I950000J0D01*
G01*
X153000000Y-117500000D02*
G75*
G02*
X151100000Y-117500000I-950000J0D01*
G01*
X151100000Y-117500000D02*
G75*
G02*
X153000000Y-117500000I950000J0D01*
G01*
X156550000Y-117500000D02*
G75*
G02*
X154650000Y-117500000I-950000J0D01*
G01*
X154650000Y-117500000D02*
G75*
G02*
X156550000Y-117500000I950000J0D01*
G01*
X149450000Y-117500000D02*
G75*
G02*
X147550000Y-117500000I-950000J0D01*
G01*
X147550000Y-117500000D02*
G75*
G02*
X149450000Y-117500000I950000J0D01*
G01*
M02*
