G04 #@! TF.GenerationSoftware,KiCad,Pcbnew,10.0.3*
G04 #@! TF.ProjectId,Speakeasy,53706561-6b65-4617-9379-2e6b69636164,rev?*
G04 #@! TF.SameCoordinates,Original*
G04 #@! TF.FileFunction,Legend,Top*
G04 #@! TF.FilePolarity,Positive*
%FSLAX46Y46*%
G04 Gerber Fmt 4.6, Leading zero omitted, Abs format (unit mm)*
%MOMM*%
%LPD*%
G01*
G04 APERTURE LIST*
%ADD10C,0.100000*%
%ADD11C,0.050000*%
%ADD12C,0.150000*%
%ADD13C,0.250000*%
%ADD14C,0.060000*%
%ADD15C,0.200000*%
%ADD16C,0.000000*%
G04 APERTURE END LIST*
D10*
X153000000Y-89000000D02*
G75*
G02*
X141000000Y-89000000I-6000000J0D01*
G01*
X141000000Y-89000000D02*
G75*
G02*
X153000000Y-89000000I6000000J0D01*
G01*
D11*
X167500000Y-100000000D02*
G75*
G02*
X132500000Y-100000000I-17500000J0D01*
G01*
X132500000Y-100000000D02*
G75*
G02*
X167500000Y-100000000I17500000J0D01*
G01*
D10*
X167300000Y-98750000D02*
G75*
G02*
X157700000Y-98750000I-4800000J0D01*
G01*
X157700000Y-98750000D02*
G75*
G02*
X167300000Y-98750000I4800000J0D01*
G01*
D12*
X151732229Y-96006087D02*
X151292471Y-96568952D01*
X151292471Y-96568952D02*
X151166995Y-96652208D01*
X151166995Y-96652208D02*
X151033312Y-96668622D01*
X151033312Y-96668622D02*
X150891422Y-96618195D01*
X150891422Y-96618195D02*
X150816373Y-96559561D01*
X152011314Y-96344991D02*
X152078155Y-96336784D01*
X152078155Y-96336784D02*
X152182521Y-96357894D01*
X152182521Y-96357894D02*
X152370143Y-96504480D01*
X152370143Y-96504480D02*
X152415874Y-96600639D01*
X152415874Y-96600639D02*
X152424081Y-96667481D01*
X152424081Y-96667481D02*
X152402971Y-96771846D01*
X152402971Y-96771846D02*
X152344337Y-96846895D01*
X152344337Y-96846895D02*
X152218861Y-96930151D01*
X152218861Y-96930151D02*
X151416762Y-97028636D01*
X151416762Y-97028636D02*
X151904579Y-97409760D01*
X167359580Y-109416666D02*
X167407200Y-109464285D01*
X167407200Y-109464285D02*
X167454819Y-109607142D01*
X167454819Y-109607142D02*
X167454819Y-109702380D01*
X167454819Y-109702380D02*
X167407200Y-109845237D01*
X167407200Y-109845237D02*
X167311961Y-109940475D01*
X167311961Y-109940475D02*
X167216723Y-109988094D01*
X167216723Y-109988094D02*
X167026247Y-110035713D01*
X167026247Y-110035713D02*
X166883390Y-110035713D01*
X166883390Y-110035713D02*
X166692914Y-109988094D01*
X166692914Y-109988094D02*
X166597676Y-109940475D01*
X166597676Y-109940475D02*
X166502438Y-109845237D01*
X166502438Y-109845237D02*
X166454819Y-109702380D01*
X166454819Y-109702380D02*
X166454819Y-109607142D01*
X166454819Y-109607142D02*
X166502438Y-109464285D01*
X166502438Y-109464285D02*
X166550057Y-109416666D01*
X167454819Y-108464285D02*
X167454819Y-109035713D01*
X167454819Y-108749999D02*
X166454819Y-108749999D01*
X166454819Y-108749999D02*
X166597676Y-108845237D01*
X166597676Y-108845237D02*
X166692914Y-108940475D01*
X166692914Y-108940475D02*
X166740533Y-109035713D01*
X166166667Y-105907200D02*
X166309524Y-105954819D01*
X166309524Y-105954819D02*
X166547619Y-105954819D01*
X166547619Y-105954819D02*
X166642857Y-105907200D01*
X166642857Y-105907200D02*
X166690476Y-105859580D01*
X166690476Y-105859580D02*
X166738095Y-105764342D01*
X166738095Y-105764342D02*
X166738095Y-105669104D01*
X166738095Y-105669104D02*
X166690476Y-105573866D01*
X166690476Y-105573866D02*
X166642857Y-105526247D01*
X166642857Y-105526247D02*
X166547619Y-105478628D01*
X166547619Y-105478628D02*
X166357143Y-105431009D01*
X166357143Y-105431009D02*
X166261905Y-105383390D01*
X166261905Y-105383390D02*
X166214286Y-105335771D01*
X166214286Y-105335771D02*
X166166667Y-105240533D01*
X166166667Y-105240533D02*
X166166667Y-105145295D01*
X166166667Y-105145295D02*
X166214286Y-105050057D01*
X166214286Y-105050057D02*
X166261905Y-105002438D01*
X166261905Y-105002438D02*
X166357143Y-104954819D01*
X166357143Y-104954819D02*
X166595238Y-104954819D01*
X166595238Y-104954819D02*
X166738095Y-105002438D01*
X167071429Y-104954819D02*
X167309524Y-105954819D01*
X167309524Y-105954819D02*
X167500000Y-105240533D01*
X167500000Y-105240533D02*
X167690476Y-105954819D01*
X167690476Y-105954819D02*
X167928572Y-104954819D01*
X168833333Y-105954819D02*
X168261905Y-105954819D01*
X168547619Y-105954819D02*
X168547619Y-104954819D01*
X168547619Y-104954819D02*
X168452381Y-105097676D01*
X168452381Y-105097676D02*
X168357143Y-105192914D01*
X168357143Y-105192914D02*
X168261905Y-105240533D01*
X164109580Y-112336666D02*
X164157200Y-112384285D01*
X164157200Y-112384285D02*
X164204819Y-112527142D01*
X164204819Y-112527142D02*
X164204819Y-112622380D01*
X164204819Y-112622380D02*
X164157200Y-112765237D01*
X164157200Y-112765237D02*
X164061961Y-112860475D01*
X164061961Y-112860475D02*
X163966723Y-112908094D01*
X163966723Y-112908094D02*
X163776247Y-112955713D01*
X163776247Y-112955713D02*
X163633390Y-112955713D01*
X163633390Y-112955713D02*
X163442914Y-112908094D01*
X163442914Y-112908094D02*
X163347676Y-112860475D01*
X163347676Y-112860475D02*
X163252438Y-112765237D01*
X163252438Y-112765237D02*
X163204819Y-112622380D01*
X163204819Y-112622380D02*
X163204819Y-112527142D01*
X163204819Y-112527142D02*
X163252438Y-112384285D01*
X163252438Y-112384285D02*
X163300057Y-112336666D01*
X163300057Y-111955713D02*
X163252438Y-111908094D01*
X163252438Y-111908094D02*
X163204819Y-111812856D01*
X163204819Y-111812856D02*
X163204819Y-111574761D01*
X163204819Y-111574761D02*
X163252438Y-111479523D01*
X163252438Y-111479523D02*
X163300057Y-111431904D01*
X163300057Y-111431904D02*
X163395295Y-111384285D01*
X163395295Y-111384285D02*
X163490533Y-111384285D01*
X163490533Y-111384285D02*
X163633390Y-111431904D01*
X163633390Y-111431904D02*
X164204819Y-112003332D01*
X164204819Y-112003332D02*
X164204819Y-111384285D01*
X146859580Y-98996666D02*
X146907200Y-99044285D01*
X146907200Y-99044285D02*
X146954819Y-99187142D01*
X146954819Y-99187142D02*
X146954819Y-99282380D01*
X146954819Y-99282380D02*
X146907200Y-99425237D01*
X146907200Y-99425237D02*
X146811961Y-99520475D01*
X146811961Y-99520475D02*
X146716723Y-99568094D01*
X146716723Y-99568094D02*
X146526247Y-99615713D01*
X146526247Y-99615713D02*
X146383390Y-99615713D01*
X146383390Y-99615713D02*
X146192914Y-99568094D01*
X146192914Y-99568094D02*
X146097676Y-99520475D01*
X146097676Y-99520475D02*
X146002438Y-99425237D01*
X146002438Y-99425237D02*
X145954819Y-99282380D01*
X145954819Y-99282380D02*
X145954819Y-99187142D01*
X145954819Y-99187142D02*
X146002438Y-99044285D01*
X146002438Y-99044285D02*
X146050057Y-98996666D01*
X145954819Y-98091904D02*
X145954819Y-98568094D01*
X145954819Y-98568094D02*
X146431009Y-98615713D01*
X146431009Y-98615713D02*
X146383390Y-98568094D01*
X146383390Y-98568094D02*
X146335771Y-98472856D01*
X146335771Y-98472856D02*
X146335771Y-98234761D01*
X146335771Y-98234761D02*
X146383390Y-98139523D01*
X146383390Y-98139523D02*
X146431009Y-98091904D01*
X146431009Y-98091904D02*
X146526247Y-98044285D01*
X146526247Y-98044285D02*
X146764342Y-98044285D01*
X146764342Y-98044285D02*
X146859580Y-98091904D01*
X146859580Y-98091904D02*
X146907200Y-98139523D01*
X146907200Y-98139523D02*
X146954819Y-98234761D01*
X146954819Y-98234761D02*
X146954819Y-98472856D01*
X146954819Y-98472856D02*
X146907200Y-98568094D01*
X146907200Y-98568094D02*
X146859580Y-98615713D01*
X139454819Y-98346666D02*
X138978628Y-98679999D01*
X139454819Y-98918094D02*
X138454819Y-98918094D01*
X138454819Y-98918094D02*
X138454819Y-98537142D01*
X138454819Y-98537142D02*
X138502438Y-98441904D01*
X138502438Y-98441904D02*
X138550057Y-98394285D01*
X138550057Y-98394285D02*
X138645295Y-98346666D01*
X138645295Y-98346666D02*
X138788152Y-98346666D01*
X138788152Y-98346666D02*
X138883390Y-98394285D01*
X138883390Y-98394285D02*
X138931009Y-98441904D01*
X138931009Y-98441904D02*
X138978628Y-98537142D01*
X138978628Y-98537142D02*
X138978628Y-98918094D01*
X138454819Y-97441904D02*
X138454819Y-97918094D01*
X138454819Y-97918094D02*
X138931009Y-97965713D01*
X138931009Y-97965713D02*
X138883390Y-97918094D01*
X138883390Y-97918094D02*
X138835771Y-97822856D01*
X138835771Y-97822856D02*
X138835771Y-97584761D01*
X138835771Y-97584761D02*
X138883390Y-97489523D01*
X138883390Y-97489523D02*
X138931009Y-97441904D01*
X138931009Y-97441904D02*
X139026247Y-97394285D01*
X139026247Y-97394285D02*
X139264342Y-97394285D01*
X139264342Y-97394285D02*
X139359580Y-97441904D01*
X139359580Y-97441904D02*
X139407200Y-97489523D01*
X139407200Y-97489523D02*
X139454819Y-97584761D01*
X139454819Y-97584761D02*
X139454819Y-97822856D01*
X139454819Y-97822856D02*
X139407200Y-97918094D01*
X139407200Y-97918094D02*
X139359580Y-97965713D01*
X131704819Y-100083333D02*
X132419104Y-100083333D01*
X132419104Y-100083333D02*
X132561961Y-100130952D01*
X132561961Y-100130952D02*
X132657200Y-100226190D01*
X132657200Y-100226190D02*
X132704819Y-100369047D01*
X132704819Y-100369047D02*
X132704819Y-100464285D01*
X132704819Y-99083333D02*
X132704819Y-99654761D01*
X132704819Y-99369047D02*
X131704819Y-99369047D01*
X131704819Y-99369047D02*
X131847676Y-99464285D01*
X131847676Y-99464285D02*
X131942914Y-99559523D01*
X131942914Y-99559523D02*
X131990533Y-99654761D01*
X165238095Y-80304819D02*
X165238095Y-79304819D01*
X165238095Y-79781009D02*
X165809523Y-79781009D01*
X165809523Y-80304819D02*
X165809523Y-79304819D01*
X166238095Y-79400057D02*
X166285714Y-79352438D01*
X166285714Y-79352438D02*
X166380952Y-79304819D01*
X166380952Y-79304819D02*
X166619047Y-79304819D01*
X166619047Y-79304819D02*
X166714285Y-79352438D01*
X166714285Y-79352438D02*
X166761904Y-79400057D01*
X166761904Y-79400057D02*
X166809523Y-79495295D01*
X166809523Y-79495295D02*
X166809523Y-79590533D01*
X166809523Y-79590533D02*
X166761904Y-79733390D01*
X166761904Y-79733390D02*
X166190476Y-80304819D01*
X166190476Y-80304819D02*
X166809523Y-80304819D01*
X133238095Y-112304819D02*
X133238095Y-111304819D01*
X133238095Y-111781009D02*
X133809523Y-111781009D01*
X133809523Y-112304819D02*
X133809523Y-111304819D01*
X134190476Y-111304819D02*
X134809523Y-111304819D01*
X134809523Y-111304819D02*
X134476190Y-111685771D01*
X134476190Y-111685771D02*
X134619047Y-111685771D01*
X134619047Y-111685771D02*
X134714285Y-111733390D01*
X134714285Y-111733390D02*
X134761904Y-111781009D01*
X134761904Y-111781009D02*
X134809523Y-111876247D01*
X134809523Y-111876247D02*
X134809523Y-112114342D01*
X134809523Y-112114342D02*
X134761904Y-112209580D01*
X134761904Y-112209580D02*
X134714285Y-112257200D01*
X134714285Y-112257200D02*
X134619047Y-112304819D01*
X134619047Y-112304819D02*
X134333333Y-112304819D01*
X134333333Y-112304819D02*
X134238095Y-112257200D01*
X134238095Y-112257200D02*
X134190476Y-112209580D01*
X151954819Y-98511904D02*
X152764342Y-98511904D01*
X152764342Y-98511904D02*
X152859580Y-98464285D01*
X152859580Y-98464285D02*
X152907200Y-98416666D01*
X152907200Y-98416666D02*
X152954819Y-98321428D01*
X152954819Y-98321428D02*
X152954819Y-98130952D01*
X152954819Y-98130952D02*
X152907200Y-98035714D01*
X152907200Y-98035714D02*
X152859580Y-97988095D01*
X152859580Y-97988095D02*
X152764342Y-97940476D01*
X152764342Y-97940476D02*
X151954819Y-97940476D01*
X152050057Y-97511904D02*
X152002438Y-97464285D01*
X152002438Y-97464285D02*
X151954819Y-97369047D01*
X151954819Y-97369047D02*
X151954819Y-97130952D01*
X151954819Y-97130952D02*
X152002438Y-97035714D01*
X152002438Y-97035714D02*
X152050057Y-96988095D01*
X152050057Y-96988095D02*
X152145295Y-96940476D01*
X152145295Y-96940476D02*
X152240533Y-96940476D01*
X152240533Y-96940476D02*
X152383390Y-96988095D01*
X152383390Y-96988095D02*
X152954819Y-97559523D01*
X152954819Y-97559523D02*
X152954819Y-96940476D01*
X133238095Y-80304819D02*
X133238095Y-79304819D01*
X133238095Y-79781009D02*
X133809523Y-79781009D01*
X133809523Y-80304819D02*
X133809523Y-79304819D01*
X134809523Y-80304819D02*
X134238095Y-80304819D01*
X134523809Y-80304819D02*
X134523809Y-79304819D01*
X134523809Y-79304819D02*
X134428571Y-79447676D01*
X134428571Y-79447676D02*
X134333333Y-79542914D01*
X134333333Y-79542914D02*
X134238095Y-79590533D01*
X140704819Y-98236666D02*
X140228628Y-98569999D01*
X140704819Y-98808094D02*
X139704819Y-98808094D01*
X139704819Y-98808094D02*
X139704819Y-98427142D01*
X139704819Y-98427142D02*
X139752438Y-98331904D01*
X139752438Y-98331904D02*
X139800057Y-98284285D01*
X139800057Y-98284285D02*
X139895295Y-98236666D01*
X139895295Y-98236666D02*
X140038152Y-98236666D01*
X140038152Y-98236666D02*
X140133390Y-98284285D01*
X140133390Y-98284285D02*
X140181009Y-98331904D01*
X140181009Y-98331904D02*
X140228628Y-98427142D01*
X140228628Y-98427142D02*
X140228628Y-98808094D01*
X140038152Y-97379523D02*
X140704819Y-97379523D01*
X139657200Y-97617618D02*
X140371485Y-97855713D01*
X140371485Y-97855713D02*
X140371485Y-97236666D01*
X140454819Y-113986666D02*
X139978628Y-114319999D01*
X140454819Y-114558094D02*
X139454819Y-114558094D01*
X139454819Y-114558094D02*
X139454819Y-114177142D01*
X139454819Y-114177142D02*
X139502438Y-114081904D01*
X139502438Y-114081904D02*
X139550057Y-114034285D01*
X139550057Y-114034285D02*
X139645295Y-113986666D01*
X139645295Y-113986666D02*
X139788152Y-113986666D01*
X139788152Y-113986666D02*
X139883390Y-114034285D01*
X139883390Y-114034285D02*
X139931009Y-114081904D01*
X139931009Y-114081904D02*
X139978628Y-114177142D01*
X139978628Y-114177142D02*
X139978628Y-114558094D01*
X139454819Y-113653332D02*
X139454819Y-113034285D01*
X139454819Y-113034285D02*
X139835771Y-113367618D01*
X139835771Y-113367618D02*
X139835771Y-113224761D01*
X139835771Y-113224761D02*
X139883390Y-113129523D01*
X139883390Y-113129523D02*
X139931009Y-113081904D01*
X139931009Y-113081904D02*
X140026247Y-113034285D01*
X140026247Y-113034285D02*
X140264342Y-113034285D01*
X140264342Y-113034285D02*
X140359580Y-113081904D01*
X140359580Y-113081904D02*
X140407200Y-113129523D01*
X140407200Y-113129523D02*
X140454819Y-113224761D01*
X140454819Y-113224761D02*
X140454819Y-113510475D01*
X140454819Y-113510475D02*
X140407200Y-113605713D01*
X140407200Y-113605713D02*
X140359580Y-113653332D01*
X149238097Y-117954820D02*
X149238097Y-118764343D01*
X149238097Y-118764343D02*
X149285716Y-118859581D01*
X149285716Y-118859581D02*
X149333335Y-118907201D01*
X149333335Y-118907201D02*
X149428573Y-118954820D01*
X149428573Y-118954820D02*
X149619049Y-118954820D01*
X149619049Y-118954820D02*
X149714287Y-118907201D01*
X149714287Y-118907201D02*
X149761906Y-118859581D01*
X149761906Y-118859581D02*
X149809525Y-118764343D01*
X149809525Y-118764343D02*
X149809525Y-117954820D01*
X150809525Y-118954820D02*
X150238097Y-118954820D01*
X150523811Y-118954820D02*
X150523811Y-117954820D01*
X150523811Y-117954820D02*
X150428573Y-118097677D01*
X150428573Y-118097677D02*
X150333335Y-118192915D01*
X150333335Y-118192915D02*
X150238097Y-118240534D01*
X137153333Y-86454819D02*
X136820000Y-85978628D01*
X136581905Y-86454819D02*
X136581905Y-85454819D01*
X136581905Y-85454819D02*
X136962857Y-85454819D01*
X136962857Y-85454819D02*
X137058095Y-85502438D01*
X137058095Y-85502438D02*
X137105714Y-85550057D01*
X137105714Y-85550057D02*
X137153333Y-85645295D01*
X137153333Y-85645295D02*
X137153333Y-85788152D01*
X137153333Y-85788152D02*
X137105714Y-85883390D01*
X137105714Y-85883390D02*
X137058095Y-85931009D01*
X137058095Y-85931009D02*
X136962857Y-85978628D01*
X136962857Y-85978628D02*
X136581905Y-85978628D01*
X137534286Y-85550057D02*
X137581905Y-85502438D01*
X137581905Y-85502438D02*
X137677143Y-85454819D01*
X137677143Y-85454819D02*
X137915238Y-85454819D01*
X137915238Y-85454819D02*
X138010476Y-85502438D01*
X138010476Y-85502438D02*
X138058095Y-85550057D01*
X138058095Y-85550057D02*
X138105714Y-85645295D01*
X138105714Y-85645295D02*
X138105714Y-85740533D01*
X138105714Y-85740533D02*
X138058095Y-85883390D01*
X138058095Y-85883390D02*
X137486667Y-86454819D01*
X137486667Y-86454819D02*
X138105714Y-86454819D01*
X159788095Y-103452819D02*
X159788095Y-104262342D01*
X159788095Y-104262342D02*
X159835714Y-104357580D01*
X159835714Y-104357580D02*
X159883333Y-104405200D01*
X159883333Y-104405200D02*
X159978571Y-104452819D01*
X159978571Y-104452819D02*
X160169047Y-104452819D01*
X160169047Y-104452819D02*
X160264285Y-104405200D01*
X160264285Y-104405200D02*
X160311904Y-104357580D01*
X160311904Y-104357580D02*
X160359523Y-104262342D01*
X160359523Y-104262342D02*
X160359523Y-103452819D01*
X160740476Y-103452819D02*
X161359523Y-103452819D01*
X161359523Y-103452819D02*
X161026190Y-103833771D01*
X161026190Y-103833771D02*
X161169047Y-103833771D01*
X161169047Y-103833771D02*
X161264285Y-103881390D01*
X161264285Y-103881390D02*
X161311904Y-103929009D01*
X161311904Y-103929009D02*
X161359523Y-104024247D01*
X161359523Y-104024247D02*
X161359523Y-104262342D01*
X161359523Y-104262342D02*
X161311904Y-104357580D01*
X161311904Y-104357580D02*
X161264285Y-104405200D01*
X161264285Y-104405200D02*
X161169047Y-104452819D01*
X161169047Y-104452819D02*
X160883333Y-104452819D01*
X160883333Y-104452819D02*
X160788095Y-104405200D01*
X160788095Y-104405200D02*
X160740476Y-104357580D01*
X147859580Y-98996666D02*
X147907200Y-99044285D01*
X147907200Y-99044285D02*
X147954819Y-99187142D01*
X147954819Y-99187142D02*
X147954819Y-99282380D01*
X147954819Y-99282380D02*
X147907200Y-99425237D01*
X147907200Y-99425237D02*
X147811961Y-99520475D01*
X147811961Y-99520475D02*
X147716723Y-99568094D01*
X147716723Y-99568094D02*
X147526247Y-99615713D01*
X147526247Y-99615713D02*
X147383390Y-99615713D01*
X147383390Y-99615713D02*
X147192914Y-99568094D01*
X147192914Y-99568094D02*
X147097676Y-99520475D01*
X147097676Y-99520475D02*
X147002438Y-99425237D01*
X147002438Y-99425237D02*
X146954819Y-99282380D01*
X146954819Y-99282380D02*
X146954819Y-99187142D01*
X146954819Y-99187142D02*
X147002438Y-99044285D01*
X147002438Y-99044285D02*
X147050057Y-98996666D01*
X146954819Y-98139523D02*
X146954819Y-98329999D01*
X146954819Y-98329999D02*
X147002438Y-98425237D01*
X147002438Y-98425237D02*
X147050057Y-98472856D01*
X147050057Y-98472856D02*
X147192914Y-98568094D01*
X147192914Y-98568094D02*
X147383390Y-98615713D01*
X147383390Y-98615713D02*
X147764342Y-98615713D01*
X147764342Y-98615713D02*
X147859580Y-98568094D01*
X147859580Y-98568094D02*
X147907200Y-98520475D01*
X147907200Y-98520475D02*
X147954819Y-98425237D01*
X147954819Y-98425237D02*
X147954819Y-98234761D01*
X147954819Y-98234761D02*
X147907200Y-98139523D01*
X147907200Y-98139523D02*
X147859580Y-98091904D01*
X147859580Y-98091904D02*
X147764342Y-98044285D01*
X147764342Y-98044285D02*
X147526247Y-98044285D01*
X147526247Y-98044285D02*
X147431009Y-98091904D01*
X147431009Y-98091904D02*
X147383390Y-98139523D01*
X147383390Y-98139523D02*
X147335771Y-98234761D01*
X147335771Y-98234761D02*
X147335771Y-98425237D01*
X147335771Y-98425237D02*
X147383390Y-98520475D01*
X147383390Y-98520475D02*
X147431009Y-98568094D01*
X147431009Y-98568094D02*
X147526247Y-98615713D01*
X165238095Y-112304819D02*
X165238095Y-111304819D01*
X165238095Y-111781009D02*
X165809523Y-111781009D01*
X165809523Y-112304819D02*
X165809523Y-111304819D01*
X166714285Y-111638152D02*
X166714285Y-112304819D01*
X166476190Y-111257200D02*
X166238095Y-111971485D01*
X166238095Y-111971485D02*
X166857142Y-111971485D01*
X162859580Y-112336666D02*
X162907200Y-112384285D01*
X162907200Y-112384285D02*
X162954819Y-112527142D01*
X162954819Y-112527142D02*
X162954819Y-112622380D01*
X162954819Y-112622380D02*
X162907200Y-112765237D01*
X162907200Y-112765237D02*
X162811961Y-112860475D01*
X162811961Y-112860475D02*
X162716723Y-112908094D01*
X162716723Y-112908094D02*
X162526247Y-112955713D01*
X162526247Y-112955713D02*
X162383390Y-112955713D01*
X162383390Y-112955713D02*
X162192914Y-112908094D01*
X162192914Y-112908094D02*
X162097676Y-112860475D01*
X162097676Y-112860475D02*
X162002438Y-112765237D01*
X162002438Y-112765237D02*
X161954819Y-112622380D01*
X161954819Y-112622380D02*
X161954819Y-112527142D01*
X161954819Y-112527142D02*
X162002438Y-112384285D01*
X162002438Y-112384285D02*
X162050057Y-112336666D01*
X161954819Y-112003332D02*
X161954819Y-111384285D01*
X161954819Y-111384285D02*
X162335771Y-111717618D01*
X162335771Y-111717618D02*
X162335771Y-111574761D01*
X162335771Y-111574761D02*
X162383390Y-111479523D01*
X162383390Y-111479523D02*
X162431009Y-111431904D01*
X162431009Y-111431904D02*
X162526247Y-111384285D01*
X162526247Y-111384285D02*
X162764342Y-111384285D01*
X162764342Y-111384285D02*
X162859580Y-111431904D01*
X162859580Y-111431904D02*
X162907200Y-111479523D01*
X162907200Y-111479523D02*
X162954819Y-111574761D01*
X162954819Y-111574761D02*
X162954819Y-111860475D01*
X162954819Y-111860475D02*
X162907200Y-111955713D01*
X162907200Y-111955713D02*
X162859580Y-112003332D01*
X132666667Y-110407200D02*
X132809524Y-110454819D01*
X132809524Y-110454819D02*
X133047619Y-110454819D01*
X133047619Y-110454819D02*
X133142857Y-110407200D01*
X133142857Y-110407200D02*
X133190476Y-110359580D01*
X133190476Y-110359580D02*
X133238095Y-110264342D01*
X133238095Y-110264342D02*
X133238095Y-110169104D01*
X133238095Y-110169104D02*
X133190476Y-110073866D01*
X133190476Y-110073866D02*
X133142857Y-110026247D01*
X133142857Y-110026247D02*
X133047619Y-109978628D01*
X133047619Y-109978628D02*
X132857143Y-109931009D01*
X132857143Y-109931009D02*
X132761905Y-109883390D01*
X132761905Y-109883390D02*
X132714286Y-109835771D01*
X132714286Y-109835771D02*
X132666667Y-109740533D01*
X132666667Y-109740533D02*
X132666667Y-109645295D01*
X132666667Y-109645295D02*
X132714286Y-109550057D01*
X132714286Y-109550057D02*
X132761905Y-109502438D01*
X132761905Y-109502438D02*
X132857143Y-109454819D01*
X132857143Y-109454819D02*
X133095238Y-109454819D01*
X133095238Y-109454819D02*
X133238095Y-109502438D01*
X133571429Y-109454819D02*
X133809524Y-110454819D01*
X133809524Y-110454819D02*
X134000000Y-109740533D01*
X134000000Y-109740533D02*
X134190476Y-110454819D01*
X134190476Y-110454819D02*
X134428572Y-109454819D01*
X134761905Y-109550057D02*
X134809524Y-109502438D01*
X134809524Y-109502438D02*
X134904762Y-109454819D01*
X134904762Y-109454819D02*
X135142857Y-109454819D01*
X135142857Y-109454819D02*
X135238095Y-109502438D01*
X135238095Y-109502438D02*
X135285714Y-109550057D01*
X135285714Y-109550057D02*
X135333333Y-109645295D01*
X135333333Y-109645295D02*
X135333333Y-109740533D01*
X135333333Y-109740533D02*
X135285714Y-109883390D01*
X135285714Y-109883390D02*
X134714286Y-110454819D01*
X134714286Y-110454819D02*
X135333333Y-110454819D01*
X131704819Y-92846666D02*
X131228628Y-93179999D01*
X131704819Y-93418094D02*
X130704819Y-93418094D01*
X130704819Y-93418094D02*
X130704819Y-93037142D01*
X130704819Y-93037142D02*
X130752438Y-92941904D01*
X130752438Y-92941904D02*
X130800057Y-92894285D01*
X130800057Y-92894285D02*
X130895295Y-92846666D01*
X130895295Y-92846666D02*
X131038152Y-92846666D01*
X131038152Y-92846666D02*
X131133390Y-92894285D01*
X131133390Y-92894285D02*
X131181009Y-92941904D01*
X131181009Y-92941904D02*
X131228628Y-93037142D01*
X131228628Y-93037142D02*
X131228628Y-93418094D01*
X131704819Y-91894285D02*
X131704819Y-92465713D01*
X131704819Y-92179999D02*
X130704819Y-92179999D01*
X130704819Y-92179999D02*
X130847676Y-92275237D01*
X130847676Y-92275237D02*
X130942914Y-92370475D01*
X130942914Y-92370475D02*
X130990533Y-92465713D01*
D13*
X153269251Y-87124820D02*
X154519042Y-85525157D01*
X153272376Y-90515541D02*
X153918544Y-91020383D01*
X153371692Y-87204857D02*
X153269251Y-87124820D01*
X154519042Y-85525157D02*
X156165985Y-86811890D01*
X154916193Y-88411553D02*
X153371692Y-87204857D01*
X155384245Y-92165514D02*
X156676583Y-93175198D01*
X157815958Y-84700019D02*
X153272376Y-90515541D01*
X157815958Y-84700019D02*
X163332032Y-89009651D01*
X158142283Y-94320329D02*
X158788453Y-94825170D01*
X160401486Y-92760584D02*
X162048426Y-94047315D01*
X162048426Y-94047315D02*
X163329003Y-92408251D01*
X163329003Y-92408251D02*
X161682059Y-91121519D01*
X163332032Y-89009651D02*
X158788453Y-94825170D01*
D14*
X163331253Y-89049052D02*
G75*
G02*
X163271249Y-89049052I-30002J0D01*
G01*
X163271249Y-89049052D02*
G75*
G02*
X163331253Y-89049052I30002J0D01*
G01*
D13*
X162290000Y-108970000D02*
X162290000Y-108170000D01*
X162290000Y-109530000D02*
X162290000Y-110330000D01*
X162600000Y-107860000D02*
X163400000Y-107860000D01*
X163400000Y-110640000D02*
X162600000Y-110640000D01*
X163710000Y-108970000D02*
X163710000Y-108170000D01*
X163710000Y-109530000D02*
X163710000Y-110330000D01*
X162290000Y-108170000D02*
G75*
G02*
X162600000Y-107860000I310000J0D01*
G01*
X162600000Y-110640000D02*
G75*
G02*
X162290000Y-110330000I0J310000D01*
G01*
X163400000Y-107860000D02*
G75*
G02*
X163710000Y-108170000I0J-310000D01*
G01*
X163710000Y-110330000D02*
G75*
G02*
X163400000Y-110640000I-310000J0D01*
G01*
D14*
X162630000Y-108450000D02*
G75*
G02*
X162570000Y-108450000I-30000J0D01*
G01*
X162570000Y-108450000D02*
G75*
G02*
X162630000Y-108450000I30000J0D01*
G01*
D12*
X160970000Y-103960000D02*
X160970000Y-104390000D01*
X160970000Y-107040000D02*
X160970000Y-106610000D01*
X165030000Y-103960000D02*
X160970000Y-103960000D01*
X165030000Y-103960000D02*
X165030000Y-104390000D01*
X165030000Y-106610000D02*
X165030000Y-107040000D01*
X165030000Y-107040000D02*
X160970000Y-107040000D01*
D13*
X163900000Y-105500000D02*
G75*
G02*
X162100000Y-105500000I-900000J0D01*
G01*
X162100000Y-105500000D02*
G75*
G02*
X163900000Y-105500000I900000J0D01*
G01*
D14*
X165530000Y-104030000D02*
G75*
G02*
X165470000Y-104030000I-30000J0D01*
G01*
X165470000Y-104030000D02*
G75*
G02*
X165530000Y-104030000I30000J0D01*
G01*
D12*
X159250000Y-111950000D02*
X159250000Y-111450000D01*
X159250000Y-112890000D02*
X159250000Y-112390000D01*
X159400000Y-111300000D02*
X160100000Y-111300000D01*
X160100000Y-113040000D02*
X159400000Y-113040000D01*
X160250000Y-111450000D02*
X160250000Y-111950000D01*
X160250000Y-112390000D02*
X160250000Y-112890000D01*
X159250000Y-111450000D02*
G75*
G02*
X159400000Y-111300000I150000J0D01*
G01*
X159400000Y-113040000D02*
G75*
G02*
X159250000Y-112890000I0J150000D01*
G01*
X160100000Y-111300000D02*
G75*
G02*
X160250000Y-111450000I0J-150000D01*
G01*
X160250000Y-112890000D02*
G75*
G02*
X160100000Y-113040000I-150000J0D01*
G01*
D14*
X159530000Y-111670000D02*
G75*
G02*
X159470000Y-111670000I-30000J0D01*
G01*
X159470000Y-111670000D02*
G75*
G02*
X159530000Y-111670000I30000J0D01*
G01*
D12*
X150000000Y-98610000D02*
X150000000Y-98110000D01*
X150000000Y-99550000D02*
X150000000Y-99050000D01*
X150150000Y-97960000D02*
X150850000Y-97960000D01*
X150850000Y-99700000D02*
X150150000Y-99700000D01*
X151000000Y-98110000D02*
X151000000Y-98610000D01*
X151000000Y-99050000D02*
X151000000Y-99550000D01*
X150000000Y-98110000D02*
G75*
G02*
X150150000Y-97960000I150000J0D01*
G01*
X150150000Y-99700000D02*
G75*
G02*
X150000000Y-99550000I0J150000D01*
G01*
X150850000Y-97960000D02*
G75*
G02*
X151000000Y-98110000I0J-150000D01*
G01*
X151000000Y-99550000D02*
G75*
G02*
X150850000Y-99700000I-150000J0D01*
G01*
D14*
X150780000Y-99330000D02*
G75*
G02*
X150720000Y-99330000I-30000J0D01*
G01*
X150720000Y-99330000D02*
G75*
G02*
X150780000Y-99330000I30000J0D01*
G01*
D12*
X142500000Y-97240000D02*
X142500000Y-97950000D01*
X142500000Y-99120000D02*
X142500000Y-98410000D01*
X143500000Y-97240000D02*
X142500000Y-97240000D01*
X143500000Y-97950000D02*
X143500000Y-97240000D01*
X143500000Y-98410000D02*
X143500000Y-99120000D01*
X143500000Y-99120000D02*
X142500000Y-99120000D01*
D14*
X143280000Y-98680000D02*
G75*
G02*
X143220000Y-98680000I-30000J0D01*
G01*
X143220000Y-98680000D02*
G75*
G02*
X143280000Y-98680000I30000J0D01*
G01*
D13*
X136127499Y-95470000D02*
X136127500Y-96010002D01*
X136127499Y-99470000D02*
X136127499Y-100010000D01*
X136127500Y-91759999D02*
X136127500Y-94010000D01*
X136127500Y-101470000D02*
X136127501Y-102010000D01*
X136127500Y-103469999D02*
X136127499Y-104010000D01*
X136127500Y-105470001D02*
X136127500Y-107750000D01*
X136127500Y-107750000D02*
X137067500Y-107750001D01*
X136127501Y-97470000D02*
X136127499Y-98010000D01*
X136137500Y-91750001D02*
X136127500Y-91759999D01*
X137067501Y-91749999D02*
X136137500Y-91750001D01*
X140027500Y-107750001D02*
X141527500Y-107749999D01*
X141527500Y-107749999D02*
X141527501Y-91750000D01*
X141527501Y-91750000D02*
X140027499Y-91750000D01*
D14*
X134167500Y-107750001D02*
G75*
G02*
X134107498Y-107750001I-30001J0D01*
G01*
X134107498Y-107750001D02*
G75*
G02*
X134167500Y-107750001I30001J0D01*
G01*
D13*
X145500000Y-96250000D02*
X145500000Y-96650000D01*
X145500000Y-98860000D02*
X145500000Y-99250000D01*
X145500000Y-99250000D02*
X145900000Y-99250000D01*
X145900000Y-96250000D02*
X145500000Y-96250000D01*
X148110000Y-99250000D02*
X148500000Y-99250000D01*
X148500000Y-96250000D02*
X148110000Y-96250000D01*
X148500000Y-96250000D02*
X148500000Y-96650000D01*
X148500000Y-98860000D02*
X148500000Y-99250000D01*
X145220000Y-96460000D02*
G75*
G02*
X145100000Y-96460000I-60000J0D01*
G01*
X145100000Y-96460000D02*
G75*
G02*
X145220000Y-96460000I60000J0D01*
G01*
D14*
X145530000Y-96250000D02*
G75*
G02*
X145470000Y-96250000I-30000J0D01*
G01*
X145470000Y-96250000D02*
G75*
G02*
X145530000Y-96250000I30000J0D01*
G01*
D12*
X143750000Y-97130000D02*
X143750000Y-97840000D01*
X143750000Y-99010000D02*
X143750000Y-98300000D01*
X144750000Y-97130000D02*
X143750000Y-97130000D01*
X144750000Y-97840000D02*
X144750000Y-97130000D01*
X144750000Y-98300000D02*
X144750000Y-99010000D01*
X144750000Y-99010000D02*
X143750000Y-99010000D01*
D14*
X144530000Y-98570000D02*
G75*
G02*
X144470000Y-98570000I-30000J0D01*
G01*
X144470000Y-98570000D02*
G75*
G02*
X144530000Y-98570000I30000J0D01*
G01*
D12*
X140750000Y-112880000D02*
X140750000Y-113590000D01*
X140750000Y-114760000D02*
X140750000Y-114050000D01*
X141750000Y-112880000D02*
X140750000Y-112880000D01*
X141750000Y-113590000D02*
X141750000Y-112880000D01*
X141750000Y-114050000D02*
X141750000Y-114760000D01*
X141750000Y-114760000D02*
X140750000Y-114760000D01*
D14*
X141530000Y-114320000D02*
G75*
G02*
X141470000Y-114320000I-30000J0D01*
G01*
X141470000Y-114320000D02*
G75*
G02*
X141530000Y-114320000I30000J0D01*
G01*
D13*
X142299999Y-99799999D02*
X157700001Y-99799999D01*
X142299999Y-115200001D02*
X142299999Y-99799999D01*
X144700000Y-102099999D02*
X155500000Y-102100000D01*
X144700000Y-112900001D02*
X144700000Y-102099999D01*
X153500001Y-111200002D02*
X153500001Y-112899998D01*
X153500001Y-112899998D02*
X144700000Y-112900001D01*
X154200001Y-111900001D02*
X155400000Y-111900000D01*
X154200001Y-112899999D02*
X154200001Y-111900001D01*
X155400000Y-111900000D02*
X155400000Y-112900000D01*
X155400000Y-112900000D02*
X154200001Y-112899999D01*
X155500000Y-102100000D02*
X155500003Y-110999999D01*
X155500000Y-111199999D02*
X153500001Y-111200002D01*
X155500003Y-110999999D02*
X155500000Y-111199999D01*
X157700001Y-99799999D02*
X157700001Y-115200001D01*
X157700001Y-115200001D02*
X142299999Y-115200001D01*
D14*
X157730002Y-115200001D02*
G75*
G02*
X157670000Y-115200001I-30001J0D01*
G01*
X157670000Y-115200001D02*
G75*
G02*
X157730002Y-115200001I30001J0D01*
G01*
D12*
X136380000Y-89500000D02*
X137090000Y-89500000D01*
X136380000Y-90500000D02*
X136380000Y-89500000D01*
X137090000Y-90500000D02*
X136380000Y-90500000D01*
X137550000Y-90500000D02*
X138260000Y-90500000D01*
X138260000Y-89500000D02*
X137550000Y-89500000D01*
X138260000Y-90500000D02*
X138260000Y-89500000D01*
D14*
X136850000Y-90250000D02*
G75*
G02*
X136790000Y-90250000I-30000J0D01*
G01*
X136790000Y-90250000D02*
G75*
G02*
X136850000Y-90250000I30000J0D01*
G01*
D12*
X159300000Y-107950000D02*
X159670000Y-107950000D01*
X159300000Y-108470000D02*
X159300000Y-107950000D01*
X159300000Y-109510000D02*
X159300000Y-109430000D01*
X159300000Y-110160000D02*
X159300000Y-110120000D01*
X159300000Y-110950000D02*
X159300000Y-110770000D01*
X161430000Y-107950000D02*
X161800000Y-107950000D01*
X161800000Y-107950000D02*
X161800000Y-108470000D01*
X161800000Y-109430000D02*
X161800000Y-109510000D01*
X161800000Y-110120000D02*
X161800000Y-110160000D01*
X161800000Y-110770000D02*
X161800000Y-110950000D01*
X161800000Y-110950000D02*
X159300000Y-110950000D01*
D15*
X158940000Y-108380000D02*
G75*
G02*
X158740000Y-108380000I-100000J0D01*
G01*
X158740000Y-108380000D02*
G75*
G02*
X158940000Y-108380000I100000J0D01*
G01*
D14*
X159330000Y-107950000D02*
G75*
G02*
X159270000Y-107950000I-30000J0D01*
G01*
X159270000Y-107950000D02*
G75*
G02*
X159330000Y-107950000I30000J0D01*
G01*
D16*
G36*
X160994957Y-108984994D02*
G01*
X160104967Y-108984994D01*
X160104967Y-108395003D01*
X160994957Y-108395003D01*
X160994957Y-108984994D01*
G37*
D12*
X151000000Y-98610000D02*
X151000000Y-98110000D01*
X151000000Y-99550000D02*
X151000000Y-99050000D01*
X151150000Y-97960000D02*
X151850000Y-97960000D01*
X151850000Y-99700000D02*
X151150000Y-99700000D01*
X152000000Y-98110000D02*
X152000000Y-98610000D01*
X152000000Y-99050000D02*
X152000000Y-99550000D01*
X151000000Y-98110000D02*
G75*
G02*
X151150000Y-97960000I150000J0D01*
G01*
X151150000Y-99700000D02*
G75*
G02*
X151000000Y-99550000I0J150000D01*
G01*
X151850000Y-97960000D02*
G75*
G02*
X152000000Y-98110000I0J-150000D01*
G01*
X152000000Y-99550000D02*
G75*
G02*
X151850000Y-99700000I-150000J0D01*
G01*
D14*
X151780000Y-99330000D02*
G75*
G02*
X151720000Y-99330000I-30000J0D01*
G01*
X151720000Y-99330000D02*
G75*
G02*
X151780000Y-99330000I30000J0D01*
G01*
D12*
X158000000Y-111950000D02*
X158000000Y-111450000D01*
X158000000Y-112890000D02*
X158000000Y-112390000D01*
X158150000Y-111300000D02*
X158850000Y-111300000D01*
X158850000Y-113040000D02*
X158150000Y-113040000D01*
X159000000Y-111450000D02*
X159000000Y-111950000D01*
X159000000Y-112390000D02*
X159000000Y-112890000D01*
X158000000Y-111450000D02*
G75*
G02*
X158150000Y-111300000I150000J0D01*
G01*
X158150000Y-113040000D02*
G75*
G02*
X158000000Y-112890000I0J150000D01*
G01*
X158850000Y-111300000D02*
G75*
G02*
X159000000Y-111450000I0J-150000D01*
G01*
X159000000Y-112890000D02*
G75*
G02*
X158850000Y-113040000I-150000J0D01*
G01*
D14*
X158280000Y-111670000D02*
G75*
G02*
X158220000Y-111670000I-30000J0D01*
G01*
X158220000Y-111670000D02*
G75*
G02*
X158280000Y-111670000I30000J0D01*
G01*
D12*
X137150000Y-108460000D02*
X141210000Y-108460000D01*
X137150000Y-108890000D02*
X137150000Y-108460000D01*
X137150000Y-111540000D02*
X137150000Y-111110000D01*
X137150000Y-111540000D02*
X141210000Y-111540000D01*
X141210000Y-108460000D02*
X141210000Y-108890000D01*
X141210000Y-111540000D02*
X141210000Y-111110000D01*
D14*
X136710000Y-111470000D02*
G75*
G02*
X136650000Y-111470000I-30000J0D01*
G01*
X136650000Y-111470000D02*
G75*
G02*
X136710000Y-111470000I30000J0D01*
G01*
D13*
X140080000Y-110000000D02*
G75*
G02*
X138280000Y-110000000I-900000J0D01*
G01*
X138280000Y-110000000D02*
G75*
G02*
X140080000Y-110000000I900000J0D01*
G01*
D12*
X134750000Y-91740000D02*
X134750000Y-92450000D01*
X134750000Y-93620000D02*
X134750000Y-92910000D01*
X135750000Y-91740000D02*
X134750000Y-91740000D01*
X135750000Y-92450000D02*
X135750000Y-91740000D01*
X135750000Y-92910000D02*
X135750000Y-93620000D01*
X135750000Y-93620000D02*
X134750000Y-93620000D01*
D14*
X135530000Y-93180000D02*
G75*
G02*
X135470000Y-93180000I-30000J0D01*
G01*
X135470000Y-93180000D02*
G75*
G02*
X135530000Y-93180000I30000J0D01*
G01*
M02*
