G04 #@! TF.GenerationSoftware,KiCad,Pcbnew,10.0.3*
G04 #@! TF.ProjectId,Speakeasy,53706561-6b65-4617-9379-2e6b69636164,rev?*
G04 #@! TF.SameCoordinates,Original*
G04 #@! TF.FileFunction,Copper,L1,Top*
G04 #@! TF.FilePolarity,Positive*
%FSLAX46Y46*%
G04 Gerber Fmt 4.6, Leading zero omitted, Abs format (unit mm)*
%MOMM*%
%LPD*%
G01*
G04 APERTURE LIST*
G04 Aperture macros list*
%AMRotRect*
0 Rectangle, with rotation*
0 The origin of the aperture is its center*
0 $1 length*
0 $2 width*
0 $3 Rotation angle, in degrees counterclockwise*
0 Add horizontal line*
21,1,$1,$2,0,0,$3*%
%AMFreePoly0*
4,1,14,0.635227,0.635252,0.649872,0.599897,0.649872,-0.600100,0.635227,-0.635455,0.599872,-0.650100,-0.600126,-0.650100,-0.635481,-0.635455,-0.650126,-0.600100,-0.650126,-0.000102,-0.635481,0.035253,-0.035482,0.635252,-0.000127,0.649897,0.599872,0.649897,0.635227,0.635252,0.635227,0.635252,$1*%
%AMFreePoly1*
4,1,14,0.435426,0.135436,0.535430,0.035431,0.550075,0.000076,0.550075,-0.100051,0.535430,-0.135406,0.500075,-0.150051,-0.549910,-0.150051,-0.585265,-0.135406,-0.599910,-0.100051,-0.599910,0.099949,-0.585265,0.135304,-0.549917,0.149949,0.400068,0.150076,0.435426,0.135436,0.435426,0.135436,$1*%
%AMFreePoly2*
4,1,29,0.585214,0.635303,0.599859,0.599948,0.599859,-0.600050,0.585214,-0.635405,0.549859,-0.650050,-0.000076,-0.650050,-0.035431,-0.635405,-0.050076,-0.600050,-0.050076,-0.500037,-0.500177,-0.500037,-0.535532,-0.485392,-0.550177,-0.450037,-0.550177,-0.200152,-0.535532,-0.164797,-0.500177,-0.150152,-0.050076,-0.150152,-0.050076,0.149974,-0.500177,0.149974,-0.535532,0.164619,-0.550177,0.199974,
-0.550177,0.449936,-0.535532,0.485291,-0.500177,0.499936,-0.050076,0.499936,-0.050076,0.599948,-0.035431,0.635303,-0.000076,0.649948,0.549859,0.649948,0.585214,0.635303,0.585214,0.635303,$1*%
%AMFreePoly3*
4,1,29,0.035380,0.635328,0.050025,0.599973,0.050025,0.499986,0.500024,0.499986,0.535379,0.485341,0.550024,0.449986,0.550024,0.199974,0.535379,0.164619,0.500024,0.149974,0.050025,0.149974,0.050025,-0.150025,0.500024,-0.150025,0.535379,-0.164670,0.550024,-0.200025,0.550024,-0.450012,0.535379,-0.485367,0.500024,-0.500012,0.050025,-0.500012,0.050025,-0.600024,0.035380,-0.635379,
0.000025,-0.650024,-0.549961,-0.650024,-0.585316,-0.635379,-0.599961,-0.600024,-0.599961,0.599973,-0.585316,0.635328,-0.549961,0.649973,0.000025,0.649973,0.035380,0.635328,0.035380,0.635328,$1*%
G04 Aperture macros list end*
G04 #@! TA.AperFunction,ComponentPad*
%ADD10C,1.600000*%
G04 #@! TD*
G04 #@! TA.AperFunction,SMDPad,CuDef*
%ADD11RotRect,1.400000X5.000000X142.000000*%
G04 #@! TD*
G04 #@! TA.AperFunction,SMDPad,CuDef*
%ADD12R,0.900000X0.800000*%
G04 #@! TD*
G04 #@! TA.AperFunction,SMDPad,CuDef*
%ADD13R,1.230000X1.860000*%
G04 #@! TD*
G04 #@! TA.AperFunction,SMDPad,CuDef*
%ADD14R,0.540000X0.500000*%
G04 #@! TD*
G04 #@! TA.AperFunction,SMDPad,CuDef*
%ADD15R,0.540000X0.566000*%
G04 #@! TD*
G04 #@! TA.AperFunction,SMDPad,CuDef*
%ADD16R,3.000000X1.000000*%
G04 #@! TD*
G04 #@! TA.AperFunction,SMDPad,CuDef*
%ADD17R,2.500000X1.500000*%
G04 #@! TD*
G04 #@! TA.AperFunction,ComponentPad*
%ADD18C,0.800000*%
G04 #@! TD*
G04 #@! TA.AperFunction,ComponentPad*
%ADD19C,6.400000*%
G04 #@! TD*
G04 #@! TA.AperFunction,SMDPad,CuDef*
%ADD20R,0.600000X0.250000*%
G04 #@! TD*
G04 #@! TA.AperFunction,SMDPad,CuDef*
%ADD21R,0.250000X0.600000*%
G04 #@! TD*
G04 #@! TA.AperFunction,SMDPad,CuDef*
%ADD22R,1.500000X1.500000*%
G04 #@! TD*
G04 #@! TA.AperFunction,SMDPad,CuDef*
%ADD23R,0.800000X0.400000*%
G04 #@! TD*
G04 #@! TA.AperFunction,SMDPad,CuDef*
%ADD24R,0.400000X0.800000*%
G04 #@! TD*
G04 #@! TA.AperFunction,SMDPad,CuDef*
%ADD25FreePoly0,180.000000*%
G04 #@! TD*
G04 #@! TA.AperFunction,SMDPad,CuDef*
%ADD26R,1.200000X1.200000*%
G04 #@! TD*
G04 #@! TA.AperFunction,SMDPad,CuDef*
%ADD27R,0.800000X0.800000*%
G04 #@! TD*
G04 #@! TA.AperFunction,SMDPad,CuDef*
%ADD28R,0.566000X0.540000*%
G04 #@! TD*
G04 #@! TA.AperFunction,SMDPad,CuDef*
%ADD29FreePoly1,0.000000*%
G04 #@! TD*
G04 #@! TA.AperFunction,SMDPad,CuDef*
%ADD30R,1.050000X0.200000*%
G04 #@! TD*
G04 #@! TA.AperFunction,SMDPad,CuDef*
%ADD31FreePoly2,0.000000*%
G04 #@! TD*
G04 #@! TA.AperFunction,SMDPad,CuDef*
%ADD32FreePoly3,0.000000*%
G04 #@! TD*
G04 #@! TA.AperFunction,SMDPad,CuDef*
%ADD33R,0.200000X0.700000*%
G04 #@! TD*
G04 #@! TA.AperFunction,ViaPad*
%ADD34C,0.600000*%
G04 #@! TD*
G04 #@! TA.AperFunction,Conductor*
%ADD35C,0.200000*%
G04 #@! TD*
G04 #@! TA.AperFunction,Conductor*
%ADD36C,0.500000*%
G04 #@! TD*
G04 #@! TA.AperFunction,Conductor*
%ADD37C,0.300000*%
G04 #@! TD*
G04 APERTURE END LIST*
D10*
X161842098Y-92540952D03*
X154750001Y-87000000D03*
D11*
X156288928Y-95181944D03*
X153530892Y-93027126D03*
D12*
X163000000Y-108550000D03*
X163000000Y-109950000D03*
D13*
X160820000Y-105500000D03*
X165180000Y-105500000D03*
D14*
X159750000Y-111750000D03*
X159750000Y-112590000D03*
X150500000Y-99250000D03*
X150500000Y-98410000D03*
D15*
X143000000Y-98610000D03*
X143000000Y-97750000D03*
D16*
X134847500Y-104739999D03*
X134847500Y-102740000D03*
X134847499Y-100740000D03*
X134847499Y-98740001D03*
X134847500Y-96739999D03*
X134847499Y-94740001D03*
D17*
X138547500Y-107500000D03*
X138547500Y-92000000D03*
D18*
X163600000Y-84000000D03*
X164302944Y-82302944D03*
X164302944Y-85697056D03*
X166000000Y-81600000D03*
D19*
X166000000Y-84000000D03*
D18*
X166000000Y-86400000D03*
X167697056Y-82302944D03*
X167697056Y-85697056D03*
X168400000Y-84000000D03*
X131600000Y-116000000D03*
X132302944Y-114302944D03*
X132302944Y-117697056D03*
X134000000Y-113600000D03*
D19*
X134000000Y-116000000D03*
D18*
X134000000Y-118400000D03*
X135697056Y-114302944D03*
X135697056Y-117697056D03*
X136400000Y-116000000D03*
D20*
X145500000Y-97000000D03*
X145500000Y-97500000D03*
X145500000Y-98000000D03*
X145500000Y-98500000D03*
D21*
X146250000Y-99250000D03*
X146750000Y-99250000D03*
X147250000Y-99250000D03*
X147750000Y-99250000D03*
D20*
X148500000Y-98500000D03*
X148500000Y-98000000D03*
X148500000Y-97500000D03*
X148500000Y-97000000D03*
D21*
X147750000Y-96250000D03*
X147250000Y-96250000D03*
X146750000Y-96250000D03*
X146250000Y-96250000D03*
D22*
X147000000Y-97750000D03*
D18*
X131600000Y-84000000D03*
X132302944Y-82302944D03*
X132302944Y-85697056D03*
X134000000Y-81600000D03*
D19*
X134000000Y-84000000D03*
D18*
X134000000Y-86400000D03*
X135697056Y-82302944D03*
X135697056Y-85697056D03*
X136400000Y-84000000D03*
D15*
X144250000Y-98500000D03*
X144250000Y-97640000D03*
X141250000Y-114250000D03*
X141250000Y-113390000D03*
D23*
X156999999Y-113450000D03*
X157000000Y-112599998D03*
X157000000Y-111750000D03*
X156999999Y-110900001D03*
X157000000Y-110050000D03*
X157000002Y-109200000D03*
X157000000Y-108350002D03*
X157000000Y-107500001D03*
X156999999Y-106650001D03*
X157000000Y-105800000D03*
X156999999Y-104950000D03*
X157000001Y-104100000D03*
X156999999Y-103250000D03*
X156999999Y-102400000D03*
X157000000Y-101550000D03*
D24*
X155950000Y-100500001D03*
X155099998Y-100500000D03*
X154250000Y-100500000D03*
X153400001Y-100500001D03*
X152550000Y-100500000D03*
X151700000Y-100499998D03*
X150850002Y-100500000D03*
X150000001Y-100500000D03*
X149150001Y-100500001D03*
X148300000Y-100500000D03*
X147450000Y-100500001D03*
X146600000Y-100499999D03*
X145750000Y-100500001D03*
X144900000Y-100500001D03*
X144050000Y-100500000D03*
D23*
X143000001Y-101550000D03*
X143000000Y-102400002D03*
X143000000Y-103250000D03*
X143000001Y-104099999D03*
X143000000Y-104950000D03*
X142999998Y-105800000D03*
X143000000Y-106649998D03*
X143000000Y-107499999D03*
X143000001Y-108349999D03*
X143000000Y-109200000D03*
X143000001Y-110050000D03*
X142999999Y-110900000D03*
X143000001Y-111750000D03*
X143000001Y-112600000D03*
X143000000Y-113450000D03*
D24*
X144050000Y-114499999D03*
X144900002Y-114500000D03*
X145750000Y-114500000D03*
X146599999Y-114499999D03*
X147450000Y-114500000D03*
X148300000Y-114500002D03*
X149149998Y-114500000D03*
X149999999Y-114500000D03*
X150849999Y-114499999D03*
X151700000Y-114500000D03*
X152550000Y-114499999D03*
X153400000Y-114500001D03*
X154250000Y-114499999D03*
X155100000Y-114499999D03*
X155950000Y-114500000D03*
D25*
X151650000Y-109150000D03*
D26*
X151650000Y-107500000D03*
X151650000Y-105850000D03*
X150000000Y-109150000D03*
X150000000Y-107500000D03*
X150000000Y-105850000D03*
X148350000Y-109150000D03*
X148350000Y-107500000D03*
X148350000Y-105850000D03*
D27*
X157000000Y-114500000D03*
X157000000Y-100500000D03*
X143000000Y-100500000D03*
X143000000Y-114500000D03*
D28*
X136890000Y-90000000D03*
X137750000Y-90000000D03*
D29*
X159550000Y-108750000D03*
D30*
X159520000Y-109150000D03*
D31*
X159500000Y-110120000D03*
D32*
X161600000Y-110120000D03*
D30*
X161580000Y-109150000D03*
X161580000Y-108750000D03*
D33*
X161150000Y-108000000D03*
X160750000Y-108000000D03*
X160350000Y-108000000D03*
X159950000Y-108000000D03*
D14*
X151500000Y-99250000D03*
X151500000Y-98410000D03*
D18*
X163600000Y-116000000D03*
X164302944Y-114302944D03*
X164302944Y-117697056D03*
X166000000Y-113600000D03*
D19*
X166000000Y-116000000D03*
D18*
X166000000Y-118400000D03*
X167697056Y-114302944D03*
X167697056Y-117697056D03*
X168400000Y-116000000D03*
D14*
X158500000Y-111750000D03*
X158500000Y-112590000D03*
D13*
X141360000Y-110000000D03*
X137000000Y-110000000D03*
D15*
X135250000Y-93110000D03*
X135250000Y-92250000D03*
D34*
X156500000Y-99250000D03*
X141689339Y-103000000D03*
X152250000Y-101500000D03*
X163000000Y-108550000D03*
X146750000Y-103500000D03*
X151500000Y-99250000D03*
X137750000Y-90000000D03*
X152500000Y-110000000D03*
X156999999Y-113450000D03*
X155500000Y-107500000D03*
X150000000Y-109750000D03*
X140000000Y-90000000D03*
X137000000Y-97500000D03*
X144500000Y-107500000D03*
X135250000Y-104739999D03*
X152000000Y-108750000D03*
X144250000Y-110250000D03*
X149750000Y-96250000D03*
X137000000Y-99000000D03*
X136000000Y-104750000D03*
X140750000Y-92000000D03*
X147000000Y-113000000D03*
X148300000Y-114500002D03*
X152500000Y-113000000D03*
X136000000Y-91000000D03*
X155500000Y-105500000D03*
X147000000Y-97750000D03*
X148350000Y-109150000D03*
X134000000Y-92000000D03*
X133750000Y-104739999D03*
X150000000Y-105850000D03*
X136500000Y-92000000D03*
X144250000Y-111500000D03*
X142999999Y-110900000D03*
X147450000Y-114500000D03*
X148350000Y-107500000D03*
X151700000Y-114500000D03*
X158580000Y-107750000D03*
X156000000Y-109500000D03*
X144500000Y-113000000D03*
X138547500Y-92000000D03*
X154000000Y-95000000D03*
X155500000Y-102000000D03*
X144000000Y-104500000D03*
X150000000Y-107500000D03*
X149500000Y-97000000D03*
X146500000Y-97250000D03*
X134500000Y-104750000D03*
X157000000Y-112599998D03*
X155750000Y-102750000D03*
X160350000Y-107020000D03*
X145250000Y-95000000D03*
X135000000Y-91000000D03*
X151650000Y-107500000D03*
X140000000Y-97500000D03*
X153500000Y-96500000D03*
X153400000Y-114500001D03*
X151650000Y-105850000D03*
X143000001Y-111750000D03*
X148350000Y-105850000D03*
X153500000Y-90000000D03*
X157000000Y-114500000D03*
X158180000Y-109150000D03*
X143000000Y-114500000D03*
X154750000Y-101750000D03*
X137000000Y-94500000D03*
X155950000Y-114500000D03*
X152550000Y-114499999D03*
X144050000Y-114499999D03*
X148750000Y-96250000D03*
X153000000Y-91000000D03*
X150000000Y-113000000D03*
X146000000Y-111500000D03*
X152500000Y-98500000D03*
X151500000Y-93250000D03*
X138750000Y-99000000D03*
X146599999Y-114499999D03*
X147500000Y-97250000D03*
X144900002Y-114500000D03*
X141250000Y-114250000D03*
X159250000Y-107000000D03*
X157000000Y-111750000D03*
X161360000Y-110360000D03*
X157000001Y-104100000D03*
X143000000Y-98610000D03*
X135750000Y-102750000D03*
X149150001Y-100500001D03*
X150000001Y-100500000D03*
X136250000Y-100750000D03*
X157000000Y-107500001D03*
X141750000Y-102000000D03*
X141750000Y-99250000D03*
X144750000Y-96750000D03*
X149443861Y-94900000D03*
X157000000Y-105800000D03*
X145500000Y-96250000D03*
X150500000Y-94250000D03*
X156999999Y-106650001D03*
X148250000Y-95500000D03*
X156999999Y-104950000D03*
X144250000Y-98500000D03*
X143000000Y-113450000D03*
X156999999Y-110900001D03*
X160820000Y-105500000D03*
X143000001Y-108349999D03*
X143000000Y-109200000D03*
D35*
X149414215Y-98500000D02*
X152082108Y-95832107D01*
X148500000Y-98500000D02*
X149414215Y-98500000D01*
X152082108Y-95832107D02*
X155638765Y-95832107D01*
X155638765Y-95832107D02*
X156288928Y-95181944D01*
X148500000Y-98000000D02*
X149348529Y-98000000D01*
X149348529Y-98000000D02*
X153530892Y-93817637D01*
X153530892Y-93817637D02*
X153530892Y-93027126D01*
D36*
X135847499Y-94740001D02*
X141000000Y-99892502D01*
D35*
X162550000Y-109150000D02*
X163000000Y-108700000D01*
D36*
X146750000Y-103500000D02*
X148750000Y-101500000D01*
X147750000Y-99250000D02*
X147325000Y-99250000D01*
D35*
X162300000Y-108000000D02*
X161150000Y-108000000D01*
D36*
X150500000Y-99250000D02*
X147750000Y-99250000D01*
X134847499Y-94740001D02*
X135847499Y-94740001D01*
X141000000Y-99892502D02*
X141000000Y-102310661D01*
D35*
X163000000Y-108700000D02*
X162300000Y-108000000D01*
D36*
X148750000Y-101500000D02*
X152250000Y-101500000D01*
X151500000Y-99250000D02*
X156500000Y-99250000D01*
D35*
X134847499Y-94740001D02*
X135009999Y-94740001D01*
D36*
X141000000Y-102310661D02*
X141689339Y-103000000D01*
D35*
X161580000Y-109150000D02*
X162550000Y-109150000D01*
X135009999Y-94740001D02*
X135250000Y-94500000D01*
D36*
X150500000Y-99250000D02*
X151500000Y-99250000D01*
D35*
X159520000Y-109150000D02*
X158180000Y-109150000D01*
X146750000Y-96250000D02*
X146750000Y-95250000D01*
X146750000Y-97000000D02*
X146750000Y-97500000D01*
X150500000Y-98410000D02*
X151500000Y-98410000D01*
X159520000Y-108780000D02*
X159550000Y-108750000D01*
D37*
X151650000Y-109150000D02*
X152850000Y-109150000D01*
D35*
X160350000Y-108000000D02*
X160350000Y-107020000D01*
X146750000Y-97500000D02*
X147000000Y-97750000D01*
X152410000Y-98410000D02*
X152500000Y-98500000D01*
D36*
X159550000Y-108720000D02*
X158580000Y-107750000D01*
D37*
X151650000Y-109150000D02*
X151650000Y-110650000D01*
D35*
X146750000Y-96250000D02*
X146750000Y-97000000D01*
X143000000Y-100500000D02*
X144250000Y-101750000D01*
X146750000Y-98000000D02*
X147000000Y-97750000D01*
D36*
X159550000Y-108750000D02*
X159550000Y-108720000D01*
D35*
X148500000Y-97500000D02*
X149000000Y-97500000D01*
X159520000Y-109150000D02*
X159520000Y-108780000D01*
X151500000Y-98410000D02*
X152410000Y-98410000D01*
X157000000Y-100500000D02*
X155500000Y-102000000D01*
X145500000Y-98000000D02*
X146750000Y-98000000D01*
X149000000Y-97500000D02*
X149500000Y-97000000D01*
D36*
X159250000Y-107000000D02*
X159800000Y-107550000D01*
X159750000Y-111750000D02*
X159970000Y-111750000D01*
X159750000Y-111750000D02*
X158500000Y-111750000D01*
X159800000Y-107550000D02*
X159800000Y-107980050D01*
X161360000Y-110360000D02*
X161600000Y-110120000D01*
X157000000Y-111750000D02*
X158500000Y-111750000D01*
X159970000Y-111750000D02*
X161360000Y-110360000D01*
D35*
X143000000Y-97750000D02*
X144140000Y-97750000D01*
X144140000Y-97750000D02*
X144250000Y-97640000D01*
X145500000Y-98500000D02*
X145110000Y-98500000D01*
X144820000Y-97740000D02*
X144720000Y-97640000D01*
X144820000Y-98210000D02*
X144820000Y-97740000D01*
X144720000Y-97640000D02*
X144250000Y-97640000D01*
X145110000Y-98500000D02*
X144820000Y-98210000D01*
X134847499Y-98740001D02*
X133847499Y-98740001D01*
X132647499Y-97540001D02*
X132647499Y-91852501D01*
X133847499Y-98740001D02*
X132647499Y-97540001D01*
X132647499Y-91852501D02*
X134500000Y-90000000D01*
X134500000Y-90000000D02*
X136890000Y-90000000D01*
X133877500Y-93110000D02*
X135250000Y-93110000D01*
X134247497Y-96739999D02*
X133047499Y-95540001D01*
X134847500Y-96739999D02*
X134247497Y-96739999D01*
X133047499Y-93940001D02*
X133877500Y-93110000D01*
X133047499Y-95540001D02*
X133047499Y-93940001D01*
X145500000Y-97000000D02*
X145000000Y-97000000D01*
X141750000Y-99250000D02*
X141750000Y-102000000D01*
X145000000Y-97000000D02*
X144750000Y-96750000D01*
X147250000Y-95500000D02*
X147850000Y-94900000D01*
X147850000Y-94900000D02*
X149443861Y-94900000D01*
X147250000Y-96250000D02*
X147250000Y-95500000D01*
X150500000Y-94250000D02*
X150500000Y-94692390D01*
X149692390Y-95500000D02*
X148250000Y-95500000D01*
X146250000Y-96250000D02*
X145500000Y-96250000D01*
X150500000Y-94692390D02*
X149692390Y-95500000D01*
X141360000Y-113280000D02*
X141250000Y-113390000D01*
X142910000Y-113360000D02*
X143000000Y-113450000D01*
X141250000Y-113360000D02*
X142910000Y-113360000D01*
X141360000Y-110000000D02*
X141360000Y-113280000D01*
G04 #@! TA.AperFunction,Conductor*
G36*
X151127724Y-94977267D02*
G01*
X151140827Y-94977514D01*
X151159181Y-94989803D01*
X151180005Y-94998101D01*
X151249872Y-95052687D01*
X151290581Y-95109472D01*
X151294127Y-95179251D01*
X151261211Y-95238081D01*
X149512180Y-96987112D01*
X149450857Y-97020597D01*
X149381165Y-97015613D01*
X149325232Y-96973741D01*
X149300815Y-96908277D01*
X149300499Y-96899431D01*
X149300499Y-96827129D01*
X149300498Y-96827123D01*
X149299683Y-96819543D01*
X149294091Y-96767517D01*
X149268855Y-96699857D01*
X149243797Y-96632671D01*
X149243793Y-96632664D01*
X149157547Y-96517455D01*
X149157544Y-96517452D01*
X149042335Y-96431206D01*
X149042328Y-96431202D01*
X148907482Y-96380908D01*
X148907483Y-96380908D01*
X148847883Y-96374501D01*
X148847881Y-96374500D01*
X148847873Y-96374500D01*
X148847865Y-96374500D01*
X148790854Y-96374500D01*
X148758353Y-96364956D01*
X148725687Y-96355995D01*
X148724917Y-96355138D01*
X148723815Y-96354815D01*
X148701646Y-96329230D01*
X148678997Y-96304016D01*
X148678812Y-96302879D01*
X148678060Y-96302011D01*
X148673238Y-96268479D01*
X148667821Y-96235046D01*
X148668279Y-96233992D01*
X148668116Y-96232853D01*
X148682196Y-96202021D01*
X148695707Y-96170983D01*
X148696832Y-96169971D01*
X148697141Y-96169297D01*
X148721964Y-96147398D01*
X148760876Y-96121398D01*
X148827553Y-96100520D01*
X148829766Y-96100500D01*
X149605721Y-96100500D01*
X149605737Y-96100501D01*
X149613333Y-96100501D01*
X149771444Y-96100501D01*
X149771447Y-96100501D01*
X149924175Y-96059577D01*
X149974294Y-96030639D01*
X150061106Y-95980520D01*
X150172910Y-95868716D01*
X150172910Y-95868714D01*
X150183118Y-95858507D01*
X150183120Y-95858504D01*
X150868713Y-95172911D01*
X150868716Y-95172910D01*
X150980520Y-95061106D01*
X151002787Y-95022536D01*
X151011492Y-95012865D01*
X151030595Y-95001089D01*
X151046839Y-94985600D01*
X151059766Y-94983108D01*
X151070970Y-94976202D01*
X151093406Y-94976623D01*
X151115446Y-94972375D01*
X151127724Y-94977267D01*
G37*
G04 #@! TD.AperFunction*
G04 #@! TA.AperFunction,Conductor*
G36*
X166002855Y-80000632D02*
G01*
X166363311Y-80017296D01*
X166374700Y-80018352D01*
X166729238Y-80067808D01*
X166740482Y-80069910D01*
X167088944Y-80151867D01*
X167099934Y-80154994D01*
X167439368Y-80268761D01*
X167450022Y-80272889D01*
X167777496Y-80417482D01*
X167787723Y-80422574D01*
X168030656Y-80557887D01*
X168100453Y-80596764D01*
X168110191Y-80602793D01*
X168405513Y-80805093D01*
X168414653Y-80811996D01*
X168690035Y-81040670D01*
X168698499Y-81048386D01*
X168951613Y-81301500D01*
X168959329Y-81309964D01*
X169188003Y-81585346D01*
X169194906Y-81594486D01*
X169397206Y-81889808D01*
X169403235Y-81899546D01*
X169577418Y-82212263D01*
X169582523Y-82222516D01*
X169727105Y-82549964D01*
X169731243Y-82560644D01*
X169845001Y-82900052D01*
X169848135Y-82911068D01*
X169930087Y-83259509D01*
X169932192Y-83270768D01*
X169981646Y-83625291D01*
X169982703Y-83636695D01*
X169999368Y-83997144D01*
X169999500Y-84002871D01*
X169999500Y-115997128D01*
X169999368Y-116002855D01*
X169982703Y-116363304D01*
X169981646Y-116374708D01*
X169932192Y-116729231D01*
X169930087Y-116740490D01*
X169848135Y-117088931D01*
X169845001Y-117099947D01*
X169731243Y-117439355D01*
X169727105Y-117450035D01*
X169582523Y-117777483D01*
X169577418Y-117787736D01*
X169403235Y-118100453D01*
X169397206Y-118110191D01*
X169194906Y-118405513D01*
X169188003Y-118414653D01*
X168959329Y-118690035D01*
X168951613Y-118698499D01*
X168698499Y-118951613D01*
X168690035Y-118959329D01*
X168414653Y-119188003D01*
X168405513Y-119194906D01*
X168110191Y-119397206D01*
X168100453Y-119403235D01*
X167787736Y-119577418D01*
X167777483Y-119582523D01*
X167450035Y-119727105D01*
X167439355Y-119731243D01*
X167099947Y-119845001D01*
X167088931Y-119848135D01*
X166740490Y-119930087D01*
X166729231Y-119932192D01*
X166374708Y-119981646D01*
X166363304Y-119982703D01*
X166002855Y-119999368D01*
X165997128Y-119999500D01*
X134002872Y-119999500D01*
X133997145Y-119999368D01*
X133636695Y-119982703D01*
X133625291Y-119981646D01*
X133270768Y-119932192D01*
X133259509Y-119930087D01*
X132911068Y-119848135D01*
X132900052Y-119845001D01*
X132560644Y-119731243D01*
X132549964Y-119727105D01*
X132222511Y-119582520D01*
X132212268Y-119577420D01*
X132110316Y-119520633D01*
X131899546Y-119403235D01*
X131889808Y-119397206D01*
X131594486Y-119194906D01*
X131585346Y-119188003D01*
X131309964Y-118959329D01*
X131301500Y-118951613D01*
X131048386Y-118698499D01*
X131040670Y-118690035D01*
X130811996Y-118414653D01*
X130805093Y-118405513D01*
X130602793Y-118110191D01*
X130596764Y-118100453D01*
X130440149Y-117819276D01*
X130422574Y-117787723D01*
X130417482Y-117777496D01*
X130272889Y-117450022D01*
X130268761Y-117439368D01*
X130154994Y-117099934D01*
X130151867Y-117088944D01*
X130069910Y-116740482D01*
X130067807Y-116729231D01*
X130018353Y-116374708D01*
X130017296Y-116363304D01*
X130000632Y-116002855D01*
X130000500Y-115997128D01*
X130000500Y-110977844D01*
X135885000Y-110977844D01*
X135891401Y-111037372D01*
X135891403Y-111037379D01*
X135941645Y-111172086D01*
X135941649Y-111172093D01*
X136027809Y-111287187D01*
X136027812Y-111287190D01*
X136142906Y-111373350D01*
X136142913Y-111373354D01*
X136277620Y-111423596D01*
X136277627Y-111423598D01*
X136337155Y-111429999D01*
X136337172Y-111430000D01*
X136750000Y-111430000D01*
X137250000Y-111430000D01*
X137662828Y-111430000D01*
X137662844Y-111429999D01*
X137722372Y-111423598D01*
X137722379Y-111423596D01*
X137857086Y-111373354D01*
X137857093Y-111373350D01*
X137972187Y-111287190D01*
X137972190Y-111287187D01*
X138058350Y-111172093D01*
X138058354Y-111172086D01*
X138108596Y-111037379D01*
X138108598Y-111037372D01*
X138114999Y-110977844D01*
X138115000Y-110977827D01*
X138115000Y-110250000D01*
X137250000Y-110250000D01*
X137250000Y-111430000D01*
X136750000Y-111430000D01*
X136750000Y-110250000D01*
X135885000Y-110250000D01*
X135885000Y-110977844D01*
X130000500Y-110977844D01*
X130000500Y-109022155D01*
X135885000Y-109022155D01*
X135885000Y-109750000D01*
X138115000Y-109750000D01*
X138115000Y-109022172D01*
X138114999Y-109022155D01*
X138108598Y-108962627D01*
X138108596Y-108962619D01*
X138091706Y-108917333D01*
X138086722Y-108847641D01*
X138120207Y-108786318D01*
X138181531Y-108752834D01*
X138207888Y-108750000D01*
X138297500Y-108750000D01*
X138797500Y-108750000D01*
X139845328Y-108750000D01*
X139845344Y-108749999D01*
X139904872Y-108743598D01*
X139904879Y-108743596D01*
X140039586Y-108693354D01*
X140039593Y-108693350D01*
X140154687Y-108607190D01*
X140154690Y-108607187D01*
X140240850Y-108492093D01*
X140240854Y-108492086D01*
X140291096Y-108357379D01*
X140291098Y-108357372D01*
X140297499Y-108297844D01*
X140297500Y-108297827D01*
X140297500Y-107750000D01*
X138797500Y-107750000D01*
X138797500Y-108750000D01*
X138297500Y-108750000D01*
X138297500Y-107750000D01*
X136797500Y-107750000D01*
X136797500Y-108297844D01*
X136803901Y-108357372D01*
X136803903Y-108357380D01*
X136820794Y-108402667D01*
X136825778Y-108472359D01*
X136792293Y-108533682D01*
X136730969Y-108567166D01*
X136704612Y-108570000D01*
X136337155Y-108570000D01*
X136277627Y-108576401D01*
X136277620Y-108576403D01*
X136142913Y-108626645D01*
X136142906Y-108626649D01*
X136027812Y-108712809D01*
X136027809Y-108712812D01*
X135941649Y-108827906D01*
X135941645Y-108827913D01*
X135891403Y-108962620D01*
X135891401Y-108962627D01*
X135885000Y-109022155D01*
X130000500Y-109022155D01*
X130000500Y-106702155D01*
X136797500Y-106702155D01*
X136797500Y-107250000D01*
X138297500Y-107250000D01*
X138797500Y-107250000D01*
X140297500Y-107250000D01*
X140297500Y-106702172D01*
X140297499Y-106702155D01*
X140291098Y-106642627D01*
X140291096Y-106642620D01*
X140240854Y-106507913D01*
X140240850Y-106507906D01*
X140154690Y-106392812D01*
X140154687Y-106392809D01*
X140039593Y-106306649D01*
X140039586Y-106306645D01*
X139904879Y-106256403D01*
X139904872Y-106256401D01*
X139845344Y-106250000D01*
X138797500Y-106250000D01*
X138797500Y-107250000D01*
X138297500Y-107250000D01*
X138297500Y-106250000D01*
X137249655Y-106250000D01*
X137190127Y-106256401D01*
X137190120Y-106256403D01*
X137055413Y-106306645D01*
X137055406Y-106306649D01*
X136940312Y-106392809D01*
X136940309Y-106392812D01*
X136854149Y-106507906D01*
X136854145Y-106507913D01*
X136803903Y-106642620D01*
X136803901Y-106642627D01*
X136797500Y-106702155D01*
X130000500Y-106702155D01*
X130000500Y-105287843D01*
X132847500Y-105287843D01*
X132853901Y-105347371D01*
X132853903Y-105347378D01*
X132904145Y-105482085D01*
X132904149Y-105482092D01*
X132990309Y-105597186D01*
X132990312Y-105597189D01*
X133105406Y-105683349D01*
X133105413Y-105683353D01*
X133240120Y-105733595D01*
X133240127Y-105733597D01*
X133299655Y-105739998D01*
X133299672Y-105739999D01*
X134597500Y-105739999D01*
X135097500Y-105739999D01*
X136395328Y-105739999D01*
X136395344Y-105739998D01*
X136454872Y-105733597D01*
X136454879Y-105733595D01*
X136589586Y-105683353D01*
X136589593Y-105683349D01*
X136704687Y-105597189D01*
X136704690Y-105597186D01*
X136790850Y-105482092D01*
X136790854Y-105482085D01*
X136841096Y-105347378D01*
X136841098Y-105347371D01*
X136847499Y-105287843D01*
X136847500Y-105287826D01*
X136847500Y-104989999D01*
X135097500Y-104989999D01*
X135097500Y-105739999D01*
X134597500Y-105739999D01*
X134597500Y-104989999D01*
X132847500Y-104989999D01*
X132847500Y-105287843D01*
X130000500Y-105287843D01*
X130000500Y-97619055D01*
X132046997Y-97619055D01*
X132046998Y-97619058D01*
X132087922Y-97771786D01*
X132115214Y-97819057D01*
X132115214Y-97819058D01*
X132166974Y-97908710D01*
X132166980Y-97908718D01*
X132285848Y-98027586D01*
X132285854Y-98027591D01*
X132810680Y-98552417D01*
X132844165Y-98613740D01*
X132846999Y-98640098D01*
X132846999Y-99287871D01*
X132847000Y-99287877D01*
X132853407Y-99347484D01*
X132903701Y-99482329D01*
X132903705Y-99482336D01*
X132963372Y-99562040D01*
X132989953Y-99597547D01*
X133047644Y-99640734D01*
X133089514Y-99696667D01*
X133094498Y-99766359D01*
X133061013Y-99827682D01*
X133047644Y-99839266D01*
X132989951Y-99882455D01*
X132903705Y-99997664D01*
X132903701Y-99997671D01*
X132853407Y-100132517D01*
X132847000Y-100192116D01*
X132846999Y-100192135D01*
X132846999Y-101287870D01*
X132847000Y-101287876D01*
X132853407Y-101347483D01*
X132903701Y-101482328D01*
X132903705Y-101482335D01*
X132948481Y-101542147D01*
X132989953Y-101597546D01*
X133047644Y-101640734D01*
X133089515Y-101696667D01*
X133094499Y-101766359D01*
X133061014Y-101827682D01*
X133047645Y-101839266D01*
X132989952Y-101882455D01*
X132903706Y-101997664D01*
X132903702Y-101997671D01*
X132853408Y-102132517D01*
X132847001Y-102192116D01*
X132847001Y-102192123D01*
X132847000Y-102192135D01*
X132847000Y-103287870D01*
X132847001Y-103287876D01*
X132853408Y-103347483D01*
X132903702Y-103482328D01*
X132903706Y-103482335D01*
X132989951Y-103597543D01*
X132989952Y-103597544D01*
X132989954Y-103597546D01*
X133048062Y-103641046D01*
X133089932Y-103696978D01*
X133094916Y-103766670D01*
X133061431Y-103827993D01*
X133048062Y-103839577D01*
X132990309Y-103882811D01*
X132904149Y-103997905D01*
X132904145Y-103997912D01*
X132853903Y-104132619D01*
X132853901Y-104132626D01*
X132847500Y-104192154D01*
X132847500Y-104489999D01*
X136847500Y-104489999D01*
X136847500Y-104192171D01*
X136847499Y-104192154D01*
X136841098Y-104132626D01*
X136841096Y-104132619D01*
X136790854Y-103997912D01*
X136790850Y-103997905D01*
X136704690Y-103882811D01*
X136704687Y-103882808D01*
X136646938Y-103839577D01*
X136605067Y-103783644D01*
X136600083Y-103713952D01*
X136633569Y-103652629D01*
X136646931Y-103641050D01*
X136705046Y-103597546D01*
X136791296Y-103482331D01*
X136841591Y-103347483D01*
X136848000Y-103287873D01*
X136847999Y-102192128D01*
X136841591Y-102132517D01*
X136826672Y-102092518D01*
X136791297Y-101997671D01*
X136791293Y-101997664D01*
X136705047Y-101882455D01*
X136705044Y-101882452D01*
X136647354Y-101839265D01*
X136605483Y-101783331D01*
X136600499Y-101713640D01*
X136633985Y-101652317D01*
X136647348Y-101640737D01*
X136705045Y-101597546D01*
X136791295Y-101482331D01*
X136824207Y-101394089D01*
X136841589Y-101347486D01*
X136841589Y-101347485D01*
X136841590Y-101347483D01*
X136843868Y-101326287D01*
X136868953Y-101265721D01*
X136868404Y-101265354D01*
X136870251Y-101262589D01*
X136870603Y-101261740D01*
X136871313Y-101260867D01*
X136871778Y-101260299D01*
X136871789Y-101260289D01*
X136959394Y-101129179D01*
X137019737Y-100983497D01*
X137050500Y-100828842D01*
X137050500Y-100671158D01*
X137050500Y-100671155D01*
X137050499Y-100671153D01*
X137019738Y-100516510D01*
X137019737Y-100516503D01*
X136960711Y-100374000D01*
X136959397Y-100370827D01*
X136959390Y-100370814D01*
X136868405Y-100234646D01*
X136870112Y-100233505D01*
X136846465Y-100177817D01*
X136846342Y-100176723D01*
X136841590Y-100132516D01*
X136791296Y-99997671D01*
X136791292Y-99997664D01*
X136705046Y-99882456D01*
X136705047Y-99882456D01*
X136705045Y-99882454D01*
X136647353Y-99839265D01*
X136605483Y-99783333D01*
X136600499Y-99713641D01*
X136633984Y-99652318D01*
X136647348Y-99640738D01*
X136705045Y-99597547D01*
X136791295Y-99482332D01*
X136841590Y-99347484D01*
X136847999Y-99287874D01*
X136847998Y-98192129D01*
X136841590Y-98132518D01*
X136834001Y-98112172D01*
X136791296Y-97997672D01*
X136791292Y-97997665D01*
X136705046Y-97882456D01*
X136705043Y-97882453D01*
X136647353Y-97839266D01*
X136605482Y-97783332D01*
X136600498Y-97713641D01*
X136633984Y-97652318D01*
X136647344Y-97640740D01*
X136705046Y-97597545D01*
X136791296Y-97482330D01*
X136841591Y-97347482D01*
X136848000Y-97287872D01*
X136847999Y-97101229D01*
X136867683Y-97034192D01*
X136920487Y-96988437D01*
X136989645Y-96978493D01*
X137053201Y-97007518D01*
X137059680Y-97013550D01*
X140213181Y-100167051D01*
X140246666Y-100228374D01*
X140249500Y-100254732D01*
X140249500Y-102384579D01*
X140249500Y-102384581D01*
X140249499Y-102384581D01*
X140278340Y-102529568D01*
X140278343Y-102529578D01*
X140334913Y-102666151D01*
X140334919Y-102666162D01*
X140352097Y-102691869D01*
X140352098Y-102691874D01*
X140352100Y-102691874D01*
X140417043Y-102789071D01*
X140417047Y-102789076D01*
X140943266Y-103315295D01*
X140970145Y-103355521D01*
X140979945Y-103379179D01*
X140979946Y-103379181D01*
X141067546Y-103510284D01*
X141067552Y-103510292D01*
X141179046Y-103621786D01*
X141179050Y-103621789D01*
X141310153Y-103709390D01*
X141310166Y-103709397D01*
X141455837Y-103769735D01*
X141455842Y-103769737D01*
X141610492Y-103800499D01*
X141610495Y-103800500D01*
X141610497Y-103800500D01*
X141768183Y-103800500D01*
X141768184Y-103800499D01*
X141922836Y-103769737D01*
X141928044Y-103767579D01*
X141997509Y-103760107D01*
X142059990Y-103791377D01*
X142095647Y-103851463D01*
X142099501Y-103882138D01*
X142099501Y-104347869D01*
X142099502Y-104347875D01*
X142105909Y-104407482D01*
X142133578Y-104481666D01*
X142138562Y-104551357D01*
X142133579Y-104568328D01*
X142105909Y-104642517D01*
X142099500Y-104702127D01*
X142099500Y-104702134D01*
X142099500Y-104702135D01*
X142099500Y-105197870D01*
X142099501Y-105197876D01*
X142105908Y-105257483D01*
X142133576Y-105331664D01*
X142138560Y-105401355D01*
X142133576Y-105418328D01*
X142105908Y-105492511D01*
X142105908Y-105492513D01*
X142105907Y-105492517D01*
X142099498Y-105552127D01*
X142099498Y-105552134D01*
X142099498Y-105552135D01*
X142099498Y-106047870D01*
X142099499Y-106047876D01*
X142105906Y-106107483D01*
X142133576Y-106181668D01*
X142138560Y-106251360D01*
X142133576Y-106268333D01*
X142105910Y-106342509D01*
X142105909Y-106342513D01*
X142105909Y-106342515D01*
X142099500Y-106402125D01*
X142099500Y-106402129D01*
X142099500Y-106402133D01*
X142099500Y-106897868D01*
X142099501Y-106897874D01*
X142105909Y-106957482D01*
X142133577Y-107031666D01*
X142138561Y-107101357D01*
X142133577Y-107118330D01*
X142105910Y-107192510D01*
X142105909Y-107192514D01*
X142105909Y-107192516D01*
X142099500Y-107252126D01*
X142099500Y-107252130D01*
X142099500Y-107252134D01*
X142099500Y-107747869D01*
X142099501Y-107747875D01*
X142105909Y-107807484D01*
X142133577Y-107881668D01*
X142138561Y-107951360D01*
X142133578Y-107968331D01*
X142105909Y-108042516D01*
X142099502Y-108102115D01*
X142099502Y-108102123D01*
X142099501Y-108102134D01*
X142099501Y-108445500D01*
X142079816Y-108512539D01*
X142027012Y-108558294D01*
X141975501Y-108569500D01*
X140697129Y-108569500D01*
X140697123Y-108569501D01*
X140637516Y-108575908D01*
X140502671Y-108626202D01*
X140502664Y-108626206D01*
X140387455Y-108712452D01*
X140387452Y-108712455D01*
X140301206Y-108827664D01*
X140301202Y-108827671D01*
X140250908Y-108962517D01*
X140244501Y-109022116D01*
X140244500Y-109022135D01*
X140244500Y-110977870D01*
X140244501Y-110977876D01*
X140250908Y-111037483D01*
X140301202Y-111172328D01*
X140301206Y-111172335D01*
X140387452Y-111287544D01*
X140387455Y-111287547D01*
X140502664Y-111373793D01*
X140502671Y-111373797D01*
X140637513Y-111424090D01*
X140637514Y-111424090D01*
X140637517Y-111424091D01*
X140648755Y-111425299D01*
X140713304Y-111452035D01*
X140753154Y-111509426D01*
X140759500Y-111548588D01*
X140759500Y-112584791D01*
X140739815Y-112651830D01*
X140709812Y-112684057D01*
X140622452Y-112749455D01*
X140536206Y-112864664D01*
X140536202Y-112864671D01*
X140485910Y-112999513D01*
X140485909Y-112999517D01*
X140479500Y-113059127D01*
X140479500Y-113059134D01*
X140479500Y-113059135D01*
X140479500Y-113720870D01*
X140479501Y-113720876D01*
X140485908Y-113780479D01*
X140487692Y-113788026D01*
X140486194Y-113788379D01*
X140492017Y-113828418D01*
X140490791Y-113846425D01*
X140485909Y-113859517D01*
X140479500Y-113919127D01*
X140479500Y-114012342D01*
X140479214Y-114016545D01*
X140478472Y-114018553D01*
X140477117Y-114032318D01*
X140449500Y-114171155D01*
X140449500Y-114328846D01*
X140477117Y-114467685D01*
X140479500Y-114491875D01*
X140479500Y-114580869D01*
X140479501Y-114580876D01*
X140485908Y-114640483D01*
X140536202Y-114775328D01*
X140536206Y-114775335D01*
X140622452Y-114890544D01*
X140622455Y-114890547D01*
X140737664Y-114976793D01*
X140737671Y-114976797D01*
X140782618Y-114993561D01*
X140872517Y-115027091D01*
X140932127Y-115033500D01*
X141073478Y-115033499D01*
X141097672Y-115035882D01*
X141171157Y-115050500D01*
X141171158Y-115050500D01*
X141328843Y-115050500D01*
X141402330Y-115035882D01*
X141426522Y-115033499D01*
X141567871Y-115033499D01*
X141567872Y-115033499D01*
X141627483Y-115027091D01*
X141762331Y-114976796D01*
X141877546Y-114890546D01*
X141877806Y-114890198D01*
X141878154Y-114889937D01*
X141883817Y-114884275D01*
X141884630Y-114885088D01*
X141933734Y-114848324D01*
X142003425Y-114843334D01*
X142064751Y-114876813D01*
X142098241Y-114938134D01*
X142100366Y-114951244D01*
X142106401Y-115007373D01*
X142106403Y-115007379D01*
X142156645Y-115142086D01*
X142156649Y-115142093D01*
X142242809Y-115257187D01*
X142242812Y-115257190D01*
X142357906Y-115343350D01*
X142357913Y-115343354D01*
X142492620Y-115393596D01*
X142492627Y-115393598D01*
X142552155Y-115399999D01*
X142552172Y-115400000D01*
X142750000Y-115400000D01*
X143250000Y-115400000D01*
X143447828Y-115400000D01*
X143447844Y-115399999D01*
X143507377Y-115393597D01*
X143507379Y-115393597D01*
X143581666Y-115365889D01*
X143651358Y-115360903D01*
X143668336Y-115365889D01*
X143742621Y-115393596D01*
X143802155Y-115399998D01*
X143802172Y-115399999D01*
X143850000Y-115399999D01*
X144250000Y-115399999D01*
X144297828Y-115399999D01*
X144297844Y-115399998D01*
X144357372Y-115393597D01*
X144357375Y-115393596D01*
X144431663Y-115365888D01*
X144501355Y-115360902D01*
X144518331Y-115365887D01*
X144592628Y-115393598D01*
X144652157Y-115399999D01*
X144652174Y-115400000D01*
X144700002Y-115400000D01*
X145100002Y-115400000D01*
X145147830Y-115400000D01*
X145147846Y-115399999D01*
X145207379Y-115393597D01*
X145207381Y-115393597D01*
X145281666Y-115365890D01*
X145351358Y-115360905D01*
X145368336Y-115365890D01*
X145442621Y-115393597D01*
X145502155Y-115399999D01*
X145502172Y-115400000D01*
X145550000Y-115400000D01*
X145950000Y-115400000D01*
X145997828Y-115400000D01*
X145997844Y-115399999D01*
X146057371Y-115393598D01*
X146131666Y-115365888D01*
X146201358Y-115360904D01*
X146218335Y-115365889D01*
X146292620Y-115393596D01*
X146352154Y-115399998D01*
X146352171Y-115399999D01*
X146399999Y-115399999D01*
X146799999Y-115399999D01*
X146847827Y-115399999D01*
X146847843Y-115399998D01*
X146907376Y-115393596D01*
X146907378Y-115393596D01*
X146981663Y-115365889D01*
X147051355Y-115360904D01*
X147068332Y-115365888D01*
X147142623Y-115393597D01*
X147142627Y-115393598D01*
X147202155Y-115399999D01*
X147202172Y-115400000D01*
X147250000Y-115400000D01*
X147650000Y-115400000D01*
X147697828Y-115400000D01*
X147697844Y-115399999D01*
X147757371Y-115393598D01*
X147831663Y-115365889D01*
X147901354Y-115360905D01*
X147918331Y-115365889D01*
X147992628Y-115393600D01*
X147992627Y-115393600D01*
X148052155Y-115400001D01*
X148052172Y-115400002D01*
X148100000Y-115400002D01*
X148500000Y-115400002D01*
X148547828Y-115400002D01*
X148547844Y-115400001D01*
X148607377Y-115393599D01*
X148607379Y-115393599D01*
X148681666Y-115365891D01*
X148751358Y-115360905D01*
X148768335Y-115365890D01*
X148842621Y-115393597D01*
X148842625Y-115393598D01*
X148902153Y-115399999D01*
X148902170Y-115400000D01*
X148949998Y-115400000D01*
X149349998Y-115400000D01*
X149397826Y-115400000D01*
X149397842Y-115399999D01*
X149457370Y-115393598D01*
X149457373Y-115393597D01*
X149531662Y-115365889D01*
X149601354Y-115360904D01*
X149618331Y-115365889D01*
X149692616Y-115393596D01*
X149692621Y-115393597D01*
X149752154Y-115399999D01*
X149752171Y-115400000D01*
X149799999Y-115400000D01*
X150199999Y-115400000D01*
X150247827Y-115400000D01*
X150247843Y-115399999D01*
X150307376Y-115393597D01*
X150307378Y-115393597D01*
X150381665Y-115365889D01*
X150451357Y-115360903D01*
X150468335Y-115365889D01*
X150542620Y-115393596D01*
X150602154Y-115399998D01*
X150602171Y-115399999D01*
X150649999Y-115399999D01*
X151049999Y-115399999D01*
X151097827Y-115399999D01*
X151097843Y-115399998D01*
X151157376Y-115393596D01*
X151157378Y-115393596D01*
X151231663Y-115365889D01*
X151301355Y-115360904D01*
X151318332Y-115365888D01*
X151392623Y-115393597D01*
X151392627Y-115393598D01*
X151452155Y-115399999D01*
X151452172Y-115400000D01*
X151500000Y-115400000D01*
X151900000Y-115400000D01*
X151947828Y-115400000D01*
X151947844Y-115399999D01*
X152007377Y-115393597D01*
X152007379Y-115393597D01*
X152081666Y-115365889D01*
X152151358Y-115360903D01*
X152168336Y-115365889D01*
X152242621Y-115393596D01*
X152302155Y-115399998D01*
X152302172Y-115399999D01*
X152350000Y-115399999D01*
X152750000Y-115399999D01*
X152797828Y-115399999D01*
X152797844Y-115399998D01*
X152857371Y-115393597D01*
X152931663Y-115365888D01*
X153001354Y-115360904D01*
X153018331Y-115365888D01*
X153092628Y-115393599D01*
X153092627Y-115393599D01*
X153152155Y-115400000D01*
X153152172Y-115400001D01*
X153200000Y-115400001D01*
X153600000Y-115400001D01*
X153647828Y-115400001D01*
X153647844Y-115400000D01*
X153707372Y-115393599D01*
X153707375Y-115393598D01*
X153781666Y-115365889D01*
X153851358Y-115360903D01*
X153868336Y-115365889D01*
X153942621Y-115393596D01*
X154002155Y-115399998D01*
X154002172Y-115399999D01*
X154050000Y-115399999D01*
X154450000Y-115399999D01*
X154497828Y-115399999D01*
X154497844Y-115399998D01*
X154557371Y-115393597D01*
X154631666Y-115365887D01*
X154701358Y-115360903D01*
X154718334Y-115365887D01*
X154792628Y-115393597D01*
X154792627Y-115393597D01*
X154852155Y-115399998D01*
X154852172Y-115399999D01*
X154900000Y-115399999D01*
X155300000Y-115399999D01*
X155347828Y-115399999D01*
X155347844Y-115399998D01*
X155407377Y-115393596D01*
X155407379Y-115393596D01*
X155481663Y-115365889D01*
X155551355Y-115360903D01*
X155568332Y-115365888D01*
X155642623Y-115393597D01*
X155642627Y-115393598D01*
X155702155Y-115399999D01*
X155702172Y-115400000D01*
X155750000Y-115400000D01*
X156150000Y-115400000D01*
X156197828Y-115400000D01*
X156197844Y-115399999D01*
X156257371Y-115393598D01*
X156331666Y-115365888D01*
X156401358Y-115360904D01*
X156418334Y-115365888D01*
X156492628Y-115393598D01*
X156492627Y-115393598D01*
X156552155Y-115399999D01*
X156552172Y-115400000D01*
X156750000Y-115400000D01*
X157250000Y-115400000D01*
X157447828Y-115400000D01*
X157447844Y-115399999D01*
X157507372Y-115393598D01*
X157507379Y-115393596D01*
X157642086Y-115343354D01*
X157642093Y-115343350D01*
X157757187Y-115257190D01*
X157757190Y-115257187D01*
X157843350Y-115142093D01*
X157843354Y-115142086D01*
X157893596Y-115007379D01*
X157893598Y-115007372D01*
X157899999Y-114947844D01*
X157900000Y-114947827D01*
X157900000Y-114750000D01*
X157250000Y-114750000D01*
X157250000Y-115400000D01*
X156750000Y-115400000D01*
X156750000Y-114750000D01*
X156150000Y-114750000D01*
X156150000Y-115400000D01*
X155750000Y-115400000D01*
X155750000Y-114700000D01*
X155300000Y-114700000D01*
X155300000Y-115399999D01*
X154900000Y-115399999D01*
X154900000Y-114699999D01*
X154450000Y-114699999D01*
X154450000Y-115399999D01*
X154050000Y-115399999D01*
X154050000Y-114700001D01*
X153600000Y-114700001D01*
X153600000Y-115400001D01*
X153200000Y-115400001D01*
X153200000Y-114700001D01*
X152750000Y-114700001D01*
X152750000Y-115399999D01*
X152350000Y-115399999D01*
X152350000Y-114700000D01*
X151900000Y-114700000D01*
X151900000Y-115400000D01*
X151500000Y-115400000D01*
X151500000Y-114700000D01*
X151049999Y-114700000D01*
X151049999Y-115399999D01*
X150649999Y-115399999D01*
X150649999Y-114700000D01*
X150199999Y-114700000D01*
X150199999Y-115400000D01*
X149799999Y-115400000D01*
X149799999Y-114700000D01*
X149349998Y-114700000D01*
X149349998Y-115400000D01*
X148949998Y-115400000D01*
X148949998Y-114700002D01*
X148500000Y-114700002D01*
X148500000Y-115400002D01*
X148100000Y-115400002D01*
X148100000Y-114700002D01*
X147650000Y-114700002D01*
X147650000Y-115400000D01*
X147250000Y-115400000D01*
X147250000Y-114700000D01*
X146799999Y-114700000D01*
X146799999Y-115399999D01*
X146399999Y-115399999D01*
X146399999Y-114700000D01*
X145950000Y-114700000D01*
X145950000Y-115400000D01*
X145550000Y-115400000D01*
X145550000Y-114700000D01*
X145100002Y-114700000D01*
X145100002Y-115400000D01*
X144700002Y-115400000D01*
X144700002Y-114700000D01*
X144250000Y-114700000D01*
X144250000Y-115399999D01*
X143850000Y-115399999D01*
X143850000Y-114750000D01*
X143250000Y-114750000D01*
X143250000Y-115400000D01*
X142750000Y-115400000D01*
X142750000Y-114624000D01*
X142769685Y-114556961D01*
X142822489Y-114511206D01*
X142874000Y-114500000D01*
X143000000Y-114500000D01*
X143000000Y-114374000D01*
X143019685Y-114306961D01*
X143027719Y-114300000D01*
X145100002Y-114300000D01*
X145550000Y-114300000D01*
X147650000Y-114300000D01*
X148100000Y-114300000D01*
X148100000Y-113600002D01*
X148500000Y-113600002D01*
X148500000Y-114300000D01*
X148949998Y-114300000D01*
X149349998Y-114300000D01*
X149799999Y-114300000D01*
X149799999Y-113600000D01*
X150199999Y-113600000D01*
X150199999Y-114299999D01*
X150649999Y-114299999D01*
X151049999Y-114299999D01*
X151500000Y-114299999D01*
X151500000Y-113600000D01*
X151900000Y-113600000D01*
X151900000Y-114299999D01*
X152350000Y-114299999D01*
X152750000Y-114299999D01*
X153200000Y-114299999D01*
X153200000Y-113600001D01*
X153600000Y-113600001D01*
X153600000Y-114299999D01*
X154050000Y-114299999D01*
X154450000Y-114299999D01*
X154900000Y-114299999D01*
X155300000Y-114299999D01*
X155750000Y-114299999D01*
X155750000Y-114250000D01*
X156150000Y-114250000D01*
X156750000Y-114250000D01*
X157250000Y-114250000D01*
X157900000Y-114250000D01*
X157900000Y-114052172D01*
X157899999Y-114052155D01*
X157893598Y-113992627D01*
X157893597Y-113992623D01*
X157865888Y-113918332D01*
X157860904Y-113848640D01*
X157865889Y-113831663D01*
X157893596Y-113757379D01*
X157893596Y-113757377D01*
X157899998Y-113697844D01*
X157899999Y-113697827D01*
X157899999Y-113650000D01*
X157250000Y-113650000D01*
X157250000Y-114250000D01*
X156750000Y-114250000D01*
X156750000Y-113650000D01*
X156150000Y-113650000D01*
X156150000Y-114250000D01*
X155750000Y-114250000D01*
X155750000Y-113600000D01*
X155702155Y-113600000D01*
X155642627Y-113606401D01*
X155642616Y-113606404D01*
X155568333Y-113634109D01*
X155498641Y-113639093D01*
X155481669Y-113634109D01*
X155407383Y-113606403D01*
X155407372Y-113606400D01*
X155347844Y-113599999D01*
X155300000Y-113599999D01*
X155300000Y-114299999D01*
X154900000Y-114299999D01*
X154900000Y-113599999D01*
X154852155Y-113599999D01*
X154792627Y-113606400D01*
X154792617Y-113606402D01*
X154718332Y-113634109D01*
X154648641Y-113639093D01*
X154631668Y-113634109D01*
X154557382Y-113606402D01*
X154557372Y-113606400D01*
X154497844Y-113599999D01*
X154450000Y-113599999D01*
X154450000Y-114299999D01*
X154050000Y-114299999D01*
X154050000Y-113599999D01*
X154002155Y-113599999D01*
X153942627Y-113606400D01*
X153942616Y-113606402D01*
X153868329Y-113634110D01*
X153798638Y-113639094D01*
X153781664Y-113634110D01*
X153707380Y-113606404D01*
X153707372Y-113606402D01*
X153647844Y-113600001D01*
X153600000Y-113600001D01*
X153200000Y-113600001D01*
X153152155Y-113600001D01*
X153092627Y-113606402D01*
X153092616Y-113606405D01*
X153018334Y-113634110D01*
X152948642Y-113639094D01*
X152931669Y-113634110D01*
X152857380Y-113606402D01*
X152857372Y-113606400D01*
X152797844Y-113599999D01*
X152750000Y-113599999D01*
X152750000Y-114299999D01*
X152350000Y-114299999D01*
X152350000Y-113599999D01*
X152302155Y-113599999D01*
X152242627Y-113606400D01*
X152242619Y-113606402D01*
X152168331Y-113634110D01*
X152098639Y-113639094D01*
X152081665Y-113634110D01*
X152007379Y-113606403D01*
X152007372Y-113606401D01*
X151947844Y-113600000D01*
X151900000Y-113600000D01*
X151500000Y-113600000D01*
X151452155Y-113600000D01*
X151392627Y-113606401D01*
X151392617Y-113606403D01*
X151318332Y-113634110D01*
X151248641Y-113639094D01*
X151231667Y-113634110D01*
X151157378Y-113606402D01*
X151157371Y-113606400D01*
X151097843Y-113599999D01*
X151049999Y-113599999D01*
X151049999Y-114299999D01*
X150649999Y-114299999D01*
X150649999Y-113599999D01*
X150602154Y-113599999D01*
X150542626Y-113606400D01*
X150542618Y-113606402D01*
X150468330Y-113634110D01*
X150398638Y-113639094D01*
X150381664Y-113634110D01*
X150307378Y-113606403D01*
X150307371Y-113606401D01*
X150247843Y-113600000D01*
X150199999Y-113600000D01*
X149799999Y-113600000D01*
X149752154Y-113600000D01*
X149692626Y-113606401D01*
X149692615Y-113606404D01*
X149618330Y-113634110D01*
X149548638Y-113639094D01*
X149531666Y-113634110D01*
X149457380Y-113606403D01*
X149457370Y-113606401D01*
X149397842Y-113600000D01*
X149349998Y-113600000D01*
X149349998Y-114300000D01*
X148949998Y-114300000D01*
X148949998Y-113600000D01*
X148902153Y-113600000D01*
X148842625Y-113606401D01*
X148842617Y-113606403D01*
X148768329Y-113634111D01*
X148698637Y-113639095D01*
X148681663Y-113634111D01*
X148607379Y-113606405D01*
X148607372Y-113606403D01*
X148547844Y-113600002D01*
X148500000Y-113600002D01*
X148100000Y-113600002D01*
X148052155Y-113600002D01*
X147992627Y-113606403D01*
X147992616Y-113606406D01*
X147918334Y-113634111D01*
X147848642Y-113639095D01*
X147831669Y-113634111D01*
X147757380Y-113606403D01*
X147757372Y-113606401D01*
X147697844Y-113600000D01*
X147650000Y-113600000D01*
X147650000Y-114300000D01*
X145550000Y-114300000D01*
X145550000Y-113600000D01*
X145950000Y-113600000D01*
X145950000Y-114299999D01*
X146399999Y-114299999D01*
X146799999Y-114299999D01*
X147250000Y-114299999D01*
X147250000Y-113600000D01*
X147202155Y-113600000D01*
X147142627Y-113606401D01*
X147142617Y-113606403D01*
X147068332Y-113634110D01*
X146998641Y-113639094D01*
X146981667Y-113634110D01*
X146907378Y-113606402D01*
X146907371Y-113606400D01*
X146847843Y-113599999D01*
X146799999Y-113599999D01*
X146799999Y-114299999D01*
X146399999Y-114299999D01*
X146399999Y-113599999D01*
X146352154Y-113599999D01*
X146292626Y-113606400D01*
X146292615Y-113606403D01*
X146218330Y-113634109D01*
X146148638Y-113639093D01*
X146131666Y-113634109D01*
X146057383Y-113606404D01*
X146057372Y-113606401D01*
X145997844Y-113600000D01*
X145950000Y-113600000D01*
X145550000Y-113600000D01*
X145502155Y-113600000D01*
X145442627Y-113606401D01*
X145442616Y-113606404D01*
X145368333Y-113634109D01*
X145298641Y-113639093D01*
X145281669Y-113634109D01*
X145207385Y-113606404D01*
X145207374Y-113606401D01*
X145147846Y-113600000D01*
X145100002Y-113600000D01*
X145100002Y-114300000D01*
X143027719Y-114300000D01*
X143027720Y-114299999D01*
X144250000Y-114299999D01*
X144700002Y-114299999D01*
X144700002Y-113600000D01*
X144652157Y-113600000D01*
X144592629Y-113606401D01*
X144592619Y-113606403D01*
X144518334Y-113634110D01*
X144448643Y-113639094D01*
X144431669Y-113634110D01*
X144357380Y-113606402D01*
X144357372Y-113606400D01*
X144297844Y-113599999D01*
X144250000Y-113599999D01*
X144250000Y-114299999D01*
X143027720Y-114299999D01*
X143072489Y-114261206D01*
X143124000Y-114250000D01*
X143850000Y-114250000D01*
X143850000Y-113898068D01*
X143857817Y-113854737D01*
X143894091Y-113757483D01*
X143900500Y-113697873D01*
X143900499Y-113202155D01*
X156099999Y-113202155D01*
X156099999Y-113250000D01*
X156799999Y-113250000D01*
X157200000Y-113250000D01*
X157931079Y-113250000D01*
X157998118Y-113269685D01*
X158027639Y-113298169D01*
X158122628Y-113333598D01*
X158122627Y-113333598D01*
X158182155Y-113339999D01*
X158182172Y-113340000D01*
X158250000Y-113340000D01*
X158750000Y-113340000D01*
X158817828Y-113340000D01*
X158817844Y-113339999D01*
X158877372Y-113333598D01*
X158877376Y-113333597D01*
X159012090Y-113283351D01*
X159050688Y-113254457D01*
X159116152Y-113230039D01*
X159184425Y-113244890D01*
X159199312Y-113254457D01*
X159237909Y-113283351D01*
X159372623Y-113333597D01*
X159372627Y-113333598D01*
X159432155Y-113339999D01*
X159432172Y-113340000D01*
X159500000Y-113340000D01*
X159500000Y-112842452D01*
X160000000Y-112842452D01*
X160000000Y-113340000D01*
X160067828Y-113340000D01*
X160067844Y-113339999D01*
X160127372Y-113333598D01*
X160127379Y-113333596D01*
X160262086Y-113283354D01*
X160262093Y-113283350D01*
X160377187Y-113197190D01*
X160377190Y-113197187D01*
X160463350Y-113082093D01*
X160463354Y-113082086D01*
X160513596Y-112947379D01*
X160513598Y-112947372D01*
X160519999Y-112887844D01*
X160520000Y-112887827D01*
X160520000Y-112840000D01*
X160002623Y-112840000D01*
X160000000Y-112842452D01*
X159500000Y-112842452D01*
X159500000Y-112840000D01*
X158750000Y-112840000D01*
X158750000Y-113340000D01*
X158250000Y-113340000D01*
X158250000Y-112840000D01*
X157691364Y-112840000D01*
X157624325Y-112820315D01*
X157603683Y-112803681D01*
X157600000Y-112799998D01*
X157200000Y-112799998D01*
X157200000Y-113250000D01*
X156799999Y-113250000D01*
X156799999Y-112799998D01*
X156100000Y-112799998D01*
X156100000Y-112847842D01*
X156106402Y-112907375D01*
X156106402Y-112907376D01*
X156134110Y-112981664D01*
X156139094Y-113051355D01*
X156134110Y-113068329D01*
X156106402Y-113142616D01*
X156106400Y-113142627D01*
X156099999Y-113202155D01*
X143900499Y-113202155D01*
X143900499Y-113202128D01*
X143894091Y-113142517D01*
X143863807Y-113061323D01*
X143862055Y-113054051D01*
X143863417Y-113026329D01*
X143861438Y-112998643D01*
X143865451Y-112984973D01*
X143865486Y-112984266D01*
X143865779Y-112983854D01*
X143866419Y-112981676D01*
X143894092Y-112907483D01*
X143900501Y-112847873D01*
X143900500Y-112352128D01*
X143894092Y-112292517D01*
X143866155Y-112217616D01*
X143861172Y-112147927D01*
X143866157Y-112130950D01*
X143893598Y-112057379D01*
X143893598Y-112057377D01*
X143900000Y-111997844D01*
X143900001Y-111997827D01*
X143900001Y-111950000D01*
X143648070Y-111950000D01*
X143604737Y-111942182D01*
X143507483Y-111905908D01*
X143507484Y-111905908D01*
X143447884Y-111899501D01*
X143447882Y-111899500D01*
X143447874Y-111899500D01*
X143447866Y-111899500D01*
X143124001Y-111899500D01*
X143056962Y-111879815D01*
X143049760Y-111874819D01*
X142849758Y-111725319D01*
X142831322Y-111700727D01*
X142811205Y-111677511D01*
X142810096Y-111672413D01*
X142807848Y-111669415D01*
X142807054Y-111658433D01*
X142799999Y-111626000D01*
X142799999Y-111550000D01*
X143200001Y-111550000D01*
X143900001Y-111550000D01*
X143900001Y-111502172D01*
X143900000Y-111502155D01*
X143893599Y-111442627D01*
X143865888Y-111368331D01*
X143860904Y-111298639D01*
X143865888Y-111281663D01*
X143893597Y-111207371D01*
X143899998Y-111147844D01*
X143899999Y-111147827D01*
X143899999Y-111100000D01*
X143200001Y-111100000D01*
X143200001Y-111550000D01*
X142799999Y-111550000D01*
X142799999Y-111024000D01*
X142819684Y-110956961D01*
X142872488Y-110911206D01*
X142923999Y-110900000D01*
X142999999Y-110900000D01*
X142999999Y-110874499D01*
X143019684Y-110807460D01*
X143072488Y-110761705D01*
X143123997Y-110750499D01*
X143447873Y-110750499D01*
X143507484Y-110744091D01*
X143604737Y-110707817D01*
X143648070Y-110700000D01*
X143899999Y-110700000D01*
X143899999Y-110652172D01*
X143899998Y-110652155D01*
X143893596Y-110592622D01*
X143893596Y-110592620D01*
X143866156Y-110519052D01*
X143861171Y-110449360D01*
X143866154Y-110432388D01*
X143894092Y-110357483D01*
X143900501Y-110297873D01*
X143900500Y-109802128D01*
X143900039Y-109797844D01*
X147250000Y-109797844D01*
X147256401Y-109857372D01*
X147256403Y-109857379D01*
X147306645Y-109992086D01*
X147306649Y-109992093D01*
X147392809Y-110107187D01*
X147392812Y-110107190D01*
X147507906Y-110193350D01*
X147507913Y-110193354D01*
X147642620Y-110243596D01*
X147642627Y-110243598D01*
X147702155Y-110249999D01*
X147702172Y-110250000D01*
X148100000Y-110250000D01*
X148600000Y-110250000D01*
X148997828Y-110250000D01*
X148997844Y-110249999D01*
X149057371Y-110243598D01*
X149131666Y-110215888D01*
X149201358Y-110210904D01*
X149218334Y-110215888D01*
X149292628Y-110243598D01*
X149292627Y-110243598D01*
X149352155Y-110249999D01*
X149352172Y-110250000D01*
X149750000Y-110250000D01*
X150250000Y-110250000D01*
X150647828Y-110250000D01*
X150647844Y-110249999D01*
X150707371Y-110243598D01*
X150707537Y-110243537D01*
X150707674Y-110243527D01*
X150714924Y-110241814D01*
X150715201Y-110242988D01*
X150777229Y-110238548D01*
X150814155Y-110253077D01*
X150817975Y-110255344D01*
X150817978Y-110255345D01*
X150856848Y-110271446D01*
X150907856Y-110289441D01*
X151050129Y-110309896D01*
X151050131Y-110309897D01*
X151650131Y-110309897D01*
X151704107Y-110307003D01*
X151704109Y-110307003D01*
X151843375Y-110271458D01*
X151843387Y-110271454D01*
X151882254Y-110255355D01*
X151882283Y-110255342D01*
X151931036Y-110232017D01*
X151931041Y-110232014D01*
X152046105Y-110145877D01*
X152046117Y-110145867D01*
X152646092Y-109545891D01*
X152646123Y-109545859D01*
X152682228Y-109505662D01*
X152682236Y-109505652D01*
X152755573Y-109382047D01*
X152755578Y-109382038D01*
X152771675Y-109343177D01*
X152789670Y-109292169D01*
X152810125Y-109149896D01*
X152810126Y-109149895D01*
X152810126Y-108549896D01*
X152807232Y-108495919D01*
X152807232Y-108495917D01*
X152771687Y-108356651D01*
X152771685Y-108356644D01*
X152755575Y-108317752D01*
X152751141Y-108309633D01*
X152736284Y-108241361D01*
X152742025Y-108214975D01*
X152741814Y-108214926D01*
X152743598Y-108207375D01*
X152749999Y-108147844D01*
X152750000Y-108147827D01*
X152750000Y-107750000D01*
X150250000Y-107750000D01*
X150250000Y-110250000D01*
X149750000Y-110250000D01*
X149750000Y-109400000D01*
X148600000Y-109400000D01*
X148600000Y-110250000D01*
X148100000Y-110250000D01*
X148100000Y-109400000D01*
X147250000Y-109400000D01*
X147250000Y-109797844D01*
X143900039Y-109797844D01*
X143894092Y-109742517D01*
X143866421Y-109668329D01*
X143861438Y-109598640D01*
X143866421Y-109581668D01*
X143894091Y-109507483D01*
X143900500Y-109447873D01*
X143900499Y-109192861D01*
X143900499Y-108952129D01*
X143900498Y-108952123D01*
X143896758Y-108917333D01*
X143894091Y-108892517D01*
X143866421Y-108818332D01*
X143861438Y-108748642D01*
X143866421Y-108731670D01*
X143894092Y-108657482D01*
X143900501Y-108597872D01*
X143900500Y-108147844D01*
X147250000Y-108147844D01*
X147256401Y-108207372D01*
X147256403Y-108207382D01*
X147284110Y-108281668D01*
X147289094Y-108351359D01*
X147284110Y-108368332D01*
X147256403Y-108442617D01*
X147256401Y-108442627D01*
X147250000Y-108502155D01*
X147250000Y-108900000D01*
X148100000Y-108900000D01*
X148600000Y-108900000D01*
X149750000Y-108900000D01*
X149750000Y-107750000D01*
X148600000Y-107750000D01*
X148600000Y-108900000D01*
X148100000Y-108900000D01*
X148100000Y-107750000D01*
X147250000Y-107750000D01*
X147250000Y-108147844D01*
X143900500Y-108147844D01*
X143900500Y-108102127D01*
X143894092Y-108042516D01*
X143866421Y-107968328D01*
X143860675Y-107902430D01*
X143862642Y-107891797D01*
X143894091Y-107807482D01*
X143900500Y-107747872D01*
X143900499Y-107252127D01*
X143894091Y-107192516D01*
X143866420Y-107118329D01*
X143861437Y-107048639D01*
X143866420Y-107031666D01*
X143894091Y-106957481D01*
X143900500Y-106897871D01*
X143900499Y-106497844D01*
X147250000Y-106497844D01*
X147256401Y-106557372D01*
X147256403Y-106557382D01*
X147284110Y-106631668D01*
X147289094Y-106701359D01*
X147284110Y-106718332D01*
X147256403Y-106792617D01*
X147256401Y-106792627D01*
X147250000Y-106852155D01*
X147250000Y-107250000D01*
X148100000Y-107250000D01*
X148600000Y-107250000D01*
X149750000Y-107250000D01*
X150250000Y-107250000D01*
X151400000Y-107250000D01*
X151900000Y-107250000D01*
X152750000Y-107250000D01*
X152750000Y-106852172D01*
X152749999Y-106852155D01*
X152743598Y-106792628D01*
X152715888Y-106718334D01*
X152710904Y-106648642D01*
X152715888Y-106631666D01*
X152743598Y-106557371D01*
X152749999Y-106497844D01*
X152750000Y-106497827D01*
X152750000Y-106100000D01*
X151900000Y-106100000D01*
X151900000Y-107250000D01*
X151400000Y-107250000D01*
X151400000Y-106100000D01*
X150250000Y-106100000D01*
X150250000Y-107250000D01*
X149750000Y-107250000D01*
X149750000Y-106100000D01*
X148600000Y-106100000D01*
X148600000Y-107250000D01*
X148100000Y-107250000D01*
X148100000Y-106100000D01*
X147250000Y-106100000D01*
X147250000Y-106497844D01*
X143900499Y-106497844D01*
X143900499Y-106402126D01*
X143894091Y-106342515D01*
X143866420Y-106268327D01*
X143865066Y-106249393D01*
X143858773Y-106231486D01*
X143862192Y-106209208D01*
X143861437Y-106198638D01*
X143861960Y-106196337D01*
X143863734Y-106188866D01*
X143894089Y-106107483D01*
X143900498Y-106047873D01*
X143900497Y-105552128D01*
X143894089Y-105492517D01*
X143866420Y-105418334D01*
X143865065Y-105399384D01*
X143858771Y-105381458D01*
X143862191Y-105359197D01*
X143861437Y-105348644D01*
X143861968Y-105346309D01*
X143863740Y-105338856D01*
X143894091Y-105257483D01*
X143900040Y-105202155D01*
X147250000Y-105202155D01*
X147250000Y-105600000D01*
X148100000Y-105600000D01*
X148600000Y-105600000D01*
X149750000Y-105600000D01*
X150250000Y-105600000D01*
X151400000Y-105600000D01*
X151900000Y-105600000D01*
X152750000Y-105600000D01*
X152750000Y-105202172D01*
X152749999Y-105202155D01*
X152743598Y-105142627D01*
X152743596Y-105142620D01*
X152693354Y-105007913D01*
X152693350Y-105007906D01*
X152607190Y-104892812D01*
X152607187Y-104892809D01*
X152492093Y-104806649D01*
X152492086Y-104806645D01*
X152357379Y-104756403D01*
X152357372Y-104756401D01*
X152297844Y-104750000D01*
X151900000Y-104750000D01*
X151900000Y-105600000D01*
X151400000Y-105600000D01*
X151400000Y-104750000D01*
X151002155Y-104750000D01*
X150942627Y-104756401D01*
X150942617Y-104756403D01*
X150868332Y-104784110D01*
X150798641Y-104789094D01*
X150781668Y-104784110D01*
X150707382Y-104756403D01*
X150707372Y-104756401D01*
X150647844Y-104750000D01*
X150250000Y-104750000D01*
X150250000Y-105600000D01*
X149750000Y-105600000D01*
X149750000Y-104750000D01*
X149352155Y-104750000D01*
X149292627Y-104756401D01*
X149292617Y-104756403D01*
X149218332Y-104784110D01*
X149148641Y-104789094D01*
X149131668Y-104784110D01*
X149057382Y-104756403D01*
X149057372Y-104756401D01*
X148997844Y-104750000D01*
X148600000Y-104750000D01*
X148600000Y-105600000D01*
X148100000Y-105600000D01*
X148100000Y-104750000D01*
X147702155Y-104750000D01*
X147642627Y-104756401D01*
X147642620Y-104756403D01*
X147507913Y-104806645D01*
X147507906Y-104806649D01*
X147392812Y-104892809D01*
X147392809Y-104892812D01*
X147306649Y-105007906D01*
X147306645Y-105007913D01*
X147256403Y-105142620D01*
X147256401Y-105142627D01*
X147250000Y-105202155D01*
X143900040Y-105202155D01*
X143900500Y-105197873D01*
X143900499Y-104702128D01*
X143894091Y-104642517D01*
X143866421Y-104568332D01*
X143861438Y-104498642D01*
X143866419Y-104481675D01*
X143894092Y-104407482D01*
X143900501Y-104347872D01*
X143900500Y-103852127D01*
X143894092Y-103792516D01*
X143866421Y-103718329D01*
X143861438Y-103648639D01*
X143866417Y-103631677D01*
X143894091Y-103557483D01*
X143900500Y-103497873D01*
X143900499Y-103002128D01*
X143894091Y-102942517D01*
X143866421Y-102868332D01*
X143861438Y-102798643D01*
X143866423Y-102781667D01*
X143894088Y-102707493D01*
X143894089Y-102707490D01*
X143894088Y-102707490D01*
X143894091Y-102707485D01*
X143900500Y-102647875D01*
X143900499Y-102152130D01*
X143894091Y-102092519D01*
X143866421Y-102018334D01*
X143861438Y-101948644D01*
X143866423Y-101931668D01*
X143894089Y-101857491D01*
X143894090Y-101857488D01*
X143894089Y-101857488D01*
X143894092Y-101857483D01*
X143900501Y-101797873D01*
X143900500Y-101524497D01*
X143920184Y-101457460D01*
X143972988Y-101411705D01*
X144024500Y-101400499D01*
X144297871Y-101400499D01*
X144297872Y-101400499D01*
X144357483Y-101394091D01*
X144408681Y-101374995D01*
X144431664Y-101366423D01*
X144501355Y-101361438D01*
X144518332Y-101366423D01*
X144592508Y-101394089D01*
X144592511Y-101394090D01*
X144592517Y-101394092D01*
X144652127Y-101400501D01*
X145147872Y-101400500D01*
X145207483Y-101394092D01*
X145281667Y-101366422D01*
X145351358Y-101361439D01*
X145368327Y-101366421D01*
X145429010Y-101389054D01*
X145442511Y-101394090D01*
X145442517Y-101394092D01*
X145502127Y-101400501D01*
X145997872Y-101400500D01*
X146057483Y-101394092D01*
X146131670Y-101366421D01*
X146201360Y-101361438D01*
X146218334Y-101366421D01*
X146292517Y-101394090D01*
X146352127Y-101400499D01*
X146847872Y-101400498D01*
X146907483Y-101394090D01*
X146981664Y-101366421D01*
X147051355Y-101361438D01*
X147068328Y-101366421D01*
X147142517Y-101394092D01*
X147202127Y-101400501D01*
X147488770Y-101400500D01*
X147555808Y-101420184D01*
X147601563Y-101472988D01*
X147611507Y-101542147D01*
X147582482Y-101605702D01*
X147576450Y-101612181D01*
X146434703Y-102753927D01*
X146394480Y-102780805D01*
X146370819Y-102790606D01*
X146370818Y-102790607D01*
X146239715Y-102878207D01*
X146239707Y-102878213D01*
X146128213Y-102989707D01*
X146128210Y-102989711D01*
X146040609Y-103120814D01*
X146040602Y-103120827D01*
X145980264Y-103266498D01*
X145980261Y-103266510D01*
X145949500Y-103421153D01*
X145949500Y-103578846D01*
X145980261Y-103733489D01*
X145980264Y-103733501D01*
X146040602Y-103879172D01*
X146040609Y-103879185D01*
X146128210Y-104010288D01*
X146128213Y-104010292D01*
X146239707Y-104121786D01*
X146239711Y-104121789D01*
X146370814Y-104209390D01*
X146370827Y-104209397D01*
X146516498Y-104269735D01*
X146516503Y-104269737D01*
X146671153Y-104300499D01*
X146671156Y-104300500D01*
X146671158Y-104300500D01*
X146828844Y-104300500D01*
X146828845Y-104300499D01*
X146983497Y-104269737D01*
X147120927Y-104212812D01*
X147129172Y-104209397D01*
X147129172Y-104209396D01*
X147129179Y-104209394D01*
X147260289Y-104121789D01*
X147371789Y-104010289D01*
X147459394Y-103879179D01*
X147469191Y-103855524D01*
X147496069Y-103815297D01*
X149024548Y-102286819D01*
X149085871Y-102253334D01*
X149112229Y-102250500D01*
X151945396Y-102250500D01*
X151992844Y-102259937D01*
X152016503Y-102269737D01*
X152016508Y-102269738D01*
X152016511Y-102269739D01*
X152171153Y-102300499D01*
X152171156Y-102300500D01*
X152171158Y-102300500D01*
X152328844Y-102300500D01*
X152328845Y-102300499D01*
X152483497Y-102269737D01*
X152629179Y-102209394D01*
X152760289Y-102121789D01*
X152871789Y-102010289D01*
X152959394Y-101879179D01*
X153019737Y-101733497D01*
X153050500Y-101578842D01*
X153050500Y-101524499D01*
X153070185Y-101457461D01*
X153122989Y-101411706D01*
X153174495Y-101400500D01*
X153647873Y-101400500D01*
X153707484Y-101394092D01*
X153707490Y-101394090D01*
X153729821Y-101385760D01*
X153781666Y-101366422D01*
X153851357Y-101361437D01*
X153868335Y-101366423D01*
X153942508Y-101394088D01*
X153942511Y-101394089D01*
X153942517Y-101394091D01*
X154002127Y-101400500D01*
X154497872Y-101400499D01*
X154557483Y-101394091D01*
X154631664Y-101366422D01*
X154701355Y-101361438D01*
X154718328Y-101366420D01*
X154792515Y-101394091D01*
X154852125Y-101400500D01*
X155347870Y-101400499D01*
X155407481Y-101394091D01*
X155481665Y-101366421D01*
X155551355Y-101361438D01*
X155568328Y-101366421D01*
X155642517Y-101394092D01*
X155702127Y-101400501D01*
X155975501Y-101400500D01*
X156042539Y-101420184D01*
X156088294Y-101472988D01*
X156099500Y-101524500D01*
X156099500Y-101797869D01*
X156099501Y-101797876D01*
X156105908Y-101857483D01*
X156133577Y-101931665D01*
X156138561Y-102001356D01*
X156133577Y-102018331D01*
X156105908Y-102092517D01*
X156099499Y-102152127D01*
X156099499Y-102152131D01*
X156099499Y-102152135D01*
X156099499Y-102647870D01*
X156099500Y-102647876D01*
X156105907Y-102707483D01*
X156133576Y-102781667D01*
X156138560Y-102851358D01*
X156133576Y-102868331D01*
X156105909Y-102942511D01*
X156105908Y-102942515D01*
X156105908Y-102942517D01*
X156099499Y-103002127D01*
X156099499Y-103002134D01*
X156099499Y-103002135D01*
X156099499Y-103497870D01*
X156099500Y-103497876D01*
X156105907Y-103557483D01*
X156133577Y-103631670D01*
X156138561Y-103701362D01*
X156133577Y-103718334D01*
X156105911Y-103792511D01*
X156105910Y-103792515D01*
X156105910Y-103792517D01*
X156099501Y-103852127D01*
X156099501Y-103852134D01*
X156099501Y-103852135D01*
X156099501Y-104347870D01*
X156099502Y-104347876D01*
X156105909Y-104407483D01*
X156133577Y-104481664D01*
X156138561Y-104551355D01*
X156133577Y-104568328D01*
X156105909Y-104642511D01*
X156105909Y-104642513D01*
X156105908Y-104642517D01*
X156099499Y-104702127D01*
X156099499Y-104702134D01*
X156099499Y-104702135D01*
X156099499Y-105197870D01*
X156099500Y-105197876D01*
X156105908Y-105257485D01*
X156133576Y-105331669D01*
X156138560Y-105401361D01*
X156133577Y-105418332D01*
X156109797Y-105482092D01*
X156105909Y-105492517D01*
X156099500Y-105552127D01*
X156099500Y-105552134D01*
X156099500Y-105552135D01*
X156099500Y-106047870D01*
X156099501Y-106047876D01*
X156105908Y-106107483D01*
X156133577Y-106181667D01*
X156138561Y-106251358D01*
X156133577Y-106268332D01*
X156106499Y-106340934D01*
X156105908Y-106342518D01*
X156099499Y-106402128D01*
X156099499Y-106402133D01*
X156099499Y-106402136D01*
X156099499Y-106897871D01*
X156099500Y-106897877D01*
X156105908Y-106957486D01*
X156133576Y-107031670D01*
X156138560Y-107101362D01*
X156133577Y-107118333D01*
X156105910Y-107192514D01*
X156105909Y-107192518D01*
X156099500Y-107252128D01*
X156099500Y-107252134D01*
X156099500Y-107252136D01*
X156099500Y-107747871D01*
X156099501Y-107747877D01*
X156105909Y-107807485D01*
X156133577Y-107881669D01*
X156138561Y-107951360D01*
X156133577Y-107968333D01*
X156105910Y-108042513D01*
X156105910Y-108042516D01*
X156105909Y-108042519D01*
X156099500Y-108102129D01*
X156099500Y-108102134D01*
X156099500Y-108102137D01*
X156099500Y-108597872D01*
X156099501Y-108597878D01*
X156105908Y-108657485D01*
X156119287Y-108693354D01*
X156133576Y-108731666D01*
X156133578Y-108731670D01*
X156138562Y-108801362D01*
X156133578Y-108818335D01*
X156105912Y-108892511D01*
X156105911Y-108892515D01*
X156105911Y-108892517D01*
X156099502Y-108952127D01*
X156099502Y-108952134D01*
X156099502Y-108952135D01*
X156099502Y-109447870D01*
X156099503Y-109447876D01*
X156105910Y-109507483D01*
X156133578Y-109581664D01*
X156138562Y-109651355D01*
X156133578Y-109668328D01*
X156105910Y-109742511D01*
X156105909Y-109742515D01*
X156105909Y-109742517D01*
X156099500Y-109802127D01*
X156099500Y-109802134D01*
X156099500Y-109802135D01*
X156099500Y-110297870D01*
X156099501Y-110297876D01*
X156105908Y-110357483D01*
X156133577Y-110431667D01*
X156138561Y-110501358D01*
X156133577Y-110518332D01*
X156106067Y-110592093D01*
X156105908Y-110592518D01*
X156099499Y-110652128D01*
X156099499Y-110652135D01*
X156099499Y-110652136D01*
X156099499Y-111147871D01*
X156099500Y-111147877D01*
X156105908Y-111207485D01*
X156133576Y-111281669D01*
X156138560Y-111351360D01*
X156133577Y-111368332D01*
X156105910Y-111442513D01*
X156105909Y-111442517D01*
X156099500Y-111502127D01*
X156099500Y-111502134D01*
X156099500Y-111502135D01*
X156099500Y-111997870D01*
X156099501Y-111997876D01*
X156105909Y-112057484D01*
X156133843Y-112132381D01*
X156138827Y-112202072D01*
X156133843Y-112219045D01*
X156106404Y-112292614D01*
X156106401Y-112292625D01*
X156100000Y-112352153D01*
X156100000Y-112399998D01*
X156351925Y-112399998D01*
X156379341Y-112403067D01*
X156387462Y-112404908D01*
X156492517Y-112444091D01*
X156552127Y-112450500D01*
X156588563Y-112450499D01*
X156602099Y-112453568D01*
X156608750Y-112457275D01*
X156622132Y-112459937D01*
X156766503Y-112519737D01*
X156921153Y-112550499D01*
X156921156Y-112550500D01*
X156921158Y-112550500D01*
X157078844Y-112550500D01*
X157078845Y-112550499D01*
X157155152Y-112535320D01*
X157233488Y-112519739D01*
X157233489Y-112519738D01*
X157233497Y-112519737D01*
X157257155Y-112509937D01*
X157304604Y-112500500D01*
X160051514Y-112500500D01*
X160051530Y-112500499D01*
X160067871Y-112500499D01*
X160067872Y-112500499D01*
X160127483Y-112494091D01*
X160186161Y-112472205D01*
X160188913Y-112471658D01*
X160200525Y-112466847D01*
X160262331Y-112443796D01*
X160262339Y-112443789D01*
X160270118Y-112439543D01*
X160270405Y-112440069D01*
X160284344Y-112432129D01*
X160325488Y-112415087D01*
X160325488Y-112415086D01*
X160325495Y-112415084D01*
X160390291Y-112371789D01*
X160406594Y-112360896D01*
X160473272Y-112340020D01*
X160475482Y-112340000D01*
X160520000Y-112340000D01*
X160520000Y-112312729D01*
X160539685Y-112245690D01*
X160556314Y-112225053D01*
X161464525Y-111316843D01*
X161525848Y-111283358D01*
X161552206Y-111280524D01*
X161600027Y-111280524D01*
X161605524Y-111280229D01*
X161654059Y-111277628D01*
X161793470Y-111242046D01*
X161832361Y-111225937D01*
X161927216Y-111174142D01*
X161927218Y-111174139D01*
X161927221Y-111174138D01*
X161938372Y-111163757D01*
X162000851Y-111132482D01*
X162022867Y-111130512D01*
X162100026Y-111130512D01*
X162105523Y-111130217D01*
X162154058Y-111127616D01*
X162293469Y-111092034D01*
X162332360Y-111075925D01*
X162427215Y-111024130D01*
X162532520Y-110926087D01*
X162535018Y-110921876D01*
X162541635Y-110910726D01*
X162592772Y-110863116D01*
X162648276Y-110850000D01*
X162750000Y-110850000D01*
X163250000Y-110850000D01*
X163497828Y-110850000D01*
X163497844Y-110849999D01*
X163557372Y-110843598D01*
X163557379Y-110843596D01*
X163692086Y-110793354D01*
X163692093Y-110793350D01*
X163807187Y-110707190D01*
X163807190Y-110707187D01*
X163893350Y-110592093D01*
X163893354Y-110592086D01*
X163943596Y-110457379D01*
X163943598Y-110457372D01*
X163949999Y-110397844D01*
X163950000Y-110397827D01*
X163950000Y-110200000D01*
X163250000Y-110200000D01*
X163250000Y-110850000D01*
X162750000Y-110850000D01*
X162750000Y-110074000D01*
X162769685Y-110006961D01*
X162822489Y-109961206D01*
X162874000Y-109950000D01*
X163000000Y-109950000D01*
X163000000Y-109824000D01*
X163019685Y-109756961D01*
X163072489Y-109711206D01*
X163124000Y-109700000D01*
X163950000Y-109700000D01*
X163950000Y-109502172D01*
X163949999Y-109502155D01*
X163943598Y-109442627D01*
X163943597Y-109442623D01*
X163890253Y-109299602D01*
X163892067Y-109298925D01*
X163879616Y-109241674D01*
X163891570Y-109200966D01*
X163890696Y-109200640D01*
X163893794Y-109192333D01*
X163893796Y-109192331D01*
X163944091Y-109057483D01*
X163950500Y-108997873D01*
X163950499Y-108102128D01*
X163944091Y-108042517D01*
X163916421Y-107968331D01*
X163893797Y-107907671D01*
X163893793Y-107907664D01*
X163807547Y-107792455D01*
X163807544Y-107792452D01*
X163692335Y-107706206D01*
X163692328Y-107706202D01*
X163557482Y-107655908D01*
X163557483Y-107655908D01*
X163497883Y-107649501D01*
X163497881Y-107649500D01*
X163497873Y-107649500D01*
X163497865Y-107649500D01*
X162850098Y-107649500D01*
X162783059Y-107629815D01*
X162762417Y-107613181D01*
X162668717Y-107519481D01*
X162668709Y-107519475D01*
X162549241Y-107450501D01*
X162549238Y-107450500D01*
X162531785Y-107440423D01*
X162379057Y-107399499D01*
X162220943Y-107399499D01*
X162213347Y-107399499D01*
X162213331Y-107399500D01*
X161749751Y-107399500D01*
X161682712Y-107379815D01*
X161650485Y-107349812D01*
X161607548Y-107292457D01*
X161607546Y-107292454D01*
X161607542Y-107292451D01*
X161492335Y-107206206D01*
X161492328Y-107206202D01*
X161397090Y-107170681D01*
X161341156Y-107128810D01*
X161316739Y-107063346D01*
X161331591Y-106995073D01*
X161380996Y-106945667D01*
X161440423Y-106930499D01*
X161482871Y-106930499D01*
X161482872Y-106930499D01*
X161542483Y-106924091D01*
X161677331Y-106873796D01*
X161792546Y-106787546D01*
X161878796Y-106672331D01*
X161929091Y-106537483D01*
X161935500Y-106477873D01*
X161935500Y-106477844D01*
X164065000Y-106477844D01*
X164071401Y-106537372D01*
X164071403Y-106537379D01*
X164121645Y-106672086D01*
X164121649Y-106672093D01*
X164207809Y-106787187D01*
X164207812Y-106787190D01*
X164322906Y-106873350D01*
X164322913Y-106873354D01*
X164457620Y-106923596D01*
X164457627Y-106923598D01*
X164517155Y-106929999D01*
X164517172Y-106930000D01*
X164930000Y-106930000D01*
X165430000Y-106930000D01*
X165842828Y-106930000D01*
X165842844Y-106929999D01*
X165902372Y-106923598D01*
X165902379Y-106923596D01*
X166037086Y-106873354D01*
X166037093Y-106873350D01*
X166152187Y-106787190D01*
X166152190Y-106787187D01*
X166238350Y-106672093D01*
X166238354Y-106672086D01*
X166288596Y-106537379D01*
X166288598Y-106537372D01*
X166294999Y-106477844D01*
X166295000Y-106477827D01*
X166295000Y-105750000D01*
X165430000Y-105750000D01*
X165430000Y-106930000D01*
X164930000Y-106930000D01*
X164930000Y-105750000D01*
X164065000Y-105750000D01*
X164065000Y-106477844D01*
X161935500Y-106477844D01*
X161935499Y-105492518D01*
X161935499Y-104522155D01*
X164065000Y-104522155D01*
X164065000Y-105250000D01*
X164930000Y-105250000D01*
X165430000Y-105250000D01*
X166295000Y-105250000D01*
X166295000Y-104522172D01*
X166294999Y-104522155D01*
X166288598Y-104462627D01*
X166288596Y-104462620D01*
X166238354Y-104327913D01*
X166238350Y-104327906D01*
X166152190Y-104212812D01*
X166152187Y-104212809D01*
X166037093Y-104126649D01*
X166037086Y-104126645D01*
X165902379Y-104076403D01*
X165902372Y-104076401D01*
X165842844Y-104070000D01*
X165430000Y-104070000D01*
X165430000Y-105250000D01*
X164930000Y-105250000D01*
X164930000Y-104070000D01*
X164517155Y-104070000D01*
X164457627Y-104076401D01*
X164457620Y-104076403D01*
X164322913Y-104126645D01*
X164322906Y-104126649D01*
X164207812Y-104212809D01*
X164207809Y-104212812D01*
X164121649Y-104327906D01*
X164121645Y-104327913D01*
X164071403Y-104462620D01*
X164071401Y-104462627D01*
X164065000Y-104522155D01*
X161935499Y-104522155D01*
X161935499Y-104522129D01*
X161935498Y-104522123D01*
X161935497Y-104522116D01*
X161929091Y-104462517D01*
X161908564Y-104407482D01*
X161878797Y-104327671D01*
X161878793Y-104327664D01*
X161792547Y-104212455D01*
X161792544Y-104212452D01*
X161677335Y-104126206D01*
X161677328Y-104126202D01*
X161542482Y-104075908D01*
X161542483Y-104075908D01*
X161482883Y-104069501D01*
X161482881Y-104069500D01*
X161482873Y-104069500D01*
X161482864Y-104069500D01*
X160157129Y-104069500D01*
X160157123Y-104069501D01*
X160097516Y-104075908D01*
X159962671Y-104126202D01*
X159962664Y-104126206D01*
X159847455Y-104212452D01*
X159847452Y-104212455D01*
X159761206Y-104327664D01*
X159761202Y-104327671D01*
X159710908Y-104462517D01*
X159704501Y-104522116D01*
X159704501Y-104522123D01*
X159704500Y-104522135D01*
X159704500Y-106136226D01*
X159684815Y-106203265D01*
X159632011Y-106249020D01*
X159562853Y-106258964D01*
X159533048Y-106250787D01*
X159483501Y-106230264D01*
X159483489Y-106230261D01*
X159328845Y-106199500D01*
X159328842Y-106199500D01*
X159171158Y-106199500D01*
X159171155Y-106199500D01*
X159016510Y-106230261D01*
X159016498Y-106230264D01*
X158870827Y-106290602D01*
X158870814Y-106290609D01*
X158739711Y-106378210D01*
X158739707Y-106378213D01*
X158628213Y-106489707D01*
X158628210Y-106489711D01*
X158540609Y-106620814D01*
X158540602Y-106620827D01*
X158480264Y-106766498D01*
X158480261Y-106766510D01*
X158449500Y-106921153D01*
X158449500Y-107078846D01*
X158480261Y-107233489D01*
X158480264Y-107233501D01*
X158540602Y-107379172D01*
X158540609Y-107379185D01*
X158628210Y-107510288D01*
X158628213Y-107510292D01*
X158739710Y-107621789D01*
X158790775Y-107655909D01*
X158870821Y-107709394D01*
X158870826Y-107709396D01*
X158870828Y-107709397D01*
X158894473Y-107719191D01*
X158901406Y-107723823D01*
X158906451Y-107724921D01*
X158934705Y-107746072D01*
X159013181Y-107824548D01*
X159046666Y-107885871D01*
X159049500Y-107912229D01*
X159049500Y-107970652D01*
X159029815Y-108037691D01*
X158977011Y-108083446D01*
X158951848Y-108090959D01*
X158951972Y-108091442D01*
X158806798Y-108128503D01*
X158767918Y-108144611D01*
X158767903Y-108144618D01*
X158673184Y-108196342D01*
X158567982Y-108294291D01*
X158494642Y-108417901D01*
X158494637Y-108417910D01*
X158478540Y-108456771D01*
X158460545Y-108507779D01*
X158440090Y-108650052D01*
X158440090Y-108850054D01*
X158442983Y-108904031D01*
X158442983Y-108904033D01*
X158478528Y-109043299D01*
X158478529Y-109043301D01*
X158485561Y-109060277D01*
X158495000Y-109107731D01*
X158495000Y-109297844D01*
X158501402Y-109357380D01*
X158501564Y-109358065D01*
X158501534Y-109358610D01*
X158502231Y-109365087D01*
X158501180Y-109365199D01*
X158497815Y-109427834D01*
X158495446Y-109434017D01*
X158477809Y-109476597D01*
X158477802Y-109476615D01*
X158477801Y-109476619D01*
X158467559Y-109505652D01*
X158459798Y-109527651D01*
X158439323Y-109670065D01*
X158439323Y-109920028D01*
X158442219Y-109974061D01*
X158442219Y-109974065D01*
X158470458Y-110084705D01*
X158467964Y-110154530D01*
X158467248Y-110156619D01*
X158459799Y-110177733D01*
X158459798Y-110177739D01*
X158443454Y-110291413D01*
X158440798Y-110309897D01*
X158439323Y-110320153D01*
X158439323Y-110570039D01*
X158442219Y-110624072D01*
X158442219Y-110624073D01*
X158477799Y-110763477D01*
X158477801Y-110763484D01*
X158493910Y-110802374D01*
X158501392Y-110816076D01*
X158516242Y-110884349D01*
X158491823Y-110949813D01*
X158435889Y-110991683D01*
X158392558Y-110999500D01*
X158024499Y-110999500D01*
X157957460Y-110979815D01*
X157911705Y-110927011D01*
X157900499Y-110875501D01*
X157900498Y-110652131D01*
X157900497Y-110652124D01*
X157894090Y-110592519D01*
X157894090Y-110592518D01*
X157866420Y-110518333D01*
X157861437Y-110448643D01*
X157866418Y-110431676D01*
X157894091Y-110357483D01*
X157900500Y-110297873D01*
X157900499Y-109802128D01*
X157894091Y-109742517D01*
X157866422Y-109668334D01*
X157861439Y-109598644D01*
X157866424Y-109581668D01*
X157894090Y-109507491D01*
X157894091Y-109507488D01*
X157894090Y-109507488D01*
X157894093Y-109507483D01*
X157900502Y-109447873D01*
X157900501Y-108952128D01*
X157894093Y-108892517D01*
X157866422Y-108818329D01*
X157861439Y-108748640D01*
X157866424Y-108731663D01*
X157875419Y-108707546D01*
X157894091Y-108657485D01*
X157900500Y-108597875D01*
X157900499Y-108102130D01*
X157894091Y-108042519D01*
X157866420Y-107968332D01*
X157861437Y-107898642D01*
X157866420Y-107881669D01*
X157894091Y-107807484D01*
X157900500Y-107747874D01*
X157900499Y-107252129D01*
X157894091Y-107192518D01*
X157866420Y-107118330D01*
X157861437Y-107048641D01*
X157866421Y-107031666D01*
X157894090Y-106957484D01*
X157900499Y-106897874D01*
X157900498Y-106402129D01*
X157894090Y-106342518D01*
X157866420Y-106268333D01*
X157861437Y-106198643D01*
X157866421Y-106181668D01*
X157894091Y-106107483D01*
X157900500Y-106047873D01*
X157900499Y-105552128D01*
X157894091Y-105492517D01*
X157866420Y-105418329D01*
X157861437Y-105348640D01*
X157866420Y-105331669D01*
X157894090Y-105257483D01*
X157900499Y-105197873D01*
X157900498Y-104702128D01*
X157894090Y-104642517D01*
X157866421Y-104568334D01*
X157861438Y-104498644D01*
X157866423Y-104481668D01*
X157894089Y-104407491D01*
X157894090Y-104407488D01*
X157894089Y-104407488D01*
X157894092Y-104407483D01*
X157900501Y-104347873D01*
X157900500Y-103852128D01*
X157894092Y-103792517D01*
X157866421Y-103718329D01*
X157861438Y-103648639D01*
X157866419Y-103631670D01*
X157894090Y-103557483D01*
X157900499Y-103497873D01*
X157900498Y-103002128D01*
X157894090Y-102942517D01*
X157866420Y-102868332D01*
X157861437Y-102798642D01*
X157866421Y-102781667D01*
X157894090Y-102707483D01*
X157900499Y-102647873D01*
X157900498Y-102152128D01*
X157894090Y-102092517D01*
X157866420Y-102018332D01*
X157861437Y-101948643D01*
X157866421Y-101931668D01*
X157894091Y-101857483D01*
X157900500Y-101797873D01*
X157900499Y-101302128D01*
X157894091Y-101242517D01*
X157866154Y-101167616D01*
X157861171Y-101097927D01*
X157866156Y-101080950D01*
X157893597Y-101007379D01*
X157893597Y-101007377D01*
X157899999Y-100947844D01*
X157900000Y-100947827D01*
X157900000Y-100750000D01*
X157124000Y-100750000D01*
X157056961Y-100730315D01*
X157011206Y-100677511D01*
X157000000Y-100626000D01*
X157000000Y-100374000D01*
X157019685Y-100306961D01*
X157072489Y-100261206D01*
X157124000Y-100250000D01*
X157900000Y-100250000D01*
X157900000Y-100052172D01*
X157899999Y-100052155D01*
X157893598Y-99992627D01*
X157893596Y-99992620D01*
X157843354Y-99857913D01*
X157843350Y-99857906D01*
X157757190Y-99742812D01*
X157757187Y-99742809D01*
X157642093Y-99656649D01*
X157642086Y-99656645D01*
X157507379Y-99606403D01*
X157507372Y-99606401D01*
X157447844Y-99600000D01*
X157397658Y-99600000D01*
X157330619Y-99580315D01*
X157284864Y-99527511D01*
X157274920Y-99458353D01*
X157276041Y-99451809D01*
X157300499Y-99328846D01*
X157300500Y-99328844D01*
X157300500Y-99171155D01*
X157300499Y-99171153D01*
X157285061Y-99093543D01*
X157269737Y-99016503D01*
X157235667Y-98934250D01*
X157209397Y-98870827D01*
X157209390Y-98870814D01*
X157121789Y-98739711D01*
X157121786Y-98739707D01*
X157010292Y-98628213D01*
X157010288Y-98628210D01*
X156916815Y-98565753D01*
X158749500Y-98565753D01*
X158749500Y-98934246D01*
X158785618Y-99300975D01*
X158857504Y-99662375D01*
X158857507Y-99662386D01*
X158964480Y-100015030D01*
X159105500Y-100355481D01*
X159105502Y-100355486D01*
X159279202Y-100680456D01*
X159279213Y-100680474D01*
X159483931Y-100986856D01*
X159483941Y-100986870D01*
X159717715Y-101271724D01*
X159978275Y-101532284D01*
X159978280Y-101532288D01*
X159978281Y-101532289D01*
X160263135Y-101766063D01*
X160569532Y-101970791D01*
X160569541Y-101970796D01*
X160569543Y-101970797D01*
X160894513Y-102144497D01*
X160894515Y-102144497D01*
X160894521Y-102144501D01*
X161234971Y-102285520D01*
X161587604Y-102392490D01*
X161587610Y-102392491D01*
X161587613Y-102392492D01*
X161587624Y-102392495D01*
X161949024Y-102464381D01*
X162315750Y-102500500D01*
X162315753Y-102500500D01*
X162684247Y-102500500D01*
X162684250Y-102500500D01*
X163050976Y-102464381D01*
X163121331Y-102450386D01*
X163412375Y-102392495D01*
X163412386Y-102392492D01*
X163412386Y-102392491D01*
X163412396Y-102392490D01*
X163765029Y-102285520D01*
X164105479Y-102144501D01*
X164430468Y-101970791D01*
X164736865Y-101766063D01*
X165021719Y-101532289D01*
X165282289Y-101271719D01*
X165516063Y-100986865D01*
X165720791Y-100680468D01*
X165894501Y-100355479D01*
X166035520Y-100015029D01*
X166142490Y-99662396D01*
X166142492Y-99662386D01*
X166142495Y-99662375D01*
X166205130Y-99347483D01*
X166214381Y-99300976D01*
X166250500Y-98934250D01*
X166250500Y-98565750D01*
X166214381Y-98199024D01*
X166213010Y-98192130D01*
X166142495Y-97837624D01*
X166142492Y-97837613D01*
X166142491Y-97837610D01*
X166142490Y-97837604D01*
X166035520Y-97484971D01*
X165894501Y-97144521D01*
X165875757Y-97109454D01*
X165720797Y-96819543D01*
X165720796Y-96819541D01*
X165720791Y-96819532D01*
X165516063Y-96513135D01*
X165282289Y-96228281D01*
X165282288Y-96228280D01*
X165282284Y-96228275D01*
X165021724Y-95967715D01*
X164736870Y-95733941D01*
X164736869Y-95733940D01*
X164736865Y-95733937D01*
X164430468Y-95529209D01*
X164430463Y-95529206D01*
X164430456Y-95529202D01*
X164105486Y-95355502D01*
X164105481Y-95355500D01*
X163765030Y-95214480D01*
X163412386Y-95107507D01*
X163412375Y-95107504D01*
X163050975Y-95035618D01*
X162774772Y-95008415D01*
X162684250Y-94999500D01*
X162315750Y-94999500D01*
X162232109Y-95007737D01*
X161949024Y-95035618D01*
X161587624Y-95107504D01*
X161587613Y-95107507D01*
X161234969Y-95214480D01*
X160894518Y-95355500D01*
X160894513Y-95355502D01*
X160569543Y-95529202D01*
X160569525Y-95529213D01*
X160263143Y-95733931D01*
X160263129Y-95733941D01*
X159978275Y-95967715D01*
X159717715Y-96228275D01*
X159483941Y-96513129D01*
X159483931Y-96513143D01*
X159279213Y-96819525D01*
X159279202Y-96819543D01*
X159105502Y-97144513D01*
X159105500Y-97144518D01*
X158964480Y-97484969D01*
X158857507Y-97837613D01*
X158857504Y-97837624D01*
X158785618Y-98199024D01*
X158760949Y-98449501D01*
X158751977Y-98540606D01*
X158749500Y-98565753D01*
X156916815Y-98565753D01*
X156879185Y-98540609D01*
X156879172Y-98540602D01*
X156733501Y-98480264D01*
X156733489Y-98480261D01*
X156578845Y-98449500D01*
X156578842Y-98449500D01*
X156421158Y-98449500D01*
X156421155Y-98449500D01*
X156266511Y-98480260D01*
X156266506Y-98480262D01*
X156266504Y-98480262D01*
X156266503Y-98480263D01*
X156242844Y-98490062D01*
X156195396Y-98499500D01*
X151804604Y-98499500D01*
X151757155Y-98490062D01*
X151733497Y-98480263D01*
X151733493Y-98480262D01*
X151733488Y-98480260D01*
X151578845Y-98449500D01*
X151578842Y-98449500D01*
X151421158Y-98449500D01*
X151421155Y-98449500D01*
X151266511Y-98480260D01*
X151266506Y-98480262D01*
X151266504Y-98480262D01*
X151266503Y-98480263D01*
X151242844Y-98490062D01*
X151195396Y-98499500D01*
X150624000Y-98499500D01*
X150615314Y-98496949D01*
X150606353Y-98498238D01*
X150582312Y-98487259D01*
X150556961Y-98479815D01*
X150551033Y-98472974D01*
X150542797Y-98469213D01*
X150528507Y-98446978D01*
X150511206Y-98427011D01*
X150508918Y-98416496D01*
X150505023Y-98410435D01*
X150500000Y-98375500D01*
X150500000Y-98314812D01*
X150519685Y-98247773D01*
X150536319Y-98227131D01*
X150567131Y-98196319D01*
X150628454Y-98162834D01*
X150654812Y-98160000D01*
X151250000Y-98160000D01*
X151750000Y-98160000D01*
X152270000Y-98160000D01*
X152270000Y-98112172D01*
X152269999Y-98112155D01*
X152263598Y-98052627D01*
X152263596Y-98052620D01*
X152213354Y-97917913D01*
X152213350Y-97917906D01*
X152127190Y-97802812D01*
X152127187Y-97802809D01*
X152012093Y-97716649D01*
X152012086Y-97716645D01*
X151877379Y-97666403D01*
X151877372Y-97666401D01*
X151817844Y-97660000D01*
X151750000Y-97660000D01*
X151750000Y-98160000D01*
X151250000Y-98160000D01*
X151250000Y-97648024D01*
X151230920Y-97613082D01*
X151235904Y-97543390D01*
X151264401Y-97499048D01*
X152294524Y-96468926D01*
X152355847Y-96435441D01*
X152382205Y-96432607D01*
X153595175Y-96432607D01*
X153662214Y-96452292D01*
X153707969Y-96505096D01*
X153717913Y-96574254D01*
X153713406Y-96593990D01*
X153699257Y-96638738D01*
X153696288Y-96782632D01*
X153733978Y-96921528D01*
X153733980Y-96921534D01*
X153809219Y-97044091D01*
X153809276Y-97044184D01*
X153852304Y-97085934D01*
X153852307Y-97085937D01*
X153852313Y-97085942D01*
X155030959Y-98006799D01*
X155030968Y-98006805D01*
X155081887Y-98038456D01*
X155219113Y-98081844D01*
X155363005Y-98084811D01*
X155501904Y-98047121D01*
X155624558Y-97971824D01*
X155666308Y-97928797D01*
X158803561Y-93913294D01*
X158835211Y-93862375D01*
X158878599Y-93725149D01*
X158881567Y-93581257D01*
X158881566Y-93581256D01*
X158881567Y-93581255D01*
X158843877Y-93442359D01*
X158843875Y-93442353D01*
X158768581Y-93319706D01*
X158768580Y-93319704D01*
X158725552Y-93277954D01*
X158725548Y-93277951D01*
X158725542Y-93277945D01*
X157770058Y-92531441D01*
X157651227Y-92438600D01*
X160541598Y-92438600D01*
X160541598Y-92643303D01*
X160573620Y-92845486D01*
X160636879Y-93040175D01*
X160729813Y-93222565D01*
X160850126Y-93388165D01*
X160994884Y-93532923D01*
X161149847Y-93645508D01*
X161160488Y-93653239D01*
X161272869Y-93710500D01*
X161342874Y-93746170D01*
X161342876Y-93746170D01*
X161342879Y-93746172D01*
X161447235Y-93780079D01*
X161537563Y-93809429D01*
X161630008Y-93824071D01*
X161739746Y-93841452D01*
X161739747Y-93841452D01*
X161944449Y-93841452D01*
X161944450Y-93841452D01*
X162146632Y-93809429D01*
X162341317Y-93746172D01*
X162523708Y-93653239D01*
X162622786Y-93581255D01*
X162689311Y-93532923D01*
X162689313Y-93532920D01*
X162689317Y-93532918D01*
X162834064Y-93388171D01*
X162834066Y-93388167D01*
X162834069Y-93388165D01*
X162886830Y-93315542D01*
X162954385Y-93222562D01*
X163047318Y-93040171D01*
X163110575Y-92845486D01*
X163142598Y-92643304D01*
X163142598Y-92438600D01*
X163110575Y-92236418D01*
X163106888Y-92225072D01*
X163047316Y-92041728D01*
X162991181Y-91931558D01*
X162954385Y-91859342D01*
X162937751Y-91836447D01*
X162834069Y-91693738D01*
X162689311Y-91548980D01*
X162523711Y-91428667D01*
X162523710Y-91428666D01*
X162523708Y-91428665D01*
X162412460Y-91371981D01*
X162341321Y-91335733D01*
X162146632Y-91272474D01*
X161972093Y-91244830D01*
X161944450Y-91240452D01*
X161739746Y-91240452D01*
X161715427Y-91244303D01*
X161537563Y-91272474D01*
X161342874Y-91335733D01*
X161160484Y-91428667D01*
X160994884Y-91548980D01*
X160850126Y-91693738D01*
X160729813Y-91859338D01*
X160636879Y-92041728D01*
X160573620Y-92236417D01*
X160541598Y-92438600D01*
X157651227Y-92438600D01*
X157546896Y-92357088D01*
X157546887Y-92357082D01*
X157495972Y-92325434D01*
X157495973Y-92325434D01*
X157495969Y-92325432D01*
X157358743Y-92282044D01*
X157358744Y-92282044D01*
X157334761Y-92281549D01*
X157214851Y-92279077D01*
X157214850Y-92279077D01*
X157214846Y-92279077D01*
X157075953Y-92316766D01*
X157075952Y-92316766D01*
X156953301Y-92392062D01*
X156953299Y-92392063D01*
X156911544Y-92435094D01*
X156911543Y-92435096D01*
X154763905Y-95183949D01*
X154707120Y-95224658D01*
X154666192Y-95231607D01*
X153586256Y-95231607D01*
X153519217Y-95211922D01*
X153473462Y-95159118D01*
X153463518Y-95089960D01*
X153488543Y-95031265D01*
X156045525Y-91758476D01*
X156077175Y-91707557D01*
X156120563Y-91570331D01*
X156123531Y-91426439D01*
X156123530Y-91426438D01*
X156123531Y-91426437D01*
X156085841Y-91287541D01*
X156085839Y-91287535D01*
X156010545Y-91164888D01*
X156010544Y-91164886D01*
X155967516Y-91123136D01*
X155967512Y-91123133D01*
X155967506Y-91123127D01*
X154788860Y-90202270D01*
X154788851Y-90202264D01*
X154737936Y-90170616D01*
X154737937Y-90170616D01*
X154737933Y-90170614D01*
X154600707Y-90127226D01*
X154600708Y-90127226D01*
X154576725Y-90126731D01*
X154456815Y-90124259D01*
X154456814Y-90124259D01*
X154456810Y-90124259D01*
X154317917Y-90161948D01*
X154317916Y-90161948D01*
X154195265Y-90237244D01*
X154195263Y-90237245D01*
X154153508Y-90280276D01*
X154153507Y-90280278D01*
X151378972Y-93831522D01*
X151322187Y-93872231D01*
X151252407Y-93875777D01*
X151191788Y-93841034D01*
X151178157Y-93824071D01*
X151121789Y-93739711D01*
X151121786Y-93739707D01*
X151010292Y-93628213D01*
X151010288Y-93628210D01*
X150879181Y-93540606D01*
X150876970Y-93539425D01*
X150876028Y-93538500D01*
X150874114Y-93537221D01*
X150874356Y-93536857D01*
X150827124Y-93490464D01*
X150811662Y-93422327D01*
X150835492Y-93356646D01*
X150854884Y-93335779D01*
X150940421Y-93262724D01*
X151262724Y-92940421D01*
X151558745Y-92593825D01*
X151826660Y-92225071D01*
X152064818Y-91836434D01*
X152271748Y-91430309D01*
X152446177Y-91009201D01*
X152587029Y-90575705D01*
X152693434Y-90132494D01*
X152764738Y-89682302D01*
X152800500Y-89227902D01*
X152800500Y-88772098D01*
X152764738Y-88317698D01*
X152693434Y-87867506D01*
X152587029Y-87424295D01*
X152446177Y-86990799D01*
X152407593Y-86897648D01*
X153449501Y-86897648D01*
X153449501Y-87102351D01*
X153481523Y-87304534D01*
X153544782Y-87499223D01*
X153637716Y-87681613D01*
X153758029Y-87847213D01*
X153902787Y-87991971D01*
X154057750Y-88104556D01*
X154068391Y-88112287D01*
X154184608Y-88171503D01*
X154250777Y-88205218D01*
X154250779Y-88205218D01*
X154250782Y-88205220D01*
X154355138Y-88239127D01*
X154445466Y-88268477D01*
X154546558Y-88284488D01*
X154647649Y-88300500D01*
X154647650Y-88300500D01*
X154852352Y-88300500D01*
X154852353Y-88300500D01*
X155054535Y-88268477D01*
X155249220Y-88205220D01*
X155431611Y-88112287D01*
X155524591Y-88044732D01*
X155597214Y-87991971D01*
X155597216Y-87991968D01*
X155597220Y-87991966D01*
X155741967Y-87847219D01*
X155741969Y-87847215D01*
X155741972Y-87847213D01*
X155794733Y-87774590D01*
X155862288Y-87681610D01*
X155955221Y-87499219D01*
X156018478Y-87304534D01*
X156050501Y-87102352D01*
X156050501Y-86897648D01*
X156018478Y-86695466D01*
X155955221Y-86500781D01*
X155955219Y-86500778D01*
X155955219Y-86500776D01*
X155914688Y-86421231D01*
X155862288Y-86318390D01*
X155854557Y-86307749D01*
X155741972Y-86152786D01*
X155597214Y-86008028D01*
X155431614Y-85887715D01*
X155431613Y-85887714D01*
X155431611Y-85887713D01*
X155374654Y-85858691D01*
X155249224Y-85794781D01*
X155054535Y-85731522D01*
X154879996Y-85703878D01*
X154852353Y-85699500D01*
X154647649Y-85699500D01*
X154623330Y-85703351D01*
X154445466Y-85731522D01*
X154250777Y-85794781D01*
X154068387Y-85887715D01*
X153902787Y-86008028D01*
X153758029Y-86152786D01*
X153637716Y-86318386D01*
X153544782Y-86500776D01*
X153481523Y-86695465D01*
X153449501Y-86897648D01*
X152407593Y-86897648D01*
X152271748Y-86569691D01*
X152064818Y-86163566D01*
X152064812Y-86163557D01*
X152064810Y-86163552D01*
X152064807Y-86163547D01*
X151826666Y-85774938D01*
X151826662Y-85774933D01*
X151826660Y-85774929D01*
X151558745Y-85406175D01*
X151262724Y-85059579D01*
X150940421Y-84737276D01*
X150593825Y-84441255D01*
X150225071Y-84173340D01*
X150225068Y-84173338D01*
X150225061Y-84173333D01*
X149836452Y-83935192D01*
X149836447Y-83935189D01*
X149836437Y-83935184D01*
X149836434Y-83935182D01*
X149430309Y-83728252D01*
X149302426Y-83675281D01*
X149009212Y-83553827D01*
X149009205Y-83553824D01*
X149009201Y-83553823D01*
X148575705Y-83412971D01*
X148132494Y-83306566D01*
X147682302Y-83235262D01*
X147227907Y-83199500D01*
X147227902Y-83199500D01*
X146772098Y-83199500D01*
X146772092Y-83199500D01*
X146317697Y-83235262D01*
X146317696Y-83235262D01*
X145867511Y-83306565D01*
X145867508Y-83306565D01*
X145867506Y-83306566D01*
X145708784Y-83344671D01*
X145424306Y-83412968D01*
X145424301Y-83412969D01*
X145424295Y-83412971D01*
X144990799Y-83553823D01*
X144990787Y-83553827D01*
X144569693Y-83728251D01*
X144163552Y-83935189D01*
X144163547Y-83935192D01*
X143774938Y-84173333D01*
X143774927Y-84173341D01*
X143406182Y-84441249D01*
X143406168Y-84441260D01*
X143059585Y-84737270D01*
X143059571Y-84737283D01*
X142737283Y-85059571D01*
X142737270Y-85059585D01*
X142441260Y-85406168D01*
X142441249Y-85406182D01*
X142173341Y-85774927D01*
X142173333Y-85774938D01*
X141935192Y-86163547D01*
X141935189Y-86163552D01*
X141728251Y-86569693D01*
X141553827Y-86990787D01*
X141553823Y-86990799D01*
X141412971Y-87424295D01*
X141311437Y-87847219D01*
X141306565Y-87867511D01*
X141235262Y-88317696D01*
X141235262Y-88317697D01*
X141199500Y-88772092D01*
X141199500Y-89227907D01*
X141235262Y-89682302D01*
X141235262Y-89682303D01*
X141305262Y-90124259D01*
X141306566Y-90132494D01*
X141365382Y-90377483D01*
X141397697Y-90512086D01*
X141412971Y-90575705D01*
X141553404Y-91007911D01*
X141553823Y-91009200D01*
X141553827Y-91009212D01*
X141609087Y-91142620D01*
X141728252Y-91430309D01*
X141935182Y-91836434D01*
X141935189Y-91836447D01*
X141935192Y-91836452D01*
X142173333Y-92225061D01*
X142173338Y-92225068D01*
X142173340Y-92225071D01*
X142269252Y-92357083D01*
X142441249Y-92593817D01*
X142441260Y-92593831D01*
X142471703Y-92629475D01*
X142737276Y-92940421D01*
X143059579Y-93262724D01*
X143406175Y-93558745D01*
X143774929Y-93826660D01*
X143774933Y-93826662D01*
X143774938Y-93826666D01*
X144163547Y-94064807D01*
X144163552Y-94064810D01*
X144163557Y-94064812D01*
X144163566Y-94064818D01*
X144569691Y-94271748D01*
X144990799Y-94446177D01*
X145424295Y-94587029D01*
X145867506Y-94693434D01*
X146317698Y-94764738D01*
X146772098Y-94800500D01*
X146800902Y-94800500D01*
X146867941Y-94820185D01*
X146913696Y-94872989D01*
X146923640Y-94942147D01*
X146894615Y-95005703D01*
X146888583Y-95012181D01*
X146769481Y-95131282D01*
X146769479Y-95131285D01*
X146729725Y-95200141D01*
X146729723Y-95200144D01*
X146725115Y-95208127D01*
X146690423Y-95268215D01*
X146663809Y-95367534D01*
X146661231Y-95374084D01*
X146643933Y-95396337D01*
X146629263Y-95420406D01*
X146622776Y-95423556D01*
X146618352Y-95429249D01*
X146591768Y-95438618D01*
X146566415Y-95450934D01*
X146559109Y-95451941D01*
X146515597Y-95456619D01*
X146489088Y-95456619D01*
X146479818Y-95455622D01*
X146422873Y-95449500D01*
X146422865Y-95449500D01*
X146077130Y-95449500D01*
X146077123Y-95449501D01*
X146017516Y-95455908D01*
X145882841Y-95506139D01*
X145813149Y-95511123D01*
X145792056Y-95504519D01*
X145733497Y-95480263D01*
X145733492Y-95480262D01*
X145733489Y-95480261D01*
X145578845Y-95449500D01*
X145578842Y-95449500D01*
X145421158Y-95449500D01*
X145421155Y-95449500D01*
X145266510Y-95480261D01*
X145266498Y-95480264D01*
X145120827Y-95540602D01*
X145120814Y-95540609D01*
X144989711Y-95628210D01*
X144989707Y-95628213D01*
X144878213Y-95739707D01*
X144878210Y-95739711D01*
X144790609Y-95870814D01*
X144790607Y-95870819D01*
X144789725Y-95872949D01*
X144788964Y-95873893D01*
X144787736Y-95876191D01*
X144787300Y-95875958D01*
X144745885Y-95927354D01*
X144679592Y-95949421D01*
X144675162Y-95949500D01*
X144671155Y-95949500D01*
X144516510Y-95980261D01*
X144516498Y-95980264D01*
X144370827Y-96040602D01*
X144370814Y-96040609D01*
X144239711Y-96128210D01*
X144239707Y-96128213D01*
X144128213Y-96239707D01*
X144128210Y-96239711D01*
X144040609Y-96370814D01*
X144040602Y-96370827D01*
X143980264Y-96516498D01*
X143980261Y-96516510D01*
X143949500Y-96671153D01*
X143949500Y-96748100D01*
X143929815Y-96815139D01*
X143877011Y-96860894D01*
X143868833Y-96864282D01*
X143737671Y-96913202D01*
X143737668Y-96913204D01*
X143618861Y-97002143D01*
X143553396Y-97026560D01*
X143501217Y-97019058D01*
X143377486Y-96972910D01*
X143377485Y-96972909D01*
X143377483Y-96972909D01*
X143317873Y-96966500D01*
X143317863Y-96966500D01*
X142682129Y-96966500D01*
X142682123Y-96966501D01*
X142622516Y-96972908D01*
X142487671Y-97023202D01*
X142487664Y-97023206D01*
X142372455Y-97109452D01*
X142372452Y-97109455D01*
X142286206Y-97224664D01*
X142286202Y-97224671D01*
X142235910Y-97359513D01*
X142235909Y-97359517D01*
X142229500Y-97419127D01*
X142229500Y-97419134D01*
X142229500Y-97419135D01*
X142229500Y-98080870D01*
X142229501Y-98080876D01*
X142235908Y-98140479D01*
X142237692Y-98148026D01*
X142236194Y-98148379D01*
X142242017Y-98188418D01*
X142240791Y-98206425D01*
X142235909Y-98219517D01*
X142229500Y-98279127D01*
X142229500Y-98372342D01*
X142229214Y-98376545D01*
X142228473Y-98378552D01*
X142227117Y-98392315D01*
X142223513Y-98410435D01*
X142221887Y-98418610D01*
X142189500Y-98480520D01*
X142128783Y-98515092D01*
X142059014Y-98511351D01*
X142052818Y-98508976D01*
X141983501Y-98480264D01*
X141983489Y-98480261D01*
X141828845Y-98449500D01*
X141828842Y-98449500D01*
X141671158Y-98449500D01*
X141671155Y-98449500D01*
X141516510Y-98480261D01*
X141516498Y-98480264D01*
X141370827Y-98540602D01*
X141370814Y-98540609D01*
X141239711Y-98628210D01*
X141239707Y-98628213D01*
X141128213Y-98739707D01*
X141128210Y-98739711D01*
X141124174Y-98745751D01*
X141070557Y-98790551D01*
X141001231Y-98799251D01*
X140938207Y-98769091D01*
X140933397Y-98764531D01*
X136884317Y-94715451D01*
X136850832Y-94654128D01*
X136847998Y-94627770D01*
X136847998Y-94192130D01*
X136847997Y-94192124D01*
X136841590Y-94132517D01*
X136791296Y-93997672D01*
X136791292Y-93997665D01*
X136705046Y-93882456D01*
X136705043Y-93882453D01*
X136589834Y-93796207D01*
X136589827Y-93796203D01*
X136454981Y-93745909D01*
X136454982Y-93745909D01*
X136395382Y-93739502D01*
X136395380Y-93739501D01*
X136395372Y-93739501D01*
X136395364Y-93739501D01*
X136103537Y-93739501D01*
X136036498Y-93719816D01*
X135990743Y-93667012D01*
X135980799Y-93597854D01*
X135987355Y-93572169D01*
X136014089Y-93500488D01*
X136014088Y-93500488D01*
X136014091Y-93500483D01*
X136020500Y-93440873D01*
X136020499Y-92797844D01*
X136797500Y-92797844D01*
X136803901Y-92857372D01*
X136803903Y-92857379D01*
X136854145Y-92992086D01*
X136854149Y-92992093D01*
X136940309Y-93107187D01*
X136940312Y-93107190D01*
X137055406Y-93193350D01*
X137055413Y-93193354D01*
X137190120Y-93243596D01*
X137190127Y-93243598D01*
X137249655Y-93249999D01*
X137249672Y-93250000D01*
X138297500Y-93250000D01*
X138797500Y-93250000D01*
X139845328Y-93250000D01*
X139845344Y-93249999D01*
X139904872Y-93243598D01*
X139904879Y-93243596D01*
X140039586Y-93193354D01*
X140039593Y-93193350D01*
X140154687Y-93107190D01*
X140154690Y-93107187D01*
X140240850Y-92992093D01*
X140240854Y-92992086D01*
X140291096Y-92857379D01*
X140291098Y-92857372D01*
X140297499Y-92797844D01*
X140297500Y-92797827D01*
X140297500Y-92250000D01*
X138797500Y-92250000D01*
X138797500Y-93250000D01*
X138297500Y-93250000D01*
X138297500Y-92250000D01*
X136797500Y-92250000D01*
X136797500Y-92797844D01*
X136020499Y-92797844D01*
X136020499Y-92779128D01*
X136014091Y-92719517D01*
X136014091Y-92719516D01*
X136012307Y-92711966D01*
X136014448Y-92711459D01*
X136010265Y-92652921D01*
X136012151Y-92646496D01*
X136013598Y-92640375D01*
X136019999Y-92580844D01*
X136020000Y-92580827D01*
X136020000Y-92500000D01*
X135959454Y-92500000D01*
X135892415Y-92480315D01*
X135884978Y-92474322D01*
X135884645Y-92474768D01*
X135762335Y-92383206D01*
X135762328Y-92383202D01*
X135627482Y-92332908D01*
X135627483Y-92332908D01*
X135567883Y-92326501D01*
X135567881Y-92326500D01*
X135567873Y-92326500D01*
X135567865Y-92326500D01*
X134932130Y-92326500D01*
X134932123Y-92326501D01*
X134872516Y-92332908D01*
X134737671Y-92383202D01*
X134737669Y-92383204D01*
X134615354Y-92474769D01*
X134613196Y-92471887D01*
X134605386Y-92476152D01*
X134584655Y-92491889D01*
X134572460Y-92494131D01*
X134566903Y-92497166D01*
X134550218Y-92499622D01*
X134428811Y-92509122D01*
X134426729Y-92508683D01*
X134419138Y-92509500D01*
X133964170Y-92509500D01*
X133964154Y-92509499D01*
X133956558Y-92509499D01*
X133798443Y-92509499D01*
X133722079Y-92529961D01*
X133645714Y-92550423D01*
X133645709Y-92550426D01*
X133508790Y-92629475D01*
X133508782Y-92629481D01*
X133459680Y-92678584D01*
X133398357Y-92712069D01*
X133328665Y-92707085D01*
X133272732Y-92665213D01*
X133248315Y-92599749D01*
X133247999Y-92590903D01*
X133247999Y-92152598D01*
X133267684Y-92085559D01*
X133284318Y-92064917D01*
X133430080Y-91919155D01*
X134480000Y-91919155D01*
X134480000Y-92000000D01*
X135000000Y-92000000D01*
X135500000Y-92000000D01*
X136020000Y-92000000D01*
X136020000Y-91919172D01*
X136019999Y-91919155D01*
X136013598Y-91859627D01*
X136013596Y-91859620D01*
X135963354Y-91724913D01*
X135963350Y-91724906D01*
X135877190Y-91609812D01*
X135877187Y-91609809D01*
X135762093Y-91523649D01*
X135762086Y-91523645D01*
X135627379Y-91473403D01*
X135627372Y-91473401D01*
X135567844Y-91467000D01*
X135500000Y-91467000D01*
X135500000Y-92000000D01*
X135000000Y-92000000D01*
X135000000Y-91467000D01*
X134932155Y-91467000D01*
X134872627Y-91473401D01*
X134872620Y-91473403D01*
X134737913Y-91523645D01*
X134737906Y-91523649D01*
X134622812Y-91609809D01*
X134622809Y-91609812D01*
X134536649Y-91724906D01*
X134536645Y-91724913D01*
X134486403Y-91859620D01*
X134486401Y-91859627D01*
X134480000Y-91919155D01*
X133430080Y-91919155D01*
X134712416Y-90636819D01*
X134773739Y-90603334D01*
X134800097Y-90600500D01*
X136172054Y-90600500D01*
X136239093Y-90620185D01*
X136246365Y-90625234D01*
X136364664Y-90713793D01*
X136364671Y-90713797D01*
X136409618Y-90730561D01*
X136499517Y-90764091D01*
X136559127Y-90770500D01*
X136784151Y-90770499D01*
X136851189Y-90790183D01*
X136896944Y-90842987D01*
X136906888Y-90912146D01*
X136883418Y-90968809D01*
X136854146Y-91007911D01*
X136854145Y-91007913D01*
X136803903Y-91142620D01*
X136803901Y-91142627D01*
X136797500Y-91202155D01*
X136797500Y-91750000D01*
X138297500Y-91750000D01*
X138797500Y-91750000D01*
X140297500Y-91750000D01*
X140297500Y-91202172D01*
X140297499Y-91202155D01*
X140291098Y-91142627D01*
X140291096Y-91142620D01*
X140240854Y-91007913D01*
X140240850Y-91007906D01*
X140154690Y-90892812D01*
X140154687Y-90892809D01*
X140039593Y-90806649D01*
X140039586Y-90806645D01*
X139904879Y-90756403D01*
X139904872Y-90756401D01*
X139845344Y-90750000D01*
X138797500Y-90750000D01*
X138797500Y-91750000D01*
X138297500Y-91750000D01*
X138297500Y-90744000D01*
X138317185Y-90676961D01*
X138354133Y-90639896D01*
X138405617Y-90606579D01*
X138476352Y-90512089D01*
X138476354Y-90512086D01*
X138526596Y-90377379D01*
X138526598Y-90377372D01*
X138532999Y-90317844D01*
X138533000Y-90317827D01*
X138533000Y-90250000D01*
X137874000Y-90250000D01*
X137806961Y-90230315D01*
X137761206Y-90177511D01*
X137750000Y-90126000D01*
X137750000Y-90000000D01*
X137713681Y-89963681D01*
X137714948Y-89962413D01*
X137684705Y-89927511D01*
X137673499Y-89876000D01*
X137673499Y-89750000D01*
X138000000Y-89750000D01*
X138533000Y-89750000D01*
X138533000Y-89682172D01*
X138532999Y-89682155D01*
X138526598Y-89622627D01*
X138526596Y-89622620D01*
X138476354Y-89487913D01*
X138476350Y-89487906D01*
X138390190Y-89372812D01*
X138390187Y-89372809D01*
X138275093Y-89286649D01*
X138275086Y-89286645D01*
X138140379Y-89236403D01*
X138140372Y-89236401D01*
X138080844Y-89230000D01*
X138000000Y-89230000D01*
X138000000Y-89750000D01*
X137673499Y-89750000D01*
X137673499Y-89682129D01*
X137673498Y-89682123D01*
X137667091Y-89622516D01*
X137616797Y-89487671D01*
X137616793Y-89487664D01*
X137525232Y-89365355D01*
X137528098Y-89363209D01*
X137521580Y-89351243D01*
X137505023Y-89325480D01*
X137504118Y-89319189D01*
X137502807Y-89316782D01*
X137500000Y-89290545D01*
X137500000Y-89230000D01*
X137419155Y-89230000D01*
X137359624Y-89236401D01*
X137352073Y-89238186D01*
X137351474Y-89235654D01*
X137294337Y-89239732D01*
X137284764Y-89236920D01*
X137280491Y-89235910D01*
X137280483Y-89235909D01*
X137220873Y-89229500D01*
X137220863Y-89229500D01*
X136559129Y-89229500D01*
X136559123Y-89229501D01*
X136499516Y-89235908D01*
X136364671Y-89286202D01*
X136364664Y-89286206D01*
X136246365Y-89374766D01*
X136180901Y-89399184D01*
X136172054Y-89399500D01*
X134586669Y-89399500D01*
X134586653Y-89399499D01*
X134579057Y-89399499D01*
X134420943Y-89399499D01*
X134313587Y-89428265D01*
X134268210Y-89440424D01*
X134268209Y-89440425D01*
X134218096Y-89469359D01*
X134218095Y-89469360D01*
X134186383Y-89487669D01*
X134131285Y-89519479D01*
X134131282Y-89519481D01*
X132166980Y-91483783D01*
X132166978Y-91483786D01*
X132129337Y-91548984D01*
X132129336Y-91548986D01*
X132087922Y-91620715D01*
X132087922Y-91620716D01*
X132046998Y-91773444D01*
X132046998Y-91931558D01*
X132046998Y-91931560D01*
X132046999Y-91941554D01*
X132046999Y-97453331D01*
X132046998Y-97453349D01*
X132046998Y-97619055D01*
X132046997Y-97619055D01*
X130000500Y-97619055D01*
X130000500Y-84002871D01*
X130000632Y-83997144D01*
X130010062Y-83793178D01*
X130017296Y-83636686D01*
X130018353Y-83625291D01*
X130028322Y-83553827D01*
X130067808Y-83270757D01*
X130069909Y-83259520D01*
X130151869Y-82911049D01*
X130154992Y-82900070D01*
X130268763Y-82560623D01*
X130272886Y-82549984D01*
X130417486Y-82222494D01*
X130422569Y-82212285D01*
X130596767Y-81899540D01*
X130602793Y-81889808D01*
X130662998Y-81801920D01*
X130805103Y-81594472D01*
X130811986Y-81585359D01*
X131040681Y-81309951D01*
X131048375Y-81301511D01*
X131301511Y-81048375D01*
X131309951Y-81040681D01*
X131585359Y-80811986D01*
X131594472Y-80805103D01*
X131889813Y-80602789D01*
X131899540Y-80596767D01*
X132212285Y-80422569D01*
X132222494Y-80417486D01*
X132549984Y-80272886D01*
X132560623Y-80268763D01*
X132900070Y-80154992D01*
X132911049Y-80151869D01*
X133259520Y-80069909D01*
X133270757Y-80067808D01*
X133625301Y-80018352D01*
X133636686Y-80017296D01*
X133997145Y-80000632D01*
X134002872Y-80000500D01*
X134065892Y-80000500D01*
X165934108Y-80000500D01*
X165997128Y-80000500D01*
X166002855Y-80000632D01*
G37*
G04 #@! TD.AperFunction*
M02*
