G04 #@! TF.GenerationSoftware,KiCad,Pcbnew,10.0.3*
G04 #@! TF.ProjectId,Speakeasy,53706561-6b65-4617-9379-2e6b69636164,rev?*
G04 #@! TF.SameCoordinates,Original*
G04 #@! TF.FileFunction,Soldermask,Bot*
G04 #@! TF.FilePolarity,Negative*
%FSLAX46Y46*%
G04 Gerber Fmt 4.6, Leading zero omitted, Abs format (unit mm)*
%MOMM*%
%LPD*%
G01*
G04 APERTURE LIST*
%ADD10C,1.600000*%
%ADD11C,0.800000*%
%ADD12C,6.400000*%
%ADD13C,1.500000*%
G04 APERTURE END LIST*
D10*
X161842098Y-92540952D03*
X154750001Y-87000000D03*
D11*
X163600000Y-84000000D03*
X164302944Y-82302944D03*
X164302944Y-85697056D03*
X166000000Y-81600000D03*
D12*
X166000000Y-84000000D03*
D11*
X166000000Y-86400000D03*
X167697056Y-82302944D03*
X167697056Y-85697056D03*
X168400000Y-84000000D03*
X131600000Y-116000000D03*
X132302944Y-114302944D03*
X132302944Y-117697056D03*
X134000000Y-113600000D03*
D12*
X134000000Y-116000000D03*
D11*
X134000000Y-118400000D03*
X135697056Y-114302944D03*
X135697056Y-117697056D03*
X136400000Y-116000000D03*
X131600000Y-84000000D03*
X132302944Y-82302944D03*
X132302944Y-85697056D03*
X134000000Y-81600000D03*
D12*
X134000000Y-84000000D03*
D11*
X134000000Y-86400000D03*
X135697056Y-82302944D03*
X135697056Y-85697056D03*
X136400000Y-84000000D03*
X163600000Y-116000000D03*
X164302944Y-114302944D03*
X164302944Y-117697056D03*
X166000000Y-113600000D03*
D12*
X166000000Y-116000000D03*
D11*
X166000000Y-118400000D03*
X167697056Y-114302944D03*
X167697056Y-117697056D03*
X168400000Y-116000000D03*
D13*
X144950000Y-117500000D03*
X152050000Y-117500000D03*
X155600000Y-117500000D03*
X148500000Y-117500000D03*
M02*
