G04 #@! TF.GenerationSoftware,KiCad,Pcbnew,10.0.3*
G04 #@! TF.ProjectId,Speakeasy,53706561-6b65-4617-9379-2e6b69636164,rev?*
G04 #@! TF.SameCoordinates,Original*
G04 #@! TF.FileFunction,Paste,Top*
G04 #@! TF.FilePolarity,Positive*
%FSLAX46Y46*%
G04 Gerber Fmt 4.6, Leading zero omitted, Abs format (unit mm)*
%MOMM*%
%LPD*%
G01*
G04 APERTURE LIST*
G04 Aperture macros list*
%AMRotRect*
0 Rectangle, with rotation*
0 The origin of the aperture is its center*
0 $1 length*
0 $2 width*
0 $3 Rotation angle, in degrees counterclockwise*
0 Add horizontal line*
21,1,$1,$2,0,0,$3*%
%AMFreePoly0*
4,1,14,0.635227,0.635252,0.649872,0.599897,0.649872,-0.600100,0.635227,-0.635455,0.599872,-0.650100,-0.600126,-0.650100,-0.635481,-0.635455,-0.650126,-0.600100,-0.650126,-0.000102,-0.635481,0.035253,-0.035482,0.635252,-0.000127,0.649897,0.599872,0.649897,0.635227,0.635252,0.635227,0.635252,$1*%
%AMFreePoly1*
4,1,14,0.435426,0.135436,0.535430,0.035431,0.550075,0.000076,0.550075,-0.100051,0.535430,-0.135406,0.500075,-0.150051,-0.549910,-0.150051,-0.585265,-0.135406,-0.599910,-0.100051,-0.599910,0.099949,-0.585265,0.135304,-0.549917,0.149949,0.400068,0.150076,0.435426,0.135436,0.435426,0.135436,$1*%
%AMFreePoly2*
4,1,29,0.585214,0.635303,0.599859,0.599948,0.599859,-0.600050,0.585214,-0.635405,0.549859,-0.650050,-0.000076,-0.650050,-0.035431,-0.635405,-0.050076,-0.600050,-0.050076,-0.500037,-0.500177,-0.500037,-0.535532,-0.485392,-0.550177,-0.450037,-0.550177,-0.200152,-0.535532,-0.164797,-0.500177,-0.150152,-0.050076,-0.150152,-0.050076,0.149974,-0.500177,0.149974,-0.535532,0.164619,-0.550177,0.199974,
-0.550177,0.449936,-0.535532,0.485291,-0.500177,0.499936,-0.050076,0.499936,-0.050076,0.599948,-0.035431,0.635303,-0.000076,0.649948,0.549859,0.649948,0.585214,0.635303,0.585214,0.635303,$1*%
%AMFreePoly3*
4,1,29,0.035380,0.635328,0.050025,0.599973,0.050025,0.499986,0.500024,0.499986,0.535379,0.485341,0.550024,0.449986,0.550024,0.199974,0.535379,0.164619,0.500024,0.149974,0.050025,0.149974,0.050025,-0.150025,0.500024,-0.150025,0.535379,-0.164670,0.550024,-0.200025,0.550024,-0.450012,0.535379,-0.485367,0.500024,-0.500012,0.050025,-0.500012,0.050025,-0.600024,0.035380,-0.635379,
0.000025,-0.650024,-0.549961,-0.650024,-0.585316,-0.635379,-0.599961,-0.600024,-0.599961,0.599973,-0.585316,0.635328,-0.549961,0.649973,0.000025,0.649973,0.035380,0.635328,0.035380,0.635328,$1*%
G04 Aperture macros list end*
%ADD10RotRect,1.400000X5.000000X142.000000*%
%ADD11R,0.900000X0.800000*%
%ADD12R,1.230000X1.860000*%
%ADD13R,0.540000X0.500000*%
%ADD14R,0.540000X0.566000*%
%ADD15R,3.000000X1.000000*%
%ADD16R,2.500000X1.500000*%
%ADD17R,0.600000X0.250000*%
%ADD18R,0.250000X0.600000*%
%ADD19R,1.500000X1.500000*%
%ADD20R,0.800000X0.400000*%
%ADD21R,0.400000X0.800000*%
%ADD22FreePoly0,180.000000*%
%ADD23R,1.200000X1.200000*%
%ADD24R,0.800000X0.800000*%
%ADD25R,0.566000X0.540000*%
%ADD26FreePoly1,0.000000*%
%ADD27R,1.050000X0.200000*%
%ADD28FreePoly2,0.000000*%
%ADD29FreePoly3,0.000000*%
%ADD30R,0.200000X0.700000*%
G04 APERTURE END LIST*
D10*
X156288928Y-95181944D03*
X153530892Y-93027126D03*
D11*
X163000000Y-108550000D03*
X163000000Y-109950000D03*
D12*
X160820000Y-105500000D03*
X165180000Y-105500000D03*
D13*
X159750000Y-111750000D03*
X159750000Y-112590000D03*
X150500000Y-99250000D03*
X150500000Y-98410000D03*
D14*
X143000000Y-98610000D03*
X143000000Y-97750000D03*
D15*
X134847500Y-104739999D03*
X134847500Y-102740000D03*
X134847499Y-100740000D03*
X134847499Y-98740001D03*
X134847500Y-96739999D03*
X134847499Y-94740001D03*
D16*
X138547500Y-107500000D03*
X138547500Y-92000000D03*
D17*
X145500000Y-97000000D03*
X145500000Y-97500000D03*
X145500000Y-98000000D03*
X145500000Y-98500000D03*
D18*
X146250000Y-99250000D03*
X146750000Y-99250000D03*
X147250000Y-99250000D03*
X147750000Y-99250000D03*
D17*
X148500000Y-98500000D03*
X148500000Y-98000000D03*
X148500000Y-97500000D03*
X148500000Y-97000000D03*
D18*
X147750000Y-96250000D03*
X147250000Y-96250000D03*
X146750000Y-96250000D03*
X146250000Y-96250000D03*
D19*
X147000000Y-97750000D03*
D14*
X144250000Y-98500000D03*
X144250000Y-97640000D03*
X141250000Y-114250000D03*
X141250000Y-113390000D03*
D20*
X156999999Y-113450000D03*
X157000000Y-112599998D03*
X157000000Y-111750000D03*
X156999999Y-110900001D03*
X157000000Y-110050000D03*
X157000002Y-109200000D03*
X157000000Y-108350002D03*
X157000000Y-107500001D03*
X156999999Y-106650001D03*
X157000000Y-105800000D03*
X156999999Y-104950000D03*
X157000001Y-104100000D03*
X156999999Y-103250000D03*
X156999999Y-102400000D03*
X157000000Y-101550000D03*
D21*
X155950000Y-100500001D03*
X155099998Y-100500000D03*
X154250000Y-100500000D03*
X153400001Y-100500001D03*
X152550000Y-100500000D03*
X151700000Y-100499998D03*
X150850002Y-100500000D03*
X150000001Y-100500000D03*
X149150001Y-100500001D03*
X148300000Y-100500000D03*
X147450000Y-100500001D03*
X146600000Y-100499999D03*
X145750000Y-100500001D03*
X144900000Y-100500001D03*
X144050000Y-100500000D03*
D20*
X143000001Y-101550000D03*
X143000000Y-102400002D03*
X143000000Y-103250000D03*
X143000001Y-104099999D03*
X143000000Y-104950000D03*
X142999998Y-105800000D03*
X143000000Y-106649998D03*
X143000000Y-107499999D03*
X143000001Y-108349999D03*
X143000000Y-109200000D03*
X143000001Y-110050000D03*
X142999999Y-110900000D03*
X143000001Y-111750000D03*
X143000001Y-112600000D03*
X143000000Y-113450000D03*
D21*
X144050000Y-114499999D03*
X144900002Y-114500000D03*
X145750000Y-114500000D03*
X146599999Y-114499999D03*
X147450000Y-114500000D03*
X148300000Y-114500002D03*
X149149998Y-114500000D03*
X149999999Y-114500000D03*
X150849999Y-114499999D03*
X151700000Y-114500000D03*
X152550000Y-114499999D03*
X153400000Y-114500001D03*
X154250000Y-114499999D03*
X155100000Y-114499999D03*
X155950000Y-114500000D03*
D22*
X151650000Y-109150000D03*
D23*
X151650000Y-107500000D03*
X151650000Y-105850000D03*
X150000000Y-109150000D03*
X150000000Y-107500000D03*
X150000000Y-105850000D03*
X148350000Y-109150000D03*
X148350000Y-107500000D03*
X148350000Y-105850000D03*
D24*
X157000000Y-114500000D03*
X157000000Y-100500000D03*
X143000000Y-100500000D03*
X143000000Y-114500000D03*
D25*
X136890000Y-90000000D03*
X137750000Y-90000000D03*
D26*
X159550000Y-108750000D03*
D27*
X159520000Y-109150000D03*
D28*
X159500000Y-110120000D03*
D29*
X161600000Y-110120000D03*
D27*
X161580000Y-109150000D03*
X161580000Y-108750000D03*
D30*
X161150000Y-108000000D03*
X160750000Y-108000000D03*
X160350000Y-108000000D03*
X159950000Y-108000000D03*
D13*
X151500000Y-99250000D03*
X151500000Y-98410000D03*
X158500000Y-111750000D03*
X158500000Y-112590000D03*
D12*
X141360000Y-110000000D03*
X137000000Y-110000000D03*
D14*
X135250000Y-93110000D03*
X135250000Y-92250000D03*
M02*
