M48
; FORMAT={-:-/ absolute / metric / decimal}
; #@! TF.GenerationSoftware,Kicad,Pcbnew,10.0.3
; #@! TF.FileFunction,MixedPlating,1,2
FMAT,2
METRIC
; #@! TA.AperFunction,Plated,PTH,ViaDrill
T1C0.300
; #@! TA.AperFunction,Plated,PTH,ComponentDrill
T2C0.500
; #@! TA.AperFunction,Plated,PTH,ComponentDrill
T3C1.600
; #@! TA.AperFunction,Plated,PTH,ComponentDrill
T4C3.200
%
G90
G05
T1
X133.75Y-104.74
X134.0Y-92.0
X134.5Y-104.75
X135.0Y-91.0
X135.25Y-104.74
X135.75Y-102.75
X136.0Y-91.0
X136.0Y-104.75
X136.25Y-100.75
X136.5Y-92.0
X137.0Y-94.5
X137.0Y-97.5
X137.0Y-99.0
X137.75Y-90.0
X138.547Y-92.0
X138.75Y-99.0
X140.0Y-90.0
X140.0Y-97.5
X140.75Y-92.0
X141.25Y-114.25
X141.689Y-103.0
X141.75Y-99.25
X141.75Y-102.0
X143.0Y-110.9
X143.0Y-98.61
X143.0Y-109.2
X143.0Y-113.45
X143.0Y-114.5
X143.0Y-108.35
X143.0Y-111.75
X144.0Y-104.5
X144.05Y-114.5
X144.25Y-98.5
X144.25Y-110.25
X144.25Y-111.5
X144.5Y-107.5
X144.5Y-113.0
X144.75Y-96.75
X144.9Y-114.5
X145.25Y-95.0
X145.5Y-96.25
X146.0Y-111.5
X146.5Y-97.25
X146.6Y-114.5
X146.75Y-103.5
X147.0Y-97.75
X147.0Y-113.0
X147.45Y-114.5
X147.5Y-97.25
X148.25Y-95.5
X148.3Y-114.5
X148.35Y-105.85
X148.35Y-107.5
X148.35Y-109.15
X148.75Y-96.25
X149.15Y-100.5
X149.444Y-94.9
X149.5Y-97.0
X149.75Y-96.25
X150.0Y-105.85
X150.0Y-107.5
X150.0Y-109.75
X150.0Y-113.0
X150.0Y-100.5
X150.5Y-94.25
X151.5Y-93.25
X151.5Y-99.25
X151.65Y-105.85
X151.65Y-107.5
X151.7Y-114.5
X152.0Y-108.75
X152.25Y-101.5
X152.5Y-98.5
X152.5Y-110.0
X152.5Y-113.0
X152.55Y-114.5
X153.0Y-91.0
X153.4Y-114.5
X153.5Y-90.0
X153.5Y-96.5
X154.0Y-95.0
X154.75Y-101.75
X155.5Y-102.0
X155.5Y-105.5
X155.5Y-107.5
X155.75Y-102.75
X155.95Y-114.5
X156.0Y-109.5
X156.5Y-99.25
X157.0Y-104.95
X157.0Y-106.65
X157.0Y-110.9
X157.0Y-113.45
X157.0Y-105.8
X157.0Y-107.5
X157.0Y-111.75
X157.0Y-112.6
X157.0Y-114.5
X157.0Y-104.1
X158.18Y-109.15
X158.58Y-107.75
X159.25Y-107.0
X160.35Y-107.02
X160.82Y-105.5
X161.36Y-110.36
X163.0Y-108.55
T2
X131.6Y-84.0
X131.6Y-116.0
X132.303Y-82.303
X132.303Y-85.697
X132.303Y-114.303
X132.303Y-117.697
X134.0Y-81.6
X134.0Y-86.4
X134.0Y-113.6
X134.0Y-118.4
X135.697Y-82.303
X135.697Y-85.697
X135.697Y-114.303
X135.697Y-117.697
X136.4Y-84.0
X136.4Y-116.0
X163.6Y-84.0
X163.6Y-116.0
X164.303Y-82.303
X164.303Y-85.697
X164.303Y-114.303
X164.303Y-117.697
X166.0Y-81.6
X166.0Y-86.4
X166.0Y-113.6
X166.0Y-118.4
X167.697Y-82.303
X167.697Y-85.697
X167.697Y-114.303
X167.697Y-117.697
X168.4Y-84.0
X168.4Y-116.0
T3
X154.75Y-87.0
X161.842Y-92.541
T4
X134.0Y-84.0
X134.0Y-116.0
X166.0Y-84.0
X166.0Y-116.0
M30
