G04 #@! TF.GenerationSoftware,KiCad,Pcbnew,10.0.3*
G04 #@! TF.ProjectId,Speakeasy_panel_2x2,53706561-6b65-4617-9379-5f70616e656c,rev?*
G04 #@! TF.SameCoordinates,Original*
G04 #@! TF.FileFunction,Other,User*
%FSLAX46Y46*%
G04 Gerber Fmt 4.6, Leading zero omitted, Abs format (unit mm)*
%MOMM*%
%LPD*%
G01*
G04 APERTURE LIST*
%ADD10C,0.050000*%
G04 APERTURE END LIST*
D10*
X179500000Y-106170000D02*
X180000000Y-106170000D01*
X179500000Y-107170000D02*
X179500000Y-106170000D01*
X180000000Y-106170000D02*
X180000000Y-107170000D01*
X180000000Y-107170000D02*
X179500000Y-107170000D01*
X186600000Y-23500000D02*
G75*
G02*
X184400000Y-23500000I-1100000J0D01*
G01*
X184400000Y-23500000D02*
G75*
G02*
X186600000Y-23500000I1100000J0D01*
G01*
X189450000Y-110500000D02*
G75*
G02*
X182550000Y-110500000I-3450000J0D01*
G01*
X182550000Y-110500000D02*
G75*
G02*
X189450000Y-110500000I3450000J0D01*
G01*
X130229280Y-85070701D02*
X134785175Y-79239421D01*
X134785175Y-79239421D02*
X140301251Y-83549052D01*
X135745355Y-89380331D02*
X130229280Y-85070701D01*
X140301251Y-83549052D02*
X135745355Y-89380331D01*
X182600000Y-102950000D02*
X183400000Y-102950000D01*
X182600000Y-104550000D02*
X182600000Y-102950000D01*
X183400000Y-102950000D02*
X183400000Y-104550000D01*
X183400000Y-104550000D02*
X182600000Y-104550000D01*
X164000000Y-49070000D02*
X164500000Y-49070000D01*
X164000000Y-50070000D02*
X164000000Y-49070000D01*
X164500000Y-49070000D02*
X164500000Y-50070000D01*
X164500000Y-50070000D02*
X164000000Y-50070000D01*
X119750000Y-49180000D02*
X120250000Y-49180000D01*
X119750000Y-50180000D02*
X119750000Y-49180000D01*
X120250000Y-49180000D02*
X120250000Y-50180000D01*
X120250000Y-50180000D02*
X119750000Y-50180000D01*
X178250000Y-63170000D02*
X178750000Y-63170000D01*
X178250000Y-64170000D02*
X178250000Y-63170000D01*
X178750000Y-63170000D02*
X178750000Y-64170000D01*
X178750000Y-64170000D02*
X178250000Y-64170000D01*
X112000000Y-86680000D02*
X112500000Y-86680000D01*
X112000000Y-87680000D02*
X112000000Y-86680000D01*
X112500000Y-86680000D02*
X112500000Y-87680000D01*
X112500000Y-87680000D02*
X112000000Y-87680000D01*
X170250000Y-49830000D02*
X170750000Y-49830000D01*
X170250000Y-50830000D02*
X170250000Y-49830000D01*
X170750000Y-49830000D02*
X170750000Y-50830000D01*
X170750000Y-50830000D02*
X170250000Y-50830000D01*
X114450000Y-35500000D02*
G75*
G02*
X107550000Y-35500000I-3450000J0D01*
G01*
X107550000Y-35500000D02*
G75*
G02*
X114450000Y-35500000I3450000J0D01*
G01*
X122500000Y-90750000D02*
X125500000Y-90750000D01*
X122500000Y-93750000D02*
X122500000Y-90750000D01*
X125500000Y-90750000D02*
X125500000Y-93750000D01*
X125500000Y-93750000D02*
X122500000Y-93750000D01*
X157450000Y-78500000D02*
G75*
G02*
X150550000Y-78500000I-3450000J0D01*
G01*
X150550000Y-78500000D02*
G75*
G02*
X157450000Y-78500000I3450000J0D01*
G01*
X173229280Y-42070701D02*
X177785175Y-36239421D01*
X177785175Y-36239421D02*
X183301251Y-40549052D01*
X178745355Y-46380331D02*
X173229280Y-42070701D01*
X183301251Y-40549052D02*
X178745355Y-46380331D01*
X162299999Y-94299999D02*
X177700001Y-94299999D01*
X162299999Y-109700001D02*
X162299999Y-94299999D01*
X177700001Y-94299999D02*
X177700001Y-109700001D01*
X177700001Y-109700001D02*
X162299999Y-109700001D01*
X119299999Y-51299999D02*
X134700001Y-51299999D01*
X119299999Y-66700001D02*
X119299999Y-51299999D01*
X134700001Y-51299999D02*
X134700001Y-66700001D01*
X134700001Y-66700001D02*
X119299999Y-66700001D01*
X136500000Y-63170000D02*
X137000000Y-63170000D01*
X136500000Y-64170000D02*
X136500000Y-63170000D01*
X137000000Y-63170000D02*
X137000000Y-64170000D01*
X137000000Y-64170000D02*
X136500000Y-64170000D01*
X170250000Y-92830000D02*
X170750000Y-92830000D01*
X170250000Y-93830000D02*
X170250000Y-92830000D01*
X170750000Y-92830000D02*
X170750000Y-93830000D01*
X170750000Y-93830000D02*
X170250000Y-93830000D01*
X157450000Y-35500000D02*
G75*
G02*
X150550000Y-35500000I-3450000J0D01*
G01*
X150550000Y-35500000D02*
G75*
G02*
X157450000Y-35500000I3450000J0D01*
G01*
X121000000Y-92070000D02*
X121500000Y-92070000D01*
X121000000Y-93070000D02*
X121000000Y-92070000D01*
X121500000Y-92070000D02*
X121500000Y-93070000D01*
X121500000Y-93070000D02*
X121000000Y-93070000D01*
X113820000Y-41250000D02*
X114820000Y-41250000D01*
X113820000Y-41750000D02*
X113820000Y-41250000D01*
X114820000Y-41250000D02*
X114820000Y-41750000D01*
X114820000Y-41750000D02*
X113820000Y-41750000D01*
X127250000Y-92830000D02*
X127750000Y-92830000D01*
X127250000Y-93830000D02*
X127250000Y-92830000D01*
X127750000Y-92830000D02*
X127750000Y-93830000D01*
X127750000Y-93830000D02*
X127250000Y-93830000D01*
X114230000Y-60040000D02*
X118130000Y-60040000D01*
X114230000Y-62960000D02*
X114230000Y-60040000D01*
X118130000Y-60040000D02*
X118130000Y-62960000D01*
X118130000Y-62960000D02*
X114230000Y-62960000D01*
X112000000Y-43680000D02*
X112500000Y-43680000D01*
X112000000Y-44680000D02*
X112000000Y-43680000D01*
X112500000Y-43680000D02*
X112500000Y-44680000D01*
X112500000Y-44680000D02*
X112000000Y-44680000D01*
X178250000Y-106170000D02*
X178750000Y-106170000D01*
X178250000Y-107170000D02*
X178250000Y-106170000D01*
X178750000Y-106170000D02*
X178750000Y-107170000D01*
X178750000Y-107170000D02*
X178250000Y-107170000D01*
X157450000Y-67500000D02*
G75*
G02*
X150550000Y-67500000I-3450000J0D01*
G01*
X150550000Y-67500000D02*
G75*
G02*
X157450000Y-67500000I3450000J0D01*
G01*
X156137500Y-86250001D02*
X161537500Y-86250000D01*
X156137500Y-102249999D02*
X156137500Y-86250001D01*
X161537500Y-86250000D02*
X161537501Y-102250000D01*
X161537501Y-102250000D02*
X156137500Y-102249999D01*
X157230000Y-60040000D02*
X161130000Y-60040000D01*
X157230000Y-62960000D02*
X157230000Y-60040000D01*
X161130000Y-60040000D02*
X161130000Y-62960000D01*
X161130000Y-62960000D02*
X157230000Y-62960000D01*
X113137500Y-86250001D02*
X118537500Y-86250000D01*
X113137500Y-102249999D02*
X113137500Y-86250001D01*
X118537500Y-86250000D02*
X118537501Y-102250000D01*
X118537501Y-102250000D02*
X113137500Y-102249999D01*
X171250000Y-92830000D02*
X171750000Y-92830000D01*
X171250000Y-93830000D02*
X171250000Y-92830000D01*
X171750000Y-92830000D02*
X171750000Y-93830000D01*
X171750000Y-93830000D02*
X171250000Y-93830000D01*
X179300000Y-102450000D02*
X181800000Y-102450000D01*
X179300000Y-105450000D02*
X179300000Y-102450000D01*
X181800000Y-102450000D02*
X181800000Y-105450000D01*
X181800000Y-105450000D02*
X179300000Y-105450000D01*
X113137500Y-43250001D02*
X118537500Y-43250000D01*
X113137500Y-59249999D02*
X113137500Y-43250001D01*
X118537500Y-43250000D02*
X118537501Y-59250000D01*
X118537501Y-59250000D02*
X113137500Y-59249999D01*
X164000000Y-92070000D02*
X164500000Y-92070000D01*
X164000000Y-93070000D02*
X164000000Y-92070000D01*
X164500000Y-92070000D02*
X164500000Y-93070000D01*
X164500000Y-93070000D02*
X164000000Y-93070000D01*
X179500000Y-63170000D02*
X180000000Y-63170000D01*
X179500000Y-64170000D02*
X179500000Y-63170000D01*
X180000000Y-63170000D02*
X180000000Y-64170000D01*
X180000000Y-64170000D02*
X179500000Y-64170000D01*
X162750000Y-49180000D02*
X163250000Y-49180000D01*
X162750000Y-50180000D02*
X162750000Y-49180000D01*
X163250000Y-49180000D02*
X163250000Y-50180000D01*
X163250000Y-50180000D02*
X162750000Y-50180000D01*
X121000000Y-49070000D02*
X121500000Y-49070000D01*
X121000000Y-50070000D02*
X121000000Y-49070000D01*
X121500000Y-49070000D02*
X121500000Y-50070000D01*
X121500000Y-50070000D02*
X121000000Y-50070000D01*
X182600000Y-59950000D02*
X183400000Y-59950000D01*
X182600000Y-61550000D02*
X182600000Y-59950000D01*
X183400000Y-59950000D02*
X183400000Y-61550000D01*
X183400000Y-61550000D02*
X182600000Y-61550000D01*
X118000000Y-107820000D02*
X118500000Y-107820000D01*
X118000000Y-108820000D02*
X118000000Y-107820000D01*
X118500000Y-107820000D02*
X118500000Y-108820000D01*
X118500000Y-108820000D02*
X118000000Y-108820000D01*
X112600000Y-122500000D02*
G75*
G02*
X110400000Y-122500000I-1100000J0D01*
G01*
X110400000Y-122500000D02*
G75*
G02*
X112600000Y-122500000I1100000J0D01*
G01*
X135250000Y-63170000D02*
X135750000Y-63170000D01*
X135250000Y-64170000D02*
X135250000Y-63170000D01*
X135750000Y-63170000D02*
X135750000Y-64170000D01*
X135750000Y-64170000D02*
X135250000Y-64170000D01*
X189450000Y-78500000D02*
G75*
G02*
X182550000Y-78500000I-3450000J0D01*
G01*
X182550000Y-78500000D02*
G75*
G02*
X189450000Y-78500000I3450000J0D01*
G01*
X122500000Y-47750000D02*
X125500000Y-47750000D01*
X122500000Y-50750000D02*
X122500000Y-47750000D01*
X125500000Y-47750000D02*
X125500000Y-50750000D01*
X125500000Y-50750000D02*
X122500000Y-50750000D01*
X156820000Y-41250000D02*
X157820000Y-41250000D01*
X156820000Y-41750000D02*
X156820000Y-41250000D01*
X157820000Y-41250000D02*
X157820000Y-41750000D01*
X157820000Y-41750000D02*
X156820000Y-41750000D01*
X179300000Y-59450000D02*
X181800000Y-59450000D01*
X179300000Y-62450000D02*
X179300000Y-59450000D01*
X181800000Y-59450000D02*
X181800000Y-62450000D01*
X181800000Y-62450000D02*
X179300000Y-62450000D01*
X127250000Y-49830000D02*
X127750000Y-49830000D01*
X127250000Y-50830000D02*
X127250000Y-49830000D01*
X127750000Y-49830000D02*
X127750000Y-50830000D01*
X127750000Y-50830000D02*
X127250000Y-50830000D01*
X171250000Y-49830000D02*
X171750000Y-49830000D01*
X171250000Y-50830000D02*
X171250000Y-49830000D01*
X171750000Y-49830000D02*
X171750000Y-50830000D01*
X171750000Y-50830000D02*
X171250000Y-50830000D01*
X146450000Y-67500000D02*
G75*
G02*
X139550000Y-67500000I-3450000J0D01*
G01*
X139550000Y-67500000D02*
G75*
G02*
X146450000Y-67500000I3450000J0D01*
G01*
X165500000Y-90750000D02*
X168500000Y-90750000D01*
X165500000Y-93750000D02*
X165500000Y-90750000D01*
X168500000Y-90750000D02*
X168500000Y-93750000D01*
X168500000Y-93750000D02*
X165500000Y-93750000D01*
X146450000Y-78500000D02*
G75*
G02*
X139550000Y-78500000I-3450000J0D01*
G01*
X139550000Y-78500000D02*
G75*
G02*
X146450000Y-78500000I3450000J0D01*
G01*
X181050000Y-98540000D02*
X184950000Y-98540000D01*
X181050000Y-101460000D02*
X181050000Y-98540000D01*
X184950000Y-98540000D02*
X184950000Y-101460000D01*
X184950000Y-101460000D02*
X181050000Y-101460000D01*
X162750000Y-92180000D02*
X163250000Y-92180000D01*
X162750000Y-93180000D02*
X162750000Y-92180000D01*
X163250000Y-92180000D02*
X163250000Y-93180000D01*
X163250000Y-93180000D02*
X162750000Y-93180000D01*
X155000000Y-43680000D02*
X155500000Y-43680000D01*
X155000000Y-44680000D02*
X155000000Y-43680000D01*
X155500000Y-43680000D02*
X155500000Y-44680000D01*
X155500000Y-44680000D02*
X155000000Y-44680000D01*
X114450000Y-67500000D02*
G75*
G02*
X107550000Y-67500000I-3450000J0D01*
G01*
X107550000Y-67500000D02*
G75*
G02*
X114450000Y-67500000I3450000J0D01*
G01*
X155000000Y-86680000D02*
X155500000Y-86680000D01*
X155000000Y-87680000D02*
X155000000Y-86680000D01*
X155500000Y-86680000D02*
X155500000Y-87680000D01*
X155500000Y-87680000D02*
X155000000Y-87680000D01*
X146450000Y-110500000D02*
G75*
G02*
X139550000Y-110500000I-3450000J0D01*
G01*
X139550000Y-110500000D02*
G75*
G02*
X146450000Y-110500000I3450000J0D01*
G01*
X165500000Y-47750000D02*
X168500000Y-47750000D01*
X165500000Y-50750000D02*
X165500000Y-47750000D01*
X168500000Y-47750000D02*
X168500000Y-50750000D01*
X168500000Y-50750000D02*
X165500000Y-50750000D01*
X113820000Y-84250000D02*
X114820000Y-84250000D01*
X113820000Y-84750000D02*
X113820000Y-84250000D01*
X114820000Y-84250000D02*
X114820000Y-84750000D01*
X114820000Y-84750000D02*
X113820000Y-84750000D01*
X128250000Y-49830000D02*
X128750000Y-49830000D01*
X128250000Y-50830000D02*
X128250000Y-49830000D01*
X128750000Y-49830000D02*
X128750000Y-50830000D01*
X128750000Y-50830000D02*
X128250000Y-50830000D01*
X189450000Y-35500000D02*
G75*
G02*
X182550000Y-35500000I-3450000J0D01*
G01*
X182550000Y-35500000D02*
G75*
G02*
X189450000Y-35500000I3450000J0D01*
G01*
X114450000Y-78500000D02*
G75*
G02*
X107550000Y-78500000I-3450000J0D01*
G01*
X107550000Y-78500000D02*
G75*
G02*
X114450000Y-78500000I3450000J0D01*
G01*
X161000000Y-107820000D02*
X161500000Y-107820000D01*
X161000000Y-108820000D02*
X161000000Y-107820000D01*
X161500000Y-107820000D02*
X161500000Y-108820000D01*
X161500000Y-108820000D02*
X161000000Y-108820000D01*
X189450000Y-67500000D02*
G75*
G02*
X182550000Y-67500000I-3450000J0D01*
G01*
X182550000Y-67500000D02*
G75*
G02*
X189450000Y-67500000I3450000J0D01*
G01*
X161000000Y-64820000D02*
X161500000Y-64820000D01*
X161000000Y-65820000D02*
X161000000Y-64820000D01*
X161500000Y-64820000D02*
X161500000Y-65820000D01*
X161500000Y-65820000D02*
X161000000Y-65820000D01*
X156137500Y-43250001D02*
X161537500Y-43250000D01*
X156137500Y-59249999D02*
X156137500Y-43250001D01*
X161537500Y-43250000D02*
X161537501Y-59250000D01*
X161537501Y-59250000D02*
X156137500Y-59249999D01*
X146450000Y-35500000D02*
G75*
G02*
X139550000Y-35500000I-3450000J0D01*
G01*
X139550000Y-35500000D02*
G75*
G02*
X146450000Y-35500000I3450000J0D01*
G01*
X139600000Y-59950000D02*
X140400000Y-59950000D01*
X139600000Y-61550000D02*
X139600000Y-59950000D01*
X140400000Y-59950000D02*
X140400000Y-61550000D01*
X140400000Y-61550000D02*
X139600000Y-61550000D01*
X130229280Y-42070701D02*
X134785175Y-36239421D01*
X134785175Y-36239421D02*
X140301251Y-40549052D01*
X135745355Y-46380331D02*
X130229280Y-42070701D01*
X140301251Y-40549052D02*
X135745355Y-46380331D01*
X136500000Y-106170000D02*
X137000000Y-106170000D01*
X136500000Y-107170000D02*
X136500000Y-106170000D01*
X137000000Y-106170000D02*
X137000000Y-107170000D01*
X137000000Y-107170000D02*
X136500000Y-107170000D01*
X139600000Y-102950000D02*
X140400000Y-102950000D01*
X139600000Y-104550000D02*
X139600000Y-102950000D01*
X140400000Y-102950000D02*
X140400000Y-104550000D01*
X140400000Y-104550000D02*
X139600000Y-104550000D01*
X162299999Y-51299999D02*
X177700001Y-51299999D01*
X162299999Y-66700001D02*
X162299999Y-51299999D01*
X177700001Y-51299999D02*
X177700001Y-66700001D01*
X177700001Y-66700001D02*
X162299999Y-66700001D01*
X128250000Y-92830000D02*
X128750000Y-92830000D01*
X128250000Y-93830000D02*
X128250000Y-92830000D01*
X128750000Y-92830000D02*
X128750000Y-93830000D01*
X128750000Y-93830000D02*
X128250000Y-93830000D01*
X114450000Y-110500000D02*
G75*
G02*
X107550000Y-110500000I-3450000J0D01*
G01*
X107550000Y-110500000D02*
G75*
G02*
X114450000Y-110500000I3450000J0D01*
G01*
X118000000Y-64820000D02*
X118500000Y-64820000D01*
X118000000Y-65820000D02*
X118000000Y-64820000D01*
X118500000Y-64820000D02*
X118500000Y-65820000D01*
X118500000Y-65820000D02*
X118000000Y-65820000D01*
X156820000Y-84250000D02*
X157820000Y-84250000D01*
X156820000Y-84750000D02*
X156820000Y-84250000D01*
X157820000Y-84250000D02*
X157820000Y-84750000D01*
X157820000Y-84750000D02*
X156820000Y-84750000D01*
X181050000Y-55540000D02*
X184950000Y-55540000D01*
X181050000Y-58460000D02*
X181050000Y-55540000D01*
X184950000Y-55540000D02*
X184950000Y-58460000D01*
X184950000Y-58460000D02*
X181050000Y-58460000D01*
X136300000Y-102450000D02*
X138800000Y-102450000D01*
X136300000Y-105450000D02*
X136300000Y-102450000D01*
X138800000Y-102450000D02*
X138800000Y-105450000D01*
X138800000Y-105450000D02*
X136300000Y-105450000D01*
X114230000Y-103040000D02*
X118130000Y-103040000D01*
X114230000Y-105960000D02*
X114230000Y-103040000D01*
X118130000Y-103040000D02*
X118130000Y-105960000D01*
X118130000Y-105960000D02*
X114230000Y-105960000D01*
X119750000Y-92180000D02*
X120250000Y-92180000D01*
X119750000Y-93180000D02*
X119750000Y-92180000D01*
X120250000Y-92180000D02*
X120250000Y-93180000D01*
X120250000Y-93180000D02*
X119750000Y-93180000D01*
X157230000Y-103040000D02*
X161130000Y-103040000D01*
X157230000Y-105960000D02*
X157230000Y-103040000D01*
X161130000Y-103040000D02*
X161130000Y-105960000D01*
X161130000Y-105960000D02*
X157230000Y-105960000D01*
X136300000Y-59450000D02*
X138800000Y-59450000D01*
X136300000Y-62450000D02*
X136300000Y-59450000D01*
X138800000Y-59450000D02*
X138800000Y-62450000D01*
X138800000Y-62450000D02*
X136300000Y-62450000D01*
X173229280Y-85070701D02*
X177785175Y-79239421D01*
X177785175Y-79239421D02*
X183301251Y-83549052D01*
X178745355Y-89380331D02*
X173229280Y-85070701D01*
X183301251Y-83549052D02*
X178745355Y-89380331D01*
X119299999Y-94299999D02*
X134700001Y-94299999D01*
X119299999Y-109700001D02*
X119299999Y-94299999D01*
X134700001Y-94299999D02*
X134700001Y-109700001D01*
X134700001Y-109700001D02*
X119299999Y-109700001D01*
X157450000Y-110500000D02*
G75*
G02*
X150550000Y-110500000I-3450000J0D01*
G01*
X150550000Y-110500000D02*
G75*
G02*
X157450000Y-110500000I3450000J0D01*
G01*
X138050000Y-55540000D02*
X141950000Y-55540000D01*
X138050000Y-58460000D02*
X138050000Y-55540000D01*
X141950000Y-55540000D02*
X141950000Y-58460000D01*
X141950000Y-58460000D02*
X138050000Y-58460000D01*
X112600000Y-23500000D02*
G75*
G02*
X110400000Y-23500000I-1100000J0D01*
G01*
X110400000Y-23500000D02*
G75*
G02*
X112600000Y-23500000I1100000J0D01*
G01*
X138050000Y-98540000D02*
X141950000Y-98540000D01*
X138050000Y-101460000D02*
X138050000Y-98540000D01*
X141950000Y-98540000D02*
X141950000Y-101460000D01*
X141950000Y-101460000D02*
X138050000Y-101460000D01*
X135250000Y-106170000D02*
X135750000Y-106170000D01*
X135250000Y-107170000D02*
X135250000Y-106170000D01*
X135750000Y-106170000D02*
X135750000Y-107170000D01*
X135750000Y-107170000D02*
X135250000Y-107170000D01*
M02*
