M48
; FORMAT={-:-/ absolute / metric / decimal}
; #@! TF.GenerationSoftware,Kicad,Pcbnew,10.0.3
; #@! TF.FileFunction,MixedPlating,1,2
FMAT,2
METRIC
; #@! TA.AperFunction,Plated,PTH,ViaDrill
T1C0.300
; #@! TA.AperFunction,Plated,PTH,ComponentDrill
T2C0.500
; #@! TA.AperFunction,Plated,PTH,ComponentDrill
T3C1.600
; #@! TA.AperFunction,Plated,PTH,ComponentDrill
T4C3.200
; #@! TA.AperFunction,NonPlated,NPTH,ComponentDrill
T5C0.500
; #@! TA.AperFunction,NonPlated,NPTH,ComponentDrill
T6C2.000
%
G90
G05
T1
X110.75Y-56.24
X110.75Y-99.24
X111.0Y-43.5
X111.0Y-86.5
X111.5Y-56.25
X111.5Y-99.25
X112.0Y-42.5
X112.0Y-85.5
X112.25Y-56.24
X112.25Y-99.24
X112.75Y-54.25
X112.75Y-97.25
X113.0Y-42.5
X113.0Y-56.25
X113.0Y-85.5
X113.0Y-99.25
X113.25Y-52.25
X113.25Y-95.25
X113.5Y-43.5
X113.5Y-86.5
X114.0Y-46.0
X114.0Y-49.0
X114.0Y-50.5
X114.0Y-89.0
X114.0Y-92.0
X114.0Y-93.5
X114.75Y-41.5
X114.75Y-84.5
X115.547Y-43.5
X115.547Y-86.5
X115.75Y-50.5
X115.75Y-93.5
X117.0Y-41.5
X117.0Y-49.0
X117.0Y-84.5
X117.0Y-92.0
X117.75Y-43.5
X117.75Y-86.5
X118.25Y-65.75
X118.25Y-108.75
X118.689Y-54.5
X118.689Y-97.5
X118.75Y-50.75
X118.75Y-53.5
X118.75Y-93.75
X118.75Y-96.5
X120.0Y-62.4
X120.0Y-105.4
X120.0Y-50.11
X120.0Y-60.7
X120.0Y-64.95
X120.0Y-66.0
X120.0Y-93.11
X120.0Y-103.7
X120.0Y-107.95
X120.0Y-109.0
X120.0Y-59.85
X120.0Y-63.25
X120.0Y-102.85
X120.0Y-106.25
X121.0Y-56.0
X121.0Y-99.0
X121.05Y-66.0
X121.05Y-109.0
X121.25Y-50.0
X121.25Y-61.75
X121.25Y-63.0
X121.25Y-93.0
X121.25Y-104.75
X121.25Y-106.0
X121.5Y-59.0
X121.5Y-64.5
X121.5Y-102.0
X121.5Y-107.5
X121.75Y-48.25
X121.75Y-91.25
X121.9Y-66.0
X121.9Y-109.0
X122.25Y-46.5
X122.25Y-89.5
X122.5Y-47.75
X122.5Y-90.75
X123.0Y-63.0
X123.0Y-106.0
X123.5Y-48.75
X123.5Y-91.75
X123.6Y-66.0
X123.6Y-109.0
X123.75Y-55.0
X123.75Y-98.0
X124.0Y-49.25
X124.0Y-64.5
X124.0Y-92.25
X124.0Y-107.5
X124.45Y-66.0
X124.45Y-109.0
X124.5Y-48.75
X124.5Y-91.75
X125.25Y-47.0
X125.25Y-90.0
X125.3Y-66.0
X125.3Y-109.0
X125.35Y-57.35
X125.35Y-59.0
X125.35Y-60.65
X125.35Y-100.35
X125.35Y-102.0
X125.35Y-103.65
X125.75Y-47.75
X125.75Y-90.75
X126.15Y-52.0
X126.15Y-95.0
X126.444Y-46.4
X126.444Y-89.4
X126.5Y-48.5
X126.5Y-91.5
X126.75Y-47.75
X126.75Y-90.75
X127.0Y-57.35
X127.0Y-59.0
X127.0Y-61.25
X127.0Y-64.5
X127.0Y-100.35
X127.0Y-102.0
X127.0Y-104.25
X127.0Y-107.5
X127.0Y-52.0
X127.0Y-95.0
X127.5Y-45.75
X127.5Y-88.75
X128.5Y-44.75
X128.5Y-50.75
X128.5Y-87.75
X128.5Y-93.75
X128.65Y-57.35
X128.65Y-59.0
X128.65Y-100.35
X128.65Y-102.0
X128.7Y-66.0
X128.7Y-109.0
X129.0Y-60.25
X129.0Y-103.25
X129.25Y-53.0
X129.25Y-96.0
X129.5Y-50.0
X129.5Y-61.5
X129.5Y-64.5
X129.5Y-93.0
X129.5Y-104.5
X129.5Y-107.5
X129.55Y-66.0
X129.55Y-109.0
X130.0Y-42.5
X130.0Y-85.5
X130.4Y-66.0
X130.4Y-109.0
X130.5Y-41.5
X130.5Y-48.0
X130.5Y-84.5
X130.5Y-91.0
X131.0Y-46.5
X131.0Y-89.5
X131.75Y-53.25
X131.75Y-96.25
X132.5Y-53.5
X132.5Y-57.0
X132.5Y-59.0
X132.5Y-96.5
X132.5Y-100.0
X132.5Y-102.0
X132.75Y-54.25
X132.75Y-97.25
X132.95Y-66.0
X132.95Y-109.0
X133.0Y-61.0
X133.0Y-104.0
X133.5Y-50.75
X133.5Y-93.75
X134.0Y-56.45
X134.0Y-58.15
X134.0Y-62.4
X134.0Y-64.95
X134.0Y-99.45
X134.0Y-101.15
X134.0Y-105.4
X134.0Y-107.95
X134.0Y-57.3
X134.0Y-59.0
X134.0Y-63.25
X134.0Y-64.1
X134.0Y-66.0
X134.0Y-100.3
X134.0Y-102.0
X134.0Y-106.25
X134.0Y-107.1
X134.0Y-109.0
X134.0Y-55.6
X134.0Y-98.6
X135.18Y-60.65
X135.18Y-103.65
X135.58Y-59.25
X135.58Y-102.25
X136.25Y-58.5
X136.25Y-101.5
X137.35Y-58.52
X137.35Y-101.52
X137.82Y-57.0
X137.82Y-100.0
X138.36Y-61.86
X138.36Y-104.86
X140.0Y-60.05
X140.0Y-103.05
X153.75Y-56.24
X153.75Y-99.24
X154.0Y-43.5
X154.0Y-86.5
X154.5Y-56.25
X154.5Y-99.25
X155.0Y-42.5
X155.0Y-85.5
X155.25Y-56.24
X155.25Y-99.24
X155.75Y-54.25
X155.75Y-97.25
X156.0Y-42.5
X156.0Y-56.25
X156.0Y-85.5
X156.0Y-99.25
X156.25Y-52.25
X156.25Y-95.25
X156.5Y-43.5
X156.5Y-86.5
X157.0Y-46.0
X157.0Y-49.0
X157.0Y-50.5
X157.0Y-89.0
X157.0Y-92.0
X157.0Y-93.5
X157.75Y-41.5
X157.75Y-84.5
X158.547Y-43.5
X158.547Y-86.5
X158.75Y-50.5
X158.75Y-93.5
X160.0Y-41.5
X160.0Y-49.0
X160.0Y-84.5
X160.0Y-92.0
X160.75Y-43.5
X160.75Y-86.5
X161.25Y-65.75
X161.25Y-108.75
X161.689Y-54.5
X161.689Y-97.5
X161.75Y-50.75
X161.75Y-53.5
X161.75Y-93.75
X161.75Y-96.5
X163.0Y-62.4
X163.0Y-105.4
X163.0Y-50.11
X163.0Y-60.7
X163.0Y-64.95
X163.0Y-66.0
X163.0Y-93.11
X163.0Y-103.7
X163.0Y-107.95
X163.0Y-109.0
X163.0Y-59.85
X163.0Y-63.25
X163.0Y-102.85
X163.0Y-106.25
X164.0Y-56.0
X164.0Y-99.0
X164.05Y-66.0
X164.05Y-109.0
X164.25Y-50.0
X164.25Y-61.75
X164.25Y-63.0
X164.25Y-93.0
X164.25Y-104.75
X164.25Y-106.0
X164.5Y-59.0
X164.5Y-64.5
X164.5Y-102.0
X164.5Y-107.5
X164.75Y-48.25
X164.75Y-91.25
X164.9Y-66.0
X164.9Y-109.0
X165.25Y-46.5
X165.25Y-89.5
X165.5Y-47.75
X165.5Y-90.75
X166.0Y-63.0
X166.0Y-106.0
X166.5Y-48.75
X166.5Y-91.75
X166.6Y-66.0
X166.6Y-109.0
X166.75Y-55.0
X166.75Y-98.0
X167.0Y-49.25
X167.0Y-64.5
X167.0Y-92.25
X167.0Y-107.5
X167.45Y-66.0
X167.45Y-109.0
X167.5Y-48.75
X167.5Y-91.75
X168.25Y-47.0
X168.25Y-90.0
X168.3Y-66.0
X168.3Y-109.0
X168.35Y-57.35
X168.35Y-59.0
X168.35Y-60.65
X168.35Y-100.35
X168.35Y-102.0
X168.35Y-103.65
X168.75Y-47.75
X168.75Y-90.75
X169.15Y-52.0
X169.15Y-95.0
X169.444Y-46.4
X169.444Y-89.4
X169.5Y-48.5
X169.5Y-91.5
X169.75Y-47.75
X169.75Y-90.75
X170.0Y-57.35
X170.0Y-59.0
X170.0Y-61.25
X170.0Y-64.5
X170.0Y-100.35
X170.0Y-102.0
X170.0Y-104.25
X170.0Y-107.5
X170.0Y-52.0
X170.0Y-95.0
X170.5Y-45.75
X170.5Y-88.75
X171.5Y-44.75
X171.5Y-50.75
X171.5Y-87.75
X171.5Y-93.75
X171.65Y-57.35
X171.65Y-59.0
X171.65Y-100.35
X171.65Y-102.0
X171.7Y-66.0
X171.7Y-109.0
X172.0Y-60.25
X172.0Y-103.25
X172.25Y-53.0
X172.25Y-96.0
X172.5Y-50.0
X172.5Y-61.5
X172.5Y-64.5
X172.5Y-93.0
X172.5Y-104.5
X172.5Y-107.5
X172.55Y-66.0
X172.55Y-109.0
X173.0Y-42.5
X173.0Y-85.5
X173.4Y-66.0
X173.4Y-109.0
X173.5Y-41.5
X173.5Y-48.0
X173.5Y-84.5
X173.5Y-91.0
X174.0Y-46.5
X174.0Y-89.5
X174.75Y-53.25
X174.75Y-96.25
X175.5Y-53.5
X175.5Y-57.0
X175.5Y-59.0
X175.5Y-96.5
X175.5Y-100.0
X175.5Y-102.0
X175.75Y-54.25
X175.75Y-97.25
X175.95Y-66.0
X175.95Y-109.0
X176.0Y-61.0
X176.0Y-104.0
X176.5Y-50.75
X176.5Y-93.75
X177.0Y-56.45
X177.0Y-58.15
X177.0Y-62.4
X177.0Y-64.95
X177.0Y-99.45
X177.0Y-101.15
X177.0Y-105.4
X177.0Y-107.95
X177.0Y-57.3
X177.0Y-59.0
X177.0Y-63.25
X177.0Y-64.1
X177.0Y-66.0
X177.0Y-100.3
X177.0Y-102.0
X177.0Y-106.25
X177.0Y-107.1
X177.0Y-109.0
X177.0Y-55.6
X177.0Y-98.6
X178.18Y-60.65
X178.18Y-103.65
X178.58Y-59.25
X178.58Y-102.25
X179.25Y-58.5
X179.25Y-101.5
X180.35Y-58.52
X180.35Y-101.52
X180.82Y-57.0
X180.82Y-100.0
X181.36Y-61.86
X181.36Y-104.86
X183.0Y-60.05
X183.0Y-103.05
T2
X108.6Y-35.5
X108.6Y-67.5
X108.6Y-78.5
X108.6Y-110.5
X109.303Y-33.803
X109.303Y-37.197
X109.303Y-65.803
X109.303Y-69.197
X109.303Y-76.803
X109.303Y-80.197
X109.303Y-108.803
X109.303Y-112.197
X111.0Y-33.1
X111.0Y-37.9
X111.0Y-65.1
X111.0Y-69.9
X111.0Y-76.1
X111.0Y-80.9
X111.0Y-108.1
X111.0Y-112.9
X112.697Y-33.803
X112.697Y-37.197
X112.697Y-65.803
X112.697Y-69.197
X112.697Y-76.803
X112.697Y-80.197
X112.697Y-108.803
X112.697Y-112.197
X113.4Y-35.5
X113.4Y-67.5
X113.4Y-78.5
X113.4Y-110.5
X140.6Y-35.5
X140.6Y-67.5
X140.6Y-78.5
X140.6Y-110.5
X141.303Y-33.803
X141.303Y-37.197
X141.303Y-65.803
X141.303Y-69.197
X141.303Y-76.803
X141.303Y-80.197
X141.303Y-108.803
X141.303Y-112.197
X143.0Y-33.1
X143.0Y-37.9
X143.0Y-65.1
X143.0Y-69.9
X143.0Y-76.1
X143.0Y-80.9
X143.0Y-108.1
X143.0Y-112.9
X144.697Y-33.803
X144.697Y-37.197
X144.697Y-65.803
X144.697Y-69.197
X144.697Y-76.803
X144.697Y-80.197
X144.697Y-108.803
X144.697Y-112.197
X145.4Y-35.5
X145.4Y-67.5
X145.4Y-78.5
X145.4Y-110.5
X151.6Y-35.5
X151.6Y-67.5
X151.6Y-78.5
X151.6Y-110.5
X152.303Y-33.803
X152.303Y-37.197
X152.303Y-65.803
X152.303Y-69.197
X152.303Y-76.803
X152.303Y-80.197
X152.303Y-108.803
X152.303Y-112.197
X154.0Y-33.1
X154.0Y-37.9
X154.0Y-65.1
X154.0Y-69.9
X154.0Y-76.1
X154.0Y-80.9
X154.0Y-108.1
X154.0Y-112.9
X155.697Y-33.803
X155.697Y-37.197
X155.697Y-65.803
X155.697Y-69.197
X155.697Y-76.803
X155.697Y-80.197
X155.697Y-108.803
X155.697Y-112.197
X156.4Y-35.5
X156.4Y-67.5
X156.4Y-78.5
X156.4Y-110.5
X183.6Y-35.5
X183.6Y-67.5
X183.6Y-78.5
X183.6Y-110.5
X184.303Y-33.803
X184.303Y-37.197
X184.303Y-65.803
X184.303Y-69.197
X184.303Y-76.803
X184.303Y-80.197
X184.303Y-108.803
X184.303Y-112.197
X186.0Y-33.1
X186.0Y-37.9
X186.0Y-65.1
X186.0Y-69.9
X186.0Y-76.1
X186.0Y-80.9
X186.0Y-108.1
X186.0Y-112.9
X187.697Y-33.803
X187.697Y-37.197
X187.697Y-65.803
X187.697Y-69.197
X187.697Y-76.803
X187.697Y-80.197
X187.697Y-108.803
X187.697Y-112.197
X188.4Y-35.5
X188.4Y-67.5
X188.4Y-78.5
X188.4Y-110.5
T3
X131.75Y-38.5
X131.75Y-81.5
X138.842Y-44.041
X138.842Y-87.041
X174.75Y-38.5
X174.75Y-81.5
X181.842Y-44.041
X181.842Y-87.041
T4
X111.0Y-35.5
X111.0Y-67.5
X111.0Y-78.5
X111.0Y-110.5
X143.0Y-35.5
X143.0Y-67.5
X143.0Y-78.5
X143.0Y-110.5
X154.0Y-35.5
X154.0Y-67.5
X154.0Y-78.5
X154.0Y-110.5
X186.0Y-35.5
X186.0Y-67.5
X186.0Y-78.5
X186.0Y-110.5
T5
X125.0Y-31.0
X125.0Y-72.0
X125.0Y-74.0
X125.0Y-115.0
X125.8Y-31.0
X125.8Y-72.0
X125.8Y-74.0
X125.8Y-115.0
X126.6Y-31.0
X126.6Y-72.0
X126.6Y-74.0
X126.6Y-115.0
X127.4Y-31.0
X127.4Y-72.0
X127.4Y-74.0
X127.4Y-115.0
X128.2Y-31.0
X128.2Y-72.0
X128.2Y-74.0
X128.2Y-115.0
X129.0Y-31.0
X129.0Y-72.0
X129.0Y-74.0
X129.0Y-115.0
X147.5Y-49.5
X147.5Y-50.3
X147.5Y-51.1
X147.5Y-51.9
X147.5Y-52.7
X147.5Y-53.5
X147.5Y-92.5
X147.5Y-93.3
X147.5Y-94.1
X147.5Y-94.9
X147.5Y-95.7
X147.5Y-96.5
X149.5Y-49.5
X149.5Y-50.3
X149.5Y-51.1
X149.5Y-51.9
X149.5Y-52.7
X149.5Y-53.5
X149.5Y-92.5
X149.5Y-93.3
X149.5Y-94.1
X149.5Y-94.9
X149.5Y-95.7
X149.5Y-96.5
X168.0Y-31.0
X168.0Y-72.0
X168.0Y-74.0
X168.0Y-115.0
X168.8Y-31.0
X168.8Y-72.0
X168.8Y-74.0
X168.8Y-115.0
X169.6Y-31.0
X169.6Y-72.0
X169.6Y-74.0
X169.6Y-115.0
X170.4Y-31.0
X170.4Y-72.0
X170.4Y-74.0
X170.4Y-115.0
X171.2Y-31.0
X171.2Y-72.0
X171.2Y-74.0
X171.2Y-115.0
X172.0Y-31.0
X172.0Y-72.0
X172.0Y-74.0
X172.0Y-115.0
T6
X109.0Y-22.5
X109.0Y-123.5
X188.0Y-22.5
M30
