G04 #@! TF.GenerationSoftware,KiCad,Pcbnew,10.0.3*
G04 #@! TF.ProjectId,Speakeasy_panel_2x2,53706561-6b65-4617-9379-5f70616e656c,rev?*
G04 #@! TF.SameCoordinates,Original*
G04 #@! TF.FileFunction,Other,User*
%FSLAX46Y46*%
G04 Gerber Fmt 4.6, Leading zero omitted, Abs format (unit mm)*
%MOMM*%
%LPD*%
G01*
G04 APERTURE LIST*
%ADD10C,0.050000*%
G04 APERTURE END LIST*
D10*
X176850000Y-69000000D02*
G75*
G02*
X174350000Y-69000000I-1250000J0D01*
G01*
X174350000Y-69000000D02*
G75*
G02*
X176850000Y-69000000I1250000J0D01*
G01*
X130300000Y-69000000D02*
G75*
G02*
X127800000Y-69000000I-1250000J0D01*
G01*
X127800000Y-69000000D02*
G75*
G02*
X130300000Y-69000000I1250000J0D01*
G01*
X173300000Y-112000000D02*
G75*
G02*
X170800000Y-112000000I-1250000J0D01*
G01*
X170800000Y-112000000D02*
G75*
G02*
X173300000Y-112000000I1250000J0D01*
G01*
X112600000Y-23500000D02*
G75*
G02*
X110400000Y-23500000I-1100000J0D01*
G01*
X110400000Y-23500000D02*
G75*
G02*
X112600000Y-23500000I1100000J0D01*
G01*
X173300000Y-69000000D02*
G75*
G02*
X170800000Y-69000000I-1250000J0D01*
G01*
X170800000Y-69000000D02*
G75*
G02*
X173300000Y-69000000I1250000J0D01*
G01*
X186600000Y-23500000D02*
G75*
G02*
X184400000Y-23500000I-1100000J0D01*
G01*
X184400000Y-23500000D02*
G75*
G02*
X186600000Y-23500000I1100000J0D01*
G01*
X123200000Y-112000000D02*
G75*
G02*
X120700000Y-112000000I-1250000J0D01*
G01*
X120700000Y-112000000D02*
G75*
G02*
X123200000Y-112000000I1250000J0D01*
G01*
X130300000Y-112000000D02*
G75*
G02*
X127800000Y-112000000I-1250000J0D01*
G01*
X127800000Y-112000000D02*
G75*
G02*
X130300000Y-112000000I1250000J0D01*
G01*
X169750000Y-69000000D02*
G75*
G02*
X167250000Y-69000000I-1250000J0D01*
G01*
X167250000Y-69000000D02*
G75*
G02*
X169750000Y-69000000I1250000J0D01*
G01*
X126750000Y-69000000D02*
G75*
G02*
X124250000Y-69000000I-1250000J0D01*
G01*
X124250000Y-69000000D02*
G75*
G02*
X126750000Y-69000000I1250000J0D01*
G01*
X112600000Y-122500000D02*
G75*
G02*
X110400000Y-122500000I-1100000J0D01*
G01*
X110400000Y-122500000D02*
G75*
G02*
X112600000Y-122500000I1100000J0D01*
G01*
X133850000Y-112000000D02*
G75*
G02*
X131350000Y-112000000I-1250000J0D01*
G01*
X131350000Y-112000000D02*
G75*
G02*
X133850000Y-112000000I1250000J0D01*
G01*
X176850000Y-112000000D02*
G75*
G02*
X174350000Y-112000000I-1250000J0D01*
G01*
X174350000Y-112000000D02*
G75*
G02*
X176850000Y-112000000I1250000J0D01*
G01*
X166200000Y-112000000D02*
G75*
G02*
X163700000Y-112000000I-1250000J0D01*
G01*
X163700000Y-112000000D02*
G75*
G02*
X166200000Y-112000000I1250000J0D01*
G01*
X133850000Y-69000000D02*
G75*
G02*
X131350000Y-69000000I-1250000J0D01*
G01*
X131350000Y-69000000D02*
G75*
G02*
X133850000Y-69000000I1250000J0D01*
G01*
X166200000Y-69000000D02*
G75*
G02*
X163700000Y-69000000I-1250000J0D01*
G01*
X163700000Y-69000000D02*
G75*
G02*
X166200000Y-69000000I1250000J0D01*
G01*
X169750000Y-112000000D02*
G75*
G02*
X167250000Y-112000000I-1250000J0D01*
G01*
X167250000Y-112000000D02*
G75*
G02*
X169750000Y-112000000I1250000J0D01*
G01*
X123200000Y-69000000D02*
G75*
G02*
X120700000Y-69000000I-1250000J0D01*
G01*
X120700000Y-69000000D02*
G75*
G02*
X123200000Y-69000000I1250000J0D01*
G01*
X126750000Y-112000000D02*
G75*
G02*
X124250000Y-112000000I-1250000J0D01*
G01*
X124250000Y-112000000D02*
G75*
G02*
X126750000Y-112000000I1250000J0D01*
G01*
M02*
