G04 #@! TF.GenerationSoftware,KiCad,Pcbnew,10.0.3*
G04 #@! TF.ProjectId,Speakeasy_panel_2x2,53706561-6b65-4617-9379-5f70616e656c,rev?*
G04 #@! TF.SameCoordinates,Original*
G04 #@! TF.FileFunction,Soldermask,Bot*
G04 #@! TF.FilePolarity,Negative*
%FSLAX46Y46*%
G04 Gerber Fmt 4.6, Leading zero omitted, Abs format (unit mm)*
%MOMM*%
%LPD*%
G01*
G04 APERTURE LIST*
%ADD10C,0.500000*%
%ADD11C,0.800000*%
%ADD12C,6.400000*%
%ADD13C,1.600000*%
%ADD14C,2.000000*%
%ADD15C,1.500000*%
G04 APERTURE END LIST*
D10*
X170400000Y-74000000D03*
X149500000Y-53500000D03*
X128200000Y-31000000D03*
D11*
X183600000Y-110500000D03*
X184302944Y-108802944D03*
X184302944Y-112197056D03*
X186000000Y-108100000D03*
D12*
X186000000Y-110500000D03*
D11*
X186000000Y-112900000D03*
X187697056Y-108802944D03*
X187697056Y-112197056D03*
X188400000Y-110500000D03*
D13*
X138842098Y-87040952D03*
X131750001Y-81500000D03*
D10*
X147500000Y-93300000D03*
X126600000Y-31000000D03*
X147500000Y-92500000D03*
X149500000Y-96500000D03*
X169600000Y-72000000D03*
X147500000Y-52700000D03*
X125800000Y-74000000D03*
X147500000Y-49500000D03*
X125800000Y-72000000D03*
D11*
X108600000Y-35500000D03*
X109302944Y-33802944D03*
X109302944Y-37197056D03*
X111000000Y-33100000D03*
D12*
X111000000Y-35500000D03*
D11*
X111000000Y-37900000D03*
X112697056Y-33802944D03*
X112697056Y-37197056D03*
X113400000Y-35500000D03*
D10*
X147500000Y-96500000D03*
X125000000Y-115000000D03*
X172000000Y-72000000D03*
X147500000Y-94100000D03*
X170400000Y-115000000D03*
X172000000Y-74000000D03*
D11*
X151600000Y-78500000D03*
X152302944Y-76802944D03*
X152302944Y-80197056D03*
X154000000Y-76100000D03*
D12*
X154000000Y-78500000D03*
D11*
X154000000Y-80900000D03*
X155697056Y-76802944D03*
X155697056Y-80197056D03*
X156400000Y-78500000D03*
D10*
X127400000Y-74000000D03*
D13*
X181842098Y-44040952D03*
X174750001Y-38500000D03*
D10*
X127400000Y-31000000D03*
X149500000Y-94900000D03*
X149500000Y-50300000D03*
X171200000Y-31000000D03*
X171200000Y-72000000D03*
X149500000Y-51900000D03*
X125000000Y-74000000D03*
D11*
X151600000Y-35500000D03*
X152302944Y-33802944D03*
X152302944Y-37197056D03*
X154000000Y-33100000D03*
D12*
X154000000Y-35500000D03*
D11*
X154000000Y-37900000D03*
X155697056Y-33802944D03*
X155697056Y-37197056D03*
X156400000Y-35500000D03*
D10*
X125800000Y-115000000D03*
X170400000Y-31000000D03*
X149500000Y-94100000D03*
X171200000Y-74000000D03*
D11*
X151600000Y-67500000D03*
X152302944Y-65802944D03*
X152302944Y-69197056D03*
X154000000Y-65100000D03*
D12*
X154000000Y-67500000D03*
D11*
X154000000Y-69900000D03*
X155697056Y-65802944D03*
X155697056Y-69197056D03*
X156400000Y-67500000D03*
D10*
X127400000Y-115000000D03*
X125000000Y-31000000D03*
X168000000Y-74000000D03*
X147500000Y-94900000D03*
X168800000Y-115000000D03*
X168000000Y-115000000D03*
X128200000Y-74000000D03*
X129000000Y-115000000D03*
X149500000Y-52700000D03*
X149500000Y-92500000D03*
X168800000Y-72000000D03*
X147500000Y-95700000D03*
X168800000Y-31000000D03*
X147500000Y-51100000D03*
X149500000Y-93300000D03*
X169600000Y-74000000D03*
X169600000Y-31000000D03*
X149500000Y-49500000D03*
D11*
X183600000Y-78500000D03*
X184302944Y-76802944D03*
X184302944Y-80197056D03*
X186000000Y-76100000D03*
D12*
X186000000Y-78500000D03*
D11*
X186000000Y-80900000D03*
X187697056Y-76802944D03*
X187697056Y-80197056D03*
X188400000Y-78500000D03*
D10*
X170400000Y-72000000D03*
D11*
X140600000Y-67500000D03*
X141302944Y-65802944D03*
X141302944Y-69197056D03*
X143000000Y-65100000D03*
D12*
X143000000Y-67500000D03*
D11*
X143000000Y-69900000D03*
X144697056Y-65802944D03*
X144697056Y-69197056D03*
X145400000Y-67500000D03*
D14*
X109000000Y-22500000D03*
D10*
X128200000Y-72000000D03*
D11*
X140600000Y-78500000D03*
X141302944Y-76802944D03*
X141302944Y-80197056D03*
X143000000Y-76100000D03*
D12*
X143000000Y-78500000D03*
D11*
X143000000Y-80900000D03*
X144697056Y-76802944D03*
X144697056Y-80197056D03*
X145400000Y-78500000D03*
D10*
X126600000Y-115000000D03*
D11*
X108600000Y-67500000D03*
X109302944Y-65802944D03*
X109302944Y-69197056D03*
X111000000Y-65100000D03*
D12*
X111000000Y-67500000D03*
D11*
X111000000Y-69900000D03*
X112697056Y-65802944D03*
X112697056Y-69197056D03*
X113400000Y-67500000D03*
X140600000Y-110500000D03*
X141302944Y-108802944D03*
X141302944Y-112197056D03*
X143000000Y-108100000D03*
D12*
X143000000Y-110500000D03*
D11*
X143000000Y-112900000D03*
X144697056Y-108802944D03*
X144697056Y-112197056D03*
X145400000Y-110500000D03*
X183600000Y-35500000D03*
X184302944Y-33802944D03*
X184302944Y-37197056D03*
X186000000Y-33100000D03*
D12*
X186000000Y-35500000D03*
D11*
X186000000Y-37900000D03*
X187697056Y-33802944D03*
X187697056Y-37197056D03*
X188400000Y-35500000D03*
D10*
X125800000Y-31000000D03*
D14*
X109000000Y-123500000D03*
D10*
X129000000Y-72000000D03*
X147500000Y-53500000D03*
D11*
X108600000Y-78500000D03*
X109302944Y-76802944D03*
X109302944Y-80197056D03*
X111000000Y-76100000D03*
D12*
X111000000Y-78500000D03*
D11*
X111000000Y-80900000D03*
X112697056Y-76802944D03*
X112697056Y-80197056D03*
X113400000Y-78500000D03*
D10*
X125000000Y-72000000D03*
D11*
X183600000Y-67500000D03*
X184302944Y-65802944D03*
X184302944Y-69197056D03*
X186000000Y-65100000D03*
D12*
X186000000Y-67500000D03*
D11*
X186000000Y-69900000D03*
X187697056Y-65802944D03*
X187697056Y-69197056D03*
X188400000Y-67500000D03*
D14*
X188000000Y-22500000D03*
D10*
X127400000Y-72000000D03*
X147500000Y-51900000D03*
X129000000Y-31000000D03*
X169600000Y-115000000D03*
D11*
X140600000Y-35500000D03*
X141302944Y-33802944D03*
X141302944Y-37197056D03*
X143000000Y-33100000D03*
D12*
X143000000Y-35500000D03*
D11*
X143000000Y-37900000D03*
X144697056Y-33802944D03*
X144697056Y-37197056D03*
X145400000Y-35500000D03*
D10*
X168800000Y-74000000D03*
D13*
X138842098Y-44040952D03*
X131750001Y-38500000D03*
D10*
X168000000Y-31000000D03*
X149500000Y-95700000D03*
X149500000Y-51100000D03*
X172000000Y-31000000D03*
X126600000Y-74000000D03*
D11*
X108600000Y-110500000D03*
X109302944Y-108802944D03*
X109302944Y-112197056D03*
X111000000Y-108100000D03*
D12*
X111000000Y-110500000D03*
D11*
X111000000Y-112900000D03*
X112697056Y-108802944D03*
X112697056Y-112197056D03*
X113400000Y-110500000D03*
D10*
X129000000Y-74000000D03*
X128200000Y-115000000D03*
X147500000Y-50300000D03*
D13*
X181842098Y-87040952D03*
X174750001Y-81500000D03*
D11*
X151600000Y-110500000D03*
X152302944Y-108802944D03*
X152302944Y-112197056D03*
X154000000Y-108100000D03*
D12*
X154000000Y-110500000D03*
D11*
X154000000Y-112900000D03*
X155697056Y-108802944D03*
X155697056Y-112197056D03*
X156400000Y-110500000D03*
D10*
X126600000Y-72000000D03*
X171200000Y-115000000D03*
X172000000Y-115000000D03*
X168000000Y-72000000D03*
D15*
X175600000Y-69000000D03*
X129050000Y-69000000D03*
X172050000Y-112000000D03*
D14*
X111500000Y-23500000D03*
D15*
X172050000Y-69000000D03*
D14*
X185500000Y-23500000D03*
D15*
X121950000Y-112000000D03*
X129050000Y-112000000D03*
X168500000Y-69000000D03*
X125500000Y-69000000D03*
D14*
X111500000Y-122500000D03*
D15*
X132600000Y-112000000D03*
X175600000Y-112000000D03*
X164950000Y-112000000D03*
X132600000Y-69000000D03*
X164950000Y-69000000D03*
X168500000Y-112000000D03*
X121950000Y-69000000D03*
X125500000Y-112000000D03*
M02*
